<?xml version="1.0" encoding="utf-8" standalone="no"?>
<!DOCTYPE svg PUBLIC "-//W3C//DTD SVG 1.1//EN"
  "http://www.w3.org/Graphics/SVG/1.1/DTD/svg11.dtd">
<svg xmlns:xlink="http://www.w3.org/1999/xlink" width="576pt" height="432pt" viewBox="0 0 576 432" xmlns="http://www.w3.org/2000/svg" version="1.1">
 <metadata>
  <rdf:RDF xmlns:dc="http://purl.org/dc/elements/1.1/" xmlns:cc="http://creativecommons.org/ns#" xmlns:rdf="http://www.w3.org/1999/02/22-rdf-syntax-ns#">
   <cc:Work>
    <dc:type rdf:resource="http://purl.org/dc/dcmitype/StillImage"/>
    <dc:date>2024-04-02T21:06:38.083292</dc:date>
    <dc:format>image/svg+xml</dc:format>
    <dc:creator>
     <cc:Agent>
      <dc:title>Matplotlib v3.8.3, https://matplotlib.org/</dc:title>
     </cc:Agent>
    </dc:creator>
   </cc:Work>
  </rdf:RDF>
 </metadata>
 <defs>
  <style type="text/css">*{stroke-linejoin: round; stroke-linecap: butt}</style>
 </defs>
 <g id="figure_1">
  <g id="patch_1">
   <path d="M 0 432 
L 576 432 
L 576 0 
L 0 0 
z
" style="fill: #ffffff"/>
  </g>
  <g id="axes_1">
   <g id="patch_2">
    <path d="M 103.376 356.2 
L 541.665 356.2 
L 541.665 21.6 
L 103.376 21.6 
z
" style="fill: #ffffff"/>
   </g>
   <g id="PathCollection_1">
    <defs>
     <path id="m94231fba51" d="M 0 3 
C 0.795609 3 1.55874 2.683901 2.12132 2.12132 
C 2.683901 1.55874 3 0.795609 3 0 
C 3 -0.795609 2.683901 -1.55874 2.12132 -2.12132 
C 1.55874 -2.683901 0.795609 -3 0 -3 
C -0.795609 -3 -1.55874 -2.683901 -2.12132 -2.12132 
C -2.683901 -1.55874 -3 -0.795609 -3 0 
C -3 0.795609 -2.683901 1.55874 -2.12132 2.12132 
C -1.55874 2.683901 -0.795609 3 0 3 
z
" style="stroke: #00a6b6"/>
    </defs>
    <g clip-path="url(#p3a122bc415)">
     <use xlink:href="#m94231fba51" x="115.550694" y="61.981622" style="fill: #00a6b6; stroke: #00a6b6"/>
     <use xlink:href="#m94231fba51" x="298.171111" y="180.662751" style="fill: #00a6b6; stroke: #00a6b6"/>
     <use xlink:href="#m94231fba51" x="480.791528" y="301.430533" style="fill: #00a6b6; stroke: #00a6b6"/>
    </g>
   </g>
   <g id="PathCollection_2">
    <defs>
     <path id="m7e2ce106e2" d="M 0 3 
C 0.795609 3 1.55874 2.683901 2.12132 2.12132 
C 2.683901 1.55874 3 0.795609 3 0 
C 3 -0.795609 2.683901 -1.55874 2.12132 -2.12132 
C 1.55874 -2.683901 0.795609 -3 0 -3 
C -0.795609 -3 -1.55874 -2.683901 -2.12132 -2.12132 
C -2.683901 -1.55874 -3 -0.795609 -3 0 
C -3 0.795609 -2.683901 1.55874 -2.12132 2.12132 
C -1.55874 2.683901 -0.795609 3 0 3 
z
" style="stroke: #a50034"/>
    </defs>
    <g clip-path="url(#p3a122bc415)">
     <use xlink:href="#m7e2ce106e2" x="115.550694" y="63.275563" style="fill: #a50034; stroke: #a50034"/>
     <use xlink:href="#m7e2ce106e2" x="480.791528" y="287.057774" style="fill: #a50034; stroke: #a50034"/>
     <use xlink:href="#m7e2ce106e2" x="298.171111" y="174.65629" style="fill: #a50034; stroke: #a50034"/>
    </g>
   </g>
   <g id="PathCollection_3">
    <defs>
     <path id="m1af6921645" d="M 0 3 
C 0.795609 3 1.55874 2.683901 2.12132 2.12132 
C 2.683901 1.55874 3 0.795609 3 0 
C 3 -0.795609 2.683901 -1.55874 2.12132 -2.12132 
C 1.55874 -2.683901 0.795609 -3 0 -3 
C -0.795609 -3 -1.55874 -2.683901 -2.12132 -2.12132 
C -2.683901 -1.55874 -3 -0.795609 -3 0 
C -3 0.795609 -2.683901 1.55874 -2.12132 2.12132 
C -1.55874 2.683901 -0.795609 3 0 3 
z
" style="stroke: #ef60a3"/>
    </defs>
    <g clip-path="url(#p3a122bc415)">
     <use xlink:href="#m1af6921645" x="480.791528" y="251.729389" style="fill: #ef60a3; stroke: #ef60a3"/>
     <use xlink:href="#m1af6921645" x="298.171111" y="150.099545" style="fill: #ef60a3; stroke: #ef60a3"/>
     <use xlink:href="#m1af6921645" x="115.550694" y="42.832831" style="fill: #ef60a3; stroke: #ef60a3"/>
    </g>
   </g>
   <g id="matplotlib.axis_1">
    <g id="xtick_1">
     <g id="line2d_1">
      <path d="M 103.376 356.2 
L 103.376 21.6 
" clip-path="url(#p3a122bc415)" style="fill: none; stroke: #b0b0b0; stroke-width: 0.8; stroke-linecap: square"/>
     </g>
     <g id="line2d_2">
      <defs>
       <path id="mc17dbfd3bc" d="M 0 0 
L 0 3.5 
" style="stroke: #000000; stroke-width: 0.8"/>
      </defs>
      <g>
       <use xlink:href="#mc17dbfd3bc" x="103.376" y="356.2" style="stroke: #000000; stroke-width: 0.8"/>
      </g>
     </g>
     <g id="text_1">
      <!-- −16 -->
      <g transform="translate(82.271313 378.396875) scale(0.2 -0.2)">
       <defs>
        <path id="DejaVuSans-2212" d="M 678 2272 
L 4684 2272 
L 4684 1741 
L 678 1741 
L 678 2272 
z
" transform="scale(0.015625)"/>
        <path id="DejaVuSans-31" d="M 794 531 
L 1825 531 
L 1825 4091 
L 703 3866 
L 703 4441 
L 1819 4666 
L 2450 4666 
L 2450 531 
L 3481 531 
L 3481 0 
L 794 0 
L 794 531 
z
" transform="scale(0.015625)"/>
        <path id="DejaVuSans-36" d="M 2113 2584 
Q 1688 2584 1439 2293 
Q 1191 2003 1191 1497 
Q 1191 994 1439 701 
Q 1688 409 2113 409 
Q 2538 409 2786 701 
Q 3034 994 3034 1497 
Q 3034 2003 2786 2293 
Q 2538 2584 2113 2584 
z
M 3366 4563 
L 3366 3988 
Q 3128 4100 2886 4159 
Q 2644 4219 2406 4219 
Q 1781 4219 1451 3797 
Q 1122 3375 1075 2522 
Q 1259 2794 1537 2939 
Q 1816 3084 2150 3084 
Q 2853 3084 3261 2657 
Q 3669 2231 3669 1497 
Q 3669 778 3244 343 
Q 2819 -91 2113 -91 
Q 1303 -91 875 529 
Q 447 1150 447 2328 
Q 447 3434 972 4092 
Q 1497 4750 2381 4750 
Q 2619 4750 2861 4703 
Q 3103 4656 3366 4563 
z
" transform="scale(0.015625)"/>
       </defs>
       <use xlink:href="#DejaVuSans-2212"/>
       <use xlink:href="#DejaVuSans-31" x="83.789062"/>
       <use xlink:href="#DejaVuSans-36" x="147.412109"/>
      </g>
     </g>
    </g>
    <g id="xtick_2">
     <g id="line2d_3">
      <path d="M 176.424167 356.2 
L 176.424167 21.6 
" clip-path="url(#p3a122bc415)" style="fill: none; stroke: #b0b0b0; stroke-width: 0.8; stroke-linecap: square"/>
     </g>
     <g id="line2d_4">
      <g>
       <use xlink:href="#mc17dbfd3bc" x="176.424167" y="356.2" style="stroke: #000000; stroke-width: 0.8"/>
      </g>
     </g>
     <g id="text_2">
      <!-- −10 -->
      <g transform="translate(155.319479 378.396875) scale(0.2 -0.2)">
       <defs>
        <path id="DejaVuSans-30" d="M 2034 4250 
Q 1547 4250 1301 3770 
Q 1056 3291 1056 2328 
Q 1056 1369 1301 889 
Q 1547 409 2034 409 
Q 2525 409 2770 889 
Q 3016 1369 3016 2328 
Q 3016 3291 2770 3770 
Q 2525 4250 2034 4250 
z
M 2034 4750 
Q 2819 4750 3233 4129 
Q 3647 3509 3647 2328 
Q 3647 1150 3233 529 
Q 2819 -91 2034 -91 
Q 1250 -91 836 529 
Q 422 1150 422 2328 
Q 422 3509 836 4129 
Q 1250 4750 2034 4750 
z
" transform="scale(0.015625)"/>
       </defs>
       <use xlink:href="#DejaVuSans-2212"/>
       <use xlink:href="#DejaVuSans-31" x="83.789062"/>
       <use xlink:href="#DejaVuSans-30" x="147.412109"/>
      </g>
     </g>
    </g>
    <g id="xtick_3">
     <g id="line2d_5">
      <path d="M 249.472333 356.2 
L 249.472333 21.6 
" clip-path="url(#p3a122bc415)" style="fill: none; stroke: #b0b0b0; stroke-width: 0.8; stroke-linecap: square"/>
     </g>
     <g id="line2d_6">
      <g>
       <use xlink:href="#mc17dbfd3bc" x="249.472333" y="356.2" style="stroke: #000000; stroke-width: 0.8"/>
      </g>
     </g>
     <g id="text_3">
      <!-- −4 -->
      <g transform="translate(234.730146 378.396875) scale(0.2 -0.2)">
       <defs>
        <path id="DejaVuSans-34" d="M 2419 4116 
L 825 1625 
L 2419 1625 
L 2419 4116 
z
M 2253 4666 
L 3047 4666 
L 3047 1625 
L 3713 1625 
L 3713 1100 
L 3047 1100 
L 3047 0 
L 2419 0 
L 2419 1100 
L 313 1100 
L 313 1709 
L 2253 4666 
z
" transform="scale(0.015625)"/>
       </defs>
       <use xlink:href="#DejaVuSans-2212"/>
       <use xlink:href="#DejaVuSans-34" x="83.789062"/>
      </g>
     </g>
    </g>
    <g id="xtick_4">
     <g id="line2d_7">
      <path d="M 322.5205 356.2 
L 322.5205 21.6 
" clip-path="url(#p3a122bc415)" style="fill: none; stroke: #b0b0b0; stroke-width: 0.8; stroke-linecap: square"/>
     </g>
     <g id="line2d_8">
      <g>
       <use xlink:href="#mc17dbfd3bc" x="322.5205" y="356.2" style="stroke: #000000; stroke-width: 0.8"/>
      </g>
     </g>
     <g id="text_4">
      <!-- 2 -->
      <g transform="translate(316.158 378.396875) scale(0.2 -0.2)">
       <defs>
        <path id="DejaVuSans-32" d="M 1228 531 
L 3431 531 
L 3431 0 
L 469 0 
L 469 531 
Q 828 903 1448 1529 
Q 2069 2156 2228 2338 
Q 2531 2678 2651 2914 
Q 2772 3150 2772 3378 
Q 2772 3750 2511 3984 
Q 2250 4219 1831 4219 
Q 1534 4219 1204 4116 
Q 875 4013 500 3803 
L 500 4441 
Q 881 4594 1212 4672 
Q 1544 4750 1819 4750 
Q 2544 4750 2975 4387 
Q 3406 4025 3406 3419 
Q 3406 3131 3298 2873 
Q 3191 2616 2906 2266 
Q 2828 2175 2409 1742 
Q 1991 1309 1228 531 
z
" transform="scale(0.015625)"/>
       </defs>
       <use xlink:href="#DejaVuSans-32"/>
      </g>
     </g>
    </g>
    <g id="xtick_5">
     <g id="line2d_9">
      <path d="M 395.568667 356.2 
L 395.568667 21.6 
" clip-path="url(#p3a122bc415)" style="fill: none; stroke: #b0b0b0; stroke-width: 0.8; stroke-linecap: square"/>
     </g>
     <g id="line2d_10">
      <g>
       <use xlink:href="#mc17dbfd3bc" x="395.568667" y="356.2" style="stroke: #000000; stroke-width: 0.8"/>
      </g>
     </g>
     <g id="text_5">
      <!-- 8 -->
      <g transform="translate(389.206167 378.396875) scale(0.2 -0.2)">
       <defs>
        <path id="DejaVuSans-38" d="M 2034 2216 
Q 1584 2216 1326 1975 
Q 1069 1734 1069 1313 
Q 1069 891 1326 650 
Q 1584 409 2034 409 
Q 2484 409 2743 651 
Q 3003 894 3003 1313 
Q 3003 1734 2745 1975 
Q 2488 2216 2034 2216 
z
M 1403 2484 
Q 997 2584 770 2862 
Q 544 3141 544 3541 
Q 544 4100 942 4425 
Q 1341 4750 2034 4750 
Q 2731 4750 3128 4425 
Q 3525 4100 3525 3541 
Q 3525 3141 3298 2862 
Q 3072 2584 2669 2484 
Q 3125 2378 3379 2068 
Q 3634 1759 3634 1313 
Q 3634 634 3220 271 
Q 2806 -91 2034 -91 
Q 1263 -91 848 271 
Q 434 634 434 1313 
Q 434 1759 690 2068 
Q 947 2378 1403 2484 
z
M 1172 3481 
Q 1172 3119 1398 2916 
Q 1625 2713 2034 2713 
Q 2441 2713 2670 2916 
Q 2900 3119 2900 3481 
Q 2900 3844 2670 4047 
Q 2441 4250 2034 4250 
Q 1625 4250 1398 4047 
Q 1172 3844 1172 3481 
z
" transform="scale(0.015625)"/>
       </defs>
       <use xlink:href="#DejaVuSans-38"/>
      </g>
     </g>
    </g>
    <g id="xtick_6">
     <g id="line2d_11">
      <path d="M 468.616833 356.2 
L 468.616833 21.6 
" clip-path="url(#p3a122bc415)" style="fill: none; stroke: #b0b0b0; stroke-width: 0.8; stroke-linecap: square"/>
     </g>
     <g id="line2d_12">
      <g>
       <use xlink:href="#mc17dbfd3bc" x="468.616833" y="356.2" style="stroke: #000000; stroke-width: 0.8"/>
      </g>
     </g>
     <g id="text_6">
      <!-- 14 -->
      <g transform="translate(455.891833 378.396875) scale(0.2 -0.2)">
       <use xlink:href="#DejaVuSans-31"/>
       <use xlink:href="#DejaVuSans-34" x="63.623047"/>
      </g>
     </g>
    </g>
    <g id="xtick_7">
     <g id="line2d_13">
      <path d="M 541.665 356.2 
L 541.665 21.6 
" clip-path="url(#p3a122bc415)" style="fill: none; stroke: #b0b0b0; stroke-width: 0.8; stroke-linecap: square"/>
     </g>
     <g id="line2d_14">
      <g>
       <use xlink:href="#mc17dbfd3bc" x="541.665" y="356.2" style="stroke: #000000; stroke-width: 0.8"/>
      </g>
     </g>
     <g id="text_7">
      <!-- 20 -->
      <g transform="translate(528.94 378.396875) scale(0.2 -0.2)">
       <use xlink:href="#DejaVuSans-32"/>
       <use xlink:href="#DejaVuSans-30" x="63.623047"/>
      </g>
     </g>
    </g>
    <g id="text_8">
     <!-- $\delta_e$ [deg] -->
     <g transform="translate(281.9205 401.75625) scale(0.2 -0.2)">
      <defs>
       <path id="DejaVuSans-Oblique-3b4" d="M 3472 4053 
Q 3197 4272 2450 4272 
Q 1659 4272 1588 3906 
Q 1531 3619 2328 3469 
Q 2953 3353 3253 3003 
Q 3616 2581 3447 1716 
Q 3284 888 2763 400 
Q 2238 -91 1488 -91 
Q 741 -91 406 400 
Q 72 888 241 1747 
Q 363 2384 891 2900 
Q 1097 3100 1353 3213 
Q 913 3459 1000 3900 
Q 1166 4750 2544 4750 
Q 3234 4750 3566 4531 
L 3472 4053 
z
M 1753 3056 
Q 1525 2966 1306 2738 
Q 969 2384 847 1747 
Q 722 1113 919 756 
Q 1119 397 1584 397 
Q 2044 397 2381 759 
Q 2722 1122 2838 1716 
Q 2956 2338 2731 2638 
Q 2491 2959 2103 2994 
Q 1906 3013 1753 3056 
z
" transform="scale(0.015625)"/>
       <path id="DejaVuSans-Oblique-65" d="M 3078 2063 
Q 3088 2113 3092 2166 
Q 3097 2219 3097 2272 
Q 3097 2653 2873 2875 
Q 2650 3097 2266 3097 
Q 1838 3097 1509 2826 
Q 1181 2556 1013 2059 
L 3078 2063 
z
M 3578 1613 
L 903 1613 
Q 884 1494 878 1425 
Q 872 1356 872 1306 
Q 872 872 1139 634 
Q 1406 397 1894 397 
Q 2269 397 2603 481 
Q 2938 566 3225 728 
L 3116 159 
Q 2806 34 2476 -28 
Q 2147 -91 1806 -91 
Q 1078 -91 686 257 
Q 294 606 294 1247 
Q 294 1794 489 2264 
Q 684 2734 1063 3103 
Q 1306 3334 1642 3459 
Q 1978 3584 2356 3584 
Q 2950 3584 3301 3228 
Q 3653 2872 3653 2272 
Q 3653 2128 3634 1964 
Q 3616 1800 3578 1613 
z
" transform="scale(0.015625)"/>
       <path id="DejaVuSans-20" transform="scale(0.015625)"/>
       <path id="DejaVuSans-5b" d="M 550 4863 
L 1875 4863 
L 1875 4416 
L 1125 4416 
L 1125 -397 
L 1875 -397 
L 1875 -844 
L 550 -844 
L 550 4863 
z
" transform="scale(0.015625)"/>
       <path id="DejaVuSans-64" d="M 2906 2969 
L 2906 4863 
L 3481 4863 
L 3481 0 
L 2906 0 
L 2906 525 
Q 2725 213 2448 61 
Q 2172 -91 1784 -91 
Q 1150 -91 751 415 
Q 353 922 353 1747 
Q 353 2572 751 3078 
Q 1150 3584 1784 3584 
Q 2172 3584 2448 3432 
Q 2725 3281 2906 2969 
z
M 947 1747 
Q 947 1113 1208 752 
Q 1469 391 1925 391 
Q 2381 391 2643 752 
Q 2906 1113 2906 1747 
Q 2906 2381 2643 2742 
Q 2381 3103 1925 3103 
Q 1469 3103 1208 2742 
Q 947 2381 947 1747 
z
" transform="scale(0.015625)"/>
       <path id="DejaVuSans-65" d="M 3597 1894 
L 3597 1613 
L 953 1613 
Q 991 1019 1311 708 
Q 1631 397 2203 397 
Q 2534 397 2845 478 
Q 3156 559 3463 722 
L 3463 178 
Q 3153 47 2828 -22 
Q 2503 -91 2169 -91 
Q 1331 -91 842 396 
Q 353 884 353 1716 
Q 353 2575 817 3079 
Q 1281 3584 2069 3584 
Q 2775 3584 3186 3129 
Q 3597 2675 3597 1894 
z
M 3022 2063 
Q 3016 2534 2758 2815 
Q 2500 3097 2075 3097 
Q 1594 3097 1305 2825 
Q 1016 2553 972 2059 
L 3022 2063 
z
" transform="scale(0.015625)"/>
       <path id="DejaVuSans-67" d="M 2906 1791 
Q 2906 2416 2648 2759 
Q 2391 3103 1925 3103 
Q 1463 3103 1205 2759 
Q 947 2416 947 1791 
Q 947 1169 1205 825 
Q 1463 481 1925 481 
Q 2391 481 2648 825 
Q 2906 1169 2906 1791 
z
M 3481 434 
Q 3481 -459 3084 -895 
Q 2688 -1331 1869 -1331 
Q 1566 -1331 1297 -1286 
Q 1028 -1241 775 -1147 
L 775 -588 
Q 1028 -725 1275 -790 
Q 1522 -856 1778 -856 
Q 2344 -856 2625 -561 
Q 2906 -266 2906 331 
L 2906 616 
Q 2728 306 2450 153 
Q 2172 0 1784 0 
Q 1141 0 747 490 
Q 353 981 353 1791 
Q 353 2603 747 3093 
Q 1141 3584 1784 3584 
Q 2172 3584 2450 3431 
Q 2728 3278 2906 2969 
L 2906 3500 
L 3481 3500 
L 3481 434 
z
" transform="scale(0.015625)"/>
       <path id="DejaVuSans-5d" d="M 1947 4863 
L 1947 -844 
L 622 -844 
L 622 -397 
L 1369 -397 
L 1369 4416 
L 622 4416 
L 622 4863 
L 1947 4863 
z
" transform="scale(0.015625)"/>
      </defs>
      <use xlink:href="#DejaVuSans-Oblique-3b4" transform="translate(0 0.015625)"/>
      <use xlink:href="#DejaVuSans-Oblique-65" transform="translate(61.181641 -16.390625) scale(0.7)"/>
      <use xlink:href="#DejaVuSans-20" transform="translate(106.982422 0.015625)"/>
      <use xlink:href="#DejaVuSans-5b" transform="translate(138.769531 0.015625)"/>
      <use xlink:href="#DejaVuSans-64" transform="translate(177.783203 0.015625)"/>
      <use xlink:href="#DejaVuSans-65" transform="translate(241.259766 0.015625)"/>
      <use xlink:href="#DejaVuSans-67" transform="translate(302.783203 0.015625)"/>
      <use xlink:href="#DejaVuSans-5d" transform="translate(366.259766 0.015625)"/>
     </g>
    </g>
   </g>
   <g id="matplotlib.axis_2">
    <g id="ytick_1">
     <g id="line2d_15">
      <path d="M 103.376 322.476 
L 541.665 322.476 
" clip-path="url(#p3a122bc415)" style="fill: none; stroke: #b0b0b0; stroke-width: 0.8; stroke-linecap: square"/>
     </g>
     <g id="line2d_16">
      <defs>
       <path id="m116c9872a2" d="M 0 0 
L -3.5 0 
" style="stroke: #000000; stroke-width: 0.8"/>
      </defs>
      <g>
       <use xlink:href="#m116c9872a2" x="103.376" y="322.476" style="stroke: #000000; stroke-width: 0.8"/>
      </g>
     </g>
     <g id="text_9">
      <!-- −0.6 -->
      <g transform="translate(47.810375 330.074438) scale(0.2 -0.2)">
       <defs>
        <path id="DejaVuSans-2e" d="M 684 794 
L 1344 794 
L 1344 0 
L 684 0 
L 684 794 
z
" transform="scale(0.015625)"/>
       </defs>
       <use xlink:href="#DejaVuSans-2212"/>
       <use xlink:href="#DejaVuSans-30" x="83.789062"/>
       <use xlink:href="#DejaVuSans-2e" x="147.412109"/>
       <use xlink:href="#DejaVuSans-36" x="179.199219"/>
      </g>
     </g>
    </g>
    <g id="ytick_2">
     <g id="line2d_17">
      <path d="M 103.376 262.026393 
L 541.665 262.026393 
" clip-path="url(#p3a122bc415)" style="fill: none; stroke: #b0b0b0; stroke-width: 0.8; stroke-linecap: square"/>
     </g>
     <g id="line2d_18">
      <g>
       <use xlink:href="#m116c9872a2" x="103.376" y="262.026393" style="stroke: #000000; stroke-width: 0.8"/>
      </g>
     </g>
     <g id="text_10">
      <!-- −0.4 -->
      <g transform="translate(47.810375 269.62483) scale(0.2 -0.2)">
       <use xlink:href="#DejaVuSans-2212"/>
       <use xlink:href="#DejaVuSans-30" x="83.789062"/>
       <use xlink:href="#DejaVuSans-2e" x="147.412109"/>
       <use xlink:href="#DejaVuSans-34" x="179.199219"/>
      </g>
     </g>
    </g>
    <g id="ytick_3">
     <g id="line2d_19">
      <path d="M 103.376 201.576786 
L 541.665 201.576786 
" clip-path="url(#p3a122bc415)" style="fill: none; stroke: #b0b0b0; stroke-width: 0.8; stroke-linecap: square"/>
     </g>
     <g id="line2d_20">
      <g>
       <use xlink:href="#m116c9872a2" x="103.376" y="201.576786" style="stroke: #000000; stroke-width: 0.8"/>
      </g>
     </g>
     <g id="text_11">
      <!-- −0.2 -->
      <g transform="translate(47.810375 209.175223) scale(0.2 -0.2)">
       <use xlink:href="#DejaVuSans-2212"/>
       <use xlink:href="#DejaVuSans-30" x="83.789062"/>
       <use xlink:href="#DejaVuSans-2e" x="147.412109"/>
       <use xlink:href="#DejaVuSans-32" x="179.199219"/>
      </g>
     </g>
    </g>
    <g id="ytick_4">
     <g id="line2d_21">
      <path d="M 103.376 141.127178 
L 541.665 141.127178 
" clip-path="url(#p3a122bc415)" style="fill: none; stroke: #b0b0b0; stroke-width: 0.8; stroke-linecap: square"/>
     </g>
     <g id="line2d_22">
      <g>
       <use xlink:href="#m116c9872a2" x="103.376" y="141.127178" style="stroke: #000000; stroke-width: 0.8"/>
      </g>
     </g>
     <g id="text_12">
      <!-- 0.0 -->
      <g transform="translate(64.56975 148.725616) scale(0.2 -0.2)">
       <use xlink:href="#DejaVuSans-30"/>
       <use xlink:href="#DejaVuSans-2e" x="63.623047"/>
       <use xlink:href="#DejaVuSans-30" x="95.410156"/>
      </g>
     </g>
    </g>
    <g id="ytick_5">
     <g id="line2d_23">
      <path d="M 103.376 80.677571 
L 541.665 80.677571 
" clip-path="url(#p3a122bc415)" style="fill: none; stroke: #b0b0b0; stroke-width: 0.8; stroke-linecap: square"/>
     </g>
     <g id="line2d_24">
      <g>
       <use xlink:href="#m116c9872a2" x="103.376" y="80.677571" style="stroke: #000000; stroke-width: 0.8"/>
      </g>
     </g>
     <g id="text_13">
      <!-- 0.2 -->
      <g transform="translate(64.56975 88.276008) scale(0.2 -0.2)">
       <use xlink:href="#DejaVuSans-30"/>
       <use xlink:href="#DejaVuSans-2e" x="63.623047"/>
       <use xlink:href="#DejaVuSans-32" x="95.410156"/>
      </g>
     </g>
    </g>
    <g id="text_14">
     <!-- $C_M$ [-] -->
     <g transform="translate(39.651 216.8) rotate(-90) scale(0.2 -0.2)">
      <defs>
       <path id="DejaVuSans-Oblique-43" d="M 4447 4306 
L 4319 3641 
Q 4019 3944 3683 4091 
Q 3347 4238 2956 4238 
Q 2422 4238 2017 3981 
Q 1613 3725 1319 3200 
Q 1131 2863 1032 2486 
Q 934 2109 934 1728 
Q 934 1091 1264 756 
Q 1594 422 2222 422 
Q 2656 422 3056 561 
Q 3456 700 3834 978 
L 3688 231 
Q 3316 72 2936 -9 
Q 2556 -91 2175 -91 
Q 1278 -91 773 396 
Q 269 884 269 1753 
Q 269 2309 461 2846 
Q 653 3384 1013 3828 
Q 1394 4300 1883 4525 
Q 2372 4750 3022 4750 
Q 3422 4750 3780 4639 
Q 4138 4528 4447 4306 
z
" transform="scale(0.015625)"/>
       <path id="DejaVuSans-Oblique-4d" d="M 1081 4666 
L 2028 4666 
L 2572 1522 
L 4378 4666 
L 5350 4666 
L 4441 0 
L 3828 0 
L 4622 4091 
L 2791 897 
L 2175 897 
L 1581 4103 
L 788 0 
L 172 0 
L 1081 4666 
z
" transform="scale(0.015625)"/>
       <path id="DejaVuSans-2d" d="M 313 2009 
L 1997 2009 
L 1997 1497 
L 313 1497 
L 313 2009 
z
" transform="scale(0.015625)"/>
      </defs>
      <use xlink:href="#DejaVuSans-Oblique-43" transform="translate(0 0.015625)"/>
      <use xlink:href="#DejaVuSans-Oblique-4d" transform="translate(69.824219 -16.390625) scale(0.7)"/>
      <use xlink:href="#DejaVuSans-20" transform="translate(132.954102 0.015625)"/>
      <use xlink:href="#DejaVuSans-5b" transform="translate(164.741211 0.015625)"/>
      <use xlink:href="#DejaVuSans-2d" transform="translate(203.754883 0.015625)"/>
      <use xlink:href="#DejaVuSans-5d" transform="translate(239.838867 0.015625)"/>
     </g>
    </g>
   </g>
   <g id="line2d_25">
    <path d="M 103.376 53.652216 
L 107.803162 56.554627 
L 112.230323 59.457038 
L 116.657485 62.359449 
L 121.084646 65.26186 
L 125.511808 68.164271 
L 129.93897 71.066682 
L 134.366131 73.969093 
L 138.793293 76.871504 
L 143.220455 79.773915 
L 147.647616 82.676326 
L 152.074778 85.578737 
L 156.501939 88.481148 
L 160.929101 91.383559 
L 165.356263 94.28597 
L 169.783424 97.188381 
L 174.210586 100.090793 
L 178.637747 102.993204 
L 183.064909 105.895615 
L 187.492071 108.798026 
L 191.919232 111.700437 
L 196.346394 114.602848 
L 200.773556 117.505259 
L 205.200717 120.40767 
L 209.627879 123.310081 
L 214.05504 126.212492 
L 218.482202 129.114903 
L 222.909364 132.017314 
L 227.336525 134.919725 
L 231.763687 137.822136 
L 236.190848 140.724547 
L 240.61801 143.626958 
L 245.045172 146.529369 
L 249.472333 149.43178 
L 253.899495 152.334191 
L 258.326657 155.236602 
L 262.753818 158.139013 
L 267.18098 161.041424 
L 271.608141 163.943835 
L 276.035303 166.846247 
L 280.462465 169.748658 
L 284.889626 172.651069 
L 289.316788 175.55348 
L 293.743949 178.455891 
L 298.171111 181.358302 
L 302.598273 184.260713 
L 307.025434 187.163124 
L 311.452596 190.065535 
L 315.879758 192.967946 
L 320.306919 195.870357 
L 324.734081 198.772768 
L 329.161242 201.675179 
L 333.588404 204.57759 
L 338.015566 207.480001 
L 342.442727 210.382412 
L 346.869889 213.284823 
L 351.297051 216.187234 
L 355.724212 219.089645 
L 360.151374 221.992056 
L 364.578535 224.894467 
L 369.005697 227.796878 
L 373.432859 230.699289 
L 377.86002 233.601701 
L 382.287182 236.504112 
L 386.714343 239.406523 
L 391.141505 242.308934 
L 395.568667 245.211345 
L 399.995828 248.113756 
L 404.42299 251.016167 
L 408.850152 253.918578 
L 413.277313 256.820989 
L 417.704475 259.7234 
L 422.131636 262.625811 
L 426.558798 265.528222 
L 430.98596 268.430633 
L 435.413121 271.333044 
L 439.840283 274.235455 
L 444.267444 277.137866 
L 448.694606 280.040277 
L 453.121768 282.942688 
L 457.548929 285.845099 
L 461.976091 288.74751 
L 466.403253 291.649921 
L 470.830414 294.552332 
L 475.257576 297.454743 
L 479.684737 300.357154 
L 484.111899 303.259566 
L 488.539061 306.161977 
L 492.966222 309.064388 
L 497.393384 311.966799 
L 501.820545 314.86921 
L 506.247707 317.771621 
L 510.674869 320.674032 
L 515.10203 323.576443 
L 519.529192 326.478854 
L 523.956354 329.381265 
L 528.383515 332.283676 
L 532.810677 335.186087 
L 537.237838 338.088498 
L 541.665 340.990909 
" clip-path="url(#p3a122bc415)" style="fill: none; stroke-dasharray: 9.6,2.4,1.5,2.4; stroke-dashoffset: 0; stroke: #00a6b6; stroke-width: 1.5"/>
   </g>
   <g id="line2d_26">
    <path d="M 103.376 55.64603 
L 107.803162 58.358542 
L 112.230323 61.071053 
L 116.657485 63.783565 
L 121.084646 66.496076 
L 125.511808 69.208588 
L 129.93897 71.9211 
L 134.366131 74.633611 
L 138.793293 77.346123 
L 143.220455 80.058635 
L 147.647616 82.771146 
L 152.074778 85.483658 
L 156.501939 88.19617 
L 160.929101 90.908681 
L 165.356263 93.621193 
L 169.783424 96.333705 
L 174.210586 99.046216 
L 178.637747 101.758728 
L 183.064909 104.47124 
L 187.492071 107.183751 
L 191.919232 109.896263 
L 196.346394 112.608775 
L 200.773556 115.321286 
L 205.200717 118.033798 
L 209.627879 120.746309 
L 214.05504 123.458821 
L 218.482202 126.171333 
L 222.909364 128.883844 
L 227.336525 131.596356 
L 231.763687 134.308868 
L 236.190848 137.021379 
L 240.61801 139.733891 
L 245.045172 142.446403 
L 249.472333 145.158914 
L 253.899495 147.871426 
L 258.326657 150.583938 
L 262.753818 153.296449 
L 267.18098 156.008961 
L 271.608141 158.721473 
L 276.035303 161.433984 
L 280.462465 164.146496 
L 284.889626 166.859008 
L 289.316788 169.571519 
L 293.743949 172.284031 
L 298.171111 174.996542 
L 302.598273 177.709054 
L 307.025434 180.421566 
L 311.452596 183.134077 
L 315.879758 185.846589 
L 320.306919 188.559101 
L 324.734081 191.271612 
L 329.161242 193.984124 
L 333.588404 196.696636 
L 338.015566 199.409147 
L 342.442727 202.121659 
L 346.869889 204.834171 
L 351.297051 207.546682 
L 355.724212 210.259194 
L 360.151374 212.971706 
L 364.578535 215.684217 
L 369.005697 218.396729 
L 373.432859 221.109241 
L 377.86002 223.821752 
L 382.287182 226.534264 
L 386.714343 229.246775 
L 391.141505 231.959287 
L 395.568667 234.671799 
L 399.995828 237.38431 
L 404.42299 240.096822 
L 408.850152 242.809334 
L 413.277313 245.521845 
L 417.704475 248.234357 
L 422.131636 250.946869 
L 426.558798 253.65938 
L 430.98596 256.371892 
L 435.413121 259.084404 
L 439.840283 261.796915 
L 444.267444 264.509427 
L 448.694606 267.221939 
L 453.121768 269.93445 
L 457.548929 272.646962 
L 461.976091 275.359474 
L 466.403253 278.071985 
L 470.830414 280.784497 
L 475.257576 283.497008 
L 479.684737 286.20952 
L 484.111899 288.922032 
L 488.539061 291.634543 
L 492.966222 294.347055 
L 497.393384 297.059567 
L 501.820545 299.772078 
L 506.247707 302.48459 
L 510.674869 305.197102 
L 515.10203 307.909613 
L 519.529192 310.622125 
L 523.956354 313.334637 
L 528.383515 316.047148 
L 532.810677 318.75966 
L 537.237838 321.472172 
L 541.665 324.184683 
" clip-path="url(#p3a122bc415)" style="fill: none; stroke-dasharray: 9.6,2.4,1.5,2.4; stroke-dashoffset: 0; stroke: #a50034; stroke-width: 1.5"/>
   </g>
   <g id="line2d_27">
    <path d="M 103.376 36.809091 
L 107.803162 39.34117 
L 112.230323 41.87325 
L 116.657485 44.405329 
L 121.084646 46.937409 
L 125.511808 49.469488 
L 129.93897 52.001568 
L 134.366131 54.533647 
L 138.793293 57.065727 
L 143.220455 59.597806 
L 147.647616 62.129886 
L 152.074778 64.661965 
L 156.501939 67.194045 
L 160.929101 69.726124 
L 165.356263 72.258204 
L 169.783424 74.790283 
L 174.210586 77.322363 
L 178.637747 79.854442 
L 183.064909 82.386522 
L 187.492071 84.918601 
L 191.919232 87.450681 
L 196.346394 89.98276 
L 200.773556 92.51484 
L 205.200717 95.046919 
L 209.627879 97.578999 
L 214.05504 100.111078 
L 218.482202 102.643157 
L 222.909364 105.175237 
L 227.336525 107.707316 
L 231.763687 110.239396 
L 236.190848 112.771475 
L 240.61801 115.303555 
L 245.045172 117.835634 
L 249.472333 120.367714 
L 253.899495 122.899793 
L 258.326657 125.431873 
L 262.753818 127.963952 
L 267.18098 130.496032 
L 271.608141 133.028111 
L 276.035303 135.560191 
L 280.462465 138.09227 
L 284.889626 140.62435 
L 289.316788 143.156429 
L 293.743949 145.688509 
L 298.171111 148.220588 
L 302.598273 150.752668 
L 307.025434 153.284747 
L 311.452596 155.816827 
L 315.879758 158.348906 
L 320.306919 160.880986 
L 324.734081 163.413065 
L 329.161242 165.945145 
L 333.588404 168.477224 
L 338.015566 171.009304 
L 342.442727 173.541383 
L 346.869889 176.073463 
L 351.297051 178.605542 
L 355.724212 181.137622 
L 360.151374 183.669701 
L 364.578535 186.20178 
L 369.005697 188.73386 
L 373.432859 191.265939 
L 377.86002 193.798019 
L 382.287182 196.330098 
L 386.714343 198.862178 
L 391.141505 201.394257 
L 395.568667 203.926337 
L 399.995828 206.458416 
L 404.42299 208.990496 
L 408.850152 211.522575 
L 413.277313 214.054655 
L 417.704475 216.586734 
L 422.131636 219.118814 
L 426.558798 221.650893 
L 430.98596 224.182973 
L 435.413121 226.715052 
L 439.840283 229.247132 
L 444.267444 231.779211 
L 448.694606 234.311291 
L 453.121768 236.84337 
L 457.548929 239.37545 
L 461.976091 241.907529 
L 466.403253 244.439609 
L 470.830414 246.971688 
L 475.257576 249.503768 
L 479.684737 252.035847 
L 484.111899 254.567927 
L 488.539061 257.100006 
L 492.966222 259.632086 
L 497.393384 262.164165 
L 501.820545 264.696244 
L 506.247707 267.228324 
L 510.674869 269.760403 
L 515.10203 272.292483 
L 519.529192 274.824562 
L 523.956354 277.356642 
L 528.383515 279.888721 
L 532.810677 282.420801 
L 537.237838 284.95288 
L 541.665 287.48496 
" clip-path="url(#p3a122bc415)" style="fill: none; stroke-dasharray: 9.6,2.4,1.5,2.4; stroke-dashoffset: 0; stroke: #ef60a3; stroke-width: 1.5"/>
   </g>
   <g id="patch_3">
    <path d="M 103.376 356.2 
L 103.376 21.6 
" style="fill: none; stroke: #000000; stroke-width: 0.8; stroke-linejoin: miter; stroke-linecap: square"/>
   </g>
   <g id="patch_4">
    <path d="M 541.665 356.2 
L 541.665 21.6 
" style="fill: none; stroke: #000000; stroke-width: 0.8; stroke-linejoin: miter; stroke-linecap: square"/>
   </g>
   <g id="patch_5">
    <path d="M 103.376 356.2 
L 541.665 356.2 
" style="fill: none; stroke: #000000; stroke-width: 0.8; stroke-linejoin: miter; stroke-linecap: square"/>
   </g>
   <g id="patch_6">
    <path d="M 103.376 21.6 
L 541.665 21.6 
" style="fill: none; stroke: #000000; stroke-width: 0.8; stroke-linejoin: miter; stroke-linecap: square"/>
   </g>
   <g id="legend_1">
    <g id="patch_7">
     <path d="M 117.376 346.2 
L 391.94475 346.2 
Q 395.94475 346.2 395.94475 342.2 
L 395.94475 256.13125 
Q 395.94475 252.13125 391.94475 252.13125 
L 117.376 252.13125 
Q 113.376 252.13125 113.376 256.13125 
L 113.376 342.2 
Q 113.376 346.2 117.376 346.2 
z
" style="fill: #ffffff; opacity: 0.8; stroke: #cccccc; stroke-linejoin: miter"/>
    </g>
    <g id="line2d_28">
     <path d="M 121.376 268.328125 
L 141.376 268.328125 
L 161.376 268.328125 
" style="fill: none; stroke-dasharray: 9.6,2.4,1.5,2.4; stroke-dashoffset: 0; stroke: #00a6b6; stroke-width: 1.5"/>
    </g>
    <g id="text_15">
     <!-- V = 40.0 m/s, J = 1.6 -->
     <g transform="translate(177.376 275.328125) scale(0.2 -0.2)">
      <defs>
       <path id="DejaVuSans-56" d="M 1831 0 
L 50 4666 
L 709 4666 
L 2188 738 
L 3669 4666 
L 4325 4666 
L 2547 0 
L 1831 0 
z
" transform="scale(0.015625)"/>
       <path id="DejaVuSans-3d" d="M 678 2906 
L 4684 2906 
L 4684 2381 
L 678 2381 
L 678 2906 
z
M 678 1631 
L 4684 1631 
L 4684 1100 
L 678 1100 
L 678 1631 
z
" transform="scale(0.015625)"/>
       <path id="DejaVuSans-6d" d="M 3328 2828 
Q 3544 3216 3844 3400 
Q 4144 3584 4550 3584 
Q 5097 3584 5394 3201 
Q 5691 2819 5691 2113 
L 5691 0 
L 5113 0 
L 5113 2094 
Q 5113 2597 4934 2840 
Q 4756 3084 4391 3084 
Q 3944 3084 3684 2787 
Q 3425 2491 3425 1978 
L 3425 0 
L 2847 0 
L 2847 2094 
Q 2847 2600 2669 2842 
Q 2491 3084 2119 3084 
Q 1678 3084 1418 2786 
Q 1159 2488 1159 1978 
L 1159 0 
L 581 0 
L 581 3500 
L 1159 3500 
L 1159 2956 
Q 1356 3278 1631 3431 
Q 1906 3584 2284 3584 
Q 2666 3584 2933 3390 
Q 3200 3197 3328 2828 
z
" transform="scale(0.015625)"/>
       <path id="DejaVuSans-2f" d="M 1625 4666 
L 2156 4666 
L 531 -594 
L 0 -594 
L 1625 4666 
z
" transform="scale(0.015625)"/>
       <path id="DejaVuSans-73" d="M 2834 3397 
L 2834 2853 
Q 2591 2978 2328 3040 
Q 2066 3103 1784 3103 
Q 1356 3103 1142 2972 
Q 928 2841 928 2578 
Q 928 2378 1081 2264 
Q 1234 2150 1697 2047 
L 1894 2003 
Q 2506 1872 2764 1633 
Q 3022 1394 3022 966 
Q 3022 478 2636 193 
Q 2250 -91 1575 -91 
Q 1294 -91 989 -36 
Q 684 19 347 128 
L 347 722 
Q 666 556 975 473 
Q 1284 391 1588 391 
Q 1994 391 2212 530 
Q 2431 669 2431 922 
Q 2431 1156 2273 1281 
Q 2116 1406 1581 1522 
L 1381 1569 
Q 847 1681 609 1914 
Q 372 2147 372 2553 
Q 372 3047 722 3315 
Q 1072 3584 1716 3584 
Q 2034 3584 2315 3537 
Q 2597 3491 2834 3397 
z
" transform="scale(0.015625)"/>
       <path id="DejaVuSans-2c" d="M 750 794 
L 1409 794 
L 1409 256 
L 897 -744 
L 494 -744 
L 750 256 
L 750 794 
z
" transform="scale(0.015625)"/>
       <path id="DejaVuSans-4a" d="M 628 4666 
L 1259 4666 
L 1259 325 
Q 1259 -519 939 -900 
Q 619 -1281 -91 -1281 
L -331 -1281 
L -331 -750 
L -134 -750 
Q 284 -750 456 -515 
Q 628 -281 628 325 
L 628 4666 
z
" transform="scale(0.015625)"/>
      </defs>
      <use xlink:href="#DejaVuSans-56"/>
      <use xlink:href="#DejaVuSans-20" x="68.408203"/>
      <use xlink:href="#DejaVuSans-3d" x="100.195312"/>
      <use xlink:href="#DejaVuSans-20" x="183.984375"/>
      <use xlink:href="#DejaVuSans-34" x="215.771484"/>
      <use xlink:href="#DejaVuSans-30" x="279.394531"/>
      <use xlink:href="#DejaVuSans-2e" x="343.017578"/>
      <use xlink:href="#DejaVuSans-30" x="374.804688"/>
      <use xlink:href="#DejaVuSans-20" x="438.427734"/>
      <use xlink:href="#DejaVuSans-6d" x="470.214844"/>
      <use xlink:href="#DejaVuSans-2f" x="567.626953"/>
      <use xlink:href="#DejaVuSans-73" x="601.318359"/>
      <use xlink:href="#DejaVuSans-2c" x="653.417969"/>
      <use xlink:href="#DejaVuSans-20" x="685.205078"/>
      <use xlink:href="#DejaVuSans-4a" x="716.992188"/>
      <use xlink:href="#DejaVuSans-20" x="746.484375"/>
      <use xlink:href="#DejaVuSans-3d" x="778.271484"/>
      <use xlink:href="#DejaVuSans-20" x="862.060547"/>
      <use xlink:href="#DejaVuSans-31" x="893.847656"/>
      <use xlink:href="#DejaVuSans-2e" x="957.470703"/>
      <use xlink:href="#DejaVuSans-36" x="989.257812"/>
     </g>
    </g>
    <g id="line2d_29">
     <path d="M 121.376 297.684375 
L 141.376 297.684375 
L 161.376 297.684375 
" style="fill: none; stroke-dasharray: 9.6,2.4,1.5,2.4; stroke-dashoffset: 0; stroke: #a50034; stroke-width: 1.5"/>
    </g>
    <g id="text_16">
     <!-- V = 40.0 m/s, J = 1.8 -->
     <g transform="translate(177.376 304.684375) scale(0.2 -0.2)">
      <use xlink:href="#DejaVuSans-56"/>
      <use xlink:href="#DejaVuSans-20" x="68.408203"/>
      <use xlink:href="#DejaVuSans-3d" x="100.195312"/>
      <use xlink:href="#DejaVuSans-20" x="183.984375"/>
      <use xlink:href="#DejaVuSans-34" x="215.771484"/>
      <use xlink:href="#DejaVuSans-30" x="279.394531"/>
      <use xlink:href="#DejaVuSans-2e" x="343.017578"/>
      <use xlink:href="#DejaVuSans-30" x="374.804688"/>
      <use xlink:href="#DejaVuSans-20" x="438.427734"/>
      <use xlink:href="#DejaVuSans-6d" x="470.214844"/>
      <use xlink:href="#DejaVuSans-2f" x="567.626953"/>
      <use xlink:href="#DejaVuSans-73" x="601.318359"/>
      <use xlink:href="#DejaVuSans-2c" x="653.417969"/>
      <use xlink:href="#DejaVuSans-20" x="685.205078"/>
      <use xlink:href="#DejaVuSans-4a" x="716.992188"/>
      <use xlink:href="#DejaVuSans-20" x="746.484375"/>
      <use xlink:href="#DejaVuSans-3d" x="778.271484"/>
      <use xlink:href="#DejaVuSans-20" x="862.060547"/>
      <use xlink:href="#DejaVuSans-31" x="893.847656"/>
      <use xlink:href="#DejaVuSans-2e" x="957.470703"/>
      <use xlink:href="#DejaVuSans-38" x="989.257812"/>
     </g>
    </g>
    <g id="line2d_30">
     <path d="M 121.376 327.040625 
L 141.376 327.040625 
L 161.376 327.040625 
" style="fill: none; stroke-dasharray: 9.6,2.4,1.5,2.4; stroke-dashoffset: 0; stroke: #ef60a3; stroke-width: 1.5"/>
    </g>
    <g id="text_17">
     <!-- V = 40.0 m/s, J = 3.5 -->
     <g transform="translate(177.376 334.040625) scale(0.2 -0.2)">
      <defs>
       <path id="DejaVuSans-33" d="M 2597 2516 
Q 3050 2419 3304 2112 
Q 3559 1806 3559 1356 
Q 3559 666 3084 287 
Q 2609 -91 1734 -91 
Q 1441 -91 1130 -33 
Q 819 25 488 141 
L 488 750 
Q 750 597 1062 519 
Q 1375 441 1716 441 
Q 2309 441 2620 675 
Q 2931 909 2931 1356 
Q 2931 1769 2642 2001 
Q 2353 2234 1838 2234 
L 1294 2234 
L 1294 2753 
L 1863 2753 
Q 2328 2753 2575 2939 
Q 2822 3125 2822 3475 
Q 2822 3834 2567 4026 
Q 2313 4219 1838 4219 
Q 1578 4219 1281 4162 
Q 984 4106 628 3988 
L 628 4550 
Q 988 4650 1302 4700 
Q 1616 4750 1894 4750 
Q 2613 4750 3031 4423 
Q 3450 4097 3450 3541 
Q 3450 3153 3228 2886 
Q 3006 2619 2597 2516 
z
" transform="scale(0.015625)"/>
       <path id="DejaVuSans-35" d="M 691 4666 
L 3169 4666 
L 3169 4134 
L 1269 4134 
L 1269 2991 
Q 1406 3038 1543 3061 
Q 1681 3084 1819 3084 
Q 2600 3084 3056 2656 
Q 3513 2228 3513 1497 
Q 3513 744 3044 326 
Q 2575 -91 1722 -91 
Q 1428 -91 1123 -41 
Q 819 9 494 109 
L 494 744 
Q 775 591 1075 516 
Q 1375 441 1709 441 
Q 2250 441 2565 725 
Q 2881 1009 2881 1497 
Q 2881 1984 2565 2268 
Q 2250 2553 1709 2553 
Q 1456 2553 1204 2497 
Q 953 2441 691 2322 
L 691 4666 
z
" transform="scale(0.015625)"/>
      </defs>
      <use xlink:href="#DejaVuSans-56"/>
      <use xlink:href="#DejaVuSans-20" x="68.408203"/>
      <use xlink:href="#DejaVuSans-3d" x="100.195312"/>
      <use xlink:href="#DejaVuSans-20" x="183.984375"/>
      <use xlink:href="#DejaVuSans-34" x="215.771484"/>
      <use xlink:href="#DejaVuSans-30" x="279.394531"/>
      <use xlink:href="#DejaVuSans-2e" x="343.017578"/>
      <use xlink:href="#DejaVuSans-30" x="374.804688"/>
      <use xlink:href="#DejaVuSans-20" x="438.427734"/>
      <use xlink:href="#DejaVuSans-6d" x="470.214844"/>
      <use xlink:href="#DejaVuSans-2f" x="567.626953"/>
      <use xlink:href="#DejaVuSans-73" x="601.318359"/>
      <use xlink:href="#DejaVuSans-2c" x="653.417969"/>
      <use xlink:href="#DejaVuSans-20" x="685.205078"/>
      <use xlink:href="#DejaVuSans-4a" x="716.992188"/>
      <use xlink:href="#DejaVuSans-20" x="746.484375"/>
      <use xlink:href="#DejaVuSans-3d" x="778.271484"/>
      <use xlink:href="#DejaVuSans-20" x="862.060547"/>
      <use xlink:href="#DejaVuSans-33" x="893.847656"/>
      <use xlink:href="#DejaVuSans-2e" x="957.470703"/>
      <use xlink:href="#DejaVuSans-35" x="989.257812"/>
     </g>
    </g>
   </g>
  </g>
 </g>
 <defs>
  <clipPath id="p3a122bc415">
   <rect x="103.376" y="21.6" width="438.289" height="334.6"/>
  </clipPath>
 </defs>
</svg>
