<?xml version="1.0" encoding="utf-8" standalone="no"?>
<!DOCTYPE svg PUBLIC "-//W3C//DTD SVG 1.1//EN"
  "http://www.w3.org/Graphics/SVG/1.1/DTD/svg11.dtd">
<svg xmlns:xlink="http://www.w3.org/1999/xlink" width="720pt" height="432pt" viewBox="0 0 720 432" xmlns="http://www.w3.org/2000/svg" version="1.1">
 <metadata>
  <rdf:RDF xmlns:dc="http://purl.org/dc/elements/1.1/" xmlns:cc="http://creativecommons.org/ns#" xmlns:rdf="http://www.w3.org/1999/02/22-rdf-syntax-ns#">
   <cc:Work>
    <dc:type rdf:resource="http://purl.org/dc/dcmitype/StillImage"/>
    <dc:date>2024-04-02T14:34:35.391293</dc:date>
    <dc:format>image/svg+xml</dc:format>
    <dc:creator>
     <cc:Agent>
      <dc:title>Matplotlib v3.8.3, https://matplotlib.org/</dc:title>
     </cc:Agent>
    </dc:creator>
   </cc:Work>
  </rdf:RDF>
 </metadata>
 <defs>
  <style type="text/css">*{stroke-linejoin: round; stroke-linecap: butt}</style>
 </defs>
 <g id="figure_1">
  <g id="patch_1">
   <path d="M 0 432 
L 720 432 
L 720 0 
L 0 0 
z
" style="fill: #ffffff"/>
  </g>
  <g id="axes_1">
   <g id="patch_2">
    <path d="M 99.812 376 
L 687.105 376 
L 687.105 16.2 
L 99.812 16.2 
z
" style="fill: #ffffff"/>
   </g>
   <g id="PathCollection_1">
    <defs>
     <path id="m41f36ac2c8" d="M 0 3 
C 0.795609 3 1.55874 2.683901 2.12132 2.12132 
C 2.683901 1.55874 3 0.795609 3 0 
C 3 -0.795609 2.683901 -1.55874 2.12132 -2.12132 
C 1.55874 -2.683901 0.795609 -3 0 -3 
C -0.795609 -3 -1.55874 -2.683901 -2.12132 -2.12132 
C -2.683901 -1.55874 -3 -0.795609 -3 0 
C -3 0.795609 -2.683901 1.55874 -2.12132 2.12132 
C -1.55874 2.683901 -0.795609 3 0 3 
z
" style="stroke: #00a6b6"/>
    </defs>
    <g clip-path="url(#p6b345941f0)">
     <use xlink:href="#m41f36ac2c8" x="123.30372" y="238.819648" style="fill: #00a6b6; stroke: #00a6b6"/>
     <use xlink:href="#m41f36ac2c8" x="170.28716" y="174.304439" style="fill: #00a6b6; stroke: #00a6b6"/>
     <use xlink:href="#m41f36ac2c8" x="569.6464" y="113.005565" style="fill: #00a6b6; stroke: #00a6b6"/>
    </g>
   </g>
   <g id="PathCollection_2">
    <defs>
     <path id="mcaefd53cd3" d="M 0 3 
C 0.795609 3 1.55874 2.683901 2.12132 2.12132 
C 2.683901 1.55874 3 0.795609 3 0 
C 3 -0.795609 2.683901 -1.55874 2.12132 -2.12132 
C 1.55874 -2.683901 0.795609 -3 0 -3 
C -0.795609 -3 -1.55874 -2.683901 -2.12132 -2.12132 
C -2.683901 -1.55874 -3 -0.795609 -3 0 
C -3 0.795609 -2.683901 1.55874 -2.12132 2.12132 
C -1.55874 2.683901 -0.795609 3 0 3 
z
" style="stroke: #a50034"/>
    </defs>
    <g clip-path="url(#p6b345941f0)">
     <use xlink:href="#mcaefd53cd3" x="170.28716" y="284.604592" style="fill: #a50034; stroke: #a50034"/>
     <use xlink:href="#mcaefd53cd3" x="569.6464" y="162.361956" style="fill: #a50034; stroke: #a50034"/>
     <use xlink:href="#mcaefd53cd3" x="123.30372" y="332.849546" style="fill: #a50034; stroke: #a50034"/>
    </g>
   </g>
   <g id="PathCollection_3">
    <defs>
     <path id="m008c1b11a2" d="M 0 3 
C 0.795609 3 1.55874 2.683901 2.12132 2.12132 
C 2.683901 1.55874 3 0.795609 3 0 
C 3 -0.795609 2.683901 -1.55874 2.12132 -2.12132 
C 1.55874 -2.683901 0.795609 -3 0 -3 
C -0.795609 -3 -1.55874 -2.683901 -2.12132 -2.12132 
C -2.683901 -1.55874 -3 -0.795609 -3 0 
C -3 0.795609 -2.683901 1.55874 -2.12132 2.12132 
C -1.55874 2.683901 -0.795609 3 0 3 
z
" style="stroke: #ef60a3"/>
    </defs>
    <g clip-path="url(#p6b345941f0)">
     <use xlink:href="#m008c1b11a2" x="123.30372" y="281.890971" style="fill: #ef60a3; stroke: #ef60a3"/>
     <use xlink:href="#m008c1b11a2" x="170.28716" y="235.699622" style="fill: #ef60a3; stroke: #ef60a3"/>
     <use xlink:href="#m008c1b11a2" x="569.6464" y="137.344504" style="fill: #ef60a3; stroke: #ef60a3"/>
    </g>
   </g>
   <g id="matplotlib.axis_1">
    <g id="xtick_1">
     <g id="line2d_1">
      <path d="M 99.812 376 
L 99.812 16.2 
" clip-path="url(#p6b345941f0)" style="fill: none; stroke: #b0b0b0; stroke-width: 0.8; stroke-linecap: square"/>
     </g>
     <g id="line2d_2">
      <defs>
       <path id="m48f5dfe0d0" d="M 0 0 
L 0 3.5 
" style="stroke: #000000; stroke-width: 0.8"/>
      </defs>
      <g>
       <use xlink:href="#m48f5dfe0d0" x="99.812" y="376" style="stroke: #000000; stroke-width: 0.8"/>
      </g>
     </g>
     <g id="text_1">
      <!-- 1.50 -->
      <g transform="translate(83.112781 394.397656) scale(0.15 -0.15)">
       <defs>
        <path id="DejaVuSans-31" d="M 794 531 
L 1825 531 
L 1825 4091 
L 703 3866 
L 703 4441 
L 1819 4666 
L 2450 4666 
L 2450 531 
L 3481 531 
L 3481 0 
L 794 0 
L 794 531 
z
" transform="scale(0.015625)"/>
        <path id="DejaVuSans-2e" d="M 684 794 
L 1344 794 
L 1344 0 
L 684 0 
L 684 794 
z
" transform="scale(0.015625)"/>
        <path id="DejaVuSans-35" d="M 691 4666 
L 3169 4666 
L 3169 4134 
L 1269 4134 
L 1269 2991 
Q 1406 3038 1543 3061 
Q 1681 3084 1819 3084 
Q 2600 3084 3056 2656 
Q 3513 2228 3513 1497 
Q 3513 744 3044 326 
Q 2575 -91 1722 -91 
Q 1428 -91 1123 -41 
Q 819 9 494 109 
L 494 744 
Q 775 591 1075 516 
Q 1375 441 1709 441 
Q 2250 441 2565 725 
Q 2881 1009 2881 1497 
Q 2881 1984 2565 2268 
Q 2250 2553 1709 2553 
Q 1456 2553 1204 2497 
Q 953 2441 691 2322 
L 691 4666 
z
" transform="scale(0.015625)"/>
        <path id="DejaVuSans-30" d="M 2034 4250 
Q 1547 4250 1301 3770 
Q 1056 3291 1056 2328 
Q 1056 1369 1301 889 
Q 1547 409 2034 409 
Q 2525 409 2770 889 
Q 3016 1369 3016 2328 
Q 3016 3291 2770 3770 
Q 2525 4250 2034 4250 
z
M 2034 4750 
Q 2819 4750 3233 4129 
Q 3647 3509 3647 2328 
Q 3647 1150 3233 529 
Q 2819 -91 2034 -91 
Q 1250 -91 836 529 
Q 422 1150 422 2328 
Q 422 3509 836 4129 
Q 1250 4750 2034 4750 
z
" transform="scale(0.015625)"/>
       </defs>
       <use xlink:href="#DejaVuSans-31"/>
       <use xlink:href="#DejaVuSans-2e" x="63.623047"/>
       <use xlink:href="#DejaVuSans-35" x="95.410156"/>
       <use xlink:href="#DejaVuSans-30" x="159.033203"/>
      </g>
     </g>
    </g>
    <g id="xtick_2">
     <g id="line2d_3">
      <path d="M 158.5413 376 
L 158.5413 16.2 
" clip-path="url(#p6b345941f0)" style="fill: none; stroke: #b0b0b0; stroke-width: 0.8; stroke-linecap: square"/>
     </g>
     <g id="line2d_4">
      <g>
       <use xlink:href="#m48f5dfe0d0" x="158.5413" y="376" style="stroke: #000000; stroke-width: 0.8"/>
      </g>
     </g>
     <g id="text_2">
      <!-- 1.75 -->
      <g transform="translate(141.842081 394.397656) scale(0.15 -0.15)">
       <defs>
        <path id="DejaVuSans-37" d="M 525 4666 
L 3525 4666 
L 3525 4397 
L 1831 0 
L 1172 0 
L 2766 4134 
L 525 4134 
L 525 4666 
z
" transform="scale(0.015625)"/>
       </defs>
       <use xlink:href="#DejaVuSans-31"/>
       <use xlink:href="#DejaVuSans-2e" x="63.623047"/>
       <use xlink:href="#DejaVuSans-37" x="95.410156"/>
       <use xlink:href="#DejaVuSans-35" x="159.033203"/>
      </g>
     </g>
    </g>
    <g id="xtick_3">
     <g id="line2d_5">
      <path d="M 217.2706 376 
L 217.2706 16.2 
" clip-path="url(#p6b345941f0)" style="fill: none; stroke: #b0b0b0; stroke-width: 0.8; stroke-linecap: square"/>
     </g>
     <g id="line2d_6">
      <g>
       <use xlink:href="#m48f5dfe0d0" x="217.2706" y="376" style="stroke: #000000; stroke-width: 0.8"/>
      </g>
     </g>
     <g id="text_3">
      <!-- 2.00 -->
      <g transform="translate(200.571381 394.397656) scale(0.15 -0.15)">
       <defs>
        <path id="DejaVuSans-32" d="M 1228 531 
L 3431 531 
L 3431 0 
L 469 0 
L 469 531 
Q 828 903 1448 1529 
Q 2069 2156 2228 2338 
Q 2531 2678 2651 2914 
Q 2772 3150 2772 3378 
Q 2772 3750 2511 3984 
Q 2250 4219 1831 4219 
Q 1534 4219 1204 4116 
Q 875 4013 500 3803 
L 500 4441 
Q 881 4594 1212 4672 
Q 1544 4750 1819 4750 
Q 2544 4750 2975 4387 
Q 3406 4025 3406 3419 
Q 3406 3131 3298 2873 
Q 3191 2616 2906 2266 
Q 2828 2175 2409 1742 
Q 1991 1309 1228 531 
z
" transform="scale(0.015625)"/>
       </defs>
       <use xlink:href="#DejaVuSans-32"/>
       <use xlink:href="#DejaVuSans-2e" x="63.623047"/>
       <use xlink:href="#DejaVuSans-30" x="95.410156"/>
       <use xlink:href="#DejaVuSans-30" x="159.033203"/>
      </g>
     </g>
    </g>
    <g id="xtick_4">
     <g id="line2d_7">
      <path d="M 275.9999 376 
L 275.9999 16.2 
" clip-path="url(#p6b345941f0)" style="fill: none; stroke: #b0b0b0; stroke-width: 0.8; stroke-linecap: square"/>
     </g>
     <g id="line2d_8">
      <g>
       <use xlink:href="#m48f5dfe0d0" x="275.9999" y="376" style="stroke: #000000; stroke-width: 0.8"/>
      </g>
     </g>
     <g id="text_4">
      <!-- 2.25 -->
      <g transform="translate(259.300681 394.397656) scale(0.15 -0.15)">
       <use xlink:href="#DejaVuSans-32"/>
       <use xlink:href="#DejaVuSans-2e" x="63.623047"/>
       <use xlink:href="#DejaVuSans-32" x="95.410156"/>
       <use xlink:href="#DejaVuSans-35" x="159.033203"/>
      </g>
     </g>
    </g>
    <g id="xtick_5">
     <g id="line2d_9">
      <path d="M 334.7292 376 
L 334.7292 16.2 
" clip-path="url(#p6b345941f0)" style="fill: none; stroke: #b0b0b0; stroke-width: 0.8; stroke-linecap: square"/>
     </g>
     <g id="line2d_10">
      <g>
       <use xlink:href="#m48f5dfe0d0" x="334.7292" y="376" style="stroke: #000000; stroke-width: 0.8"/>
      </g>
     </g>
     <g id="text_5">
      <!-- 2.50 -->
      <g transform="translate(318.029981 394.397656) scale(0.15 -0.15)">
       <use xlink:href="#DejaVuSans-32"/>
       <use xlink:href="#DejaVuSans-2e" x="63.623047"/>
       <use xlink:href="#DejaVuSans-35" x="95.410156"/>
       <use xlink:href="#DejaVuSans-30" x="159.033203"/>
      </g>
     </g>
    </g>
    <g id="xtick_6">
     <g id="line2d_11">
      <path d="M 393.4585 376 
L 393.4585 16.2 
" clip-path="url(#p6b345941f0)" style="fill: none; stroke: #b0b0b0; stroke-width: 0.8; stroke-linecap: square"/>
     </g>
     <g id="line2d_12">
      <g>
       <use xlink:href="#m48f5dfe0d0" x="393.4585" y="376" style="stroke: #000000; stroke-width: 0.8"/>
      </g>
     </g>
     <g id="text_6">
      <!-- 2.75 -->
      <g transform="translate(376.759281 394.397656) scale(0.15 -0.15)">
       <use xlink:href="#DejaVuSans-32"/>
       <use xlink:href="#DejaVuSans-2e" x="63.623047"/>
       <use xlink:href="#DejaVuSans-37" x="95.410156"/>
       <use xlink:href="#DejaVuSans-35" x="159.033203"/>
      </g>
     </g>
    </g>
    <g id="xtick_7">
     <g id="line2d_13">
      <path d="M 452.1878 376 
L 452.1878 16.2 
" clip-path="url(#p6b345941f0)" style="fill: none; stroke: #b0b0b0; stroke-width: 0.8; stroke-linecap: square"/>
     </g>
     <g id="line2d_14">
      <g>
       <use xlink:href="#m48f5dfe0d0" x="452.1878" y="376" style="stroke: #000000; stroke-width: 0.8"/>
      </g>
     </g>
     <g id="text_7">
      <!-- 3.00 -->
      <g transform="translate(435.488581 394.397656) scale(0.15 -0.15)">
       <defs>
        <path id="DejaVuSans-33" d="M 2597 2516 
Q 3050 2419 3304 2112 
Q 3559 1806 3559 1356 
Q 3559 666 3084 287 
Q 2609 -91 1734 -91 
Q 1441 -91 1130 -33 
Q 819 25 488 141 
L 488 750 
Q 750 597 1062 519 
Q 1375 441 1716 441 
Q 2309 441 2620 675 
Q 2931 909 2931 1356 
Q 2931 1769 2642 2001 
Q 2353 2234 1838 2234 
L 1294 2234 
L 1294 2753 
L 1863 2753 
Q 2328 2753 2575 2939 
Q 2822 3125 2822 3475 
Q 2822 3834 2567 4026 
Q 2313 4219 1838 4219 
Q 1578 4219 1281 4162 
Q 984 4106 628 3988 
L 628 4550 
Q 988 4650 1302 4700 
Q 1616 4750 1894 4750 
Q 2613 4750 3031 4423 
Q 3450 4097 3450 3541 
Q 3450 3153 3228 2886 
Q 3006 2619 2597 2516 
z
" transform="scale(0.015625)"/>
       </defs>
       <use xlink:href="#DejaVuSans-33"/>
       <use xlink:href="#DejaVuSans-2e" x="63.623047"/>
       <use xlink:href="#DejaVuSans-30" x="95.410156"/>
       <use xlink:href="#DejaVuSans-30" x="159.033203"/>
      </g>
     </g>
    </g>
    <g id="xtick_8">
     <g id="line2d_15">
      <path d="M 510.9171 376 
L 510.9171 16.2 
" clip-path="url(#p6b345941f0)" style="fill: none; stroke: #b0b0b0; stroke-width: 0.8; stroke-linecap: square"/>
     </g>
     <g id="line2d_16">
      <g>
       <use xlink:href="#m48f5dfe0d0" x="510.9171" y="376" style="stroke: #000000; stroke-width: 0.8"/>
      </g>
     </g>
     <g id="text_8">
      <!-- 3.25 -->
      <g transform="translate(494.217881 394.397656) scale(0.15 -0.15)">
       <use xlink:href="#DejaVuSans-33"/>
       <use xlink:href="#DejaVuSans-2e" x="63.623047"/>
       <use xlink:href="#DejaVuSans-32" x="95.410156"/>
       <use xlink:href="#DejaVuSans-35" x="159.033203"/>
      </g>
     </g>
    </g>
    <g id="xtick_9">
     <g id="line2d_17">
      <path d="M 569.6464 376 
L 569.6464 16.2 
" clip-path="url(#p6b345941f0)" style="fill: none; stroke: #b0b0b0; stroke-width: 0.8; stroke-linecap: square"/>
     </g>
     <g id="line2d_18">
      <g>
       <use xlink:href="#m48f5dfe0d0" x="569.6464" y="376" style="stroke: #000000; stroke-width: 0.8"/>
      </g>
     </g>
     <g id="text_9">
      <!-- 3.50 -->
      <g transform="translate(552.947181 394.397656) scale(0.15 -0.15)">
       <use xlink:href="#DejaVuSans-33"/>
       <use xlink:href="#DejaVuSans-2e" x="63.623047"/>
       <use xlink:href="#DejaVuSans-35" x="95.410156"/>
       <use xlink:href="#DejaVuSans-30" x="159.033203"/>
      </g>
     </g>
    </g>
    <g id="xtick_10">
     <g id="line2d_19">
      <path d="M 628.3757 376 
L 628.3757 16.2 
" clip-path="url(#p6b345941f0)" style="fill: none; stroke: #b0b0b0; stroke-width: 0.8; stroke-linecap: square"/>
     </g>
     <g id="line2d_20">
      <g>
       <use xlink:href="#m48f5dfe0d0" x="628.3757" y="376" style="stroke: #000000; stroke-width: 0.8"/>
      </g>
     </g>
     <g id="text_10">
      <!-- 3.75 -->
      <g transform="translate(611.676481 394.397656) scale(0.15 -0.15)">
       <use xlink:href="#DejaVuSans-33"/>
       <use xlink:href="#DejaVuSans-2e" x="63.623047"/>
       <use xlink:href="#DejaVuSans-37" x="95.410156"/>
       <use xlink:href="#DejaVuSans-35" x="159.033203"/>
      </g>
     </g>
    </g>
    <g id="xtick_11">
     <g id="line2d_21">
      <path d="M 687.105 376 
L 687.105 16.2 
" clip-path="url(#p6b345941f0)" style="fill: none; stroke: #b0b0b0; stroke-width: 0.8; stroke-linecap: square"/>
     </g>
     <g id="line2d_22">
      <g>
       <use xlink:href="#m48f5dfe0d0" x="687.105" y="376" style="stroke: #000000; stroke-width: 0.8"/>
      </g>
     </g>
     <g id="text_11">
      <!-- 4.00 -->
      <g transform="translate(670.405781 394.397656) scale(0.15 -0.15)">
       <defs>
        <path id="DejaVuSans-34" d="M 2419 4116 
L 825 1625 
L 2419 1625 
L 2419 4116 
z
M 2253 4666 
L 3047 4666 
L 3047 1625 
L 3713 1625 
L 3713 1100 
L 3047 1100 
L 3047 0 
L 2419 0 
L 2419 1100 
L 313 1100 
L 313 1709 
L 2253 4666 
z
" transform="scale(0.015625)"/>
       </defs>
       <use xlink:href="#DejaVuSans-34"/>
       <use xlink:href="#DejaVuSans-2e" x="63.623047"/>
       <use xlink:href="#DejaVuSans-30" x="95.410156"/>
       <use xlink:href="#DejaVuSans-30" x="159.033203"/>
      </g>
     </g>
    </g>
    <g id="text_12">
     <!-- J [-] -->
     <g transform="translate(380.304203 412.914844) scale(0.15 -0.15)">
      <defs>
       <path id="DejaVuSans-4a" d="M 628 4666 
L 1259 4666 
L 1259 325 
Q 1259 -519 939 -900 
Q 619 -1281 -91 -1281 
L -331 -1281 
L -331 -750 
L -134 -750 
Q 284 -750 456 -515 
Q 628 -281 628 325 
L 628 4666 
z
" transform="scale(0.015625)"/>
       <path id="DejaVuSans-20" transform="scale(0.015625)"/>
       <path id="DejaVuSans-5b" d="M 550 4863 
L 1875 4863 
L 1875 4416 
L 1125 4416 
L 1125 -397 
L 1875 -397 
L 1875 -844 
L 550 -844 
L 550 4863 
z
" transform="scale(0.015625)"/>
       <path id="DejaVuSans-2d" d="M 313 2009 
L 1997 2009 
L 1997 1497 
L 313 1497 
L 313 2009 
z
" transform="scale(0.015625)"/>
       <path id="DejaVuSans-5d" d="M 1947 4863 
L 1947 -844 
L 622 -844 
L 622 -397 
L 1369 -397 
L 1369 4416 
L 622 4416 
L 622 4863 
L 1947 4863 
z
" transform="scale(0.015625)"/>
      </defs>
      <use xlink:href="#DejaVuSans-4a"/>
      <use xlink:href="#DejaVuSans-20" x="29.492188"/>
      <use xlink:href="#DejaVuSans-5b" x="61.279297"/>
      <use xlink:href="#DejaVuSans-2d" x="100.292969"/>
      <use xlink:href="#DejaVuSans-5d" x="136.376953"/>
     </g>
    </g>
   </g>
   <g id="matplotlib.axis_2">
    <g id="ytick_1">
     <g id="line2d_23">
      <path d="M 99.812 372.960165 
L 687.105 372.960165 
" clip-path="url(#p6b345941f0)" style="fill: none; stroke: #b0b0b0; stroke-width: 0.8; stroke-linecap: square"/>
     </g>
     <g id="line2d_24">
      <defs>
       <path id="m7832ccedc0" d="M 0 0 
L -3.5 0 
" style="stroke: #000000; stroke-width: 0.8"/>
      </defs>
      <g>
       <use xlink:href="#m7832ccedc0" x="99.812" y="372.960165" style="stroke: #000000; stroke-width: 0.8"/>
      </g>
     </g>
     <g id="text_13">
      <!-- −0.030 -->
      <g transform="translate(37.300281 378.658993) scale(0.15 -0.15)">
       <defs>
        <path id="DejaVuSans-2212" d="M 678 2272 
L 4684 2272 
L 4684 1741 
L 678 1741 
L 678 2272 
z
" transform="scale(0.015625)"/>
       </defs>
       <use xlink:href="#DejaVuSans-2212"/>
       <use xlink:href="#DejaVuSans-30" x="83.789062"/>
       <use xlink:href="#DejaVuSans-2e" x="147.412109"/>
       <use xlink:href="#DejaVuSans-30" x="179.199219"/>
       <use xlink:href="#DejaVuSans-33" x="242.822266"/>
       <use xlink:href="#DejaVuSans-30" x="306.445312"/>
      </g>
     </g>
    </g>
    <g id="ytick_2">
     <g id="line2d_25">
      <path d="M 99.812 298.281022 
L 687.105 298.281022 
" clip-path="url(#p6b345941f0)" style="fill: none; stroke: #b0b0b0; stroke-width: 0.8; stroke-linecap: square"/>
     </g>
     <g id="line2d_26">
      <g>
       <use xlink:href="#m7832ccedc0" x="99.812" y="298.281022" style="stroke: #000000; stroke-width: 0.8"/>
      </g>
     </g>
     <g id="text_14">
      <!-- −0.028 -->
      <g transform="translate(37.300281 303.97985) scale(0.15 -0.15)">
       <defs>
        <path id="DejaVuSans-38" d="M 2034 2216 
Q 1584 2216 1326 1975 
Q 1069 1734 1069 1313 
Q 1069 891 1326 650 
Q 1584 409 2034 409 
Q 2484 409 2743 651 
Q 3003 894 3003 1313 
Q 3003 1734 2745 1975 
Q 2488 2216 2034 2216 
z
M 1403 2484 
Q 997 2584 770 2862 
Q 544 3141 544 3541 
Q 544 4100 942 4425 
Q 1341 4750 2034 4750 
Q 2731 4750 3128 4425 
Q 3525 4100 3525 3541 
Q 3525 3141 3298 2862 
Q 3072 2584 2669 2484 
Q 3125 2378 3379 2068 
Q 3634 1759 3634 1313 
Q 3634 634 3220 271 
Q 2806 -91 2034 -91 
Q 1263 -91 848 271 
Q 434 634 434 1313 
Q 434 1759 690 2068 
Q 947 2378 1403 2484 
z
M 1172 3481 
Q 1172 3119 1398 2916 
Q 1625 2713 2034 2713 
Q 2441 2713 2670 2916 
Q 2900 3119 2900 3481 
Q 2900 3844 2670 4047 
Q 2441 4250 2034 4250 
Q 1625 4250 1398 4047 
Q 1172 3844 1172 3481 
z
" transform="scale(0.015625)"/>
       </defs>
       <use xlink:href="#DejaVuSans-2212"/>
       <use xlink:href="#DejaVuSans-30" x="83.789062"/>
       <use xlink:href="#DejaVuSans-2e" x="147.412109"/>
       <use xlink:href="#DejaVuSans-30" x="179.199219"/>
       <use xlink:href="#DejaVuSans-32" x="242.822266"/>
       <use xlink:href="#DejaVuSans-38" x="306.445312"/>
      </g>
     </g>
    </g>
    <g id="ytick_3">
     <g id="line2d_27">
      <path d="M 99.812 223.601879 
L 687.105 223.601879 
" clip-path="url(#p6b345941f0)" style="fill: none; stroke: #b0b0b0; stroke-width: 0.8; stroke-linecap: square"/>
     </g>
     <g id="line2d_28">
      <g>
       <use xlink:href="#m7832ccedc0" x="99.812" y="223.601879" style="stroke: #000000; stroke-width: 0.8"/>
      </g>
     </g>
     <g id="text_15">
      <!-- −0.026 -->
      <g transform="translate(37.300281 229.300707) scale(0.15 -0.15)">
       <defs>
        <path id="DejaVuSans-36" d="M 2113 2584 
Q 1688 2584 1439 2293 
Q 1191 2003 1191 1497 
Q 1191 994 1439 701 
Q 1688 409 2113 409 
Q 2538 409 2786 701 
Q 3034 994 3034 1497 
Q 3034 2003 2786 2293 
Q 2538 2584 2113 2584 
z
M 3366 4563 
L 3366 3988 
Q 3128 4100 2886 4159 
Q 2644 4219 2406 4219 
Q 1781 4219 1451 3797 
Q 1122 3375 1075 2522 
Q 1259 2794 1537 2939 
Q 1816 3084 2150 3084 
Q 2853 3084 3261 2657 
Q 3669 2231 3669 1497 
Q 3669 778 3244 343 
Q 2819 -91 2113 -91 
Q 1303 -91 875 529 
Q 447 1150 447 2328 
Q 447 3434 972 4092 
Q 1497 4750 2381 4750 
Q 2619 4750 2861 4703 
Q 3103 4656 3366 4563 
z
" transform="scale(0.015625)"/>
       </defs>
       <use xlink:href="#DejaVuSans-2212"/>
       <use xlink:href="#DejaVuSans-30" x="83.789062"/>
       <use xlink:href="#DejaVuSans-2e" x="147.412109"/>
       <use xlink:href="#DejaVuSans-30" x="179.199219"/>
       <use xlink:href="#DejaVuSans-32" x="242.822266"/>
       <use xlink:href="#DejaVuSans-36" x="306.445312"/>
      </g>
     </g>
    </g>
    <g id="ytick_4">
     <g id="line2d_29">
      <path d="M 99.812 148.922736 
L 687.105 148.922736 
" clip-path="url(#p6b345941f0)" style="fill: none; stroke: #b0b0b0; stroke-width: 0.8; stroke-linecap: square"/>
     </g>
     <g id="line2d_30">
      <g>
       <use xlink:href="#m7832ccedc0" x="99.812" y="148.922736" style="stroke: #000000; stroke-width: 0.8"/>
      </g>
     </g>
     <g id="text_16">
      <!-- −0.024 -->
      <g transform="translate(37.300281 154.621564) scale(0.15 -0.15)">
       <use xlink:href="#DejaVuSans-2212"/>
       <use xlink:href="#DejaVuSans-30" x="83.789062"/>
       <use xlink:href="#DejaVuSans-2e" x="147.412109"/>
       <use xlink:href="#DejaVuSans-30" x="179.199219"/>
       <use xlink:href="#DejaVuSans-32" x="242.822266"/>
       <use xlink:href="#DejaVuSans-34" x="306.445312"/>
      </g>
     </g>
    </g>
    <g id="ytick_5">
     <g id="line2d_31">
      <path d="M 99.812 74.243593 
L 687.105 74.243593 
" clip-path="url(#p6b345941f0)" style="fill: none; stroke: #b0b0b0; stroke-width: 0.8; stroke-linecap: square"/>
     </g>
     <g id="line2d_32">
      <g>
       <use xlink:href="#m7832ccedc0" x="99.812" y="74.243593" style="stroke: #000000; stroke-width: 0.8"/>
      </g>
     </g>
     <g id="text_17">
      <!-- −0.022 -->
      <g transform="translate(37.300281 79.942421) scale(0.15 -0.15)">
       <use xlink:href="#DejaVuSans-2212"/>
       <use xlink:href="#DejaVuSans-30" x="83.789062"/>
       <use xlink:href="#DejaVuSans-2e" x="147.412109"/>
       <use xlink:href="#DejaVuSans-30" x="179.199219"/>
       <use xlink:href="#DejaVuSans-32" x="242.822266"/>
       <use xlink:href="#DejaVuSans-32" x="306.445312"/>
      </g>
     </g>
    </g>
    <g id="text_18">
     <!-- $\partial C_M/ \partial \delta_e$ [-] -->
     <g transform="translate(30.18075 235.325) rotate(-90) scale(0.15 -0.15)">
      <defs>
       <path id="DejaVuSans-2202" d="M 1366 -91 
Q 925 -91 638 175 
Q 297 491 297 1063 
Q 297 1656 597 2119 
Q 906 2594 1463 2594 
Q 1828 2594 2116 2366 
Q 2284 2231 2400 2006 
Q 2441 2259 2441 2547 
Q 2441 2969 2341 3213 
Q 2119 3753 1531 3753 
Q 1309 3753 966 3616 
L 966 4141 
Q 1328 4238 1653 4238 
Q 2491 4238 2847 3469 
Q 3013 3106 3013 2566 
Q 3013 2213 2934 1803 
Q 2738 778 2228 291 
Q 1828 -91 1366 -91 
z
M 831 969 
Q 831 656 969 488 
Q 1116 309 1341 309 
Q 1541 309 1700 450 
Q 1925 644 2091 959 
Q 2228 1219 2297 1497 
Q 2019 2169 1538 2169 
Q 1125 2169 944 1625 
Q 831 1288 831 969 
z
" transform="scale(0.015625)"/>
       <path id="DejaVuSans-Oblique-43" d="M 4447 4306 
L 4319 3641 
Q 4019 3944 3683 4091 
Q 3347 4238 2956 4238 
Q 2422 4238 2017 3981 
Q 1613 3725 1319 3200 
Q 1131 2863 1032 2486 
Q 934 2109 934 1728 
Q 934 1091 1264 756 
Q 1594 422 2222 422 
Q 2656 422 3056 561 
Q 3456 700 3834 978 
L 3688 231 
Q 3316 72 2936 -9 
Q 2556 -91 2175 -91 
Q 1278 -91 773 396 
Q 269 884 269 1753 
Q 269 2309 461 2846 
Q 653 3384 1013 3828 
Q 1394 4300 1883 4525 
Q 2372 4750 3022 4750 
Q 3422 4750 3780 4639 
Q 4138 4528 4447 4306 
z
" transform="scale(0.015625)"/>
       <path id="DejaVuSans-Oblique-4d" d="M 1081 4666 
L 2028 4666 
L 2572 1522 
L 4378 4666 
L 5350 4666 
L 4441 0 
L 3828 0 
L 4622 4091 
L 2791 897 
L 2175 897 
L 1581 4103 
L 788 0 
L 172 0 
L 1081 4666 
z
" transform="scale(0.015625)"/>
       <path id="DejaVuSans-2f" d="M 1625 4666 
L 2156 4666 
L 531 -594 
L 0 -594 
L 1625 4666 
z
" transform="scale(0.015625)"/>
       <path id="DejaVuSans-Oblique-3b4" d="M 3472 4053 
Q 3197 4272 2450 4272 
Q 1659 4272 1588 3906 
Q 1531 3619 2328 3469 
Q 2953 3353 3253 3003 
Q 3616 2581 3447 1716 
Q 3284 888 2763 400 
Q 2238 -91 1488 -91 
Q 741 -91 406 400 
Q 72 888 241 1747 
Q 363 2384 891 2900 
Q 1097 3100 1353 3213 
Q 913 3459 1000 3900 
Q 1166 4750 2544 4750 
Q 3234 4750 3566 4531 
L 3472 4053 
z
M 1753 3056 
Q 1525 2966 1306 2738 
Q 969 2384 847 1747 
Q 722 1113 919 756 
Q 1119 397 1584 397 
Q 2044 397 2381 759 
Q 2722 1122 2838 1716 
Q 2956 2338 2731 2638 
Q 2491 2959 2103 2994 
Q 1906 3013 1753 3056 
z
" transform="scale(0.015625)"/>
       <path id="DejaVuSans-Oblique-65" d="M 3078 2063 
Q 3088 2113 3092 2166 
Q 3097 2219 3097 2272 
Q 3097 2653 2873 2875 
Q 2650 3097 2266 3097 
Q 1838 3097 1509 2826 
Q 1181 2556 1013 2059 
L 3078 2063 
z
M 3578 1613 
L 903 1613 
Q 884 1494 878 1425 
Q 872 1356 872 1306 
Q 872 872 1139 634 
Q 1406 397 1894 397 
Q 2269 397 2603 481 
Q 2938 566 3225 728 
L 3116 159 
Q 2806 34 2476 -28 
Q 2147 -91 1806 -91 
Q 1078 -91 686 257 
Q 294 606 294 1247 
Q 294 1794 489 2264 
Q 684 2734 1063 3103 
Q 1306 3334 1642 3459 
Q 1978 3584 2356 3584 
Q 2950 3584 3301 3228 
Q 3653 2872 3653 2272 
Q 3653 2128 3634 1964 
Q 3616 1800 3578 1613 
z
" transform="scale(0.015625)"/>
      </defs>
      <use xlink:href="#DejaVuSans-2202" transform="translate(0 0.015625)"/>
      <use xlink:href="#DejaVuSans-Oblique-43" transform="translate(51.708984 0.015625)"/>
      <use xlink:href="#DejaVuSans-Oblique-4d" transform="translate(121.533203 -16.390625) scale(0.7)"/>
      <use xlink:href="#DejaVuSans-2f" transform="translate(184.663086 0.015625)"/>
      <use xlink:href="#DejaVuSans-2202" transform="translate(218.354492 0.015625)"/>
      <use xlink:href="#DejaVuSans-Oblique-3b4" transform="translate(270.063477 0.015625)"/>
      <use xlink:href="#DejaVuSans-Oblique-65" transform="translate(331.245117 -16.390625) scale(0.7)"/>
      <use xlink:href="#DejaVuSans-20" transform="translate(377.045898 0.015625)"/>
      <use xlink:href="#DejaVuSans-5b" transform="translate(408.833008 0.015625)"/>
      <use xlink:href="#DejaVuSans-2d" transform="translate(447.84668 0.015625)"/>
      <use xlink:href="#DejaVuSans-5d" transform="translate(483.930664 0.015625)"/>
     </g>
    </g>
   </g>
   <g id="line2d_33">
    <path d="M 99.812 275.60122 
L 105.744253 266.028302 
L 111.676505 256.64771 
L 117.608758 247.459444 
L 123.54101 238.463504 
L 129.473263 229.659889 
L 135.405515 221.048601 
L 141.337768 212.629638 
L 147.27002 204.403002 
L 153.202273 196.368691 
L 159.134525 188.526706 
L 165.066778 180.877047 
L 170.99903 173.419714 
L 176.931283 166.154707 
L 182.863535 159.082026 
L 188.795788 152.20167 
L 194.72804 145.513641 
L 200.660293 139.017937 
L 206.592545 132.71456 
L 212.524798 126.603508 
L 218.457051 120.684782 
L 224.389303 114.958382 
L 230.321556 109.424308 
L 236.253808 104.08256 
L 242.186061 98.933137 
L 248.118313 93.976041 
L 254.050566 89.21127 
L 259.982818 84.638826 
L 265.915071 80.258707 
L 271.847323 76.070914 
L 277.779576 72.075447 
L 283.711828 68.272306 
L 289.644081 64.661491 
L 295.576333 61.243001 
L 301.508586 58.016838 
L 307.440838 54.983001 
L 313.373091 52.141489 
L 319.305343 49.492303 
L 325.237596 47.035443 
L 331.169848 44.77091 
L 337.102101 42.698702 
L 343.034354 40.818819 
L 348.966606 39.131263 
L 354.898859 37.636033 
L 360.831111 36.333128 
L 366.763364 35.22255 
L 372.695616 34.304297 
L 378.627869 33.57837 
L 384.560121 33.04477 
L 390.492374 32.703495 
L 396.424626 32.554545 
L 402.356879 32.597922 
L 408.289131 32.833625 
L 414.221384 33.261654 
L 420.153636 33.882008 
L 426.085889 34.694688 
L 432.018141 35.699695 
L 437.950394 36.897027 
L 443.882646 38.286685 
L 449.814899 39.868669 
L 455.747152 41.642979 
L 461.679404 43.609614 
L 467.611657 45.768576 
L 473.543909 48.119864 
L 479.476162 50.663477 
L 485.408414 53.399416 
L 491.340667 56.327682 
L 497.272919 59.448273 
L 503.205172 62.76119 
L 509.137424 66.266433 
L 515.069677 69.964001 
L 521.001929 73.853896 
L 526.934182 77.936117 
L 532.866434 82.210663 
L 538.798687 86.677536 
L 544.730939 91.336734 
L 550.663192 96.188258 
L 556.595444 101.232108 
L 562.527697 106.468284 
L 568.459949 111.896786 
L 574.392202 117.517613 
L 580.324455 123.330767 
L 586.256707 129.336247 
L 592.18896 135.534052 
L 598.121212 141.924183 
L 604.053465 148.506641 
L 609.985717 155.281424 
L 615.91797 162.248533 
L 621.850222 169.407967 
L 627.782475 176.759728 
L 633.714727 184.303815 
L 639.64698 192.040227 
L 645.579232 199.968966 
L 651.511485 208.09003 
L 657.443737 216.403421 
L 663.37599 224.909137 
L 669.308242 233.607179 
L 675.240495 242.497547 
L 681.172747 251.58024 
L 687.105 260.85526 
" clip-path="url(#p6b345941f0)" style="fill: none; stroke-dasharray: 9.6,2.4,1.5,2.4; stroke-dashoffset: 0; stroke: #00a6b6; stroke-width: 1.5"/>
   </g>
   <g id="line2d_34">
    <path d="M 99.812 359.645455 
L 105.744253 352.710602 
L 111.676505 345.889404 
L 117.608758 339.181861 
L 123.54101 332.587973 
L 129.473263 326.107739 
L 135.405515 319.74116 
L 141.337768 313.488236 
L 147.27002 307.348966 
L 153.202273 301.323352 
L 159.134525 295.411391 
L 165.066778 289.613086 
L 170.99903 283.928435 
L 176.931283 278.357439 
L 182.863535 272.900098 
L 188.795788 267.556412 
L 194.72804 262.32638 
L 200.660293 257.210003 
L 206.592545 252.20728 
L 212.524798 247.318212 
L 218.457051 242.542799 
L 224.389303 237.881041 
L 230.321556 233.332938 
L 236.253808 228.898489 
L 242.186061 224.577695 
L 248.118313 220.370555 
L 254.050566 216.277071 
L 259.982818 212.297241 
L 265.915071 208.431065 
L 271.847323 204.678545 
L 277.779576 201.039679 
L 283.711828 197.514468 
L 289.644081 194.102911 
L 295.576333 190.80501 
L 301.508586 187.620762 
L 307.440838 184.55017 
L 313.373091 181.593233 
L 319.305343 178.74995 
L 325.237596 176.020322 
L 331.169848 173.404348 
L 337.102101 170.902029 
L 343.034354 168.513365 
L 348.966606 166.238356 
L 354.898859 164.077001 
L 360.831111 162.029302 
L 366.763364 160.095256 
L 372.695616 158.274866 
L 378.627869 156.56813 
L 384.560121 154.975049 
L 390.492374 153.495623 
L 396.424626 152.129851 
L 402.356879 150.877734 
L 408.289131 149.739272 
L 414.221384 148.714465 
L 420.153636 147.803312 
L 426.085889 147.005814 
L 432.018141 146.32197 
L 437.950394 145.751782 
L 443.882646 145.295248 
L 449.814899 144.952369 
L 455.747152 144.723144 
L 461.679404 144.607574 
L 467.611657 144.605659 
L 473.543909 144.717399 
L 479.476162 144.942793 
L 485.408414 145.281842 
L 491.340667 145.734546 
L 497.272919 146.300905 
L 503.205172 146.980918 
L 509.137424 147.774586 
L 515.069677 148.681908 
L 521.001929 149.702886 
L 526.934182 150.837518 
L 532.866434 152.085805 
L 538.798687 153.447746 
L 544.730939 154.923342 
L 550.663192 156.512593 
L 556.595444 158.215499 
L 562.527697 160.032059 
L 568.459949 161.962274 
L 574.392202 164.006144 
L 580.324455 166.163668 
L 586.256707 168.434848 
L 592.18896 170.819681 
L 598.121212 173.31817 
L 604.053465 175.930313 
L 609.985717 178.656111 
L 615.91797 181.495564 
L 621.850222 184.448672 
L 627.782475 187.515434 
L 633.714727 190.695851 
L 639.64698 193.989922 
L 645.579232 197.397649 
L 651.511485 200.91903 
L 657.443737 204.554065 
L 663.37599 208.302756 
L 669.308242 212.165101 
L 675.240495 216.141101 
L 681.172747 220.230755 
L 687.105 224.434065 
" clip-path="url(#p6b345941f0)" style="fill: none; stroke-dasharray: 9.6,2.4,1.5,2.4; stroke-dashoffset: 0; stroke: #a50034; stroke-width: 1.5"/>
   </g>
   <g id="line2d_35">
    <path d="M 99.812 307.719816 
L 105.744253 301.025413 
L 111.676505 294.447204 
L 117.608758 287.98519 
L 123.54101 281.639369 
L 129.473263 275.409744 
L 135.405515 269.296312 
L 141.337768 263.299075 
L 147.27002 257.418032 
L 153.202273 251.653184 
L 159.134525 246.00453 
L 165.066778 240.47207 
L 170.99903 235.055805 
L 176.931283 229.755734 
L 182.863535 224.571858 
L 188.795788 219.504176 
L 194.72804 214.552688 
L 200.660293 209.717394 
L 206.592545 204.998295 
L 212.524798 200.395391 
L 218.457051 195.90868 
L 224.389303 191.538165 
L 230.321556 187.283843 
L 236.253808 183.145716 
L 242.186061 179.123783 
L 248.118313 175.218045 
L 254.050566 171.428501 
L 259.982818 167.755151 
L 265.915071 164.197996 
L 271.847323 160.757035 
L 277.779576 157.432268 
L 283.711828 154.223696 
L 289.644081 151.131318 
L 295.576333 148.155134 
L 301.508586 145.295145 
L 307.440838 142.551351 
L 313.373091 139.92375 
L 319.305343 137.412344 
L 325.237596 135.017133 
L 331.169848 132.738115 
L 337.102101 130.575293 
L 343.034354 128.528664 
L 348.966606 126.59823 
L 354.898859 124.78399 
L 360.831111 123.085945 
L 366.763364 121.504094 
L 372.695616 120.038437 
L 378.627869 118.688975 
L 384.560121 117.455707 
L 390.492374 116.338633 
L 396.424626 115.337754 
L 402.356879 114.453069 
L 408.289131 113.684579 
L 414.221384 113.032283 
L 420.153636 112.496181 
L 426.085889 112.076274 
L 432.018141 111.772561 
L 437.950394 111.585042 
L 443.882646 111.513718 
L 449.814899 111.558588 
L 455.747152 111.719653 
L 461.679404 111.996911 
L 467.611657 112.390365 
L 473.543909 112.900012 
L 479.476162 113.525854 
L 485.408414 114.267891 
L 491.340667 115.126121 
L 497.272919 116.100547 
L 503.205172 117.191166 
L 509.137424 118.39798 
L 515.069677 119.720988 
L 521.001929 121.160191 
L 526.934182 122.715588 
L 532.866434 124.387179 
L 538.798687 126.174965 
L 544.730939 128.078945 
L 550.663192 130.099119 
L 556.595444 132.235488 
L 562.527697 134.488051 
L 568.459949 136.856809 
L 574.392202 139.341761 
L 580.324455 141.942907 
L 586.256707 144.660248 
L 592.18896 147.493783 
L 598.121212 150.443512 
L 604.053465 153.509436 
L 609.985717 156.691554 
L 615.91797 159.989867 
L 621.850222 163.404373 
L 627.782475 166.935075 
L 633.714727 170.58197 
L 639.64698 174.34506 
L 645.579232 178.224345 
L 651.511485 182.219823 
L 657.443737 186.331496 
L 663.37599 190.559364 
L 669.308242 194.903426 
L 675.240495 199.363682 
L 681.172747 203.940133 
L 687.105 208.632778 
" clip-path="url(#p6b345941f0)" style="fill: none; stroke-dasharray: 9.6,2.4,1.5,2.4; stroke-dashoffset: 0; stroke: #ef60a3; stroke-width: 1.5"/>
   </g>
   <g id="patch_3">
    <path d="M 99.812 376 
L 99.812 16.2 
" style="fill: none; stroke: #000000; stroke-width: 0.8; stroke-linejoin: miter; stroke-linecap: square"/>
   </g>
   <g id="patch_4">
    <path d="M 687.105 376 
L 687.105 16.2 
" style="fill: none; stroke: #000000; stroke-width: 0.8; stroke-linejoin: miter; stroke-linecap: square"/>
   </g>
   <g id="patch_5">
    <path d="M 99.812 376 
L 687.105 376 
" style="fill: none; stroke: #000000; stroke-width: 0.8; stroke-linejoin: miter; stroke-linecap: square"/>
   </g>
   <g id="patch_6">
    <path d="M 99.812 16.2 
L 687.105 16.2 
" style="fill: none; stroke: #000000; stroke-width: 0.8; stroke-linejoin: miter; stroke-linecap: square"/>
   </g>
   <g id="legend_1">
    <g id="patch_7">
     <path d="M 110.312 94.35 
L 242.462 94.35 
Q 245.462 94.35 245.462 91.35 
L 245.462 26.7 
Q 245.462 23.7 242.462 23.7 
L 110.312 23.7 
Q 107.312 23.7 107.312 26.7 
L 107.312 91.35 
Q 107.312 94.35 110.312 94.35 
z
" style="fill: #ffffff; opacity: 0.8; stroke: #cccccc; stroke-linejoin: miter"/>
    </g>
    <g id="line2d_36">
     <path d="M 113.312 35.85 
L 128.312 35.85 
L 143.312 35.85 
" style="fill: none; stroke-dasharray: 9.6,2.4,1.5,2.4; stroke-dashoffset: 0; stroke: #00a6b6; stroke-width: 1.5"/>
    </g>
    <g id="text_19">
     <!-- $\alpha$ = 7 deg -->
     <g transform="translate(155.312 41.1) scale(0.15 -0.15)">
      <defs>
       <path id="DejaVuSans-Oblique-3b1" d="M 2619 1628 
L 2622 2350 
Q 2625 3088 2069 3091 
Q 1653 3094 1394 2747 
Q 1069 2319 959 1747 
Q 825 1059 994 731 
Q 1169 397 1547 397 
Q 1966 397 2319 1063 
L 2619 1628 
z
M 2166 3578 
Q 3141 3594 3128 2584 
Q 3128 2584 3616 3500 
L 4128 3500 
L 3119 1603 
L 3109 919 
Q 3109 766 3194 638 
Q 3291 488 3391 488 
L 3669 488 
L 3575 0 
L 3228 0 
Q 2934 0 2722 263 
Q 2622 394 2619 669 
Q 2416 334 2066 50 
Q 1900 -81 1453 -78 
Q 722 -72 456 397 
Q 184 884 353 1747 
Q 534 2675 1009 3097 
Q 1544 3569 2166 3578 
z
" transform="scale(0.015625)"/>
       <path id="DejaVuSans-3d" d="M 678 2906 
L 4684 2906 
L 4684 2381 
L 678 2381 
L 678 2906 
z
M 678 1631 
L 4684 1631 
L 4684 1100 
L 678 1100 
L 678 1631 
z
" transform="scale(0.015625)"/>
       <path id="DejaVuSans-64" d="M 2906 2969 
L 2906 4863 
L 3481 4863 
L 3481 0 
L 2906 0 
L 2906 525 
Q 2725 213 2448 61 
Q 2172 -91 1784 -91 
Q 1150 -91 751 415 
Q 353 922 353 1747 
Q 353 2572 751 3078 
Q 1150 3584 1784 3584 
Q 2172 3584 2448 3432 
Q 2725 3281 2906 2969 
z
M 947 1747 
Q 947 1113 1208 752 
Q 1469 391 1925 391 
Q 2381 391 2643 752 
Q 2906 1113 2906 1747 
Q 2906 2381 2643 2742 
Q 2381 3103 1925 3103 
Q 1469 3103 1208 2742 
Q 947 2381 947 1747 
z
" transform="scale(0.015625)"/>
       <path id="DejaVuSans-65" d="M 3597 1894 
L 3597 1613 
L 953 1613 
Q 991 1019 1311 708 
Q 1631 397 2203 397 
Q 2534 397 2845 478 
Q 3156 559 3463 722 
L 3463 178 
Q 3153 47 2828 -22 
Q 2503 -91 2169 -91 
Q 1331 -91 842 396 
Q 353 884 353 1716 
Q 353 2575 817 3079 
Q 1281 3584 2069 3584 
Q 2775 3584 3186 3129 
Q 3597 2675 3597 1894 
z
M 3022 2063 
Q 3016 2534 2758 2815 
Q 2500 3097 2075 3097 
Q 1594 3097 1305 2825 
Q 1016 2553 972 2059 
L 3022 2063 
z
" transform="scale(0.015625)"/>
       <path id="DejaVuSans-67" d="M 2906 1791 
Q 2906 2416 2648 2759 
Q 2391 3103 1925 3103 
Q 1463 3103 1205 2759 
Q 947 2416 947 1791 
Q 947 1169 1205 825 
Q 1463 481 1925 481 
Q 2391 481 2648 825 
Q 2906 1169 2906 1791 
z
M 3481 434 
Q 3481 -459 3084 -895 
Q 2688 -1331 1869 -1331 
Q 1566 -1331 1297 -1286 
Q 1028 -1241 775 -1147 
L 775 -588 
Q 1028 -725 1275 -790 
Q 1522 -856 1778 -856 
Q 2344 -856 2625 -561 
Q 2906 -266 2906 331 
L 2906 616 
Q 2728 306 2450 153 
Q 2172 0 1784 0 
Q 1141 0 747 490 
Q 353 981 353 1791 
Q 353 2603 747 3093 
Q 1141 3584 1784 3584 
Q 2172 3584 2450 3431 
Q 2728 3278 2906 2969 
L 2906 3500 
L 3481 3500 
L 3481 434 
z
" transform="scale(0.015625)"/>
      </defs>
      <use xlink:href="#DejaVuSans-Oblique-3b1" transform="translate(0 0.015625)"/>
      <use xlink:href="#DejaVuSans-20" transform="translate(65.917969 0.015625)"/>
      <use xlink:href="#DejaVuSans-3d" transform="translate(97.705078 0.015625)"/>
      <use xlink:href="#DejaVuSans-20" transform="translate(181.494141 0.015625)"/>
      <use xlink:href="#DejaVuSans-37" transform="translate(213.28125 0.015625)"/>
      <use xlink:href="#DejaVuSans-20" transform="translate(276.904297 0.015625)"/>
      <use xlink:href="#DejaVuSans-64" transform="translate(308.691406 0.015625)"/>
      <use xlink:href="#DejaVuSans-65" transform="translate(372.167969 0.015625)"/>
      <use xlink:href="#DejaVuSans-67" transform="translate(433.691406 0.015625)"/>
     </g>
    </g>
    <g id="line2d_37">
     <path d="M 113.312 57.9 
L 128.312 57.9 
L 143.312 57.9 
" style="fill: none; stroke-dasharray: 9.6,2.4,1.5,2.4; stroke-dashoffset: 0; stroke: #a50034; stroke-width: 1.5"/>
    </g>
    <g id="text_20">
     <!-- $\alpha$ = 12 deg -->
     <g transform="translate(155.312 63.15) scale(0.15 -0.15)">
      <use xlink:href="#DejaVuSans-Oblique-3b1" transform="translate(0 0.015625)"/>
      <use xlink:href="#DejaVuSans-20" transform="translate(65.917969 0.015625)"/>
      <use xlink:href="#DejaVuSans-3d" transform="translate(97.705078 0.015625)"/>
      <use xlink:href="#DejaVuSans-20" transform="translate(181.494141 0.015625)"/>
      <use xlink:href="#DejaVuSans-31" transform="translate(213.28125 0.015625)"/>
      <use xlink:href="#DejaVuSans-32" transform="translate(276.904297 0.015625)"/>
      <use xlink:href="#DejaVuSans-20" transform="translate(340.527344 0.015625)"/>
      <use xlink:href="#DejaVuSans-64" transform="translate(372.314453 0.015625)"/>
      <use xlink:href="#DejaVuSans-65" transform="translate(435.791016 0.015625)"/>
      <use xlink:href="#DejaVuSans-67" transform="translate(497.314453 0.015625)"/>
     </g>
    </g>
    <g id="line2d_38">
     <path d="M 113.312 79.95 
L 128.312 79.95 
L 143.312 79.95 
" style="fill: none; stroke-dasharray: 9.6,2.4,1.5,2.4; stroke-dashoffset: 0; stroke: #ef60a3; stroke-width: 1.5"/>
    </g>
    <g id="text_21">
     <!-- $\alpha$ = 14 deg -->
     <g transform="translate(155.312 85.2) scale(0.15 -0.15)">
      <use xlink:href="#DejaVuSans-Oblique-3b1" transform="translate(0 0.015625)"/>
      <use xlink:href="#DejaVuSans-20" transform="translate(65.917969 0.015625)"/>
      <use xlink:href="#DejaVuSans-3d" transform="translate(97.705078 0.015625)"/>
      <use xlink:href="#DejaVuSans-20" transform="translate(181.494141 0.015625)"/>
      <use xlink:href="#DejaVuSans-31" transform="translate(213.28125 0.015625)"/>
      <use xlink:href="#DejaVuSans-34" transform="translate(276.904297 0.015625)"/>
      <use xlink:href="#DejaVuSans-20" transform="translate(340.527344 0.015625)"/>
      <use xlink:href="#DejaVuSans-64" transform="translate(372.314453 0.015625)"/>
      <use xlink:href="#DejaVuSans-65" transform="translate(435.791016 0.015625)"/>
      <use xlink:href="#DejaVuSans-67" transform="translate(497.314453 0.015625)"/>
     </g>
    </g>
   </g>
  </g>
 </g>
 <defs>
  <clipPath id="p6b345941f0">
   <rect x="99.812" y="16.2" width="587.293" height="359.8"/>
  </clipPath>
 </defs>
</svg>
