<?xml version="1.0" encoding="utf-8" standalone="no"?>
<!DOCTYPE svg PUBLIC "-//W3C//DTD SVG 1.1//EN"
  "http://www.w3.org/Graphics/SVG/1.1/DTD/svg11.dtd">
<svg xmlns:xlink="http://www.w3.org/1999/xlink" width="720pt" height="432pt" viewBox="0 0 720 432" xmlns="http://www.w3.org/2000/svg" version="1.1">
 <metadata>
  <rdf:RDF xmlns:dc="http://purl.org/dc/elements/1.1/" xmlns:cc="http://creativecommons.org/ns#" xmlns:rdf="http://www.w3.org/1999/02/22-rdf-syntax-ns#">
   <cc:Work>
    <dc:type rdf:resource="http://purl.org/dc/dcmitype/StillImage"/>
    <dc:date>2024-04-02T11:58:28.355031</dc:date>
    <dc:format>image/svg+xml</dc:format>
    <dc:creator>
     <cc:Agent>
      <dc:title>Matplotlib v3.8.3, https://matplotlib.org/</dc:title>
     </cc:Agent>
    </dc:creator>
   </cc:Work>
  </rdf:RDF>
 </metadata>
 <defs>
  <style type="text/css">*{stroke-linejoin: round; stroke-linecap: butt}</style>
 </defs>
 <g id="figure_1">
  <g id="patch_1">
   <path d="M 0 432 
L 720 432 
L 720 0 
L 0 0 
z
" style="fill: #ffffff"/>
  </g>
  <g id="axes_1">
   <g id="patch_2">
    <path d="M 80.642 373.12 
L 694.26 373.12 
L 694.26 16.2 
L 80.642 16.2 
z
" style="fill: #ffffff"/>
   </g>
   <g id="PathCollection_1">
    <defs>
     <path id="md0f6e4be88" d="M 0 3 
C 0.795609 3 1.55874 2.683901 2.12132 2.12132 
C 2.683901 1.55874 3 0.795609 3 0 
C 3 -0.795609 2.683901 -1.55874 2.12132 -2.12132 
C 1.55874 -2.683901 0.795609 -3 0 -3 
C -0.795609 -3 -1.55874 -2.683901 -2.12132 -2.12132 
C -2.683901 -1.55874 -3 -0.795609 -3 0 
C -3 0.795609 -2.683901 1.55874 -2.12132 2.12132 
C -1.55874 2.683901 -0.795609 3 0 3 
z
" style="stroke: #00a6b6"/>
    </defs>
    <g clip-path="url(#p675c15b45f)">
     <use xlink:href="#md0f6e4be88" x="182.896794" y="231.804874" style="fill: #00a6b6; stroke: #00a6b6"/>
     <use xlink:href="#md0f6e4be88" x="428.433232" y="69.608569" style="fill: #00a6b6; stroke: #00a6b6"/>
     <use xlink:href="#md0f6e4be88" x="530.718138" y="40.683476" style="fill: #00a6b6; stroke: #00a6b6"/>
     <use xlink:href="#md0f6e4be88" x="571.633204" y="34.177283" style="fill: #00a6b6; stroke: #00a6b6"/>
    </g>
   </g>
   <g id="PathCollection_2">
    <defs>
     <path id="m5955b48071" d="M 0 3 
C 0.795609 3 1.55874 2.683901 2.12132 2.12132 
C 2.683901 1.55874 3 0.795609 3 0 
C 3 -0.795609 2.683901 -1.55874 2.12132 -2.12132 
C 1.55874 -2.683901 0.795609 -3 0 -3 
C -0.795609 -3 -1.55874 -2.683901 -2.12132 -2.12132 
C -2.683901 -1.55874 -3 -0.795609 -3 0 
C -3 0.795609 -2.683901 1.55874 -2.12132 2.12132 
C -1.55874 2.683901 -0.795609 3 0 3 
z
" style="stroke: #a50034"/>
    </defs>
    <g clip-path="url(#p675c15b45f)">
     <use xlink:href="#m5955b48071" x="182.896794" y="232.066592" style="fill: #a50034; stroke: #a50034"/>
     <use xlink:href="#m5955b48071" x="428.433232" y="69.740715" style="fill: #a50034; stroke: #a50034"/>
     <use xlink:href="#m5955b48071" x="530.718138" y="41.369261" style="fill: #a50034; stroke: #a50034"/>
     <use xlink:href="#m5955b48071" x="571.633204" y="35.071546" style="fill: #a50034; stroke: #a50034"/>
    </g>
   </g>
   <g id="PathCollection_3">
    <defs>
     <path id="m9d63896940" d="M 0 3 
C 0.795609 3 1.55874 2.683901 2.12132 2.12132 
C 2.683901 1.55874 3 0.795609 3 0 
C 3 -0.795609 2.683901 -1.55874 2.12132 -2.12132 
C 1.55874 -2.683901 0.795609 -3 0 -3 
C -0.795609 -3 -1.55874 -2.683901 -2.12132 -2.12132 
C -2.683901 -1.55874 -3 -0.795609 -3 0 
C -3 0.795609 -2.683901 1.55874 -2.12132 2.12132 
C -1.55874 2.683901 -0.795609 3 0 3 
z
" style="stroke: #ef60a3"/>
    </defs>
    <g clip-path="url(#p675c15b45f)">
     <use xlink:href="#m9d63896940" x="182.896794" y="231.867911" style="fill: #ef60a3; stroke: #ef60a3"/>
     <use xlink:href="#m9d63896940" x="428.433232" y="70.560842" style="fill: #ef60a3; stroke: #ef60a3"/>
     <use xlink:href="#m9d63896940" x="530.718138" y="43.693922" style="fill: #ef60a3; stroke: #ef60a3"/>
     <use xlink:href="#m9d63896940" x="571.633204" y="37.275127" style="fill: #ef60a3; stroke: #ef60a3"/>
    </g>
   </g>
   <g id="PathCollection_4">
    <defs>
     <path id="mc139524aa9" d="M 0 3 
C 0.795609 3 1.55874 2.683901 2.12132 2.12132 
C 2.683901 1.55874 3 0.795609 3 0 
C 3 -0.795609 2.683901 -1.55874 2.12132 -2.12132 
C 1.55874 -2.683901 0.795609 -3 0 -3 
C -0.795609 -3 -1.55874 -2.683901 -2.12132 -2.12132 
C -2.683901 -1.55874 -3 -0.795609 -3 0 
C -3 0.795609 -2.683901 1.55874 -2.12132 2.12132 
C -1.55874 2.683901 -0.795609 3 0 3 
z
" style="stroke: #6cc24a"/>
    </defs>
    <g clip-path="url(#p675c15b45f)">
     <use xlink:href="#mc139524aa9" x="182.899191" y="230.45562" style="fill: #6cc24a; stroke: #6cc24a"/>
     <use xlink:href="#mc139524aa9" x="428.434448" y="69.259513" style="fill: #6cc24a; stroke: #6cc24a"/>
     <use xlink:href="#mc139524aa9" x="530.719628" y="43.482739" style="fill: #6cc24a; stroke: #6cc24a"/>
     <use xlink:href="#mc139524aa9" x="571.632505" y="36.710777" style="fill: #6cc24a; stroke: #6cc24a"/>
    </g>
   </g>
   <g id="PathCollection_5">
    <defs>
     <path id="m447e12eab8" d="M 0 3 
C 0.795609 3 1.55874 2.683901 2.12132 2.12132 
C 2.683901 1.55874 3 0.795609 3 0 
C 3 -0.795609 2.683901 -1.55874 2.12132 -2.12132 
C 1.55874 -2.683901 0.795609 -3 0 -3 
C -0.795609 -3 -1.55874 -2.683901 -2.12132 -2.12132 
C -2.683901 -1.55874 -3 -0.795609 -3 0 
C -3 0.795609 -2.683901 1.55874 -2.12132 2.12132 
C -1.55874 2.683901 -0.795609 3 0 3 
z
" style="stroke: #ffb81c"/>
    </defs>
    <g clip-path="url(#p675c15b45f)">
     <use xlink:href="#m447e12eab8" x="182.900372" y="245.113703" style="fill: #ffb81c; stroke: #ffb81c"/>
     <use xlink:href="#m447e12eab8" x="428.435629" y="71.708883" style="fill: #ffb81c; stroke: #ffb81c"/>
     <use xlink:href="#m447e12eab8" x="530.72081" y="50.82459" style="fill: #ffb81c; stroke: #ffb81c"/>
     <use xlink:href="#m447e12eab8" x="571.633687" y="35.012725" style="fill: #ffb81c; stroke: #ffb81c"/>
    </g>
   </g>
   <g id="matplotlib.axis_1">
    <g id="xtick_1">
     <g id="line2d_1">
      <path d="M 80.642 373.12 
L 80.642 16.2 
" clip-path="url(#p675c15b45f)" style="fill: none; stroke: #b0b0b0; stroke-width: 0.8; stroke-linecap: square"/>
     </g>
     <g id="line2d_2">
      <defs>
       <path id="maeefa25451" d="M 0 0 
L 0 3.5 
" style="stroke: #000000; stroke-width: 0.8"/>
      </defs>
      <g>
       <use xlink:href="#maeefa25451" x="80.642" y="373.12" style="stroke: #000000; stroke-width: 0.8"/>
      </g>
     </g>
     <g id="text_1">
      <!-- −10 -->
      <g transform="translate(64.813484 391.517656) scale(0.15 -0.15)">
       <defs>
        <path id="DejaVuSans-2212" d="M 678 2272 
L 4684 2272 
L 4684 1741 
L 678 1741 
L 678 2272 
z
" transform="scale(0.015625)"/>
        <path id="DejaVuSans-31" d="M 794 531 
L 1825 531 
L 1825 4091 
L 703 3866 
L 703 4441 
L 1819 4666 
L 2450 4666 
L 2450 531 
L 3481 531 
L 3481 0 
L 794 0 
L 794 531 
z
" transform="scale(0.015625)"/>
        <path id="DejaVuSans-30" d="M 2034 4250 
Q 1547 4250 1301 3770 
Q 1056 3291 1056 2328 
Q 1056 1369 1301 889 
Q 1547 409 2034 409 
Q 2525 409 2770 889 
Q 3016 1369 3016 2328 
Q 3016 3291 2770 3770 
Q 2525 4250 2034 4250 
z
M 2034 4750 
Q 2819 4750 3233 4129 
Q 3647 3509 3647 2328 
Q 3647 1150 3233 529 
Q 2819 -91 2034 -91 
Q 1250 -91 836 529 
Q 422 1150 422 2328 
Q 422 3509 836 4129 
Q 1250 4750 2034 4750 
z
" transform="scale(0.015625)"/>
       </defs>
       <use xlink:href="#DejaVuSans-2212"/>
       <use xlink:href="#DejaVuSans-31" x="83.789062"/>
       <use xlink:href="#DejaVuSans-30" x="147.412109"/>
      </g>
     </g>
    </g>
    <g id="xtick_2">
     <g id="line2d_3">
      <path d="M 142.0038 373.12 
L 142.0038 16.2 
" clip-path="url(#p675c15b45f)" style="fill: none; stroke: #b0b0b0; stroke-width: 0.8; stroke-linecap: square"/>
     </g>
     <g id="line2d_4">
      <g>
       <use xlink:href="#maeefa25451" x="142.0038" y="373.12" style="stroke: #000000; stroke-width: 0.8"/>
      </g>
     </g>
     <g id="text_2">
      <!-- −7 -->
      <g transform="translate(130.947159 391.517656) scale(0.15 -0.15)">
       <defs>
        <path id="DejaVuSans-37" d="M 525 4666 
L 3525 4666 
L 3525 4397 
L 1831 0 
L 1172 0 
L 2766 4134 
L 525 4134 
L 525 4666 
z
" transform="scale(0.015625)"/>
       </defs>
       <use xlink:href="#DejaVuSans-2212"/>
       <use xlink:href="#DejaVuSans-37" x="83.789062"/>
      </g>
     </g>
    </g>
    <g id="xtick_3">
     <g id="line2d_5">
      <path d="M 203.3656 373.12 
L 203.3656 16.2 
" clip-path="url(#p675c15b45f)" style="fill: none; stroke: #b0b0b0; stroke-width: 0.8; stroke-linecap: square"/>
     </g>
     <g id="line2d_6">
      <g>
       <use xlink:href="#maeefa25451" x="203.3656" y="373.12" style="stroke: #000000; stroke-width: 0.8"/>
      </g>
     </g>
     <g id="text_3">
      <!-- −4 -->
      <g transform="translate(192.308959 391.517656) scale(0.15 -0.15)">
       <defs>
        <path id="DejaVuSans-34" d="M 2419 4116 
L 825 1625 
L 2419 1625 
L 2419 4116 
z
M 2253 4666 
L 3047 4666 
L 3047 1625 
L 3713 1625 
L 3713 1100 
L 3047 1100 
L 3047 0 
L 2419 0 
L 2419 1100 
L 313 1100 
L 313 1709 
L 2253 4666 
z
" transform="scale(0.015625)"/>
       </defs>
       <use xlink:href="#DejaVuSans-2212"/>
       <use xlink:href="#DejaVuSans-34" x="83.789062"/>
      </g>
     </g>
    </g>
    <g id="xtick_4">
     <g id="line2d_7">
      <path d="M 264.7274 373.12 
L 264.7274 16.2 
" clip-path="url(#p675c15b45f)" style="fill: none; stroke: #b0b0b0; stroke-width: 0.8; stroke-linecap: square"/>
     </g>
     <g id="line2d_8">
      <g>
       <use xlink:href="#maeefa25451" x="264.7274" y="373.12" style="stroke: #000000; stroke-width: 0.8"/>
      </g>
     </g>
     <g id="text_4">
      <!-- −1 -->
      <g transform="translate(253.670759 391.517656) scale(0.15 -0.15)">
       <use xlink:href="#DejaVuSans-2212"/>
       <use xlink:href="#DejaVuSans-31" x="83.789062"/>
      </g>
     </g>
    </g>
    <g id="xtick_5">
     <g id="line2d_9">
      <path d="M 326.0892 373.12 
L 326.0892 16.2 
" clip-path="url(#p675c15b45f)" style="fill: none; stroke: #b0b0b0; stroke-width: 0.8; stroke-linecap: square"/>
     </g>
     <g id="line2d_10">
      <g>
       <use xlink:href="#maeefa25451" x="326.0892" y="373.12" style="stroke: #000000; stroke-width: 0.8"/>
      </g>
     </g>
     <g id="text_5">
      <!-- 2 -->
      <g transform="translate(321.317325 391.517656) scale(0.15 -0.15)">
       <defs>
        <path id="DejaVuSans-32" d="M 1228 531 
L 3431 531 
L 3431 0 
L 469 0 
L 469 531 
Q 828 903 1448 1529 
Q 2069 2156 2228 2338 
Q 2531 2678 2651 2914 
Q 2772 3150 2772 3378 
Q 2772 3750 2511 3984 
Q 2250 4219 1831 4219 
Q 1534 4219 1204 4116 
Q 875 4013 500 3803 
L 500 4441 
Q 881 4594 1212 4672 
Q 1544 4750 1819 4750 
Q 2544 4750 2975 4387 
Q 3406 4025 3406 3419 
Q 3406 3131 3298 2873 
Q 3191 2616 2906 2266 
Q 2828 2175 2409 1742 
Q 1991 1309 1228 531 
z
" transform="scale(0.015625)"/>
       </defs>
       <use xlink:href="#DejaVuSans-32"/>
      </g>
     </g>
    </g>
    <g id="xtick_6">
     <g id="line2d_11">
      <path d="M 387.451 373.12 
L 387.451 16.2 
" clip-path="url(#p675c15b45f)" style="fill: none; stroke: #b0b0b0; stroke-width: 0.8; stroke-linecap: square"/>
     </g>
     <g id="line2d_12">
      <g>
       <use xlink:href="#maeefa25451" x="387.451" y="373.12" style="stroke: #000000; stroke-width: 0.8"/>
      </g>
     </g>
     <g id="text_6">
      <!-- 5 -->
      <g transform="translate(382.679125 391.517656) scale(0.15 -0.15)">
       <defs>
        <path id="DejaVuSans-35" d="M 691 4666 
L 3169 4666 
L 3169 4134 
L 1269 4134 
L 1269 2991 
Q 1406 3038 1543 3061 
Q 1681 3084 1819 3084 
Q 2600 3084 3056 2656 
Q 3513 2228 3513 1497 
Q 3513 744 3044 326 
Q 2575 -91 1722 -91 
Q 1428 -91 1123 -41 
Q 819 9 494 109 
L 494 744 
Q 775 591 1075 516 
Q 1375 441 1709 441 
Q 2250 441 2565 725 
Q 2881 1009 2881 1497 
Q 2881 1984 2565 2268 
Q 2250 2553 1709 2553 
Q 1456 2553 1204 2497 
Q 953 2441 691 2322 
L 691 4666 
z
" transform="scale(0.015625)"/>
       </defs>
       <use xlink:href="#DejaVuSans-35"/>
      </g>
     </g>
    </g>
    <g id="xtick_7">
     <g id="line2d_13">
      <path d="M 448.8128 373.12 
L 448.8128 16.2 
" clip-path="url(#p675c15b45f)" style="fill: none; stroke: #b0b0b0; stroke-width: 0.8; stroke-linecap: square"/>
     </g>
     <g id="line2d_14">
      <g>
       <use xlink:href="#maeefa25451" x="448.8128" y="373.12" style="stroke: #000000; stroke-width: 0.8"/>
      </g>
     </g>
     <g id="text_7">
      <!-- 8 -->
      <g transform="translate(444.040925 391.517656) scale(0.15 -0.15)">
       <defs>
        <path id="DejaVuSans-38" d="M 2034 2216 
Q 1584 2216 1326 1975 
Q 1069 1734 1069 1313 
Q 1069 891 1326 650 
Q 1584 409 2034 409 
Q 2484 409 2743 651 
Q 3003 894 3003 1313 
Q 3003 1734 2745 1975 
Q 2488 2216 2034 2216 
z
M 1403 2484 
Q 997 2584 770 2862 
Q 544 3141 544 3541 
Q 544 4100 942 4425 
Q 1341 4750 2034 4750 
Q 2731 4750 3128 4425 
Q 3525 4100 3525 3541 
Q 3525 3141 3298 2862 
Q 3072 2584 2669 2484 
Q 3125 2378 3379 2068 
Q 3634 1759 3634 1313 
Q 3634 634 3220 271 
Q 2806 -91 2034 -91 
Q 1263 -91 848 271 
Q 434 634 434 1313 
Q 434 1759 690 2068 
Q 947 2378 1403 2484 
z
M 1172 3481 
Q 1172 3119 1398 2916 
Q 1625 2713 2034 2713 
Q 2441 2713 2670 2916 
Q 2900 3119 2900 3481 
Q 2900 3844 2670 4047 
Q 2441 4250 2034 4250 
Q 1625 4250 1398 4047 
Q 1172 3844 1172 3481 
z
" transform="scale(0.015625)"/>
       </defs>
       <use xlink:href="#DejaVuSans-38"/>
      </g>
     </g>
    </g>
    <g id="xtick_8">
     <g id="line2d_15">
      <path d="M 510.1746 373.12 
L 510.1746 16.2 
" clip-path="url(#p675c15b45f)" style="fill: none; stroke: #b0b0b0; stroke-width: 0.8; stroke-linecap: square"/>
     </g>
     <g id="line2d_16">
      <g>
       <use xlink:href="#maeefa25451" x="510.1746" y="373.12" style="stroke: #000000; stroke-width: 0.8"/>
      </g>
     </g>
     <g id="text_8">
      <!-- 11 -->
      <g transform="translate(500.63085 391.517656) scale(0.15 -0.15)">
       <use xlink:href="#DejaVuSans-31"/>
       <use xlink:href="#DejaVuSans-31" x="63.623047"/>
      </g>
     </g>
    </g>
    <g id="xtick_9">
     <g id="line2d_17">
      <path d="M 571.5364 373.12 
L 571.5364 16.2 
" clip-path="url(#p675c15b45f)" style="fill: none; stroke: #b0b0b0; stroke-width: 0.8; stroke-linecap: square"/>
     </g>
     <g id="line2d_18">
      <g>
       <use xlink:href="#maeefa25451" x="571.5364" y="373.12" style="stroke: #000000; stroke-width: 0.8"/>
      </g>
     </g>
     <g id="text_9">
      <!-- 14 -->
      <g transform="translate(561.99265 391.517656) scale(0.15 -0.15)">
       <use xlink:href="#DejaVuSans-31"/>
       <use xlink:href="#DejaVuSans-34" x="63.623047"/>
      </g>
     </g>
    </g>
    <g id="xtick_10">
     <g id="line2d_19">
      <path d="M 632.8982 373.12 
L 632.8982 16.2 
" clip-path="url(#p675c15b45f)" style="fill: none; stroke: #b0b0b0; stroke-width: 0.8; stroke-linecap: square"/>
     </g>
     <g id="line2d_20">
      <g>
       <use xlink:href="#maeefa25451" x="632.8982" y="373.12" style="stroke: #000000; stroke-width: 0.8"/>
      </g>
     </g>
     <g id="text_10">
      <!-- 17 -->
      <g transform="translate(623.35445 391.517656) scale(0.15 -0.15)">
       <use xlink:href="#DejaVuSans-31"/>
       <use xlink:href="#DejaVuSans-37" x="63.623047"/>
      </g>
     </g>
    </g>
    <g id="xtick_11">
     <g id="line2d_21">
      <path d="M 694.26 373.12 
L 694.26 16.2 
" clip-path="url(#p675c15b45f)" style="fill: none; stroke: #b0b0b0; stroke-width: 0.8; stroke-linecap: square"/>
     </g>
     <g id="line2d_22">
      <g>
       <use xlink:href="#maeefa25451" x="694.26" y="373.12" style="stroke: #000000; stroke-width: 0.8"/>
      </g>
     </g>
     <g id="text_11">
      <!-- 20 -->
      <g transform="translate(684.71625 391.517656) scale(0.15 -0.15)">
       <use xlink:href="#DejaVuSans-32"/>
       <use xlink:href="#DejaVuSans-30" x="63.623047"/>
      </g>
     </g>
    </g>
    <g id="text_12">
     <!-- $\alpha$ [deg] -->
     <g transform="translate(360.076 410.037188) scale(0.15 -0.15)">
      <defs>
       <path id="DejaVuSans-Oblique-3b1" d="M 2619 1628 
L 2622 2350 
Q 2625 3088 2069 3091 
Q 1653 3094 1394 2747 
Q 1069 2319 959 1747 
Q 825 1059 994 731 
Q 1169 397 1547 397 
Q 1966 397 2319 1063 
L 2619 1628 
z
M 2166 3578 
Q 3141 3594 3128 2584 
Q 3128 2584 3616 3500 
L 4128 3500 
L 3119 1603 
L 3109 919 
Q 3109 766 3194 638 
Q 3291 488 3391 488 
L 3669 488 
L 3575 0 
L 3228 0 
Q 2934 0 2722 263 
Q 2622 394 2619 669 
Q 2416 334 2066 50 
Q 1900 -81 1453 -78 
Q 722 -72 456 397 
Q 184 884 353 1747 
Q 534 2675 1009 3097 
Q 1544 3569 2166 3578 
z
" transform="scale(0.015625)"/>
       <path id="DejaVuSans-20" transform="scale(0.015625)"/>
       <path id="DejaVuSans-5b" d="M 550 4863 
L 1875 4863 
L 1875 4416 
L 1125 4416 
L 1125 -397 
L 1875 -397 
L 1875 -844 
L 550 -844 
L 550 4863 
z
" transform="scale(0.015625)"/>
       <path id="DejaVuSans-64" d="M 2906 2969 
L 2906 4863 
L 3481 4863 
L 3481 0 
L 2906 0 
L 2906 525 
Q 2725 213 2448 61 
Q 2172 -91 1784 -91 
Q 1150 -91 751 415 
Q 353 922 353 1747 
Q 353 2572 751 3078 
Q 1150 3584 1784 3584 
Q 2172 3584 2448 3432 
Q 2725 3281 2906 2969 
z
M 947 1747 
Q 947 1113 1208 752 
Q 1469 391 1925 391 
Q 2381 391 2643 752 
Q 2906 1113 2906 1747 
Q 2906 2381 2643 2742 
Q 2381 3103 1925 3103 
Q 1469 3103 1208 2742 
Q 947 2381 947 1747 
z
" transform="scale(0.015625)"/>
       <path id="DejaVuSans-65" d="M 3597 1894 
L 3597 1613 
L 953 1613 
Q 991 1019 1311 708 
Q 1631 397 2203 397 
Q 2534 397 2845 478 
Q 3156 559 3463 722 
L 3463 178 
Q 3153 47 2828 -22 
Q 2503 -91 2169 -91 
Q 1331 -91 842 396 
Q 353 884 353 1716 
Q 353 2575 817 3079 
Q 1281 3584 2069 3584 
Q 2775 3584 3186 3129 
Q 3597 2675 3597 1894 
z
M 3022 2063 
Q 3016 2534 2758 2815 
Q 2500 3097 2075 3097 
Q 1594 3097 1305 2825 
Q 1016 2553 972 2059 
L 3022 2063 
z
" transform="scale(0.015625)"/>
       <path id="DejaVuSans-67" d="M 2906 1791 
Q 2906 2416 2648 2759 
Q 2391 3103 1925 3103 
Q 1463 3103 1205 2759 
Q 947 2416 947 1791 
Q 947 1169 1205 825 
Q 1463 481 1925 481 
Q 2391 481 2648 825 
Q 2906 1169 2906 1791 
z
M 3481 434 
Q 3481 -459 3084 -895 
Q 2688 -1331 1869 -1331 
Q 1566 -1331 1297 -1286 
Q 1028 -1241 775 -1147 
L 775 -588 
Q 1028 -725 1275 -790 
Q 1522 -856 1778 -856 
Q 2344 -856 2625 -561 
Q 2906 -266 2906 331 
L 2906 616 
Q 2728 306 2450 153 
Q 2172 0 1784 0 
Q 1141 0 747 490 
Q 353 981 353 1791 
Q 353 2603 747 3093 
Q 1141 3584 1784 3584 
Q 2172 3584 2450 3431 
Q 2728 3278 2906 2969 
L 2906 3500 
L 3481 3500 
L 3481 434 
z
" transform="scale(0.015625)"/>
       <path id="DejaVuSans-5d" d="M 1947 4863 
L 1947 -844 
L 622 -844 
L 622 -397 
L 1369 -397 
L 1369 4416 
L 622 4416 
L 622 4863 
L 1947 4863 
z
" transform="scale(0.015625)"/>
      </defs>
      <use xlink:href="#DejaVuSans-Oblique-3b1" transform="translate(0 0.015625)"/>
      <use xlink:href="#DejaVuSans-20" transform="translate(65.917969 0.015625)"/>
      <use xlink:href="#DejaVuSans-5b" transform="translate(97.705078 0.015625)"/>
      <use xlink:href="#DejaVuSans-64" transform="translate(136.71875 0.015625)"/>
      <use xlink:href="#DejaVuSans-65" transform="translate(200.195312 0.015625)"/>
      <use xlink:href="#DejaVuSans-67" transform="translate(261.71875 0.015625)"/>
      <use xlink:href="#DejaVuSans-5d" transform="translate(325.195312 0.015625)"/>
     </g>
    </g>
   </g>
   <g id="matplotlib.axis_2">
    <g id="ytick_1">
     <g id="line2d_23">
      <path d="M 80.642 317.006475 
L 694.26 317.006475 
" clip-path="url(#p675c15b45f)" style="fill: none; stroke: #b0b0b0; stroke-width: 0.8; stroke-linecap: square"/>
     </g>
     <g id="line2d_24">
      <defs>
       <path id="m168cd435e0" d="M 0 0 
L -3.5 0 
" style="stroke: #000000; stroke-width: 0.8"/>
      </defs>
      <g>
       <use xlink:href="#m168cd435e0" x="80.642" y="317.006475" style="stroke: #000000; stroke-width: 0.8"/>
      </g>
     </g>
     <g id="text_13">
      <!-- −1.0 -->
      <g transform="translate(37.217781 322.705303) scale(0.15 -0.15)">
       <defs>
        <path id="DejaVuSans-2e" d="M 684 794 
L 1344 794 
L 1344 0 
L 684 0 
L 684 794 
z
" transform="scale(0.015625)"/>
       </defs>
       <use xlink:href="#DejaVuSans-2212"/>
       <use xlink:href="#DejaVuSans-31" x="83.789062"/>
       <use xlink:href="#DejaVuSans-2e" x="147.412109"/>
       <use xlink:href="#DejaVuSans-30" x="179.199219"/>
      </g>
     </g>
    </g>
    <g id="ytick_2">
     <g id="line2d_25">
      <path d="M 80.642 253.331001 
L 694.26 253.331001 
" clip-path="url(#p675c15b45f)" style="fill: none; stroke: #b0b0b0; stroke-width: 0.8; stroke-linecap: square"/>
     </g>
     <g id="line2d_26">
      <g>
       <use xlink:href="#m168cd435e0" x="80.642" y="253.331001" style="stroke: #000000; stroke-width: 0.8"/>
      </g>
     </g>
     <g id="text_14">
      <!-- −0.5 -->
      <g transform="translate(37.217781 259.029829) scale(0.15 -0.15)">
       <use xlink:href="#DejaVuSans-2212"/>
       <use xlink:href="#DejaVuSans-30" x="83.789062"/>
       <use xlink:href="#DejaVuSans-2e" x="147.412109"/>
       <use xlink:href="#DejaVuSans-35" x="179.199219"/>
      </g>
     </g>
    </g>
    <g id="ytick_3">
     <g id="line2d_27">
      <path d="M 80.642 189.655527 
L 694.26 189.655527 
" clip-path="url(#p675c15b45f)" style="fill: none; stroke: #b0b0b0; stroke-width: 0.8; stroke-linecap: square"/>
     </g>
     <g id="line2d_28">
      <g>
       <use xlink:href="#m168cd435e0" x="80.642" y="189.655527" style="stroke: #000000; stroke-width: 0.8"/>
      </g>
     </g>
     <g id="text_15">
      <!-- 0.0 -->
      <g transform="translate(49.787313 195.354355) scale(0.15 -0.15)">
       <use xlink:href="#DejaVuSans-30"/>
       <use xlink:href="#DejaVuSans-2e" x="63.623047"/>
       <use xlink:href="#DejaVuSans-30" x="95.410156"/>
      </g>
     </g>
    </g>
    <g id="ytick_4">
     <g id="line2d_29">
      <path d="M 80.642 125.980053 
L 694.26 125.980053 
" clip-path="url(#p675c15b45f)" style="fill: none; stroke: #b0b0b0; stroke-width: 0.8; stroke-linecap: square"/>
     </g>
     <g id="line2d_30">
      <g>
       <use xlink:href="#m168cd435e0" x="80.642" y="125.980053" style="stroke: #000000; stroke-width: 0.8"/>
      </g>
     </g>
     <g id="text_16">
      <!-- 0.5 -->
      <g transform="translate(49.787313 131.678881) scale(0.15 -0.15)">
       <use xlink:href="#DejaVuSans-30"/>
       <use xlink:href="#DejaVuSans-2e" x="63.623047"/>
       <use xlink:href="#DejaVuSans-35" x="95.410156"/>
      </g>
     </g>
    </g>
    <g id="ytick_5">
     <g id="line2d_31">
      <path d="M 80.642 62.304579 
L 694.26 62.304579 
" clip-path="url(#p675c15b45f)" style="fill: none; stroke: #b0b0b0; stroke-width: 0.8; stroke-linecap: square"/>
     </g>
     <g id="line2d_32">
      <g>
       <use xlink:href="#m168cd435e0" x="80.642" y="62.304579" style="stroke: #000000; stroke-width: 0.8"/>
      </g>
     </g>
     <g id="text_17">
      <!-- 1.0 -->
      <g transform="translate(49.787313 68.003407) scale(0.15 -0.15)">
       <use xlink:href="#DejaVuSans-31"/>
       <use xlink:href="#DejaVuSans-2e" x="63.623047"/>
       <use xlink:href="#DejaVuSans-30" x="95.410156"/>
      </g>
     </g>
    </g>
    <g id="text_18">
     <!-- $C_L$ [-] (trim) -->
     <g transform="translate(30.09825 237.635) rotate(-90) scale(0.15 -0.15)">
      <defs>
       <path id="DejaVuSans-Oblique-43" d="M 4447 4306 
L 4319 3641 
Q 4019 3944 3683 4091 
Q 3347 4238 2956 4238 
Q 2422 4238 2017 3981 
Q 1613 3725 1319 3200 
Q 1131 2863 1032 2486 
Q 934 2109 934 1728 
Q 934 1091 1264 756 
Q 1594 422 2222 422 
Q 2656 422 3056 561 
Q 3456 700 3834 978 
L 3688 231 
Q 3316 72 2936 -9 
Q 2556 -91 2175 -91 
Q 1278 -91 773 396 
Q 269 884 269 1753 
Q 269 2309 461 2846 
Q 653 3384 1013 3828 
Q 1394 4300 1883 4525 
Q 2372 4750 3022 4750 
Q 3422 4750 3780 4639 
Q 4138 4528 4447 4306 
z
" transform="scale(0.015625)"/>
       <path id="DejaVuSans-Oblique-4c" d="M 1075 4666 
L 1709 4666 
L 909 525 
L 3181 525 
L 3078 0 
L 172 0 
L 1075 4666 
z
" transform="scale(0.015625)"/>
       <path id="DejaVuSans-2d" d="M 313 2009 
L 1997 2009 
L 1997 1497 
L 313 1497 
L 313 2009 
z
" transform="scale(0.015625)"/>
       <path id="DejaVuSans-28" d="M 1984 4856 
Q 1566 4138 1362 3434 
Q 1159 2731 1159 2009 
Q 1159 1288 1364 580 
Q 1569 -128 1984 -844 
L 1484 -844 
Q 1016 -109 783 600 
Q 550 1309 550 2009 
Q 550 2706 781 3412 
Q 1013 4119 1484 4856 
L 1984 4856 
z
" transform="scale(0.015625)"/>
       <path id="DejaVuSans-74" d="M 1172 4494 
L 1172 3500 
L 2356 3500 
L 2356 3053 
L 1172 3053 
L 1172 1153 
Q 1172 725 1289 603 
Q 1406 481 1766 481 
L 2356 481 
L 2356 0 
L 1766 0 
Q 1100 0 847 248 
Q 594 497 594 1153 
L 594 3053 
L 172 3053 
L 172 3500 
L 594 3500 
L 594 4494 
L 1172 4494 
z
" transform="scale(0.015625)"/>
       <path id="DejaVuSans-72" d="M 2631 2963 
Q 2534 3019 2420 3045 
Q 2306 3072 2169 3072 
Q 1681 3072 1420 2755 
Q 1159 2438 1159 1844 
L 1159 0 
L 581 0 
L 581 3500 
L 1159 3500 
L 1159 2956 
Q 1341 3275 1631 3429 
Q 1922 3584 2338 3584 
Q 2397 3584 2469 3576 
Q 2541 3569 2628 3553 
L 2631 2963 
z
" transform="scale(0.015625)"/>
       <path id="DejaVuSans-69" d="M 603 3500 
L 1178 3500 
L 1178 0 
L 603 0 
L 603 3500 
z
M 603 4863 
L 1178 4863 
L 1178 4134 
L 603 4134 
L 603 4863 
z
" transform="scale(0.015625)"/>
       <path id="DejaVuSans-6d" d="M 3328 2828 
Q 3544 3216 3844 3400 
Q 4144 3584 4550 3584 
Q 5097 3584 5394 3201 
Q 5691 2819 5691 2113 
L 5691 0 
L 5113 0 
L 5113 2094 
Q 5113 2597 4934 2840 
Q 4756 3084 4391 3084 
Q 3944 3084 3684 2787 
Q 3425 2491 3425 1978 
L 3425 0 
L 2847 0 
L 2847 2094 
Q 2847 2600 2669 2842 
Q 2491 3084 2119 3084 
Q 1678 3084 1418 2786 
Q 1159 2488 1159 1978 
L 1159 0 
L 581 0 
L 581 3500 
L 1159 3500 
L 1159 2956 
Q 1356 3278 1631 3431 
Q 1906 3584 2284 3584 
Q 2666 3584 2933 3390 
Q 3200 3197 3328 2828 
z
" transform="scale(0.015625)"/>
       <path id="DejaVuSans-29" d="M 513 4856 
L 1013 4856 
Q 1481 4119 1714 3412 
Q 1947 2706 1947 2009 
Q 1947 1309 1714 600 
Q 1481 -109 1013 -844 
L 513 -844 
Q 928 -128 1133 580 
Q 1338 1288 1338 2009 
Q 1338 2731 1133 3434 
Q 928 4138 513 4856 
z
" transform="scale(0.015625)"/>
      </defs>
      <use xlink:href="#DejaVuSans-Oblique-43" transform="translate(0 0.015625)"/>
      <use xlink:href="#DejaVuSans-Oblique-4c" transform="translate(69.824219 -16.390625) scale(0.7)"/>
      <use xlink:href="#DejaVuSans-20" transform="translate(111.557617 0.015625)"/>
      <use xlink:href="#DejaVuSans-5b" transform="translate(143.344727 0.015625)"/>
      <use xlink:href="#DejaVuSans-2d" transform="translate(182.358398 0.015625)"/>
      <use xlink:href="#DejaVuSans-5d" transform="translate(218.442383 0.015625)"/>
      <use xlink:href="#DejaVuSans-20" transform="translate(257.456055 0.015625)"/>
      <use xlink:href="#DejaVuSans-28" transform="translate(289.243164 0.015625)"/>
      <use xlink:href="#DejaVuSans-74" transform="translate(328.256836 0.015625)"/>
      <use xlink:href="#DejaVuSans-72" transform="translate(367.46582 0.015625)"/>
      <use xlink:href="#DejaVuSans-69" transform="translate(408.579102 0.015625)"/>
      <use xlink:href="#DejaVuSans-6d" transform="translate(436.362305 0.015625)"/>
      <use xlink:href="#DejaVuSans-29" transform="translate(533.774414 0.015625)"/>
     </g>
    </g>
   </g>
   <g id="line2d_33">
    <path d="M 80.642 337.018538 
L 86.840162 330.007004 
L 93.038323 323.077112 
L 99.236485 316.22886 
L 105.434646 309.462248 
L 111.632808 302.777278 
L 117.83097 296.173948 
L 124.029131 289.652259 
L 130.227293 283.212211 
L 136.425455 276.853804 
L 142.623616 270.577037 
L 148.821778 264.381911 
L 155.019939 258.268426 
L 161.218101 252.236582 
L 167.416263 246.286378 
L 173.614424 240.417815 
L 179.812586 234.630893 
L 186.010747 228.925612 
L 192.208909 223.301971 
L 198.407071 217.759971 
L 204.605232 212.299612 
L 210.803394 206.920894 
L 217.001556 201.623817 
L 223.199717 196.40838 
L 229.397879 191.274584 
L 235.59604 186.222428 
L 241.794202 181.251914 
L 247.992364 176.36304 
L 254.190525 171.555807 
L 260.388687 166.830215 
L 266.586848 162.186264 
L 272.78501 157.623953 
L 278.983172 153.143283 
L 285.181333 148.744254 
L 291.379495 144.426865 
L 297.577657 140.191118 
L 303.775818 136.037011 
L 309.97398 131.964545 
L 316.172141 127.973719 
L 322.370303 124.064535 
L 328.568465 120.236991 
L 334.766626 116.491088 
L 340.964788 112.826826 
L 347.162949 109.244204 
L 353.361111 105.743223 
L 359.559273 102.323883 
L 365.757434 98.986184 
L 371.955596 95.730125 
L 378.153758 92.555708 
L 384.351919 89.462931 
L 390.550081 86.451794 
L 396.748242 83.522299 
L 402.946404 80.674444 
L 409.144566 77.90823 
L 415.342727 75.223657 
L 421.540889 72.620725 
L 427.739051 70.099433 
L 433.937212 67.659782 
L 440.135374 65.301772 
L 446.333535 63.025402 
L 452.531697 60.830674 
L 458.729859 58.717586 
L 464.92802 56.686139 
L 471.126182 54.736332 
L 477.324343 52.868167 
L 483.522505 51.081642 
L 489.720667 49.376758 
L 495.918828 47.753515 
L 502.11699 46.211912 
L 508.315152 44.75195 
L 514.513313 43.373629 
L 520.711475 42.076949 
L 526.909636 40.86191 
L 533.107798 39.728511 
L 539.30596 38.676753 
L 545.504121 37.706636 
L 551.702283 36.818159 
L 557.900444 36.011323 
L 564.098606 35.286129 
L 570.296768 34.642574 
L 576.494929 34.080661 
L 582.693091 33.600388 
L 588.891253 33.201756 
L 595.089414 32.884765 
L 601.287576 32.649415 
L 607.485737 32.495705 
L 613.683899 32.423636 
L 619.882061 32.433208 
L 626.080222 32.524421 
L 632.278384 32.697274 
L 638.476545 32.951769 
L 644.674707 33.287903 
L 650.872869 33.705679 
L 657.07103 34.205096 
L 663.269192 34.786153 
L 669.467354 35.448851 
L 675.665515 36.19319 
L 681.863677 37.019169 
L 688.061838 37.926789 
L 694.26 38.91605 
" clip-path="url(#p675c15b45f)" style="fill: none; stroke-dasharray: 9.6,2.4,1.5,2.4; stroke-dashoffset: 0; stroke: #00a6b6; stroke-width: 1.5"/>
   </g>
   <g id="line2d_34">
    <path d="M 80.642 337.857993 
L 86.840162 330.802372 
L 93.038323 323.829547 
L 99.236485 316.939516 
L 105.434646 310.132281 
L 111.632808 303.407841 
L 117.83097 296.766197 
L 124.029131 290.207348 
L 130.227293 283.731293 
L 136.425455 277.338035 
L 142.623616 271.027571 
L 148.821778 264.799903 
L 155.019939 258.655029 
L 161.218101 252.592952 
L 167.416263 246.613669 
L 173.614424 240.717182 
L 179.812586 234.90349 
L 186.010747 229.172593 
L 192.208909 223.524491 
L 198.407071 217.959185 
L 204.605232 212.476674 
L 210.803394 207.076958 
L 217.001556 201.760037 
L 223.199717 196.525912 
L 229.397879 191.374582 
L 235.59604 186.306047 
L 241.794202 181.320307 
L 247.992364 176.417363 
L 254.190525 171.597214 
L 260.388687 166.85986 
L 266.586848 162.205301 
L 272.78501 157.633538 
L 278.983172 153.14457 
L 285.181333 148.738397 
L 291.379495 144.415019 
L 297.577657 140.174437 
L 303.775818 136.01665 
L 309.97398 131.941658 
L 316.172141 127.949461 
L 322.370303 124.04006 
L 328.568465 120.213454 
L 334.766626 116.469643 
L 340.964788 112.808627 
L 347.162949 109.230407 
L 353.361111 105.734982 
L 359.559273 102.322352 
L 365.757434 98.992517 
L 371.955596 95.745478 
L 378.153758 92.581234 
L 384.351919 89.499785 
L 390.550081 86.501131 
L 396.748242 83.585273 
L 402.946404 80.752209 
L 409.144566 78.001942 
L 415.342727 75.334469 
L 421.540889 72.749792 
L 427.739051 70.247909 
L 433.937212 67.828823 
L 440.135374 65.492531 
L 446.333535 63.239034 
L 452.531697 61.068333 
L 458.729859 58.980427 
L 464.92802 56.975317 
L 471.126182 55.053001 
L 477.324343 53.213481 
L 483.522505 51.456756 
L 489.720667 49.782827 
L 495.918828 48.191692 
L 502.11699 46.683353 
L 508.315152 45.257809 
L 514.513313 43.915061 
L 520.711475 42.655107 
L 526.909636 41.477949 
L 533.107798 40.383586 
L 539.30596 39.372018 
L 545.504121 38.443246 
L 551.702283 37.597269 
L 557.900444 36.834087 
L 564.098606 36.1537 
L 570.296768 35.556109 
L 576.494929 35.041313 
L 582.693091 34.609312 
L 588.891253 34.260106 
L 595.089414 33.993696 
L 601.287576 33.810081 
L 607.485737 33.709261 
L 613.683899 33.691236 
L 619.882061 33.756007 
L 626.080222 33.903572 
L 632.278384 34.133934 
L 638.476545 34.44709 
L 644.674707 34.843041 
L 650.872869 35.321788 
L 657.07103 35.88333 
L 663.269192 36.527668 
L 669.467354 37.2548 
L 675.665515 38.064728 
L 681.863677 38.957451 
L 688.061838 39.93297 
L 694.26 40.991283 
" clip-path="url(#p675c15b45f)" style="fill: none; stroke-dasharray: 9.6,2.4,1.5,2.4; stroke-dashoffset: 0; stroke: #a50034; stroke-width: 1.5"/>
   </g>
   <g id="line2d_35">
    <path d="M 80.642 337.648533 
L 86.840162 330.584259 
L 93.038323 323.603856 
L 99.236485 316.707323 
L 105.434646 309.894662 
L 111.632808 303.165871 
L 117.83097 296.520951 
L 124.029131 289.959902 
L 130.227293 283.482724 
L 136.425455 277.089417 
L 142.623616 270.779981 
L 148.821778 264.554415 
L 155.019939 258.412721 
L 161.218101 252.354897 
L 167.416263 246.380944 
L 173.614424 240.490862 
L 179.812586 234.684651 
L 186.010747 228.962311 
L 192.208909 223.323842 
L 198.407071 217.769243 
L 204.605232 212.298516 
L 210.803394 206.911659 
L 217.001556 201.608673 
L 223.199717 196.389559 
L 229.397879 191.254315 
L 235.59604 186.202941 
L 241.794202 181.235439 
L 247.992364 176.351808 
L 254.190525 171.552047 
L 260.388687 166.836158 
L 266.586848 162.204139 
L 272.78501 157.655991 
L 278.983172 153.191714 
L 285.181333 148.811308 
L 291.379495 144.514773 
L 297.577657 140.302109 
L 303.775818 136.173315 
L 309.97398 132.128393 
L 316.172141 128.167341 
L 322.370303 124.29016 
L 328.568465 120.49685 
L 334.766626 116.787411 
L 340.964788 113.161843 
L 347.162949 109.620146 
L 353.361111 106.16232 
L 359.559273 102.788364 
L 365.757434 99.498279 
L 371.955596 96.292066 
L 378.153758 93.169723 
L 384.351919 90.131251 
L 390.550081 87.17665 
L 396.748242 84.305919 
L 402.946404 81.51906 
L 409.144566 78.816072 
L 415.342727 76.196954 
L 421.540889 73.661707 
L 427.739051 71.210331 
L 433.937212 68.842826 
L 440.135374 66.559192 
L 446.333535 64.359429 
L 452.531697 62.243537 
L 458.729859 60.211515 
L 464.92802 58.263365 
L 471.126182 56.399085 
L 477.324343 54.618676 
L 483.522505 52.922139 
L 489.720667 51.309472 
L 495.918828 49.780675 
L 502.11699 48.33575 
L 508.315152 46.974696 
L 514.513313 45.697512 
L 520.711475 44.5042 
L 526.909636 43.394758 
L 533.107798 42.369187 
L 539.30596 41.427487 
L 545.504121 40.569658 
L 551.702283 39.7957 
L 557.900444 39.105612 
L 564.098606 38.499396 
L 570.296768 37.97705 
L 576.494929 37.538575 
L 582.693091 37.183972 
L 588.891253 36.913239 
L 595.089414 36.726377 
L 601.287576 36.623385 
L 607.485737 36.604265 
L 613.683899 36.669016 
L 619.882061 36.817637 
L 626.080222 37.050129 
L 632.278384 37.366493 
L 638.476545 37.766727 
L 644.674707 38.250832 
L 650.872869 38.818808 
L 657.07103 39.470654 
L 663.269192 40.206372 
L 669.467354 41.02596 
L 675.665515 41.92942 
L 681.863677 42.91675 
L 688.061838 43.987951 
L 694.26 45.143023 
" clip-path="url(#p675c15b45f)" style="fill: none; stroke-dasharray: 9.6,2.4,1.5,2.4; stroke-dashoffset: 0; stroke: #ef60a3; stroke-width: 1.5"/>
   </g>
   <g id="line2d_36">
    <path d="M 80.642 336.525996 
L 86.840162 329.436173 
L 93.038323 322.431135 
L 99.236485 315.510883 
L 105.434646 308.675414 
L 111.632808 301.924731 
L 117.83097 295.258833 
L 124.029131 288.677719 
L 130.227293 282.181391 
L 136.425455 275.769847 
L 142.623616 269.443088 
L 148.821778 263.201114 
L 155.019939 257.043924 
L 161.218101 250.97152 
L 167.416263 244.9839 
L 173.614424 239.081066 
L 179.812586 233.263016 
L 186.010747 227.529751 
L 192.208909 221.881271 
L 198.407071 216.317575 
L 204.605232 210.838665 
L 210.803394 205.44454 
L 217.001556 200.135199 
L 223.199717 194.910643 
L 229.397879 189.770872 
L 235.59604 184.715886 
L 241.794202 179.745685 
L 247.992364 174.860268 
L 254.190525 170.059637 
L 260.388687 165.34379 
L 266.586848 160.712728 
L 272.78501 156.166451 
L 278.983172 151.704959 
L 285.181333 147.328252 
L 291.379495 143.036329 
L 297.577657 138.829192 
L 303.775818 134.706839 
L 309.97398 130.669271 
L 316.172141 126.716488 
L 322.370303 122.84849 
L 328.568465 119.065277 
L 334.766626 115.366848 
L 340.964788 111.753205 
L 347.162949 108.224346 
L 353.361111 104.780272 
L 359.559273 101.420983 
L 365.757434 98.146479 
L 371.955596 94.95676 
L 378.153758 91.851825 
L 384.351919 88.831676 
L 390.550081 85.896311 
L 396.748242 83.045731 
L 402.946404 80.279936 
L 409.144566 77.598926 
L 415.342727 75.0027 
L 421.540889 72.49126 
L 427.739051 70.064604 
L 433.937212 67.722734 
L 440.135374 65.465648 
L 446.333535 63.293347 
L 452.531697 61.205831 
L 458.729859 59.203099 
L 464.92802 57.285153 
L 471.126182 55.451991 
L 477.324343 53.703614 
L 483.522505 52.040023 
L 489.720667 50.461216 
L 495.918828 48.967193 
L 502.11699 47.557956 
L 508.315152 46.233504 
L 514.513313 44.993836 
L 520.711475 43.838953 
L 526.909636 42.768855 
L 533.107798 41.783542 
L 539.30596 40.883014 
L 545.504121 40.067271 
L 551.702283 39.336312 
L 557.900444 38.690139 
L 564.098606 38.12875 
L 570.296768 37.652146 
L 576.494929 37.260327 
L 582.693091 36.953293 
L 588.891253 36.731043 
L 595.089414 36.593579 
L 601.287576 36.540899 
L 607.485737 36.573005 
L 613.683899 36.689895 
L 619.882061 36.89157 
L 626.080222 37.178029 
L 632.278384 37.549274 
L 638.476545 38.005304 
L 644.674707 38.546118 
L 650.872869 39.171717 
L 657.07103 39.882101 
L 663.269192 40.67727 
L 669.467354 41.557224 
L 675.665515 42.521963 
L 681.863677 43.571486 
L 688.061838 44.705794 
L 694.26 45.924888 
" clip-path="url(#p675c15b45f)" style="fill: none; stroke-dasharray: 9.6,2.4,1.5,2.4; stroke-dashoffset: 0; stroke: #6cc24a; stroke-width: 1.5"/>
   </g>
   <g id="line2d_37">
    <path d="M 80.642 356.896364 
L 86.840162 349.41643 
L 93.038323 342.025191 
L 99.236485 334.722648 
L 105.434646 327.5088 
L 111.632808 320.383648 
L 117.83097 313.347191 
L 124.029131 306.399429 
L 130.227293 299.540362 
L 136.425455 292.769991 
L 142.623616 286.088315 
L 148.821778 279.495334 
L 155.019939 272.991048 
L 161.218101 266.575458 
L 167.416263 260.248563 
L 173.614424 254.010364 
L 179.812586 247.86086 
L 186.010747 241.800051 
L 192.208909 235.827937 
L 198.407071 229.944519 
L 204.605232 224.149796 
L 210.803394 218.443768 
L 217.001556 212.826435 
L 223.199717 207.297798 
L 229.397879 201.857856 
L 235.59604 196.50661 
L 241.794202 191.244059 
L 247.992364 186.070203 
L 254.190525 180.985042 
L 260.388687 175.988577 
L 266.586848 171.080807 
L 272.78501 166.261732 
L 278.983172 161.531352 
L 285.181333 156.889668 
L 291.379495 152.336679 
L 297.577657 147.872386 
L 303.775818 143.496788 
L 309.97398 139.209885 
L 316.172141 135.011677 
L 322.370303 130.902165 
L 328.568465 126.881348 
L 334.766626 122.949226 
L 340.964788 119.105799 
L 347.162949 115.351068 
L 353.361111 111.685032 
L 359.559273 108.107692 
L 365.757434 104.619047 
L 371.955596 101.219097 
L 378.153758 97.907842 
L 384.351919 94.685283 
L 390.550081 91.551419 
L 396.748242 88.50625 
L 402.946404 85.549776 
L 409.144566 82.681998 
L 415.342727 79.902915 
L 421.540889 77.212528 
L 427.739051 74.610836 
L 433.937212 72.097839 
L 440.135374 69.673537 
L 446.333535 67.337931 
L 452.531697 65.09102 
L 458.729859 62.932804 
L 464.92802 60.863283 
L 471.126182 58.882458 
L 477.324343 56.990328 
L 483.522505 55.186894 
L 489.720667 53.472155 
L 495.918828 51.846111 
L 502.11699 50.308762 
L 508.315152 48.860109 
L 514.513313 47.500151 
L 520.711475 46.228888 
L 526.909636 45.04632 
L 533.107798 43.952448 
L 539.30596 42.947271 
L 545.504121 42.03079 
L 551.702283 41.203004 
L 557.900444 40.463913 
L 564.098606 39.813517 
L 570.296768 39.251817 
L 576.494929 38.778812 
L 582.693091 38.394502 
L 588.891253 38.098887 
L 595.089414 37.891968 
L 601.287576 37.773744 
L 607.485737 37.744216 
L 613.683899 37.803383 
L 619.882061 37.951245 
L 626.080222 38.187802 
L 632.278384 38.513055 
L 638.476545 38.927003 
L 644.674707 39.429646 
L 650.872869 40.020984 
L 657.07103 40.701018 
L 663.269192 41.469747 
L 669.467354 42.327172 
L 675.665515 43.273292 
L 681.863677 44.308107 
L 688.061838 45.431617 
L 694.26 46.643823 
" clip-path="url(#p675c15b45f)" style="fill: none; stroke-dasharray: 9.6,2.4,1.5,2.4; stroke-dashoffset: 0; stroke: #ffb81c; stroke-width: 1.5"/>
   </g>
   <g id="patch_3">
    <path d="M 80.642 373.12 
L 80.642 16.2 
" style="fill: none; stroke: #000000; stroke-width: 0.8; stroke-linejoin: miter; stroke-linecap: square"/>
   </g>
   <g id="patch_4">
    <path d="M 694.26 373.12 
L 694.26 16.2 
" style="fill: none; stroke: #000000; stroke-width: 0.8; stroke-linejoin: miter; stroke-linecap: square"/>
   </g>
   <g id="patch_5">
    <path d="M 80.642 373.12 
L 694.26 373.12 
" style="fill: none; stroke: #000000; stroke-width: 0.8; stroke-linejoin: miter; stroke-linecap: square"/>
   </g>
   <g id="patch_6">
    <path d="M 80.642 16.2 
L 694.26 16.2 
" style="fill: none; stroke: #000000; stroke-width: 0.8; stroke-linejoin: miter; stroke-linecap: square"/>
   </g>
   <g id="legend_1">
    <g id="patch_7">
     <path d="M 477.833437 365.62 
L 683.76 365.62 
Q 686.76 365.62 686.76 362.62 
L 686.76 254.034063 
Q 686.76 251.034063 683.76 251.034063 
L 477.833437 251.034063 
Q 474.833437 251.034063 474.833437 254.034063 
L 474.833437 362.62 
Q 474.833437 365.62 477.833437 365.62 
z
" style="fill: #ffffff; opacity: 0.8; stroke: #cccccc; stroke-linejoin: miter"/>
    </g>
    <g id="line2d_38">
     <path d="M 480.833437 263.181719 
L 495.833437 263.181719 
L 510.833437 263.181719 
" style="fill: none; stroke-dasharray: 9.6,2.4,1.5,2.4; stroke-dashoffset: 0; stroke: #00a6b6; stroke-width: 1.5"/>
    </g>
    <g id="text_19">
     <!-- V = 40.0 m/s, J = 1.6 -->
     <g transform="translate(522.833437 268.431719) scale(0.15 -0.15)">
      <defs>
       <path id="DejaVuSans-56" d="M 1831 0 
L 50 4666 
L 709 4666 
L 2188 738 
L 3669 4666 
L 4325 4666 
L 2547 0 
L 1831 0 
z
" transform="scale(0.015625)"/>
       <path id="DejaVuSans-3d" d="M 678 2906 
L 4684 2906 
L 4684 2381 
L 678 2381 
L 678 2906 
z
M 678 1631 
L 4684 1631 
L 4684 1100 
L 678 1100 
L 678 1631 
z
" transform="scale(0.015625)"/>
       <path id="DejaVuSans-2f" d="M 1625 4666 
L 2156 4666 
L 531 -594 
L 0 -594 
L 1625 4666 
z
" transform="scale(0.015625)"/>
       <path id="DejaVuSans-73" d="M 2834 3397 
L 2834 2853 
Q 2591 2978 2328 3040 
Q 2066 3103 1784 3103 
Q 1356 3103 1142 2972 
Q 928 2841 928 2578 
Q 928 2378 1081 2264 
Q 1234 2150 1697 2047 
L 1894 2003 
Q 2506 1872 2764 1633 
Q 3022 1394 3022 966 
Q 3022 478 2636 193 
Q 2250 -91 1575 -91 
Q 1294 -91 989 -36 
Q 684 19 347 128 
L 347 722 
Q 666 556 975 473 
Q 1284 391 1588 391 
Q 1994 391 2212 530 
Q 2431 669 2431 922 
Q 2431 1156 2273 1281 
Q 2116 1406 1581 1522 
L 1381 1569 
Q 847 1681 609 1914 
Q 372 2147 372 2553 
Q 372 3047 722 3315 
Q 1072 3584 1716 3584 
Q 2034 3584 2315 3537 
Q 2597 3491 2834 3397 
z
" transform="scale(0.015625)"/>
       <path id="DejaVuSans-2c" d="M 750 794 
L 1409 794 
L 1409 256 
L 897 -744 
L 494 -744 
L 750 256 
L 750 794 
z
" transform="scale(0.015625)"/>
       <path id="DejaVuSans-4a" d="M 628 4666 
L 1259 4666 
L 1259 325 
Q 1259 -519 939 -900 
Q 619 -1281 -91 -1281 
L -331 -1281 
L -331 -750 
L -134 -750 
Q 284 -750 456 -515 
Q 628 -281 628 325 
L 628 4666 
z
" transform="scale(0.015625)"/>
       <path id="DejaVuSans-36" d="M 2113 2584 
Q 1688 2584 1439 2293 
Q 1191 2003 1191 1497 
Q 1191 994 1439 701 
Q 1688 409 2113 409 
Q 2538 409 2786 701 
Q 3034 994 3034 1497 
Q 3034 2003 2786 2293 
Q 2538 2584 2113 2584 
z
M 3366 4563 
L 3366 3988 
Q 3128 4100 2886 4159 
Q 2644 4219 2406 4219 
Q 1781 4219 1451 3797 
Q 1122 3375 1075 2522 
Q 1259 2794 1537 2939 
Q 1816 3084 2150 3084 
Q 2853 3084 3261 2657 
Q 3669 2231 3669 1497 
Q 3669 778 3244 343 
Q 2819 -91 2113 -91 
Q 1303 -91 875 529 
Q 447 1150 447 2328 
Q 447 3434 972 4092 
Q 1497 4750 2381 4750 
Q 2619 4750 2861 4703 
Q 3103 4656 3366 4563 
z
" transform="scale(0.015625)"/>
      </defs>
      <use xlink:href="#DejaVuSans-56"/>
      <use xlink:href="#DejaVuSans-20" x="68.408203"/>
      <use xlink:href="#DejaVuSans-3d" x="100.195312"/>
      <use xlink:href="#DejaVuSans-20" x="183.984375"/>
      <use xlink:href="#DejaVuSans-34" x="215.771484"/>
      <use xlink:href="#DejaVuSans-30" x="279.394531"/>
      <use xlink:href="#DejaVuSans-2e" x="343.017578"/>
      <use xlink:href="#DejaVuSans-30" x="374.804688"/>
      <use xlink:href="#DejaVuSans-20" x="438.427734"/>
      <use xlink:href="#DejaVuSans-6d" x="470.214844"/>
      <use xlink:href="#DejaVuSans-2f" x="567.626953"/>
      <use xlink:href="#DejaVuSans-73" x="601.318359"/>
      <use xlink:href="#DejaVuSans-2c" x="653.417969"/>
      <use xlink:href="#DejaVuSans-20" x="685.205078"/>
      <use xlink:href="#DejaVuSans-4a" x="716.992188"/>
      <use xlink:href="#DejaVuSans-20" x="746.484375"/>
      <use xlink:href="#DejaVuSans-3d" x="778.271484"/>
      <use xlink:href="#DejaVuSans-20" x="862.060547"/>
      <use xlink:href="#DejaVuSans-31" x="893.847656"/>
      <use xlink:href="#DejaVuSans-2e" x="957.470703"/>
      <use xlink:href="#DejaVuSans-36" x="989.257812"/>
     </g>
    </g>
    <g id="line2d_39">
     <path d="M 480.833437 285.198906 
L 495.833437 285.198906 
L 510.833437 285.198906 
" style="fill: none; stroke-dasharray: 9.6,2.4,1.5,2.4; stroke-dashoffset: 0; stroke: #a50034; stroke-width: 1.5"/>
    </g>
    <g id="text_20">
     <!-- V = 40.0 m/s, J = 1.8 -->
     <g transform="translate(522.833437 290.448906) scale(0.15 -0.15)">
      <use xlink:href="#DejaVuSans-56"/>
      <use xlink:href="#DejaVuSans-20" x="68.408203"/>
      <use xlink:href="#DejaVuSans-3d" x="100.195312"/>
      <use xlink:href="#DejaVuSans-20" x="183.984375"/>
      <use xlink:href="#DejaVuSans-34" x="215.771484"/>
      <use xlink:href="#DejaVuSans-30" x="279.394531"/>
      <use xlink:href="#DejaVuSans-2e" x="343.017578"/>
      <use xlink:href="#DejaVuSans-30" x="374.804688"/>
      <use xlink:href="#DejaVuSans-20" x="438.427734"/>
      <use xlink:href="#DejaVuSans-6d" x="470.214844"/>
      <use xlink:href="#DejaVuSans-2f" x="567.626953"/>
      <use xlink:href="#DejaVuSans-73" x="601.318359"/>
      <use xlink:href="#DejaVuSans-2c" x="653.417969"/>
      <use xlink:href="#DejaVuSans-20" x="685.205078"/>
      <use xlink:href="#DejaVuSans-4a" x="716.992188"/>
      <use xlink:href="#DejaVuSans-20" x="746.484375"/>
      <use xlink:href="#DejaVuSans-3d" x="778.271484"/>
      <use xlink:href="#DejaVuSans-20" x="862.060547"/>
      <use xlink:href="#DejaVuSans-31" x="893.847656"/>
      <use xlink:href="#DejaVuSans-2e" x="957.470703"/>
      <use xlink:href="#DejaVuSans-38" x="989.257812"/>
     </g>
    </g>
    <g id="line2d_40">
     <path d="M 480.833437 307.216094 
L 495.833437 307.216094 
L 510.833437 307.216094 
" style="fill: none; stroke-dasharray: 9.6,2.4,1.5,2.4; stroke-dashoffset: 0; stroke: #ef60a3; stroke-width: 1.5"/>
    </g>
    <g id="text_21">
     <!-- V = 40.0 m/s, J = 3.5 -->
     <g transform="translate(522.833437 312.466094) scale(0.15 -0.15)">
      <defs>
       <path id="DejaVuSans-33" d="M 2597 2516 
Q 3050 2419 3304 2112 
Q 3559 1806 3559 1356 
Q 3559 666 3084 287 
Q 2609 -91 1734 -91 
Q 1441 -91 1130 -33 
Q 819 25 488 141 
L 488 750 
Q 750 597 1062 519 
Q 1375 441 1716 441 
Q 2309 441 2620 675 
Q 2931 909 2931 1356 
Q 2931 1769 2642 2001 
Q 2353 2234 1838 2234 
L 1294 2234 
L 1294 2753 
L 1863 2753 
Q 2328 2753 2575 2939 
Q 2822 3125 2822 3475 
Q 2822 3834 2567 4026 
Q 2313 4219 1838 4219 
Q 1578 4219 1281 4162 
Q 984 4106 628 3988 
L 628 4550 
Q 988 4650 1302 4700 
Q 1616 4750 1894 4750 
Q 2613 4750 3031 4423 
Q 3450 4097 3450 3541 
Q 3450 3153 3228 2886 
Q 3006 2619 2597 2516 
z
" transform="scale(0.015625)"/>
      </defs>
      <use xlink:href="#DejaVuSans-56"/>
      <use xlink:href="#DejaVuSans-20" x="68.408203"/>
      <use xlink:href="#DejaVuSans-3d" x="100.195312"/>
      <use xlink:href="#DejaVuSans-20" x="183.984375"/>
      <use xlink:href="#DejaVuSans-34" x="215.771484"/>
      <use xlink:href="#DejaVuSans-30" x="279.394531"/>
      <use xlink:href="#DejaVuSans-2e" x="343.017578"/>
      <use xlink:href="#DejaVuSans-30" x="374.804688"/>
      <use xlink:href="#DejaVuSans-20" x="438.427734"/>
      <use xlink:href="#DejaVuSans-6d" x="470.214844"/>
      <use xlink:href="#DejaVuSans-2f" x="567.626953"/>
      <use xlink:href="#DejaVuSans-73" x="601.318359"/>
      <use xlink:href="#DejaVuSans-2c" x="653.417969"/>
      <use xlink:href="#DejaVuSans-20" x="685.205078"/>
      <use xlink:href="#DejaVuSans-4a" x="716.992188"/>
      <use xlink:href="#DejaVuSans-20" x="746.484375"/>
      <use xlink:href="#DejaVuSans-3d" x="778.271484"/>
      <use xlink:href="#DejaVuSans-20" x="862.060547"/>
      <use xlink:href="#DejaVuSans-33" x="893.847656"/>
      <use xlink:href="#DejaVuSans-2e" x="957.470703"/>
      <use xlink:href="#DejaVuSans-35" x="989.257812"/>
     </g>
    </g>
    <g id="line2d_41">
     <path d="M 480.833437 329.233281 
L 495.833437 329.233281 
L 510.833437 329.233281 
" style="fill: none; stroke-dasharray: 9.6,2.4,1.5,2.4; stroke-dashoffset: 0; stroke: #6cc24a; stroke-width: 1.5"/>
    </g>
    <g id="text_22">
     <!-- V = 20.0 m/s, J = 1.6 -->
     <g transform="translate(522.833437 334.483281) scale(0.15 -0.15)">
      <use xlink:href="#DejaVuSans-56"/>
      <use xlink:href="#DejaVuSans-20" x="68.408203"/>
      <use xlink:href="#DejaVuSans-3d" x="100.195312"/>
      <use xlink:href="#DejaVuSans-20" x="183.984375"/>
      <use xlink:href="#DejaVuSans-32" x="215.771484"/>
      <use xlink:href="#DejaVuSans-30" x="279.394531"/>
      <use xlink:href="#DejaVuSans-2e" x="343.017578"/>
      <use xlink:href="#DejaVuSans-30" x="374.804688"/>
      <use xlink:href="#DejaVuSans-20" x="438.427734"/>
      <use xlink:href="#DejaVuSans-6d" x="470.214844"/>
      <use xlink:href="#DejaVuSans-2f" x="567.626953"/>
      <use xlink:href="#DejaVuSans-73" x="601.318359"/>
      <use xlink:href="#DejaVuSans-2c" x="653.417969"/>
      <use xlink:href="#DejaVuSans-20" x="685.205078"/>
      <use xlink:href="#DejaVuSans-4a" x="716.992188"/>
      <use xlink:href="#DejaVuSans-20" x="746.484375"/>
      <use xlink:href="#DejaVuSans-3d" x="778.271484"/>
      <use xlink:href="#DejaVuSans-20" x="862.060547"/>
      <use xlink:href="#DejaVuSans-31" x="893.847656"/>
      <use xlink:href="#DejaVuSans-2e" x="957.470703"/>
      <use xlink:href="#DejaVuSans-36" x="989.257812"/>
     </g>
    </g>
    <g id="line2d_42">
     <path d="M 480.833437 351.250469 
L 495.833437 351.250469 
L 510.833437 351.250469 
" style="fill: none; stroke-dasharray: 9.6,2.4,1.5,2.4; stroke-dashoffset: 0; stroke: #ffb81c; stroke-width: 1.5"/>
    </g>
    <g id="text_23">
     <!-- V = 10.0 m/s, J = 1.6 -->
     <g transform="translate(522.833437 356.500469) scale(0.15 -0.15)">
      <use xlink:href="#DejaVuSans-56"/>
      <use xlink:href="#DejaVuSans-20" x="68.408203"/>
      <use xlink:href="#DejaVuSans-3d" x="100.195312"/>
      <use xlink:href="#DejaVuSans-20" x="183.984375"/>
      <use xlink:href="#DejaVuSans-31" x="215.771484"/>
      <use xlink:href="#DejaVuSans-30" x="279.394531"/>
      <use xlink:href="#DejaVuSans-2e" x="343.017578"/>
      <use xlink:href="#DejaVuSans-30" x="374.804688"/>
      <use xlink:href="#DejaVuSans-20" x="438.427734"/>
      <use xlink:href="#DejaVuSans-6d" x="470.214844"/>
      <use xlink:href="#DejaVuSans-2f" x="567.626953"/>
      <use xlink:href="#DejaVuSans-73" x="601.318359"/>
      <use xlink:href="#DejaVuSans-2c" x="653.417969"/>
      <use xlink:href="#DejaVuSans-20" x="685.205078"/>
      <use xlink:href="#DejaVuSans-4a" x="716.992188"/>
      <use xlink:href="#DejaVuSans-20" x="746.484375"/>
      <use xlink:href="#DejaVuSans-3d" x="778.271484"/>
      <use xlink:href="#DejaVuSans-20" x="862.060547"/>
      <use xlink:href="#DejaVuSans-31" x="893.847656"/>
      <use xlink:href="#DejaVuSans-2e" x="957.470703"/>
      <use xlink:href="#DejaVuSans-36" x="989.257812"/>
     </g>
    </g>
   </g>
  </g>
 </g>
 <defs>
  <clipPath id="p675c15b45f">
   <rect x="80.642" y="16.2" width="613.618" height="356.92"/>
  </clipPath>
 </defs>
</svg>
