<?xml version="1.0" encoding="utf-8" standalone="no"?>
<!DOCTYPE svg PUBLIC "-//W3C//DTD SVG 1.1//EN"
  "http://www.w3.org/Graphics/SVG/1.1/DTD/svg11.dtd">
<svg xmlns:xlink="http://www.w3.org/1999/xlink" width="576pt" height="432pt" viewBox="0 0 576 432" xmlns="http://www.w3.org/2000/svg" version="1.1">
 <metadata>
  <rdf:RDF xmlns:dc="http://purl.org/dc/elements/1.1/" xmlns:cc="http://creativecommons.org/ns#" xmlns:rdf="http://www.w3.org/1999/02/22-rdf-syntax-ns#">
   <cc:Work>
    <dc:type rdf:resource="http://purl.org/dc/dcmitype/StillImage"/>
    <dc:date>2024-04-03T10:34:08.330329</dc:date>
    <dc:format>image/svg+xml</dc:format>
    <dc:creator>
     <cc:Agent>
      <dc:title>Matplotlib v3.8.3, https://matplotlib.org/</dc:title>
     </cc:Agent>
    </dc:creator>
   </cc:Work>
  </rdf:RDF>
 </metadata>
 <defs>
  <style type="text/css">*{stroke-linejoin: round; stroke-linecap: butt}</style>
 </defs>
 <g id="figure_1">
  <g id="patch_1">
   <path d="M 0 432 
L 576 432 
L 576 0 
L 0 0 
z
" style="fill: #ffffff"/>
  </g>
  <g id="axes_1">
   <g id="patch_2">
    <path d="M 103.376 356.2 
L 532.125 356.2 
L 532.125 21.6 
L 103.376 21.6 
z
" style="fill: #ffffff"/>
   </g>
   <g id="PathCollection_1">
    <defs>
     <path id="me29774087e" d="M 0 3 
C 0.795609 3 1.55874 2.683901 2.12132 2.12132 
C 2.683901 1.55874 3 0.795609 3 0 
C 3 -0.795609 2.683901 -1.55874 2.12132 -2.12132 
C 1.55874 -2.683901 0.795609 -3 0 -3 
C -0.795609 -3 -1.55874 -2.683901 -2.12132 -2.12132 
C -2.683901 -1.55874 -3 -0.795609 -3 0 
C -3 0.795609 -2.683901 1.55874 -2.12132 2.12132 
C -1.55874 2.683901 -0.795609 3 0 3 
z
" style="stroke: #00a6b6"/>
    </defs>
    <g clip-path="url(#p05c118f424)">
     <use xlink:href="#me29774087e" x="123.777773" y="297.121622" style="fill: #00a6b6; stroke: #00a6b6"/>
     <use xlink:href="#me29774087e" x="368.866278" y="84.70856" style="fill: #00a6b6; stroke: #00a6b6"/>
     <use xlink:href="#me29774087e" x="470.964584" y="46.828118" style="fill: #00a6b6; stroke: #00a6b6"/>
     <use xlink:href="#me29774087e" x="511.805009" y="38.307576" style="fill: #00a6b6; stroke: #00a6b6"/>
    </g>
   </g>
   <g id="PathCollection_2">
    <defs>
     <path id="m83c113c675" d="M 0 3 
C 0.795609 3 1.55874 2.683901 2.12132 2.12132 
C 2.683901 1.55874 3 0.795609 3 0 
C 3 -0.795609 2.683901 -1.55874 2.12132 -2.12132 
C 1.55874 -2.683901 0.795609 -3 0 -3 
C -0.795609 -3 -1.55874 -2.683901 -2.12132 -2.12132 
C -2.683901 -1.55874 -3 -0.795609 -3 0 
C -3 0.795609 -2.683901 1.55874 -2.12132 2.12132 
C -1.55874 2.683901 -0.795609 3 0 3 
z
" style="stroke: #a50034"/>
    </defs>
    <g clip-path="url(#p05c118f424)">
     <use xlink:href="#m83c113c675" x="123.777773" y="297.46437" style="fill: #a50034; stroke: #a50034"/>
     <use xlink:href="#m83c113c675" x="368.866278" y="84.881619" style="fill: #a50034; stroke: #a50034"/>
     <use xlink:href="#m83c113c675" x="470.964584" y="47.726226" style="fill: #a50034; stroke: #a50034"/>
     <use xlink:href="#m83c113c675" x="511.805009" y="39.478708" style="fill: #a50034; stroke: #a50034"/>
    </g>
   </g>
   <g id="PathCollection_3">
    <defs>
     <path id="m32740b74db" d="M 0 3 
C 0.795609 3 1.55874 2.683901 2.12132 2.12132 
C 2.683901 1.55874 3 0.795609 3 0 
C 3 -0.795609 2.683901 -1.55874 2.12132 -2.12132 
C 1.55874 -2.683901 0.795609 -3 0 -3 
C -0.795609 -3 -1.55874 -2.683901 -2.12132 -2.12132 
C -2.683901 -1.55874 -3 -0.795609 -3 0 
C -3 0.795609 -2.683901 1.55874 -2.12132 2.12132 
C -1.55874 2.683901 -0.795609 3 0 3 
z
" style="stroke: #ef60a3"/>
    </defs>
    <g clip-path="url(#p05c118f424)">
     <use xlink:href="#m32740b74db" x="123.777773" y="297.204177" style="fill: #ef60a3; stroke: #ef60a3"/>
     <use xlink:href="#m32740b74db" x="368.866278" y="85.95566" style="fill: #ef60a3; stroke: #ef60a3"/>
     <use xlink:href="#m32740b74db" x="470.964584" y="50.770613" style="fill: #ef60a3; stroke: #ef60a3"/>
     <use xlink:href="#m32740b74db" x="511.805009" y="42.364529" style="fill: #ef60a3; stroke: #ef60a3"/>
    </g>
   </g>
   <g id="PathCollection_4">
    <defs>
     <path id="mdf21daeb42" d="M 0 3 
C 0.795609 3 1.55874 2.683901 2.12132 2.12132 
C 2.683901 1.55874 3 0.795609 3 0 
C 3 -0.795609 2.683901 -1.55874 2.12132 -2.12132 
C 1.55874 -2.683901 0.795609 -3 0 -3 
C -0.795609 -3 -1.55874 -2.683901 -2.12132 -2.12132 
C -2.683901 -1.55874 -3 -0.795609 -3 0 
C -3 0.795609 -2.683901 1.55874 -2.12132 2.12132 
C -1.55874 2.683901 -0.795609 3 0 3 
z
" style="stroke: #6cc24a"/>
    </defs>
    <g clip-path="url(#p05c118f424)">
     <use xlink:href="#mdf21daeb42" x="123.780166" y="295.354634" style="fill: #6cc24a; stroke: #6cc24a"/>
     <use xlink:href="#mdf21daeb42" x="368.867491" y="84.251434" style="fill: #6cc24a; stroke: #6cc24a"/>
     <use xlink:href="#mdf21daeb42" x="470.966072" y="50.494047" style="fill: #6cc24a; stroke: #6cc24a"/>
     <use xlink:href="#mdf21daeb42" x="511.804311" y="41.625453" style="fill: #6cc24a; stroke: #6cc24a"/>
    </g>
   </g>
   <g id="PathCollection_5">
    <defs>
     <path id="m87c2a17513" d="M 0 3 
C 0.795609 3 1.55874 2.683901 2.12132 2.12132 
C 2.683901 1.55874 3 0.795609 3 0 
C 3 -0.795609 2.683901 -1.55874 2.12132 -2.12132 
C 1.55874 -2.683901 0.795609 -3 0 -3 
C -0.795609 -3 -1.55874 -2.683901 -2.12132 -2.12132 
C -2.683901 -1.55874 -3 -0.795609 -3 0 
C -3 0.795609 -2.683901 1.55874 -2.12132 2.12132 
C -1.55874 2.683901 -0.795609 3 0 3 
z
" style="stroke: #ffb81c"/>
    </defs>
    <g clip-path="url(#p05c118f424)">
     <use xlink:href="#m87c2a17513" x="123.781345" y="314.55093" style="fill: #ffb81c; stroke: #ffb81c"/>
     <use xlink:href="#m87c2a17513" x="368.86867" y="87.45914" style="fill: #ffb81c; stroke: #ffb81c"/>
     <use xlink:href="#m87c2a17513" x="470.967251" y="60.10897" style="fill: #ffb81c; stroke: #ffb81c"/>
     <use xlink:href="#m87c2a17513" x="511.805491" y="39.401676" style="fill: #ffb81c; stroke: #ffb81c"/>
    </g>
   </g>
   <g id="matplotlib.axis_1">
    <g id="xtick_1">
     <g id="line2d_1">
      <path d="M 103.376 356.2 
L 103.376 21.6 
" clip-path="url(#p05c118f424)" style="fill: none; stroke: #b0b0b0; stroke-width: 0.8; stroke-linecap: square"/>
     </g>
     <g id="line2d_2">
      <defs>
       <path id="m17b430a693" d="M 0 0 
L 0 3.5 
" style="stroke: #000000; stroke-width: 0.8"/>
      </defs>
      <g>
       <use xlink:href="#m17b430a693" x="103.376" y="356.2" style="stroke: #000000; stroke-width: 0.8"/>
      </g>
     </g>
     <g id="text_1">
      <!-- −6.0 -->
      <g transform="translate(79.093188 378.396875) scale(0.2 -0.2)">
       <defs>
        <path id="DejaVuSans-2212" d="M 678 2272 
L 4684 2272 
L 4684 1741 
L 678 1741 
L 678 2272 
z
" transform="scale(0.015625)"/>
        <path id="DejaVuSans-36" d="M 2113 2584 
Q 1688 2584 1439 2293 
Q 1191 2003 1191 1497 
Q 1191 994 1439 701 
Q 1688 409 2113 409 
Q 2538 409 2786 701 
Q 3034 994 3034 1497 
Q 3034 2003 2786 2293 
Q 2538 2584 2113 2584 
z
M 3366 4563 
L 3366 3988 
Q 3128 4100 2886 4159 
Q 2644 4219 2406 4219 
Q 1781 4219 1451 3797 
Q 1122 3375 1075 2522 
Q 1259 2794 1537 2939 
Q 1816 3084 2150 3084 
Q 2853 3084 3261 2657 
Q 3669 2231 3669 1497 
Q 3669 778 3244 343 
Q 2819 -91 2113 -91 
Q 1303 -91 875 529 
Q 447 1150 447 2328 
Q 447 3434 972 4092 
Q 1497 4750 2381 4750 
Q 2619 4750 2861 4703 
Q 3103 4656 3366 4563 
z
" transform="scale(0.015625)"/>
        <path id="DejaVuSans-2e" d="M 684 794 
L 1344 794 
L 1344 0 
L 684 0 
L 684 794 
z
" transform="scale(0.015625)"/>
        <path id="DejaVuSans-30" d="M 2034 4250 
Q 1547 4250 1301 3770 
Q 1056 3291 1056 2328 
Q 1056 1369 1301 889 
Q 1547 409 2034 409 
Q 2525 409 2770 889 
Q 3016 1369 3016 2328 
Q 3016 3291 2770 3770 
Q 2525 4250 2034 4250 
z
M 2034 4750 
Q 2819 4750 3233 4129 
Q 3647 3509 3647 2328 
Q 3647 1150 3233 529 
Q 2819 -91 2034 -91 
Q 1250 -91 836 529 
Q 422 1150 422 2328 
Q 422 3509 836 4129 
Q 1250 4750 2034 4750 
z
" transform="scale(0.015625)"/>
       </defs>
       <use xlink:href="#DejaVuSans-2212"/>
       <use xlink:href="#DejaVuSans-36" x="83.789062"/>
       <use xlink:href="#DejaVuSans-2e" x="147.412109"/>
       <use xlink:href="#DejaVuSans-30" x="179.199219"/>
      </g>
     </g>
    </g>
    <g id="xtick_2">
     <g id="line2d_3">
      <path d="M 174.834167 356.2 
L 174.834167 21.6 
" clip-path="url(#p05c118f424)" style="fill: none; stroke: #b0b0b0; stroke-width: 0.8; stroke-linecap: square"/>
     </g>
     <g id="line2d_4">
      <g>
       <use xlink:href="#m17b430a693" x="174.834167" y="356.2" style="stroke: #000000; stroke-width: 0.8"/>
      </g>
     </g>
     <g id="text_2">
      <!-- −2.5 -->
      <g transform="translate(150.551354 378.396875) scale(0.2 -0.2)">
       <defs>
        <path id="DejaVuSans-32" d="M 1228 531 
L 3431 531 
L 3431 0 
L 469 0 
L 469 531 
Q 828 903 1448 1529 
Q 2069 2156 2228 2338 
Q 2531 2678 2651 2914 
Q 2772 3150 2772 3378 
Q 2772 3750 2511 3984 
Q 2250 4219 1831 4219 
Q 1534 4219 1204 4116 
Q 875 4013 500 3803 
L 500 4441 
Q 881 4594 1212 4672 
Q 1544 4750 1819 4750 
Q 2544 4750 2975 4387 
Q 3406 4025 3406 3419 
Q 3406 3131 3298 2873 
Q 3191 2616 2906 2266 
Q 2828 2175 2409 1742 
Q 1991 1309 1228 531 
z
" transform="scale(0.015625)"/>
        <path id="DejaVuSans-35" d="M 691 4666 
L 3169 4666 
L 3169 4134 
L 1269 4134 
L 1269 2991 
Q 1406 3038 1543 3061 
Q 1681 3084 1819 3084 
Q 2600 3084 3056 2656 
Q 3513 2228 3513 1497 
Q 3513 744 3044 326 
Q 2575 -91 1722 -91 
Q 1428 -91 1123 -41 
Q 819 9 494 109 
L 494 744 
Q 775 591 1075 516 
Q 1375 441 1709 441 
Q 2250 441 2565 725 
Q 2881 1009 2881 1497 
Q 2881 1984 2565 2268 
Q 2250 2553 1709 2553 
Q 1456 2553 1204 2497 
Q 953 2441 691 2322 
L 691 4666 
z
" transform="scale(0.015625)"/>
       </defs>
       <use xlink:href="#DejaVuSans-2212"/>
       <use xlink:href="#DejaVuSans-32" x="83.789062"/>
       <use xlink:href="#DejaVuSans-2e" x="147.412109"/>
       <use xlink:href="#DejaVuSans-35" x="179.199219"/>
      </g>
     </g>
    </g>
    <g id="xtick_3">
     <g id="line2d_5">
      <path d="M 246.292333 356.2 
L 246.292333 21.6 
" clip-path="url(#p05c118f424)" style="fill: none; stroke: #b0b0b0; stroke-width: 0.8; stroke-linecap: square"/>
     </g>
     <g id="line2d_6">
      <g>
       <use xlink:href="#m17b430a693" x="246.292333" y="356.2" style="stroke: #000000; stroke-width: 0.8"/>
      </g>
     </g>
     <g id="text_3">
      <!-- 1.0 -->
      <g transform="translate(230.389208 378.396875) scale(0.2 -0.2)">
       <defs>
        <path id="DejaVuSans-31" d="M 794 531 
L 1825 531 
L 1825 4091 
L 703 3866 
L 703 4441 
L 1819 4666 
L 2450 4666 
L 2450 531 
L 3481 531 
L 3481 0 
L 794 0 
L 794 531 
z
" transform="scale(0.015625)"/>
       </defs>
       <use xlink:href="#DejaVuSans-31"/>
       <use xlink:href="#DejaVuSans-2e" x="63.623047"/>
       <use xlink:href="#DejaVuSans-30" x="95.410156"/>
      </g>
     </g>
    </g>
    <g id="xtick_4">
     <g id="line2d_7">
      <path d="M 317.7505 356.2 
L 317.7505 21.6 
" clip-path="url(#p05c118f424)" style="fill: none; stroke: #b0b0b0; stroke-width: 0.8; stroke-linecap: square"/>
     </g>
     <g id="line2d_8">
      <g>
       <use xlink:href="#m17b430a693" x="317.7505" y="356.2" style="stroke: #000000; stroke-width: 0.8"/>
      </g>
     </g>
     <g id="text_4">
      <!-- 4.5 -->
      <g transform="translate(301.847375 378.396875) scale(0.2 -0.2)">
       <defs>
        <path id="DejaVuSans-34" d="M 2419 4116 
L 825 1625 
L 2419 1625 
L 2419 4116 
z
M 2253 4666 
L 3047 4666 
L 3047 1625 
L 3713 1625 
L 3713 1100 
L 3047 1100 
L 3047 0 
L 2419 0 
L 2419 1100 
L 313 1100 
L 313 1709 
L 2253 4666 
z
" transform="scale(0.015625)"/>
       </defs>
       <use xlink:href="#DejaVuSans-34"/>
       <use xlink:href="#DejaVuSans-2e" x="63.623047"/>
       <use xlink:href="#DejaVuSans-35" x="95.410156"/>
      </g>
     </g>
    </g>
    <g id="xtick_5">
     <g id="line2d_9">
      <path d="M 389.208667 356.2 
L 389.208667 21.6 
" clip-path="url(#p05c118f424)" style="fill: none; stroke: #b0b0b0; stroke-width: 0.8; stroke-linecap: square"/>
     </g>
     <g id="line2d_10">
      <g>
       <use xlink:href="#m17b430a693" x="389.208667" y="356.2" style="stroke: #000000; stroke-width: 0.8"/>
      </g>
     </g>
     <g id="text_5">
      <!-- 8.0 -->
      <g transform="translate(373.305542 378.396875) scale(0.2 -0.2)">
       <defs>
        <path id="DejaVuSans-38" d="M 2034 2216 
Q 1584 2216 1326 1975 
Q 1069 1734 1069 1313 
Q 1069 891 1326 650 
Q 1584 409 2034 409 
Q 2484 409 2743 651 
Q 3003 894 3003 1313 
Q 3003 1734 2745 1975 
Q 2488 2216 2034 2216 
z
M 1403 2484 
Q 997 2584 770 2862 
Q 544 3141 544 3541 
Q 544 4100 942 4425 
Q 1341 4750 2034 4750 
Q 2731 4750 3128 4425 
Q 3525 4100 3525 3541 
Q 3525 3141 3298 2862 
Q 3072 2584 2669 2484 
Q 3125 2378 3379 2068 
Q 3634 1759 3634 1313 
Q 3634 634 3220 271 
Q 2806 -91 2034 -91 
Q 1263 -91 848 271 
Q 434 634 434 1313 
Q 434 1759 690 2068 
Q 947 2378 1403 2484 
z
M 1172 3481 
Q 1172 3119 1398 2916 
Q 1625 2713 2034 2713 
Q 2441 2713 2670 2916 
Q 2900 3119 2900 3481 
Q 2900 3844 2670 4047 
Q 2441 4250 2034 4250 
Q 1625 4250 1398 4047 
Q 1172 3844 1172 3481 
z
" transform="scale(0.015625)"/>
       </defs>
       <use xlink:href="#DejaVuSans-38"/>
       <use xlink:href="#DejaVuSans-2e" x="63.623047"/>
       <use xlink:href="#DejaVuSans-30" x="95.410156"/>
      </g>
     </g>
    </g>
    <g id="xtick_6">
     <g id="line2d_11">
      <path d="M 460.666833 356.2 
L 460.666833 21.6 
" clip-path="url(#p05c118f424)" style="fill: none; stroke: #b0b0b0; stroke-width: 0.8; stroke-linecap: square"/>
     </g>
     <g id="line2d_12">
      <g>
       <use xlink:href="#m17b430a693" x="460.666833" y="356.2" style="stroke: #000000; stroke-width: 0.8"/>
      </g>
     </g>
     <g id="text_6">
      <!-- 11.5 -->
      <g transform="translate(438.401208 378.396875) scale(0.2 -0.2)">
       <use xlink:href="#DejaVuSans-31"/>
       <use xlink:href="#DejaVuSans-31" x="63.623047"/>
       <use xlink:href="#DejaVuSans-2e" x="127.246094"/>
       <use xlink:href="#DejaVuSans-35" x="159.033203"/>
      </g>
     </g>
    </g>
    <g id="xtick_7">
     <g id="line2d_13">
      <path d="M 532.125 356.2 
L 532.125 21.6 
" clip-path="url(#p05c118f424)" style="fill: none; stroke: #b0b0b0; stroke-width: 0.8; stroke-linecap: square"/>
     </g>
     <g id="line2d_14">
      <g>
       <use xlink:href="#m17b430a693" x="532.125" y="356.2" style="stroke: #000000; stroke-width: 0.8"/>
      </g>
     </g>
     <g id="text_7">
      <!-- 15.0 -->
      <g transform="translate(509.859375 378.396875) scale(0.2 -0.2)">
       <use xlink:href="#DejaVuSans-31"/>
       <use xlink:href="#DejaVuSans-35" x="63.623047"/>
       <use xlink:href="#DejaVuSans-2e" x="127.246094"/>
       <use xlink:href="#DejaVuSans-30" x="159.033203"/>
      </g>
     </g>
    </g>
    <g id="text_8">
     <!-- $\alpha$ [deg] -->
     <g transform="translate(281.2505 401.75625) scale(0.2 -0.2)">
      <defs>
       <path id="DejaVuSans-Oblique-3b1" d="M 2619 1628 
L 2622 2350 
Q 2625 3088 2069 3091 
Q 1653 3094 1394 2747 
Q 1069 2319 959 1747 
Q 825 1059 994 731 
Q 1169 397 1547 397 
Q 1966 397 2319 1063 
L 2619 1628 
z
M 2166 3578 
Q 3141 3594 3128 2584 
Q 3128 2584 3616 3500 
L 4128 3500 
L 3119 1603 
L 3109 919 
Q 3109 766 3194 638 
Q 3291 488 3391 488 
L 3669 488 
L 3575 0 
L 3228 0 
Q 2934 0 2722 263 
Q 2622 394 2619 669 
Q 2416 334 2066 50 
Q 1900 -81 1453 -78 
Q 722 -72 456 397 
Q 184 884 353 1747 
Q 534 2675 1009 3097 
Q 1544 3569 2166 3578 
z
" transform="scale(0.015625)"/>
       <path id="DejaVuSans-20" transform="scale(0.015625)"/>
       <path id="DejaVuSans-5b" d="M 550 4863 
L 1875 4863 
L 1875 4416 
L 1125 4416 
L 1125 -397 
L 1875 -397 
L 1875 -844 
L 550 -844 
L 550 4863 
z
" transform="scale(0.015625)"/>
       <path id="DejaVuSans-64" d="M 2906 2969 
L 2906 4863 
L 3481 4863 
L 3481 0 
L 2906 0 
L 2906 525 
Q 2725 213 2448 61 
Q 2172 -91 1784 -91 
Q 1150 -91 751 415 
Q 353 922 353 1747 
Q 353 2572 751 3078 
Q 1150 3584 1784 3584 
Q 2172 3584 2448 3432 
Q 2725 3281 2906 2969 
z
M 947 1747 
Q 947 1113 1208 752 
Q 1469 391 1925 391 
Q 2381 391 2643 752 
Q 2906 1113 2906 1747 
Q 2906 2381 2643 2742 
Q 2381 3103 1925 3103 
Q 1469 3103 1208 2742 
Q 947 2381 947 1747 
z
" transform="scale(0.015625)"/>
       <path id="DejaVuSans-65" d="M 3597 1894 
L 3597 1613 
L 953 1613 
Q 991 1019 1311 708 
Q 1631 397 2203 397 
Q 2534 397 2845 478 
Q 3156 559 3463 722 
L 3463 178 
Q 3153 47 2828 -22 
Q 2503 -91 2169 -91 
Q 1331 -91 842 396 
Q 353 884 353 1716 
Q 353 2575 817 3079 
Q 1281 3584 2069 3584 
Q 2775 3584 3186 3129 
Q 3597 2675 3597 1894 
z
M 3022 2063 
Q 3016 2534 2758 2815 
Q 2500 3097 2075 3097 
Q 1594 3097 1305 2825 
Q 1016 2553 972 2059 
L 3022 2063 
z
" transform="scale(0.015625)"/>
       <path id="DejaVuSans-67" d="M 2906 1791 
Q 2906 2416 2648 2759 
Q 2391 3103 1925 3103 
Q 1463 3103 1205 2759 
Q 947 2416 947 1791 
Q 947 1169 1205 825 
Q 1463 481 1925 481 
Q 2391 481 2648 825 
Q 2906 1169 2906 1791 
z
M 3481 434 
Q 3481 -459 3084 -895 
Q 2688 -1331 1869 -1331 
Q 1566 -1331 1297 -1286 
Q 1028 -1241 775 -1147 
L 775 -588 
Q 1028 -725 1275 -790 
Q 1522 -856 1778 -856 
Q 2344 -856 2625 -561 
Q 2906 -266 2906 331 
L 2906 616 
Q 2728 306 2450 153 
Q 2172 0 1784 0 
Q 1141 0 747 490 
Q 353 981 353 1791 
Q 353 2603 747 3093 
Q 1141 3584 1784 3584 
Q 2172 3584 2450 3431 
Q 2728 3278 2906 2969 
L 2906 3500 
L 3481 3500 
L 3481 434 
z
" transform="scale(0.015625)"/>
       <path id="DejaVuSans-5d" d="M 1947 4863 
L 1947 -844 
L 622 -844 
L 622 -397 
L 1369 -397 
L 1369 4416 
L 622 4416 
L 622 4863 
L 1947 4863 
z
" transform="scale(0.015625)"/>
      </defs>
      <use xlink:href="#DejaVuSans-Oblique-3b1" transform="translate(0 0.015625)"/>
      <use xlink:href="#DejaVuSans-20" transform="translate(65.917969 0.015625)"/>
      <use xlink:href="#DejaVuSans-5b" transform="translate(97.705078 0.015625)"/>
      <use xlink:href="#DejaVuSans-64" transform="translate(136.71875 0.015625)"/>
      <use xlink:href="#DejaVuSans-65" transform="translate(200.195312 0.015625)"/>
      <use xlink:href="#DejaVuSans-67" transform="translate(261.71875 0.015625)"/>
      <use xlink:href="#DejaVuSans-5d" transform="translate(325.195312 0.015625)"/>
     </g>
    </g>
   </g>
   <g id="matplotlib.axis_2">
    <g id="ytick_1">
     <g id="line2d_15">
      <path d="M 103.376 325.312342 
L 532.125 325.312342 
" clip-path="url(#p05c118f424)" style="fill: none; stroke: #b0b0b0; stroke-width: 0.8; stroke-linecap: square"/>
     </g>
     <g id="line2d_16">
      <defs>
       <path id="m09c7c52ece" d="M 0 0 
L -3.5 0 
" style="stroke: #000000; stroke-width: 0.8"/>
      </defs>
      <g>
       <use xlink:href="#m09c7c52ece" x="103.376" y="325.312342" style="stroke: #000000; stroke-width: 0.8"/>
      </g>
     </g>
     <g id="text_9">
      <!-- −0.5 -->
      <g transform="translate(47.810375 332.91078) scale(0.2 -0.2)">
       <use xlink:href="#DejaVuSans-2212"/>
       <use xlink:href="#DejaVuSans-30" x="83.789062"/>
       <use xlink:href="#DejaVuSans-2e" x="147.412109"/>
       <use xlink:href="#DejaVuSans-35" x="179.199219"/>
      </g>
     </g>
    </g>
    <g id="ytick_2">
     <g id="line2d_17">
      <path d="M 103.376 241.922635 
L 532.125 241.922635 
" clip-path="url(#p05c118f424)" style="fill: none; stroke: #b0b0b0; stroke-width: 0.8; stroke-linecap: square"/>
     </g>
     <g id="line2d_18">
      <g>
       <use xlink:href="#m09c7c52ece" x="103.376" y="241.922635" style="stroke: #000000; stroke-width: 0.8"/>
      </g>
     </g>
     <g id="text_10">
      <!-- 0.0 -->
      <g transform="translate(64.56975 249.521072) scale(0.2 -0.2)">
       <use xlink:href="#DejaVuSans-30"/>
       <use xlink:href="#DejaVuSans-2e" x="63.623047"/>
       <use xlink:href="#DejaVuSans-30" x="95.410156"/>
      </g>
     </g>
    </g>
    <g id="ytick_3">
     <g id="line2d_19">
      <path d="M 103.376 158.532927 
L 532.125 158.532927 
" clip-path="url(#p05c118f424)" style="fill: none; stroke: #b0b0b0; stroke-width: 0.8; stroke-linecap: square"/>
     </g>
     <g id="line2d_20">
      <g>
       <use xlink:href="#m09c7c52ece" x="103.376" y="158.532927" style="stroke: #000000; stroke-width: 0.8"/>
      </g>
     </g>
     <g id="text_11">
      <!-- 0.5 -->
      <g transform="translate(64.56975 166.131364) scale(0.2 -0.2)">
       <use xlink:href="#DejaVuSans-30"/>
       <use xlink:href="#DejaVuSans-2e" x="63.623047"/>
       <use xlink:href="#DejaVuSans-35" x="95.410156"/>
      </g>
     </g>
    </g>
    <g id="ytick_4">
     <g id="line2d_21">
      <path d="M 103.376 75.143219 
L 532.125 75.143219 
" clip-path="url(#p05c118f424)" style="fill: none; stroke: #b0b0b0; stroke-width: 0.8; stroke-linecap: square"/>
     </g>
     <g id="line2d_22">
      <g>
       <use xlink:href="#m09c7c52ece" x="103.376" y="75.143219" style="stroke: #000000; stroke-width: 0.8"/>
      </g>
     </g>
     <g id="text_12">
      <!-- 1.0 -->
      <g transform="translate(64.56975 82.741657) scale(0.2 -0.2)">
       <use xlink:href="#DejaVuSans-31"/>
       <use xlink:href="#DejaVuSans-2e" x="63.623047"/>
       <use xlink:href="#DejaVuSans-30" x="95.410156"/>
      </g>
     </g>
    </g>
    <g id="text_13">
     <!-- $C_L$ [-] (trim) -->
     <g transform="translate(39.651 246.2) rotate(-90) scale(0.2 -0.2)">
      <defs>
       <path id="DejaVuSans-Oblique-43" d="M 4447 4306 
L 4319 3641 
Q 4019 3944 3683 4091 
Q 3347 4238 2956 4238 
Q 2422 4238 2017 3981 
Q 1613 3725 1319 3200 
Q 1131 2863 1032 2486 
Q 934 2109 934 1728 
Q 934 1091 1264 756 
Q 1594 422 2222 422 
Q 2656 422 3056 561 
Q 3456 700 3834 978 
L 3688 231 
Q 3316 72 2936 -9 
Q 2556 -91 2175 -91 
Q 1278 -91 773 396 
Q 269 884 269 1753 
Q 269 2309 461 2846 
Q 653 3384 1013 3828 
Q 1394 4300 1883 4525 
Q 2372 4750 3022 4750 
Q 3422 4750 3780 4639 
Q 4138 4528 4447 4306 
z
" transform="scale(0.015625)"/>
       <path id="DejaVuSans-Oblique-4c" d="M 1075 4666 
L 1709 4666 
L 909 525 
L 3181 525 
L 3078 0 
L 172 0 
L 1075 4666 
z
" transform="scale(0.015625)"/>
       <path id="DejaVuSans-2d" d="M 313 2009 
L 1997 2009 
L 1997 1497 
L 313 1497 
L 313 2009 
z
" transform="scale(0.015625)"/>
       <path id="DejaVuSans-28" d="M 1984 4856 
Q 1566 4138 1362 3434 
Q 1159 2731 1159 2009 
Q 1159 1288 1364 580 
Q 1569 -128 1984 -844 
L 1484 -844 
Q 1016 -109 783 600 
Q 550 1309 550 2009 
Q 550 2706 781 3412 
Q 1013 4119 1484 4856 
L 1984 4856 
z
" transform="scale(0.015625)"/>
       <path id="DejaVuSans-74" d="M 1172 4494 
L 1172 3500 
L 2356 3500 
L 2356 3053 
L 1172 3053 
L 1172 1153 
Q 1172 725 1289 603 
Q 1406 481 1766 481 
L 2356 481 
L 2356 0 
L 1766 0 
Q 1100 0 847 248 
Q 594 497 594 1153 
L 594 3053 
L 172 3053 
L 172 3500 
L 594 3500 
L 594 4494 
L 1172 4494 
z
" transform="scale(0.015625)"/>
       <path id="DejaVuSans-72" d="M 2631 2963 
Q 2534 3019 2420 3045 
Q 2306 3072 2169 3072 
Q 1681 3072 1420 2755 
Q 1159 2438 1159 1844 
L 1159 0 
L 581 0 
L 581 3500 
L 1159 3500 
L 1159 2956 
Q 1341 3275 1631 3429 
Q 1922 3584 2338 3584 
Q 2397 3584 2469 3576 
Q 2541 3569 2628 3553 
L 2631 2963 
z
" transform="scale(0.015625)"/>
       <path id="DejaVuSans-69" d="M 603 3500 
L 1178 3500 
L 1178 0 
L 603 0 
L 603 3500 
z
M 603 4863 
L 1178 4863 
L 1178 4134 
L 603 4134 
L 603 4863 
z
" transform="scale(0.015625)"/>
       <path id="DejaVuSans-6d" d="M 3328 2828 
Q 3544 3216 3844 3400 
Q 4144 3584 4550 3584 
Q 5097 3584 5394 3201 
Q 5691 2819 5691 2113 
L 5691 0 
L 5113 0 
L 5113 2094 
Q 5113 2597 4934 2840 
Q 4756 3084 4391 3084 
Q 3944 3084 3684 2787 
Q 3425 2491 3425 1978 
L 3425 0 
L 2847 0 
L 2847 2094 
Q 2847 2600 2669 2842 
Q 2491 3084 2119 3084 
Q 1678 3084 1418 2786 
Q 1159 2488 1159 1978 
L 1159 0 
L 581 0 
L 581 3500 
L 1159 3500 
L 1159 2956 
Q 1356 3278 1631 3431 
Q 1906 3584 2284 3584 
Q 2666 3584 2933 3390 
Q 3200 3197 3328 2828 
z
" transform="scale(0.015625)"/>
       <path id="DejaVuSans-29" d="M 513 4856 
L 1013 4856 
Q 1481 4119 1714 3412 
Q 1947 2706 1947 2009 
Q 1947 1309 1714 600 
Q 1481 -109 1013 -844 
L 513 -844 
Q 928 -128 1133 580 
Q 1338 1288 1338 2009 
Q 1338 2731 1133 3434 
Q 928 4138 513 4856 
z
" transform="scale(0.015625)"/>
      </defs>
      <use xlink:href="#DejaVuSans-Oblique-43" transform="translate(0 0.015625)"/>
      <use xlink:href="#DejaVuSans-Oblique-4c" transform="translate(69.824219 -16.390625) scale(0.7)"/>
      <use xlink:href="#DejaVuSans-20" transform="translate(111.557617 0.015625)"/>
      <use xlink:href="#DejaVuSans-5b" transform="translate(143.344727 0.015625)"/>
      <use xlink:href="#DejaVuSans-2d" transform="translate(182.358398 0.015625)"/>
      <use xlink:href="#DejaVuSans-5d" transform="translate(218.442383 0.015625)"/>
      <use xlink:href="#DejaVuSans-20" transform="translate(257.456055 0.015625)"/>
      <use xlink:href="#DejaVuSans-28" transform="translate(289.243164 0.015625)"/>
      <use xlink:href="#DejaVuSans-74" transform="translate(328.256836 0.015625)"/>
      <use xlink:href="#DejaVuSans-72" transform="translate(367.46582 0.015625)"/>
      <use xlink:href="#DejaVuSans-69" transform="translate(408.579102 0.015625)"/>
      <use xlink:href="#DejaVuSans-6d" transform="translate(436.362305 0.015625)"/>
      <use xlink:href="#DejaVuSans-29" transform="translate(533.774414 0.015625)"/>
     </g>
    </g>
   </g>
   <g id="line2d_23">
    <path d="M 103.376 322.31205 
L 107.706798 316.861101 
L 112.037596 311.462542 
L 116.368394 306.116372 
L 120.699192 300.822591 
L 125.02999 295.5812 
L 129.360788 290.392199 
L 133.691586 285.255586 
L 138.022384 280.171363 
L 142.353182 275.13953 
L 146.68398 270.160086 
L 151.014778 265.233031 
L 155.345576 260.358366 
L 159.676374 255.53609 
L 164.007172 250.766203 
L 168.33797 246.048706 
L 172.668768 241.383599 
L 176.999566 236.77088 
L 181.330364 232.210551 
L 185.661162 227.702612 
L 189.99196 223.247062 
L 194.322758 218.843901 
L 198.653556 214.49313 
L 202.984354 210.194748 
L 207.315152 205.948755 
L 211.645949 201.755152 
L 215.976747 197.613938 
L 220.307545 193.525114 
L 224.638343 189.488679 
L 228.969141 185.504633 
L 233.299939 181.572977 
L 237.630737 177.69371 
L 241.961535 173.866833 
L 246.292333 170.092345 
L 250.623131 166.370246 
L 254.953929 162.700537 
L 259.284727 159.083217 
L 263.615525 155.518287 
L 267.946323 152.005746 
L 272.277121 148.545594 
L 276.607919 145.137832 
L 280.938717 141.782459 
L 285.269515 138.479476 
L 289.600313 135.228882 
L 293.931111 132.030677 
L 298.261909 128.884862 
L 302.592707 125.791436 
L 306.923505 122.750399 
L 311.254303 119.761752 
L 315.585101 116.825495 
L 319.915899 113.941626 
L 324.246697 111.110148 
L 328.577495 108.331058 
L 332.908293 105.604358 
L 337.239091 102.930047 
L 341.569889 100.308126 
L 345.900687 97.738594 
L 350.231485 95.221452 
L 354.562283 92.756699 
L 358.893081 90.344335 
L 363.223879 87.984361 
L 367.554677 85.676776 
L 371.885475 83.42158 
L 376.216273 81.218774 
L 380.547071 79.068357 
L 384.877869 76.97033 
L 389.208667 74.924692 
L 393.539465 72.931443 
L 397.870263 70.990584 
L 402.201061 69.102115 
L 406.531859 67.266034 
L 410.862657 65.482343 
L 415.193455 63.751042 
L 419.524253 62.072129 
L 423.855051 60.445607 
L 428.185848 58.871473 
L 432.516646 57.349729 
L 436.847444 55.880375 
L 441.178242 54.46341 
L 445.50904 53.098834 
L 449.839838 51.786647 
L 454.170636 50.52685 
L 458.501434 49.319443 
L 462.832232 48.164425 
L 467.16303 47.061796 
L 471.493828 46.011556 
L 475.824626 45.013706 
L 480.155424 44.068246 
L 484.486222 43.175174 
L 488.81702 42.334493 
L 493.147818 41.5462 
L 497.478616 40.810297 
L 501.809414 40.126783 
L 506.140212 39.495659 
L 510.47101 38.916924 
L 514.801808 38.390579 
L 519.132606 37.916623 
L 523.463404 37.495056 
L 527.794202 37.125879 
L 532.125 36.809091 
" clip-path="url(#p05c118f424)" style="fill: none; stroke-dasharray: 9.6,2.4,1.5,2.4; stroke-dashoffset: 0; stroke: #00a6b6; stroke-width: 1.5"/>
   </g>
   <g id="line2d_24">
    <path d="M 103.376 322.771016 
L 107.706798 317.293463 
L 112.037596 311.86904 
L 116.368394 306.497747 
L 120.699192 301.179585 
L 125.02999 295.914553 
L 129.360788 290.702651 
L 133.691586 285.543879 
L 138.022384 280.438238 
L 142.353182 275.385726 
L 146.68398 270.386345 
L 151.014778 265.440095 
L 155.345576 260.546974 
L 159.676374 255.706984 
L 164.007172 250.920124 
L 168.33797 246.186394 
L 172.668768 241.505795 
L 176.999566 236.878325 
L 181.330364 232.303986 
L 185.661162 227.782777 
L 189.99196 223.314699 
L 194.322758 218.89975 
L 198.653556 214.537932 
L 202.984354 210.229244 
L 207.315152 205.973687 
L 211.645949 201.771259 
L 215.976747 197.621962 
L 220.307545 193.525795 
L 224.638343 189.482758 
L 228.969141 185.492852 
L 233.299939 181.556076 
L 237.630737 177.67243 
L 241.961535 173.841914 
L 246.292333 170.064529 
L 250.623131 166.340273 
L 254.953929 162.669148 
L 259.284727 159.051153 
L 263.615525 155.486289 
L 267.946323 151.974555 
L 272.277121 148.515951 
L 276.607919 145.110477 
L 280.938717 141.758133 
L 285.269515 138.45892 
L 289.600313 135.212837 
L 293.931111 132.019884 
L 298.261909 128.880061 
L 302.592707 125.793369 
L 306.923505 122.759807 
L 311.254303 119.779375 
L 315.585101 116.852073 
L 319.915899 113.977901 
L 324.246697 111.15686 
L 328.577495 108.388949 
L 332.908293 105.674169 
L 337.239091 103.012518 
L 341.569889 100.403998 
L 345.900687 97.848608 
L 350.231485 95.346348 
L 354.562283 92.897218 
L 358.893081 90.501219 
L 363.223879 88.15835 
L 367.554677 85.868611 
L 371.885475 83.632003 
L 376.216273 81.448524 
L 380.547071 79.318176 
L 384.877869 77.240958 
L 389.208667 75.216871 
L 393.539465 73.245913 
L 397.870263 71.328086 
L 402.201061 69.463389 
L 406.531859 67.651823 
L 410.862657 65.893386 
L 415.193455 64.18808 
L 419.524253 62.535904 
L 423.855051 60.936858 
L 428.185848 59.390943 
L 432.516646 57.898157 
L 436.847444 56.458502 
L 441.178242 55.071978 
L 445.50904 53.738583 
L 449.839838 52.458319 
L 454.170636 51.231185 
L 458.501434 50.057181 
L 462.832232 48.936307 
L 467.16303 47.868564 
L 471.493828 46.853951 
L 475.824626 45.892468 
L 480.155424 44.984115 
L 484.486222 44.128893 
L 488.81702 43.326801 
L 493.147818 42.577839 
L 497.478616 41.882007 
L 501.809414 41.239306 
L 506.140212 40.649735 
L 510.47101 40.113294 
L 514.801808 39.629983 
L 519.132606 39.199802 
L 523.463404 38.822752 
L 527.794202 38.498832 
L 532.125 38.228042 
" clip-path="url(#p05c118f424)" style="fill: none; stroke-dasharray: 9.6,2.4,1.5,2.4; stroke-dashoffset: 0; stroke: #a50034; stroke-width: 1.5"/>
   </g>
   <g id="line2d_25">
    <path d="M 103.376 322.460542 
L 107.706798 316.987924 
L 112.037596 311.569126 
L 116.368394 306.20415 
L 120.699192 300.892993 
L 125.02999 295.635657 
L 129.360788 290.432142 
L 133.691586 285.282447 
L 138.022384 280.186572 
L 142.353182 275.144518 
L 146.68398 270.156285 
L 151.014778 265.221872 
L 155.345576 260.341279 
L 159.676374 255.514507 
L 164.007172 250.741555 
L 168.33797 246.022424 
L 172.668768 241.357113 
L 176.999566 236.745623 
L 181.330364 232.187953 
L 185.661162 227.684104 
L 189.99196 223.234075 
L 194.322758 218.837867 
L 198.653556 214.495479 
L 202.984354 210.206912 
L 207.315152 205.972165 
L 211.645949 201.791238 
L 215.976747 197.664133 
L 220.307545 193.590847 
L 224.638343 189.571382 
L 228.969141 185.605738 
L 233.299939 181.693914 
L 237.630737 177.83591 
L 241.961535 174.031727 
L 246.292333 170.281364 
L 250.623131 166.584822 
L 254.953929 162.942101 
L 259.284727 159.3532 
L 263.615525 155.818119 
L 267.946323 152.336859 
L 272.277121 148.909419 
L 276.607919 145.5358 
L 280.938717 142.216001 
L 285.269515 138.950023 
L 289.600313 135.737865 
L 293.931111 132.579528 
L 298.261909 129.475011 
L 302.592707 126.424314 
L 306.923505 123.427438 
L 311.254303 120.484383 
L 315.585101 117.595148 
L 319.915899 114.759734 
L 324.246697 111.97814 
L 328.577495 109.250366 
L 332.908293 106.576413 
L 337.239091 103.956281 
L 341.569889 101.389968 
L 345.900687 98.877477 
L 350.231485 96.418806 
L 354.562283 94.013955 
L 358.893081 91.662925 
L 363.223879 89.365715 
L 367.554677 87.122326 
L 371.885475 84.932757 
L 376.216273 82.797009 
L 380.547071 80.715081 
L 384.877869 78.686974 
L 389.208667 76.712687 
L 393.539465 74.792221 
L 397.870263 72.925575 
L 402.201061 71.11275 
L 406.531859 69.353745 
L 410.862657 67.64856 
L 415.193455 65.997196 
L 419.524253 64.399653 
L 423.855051 62.85593 
L 428.185848 61.366027 
L 432.516646 59.929945 
L 436.847444 58.547684 
L 441.178242 57.219243 
L 445.50904 55.944622 
L 449.839838 54.723822 
L 454.170636 53.556842 
L 458.501434 52.443683 
L 462.832232 51.384344 
L 467.16303 50.378826 
L 471.493828 49.427128 
L 475.824626 48.529251 
L 480.155424 47.685194 
L 484.486222 46.894958 
L 488.81702 46.158542 
L 493.147818 45.475947 
L 497.478616 44.847172 
L 501.809414 44.272217 
L 506.140212 43.751083 
L 510.47101 43.28377 
L 514.801808 42.870277 
L 519.132606 42.510604 
L 523.463404 42.204752 
L 527.794202 41.952721 
L 532.125 41.75451 
" clip-path="url(#p05c118f424)" style="fill: none; stroke-dasharray: 9.6,2.4,1.5,2.4; stroke-dashoffset: 0; stroke: #ef60a3; stroke-width: 1.5"/>
   </g>
   <g id="line2d_26">
    <path d="M 103.376 320.645189 
L 107.706798 315.160085 
L 112.037596 309.729387 
L 116.368394 304.353096 
L 120.699192 299.031213 
L 125.02999 293.763736 
L 129.360788 288.550666 
L 133.691586 283.392004 
L 138.022384 278.287748 
L 142.353182 273.237899 
L 146.68398 268.242457 
L 151.014778 263.301423 
L 155.345576 258.414795 
L 159.676374 253.582574 
L 164.007172 248.80476 
L 168.33797 244.081353 
L 172.668768 239.412353 
L 176.999566 234.797761 
L 181.330364 230.237575 
L 185.661162 225.731796 
L 189.99196 221.280424 
L 194.322758 216.883459 
L 198.653556 212.540901 
L 202.984354 208.25275 
L 207.315152 204.019006 
L 211.645949 199.839669 
L 215.976747 195.714739 
L 220.307545 191.644216 
L 224.638343 187.6281 
L 228.969141 183.66639 
L 233.299939 179.759088 
L 237.630737 175.906193 
L 241.961535 172.107705 
L 246.292333 168.363624 
L 250.623131 164.67395 
L 254.953929 161.038682 
L 259.284727 157.457822 
L 263.615525 153.931369 
L 267.946323 150.459323 
L 272.277121 147.041683 
L 276.607919 143.678451 
L 280.938717 140.369626 
L 285.269515 137.115207 
L 289.600313 133.915196 
L 293.931111 130.769592 
L 298.261909 127.678394 
L 302.592707 124.641604 
L 306.923505 121.65922 
L 311.254303 118.731244 
L 315.585101 115.857674 
L 319.915899 113.038512 
L 324.246697 110.273756 
L 328.577495 107.563408 
L 332.908293 104.907466 
L 337.239091 102.305932 
L 341.569889 99.758804 
L 345.900687 97.266083 
L 350.231485 94.82777 
L 354.562283 92.443863 
L 358.893081 90.114364 
L 363.223879 87.839271 
L 367.554677 85.618585 
L 371.885475 83.452306 
L 376.216273 81.340435 
L 380.547071 79.28297 
L 384.877869 77.279912 
L 389.208667 75.331261 
L 393.539465 73.437018 
L 397.870263 71.597181 
L 402.201061 69.811751 
L 406.531859 68.080728 
L 410.862657 66.404112 
L 415.193455 64.781903 
L 419.524253 63.214101 
L 423.855051 61.700706 
L 428.185848 60.241718 
L 432.516646 58.837137 
L 436.847444 57.486963 
L 441.178242 56.191196 
L 445.50904 54.949836 
L 449.839838 53.762883 
L 454.170636 52.630337 
L 458.501434 51.552198 
L 462.832232 50.528466 
L 467.16303 49.559141 
L 471.493828 48.644223 
L 475.824626 47.783712 
L 480.155424 46.977608 
L 484.486222 46.22591 
L 488.81702 45.52862 
L 493.147818 44.885737 
L 497.478616 44.297261 
L 501.809414 43.763191 
L 506.140212 43.283529 
L 510.47101 42.858274 
L 514.801808 42.487426 
L 519.132606 42.170984 
L 523.463404 41.90895 
L 527.794202 41.701322 
L 532.125 41.548102 
" clip-path="url(#p05c118f424)" style="fill: none; stroke-dasharray: 9.6,2.4,1.5,2.4; stroke-dashoffset: 0; stroke: #6cc24a; stroke-width: 1.5"/>
   </g>
   <g id="line2d_27">
    <path d="M 103.376 340.990909 
L 107.706798 335.194962 
L 112.037596 329.455932 
L 116.368394 323.773817 
L 120.699192 318.148619 
L 125.02999 312.580338 
L 129.360788 307.068972 
L 133.691586 301.614523 
L 138.022384 296.216991 
L 142.353182 290.876375 
L 146.68398 285.592675 
L 151.014778 280.365891 
L 155.345576 275.196024 
L 159.676374 270.083073 
L 164.007172 265.027038 
L 168.33797 260.02792 
L 172.668768 255.085718 
L 176.999566 250.200433 
L 181.330364 245.372064 
L 185.661162 240.600611 
L 189.99196 235.886074 
L 194.322758 231.228454 
L 198.653556 226.62775 
L 202.984354 222.083963 
L 207.315152 217.597091 
L 211.645949 213.167137 
L 215.976747 208.794098 
L 220.307545 204.477976 
L 224.638343 200.21877 
L 228.969141 196.016481 
L 233.299939 191.871108 
L 237.630737 187.782651 
L 241.961535 183.75111 
L 246.292333 179.776486 
L 250.623131 175.858778 
L 254.953929 171.997987 
L 259.284727 168.194112 
L 263.615525 164.447153 
L 267.946323 160.757111 
L 272.277121 157.123984 
L 276.607919 153.547775 
L 280.938717 150.028481 
L 285.269515 146.566104 
L 289.600313 143.160643 
L 293.931111 139.812099 
L 298.261909 136.520471 
L 302.592707 133.285759 
L 306.923505 130.107964 
L 311.254303 126.987085 
L 315.585101 123.923122 
L 319.915899 120.916076 
L 324.246697 117.965946 
L 328.577495 115.072732 
L 332.908293 112.236435 
L 337.239091 109.457054 
L 341.569889 106.734589 
L 345.900687 104.069041 
L 350.231485 101.460409 
L 354.562283 98.908693 
L 358.893081 96.413894 
L 363.223879 93.976011 
L 367.554677 91.595044 
L 371.885475 89.270994 
L 376.216273 87.00386 
L 380.547071 84.793642 
L 384.877869 82.640341 
L 389.208667 80.543956 
L 393.539465 78.504487 
L 397.870263 76.521935 
L 402.201061 74.596299 
L 406.531859 72.727579 
L 410.862657 70.915776 
L 415.193455 69.160889 
L 419.524253 67.462918 
L 423.855051 65.821864 
L 428.185848 64.237726 
L 432.516646 62.710505 
L 436.847444 61.2402 
L 441.178242 59.826811 
L 445.50904 58.470338 
L 449.839838 57.170782 
L 454.170636 55.928142 
L 458.501434 54.742418 
L 462.832232 53.613611 
L 467.16303 52.54172 
L 471.493828 51.526746 
L 475.824626 50.568688 
L 480.155424 49.667546 
L 484.486222 48.82332 
L 488.81702 48.036011 
L 493.147818 47.305618 
L 497.478616 46.632142 
L 501.809414 46.015582 
L 506.140212 45.455938 
L 510.47101 44.95321 
L 514.801808 44.507399 
L 519.132606 44.118504 
L 523.463404 43.786526 
L 527.794202 43.511464 
L 532.125 43.293318 
" clip-path="url(#p05c118f424)" style="fill: none; stroke-dasharray: 9.6,2.4,1.5,2.4; stroke-dashoffset: 0; stroke: #ffb81c; stroke-width: 1.5"/>
   </g>
   <g id="patch_3">
    <path d="M 103.376 356.2 
L 103.376 21.6 
" style="fill: none; stroke: #000000; stroke-width: 0.8; stroke-linejoin: miter; stroke-linecap: square"/>
   </g>
   <g id="patch_4">
    <path d="M 532.125 356.2 
L 532.125 21.6 
" style="fill: none; stroke: #000000; stroke-width: 0.8; stroke-linejoin: miter; stroke-linecap: square"/>
   </g>
   <g id="patch_5">
    <path d="M 103.376 356.2 
L 532.125 356.2 
" style="fill: none; stroke: #000000; stroke-width: 0.8; stroke-linejoin: miter; stroke-linecap: square"/>
   </g>
   <g id="patch_6">
    <path d="M 103.376 21.6 
L 532.125 21.6 
" style="fill: none; stroke: #000000; stroke-width: 0.8; stroke-linejoin: miter; stroke-linecap: square"/>
   </g>
   <g id="legend_1">
    <g id="patch_7">
     <path d="M 243.55625 346.2 
L 518.125 346.2 
Q 522.125 346.2 522.125 342.2 
L 522.125 197.41875 
Q 522.125 193.41875 518.125 193.41875 
L 243.55625 193.41875 
Q 239.55625 193.41875 239.55625 197.41875 
L 239.55625 342.2 
Q 239.55625 346.2 243.55625 346.2 
z
" style="fill: #ffffff; opacity: 0.8; stroke: #cccccc; stroke-linejoin: miter"/>
    </g>
    <g id="line2d_28">
     <path d="M 247.55625 209.615625 
L 267.55625 209.615625 
L 287.55625 209.615625 
" style="fill: none; stroke-dasharray: 9.6,2.4,1.5,2.4; stroke-dashoffset: 0; stroke: #00a6b6; stroke-width: 1.5"/>
    </g>
    <g id="text_14">
     <!-- V = 40.0 m/s, J = 1.6 -->
     <g transform="translate(303.55625 216.615625) scale(0.2 -0.2)">
      <defs>
       <path id="DejaVuSans-56" d="M 1831 0 
L 50 4666 
L 709 4666 
L 2188 738 
L 3669 4666 
L 4325 4666 
L 2547 0 
L 1831 0 
z
" transform="scale(0.015625)"/>
       <path id="DejaVuSans-3d" d="M 678 2906 
L 4684 2906 
L 4684 2381 
L 678 2381 
L 678 2906 
z
M 678 1631 
L 4684 1631 
L 4684 1100 
L 678 1100 
L 678 1631 
z
" transform="scale(0.015625)"/>
       <path id="DejaVuSans-2f" d="M 1625 4666 
L 2156 4666 
L 531 -594 
L 0 -594 
L 1625 4666 
z
" transform="scale(0.015625)"/>
       <path id="DejaVuSans-73" d="M 2834 3397 
L 2834 2853 
Q 2591 2978 2328 3040 
Q 2066 3103 1784 3103 
Q 1356 3103 1142 2972 
Q 928 2841 928 2578 
Q 928 2378 1081 2264 
Q 1234 2150 1697 2047 
L 1894 2003 
Q 2506 1872 2764 1633 
Q 3022 1394 3022 966 
Q 3022 478 2636 193 
Q 2250 -91 1575 -91 
Q 1294 -91 989 -36 
Q 684 19 347 128 
L 347 722 
Q 666 556 975 473 
Q 1284 391 1588 391 
Q 1994 391 2212 530 
Q 2431 669 2431 922 
Q 2431 1156 2273 1281 
Q 2116 1406 1581 1522 
L 1381 1569 
Q 847 1681 609 1914 
Q 372 2147 372 2553 
Q 372 3047 722 3315 
Q 1072 3584 1716 3584 
Q 2034 3584 2315 3537 
Q 2597 3491 2834 3397 
z
" transform="scale(0.015625)"/>
       <path id="DejaVuSans-2c" d="M 750 794 
L 1409 794 
L 1409 256 
L 897 -744 
L 494 -744 
L 750 256 
L 750 794 
z
" transform="scale(0.015625)"/>
       <path id="DejaVuSans-4a" d="M 628 4666 
L 1259 4666 
L 1259 325 
Q 1259 -519 939 -900 
Q 619 -1281 -91 -1281 
L -331 -1281 
L -331 -750 
L -134 -750 
Q 284 -750 456 -515 
Q 628 -281 628 325 
L 628 4666 
z
" transform="scale(0.015625)"/>
      </defs>
      <use xlink:href="#DejaVuSans-56"/>
      <use xlink:href="#DejaVuSans-20" x="68.408203"/>
      <use xlink:href="#DejaVuSans-3d" x="100.195312"/>
      <use xlink:href="#DejaVuSans-20" x="183.984375"/>
      <use xlink:href="#DejaVuSans-34" x="215.771484"/>
      <use xlink:href="#DejaVuSans-30" x="279.394531"/>
      <use xlink:href="#DejaVuSans-2e" x="343.017578"/>
      <use xlink:href="#DejaVuSans-30" x="374.804688"/>
      <use xlink:href="#DejaVuSans-20" x="438.427734"/>
      <use xlink:href="#DejaVuSans-6d" x="470.214844"/>
      <use xlink:href="#DejaVuSans-2f" x="567.626953"/>
      <use xlink:href="#DejaVuSans-73" x="601.318359"/>
      <use xlink:href="#DejaVuSans-2c" x="653.417969"/>
      <use xlink:href="#DejaVuSans-20" x="685.205078"/>
      <use xlink:href="#DejaVuSans-4a" x="716.992188"/>
      <use xlink:href="#DejaVuSans-20" x="746.484375"/>
      <use xlink:href="#DejaVuSans-3d" x="778.271484"/>
      <use xlink:href="#DejaVuSans-20" x="862.060547"/>
      <use xlink:href="#DejaVuSans-31" x="893.847656"/>
      <use xlink:href="#DejaVuSans-2e" x="957.470703"/>
      <use xlink:href="#DejaVuSans-36" x="989.257812"/>
     </g>
    </g>
    <g id="line2d_29">
     <path d="M 247.55625 238.971875 
L 267.55625 238.971875 
L 287.55625 238.971875 
" style="fill: none; stroke-dasharray: 9.6,2.4,1.5,2.4; stroke-dashoffset: 0; stroke: #a50034; stroke-width: 1.5"/>
    </g>
    <g id="text_15">
     <!-- V = 40.0 m/s, J = 1.8 -->
     <g transform="translate(303.55625 245.971875) scale(0.2 -0.2)">
      <use xlink:href="#DejaVuSans-56"/>
      <use xlink:href="#DejaVuSans-20" x="68.408203"/>
      <use xlink:href="#DejaVuSans-3d" x="100.195312"/>
      <use xlink:href="#DejaVuSans-20" x="183.984375"/>
      <use xlink:href="#DejaVuSans-34" x="215.771484"/>
      <use xlink:href="#DejaVuSans-30" x="279.394531"/>
      <use xlink:href="#DejaVuSans-2e" x="343.017578"/>
      <use xlink:href="#DejaVuSans-30" x="374.804688"/>
      <use xlink:href="#DejaVuSans-20" x="438.427734"/>
      <use xlink:href="#DejaVuSans-6d" x="470.214844"/>
      <use xlink:href="#DejaVuSans-2f" x="567.626953"/>
      <use xlink:href="#DejaVuSans-73" x="601.318359"/>
      <use xlink:href="#DejaVuSans-2c" x="653.417969"/>
      <use xlink:href="#DejaVuSans-20" x="685.205078"/>
      <use xlink:href="#DejaVuSans-4a" x="716.992188"/>
      <use xlink:href="#DejaVuSans-20" x="746.484375"/>
      <use xlink:href="#DejaVuSans-3d" x="778.271484"/>
      <use xlink:href="#DejaVuSans-20" x="862.060547"/>
      <use xlink:href="#DejaVuSans-31" x="893.847656"/>
      <use xlink:href="#DejaVuSans-2e" x="957.470703"/>
      <use xlink:href="#DejaVuSans-38" x="989.257812"/>
     </g>
    </g>
    <g id="line2d_30">
     <path d="M 247.55625 268.328125 
L 267.55625 268.328125 
L 287.55625 268.328125 
" style="fill: none; stroke-dasharray: 9.6,2.4,1.5,2.4; stroke-dashoffset: 0; stroke: #ef60a3; stroke-width: 1.5"/>
    </g>
    <g id="text_16">
     <!-- V = 40.0 m/s, J = 3.5 -->
     <g transform="translate(303.55625 275.328125) scale(0.2 -0.2)">
      <defs>
       <path id="DejaVuSans-33" d="M 2597 2516 
Q 3050 2419 3304 2112 
Q 3559 1806 3559 1356 
Q 3559 666 3084 287 
Q 2609 -91 1734 -91 
Q 1441 -91 1130 -33 
Q 819 25 488 141 
L 488 750 
Q 750 597 1062 519 
Q 1375 441 1716 441 
Q 2309 441 2620 675 
Q 2931 909 2931 1356 
Q 2931 1769 2642 2001 
Q 2353 2234 1838 2234 
L 1294 2234 
L 1294 2753 
L 1863 2753 
Q 2328 2753 2575 2939 
Q 2822 3125 2822 3475 
Q 2822 3834 2567 4026 
Q 2313 4219 1838 4219 
Q 1578 4219 1281 4162 
Q 984 4106 628 3988 
L 628 4550 
Q 988 4650 1302 4700 
Q 1616 4750 1894 4750 
Q 2613 4750 3031 4423 
Q 3450 4097 3450 3541 
Q 3450 3153 3228 2886 
Q 3006 2619 2597 2516 
z
" transform="scale(0.015625)"/>
      </defs>
      <use xlink:href="#DejaVuSans-56"/>
      <use xlink:href="#DejaVuSans-20" x="68.408203"/>
      <use xlink:href="#DejaVuSans-3d" x="100.195312"/>
      <use xlink:href="#DejaVuSans-20" x="183.984375"/>
      <use xlink:href="#DejaVuSans-34" x="215.771484"/>
      <use xlink:href="#DejaVuSans-30" x="279.394531"/>
      <use xlink:href="#DejaVuSans-2e" x="343.017578"/>
      <use xlink:href="#DejaVuSans-30" x="374.804688"/>
      <use xlink:href="#DejaVuSans-20" x="438.427734"/>
      <use xlink:href="#DejaVuSans-6d" x="470.214844"/>
      <use xlink:href="#DejaVuSans-2f" x="567.626953"/>
      <use xlink:href="#DejaVuSans-73" x="601.318359"/>
      <use xlink:href="#DejaVuSans-2c" x="653.417969"/>
      <use xlink:href="#DejaVuSans-20" x="685.205078"/>
      <use xlink:href="#DejaVuSans-4a" x="716.992188"/>
      <use xlink:href="#DejaVuSans-20" x="746.484375"/>
      <use xlink:href="#DejaVuSans-3d" x="778.271484"/>
      <use xlink:href="#DejaVuSans-20" x="862.060547"/>
      <use xlink:href="#DejaVuSans-33" x="893.847656"/>
      <use xlink:href="#DejaVuSans-2e" x="957.470703"/>
      <use xlink:href="#DejaVuSans-35" x="989.257812"/>
     </g>
    </g>
    <g id="line2d_31">
     <path d="M 247.55625 297.684375 
L 267.55625 297.684375 
L 287.55625 297.684375 
" style="fill: none; stroke-dasharray: 9.6,2.4,1.5,2.4; stroke-dashoffset: 0; stroke: #6cc24a; stroke-width: 1.5"/>
    </g>
    <g id="text_17">
     <!-- V = 20.0 m/s, J = 1.6 -->
     <g transform="translate(303.55625 304.684375) scale(0.2 -0.2)">
      <use xlink:href="#DejaVuSans-56"/>
      <use xlink:href="#DejaVuSans-20" x="68.408203"/>
      <use xlink:href="#DejaVuSans-3d" x="100.195312"/>
      <use xlink:href="#DejaVuSans-20" x="183.984375"/>
      <use xlink:href="#DejaVuSans-32" x="215.771484"/>
      <use xlink:href="#DejaVuSans-30" x="279.394531"/>
      <use xlink:href="#DejaVuSans-2e" x="343.017578"/>
      <use xlink:href="#DejaVuSans-30" x="374.804688"/>
      <use xlink:href="#DejaVuSans-20" x="438.427734"/>
      <use xlink:href="#DejaVuSans-6d" x="470.214844"/>
      <use xlink:href="#DejaVuSans-2f" x="567.626953"/>
      <use xlink:href="#DejaVuSans-73" x="601.318359"/>
      <use xlink:href="#DejaVuSans-2c" x="653.417969"/>
      <use xlink:href="#DejaVuSans-20" x="685.205078"/>
      <use xlink:href="#DejaVuSans-4a" x="716.992188"/>
      <use xlink:href="#DejaVuSans-20" x="746.484375"/>
      <use xlink:href="#DejaVuSans-3d" x="778.271484"/>
      <use xlink:href="#DejaVuSans-20" x="862.060547"/>
      <use xlink:href="#DejaVuSans-31" x="893.847656"/>
      <use xlink:href="#DejaVuSans-2e" x="957.470703"/>
      <use xlink:href="#DejaVuSans-36" x="989.257812"/>
     </g>
    </g>
    <g id="line2d_32">
     <path d="M 247.55625 327.040625 
L 267.55625 327.040625 
L 287.55625 327.040625 
" style="fill: none; stroke-dasharray: 9.6,2.4,1.5,2.4; stroke-dashoffset: 0; stroke: #ffb81c; stroke-width: 1.5"/>
    </g>
    <g id="text_18">
     <!-- V = 10.0 m/s, J = 1.6 -->
     <g transform="translate(303.55625 334.040625) scale(0.2 -0.2)">
      <use xlink:href="#DejaVuSans-56"/>
      <use xlink:href="#DejaVuSans-20" x="68.408203"/>
      <use xlink:href="#DejaVuSans-3d" x="100.195312"/>
      <use xlink:href="#DejaVuSans-20" x="183.984375"/>
      <use xlink:href="#DejaVuSans-31" x="215.771484"/>
      <use xlink:href="#DejaVuSans-30" x="279.394531"/>
      <use xlink:href="#DejaVuSans-2e" x="343.017578"/>
      <use xlink:href="#DejaVuSans-30" x="374.804688"/>
      <use xlink:href="#DejaVuSans-20" x="438.427734"/>
      <use xlink:href="#DejaVuSans-6d" x="470.214844"/>
      <use xlink:href="#DejaVuSans-2f" x="567.626953"/>
      <use xlink:href="#DejaVuSans-73" x="601.318359"/>
      <use xlink:href="#DejaVuSans-2c" x="653.417969"/>
      <use xlink:href="#DejaVuSans-20" x="685.205078"/>
      <use xlink:href="#DejaVuSans-4a" x="716.992188"/>
      <use xlink:href="#DejaVuSans-20" x="746.484375"/>
      <use xlink:href="#DejaVuSans-3d" x="778.271484"/>
      <use xlink:href="#DejaVuSans-20" x="862.060547"/>
      <use xlink:href="#DejaVuSans-31" x="893.847656"/>
      <use xlink:href="#DejaVuSans-2e" x="957.470703"/>
      <use xlink:href="#DejaVuSans-36" x="989.257812"/>
     </g>
    </g>
   </g>
  </g>
 </g>
 <defs>
  <clipPath id="p05c118f424">
   <rect x="103.376" y="21.6" width="428.749" height="334.6"/>
  </clipPath>
 </defs>
</svg>
