<?xml version="1.0" encoding="utf-8" standalone="no"?>
<!DOCTYPE svg PUBLIC "-//W3C//DTD SVG 1.1//EN"
  "http://www.w3.org/Graphics/SVG/1.1/DTD/svg11.dtd">
<svg xmlns:xlink="http://www.w3.org/1999/xlink" width="576pt" height="432pt" viewBox="0 0 576 432" xmlns="http://www.w3.org/2000/svg" version="1.1">
 <metadata>
  <rdf:RDF xmlns:dc="http://purl.org/dc/elements/1.1/" xmlns:cc="http://creativecommons.org/ns#" xmlns:rdf="http://www.w3.org/1999/02/22-rdf-syntax-ns#">
   <cc:Work>
    <dc:type rdf:resource="http://purl.org/dc/dcmitype/StillImage"/>
    <dc:date>2024-04-02T21:14:06.693682</dc:date>
    <dc:format>image/svg+xml</dc:format>
    <dc:creator>
     <cc:Agent>
      <dc:title>Matplotlib v3.8.3, https://matplotlib.org/</dc:title>
     </cc:Agent>
    </dc:creator>
   </cc:Work>
  </rdf:RDF>
 </metadata>
 <defs>
  <style type="text/css">*{stroke-linejoin: round; stroke-linecap: butt}</style>
 </defs>
 <g id="figure_1">
  <g id="patch_1">
   <path d="M 0 432 
L 576 432 
L 576 0 
L 0 0 
z
" style="fill: #ffffff"/>
  </g>
  <g id="axes_1">
   <g id="patch_2">
    <path d="M 80.246 359.08 
L 532.125 359.08 
L 532.125 21.6 
L 80.246 21.6 
z
" style="fill: #ffffff"/>
   </g>
   <g id="PathCollection_1">
    <defs>
     <path id="m42cdb3608b" d="M 0 3 
C 0.795609 3 1.55874 2.683901 2.12132 2.12132 
C 2.683901 1.55874 3 0.795609 3 0 
C 3 -0.795609 2.683901 -1.55874 2.12132 -2.12132 
C 1.55874 -2.683901 0.795609 -3 0 -3 
C -0.795609 -3 -1.55874 -2.683901 -2.12132 -2.12132 
C -2.683901 -1.55874 -3 -0.795609 -3 0 
C -3 0.795609 -2.683901 1.55874 -2.12132 2.12132 
C -1.55874 2.683901 -0.795609 3 0 3 
z
" style="stroke: #00a6b6"/>
    </defs>
    <g clip-path="url(#pbc367afb7e)">
     <use xlink:href="#m42cdb3608b" x="240.914089" y="60.422789" style="fill: #00a6b6; stroke: #00a6b6"/>
     <use xlink:href="#m42cdb3608b" x="260.9976" y="63.796451" style="fill: #00a6b6; stroke: #00a6b6"/>
     <use xlink:href="#m42cdb3608b" x="431.707444" y="88.713143" style="fill: #00a6b6; stroke: #00a6b6"/>
    </g>
   </g>
   <g id="PathCollection_2">
    <defs>
     <path id="mf4c296ac75" d="M 0 3 
C 0.795609 3 1.55874 2.683901 2.12132 2.12132 
C 2.683901 1.55874 3 0.795609 3 0 
C 3 -0.795609 2.683901 -1.55874 2.12132 -2.12132 
C 1.55874 -2.683901 0.795609 -3 0 -3 
C -0.795609 -3 -1.55874 -2.683901 -2.12132 -2.12132 
C -2.683901 -1.55874 -3 -0.795609 -3 0 
C -3 0.795609 -2.683901 1.55874 -2.12132 2.12132 
C -1.55874 2.683901 -0.795609 3 0 3 
z
" style="stroke: #a50034"/>
    </defs>
    <g clip-path="url(#pbc367afb7e)">
     <use xlink:href="#mf4c296ac75" x="240.914089" y="249.963405" style="fill: #a50034; stroke: #a50034"/>
     <use xlink:href="#mf4c296ac75" x="260.9976" y="254.853209" style="fill: #a50034; stroke: #a50034"/>
     <use xlink:href="#mf4c296ac75" x="431.707444" y="274.396233" style="fill: #a50034; stroke: #a50034"/>
    </g>
   </g>
   <g id="PathCollection_3">
    <defs>
     <path id="mfa8a3ccad4" d="M 0 3 
C 0.795609 3 1.55874 2.683901 2.12132 2.12132 
C 2.683901 1.55874 3 0.795609 3 0 
C 3 -0.795609 2.683901 -1.55874 2.12132 -2.12132 
C 1.55874 -2.683901 0.795609 -3 0 -3 
C -0.795609 -3 -1.55874 -2.683901 -2.12132 -2.12132 
C -2.683901 -1.55874 -3 -0.795609 -3 0 
C -3 0.795609 -2.683901 1.55874 -2.12132 2.12132 
C -1.55874 2.683901 -0.795609 3 0 3 
z
" style="stroke: #ef60a3"/>
    </defs>
    <g clip-path="url(#pbc367afb7e)">
     <use xlink:href="#mfa8a3ccad4" x="240.914089" y="313.059554" style="fill: #ef60a3; stroke: #ef60a3"/>
     <use xlink:href="#mfa8a3ccad4" x="260.9976" y="316.60542" style="fill: #ef60a3; stroke: #ef60a3"/>
     <use xlink:href="#mfa8a3ccad4" x="431.707444" y="333.319107" style="fill: #ef60a3; stroke: #ef60a3"/>
    </g>
   </g>
   <g id="matplotlib.axis_1">
    <g id="xtick_1">
     <g id="line2d_1">
      <path d="M 80.246 359.08 
L 80.246 21.6 
" clip-path="url(#pbc367afb7e)" style="fill: none; stroke: #b0b0b0; stroke-width: 0.8; stroke-linecap: square"/>
     </g>
     <g id="line2d_2">
      <defs>
       <path id="me001b0f562" d="M 0 0 
L 0 3.5 
" style="stroke: #000000; stroke-width: 0.8"/>
      </defs>
      <g>
       <use xlink:href="#me001b0f562" x="80.246" y="359.08" style="stroke: #000000; stroke-width: 0.8"/>
      </g>
     </g>
     <g id="text_1">
      <!-- 0.00 -->
      <g transform="translate(57.980375 381.276875) scale(0.2 -0.2)">
       <defs>
        <path id="DejaVuSans-30" d="M 2034 4250 
Q 1547 4250 1301 3770 
Q 1056 3291 1056 2328 
Q 1056 1369 1301 889 
Q 1547 409 2034 409 
Q 2525 409 2770 889 
Q 3016 1369 3016 2328 
Q 3016 3291 2770 3770 
Q 2525 4250 2034 4250 
z
M 2034 4750 
Q 2819 4750 3233 4129 
Q 3647 3509 3647 2328 
Q 3647 1150 3233 529 
Q 2819 -91 2034 -91 
Q 1250 -91 836 529 
Q 422 1150 422 2328 
Q 422 3509 836 4129 
Q 1250 4750 2034 4750 
z
" transform="scale(0.015625)"/>
        <path id="DejaVuSans-2e" d="M 684 794 
L 1344 794 
L 1344 0 
L 684 0 
L 684 794 
z
" transform="scale(0.015625)"/>
       </defs>
       <use xlink:href="#DejaVuSans-30"/>
       <use xlink:href="#DejaVuSans-2e" x="63.623047"/>
       <use xlink:href="#DejaVuSans-30" x="95.410156"/>
       <use xlink:href="#DejaVuSans-30" x="159.033203"/>
      </g>
     </g>
    </g>
    <g id="xtick_2">
     <g id="line2d_3">
      <path d="M 155.559167 359.08 
L 155.559167 21.6 
" clip-path="url(#pbc367afb7e)" style="fill: none; stroke: #b0b0b0; stroke-width: 0.8; stroke-linecap: square"/>
     </g>
     <g id="line2d_4">
      <g>
       <use xlink:href="#me001b0f562" x="155.559167" y="359.08" style="stroke: #000000; stroke-width: 0.8"/>
      </g>
     </g>
     <g id="text_2">
      <!-- 0.75 -->
      <g transform="translate(133.293542 381.276875) scale(0.2 -0.2)">
       <defs>
        <path id="DejaVuSans-37" d="M 525 4666 
L 3525 4666 
L 3525 4397 
L 1831 0 
L 1172 0 
L 2766 4134 
L 525 4134 
L 525 4666 
z
" transform="scale(0.015625)"/>
        <path id="DejaVuSans-35" d="M 691 4666 
L 3169 4666 
L 3169 4134 
L 1269 4134 
L 1269 2991 
Q 1406 3038 1543 3061 
Q 1681 3084 1819 3084 
Q 2600 3084 3056 2656 
Q 3513 2228 3513 1497 
Q 3513 744 3044 326 
Q 2575 -91 1722 -91 
Q 1428 -91 1123 -41 
Q 819 9 494 109 
L 494 744 
Q 775 591 1075 516 
Q 1375 441 1709 441 
Q 2250 441 2565 725 
Q 2881 1009 2881 1497 
Q 2881 1984 2565 2268 
Q 2250 2553 1709 2553 
Q 1456 2553 1204 2497 
Q 953 2441 691 2322 
L 691 4666 
z
" transform="scale(0.015625)"/>
       </defs>
       <use xlink:href="#DejaVuSans-30"/>
       <use xlink:href="#DejaVuSans-2e" x="63.623047"/>
       <use xlink:href="#DejaVuSans-37" x="95.410156"/>
       <use xlink:href="#DejaVuSans-35" x="159.033203"/>
      </g>
     </g>
    </g>
    <g id="xtick_3">
     <g id="line2d_5">
      <path d="M 230.872333 359.08 
L 230.872333 21.6 
" clip-path="url(#pbc367afb7e)" style="fill: none; stroke: #b0b0b0; stroke-width: 0.8; stroke-linecap: square"/>
     </g>
     <g id="line2d_6">
      <g>
       <use xlink:href="#me001b0f562" x="230.872333" y="359.08" style="stroke: #000000; stroke-width: 0.8"/>
      </g>
     </g>
     <g id="text_3">
      <!-- 1.50 -->
      <g transform="translate(208.606708 381.276875) scale(0.2 -0.2)">
       <defs>
        <path id="DejaVuSans-31" d="M 794 531 
L 1825 531 
L 1825 4091 
L 703 3866 
L 703 4441 
L 1819 4666 
L 2450 4666 
L 2450 531 
L 3481 531 
L 3481 0 
L 794 0 
L 794 531 
z
" transform="scale(0.015625)"/>
       </defs>
       <use xlink:href="#DejaVuSans-31"/>
       <use xlink:href="#DejaVuSans-2e" x="63.623047"/>
       <use xlink:href="#DejaVuSans-35" x="95.410156"/>
       <use xlink:href="#DejaVuSans-30" x="159.033203"/>
      </g>
     </g>
    </g>
    <g id="xtick_4">
     <g id="line2d_7">
      <path d="M 306.1855 359.08 
L 306.1855 21.6 
" clip-path="url(#pbc367afb7e)" style="fill: none; stroke: #b0b0b0; stroke-width: 0.8; stroke-linecap: square"/>
     </g>
     <g id="line2d_8">
      <g>
       <use xlink:href="#me001b0f562" x="306.1855" y="359.08" style="stroke: #000000; stroke-width: 0.8"/>
      </g>
     </g>
     <g id="text_4">
      <!-- 2.25 -->
      <g transform="translate(283.919875 381.276875) scale(0.2 -0.2)">
       <defs>
        <path id="DejaVuSans-32" d="M 1228 531 
L 3431 531 
L 3431 0 
L 469 0 
L 469 531 
Q 828 903 1448 1529 
Q 2069 2156 2228 2338 
Q 2531 2678 2651 2914 
Q 2772 3150 2772 3378 
Q 2772 3750 2511 3984 
Q 2250 4219 1831 4219 
Q 1534 4219 1204 4116 
Q 875 4013 500 3803 
L 500 4441 
Q 881 4594 1212 4672 
Q 1544 4750 1819 4750 
Q 2544 4750 2975 4387 
Q 3406 4025 3406 3419 
Q 3406 3131 3298 2873 
Q 3191 2616 2906 2266 
Q 2828 2175 2409 1742 
Q 1991 1309 1228 531 
z
" transform="scale(0.015625)"/>
       </defs>
       <use xlink:href="#DejaVuSans-32"/>
       <use xlink:href="#DejaVuSans-2e" x="63.623047"/>
       <use xlink:href="#DejaVuSans-32" x="95.410156"/>
       <use xlink:href="#DejaVuSans-35" x="159.033203"/>
      </g>
     </g>
    </g>
    <g id="xtick_5">
     <g id="line2d_9">
      <path d="M 381.498667 359.08 
L 381.498667 21.6 
" clip-path="url(#pbc367afb7e)" style="fill: none; stroke: #b0b0b0; stroke-width: 0.8; stroke-linecap: square"/>
     </g>
     <g id="line2d_10">
      <g>
       <use xlink:href="#me001b0f562" x="381.498667" y="359.08" style="stroke: #000000; stroke-width: 0.8"/>
      </g>
     </g>
     <g id="text_5">
      <!-- 3.00 -->
      <g transform="translate(359.233042 381.276875) scale(0.2 -0.2)">
       <defs>
        <path id="DejaVuSans-33" d="M 2597 2516 
Q 3050 2419 3304 2112 
Q 3559 1806 3559 1356 
Q 3559 666 3084 287 
Q 2609 -91 1734 -91 
Q 1441 -91 1130 -33 
Q 819 25 488 141 
L 488 750 
Q 750 597 1062 519 
Q 1375 441 1716 441 
Q 2309 441 2620 675 
Q 2931 909 2931 1356 
Q 2931 1769 2642 2001 
Q 2353 2234 1838 2234 
L 1294 2234 
L 1294 2753 
L 1863 2753 
Q 2328 2753 2575 2939 
Q 2822 3125 2822 3475 
Q 2822 3834 2567 4026 
Q 2313 4219 1838 4219 
Q 1578 4219 1281 4162 
Q 984 4106 628 3988 
L 628 4550 
Q 988 4650 1302 4700 
Q 1616 4750 1894 4750 
Q 2613 4750 3031 4423 
Q 3450 4097 3450 3541 
Q 3450 3153 3228 2886 
Q 3006 2619 2597 2516 
z
" transform="scale(0.015625)"/>
       </defs>
       <use xlink:href="#DejaVuSans-33"/>
       <use xlink:href="#DejaVuSans-2e" x="63.623047"/>
       <use xlink:href="#DejaVuSans-30" x="95.410156"/>
       <use xlink:href="#DejaVuSans-30" x="159.033203"/>
      </g>
     </g>
    </g>
    <g id="xtick_6">
     <g id="line2d_11">
      <path d="M 456.811833 359.08 
L 456.811833 21.6 
" clip-path="url(#pbc367afb7e)" style="fill: none; stroke: #b0b0b0; stroke-width: 0.8; stroke-linecap: square"/>
     </g>
     <g id="line2d_12">
      <g>
       <use xlink:href="#me001b0f562" x="456.811833" y="359.08" style="stroke: #000000; stroke-width: 0.8"/>
      </g>
     </g>
     <g id="text_6">
      <!-- 3.75 -->
      <g transform="translate(434.546208 381.276875) scale(0.2 -0.2)">
       <use xlink:href="#DejaVuSans-33"/>
       <use xlink:href="#DejaVuSans-2e" x="63.623047"/>
       <use xlink:href="#DejaVuSans-37" x="95.410156"/>
       <use xlink:href="#DejaVuSans-35" x="159.033203"/>
      </g>
     </g>
    </g>
    <g id="xtick_7">
     <g id="line2d_13">
      <path d="M 532.125 359.08 
L 532.125 21.6 
" clip-path="url(#pbc367afb7e)" style="fill: none; stroke: #b0b0b0; stroke-width: 0.8; stroke-linecap: square"/>
     </g>
     <g id="line2d_14">
      <g>
       <use xlink:href="#me001b0f562" x="532.125" y="359.08" style="stroke: #000000; stroke-width: 0.8"/>
      </g>
     </g>
     <g id="text_7">
      <!-- 4.50 -->
      <g transform="translate(509.859375 381.276875) scale(0.2 -0.2)">
       <defs>
        <path id="DejaVuSans-34" d="M 2419 4116 
L 825 1625 
L 2419 1625 
L 2419 4116 
z
M 2253 4666 
L 3047 4666 
L 3047 1625 
L 3713 1625 
L 3713 1100 
L 3047 1100 
L 3047 0 
L 2419 0 
L 2419 1100 
L 313 1100 
L 313 1709 
L 2253 4666 
z
" transform="scale(0.015625)"/>
       </defs>
       <use xlink:href="#DejaVuSans-34"/>
       <use xlink:href="#DejaVuSans-2e" x="63.623047"/>
       <use xlink:href="#DejaVuSans-35" x="95.410156"/>
       <use xlink:href="#DejaVuSans-30" x="159.033203"/>
      </g>
     </g>
    </g>
    <g id="text_8">
     <!-- J [-] -->
     <g transform="translate(288.646438 404.633125) scale(0.2 -0.2)">
      <defs>
       <path id="DejaVuSans-4a" d="M 628 4666 
L 1259 4666 
L 1259 325 
Q 1259 -519 939 -900 
Q 619 -1281 -91 -1281 
L -331 -1281 
L -331 -750 
L -134 -750 
Q 284 -750 456 -515 
Q 628 -281 628 325 
L 628 4666 
z
" transform="scale(0.015625)"/>
       <path id="DejaVuSans-20" transform="scale(0.015625)"/>
       <path id="DejaVuSans-5b" d="M 550 4863 
L 1875 4863 
L 1875 4416 
L 1125 4416 
L 1125 -397 
L 1875 -397 
L 1875 -844 
L 550 -844 
L 550 4863 
z
" transform="scale(0.015625)"/>
       <path id="DejaVuSans-2d" d="M 313 2009 
L 1997 2009 
L 1997 1497 
L 313 1497 
L 313 2009 
z
" transform="scale(0.015625)"/>
       <path id="DejaVuSans-5d" d="M 1947 4863 
L 1947 -844 
L 622 -844 
L 622 -397 
L 1369 -397 
L 1369 4416 
L 622 4416 
L 622 4863 
L 1947 4863 
z
" transform="scale(0.015625)"/>
      </defs>
      <use xlink:href="#DejaVuSans-4a"/>
      <use xlink:href="#DejaVuSans-20" x="29.492188"/>
      <use xlink:href="#DejaVuSans-5b" x="61.279297"/>
      <use xlink:href="#DejaVuSans-2d" x="100.292969"/>
      <use xlink:href="#DejaVuSans-5d" x="136.376953"/>
     </g>
    </g>
   </g>
   <g id="matplotlib.axis_2">
    <g id="ytick_1">
     <g id="line2d_15">
      <path d="M 80.246 338.456959 
L 532.125 338.456959 
" clip-path="url(#pbc367afb7e)" style="fill: none; stroke: #b0b0b0; stroke-width: 0.8; stroke-linecap: square"/>
     </g>
     <g id="line2d_16">
      <defs>
       <path id="m00af70141c" d="M 0 0 
L -3.5 0 
" style="stroke: #000000; stroke-width: 0.8"/>
      </defs>
      <g>
       <use xlink:href="#m00af70141c" x="80.246" y="338.456959" style="stroke: #000000; stroke-width: 0.8"/>
      </g>
     </g>
     <g id="text_9">
      <!-- 8 -->
      <g transform="translate(60.521 346.055397) scale(0.2 -0.2)">
       <defs>
        <path id="DejaVuSans-38" d="M 2034 2216 
Q 1584 2216 1326 1975 
Q 1069 1734 1069 1313 
Q 1069 891 1326 650 
Q 1584 409 2034 409 
Q 2484 409 2743 651 
Q 3003 894 3003 1313 
Q 3003 1734 2745 1975 
Q 2488 2216 2034 2216 
z
M 1403 2484 
Q 997 2584 770 2862 
Q 544 3141 544 3541 
Q 544 4100 942 4425 
Q 1341 4750 2034 4750 
Q 2731 4750 3128 4425 
Q 3525 4100 3525 3541 
Q 3525 3141 3298 2862 
Q 3072 2584 2669 2484 
Q 3125 2378 3379 2068 
Q 3634 1759 3634 1313 
Q 3634 634 3220 271 
Q 2806 -91 2034 -91 
Q 1263 -91 848 271 
Q 434 634 434 1313 
Q 434 1759 690 2068 
Q 947 2378 1403 2484 
z
M 1172 3481 
Q 1172 3119 1398 2916 
Q 1625 2713 2034 2713 
Q 2441 2713 2670 2916 
Q 2900 3119 2900 3481 
Q 2900 3844 2670 4047 
Q 2441 4250 2034 4250 
Q 1625 4250 1398 4047 
Q 1172 3844 1172 3481 
z
" transform="scale(0.015625)"/>
       </defs>
       <use xlink:href="#DejaVuSans-38"/>
      </g>
     </g>
    </g>
    <g id="ytick_2">
     <g id="line2d_17">
      <path d="M 80.246 269.934801 
L 532.125 269.934801 
" clip-path="url(#pbc367afb7e)" style="fill: none; stroke: #b0b0b0; stroke-width: 0.8; stroke-linecap: square"/>
     </g>
     <g id="line2d_18">
      <g>
       <use xlink:href="#m00af70141c" x="80.246" y="269.934801" style="stroke: #000000; stroke-width: 0.8"/>
      </g>
     </g>
     <g id="text_10">
      <!-- 10 -->
      <g transform="translate(47.796 277.533239) scale(0.2 -0.2)">
       <use xlink:href="#DejaVuSans-31"/>
       <use xlink:href="#DejaVuSans-30" x="63.623047"/>
      </g>
     </g>
    </g>
    <g id="ytick_3">
     <g id="line2d_19">
      <path d="M 80.246 201.412643 
L 532.125 201.412643 
" clip-path="url(#pbc367afb7e)" style="fill: none; stroke: #b0b0b0; stroke-width: 0.8; stroke-linecap: square"/>
     </g>
     <g id="line2d_20">
      <g>
       <use xlink:href="#m00af70141c" x="80.246" y="201.412643" style="stroke: #000000; stroke-width: 0.8"/>
      </g>
     </g>
     <g id="text_11">
      <!-- 12 -->
      <g transform="translate(47.796 209.011081) scale(0.2 -0.2)">
       <use xlink:href="#DejaVuSans-31"/>
       <use xlink:href="#DejaVuSans-32" x="63.623047"/>
      </g>
     </g>
    </g>
    <g id="ytick_4">
     <g id="line2d_21">
      <path d="M 80.246 132.890485 
L 532.125 132.890485 
" clip-path="url(#pbc367afb7e)" style="fill: none; stroke: #b0b0b0; stroke-width: 0.8; stroke-linecap: square"/>
     </g>
     <g id="line2d_22">
      <g>
       <use xlink:href="#m00af70141c" x="80.246" y="132.890485" style="stroke: #000000; stroke-width: 0.8"/>
      </g>
     </g>
     <g id="text_12">
      <!-- 14 -->
      <g transform="translate(47.796 140.488923) scale(0.2 -0.2)">
       <use xlink:href="#DejaVuSans-31"/>
       <use xlink:href="#DejaVuSans-34" x="63.623047"/>
      </g>
     </g>
    </g>
    <g id="ytick_5">
     <g id="line2d_23">
      <path d="M 80.246 64.368327 
L 532.125 64.368327 
" clip-path="url(#pbc367afb7e)" style="fill: none; stroke: #b0b0b0; stroke-width: 0.8; stroke-linecap: square"/>
     </g>
     <g id="line2d_24">
      <g>
       <use xlink:href="#m00af70141c" x="80.246" y="64.368327" style="stroke: #000000; stroke-width: 0.8"/>
      </g>
     </g>
     <g id="text_13">
      <!-- 16 -->
      <g transform="translate(47.796 71.966764) scale(0.2 -0.2)">
       <defs>
        <path id="DejaVuSans-36" d="M 2113 2584 
Q 1688 2584 1439 2293 
Q 1191 2003 1191 1497 
Q 1191 994 1439 701 
Q 1688 409 2113 409 
Q 2538 409 2786 701 
Q 3034 994 3034 1497 
Q 3034 2003 2786 2293 
Q 2538 2584 2113 2584 
z
M 3366 4563 
L 3366 3988 
Q 3128 4100 2886 4159 
Q 2644 4219 2406 4219 
Q 1781 4219 1451 3797 
Q 1122 3375 1075 2522 
Q 1259 2794 1537 2939 
Q 1816 3084 2150 3084 
Q 2853 3084 3261 2657 
Q 3669 2231 3669 1497 
Q 3669 778 3244 343 
Q 2819 -91 2113 -91 
Q 1303 -91 875 529 
Q 447 1150 447 2328 
Q 447 3434 972 4092 
Q 1497 4750 2381 4750 
Q 2619 4750 2861 4703 
Q 3103 4656 3366 4563 
z
" transform="scale(0.015625)"/>
       </defs>
       <use xlink:href="#DejaVuSans-31"/>
       <use xlink:href="#DejaVuSans-36" x="63.623047"/>
      </g>
     </g>
    </g>
    <g id="text_14">
     <!-- $C_L$/$C_D$ [-] (trim) -->
     <g transform="translate(39.636625 263.64) rotate(-90) scale(0.2 -0.2)">
      <defs>
       <path id="DejaVuSans-Oblique-43" d="M 4447 4306 
L 4319 3641 
Q 4019 3944 3683 4091 
Q 3347 4238 2956 4238 
Q 2422 4238 2017 3981 
Q 1613 3725 1319 3200 
Q 1131 2863 1032 2486 
Q 934 2109 934 1728 
Q 934 1091 1264 756 
Q 1594 422 2222 422 
Q 2656 422 3056 561 
Q 3456 700 3834 978 
L 3688 231 
Q 3316 72 2936 -9 
Q 2556 -91 2175 -91 
Q 1278 -91 773 396 
Q 269 884 269 1753 
Q 269 2309 461 2846 
Q 653 3384 1013 3828 
Q 1394 4300 1883 4525 
Q 2372 4750 3022 4750 
Q 3422 4750 3780 4639 
Q 4138 4528 4447 4306 
z
" transform="scale(0.015625)"/>
       <path id="DejaVuSans-Oblique-4c" d="M 1075 4666 
L 1709 4666 
L 909 525 
L 3181 525 
L 3078 0 
L 172 0 
L 1075 4666 
z
" transform="scale(0.015625)"/>
       <path id="DejaVuSans-2f" d="M 1625 4666 
L 2156 4666 
L 531 -594 
L 0 -594 
L 1625 4666 
z
" transform="scale(0.015625)"/>
       <path id="DejaVuSans-Oblique-44" d="M 1081 4666 
L 2438 4666 
Q 3519 4666 4070 4208 
Q 4622 3750 4622 2847 
Q 4622 2250 4412 1698 
Q 4203 1147 3834 769 
Q 3463 381 2891 190 
Q 2319 0 1538 0 
L 172 0 
L 1081 4666 
z
M 1613 4147 
L 909 519 
L 1734 519 
Q 2794 519 3375 1128 
Q 3956 1738 3956 2847 
Q 3956 3519 3581 3833 
Q 3206 4147 2406 4147 
L 1613 4147 
z
" transform="scale(0.015625)"/>
       <path id="DejaVuSans-28" d="M 1984 4856 
Q 1566 4138 1362 3434 
Q 1159 2731 1159 2009 
Q 1159 1288 1364 580 
Q 1569 -128 1984 -844 
L 1484 -844 
Q 1016 -109 783 600 
Q 550 1309 550 2009 
Q 550 2706 781 3412 
Q 1013 4119 1484 4856 
L 1984 4856 
z
" transform="scale(0.015625)"/>
       <path id="DejaVuSans-74" d="M 1172 4494 
L 1172 3500 
L 2356 3500 
L 2356 3053 
L 1172 3053 
L 1172 1153 
Q 1172 725 1289 603 
Q 1406 481 1766 481 
L 2356 481 
L 2356 0 
L 1766 0 
Q 1100 0 847 248 
Q 594 497 594 1153 
L 594 3053 
L 172 3053 
L 172 3500 
L 594 3500 
L 594 4494 
L 1172 4494 
z
" transform="scale(0.015625)"/>
       <path id="DejaVuSans-72" d="M 2631 2963 
Q 2534 3019 2420 3045 
Q 2306 3072 2169 3072 
Q 1681 3072 1420 2755 
Q 1159 2438 1159 1844 
L 1159 0 
L 581 0 
L 581 3500 
L 1159 3500 
L 1159 2956 
Q 1341 3275 1631 3429 
Q 1922 3584 2338 3584 
Q 2397 3584 2469 3576 
Q 2541 3569 2628 3553 
L 2631 2963 
z
" transform="scale(0.015625)"/>
       <path id="DejaVuSans-69" d="M 603 3500 
L 1178 3500 
L 1178 0 
L 603 0 
L 603 3500 
z
M 603 4863 
L 1178 4863 
L 1178 4134 
L 603 4134 
L 603 4863 
z
" transform="scale(0.015625)"/>
       <path id="DejaVuSans-6d" d="M 3328 2828 
Q 3544 3216 3844 3400 
Q 4144 3584 4550 3584 
Q 5097 3584 5394 3201 
Q 5691 2819 5691 2113 
L 5691 0 
L 5113 0 
L 5113 2094 
Q 5113 2597 4934 2840 
Q 4756 3084 4391 3084 
Q 3944 3084 3684 2787 
Q 3425 2491 3425 1978 
L 3425 0 
L 2847 0 
L 2847 2094 
Q 2847 2600 2669 2842 
Q 2491 3084 2119 3084 
Q 1678 3084 1418 2786 
Q 1159 2488 1159 1978 
L 1159 0 
L 581 0 
L 581 3500 
L 1159 3500 
L 1159 2956 
Q 1356 3278 1631 3431 
Q 1906 3584 2284 3584 
Q 2666 3584 2933 3390 
Q 3200 3197 3328 2828 
z
" transform="scale(0.015625)"/>
       <path id="DejaVuSans-29" d="M 513 4856 
L 1013 4856 
Q 1481 4119 1714 3412 
Q 1947 2706 1947 2009 
Q 1947 1309 1714 600 
Q 1481 -109 1013 -844 
L 513 -844 
Q 928 -128 1133 580 
Q 1338 1288 1338 2009 
Q 1338 2731 1133 3434 
Q 928 4138 513 4856 
z
" transform="scale(0.015625)"/>
      </defs>
      <use xlink:href="#DejaVuSans-Oblique-43" transform="translate(0 0.015625)"/>
      <use xlink:href="#DejaVuSans-Oblique-4c" transform="translate(69.824219 -16.390625) scale(0.7)"/>
      <use xlink:href="#DejaVuSans-2f" transform="translate(111.557617 0.015625)"/>
      <use xlink:href="#DejaVuSans-Oblique-43" transform="translate(145.249023 0.015625)"/>
      <use xlink:href="#DejaVuSans-Oblique-44" transform="translate(215.073242 -16.390625) scale(0.7)"/>
      <use xlink:href="#DejaVuSans-20" transform="translate(271.708984 0.015625)"/>
      <use xlink:href="#DejaVuSans-5b" transform="translate(303.496094 0.015625)"/>
      <use xlink:href="#DejaVuSans-2d" transform="translate(342.509766 0.015625)"/>
      <use xlink:href="#DejaVuSans-5d" transform="translate(378.59375 0.015625)"/>
      <use xlink:href="#DejaVuSans-20" transform="translate(417.607422 0.015625)"/>
      <use xlink:href="#DejaVuSans-28" transform="translate(449.394531 0.015625)"/>
      <use xlink:href="#DejaVuSans-74" transform="translate(488.408203 0.015625)"/>
      <use xlink:href="#DejaVuSans-72" transform="translate(527.617188 0.015625)"/>
      <use xlink:href="#DejaVuSans-69" transform="translate(568.730469 0.015625)"/>
      <use xlink:href="#DejaVuSans-6d" transform="translate(596.513672 0.015625)"/>
      <use xlink:href="#DejaVuSans-29" transform="translate(693.925781 0.015625)"/>
     </g>
    </g>
   </g>
   <g id="line2d_25">
    <path d="M 80.246 36.94 
L 84.810434 37.612677 
L 89.374869 38.285354 
L 93.939303 38.958031 
L 98.503737 39.630708 
L 103.068172 40.303385 
L 107.632606 40.976063 
L 112.19704 41.64874 
L 116.761475 42.321417 
L 121.325909 42.994094 
L 125.890343 43.666771 
L 130.454778 44.339448 
L 135.019212 45.012125 
L 139.583646 45.684802 
L 144.148081 46.357479 
L 148.712515 47.030156 
L 153.276949 47.702834 
L 157.841384 48.375511 
L 162.405818 49.048188 
L 166.970253 49.720865 
L 171.534687 50.393542 
L 176.099121 51.066219 
L 180.663556 51.738896 
L 185.22799 52.411573 
L 189.792424 53.08425 
L 194.356859 53.756927 
L 198.921293 54.429605 
L 203.485727 55.102282 
L 208.050162 55.774959 
L 212.614596 56.447636 
L 217.17903 57.120313 
L 221.743465 57.79299 
L 226.307899 58.465667 
L 230.872333 59.138344 
L 235.436768 59.811021 
L 240.001202 60.483698 
L 244.565636 61.156376 
L 249.130071 61.829053 
L 253.694505 62.50173 
L 258.258939 63.174407 
L 262.823374 63.847084 
L 267.387808 64.519761 
L 271.952242 65.192438 
L 276.516677 65.865115 
L 281.081111 66.537792 
L 285.645545 67.210469 
L 290.20998 67.883147 
L 294.774414 68.555824 
L 299.338848 69.228501 
L 303.903283 69.901178 
L 308.467717 70.573855 
L 313.032152 71.246532 
L 317.596586 71.919209 
L 322.16102 72.591886 
L 326.725455 73.264563 
L 331.289889 73.93724 
L 335.854323 74.609917 
L 340.418758 75.282595 
L 344.983192 75.955272 
L 349.547626 76.627949 
L 354.112061 77.300626 
L 358.676495 77.973303 
L 363.240929 78.64598 
L 367.805364 79.318657 
L 372.369798 79.991334 
L 376.934232 80.664011 
L 381.498667 81.336688 
L 386.063101 82.009366 
L 390.627535 82.682043 
L 395.19197 83.35472 
L 399.756404 84.027397 
L 404.320838 84.700074 
L 408.885273 85.372751 
L 413.449707 86.045428 
L 418.014141 86.718105 
L 422.578576 87.390782 
L 427.14301 88.063459 
L 431.707444 88.736137 
L 436.271879 89.408814 
L 440.836313 90.081491 
L 445.400747 90.754168 
L 449.965182 91.426845 
L 454.529616 92.099522 
L 459.094051 92.772199 
L 463.658485 93.444876 
L 468.222919 94.117553 
L 472.787354 94.79023 
L 477.351788 95.462908 
L 481.916222 96.135585 
L 486.480657 96.808262 
L 491.045091 97.480939 
L 495.609525 98.153616 
L 500.17396 98.826293 
L 504.738394 99.49897 
L 509.302828 100.171647 
L 513.867263 100.844324 
L 518.431697 101.517001 
L 522.996131 102.189679 
L 527.560566 102.862356 
L 532.125 103.535033 
" clip-path="url(#pbc367afb7e)" style="fill: none; stroke-dasharray: 9.6,2.4,1.5,2.4; stroke-dashoffset: 0; stroke: #00a6b6; stroke-width: 1.5"/>
   </g>
   <g id="line2d_26">
    <path d="M 80.246 231.383795 
L 84.810434 231.944147 
L 89.374869 232.504499 
L 93.939303 233.064851 
L 98.503737 233.625203 
L 103.068172 234.185556 
L 107.632606 234.745908 
L 112.19704 235.30626 
L 116.761475 235.866612 
L 121.325909 236.426964 
L 125.890343 236.987317 
L 130.454778 237.547669 
L 135.019212 238.108021 
L 139.583646 238.668373 
L 144.148081 239.228725 
L 148.712515 239.789078 
L 153.276949 240.34943 
L 157.841384 240.909782 
L 162.405818 241.470134 
L 166.970253 242.030486 
L 171.534687 242.590839 
L 176.099121 243.151191 
L 180.663556 243.711543 
L 185.22799 244.271895 
L 189.792424 244.832247 
L 194.356859 245.392599 
L 198.921293 245.952952 
L 203.485727 246.513304 
L 208.050162 247.073656 
L 212.614596 247.634008 
L 217.17903 248.19436 
L 221.743465 248.754713 
L 226.307899 249.315065 
L 230.872333 249.875417 
L 235.436768 250.435769 
L 240.001202 250.996121 
L 244.565636 251.556474 
L 249.130071 252.116826 
L 253.694505 252.677178 
L 258.258939 253.23753 
L 262.823374 253.797882 
L 267.387808 254.358235 
L 271.952242 254.918587 
L 276.516677 255.478939 
L 281.081111 256.039291 
L 285.645545 256.599643 
L 290.20998 257.159996 
L 294.774414 257.720348 
L 299.338848 258.2807 
L 303.903283 258.841052 
L 308.467717 259.401404 
L 313.032152 259.961757 
L 317.596586 260.522109 
L 322.16102 261.082461 
L 326.725455 261.642813 
L 331.289889 262.203165 
L 335.854323 262.763518 
L 340.418758 263.32387 
L 344.983192 263.884222 
L 349.547626 264.444574 
L 354.112061 265.004926 
L 358.676495 265.565279 
L 363.240929 266.125631 
L 367.805364 266.685983 
L 372.369798 267.246335 
L 376.934232 267.806687 
L 381.498667 268.367039 
L 386.063101 268.927392 
L 390.627535 269.487744 
L 395.19197 270.048096 
L 399.756404 270.608448 
L 404.320838 271.1688 
L 408.885273 271.729153 
L 413.449707 272.289505 
L 418.014141 272.849857 
L 422.578576 273.410209 
L 427.14301 273.970561 
L 431.707444 274.530914 
L 436.271879 275.091266 
L 440.836313 275.651618 
L 445.400747 276.21197 
L 449.965182 276.772322 
L 454.529616 277.332675 
L 459.094051 277.893027 
L 463.658485 278.453379 
L 468.222919 279.013731 
L 472.787354 279.574083 
L 477.351788 280.134436 
L 481.916222 280.694788 
L 486.480657 281.25514 
L 491.045091 281.815492 
L 495.609525 282.375844 
L 500.17396 282.936197 
L 504.738394 283.496549 
L 509.302828 284.056901 
L 513.867263 284.617253 
L 518.431697 285.177605 
L 522.996131 285.737958 
L 527.560566 286.29831 
L 532.125 286.858662 
" clip-path="url(#pbc367afb7e)" style="fill: none; stroke-dasharray: 9.6,2.4,1.5,2.4; stroke-dashoffset: 0; stroke: #a50034; stroke-width: 1.5"/>
   </g>
   <g id="line2d_27">
    <path d="M 80.246 297.215509 
L 84.810434 297.685454 
L 89.374869 298.155398 
L 93.939303 298.625342 
L 98.503737 299.095287 
L 103.068172 299.565231 
L 107.632606 300.035175 
L 112.19704 300.50512 
L 116.761475 300.975064 
L 121.325909 301.445008 
L 125.890343 301.914953 
L 130.454778 302.384897 
L 135.019212 302.854841 
L 139.583646 303.324786 
L 144.148081 303.79473 
L 148.712515 304.264674 
L 153.276949 304.734619 
L 157.841384 305.204563 
L 162.405818 305.674508 
L 166.970253 306.144452 
L 171.534687 306.614396 
L 176.099121 307.084341 
L 180.663556 307.554285 
L 185.22799 308.024229 
L 189.792424 308.494174 
L 194.356859 308.964118 
L 198.921293 309.434062 
L 203.485727 309.904007 
L 208.050162 310.373951 
L 212.614596 310.843895 
L 217.17903 311.31384 
L 221.743465 311.783784 
L 226.307899 312.253728 
L 230.872333 312.723673 
L 235.436768 313.193617 
L 240.001202 313.663562 
L 244.565636 314.133506 
L 249.130071 314.60345 
L 253.694505 315.073395 
L 258.258939 315.543339 
L 262.823374 316.013283 
L 267.387808 316.483228 
L 271.952242 316.953172 
L 276.516677 317.423116 
L 281.081111 317.893061 
L 285.645545 318.363005 
L 290.20998 318.832949 
L 294.774414 319.302894 
L 299.338848 319.772838 
L 303.903283 320.242782 
L 308.467717 320.712727 
L 313.032152 321.182671 
L 317.596586 321.652615 
L 322.16102 322.12256 
L 326.725455 322.592504 
L 331.289889 323.062449 
L 335.854323 323.532393 
L 340.418758 324.002337 
L 344.983192 324.472282 
L 349.547626 324.942226 
L 354.112061 325.41217 
L 358.676495 325.882115 
L 363.240929 326.352059 
L 367.805364 326.822003 
L 372.369798 327.291948 
L 376.934232 327.761892 
L 381.498667 328.231836 
L 386.063101 328.701781 
L 390.627535 329.171725 
L 395.19197 329.641669 
L 399.756404 330.111614 
L 404.320838 330.581558 
L 408.885273 331.051503 
L 413.449707 331.521447 
L 418.014141 331.991391 
L 422.578576 332.461336 
L 427.14301 332.93128 
L 431.707444 333.401224 
L 436.271879 333.871169 
L 440.836313 334.341113 
L 445.400747 334.811057 
L 449.965182 335.281002 
L 454.529616 335.750946 
L 459.094051 336.22089 
L 463.658485 336.690835 
L 468.222919 337.160779 
L 472.787354 337.630723 
L 477.351788 338.100668 
L 481.916222 338.570612 
L 486.480657 339.040556 
L 491.045091 339.510501 
L 495.609525 339.980445 
L 500.17396 340.45039 
L 504.738394 340.920334 
L 509.302828 341.390278 
L 513.867263 341.860223 
L 518.431697 342.330167 
L 522.996131 342.800111 
L 527.560566 343.270056 
L 532.125 343.74 
" clip-path="url(#pbc367afb7e)" style="fill: none; stroke-dasharray: 9.6,2.4,1.5,2.4; stroke-dashoffset: 0; stroke: #ef60a3; stroke-width: 1.5"/>
   </g>
   <g id="patch_3">
    <path d="M 80.246 359.08 
L 80.246 21.6 
" style="fill: none; stroke: #000000; stroke-width: 0.8; stroke-linejoin: miter; stroke-linecap: square"/>
   </g>
   <g id="patch_4">
    <path d="M 532.125 359.08 
L 532.125 21.6 
" style="fill: none; stroke: #000000; stroke-width: 0.8; stroke-linejoin: miter; stroke-linecap: square"/>
   </g>
   <g id="patch_5">
    <path d="M 80.246 359.08 
L 532.125 359.08 
" style="fill: none; stroke: #000000; stroke-width: 0.8; stroke-linejoin: miter; stroke-linecap: square"/>
   </g>
   <g id="patch_6">
    <path d="M 80.246 21.6 
L 532.125 21.6 
" style="fill: none; stroke: #000000; stroke-width: 0.8; stroke-linejoin: miter; stroke-linecap: square"/>
   </g>
   <g id="legend_1">
    <g id="patch_7">
     <path d="M 341.925 237.44 
L 518.125 237.44 
Q 522.125 237.44 522.125 233.44 
L 522.125 147.24 
Q 522.125 143.24 518.125 143.24 
L 341.925 143.24 
Q 337.925 143.24 337.925 147.24 
L 337.925 233.44 
Q 337.925 237.44 341.925 237.44 
z
" style="fill: #ffffff; opacity: 0.8; stroke: #cccccc; stroke-linejoin: miter"/>
    </g>
    <g id="line2d_28">
     <path d="M 345.925 159.44 
L 365.925 159.44 
L 385.925 159.44 
" style="fill: none; stroke-dasharray: 9.6,2.4,1.5,2.4; stroke-dashoffset: 0; stroke: #00a6b6; stroke-width: 1.5"/>
    </g>
    <g id="text_15">
     <!-- $\alpha$ = 7 deg -->
     <g transform="translate(401.925 166.44) scale(0.2 -0.2)">
      <defs>
       <path id="DejaVuSans-Oblique-3b1" d="M 2619 1628 
L 2622 2350 
Q 2625 3088 2069 3091 
Q 1653 3094 1394 2747 
Q 1069 2319 959 1747 
Q 825 1059 994 731 
Q 1169 397 1547 397 
Q 1966 397 2319 1063 
L 2619 1628 
z
M 2166 3578 
Q 3141 3594 3128 2584 
Q 3128 2584 3616 3500 
L 4128 3500 
L 3119 1603 
L 3109 919 
Q 3109 766 3194 638 
Q 3291 488 3391 488 
L 3669 488 
L 3575 0 
L 3228 0 
Q 2934 0 2722 263 
Q 2622 394 2619 669 
Q 2416 334 2066 50 
Q 1900 -81 1453 -78 
Q 722 -72 456 397 
Q 184 884 353 1747 
Q 534 2675 1009 3097 
Q 1544 3569 2166 3578 
z
" transform="scale(0.015625)"/>
       <path id="DejaVuSans-3d" d="M 678 2906 
L 4684 2906 
L 4684 2381 
L 678 2381 
L 678 2906 
z
M 678 1631 
L 4684 1631 
L 4684 1100 
L 678 1100 
L 678 1631 
z
" transform="scale(0.015625)"/>
       <path id="DejaVuSans-64" d="M 2906 2969 
L 2906 4863 
L 3481 4863 
L 3481 0 
L 2906 0 
L 2906 525 
Q 2725 213 2448 61 
Q 2172 -91 1784 -91 
Q 1150 -91 751 415 
Q 353 922 353 1747 
Q 353 2572 751 3078 
Q 1150 3584 1784 3584 
Q 2172 3584 2448 3432 
Q 2725 3281 2906 2969 
z
M 947 1747 
Q 947 1113 1208 752 
Q 1469 391 1925 391 
Q 2381 391 2643 752 
Q 2906 1113 2906 1747 
Q 2906 2381 2643 2742 
Q 2381 3103 1925 3103 
Q 1469 3103 1208 2742 
Q 947 2381 947 1747 
z
" transform="scale(0.015625)"/>
       <path id="DejaVuSans-65" d="M 3597 1894 
L 3597 1613 
L 953 1613 
Q 991 1019 1311 708 
Q 1631 397 2203 397 
Q 2534 397 2845 478 
Q 3156 559 3463 722 
L 3463 178 
Q 3153 47 2828 -22 
Q 2503 -91 2169 -91 
Q 1331 -91 842 396 
Q 353 884 353 1716 
Q 353 2575 817 3079 
Q 1281 3584 2069 3584 
Q 2775 3584 3186 3129 
Q 3597 2675 3597 1894 
z
M 3022 2063 
Q 3016 2534 2758 2815 
Q 2500 3097 2075 3097 
Q 1594 3097 1305 2825 
Q 1016 2553 972 2059 
L 3022 2063 
z
" transform="scale(0.015625)"/>
       <path id="DejaVuSans-67" d="M 2906 1791 
Q 2906 2416 2648 2759 
Q 2391 3103 1925 3103 
Q 1463 3103 1205 2759 
Q 947 2416 947 1791 
Q 947 1169 1205 825 
Q 1463 481 1925 481 
Q 2391 481 2648 825 
Q 2906 1169 2906 1791 
z
M 3481 434 
Q 3481 -459 3084 -895 
Q 2688 -1331 1869 -1331 
Q 1566 -1331 1297 -1286 
Q 1028 -1241 775 -1147 
L 775 -588 
Q 1028 -725 1275 -790 
Q 1522 -856 1778 -856 
Q 2344 -856 2625 -561 
Q 2906 -266 2906 331 
L 2906 616 
Q 2728 306 2450 153 
Q 2172 0 1784 0 
Q 1141 0 747 490 
Q 353 981 353 1791 
Q 353 2603 747 3093 
Q 1141 3584 1784 3584 
Q 2172 3584 2450 3431 
Q 2728 3278 2906 2969 
L 2906 3500 
L 3481 3500 
L 3481 434 
z
" transform="scale(0.015625)"/>
      </defs>
      <use xlink:href="#DejaVuSans-Oblique-3b1" transform="translate(0 0.015625)"/>
      <use xlink:href="#DejaVuSans-20" transform="translate(65.917969 0.015625)"/>
      <use xlink:href="#DejaVuSans-3d" transform="translate(97.705078 0.015625)"/>
      <use xlink:href="#DejaVuSans-20" transform="translate(181.494141 0.015625)"/>
      <use xlink:href="#DejaVuSans-37" transform="translate(213.28125 0.015625)"/>
      <use xlink:href="#DejaVuSans-20" transform="translate(276.904297 0.015625)"/>
      <use xlink:href="#DejaVuSans-64" transform="translate(308.691406 0.015625)"/>
      <use xlink:href="#DejaVuSans-65" transform="translate(372.167969 0.015625)"/>
      <use xlink:href="#DejaVuSans-67" transform="translate(433.691406 0.015625)"/>
     </g>
    </g>
    <g id="line2d_29">
     <path d="M 345.925 188.84 
L 365.925 188.84 
L 385.925 188.84 
" style="fill: none; stroke-dasharray: 9.6,2.4,1.5,2.4; stroke-dashoffset: 0; stroke: #a50034; stroke-width: 1.5"/>
    </g>
    <g id="text_16">
     <!-- $\alpha$ = 12 deg -->
     <g transform="translate(401.925 195.84) scale(0.2 -0.2)">
      <use xlink:href="#DejaVuSans-Oblique-3b1" transform="translate(0 0.015625)"/>
      <use xlink:href="#DejaVuSans-20" transform="translate(65.917969 0.015625)"/>
      <use xlink:href="#DejaVuSans-3d" transform="translate(97.705078 0.015625)"/>
      <use xlink:href="#DejaVuSans-20" transform="translate(181.494141 0.015625)"/>
      <use xlink:href="#DejaVuSans-31" transform="translate(213.28125 0.015625)"/>
      <use xlink:href="#DejaVuSans-32" transform="translate(276.904297 0.015625)"/>
      <use xlink:href="#DejaVuSans-20" transform="translate(340.527344 0.015625)"/>
      <use xlink:href="#DejaVuSans-64" transform="translate(372.314453 0.015625)"/>
      <use xlink:href="#DejaVuSans-65" transform="translate(435.791016 0.015625)"/>
      <use xlink:href="#DejaVuSans-67" transform="translate(497.314453 0.015625)"/>
     </g>
    </g>
    <g id="line2d_30">
     <path d="M 345.925 218.24 
L 365.925 218.24 
L 385.925 218.24 
" style="fill: none; stroke-dasharray: 9.6,2.4,1.5,2.4; stroke-dashoffset: 0; stroke: #ef60a3; stroke-width: 1.5"/>
    </g>
    <g id="text_17">
     <!-- $\alpha$ = 14 deg -->
     <g transform="translate(401.925 225.24) scale(0.2 -0.2)">
      <use xlink:href="#DejaVuSans-Oblique-3b1" transform="translate(0 0.015625)"/>
      <use xlink:href="#DejaVuSans-20" transform="translate(65.917969 0.015625)"/>
      <use xlink:href="#DejaVuSans-3d" transform="translate(97.705078 0.015625)"/>
      <use xlink:href="#DejaVuSans-20" transform="translate(181.494141 0.015625)"/>
      <use xlink:href="#DejaVuSans-31" transform="translate(213.28125 0.015625)"/>
      <use xlink:href="#DejaVuSans-34" transform="translate(276.904297 0.015625)"/>
      <use xlink:href="#DejaVuSans-20" transform="translate(340.527344 0.015625)"/>
      <use xlink:href="#DejaVuSans-64" transform="translate(372.314453 0.015625)"/>
      <use xlink:href="#DejaVuSans-65" transform="translate(435.791016 0.015625)"/>
      <use xlink:href="#DejaVuSans-67" transform="translate(497.314453 0.015625)"/>
     </g>
    </g>
   </g>
  </g>
 </g>
 <defs>
  <clipPath id="pbc367afb7e">
   <rect x="80.246" y="21.6" width="451.879" height="337.48"/>
  </clipPath>
 </defs>
</svg>
