<?xml version="1.0" encoding="utf-8" standalone="no"?>
<!DOCTYPE svg PUBLIC "-//W3C//DTD SVG 1.1//EN"
  "http://www.w3.org/Graphics/SVG/1.1/DTD/svg11.dtd">
<svg xmlns:xlink="http://www.w3.org/1999/xlink" width="576pt" height="432pt" viewBox="0 0 576 432" xmlns="http://www.w3.org/2000/svg" version="1.1">
 <metadata>
  <rdf:RDF xmlns:dc="http://purl.org/dc/elements/1.1/" xmlns:cc="http://creativecommons.org/ns#" xmlns:rdf="http://www.w3.org/1999/02/22-rdf-syntax-ns#">
   <cc:Work>
    <dc:type rdf:resource="http://purl.org/dc/dcmitype/StillImage"/>
    <dc:date>2024-04-02T21:11:15.330887</dc:date>
    <dc:format>image/svg+xml</dc:format>
    <dc:creator>
     <cc:Agent>
      <dc:title>Matplotlib v3.8.3, https://matplotlib.org/</dc:title>
     </cc:Agent>
    </dc:creator>
   </cc:Work>
  </rdf:RDF>
 </metadata>
 <defs>
  <style type="text/css">*{stroke-linejoin: round; stroke-linecap: butt}</style>
 </defs>
 <g id="figure_1">
  <g id="patch_1">
   <path d="M 0 432 
L 576 432 
L 576 0 
L 0 0 
z
" style="fill: #ffffff"/>
  </g>
  <g id="axes_1">
   <g id="patch_2">
    <path d="M 103.376 356.2 
L 541.71 356.2 
L 541.71 21.6 
L 103.376 21.6 
z
" style="fill: #ffffff"/>
   </g>
   <g id="PathCollection_1">
    <defs>
     <path id="md0f30ece2e" d="M 0 3 
C 0.795609 3 1.55874 2.683901 2.12132 2.12132 
C 2.683901 1.55874 3 0.795609 3 0 
C 3 -0.795609 2.683901 -1.55874 2.12132 -2.12132 
C 1.55874 -2.683901 0.795609 -3 0 -3 
C -0.795609 -3 -1.55874 -2.683901 -2.12132 -2.12132 
C -2.683901 -1.55874 -3 -0.795609 -3 0 
C -3 0.795609 -2.683901 1.55874 -2.12132 2.12132 
C -1.55874 2.683901 -0.795609 3 0 3 
z
" style="stroke: #00a6b6"/>
    </defs>
    <g clip-path="url(#p7d8a3893cb)">
     <use xlink:href="#md0f30ece2e" x="121.626636" y="297.236423" style="fill: #00a6b6; stroke: #00a6b6"/>
     <use xlink:href="#md0f30ece2e" x="340.87332" y="85.379222" style="fill: #00a6b6; stroke: #00a6b6"/>
     <use xlink:href="#md0f30ece2e" x="432.206511" y="47.59791" style="fill: #00a6b6; stroke: #00a6b6"/>
     <use xlink:href="#md0f30ece2e" x="468.740773" y="39.099665" style="fill: #00a6b6; stroke: #00a6b6"/>
    </g>
   </g>
   <g id="PathCollection_2">
    <defs>
     <path id="m6ea7a91fe8" d="M 0 3 
C 0.795609 3 1.55874 2.683901 2.12132 2.12132 
C 2.683901 1.55874 3 0.795609 3 0 
C 3 -0.795609 2.683901 -1.55874 2.12132 -2.12132 
C 1.55874 -2.683901 0.795609 -3 0 -3 
C -0.795609 -3 -1.55874 -2.683901 -2.12132 -2.12132 
C -2.683901 -1.55874 -3 -0.795609 -3 0 
C -3 0.795609 -2.683901 1.55874 -2.12132 2.12132 
C -1.55874 2.683901 -0.795609 3 0 3 
z
" style="stroke: #a50034"/>
    </defs>
    <g clip-path="url(#p7d8a3893cb)">
     <use xlink:href="#m6ea7a91fe8" x="121.626636" y="297.578274" style="fill: #a50034; stroke: #a50034"/>
     <use xlink:href="#m6ea7a91fe8" x="340.87332" y="85.551828" style="fill: #a50034; stroke: #a50034"/>
     <use xlink:href="#m6ea7a91fe8" x="432.206511" y="48.493667" style="fill: #a50034; stroke: #a50034"/>
     <use xlink:href="#m6ea7a91fe8" x="468.740773" y="40.267732" style="fill: #a50034; stroke: #a50034"/>
    </g>
   </g>
   <g id="PathCollection_3">
    <defs>
     <path id="m0a4e63ebd4" d="M 0 3 
C 0.795609 3 1.55874 2.683901 2.12132 2.12132 
C 2.683901 1.55874 3 0.795609 3 0 
C 3 -0.795609 2.683901 -1.55874 2.12132 -2.12132 
C 1.55874 -2.683901 0.795609 -3 0 -3 
C -0.795609 -3 -1.55874 -2.683901 -2.12132 -2.12132 
C -2.683901 -1.55874 -3 -0.795609 -3 0 
C -3 0.795609 -2.683901 1.55874 -2.12132 2.12132 
C -1.55874 2.683901 -0.795609 3 0 3 
z
" style="stroke: #ef60a3"/>
    </defs>
    <g clip-path="url(#p7d8a3893cb)">
     <use xlink:href="#m0a4e63ebd4" x="121.626636" y="297.318762" style="fill: #ef60a3; stroke: #ef60a3"/>
     <use xlink:href="#m0a4e63ebd4" x="340.87332" y="86.623059" style="fill: #ef60a3; stroke: #ef60a3"/>
     <use xlink:href="#m0a4e63ebd4" x="432.206511" y="51.530087" style="fill: #ef60a3; stroke: #ef60a3"/>
     <use xlink:href="#m0a4e63ebd4" x="468.740773" y="43.146" style="fill: #ef60a3; stroke: #ef60a3"/>
    </g>
   </g>
   <g id="PathCollection_4">
    <defs>
     <path id="maa4c619c63" d="M 0 3 
C 0.795609 3 1.55874 2.683901 2.12132 2.12132 
C 2.683901 1.55874 3 0.795609 3 0 
C 3 -0.795609 2.683901 -1.55874 2.12132 -2.12132 
C 1.55874 -2.683901 0.795609 -3 0 -3 
C -0.795609 -3 -1.55874 -2.683901 -2.12132 -2.12132 
C -2.683901 -1.55874 -3 -0.795609 -3 0 
C -3 0.795609 -2.683901 1.55874 -2.12132 2.12132 
C -1.55874 2.683901 -0.795609 3 0 3 
z
" style="stroke: #6cc24a"/>
    </defs>
    <g clip-path="url(#p7d8a3893cb)">
     <use xlink:href="#maa4c619c63" x="121.628776" y="295.474059" style="fill: #6cc24a; stroke: #6cc24a"/>
     <use xlink:href="#maa4c619c63" x="340.874405" y="84.923293" style="fill: #6cc24a; stroke: #6cc24a"/>
     <use xlink:href="#maa4c619c63" x="432.207841" y="51.254245" style="fill: #6cc24a; stroke: #6cc24a"/>
     <use xlink:href="#maa4c619c63" x="468.740149" y="42.408859" style="fill: #6cc24a; stroke: #6cc24a"/>
    </g>
   </g>
   <g id="PathCollection_5">
    <defs>
     <path id="md76be8700c" d="M 0 3 
C 0.795609 3 1.55874 2.683901 2.12132 2.12132 
C 2.683901 1.55874 3 0.795609 3 0 
C 3 -0.795609 2.683901 -1.55874 2.12132 -2.12132 
C 1.55874 -2.683901 0.795609 -3 0 -3 
C -0.795609 -3 -1.55874 -2.683901 -2.12132 -2.12132 
C -2.683901 -1.55874 -3 -0.795609 -3 0 
C -3 0.795609 -2.683901 1.55874 -2.12132 2.12132 
C -1.55874 2.683901 -0.795609 3 0 3 
z
" style="stroke: #ffb81c"/>
    </defs>
    <g clip-path="url(#p7d8a3893cb)">
     <use xlink:href="#md76be8700c" x="121.629832" y="314.62012" style="fill: #ffb81c; stroke: #ffb81c"/>
     <use xlink:href="#md76be8700c" x="340.87546" y="88.122605" style="fill: #ffb81c; stroke: #ffb81c"/>
     <use xlink:href="#md76be8700c" x="432.208897" y="60.844007" style="fill: #ffb81c; stroke: #ffb81c"/>
     <use xlink:href="#md76be8700c" x="468.741204" y="40.190901" style="fill: #ffb81c; stroke: #ffb81c"/>
    </g>
   </g>
   <g id="matplotlib.axis_1">
    <g id="xtick_1">
     <g id="line2d_1">
      <path d="M 103.376 356.2 
L 103.376 21.6 
" clip-path="url(#p7d8a3893cb)" style="fill: none; stroke: #b0b0b0; stroke-width: 0.8; stroke-linecap: square"/>
     </g>
     <g id="line2d_2">
      <defs>
       <path id="m5028b12d3c" d="M 0 0 
L 0 3.5 
" style="stroke: #000000; stroke-width: 0.8"/>
      </defs>
      <g>
       <use xlink:href="#m5028b12d3c" x="103.376" y="356.2" style="stroke: #000000; stroke-width: 0.8"/>
      </g>
     </g>
     <g id="text_1">
      <!-- −6 -->
      <g transform="translate(88.633813 378.396875) scale(0.2 -0.2)">
       <defs>
        <path id="DejaVuSans-2212" d="M 678 2272 
L 4684 2272 
L 4684 1741 
L 678 1741 
L 678 2272 
z
" transform="scale(0.015625)"/>
        <path id="DejaVuSans-36" d="M 2113 2584 
Q 1688 2584 1439 2293 
Q 1191 2003 1191 1497 
Q 1191 994 1439 701 
Q 1688 409 2113 409 
Q 2538 409 2786 701 
Q 3034 994 3034 1497 
Q 3034 2003 2786 2293 
Q 2538 2584 2113 2584 
z
M 3366 4563 
L 3366 3988 
Q 3128 4100 2886 4159 
Q 2644 4219 2406 4219 
Q 1781 4219 1451 3797 
Q 1122 3375 1075 2522 
Q 1259 2794 1537 2939 
Q 1816 3084 2150 3084 
Q 2853 3084 3261 2657 
Q 3669 2231 3669 1497 
Q 3669 778 3244 343 
Q 2819 -91 2113 -91 
Q 1303 -91 875 529 
Q 447 1150 447 2328 
Q 447 3434 972 4092 
Q 1497 4750 2381 4750 
Q 2619 4750 2861 4703 
Q 3103 4656 3366 4563 
z
" transform="scale(0.015625)"/>
       </defs>
       <use xlink:href="#DejaVuSans-2212"/>
       <use xlink:href="#DejaVuSans-36" x="83.789062"/>
      </g>
     </g>
    </g>
    <g id="xtick_2">
     <g id="line2d_3">
      <path d="M 176.431667 356.2 
L 176.431667 21.6 
" clip-path="url(#p7d8a3893cb)" style="fill: none; stroke: #b0b0b0; stroke-width: 0.8; stroke-linecap: square"/>
     </g>
     <g id="line2d_4">
      <g>
       <use xlink:href="#m5028b12d3c" x="176.431667" y="356.2" style="stroke: #000000; stroke-width: 0.8"/>
      </g>
     </g>
     <g id="text_2">
      <!-- −2 -->
      <g transform="translate(161.689479 378.396875) scale(0.2 -0.2)">
       <defs>
        <path id="DejaVuSans-32" d="M 1228 531 
L 3431 531 
L 3431 0 
L 469 0 
L 469 531 
Q 828 903 1448 1529 
Q 2069 2156 2228 2338 
Q 2531 2678 2651 2914 
Q 2772 3150 2772 3378 
Q 2772 3750 2511 3984 
Q 2250 4219 1831 4219 
Q 1534 4219 1204 4116 
Q 875 4013 500 3803 
L 500 4441 
Q 881 4594 1212 4672 
Q 1544 4750 1819 4750 
Q 2544 4750 2975 4387 
Q 3406 4025 3406 3419 
Q 3406 3131 3298 2873 
Q 3191 2616 2906 2266 
Q 2828 2175 2409 1742 
Q 1991 1309 1228 531 
z
" transform="scale(0.015625)"/>
       </defs>
       <use xlink:href="#DejaVuSans-2212"/>
       <use xlink:href="#DejaVuSans-32" x="83.789062"/>
      </g>
     </g>
    </g>
    <g id="xtick_3">
     <g id="line2d_5">
      <path d="M 249.487333 356.2 
L 249.487333 21.6 
" clip-path="url(#p7d8a3893cb)" style="fill: none; stroke: #b0b0b0; stroke-width: 0.8; stroke-linecap: square"/>
     </g>
     <g id="line2d_6">
      <g>
       <use xlink:href="#m5028b12d3c" x="249.487333" y="356.2" style="stroke: #000000; stroke-width: 0.8"/>
      </g>
     </g>
     <g id="text_3">
      <!-- 2 -->
      <g transform="translate(243.124833 378.396875) scale(0.2 -0.2)">
       <use xlink:href="#DejaVuSans-32"/>
      </g>
     </g>
    </g>
    <g id="xtick_4">
     <g id="line2d_7">
      <path d="M 322.543 356.2 
L 322.543 21.6 
" clip-path="url(#p7d8a3893cb)" style="fill: none; stroke: #b0b0b0; stroke-width: 0.8; stroke-linecap: square"/>
     </g>
     <g id="line2d_8">
      <g>
       <use xlink:href="#m5028b12d3c" x="322.543" y="356.2" style="stroke: #000000; stroke-width: 0.8"/>
      </g>
     </g>
     <g id="text_4">
      <!-- 6 -->
      <g transform="translate(316.1805 378.396875) scale(0.2 -0.2)">
       <use xlink:href="#DejaVuSans-36"/>
      </g>
     </g>
    </g>
    <g id="xtick_5">
     <g id="line2d_9">
      <path d="M 395.598667 356.2 
L 395.598667 21.6 
" clip-path="url(#p7d8a3893cb)" style="fill: none; stroke: #b0b0b0; stroke-width: 0.8; stroke-linecap: square"/>
     </g>
     <g id="line2d_10">
      <g>
       <use xlink:href="#m5028b12d3c" x="395.598667" y="356.2" style="stroke: #000000; stroke-width: 0.8"/>
      </g>
     </g>
     <g id="text_5">
      <!-- 10 -->
      <g transform="translate(382.873667 378.396875) scale(0.2 -0.2)">
       <defs>
        <path id="DejaVuSans-31" d="M 794 531 
L 1825 531 
L 1825 4091 
L 703 3866 
L 703 4441 
L 1819 4666 
L 2450 4666 
L 2450 531 
L 3481 531 
L 3481 0 
L 794 0 
L 794 531 
z
" transform="scale(0.015625)"/>
        <path id="DejaVuSans-30" d="M 2034 4250 
Q 1547 4250 1301 3770 
Q 1056 3291 1056 2328 
Q 1056 1369 1301 889 
Q 1547 409 2034 409 
Q 2525 409 2770 889 
Q 3016 1369 3016 2328 
Q 3016 3291 2770 3770 
Q 2525 4250 2034 4250 
z
M 2034 4750 
Q 2819 4750 3233 4129 
Q 3647 3509 3647 2328 
Q 3647 1150 3233 529 
Q 2819 -91 2034 -91 
Q 1250 -91 836 529 
Q 422 1150 422 2328 
Q 422 3509 836 4129 
Q 1250 4750 2034 4750 
z
" transform="scale(0.015625)"/>
       </defs>
       <use xlink:href="#DejaVuSans-31"/>
       <use xlink:href="#DejaVuSans-30" x="63.623047"/>
      </g>
     </g>
    </g>
    <g id="xtick_6">
     <g id="line2d_11">
      <path d="M 468.654333 356.2 
L 468.654333 21.6 
" clip-path="url(#p7d8a3893cb)" style="fill: none; stroke: #b0b0b0; stroke-width: 0.8; stroke-linecap: square"/>
     </g>
     <g id="line2d_12">
      <g>
       <use xlink:href="#m5028b12d3c" x="468.654333" y="356.2" style="stroke: #000000; stroke-width: 0.8"/>
      </g>
     </g>
     <g id="text_6">
      <!-- 14 -->
      <g transform="translate(455.929333 378.396875) scale(0.2 -0.2)">
       <defs>
        <path id="DejaVuSans-34" d="M 2419 4116 
L 825 1625 
L 2419 1625 
L 2419 4116 
z
M 2253 4666 
L 3047 4666 
L 3047 1625 
L 3713 1625 
L 3713 1100 
L 3047 1100 
L 3047 0 
L 2419 0 
L 2419 1100 
L 313 1100 
L 313 1709 
L 2253 4666 
z
" transform="scale(0.015625)"/>
       </defs>
       <use xlink:href="#DejaVuSans-31"/>
       <use xlink:href="#DejaVuSans-34" x="63.623047"/>
      </g>
     </g>
    </g>
    <g id="xtick_7">
     <g id="line2d_13">
      <path d="M 541.71 356.2 
L 541.71 21.6 
" clip-path="url(#p7d8a3893cb)" style="fill: none; stroke: #b0b0b0; stroke-width: 0.8; stroke-linecap: square"/>
     </g>
     <g id="line2d_14">
      <g>
       <use xlink:href="#m5028b12d3c" x="541.71" y="356.2" style="stroke: #000000; stroke-width: 0.8"/>
      </g>
     </g>
     <g id="text_7">
      <!-- 18 -->
      <g transform="translate(528.985 378.396875) scale(0.2 -0.2)">
       <defs>
        <path id="DejaVuSans-38" d="M 2034 2216 
Q 1584 2216 1326 1975 
Q 1069 1734 1069 1313 
Q 1069 891 1326 650 
Q 1584 409 2034 409 
Q 2484 409 2743 651 
Q 3003 894 3003 1313 
Q 3003 1734 2745 1975 
Q 2488 2216 2034 2216 
z
M 1403 2484 
Q 997 2584 770 2862 
Q 544 3141 544 3541 
Q 544 4100 942 4425 
Q 1341 4750 2034 4750 
Q 2731 4750 3128 4425 
Q 3525 4100 3525 3541 
Q 3525 3141 3298 2862 
Q 3072 2584 2669 2484 
Q 3125 2378 3379 2068 
Q 3634 1759 3634 1313 
Q 3634 634 3220 271 
Q 2806 -91 2034 -91 
Q 1263 -91 848 271 
Q 434 634 434 1313 
Q 434 1759 690 2068 
Q 947 2378 1403 2484 
z
M 1172 3481 
Q 1172 3119 1398 2916 
Q 1625 2713 2034 2713 
Q 2441 2713 2670 2916 
Q 2900 3119 2900 3481 
Q 2900 3844 2670 4047 
Q 2441 4250 2034 4250 
Q 1625 4250 1398 4047 
Q 1172 3844 1172 3481 
z
" transform="scale(0.015625)"/>
       </defs>
       <use xlink:href="#DejaVuSans-31"/>
       <use xlink:href="#DejaVuSans-38" x="63.623047"/>
      </g>
     </g>
    </g>
    <g id="text_8">
     <!-- $\alpha$ [deg] -->
     <g transform="translate(286.043 401.75625) scale(0.2 -0.2)">
      <defs>
       <path id="DejaVuSans-Oblique-3b1" d="M 2619 1628 
L 2622 2350 
Q 2625 3088 2069 3091 
Q 1653 3094 1394 2747 
Q 1069 2319 959 1747 
Q 825 1059 994 731 
Q 1169 397 1547 397 
Q 1966 397 2319 1063 
L 2619 1628 
z
M 2166 3578 
Q 3141 3594 3128 2584 
Q 3128 2584 3616 3500 
L 4128 3500 
L 3119 1603 
L 3109 919 
Q 3109 766 3194 638 
Q 3291 488 3391 488 
L 3669 488 
L 3575 0 
L 3228 0 
Q 2934 0 2722 263 
Q 2622 394 2619 669 
Q 2416 334 2066 50 
Q 1900 -81 1453 -78 
Q 722 -72 456 397 
Q 184 884 353 1747 
Q 534 2675 1009 3097 
Q 1544 3569 2166 3578 
z
" transform="scale(0.015625)"/>
       <path id="DejaVuSans-20" transform="scale(0.015625)"/>
       <path id="DejaVuSans-5b" d="M 550 4863 
L 1875 4863 
L 1875 4416 
L 1125 4416 
L 1125 -397 
L 1875 -397 
L 1875 -844 
L 550 -844 
L 550 4863 
z
" transform="scale(0.015625)"/>
       <path id="DejaVuSans-64" d="M 2906 2969 
L 2906 4863 
L 3481 4863 
L 3481 0 
L 2906 0 
L 2906 525 
Q 2725 213 2448 61 
Q 2172 -91 1784 -91 
Q 1150 -91 751 415 
Q 353 922 353 1747 
Q 353 2572 751 3078 
Q 1150 3584 1784 3584 
Q 2172 3584 2448 3432 
Q 2725 3281 2906 2969 
z
M 947 1747 
Q 947 1113 1208 752 
Q 1469 391 1925 391 
Q 2381 391 2643 752 
Q 2906 1113 2906 1747 
Q 2906 2381 2643 2742 
Q 2381 3103 1925 3103 
Q 1469 3103 1208 2742 
Q 947 2381 947 1747 
z
" transform="scale(0.015625)"/>
       <path id="DejaVuSans-65" d="M 3597 1894 
L 3597 1613 
L 953 1613 
Q 991 1019 1311 708 
Q 1631 397 2203 397 
Q 2534 397 2845 478 
Q 3156 559 3463 722 
L 3463 178 
Q 3153 47 2828 -22 
Q 2503 -91 2169 -91 
Q 1331 -91 842 396 
Q 353 884 353 1716 
Q 353 2575 817 3079 
Q 1281 3584 2069 3584 
Q 2775 3584 3186 3129 
Q 3597 2675 3597 1894 
z
M 3022 2063 
Q 3016 2534 2758 2815 
Q 2500 3097 2075 3097 
Q 1594 3097 1305 2825 
Q 1016 2553 972 2059 
L 3022 2063 
z
" transform="scale(0.015625)"/>
       <path id="DejaVuSans-67" d="M 2906 1791 
Q 2906 2416 2648 2759 
Q 2391 3103 1925 3103 
Q 1463 3103 1205 2759 
Q 947 2416 947 1791 
Q 947 1169 1205 825 
Q 1463 481 1925 481 
Q 2391 481 2648 825 
Q 2906 1169 2906 1791 
z
M 3481 434 
Q 3481 -459 3084 -895 
Q 2688 -1331 1869 -1331 
Q 1566 -1331 1297 -1286 
Q 1028 -1241 775 -1147 
L 775 -588 
Q 1028 -725 1275 -790 
Q 1522 -856 1778 -856 
Q 2344 -856 2625 -561 
Q 2906 -266 2906 331 
L 2906 616 
Q 2728 306 2450 153 
Q 2172 0 1784 0 
Q 1141 0 747 490 
Q 353 981 353 1791 
Q 353 2603 747 3093 
Q 1141 3584 1784 3584 
Q 2172 3584 2450 3431 
Q 2728 3278 2906 2969 
L 2906 3500 
L 3481 3500 
L 3481 434 
z
" transform="scale(0.015625)"/>
       <path id="DejaVuSans-5d" d="M 1947 4863 
L 1947 -844 
L 622 -844 
L 622 -397 
L 1369 -397 
L 1369 4416 
L 622 4416 
L 622 4863 
L 1947 4863 
z
" transform="scale(0.015625)"/>
      </defs>
      <use xlink:href="#DejaVuSans-Oblique-3b1" transform="translate(0 0.015625)"/>
      <use xlink:href="#DejaVuSans-20" transform="translate(65.917969 0.015625)"/>
      <use xlink:href="#DejaVuSans-5b" transform="translate(97.705078 0.015625)"/>
      <use xlink:href="#DejaVuSans-64" transform="translate(136.71875 0.015625)"/>
      <use xlink:href="#DejaVuSans-65" transform="translate(200.195312 0.015625)"/>
      <use xlink:href="#DejaVuSans-67" transform="translate(261.71875 0.015625)"/>
      <use xlink:href="#DejaVuSans-5d" transform="translate(325.195312 0.015625)"/>
     </g>
    </g>
   </g>
   <g id="matplotlib.axis_2">
    <g id="ytick_1">
     <g id="line2d_15">
      <path d="M 103.376 325.353371 
L 541.71 325.353371 
" clip-path="url(#p7d8a3893cb)" style="fill: none; stroke: #b0b0b0; stroke-width: 0.8; stroke-linecap: square"/>
     </g>
     <g id="line2d_16">
      <defs>
       <path id="m5e6397a7b5" d="M 0 0 
L -3.5 0 
" style="stroke: #000000; stroke-width: 0.8"/>
      </defs>
      <g>
       <use xlink:href="#m5e6397a7b5" x="103.376" y="325.353371" style="stroke: #000000; stroke-width: 0.8"/>
      </g>
     </g>
     <g id="text_9">
      <!-- −0.5 -->
      <g transform="translate(47.810375 332.951809) scale(0.2 -0.2)">
       <defs>
        <path id="DejaVuSans-2e" d="M 684 794 
L 1344 794 
L 1344 0 
L 684 0 
L 684 794 
z
" transform="scale(0.015625)"/>
        <path id="DejaVuSans-35" d="M 691 4666 
L 3169 4666 
L 3169 4134 
L 1269 4134 
L 1269 2991 
Q 1406 3038 1543 3061 
Q 1681 3084 1819 3084 
Q 2600 3084 3056 2656 
Q 3513 2228 3513 1497 
Q 3513 744 3044 326 
Q 2575 -91 1722 -91 
Q 1428 -91 1123 -41 
Q 819 9 494 109 
L 494 744 
Q 775 591 1075 516 
Q 1375 441 1709 441 
Q 2250 441 2565 725 
Q 2881 1009 2881 1497 
Q 2881 1984 2565 2268 
Q 2250 2553 1709 2553 
Q 1456 2553 1204 2497 
Q 953 2441 691 2322 
L 691 4666 
z
" transform="scale(0.015625)"/>
       </defs>
       <use xlink:href="#DejaVuSans-2212"/>
       <use xlink:href="#DejaVuSans-30" x="83.789062"/>
       <use xlink:href="#DejaVuSans-2e" x="147.412109"/>
       <use xlink:href="#DejaVuSans-35" x="179.199219"/>
      </g>
     </g>
    </g>
    <g id="ytick_2">
     <g id="line2d_17">
      <path d="M 103.376 242.181885 
L 541.71 242.181885 
" clip-path="url(#p7d8a3893cb)" style="fill: none; stroke: #b0b0b0; stroke-width: 0.8; stroke-linecap: square"/>
     </g>
     <g id="line2d_18">
      <g>
       <use xlink:href="#m5e6397a7b5" x="103.376" y="242.181885" style="stroke: #000000; stroke-width: 0.8"/>
      </g>
     </g>
     <g id="text_10">
      <!-- 0.0 -->
      <g transform="translate(64.56975 249.780323) scale(0.2 -0.2)">
       <use xlink:href="#DejaVuSans-30"/>
       <use xlink:href="#DejaVuSans-2e" x="63.623047"/>
       <use xlink:href="#DejaVuSans-30" x="95.410156"/>
      </g>
     </g>
    </g>
    <g id="ytick_3">
     <g id="line2d_19">
      <path d="M 103.376 159.010399 
L 541.71 159.010399 
" clip-path="url(#p7d8a3893cb)" style="fill: none; stroke: #b0b0b0; stroke-width: 0.8; stroke-linecap: square"/>
     </g>
     <g id="line2d_20">
      <g>
       <use xlink:href="#m5e6397a7b5" x="103.376" y="159.010399" style="stroke: #000000; stroke-width: 0.8"/>
      </g>
     </g>
     <g id="text_11">
      <!-- 0.5 -->
      <g transform="translate(64.56975 166.608837) scale(0.2 -0.2)">
       <use xlink:href="#DejaVuSans-30"/>
       <use xlink:href="#DejaVuSans-2e" x="63.623047"/>
       <use xlink:href="#DejaVuSans-35" x="95.410156"/>
      </g>
     </g>
    </g>
    <g id="ytick_4">
     <g id="line2d_21">
      <path d="M 103.376 75.838913 
L 541.71 75.838913 
" clip-path="url(#p7d8a3893cb)" style="fill: none; stroke: #b0b0b0; stroke-width: 0.8; stroke-linecap: square"/>
     </g>
     <g id="line2d_22">
      <g>
       <use xlink:href="#m5e6397a7b5" x="103.376" y="75.838913" style="stroke: #000000; stroke-width: 0.8"/>
      </g>
     </g>
     <g id="text_12">
      <!-- 1.0 -->
      <g transform="translate(64.56975 83.43735) scale(0.2 -0.2)">
       <use xlink:href="#DejaVuSans-31"/>
       <use xlink:href="#DejaVuSans-2e" x="63.623047"/>
       <use xlink:href="#DejaVuSans-30" x="95.410156"/>
      </g>
     </g>
    </g>
    <g id="text_13">
     <!-- $C_L$ [-] (trim) -->
     <g transform="translate(39.651 246.2) rotate(-90) scale(0.2 -0.2)">
      <defs>
       <path id="DejaVuSans-Oblique-43" d="M 4447 4306 
L 4319 3641 
Q 4019 3944 3683 4091 
Q 3347 4238 2956 4238 
Q 2422 4238 2017 3981 
Q 1613 3725 1319 3200 
Q 1131 2863 1032 2486 
Q 934 2109 934 1728 
Q 934 1091 1264 756 
Q 1594 422 2222 422 
Q 2656 422 3056 561 
Q 3456 700 3834 978 
L 3688 231 
Q 3316 72 2936 -9 
Q 2556 -91 2175 -91 
Q 1278 -91 773 396 
Q 269 884 269 1753 
Q 269 2309 461 2846 
Q 653 3384 1013 3828 
Q 1394 4300 1883 4525 
Q 2372 4750 3022 4750 
Q 3422 4750 3780 4639 
Q 4138 4528 4447 4306 
z
" transform="scale(0.015625)"/>
       <path id="DejaVuSans-Oblique-4c" d="M 1075 4666 
L 1709 4666 
L 909 525 
L 3181 525 
L 3078 0 
L 172 0 
L 1075 4666 
z
" transform="scale(0.015625)"/>
       <path id="DejaVuSans-2d" d="M 313 2009 
L 1997 2009 
L 1997 1497 
L 313 1497 
L 313 2009 
z
" transform="scale(0.015625)"/>
       <path id="DejaVuSans-28" d="M 1984 4856 
Q 1566 4138 1362 3434 
Q 1159 2731 1159 2009 
Q 1159 1288 1364 580 
Q 1569 -128 1984 -844 
L 1484 -844 
Q 1016 -109 783 600 
Q 550 1309 550 2009 
Q 550 2706 781 3412 
Q 1013 4119 1484 4856 
L 1984 4856 
z
" transform="scale(0.015625)"/>
       <path id="DejaVuSans-74" d="M 1172 4494 
L 1172 3500 
L 2356 3500 
L 2356 3053 
L 1172 3053 
L 1172 1153 
Q 1172 725 1289 603 
Q 1406 481 1766 481 
L 2356 481 
L 2356 0 
L 1766 0 
Q 1100 0 847 248 
Q 594 497 594 1153 
L 594 3053 
L 172 3053 
L 172 3500 
L 594 3500 
L 594 4494 
L 1172 4494 
z
" transform="scale(0.015625)"/>
       <path id="DejaVuSans-72" d="M 2631 2963 
Q 2534 3019 2420 3045 
Q 2306 3072 2169 3072 
Q 1681 3072 1420 2755 
Q 1159 2438 1159 1844 
L 1159 0 
L 581 0 
L 581 3500 
L 1159 3500 
L 1159 2956 
Q 1341 3275 1631 3429 
Q 1922 3584 2338 3584 
Q 2397 3584 2469 3576 
Q 2541 3569 2628 3553 
L 2631 2963 
z
" transform="scale(0.015625)"/>
       <path id="DejaVuSans-69" d="M 603 3500 
L 1178 3500 
L 1178 0 
L 603 0 
L 603 3500 
z
M 603 4863 
L 1178 4863 
L 1178 4134 
L 603 4134 
L 603 4863 
z
" transform="scale(0.015625)"/>
       <path id="DejaVuSans-6d" d="M 3328 2828 
Q 3544 3216 3844 3400 
Q 4144 3584 4550 3584 
Q 5097 3584 5394 3201 
Q 5691 2819 5691 2113 
L 5691 0 
L 5113 0 
L 5113 2094 
Q 5113 2597 4934 2840 
Q 4756 3084 4391 3084 
Q 3944 3084 3684 2787 
Q 3425 2491 3425 1978 
L 3425 0 
L 2847 0 
L 2847 2094 
Q 2847 2600 2669 2842 
Q 2491 3084 2119 3084 
Q 1678 3084 1418 2786 
Q 1159 2488 1159 1978 
L 1159 0 
L 581 0 
L 581 3500 
L 1159 3500 
L 1159 2956 
Q 1356 3278 1631 3431 
Q 1906 3584 2284 3584 
Q 2666 3584 2933 3390 
Q 3200 3197 3328 2828 
z
" transform="scale(0.015625)"/>
       <path id="DejaVuSans-29" d="M 513 4856 
L 1013 4856 
Q 1481 4119 1714 3412 
Q 1947 2706 1947 2009 
Q 1947 1309 1714 600 
Q 1481 -109 1013 -844 
L 513 -844 
Q 928 -128 1133 580 
Q 1338 1288 1338 2009 
Q 1338 2731 1133 3434 
Q 928 4138 513 4856 
z
" transform="scale(0.015625)"/>
      </defs>
      <use xlink:href="#DejaVuSans-Oblique-43" transform="translate(0 0.015625)"/>
      <use xlink:href="#DejaVuSans-Oblique-4c" transform="translate(69.824219 -16.390625) scale(0.7)"/>
      <use xlink:href="#DejaVuSans-20" transform="translate(111.557617 0.015625)"/>
      <use xlink:href="#DejaVuSans-5b" transform="translate(143.344727 0.015625)"/>
      <use xlink:href="#DejaVuSans-2d" transform="translate(182.358398 0.015625)"/>
      <use xlink:href="#DejaVuSans-5d" transform="translate(218.442383 0.015625)"/>
      <use xlink:href="#DejaVuSans-20" transform="translate(257.456055 0.015625)"/>
      <use xlink:href="#DejaVuSans-28" transform="translate(289.243164 0.015625)"/>
      <use xlink:href="#DejaVuSans-74" transform="translate(328.256836 0.015625)"/>
      <use xlink:href="#DejaVuSans-72" transform="translate(367.46582 0.015625)"/>
      <use xlink:href="#DejaVuSans-69" transform="translate(408.579102 0.015625)"/>
      <use xlink:href="#DejaVuSans-6d" transform="translate(436.362305 0.015625)"/>
      <use xlink:href="#DejaVuSans-29" transform="translate(533.774414 0.015625)"/>
     </g>
    </g>
   </g>
   <g id="line2d_23">
    <path d="M 103.376 322.36093 
L 107.803616 316.151842 
L 112.231232 310.011002 
L 116.658848 303.93841 
L 121.086465 297.934066 
L 125.514081 291.99797 
L 129.941697 286.130122 
L 134.369313 280.330521 
L 138.796929 274.599169 
L 143.224545 268.936064 
L 147.652162 263.341208 
L 152.079778 257.814599 
L 156.507394 252.356238 
L 160.93501 246.966125 
L 165.362626 241.64426 
L 169.790242 236.390643 
L 174.217859 231.205273 
L 178.645475 226.088152 
L 183.073091 221.039278 
L 187.500707 216.058653 
L 191.928323 211.146275 
L 196.355939 206.302145 
L 200.783556 201.526263 
L 205.211172 196.818629 
L 209.638788 192.179243 
L 214.066404 187.608105 
L 218.49402 183.105215 
L 222.921636 178.670572 
L 227.349253 174.304178 
L 231.776869 170.006031 
L 236.204485 165.776133 
L 240.632101 161.614482 
L 245.059717 157.521079 
L 249.487333 153.495924 
L 253.914949 149.539017 
L 258.342566 145.650358 
L 262.770182 141.829946 
L 267.197798 138.077783 
L 271.625414 134.393867 
L 276.05303 130.7782 
L 280.480646 127.23078 
L 284.908263 123.751608 
L 289.335879 120.340684 
L 293.763495 116.998008 
L 298.191111 113.72358 
L 302.618727 110.5174 
L 307.046343 107.379468 
L 311.47396 104.309784 
L 315.901576 101.308347 
L 320.329192 98.375158 
L 324.756808 95.510218 
L 329.184424 92.713525 
L 333.61204 89.98508 
L 338.039657 87.324883 
L 342.467273 84.732934 
L 346.894889 82.209233 
L 351.322505 79.753779 
L 355.750121 77.366574 
L 360.177737 75.047617 
L 364.605354 72.796907 
L 369.03297 70.614445 
L 373.460586 68.500231 
L 377.888202 66.454266 
L 382.315818 64.476548 
L 386.743434 62.567077 
L 391.171051 60.725855 
L 395.598667 58.952881 
L 400.026283 57.248155 
L 404.453899 55.611676 
L 408.881515 54.043445 
L 413.309131 52.543463 
L 417.736747 51.111728 
L 422.164364 49.748241 
L 426.59198 48.453002 
L 431.019596 47.226011 
L 435.447212 46.067268 
L 439.874828 44.976772 
L 444.302444 43.954525 
L 448.730061 43.000526 
L 453.157677 42.114774 
L 457.585293 41.29727 
L 462.012909 40.548014 
L 466.440525 39.867007 
L 470.868141 39.254247 
L 475.295758 38.709734 
L 479.723374 38.23347 
L 484.15099 37.825454 
L 488.578606 37.485686 
L 493.006222 37.214165 
L 497.433838 37.010892 
L 501.861455 36.875868 
L 506.289071 36.809091 
L 510.716687 36.810562 
L 515.144303 36.880281 
L 519.571919 37.018248 
L 523.999535 37.224463 
L 528.427152 37.498925 
L 532.854768 37.841636 
L 537.282384 38.252594 
L 541.71 38.731801 
" clip-path="url(#p7d8a3893cb)" style="fill: none; stroke-dasharray: 9.6,2.4,1.5,2.4; stroke-dashoffset: 0; stroke: #00a6b6; stroke-width: 1.5"/>
   </g>
   <g id="line2d_24">
    <path d="M 103.376 322.818695 
L 107.803616 316.579342 
L 112.231232 310.409202 
L 116.658848 304.308275 
L 121.086465 298.276561 
L 125.514081 292.31406 
L 129.941697 286.420772 
L 134.369313 280.596697 
L 138.796929 274.841835 
L 143.224545 269.156186 
L 147.652162 263.53975 
L 152.079778 257.992527 
L 156.507394 252.514517 
L 160.93501 247.10572 
L 165.362626 241.766136 
L 169.790242 236.495765 
L 174.217859 231.294607 
L 178.645475 226.162662 
L 183.073091 221.09993 
L 187.500707 216.106411 
L 191.928323 211.182105 
L 196.355939 206.327012 
L 200.783556 201.541132 
L 205.211172 196.824465 
L 209.638788 192.177011 
L 214.066404 187.59877 
L 218.49402 183.089741 
L 222.921636 178.649926 
L 227.349253 174.279324 
L 231.776869 169.977935 
L 236.204485 165.745759 
L 240.632101 161.582796 
L 245.059717 157.489046 
L 249.487333 153.464509 
L 253.914949 149.509185 
L 258.342566 145.623074 
L 262.770182 141.806176 
L 267.197798 138.058491 
L 271.625414 134.380019 
L 276.05303 130.77076 
L 280.480646 127.230714 
L 284.908263 123.759881 
L 289.335879 120.358261 
L 293.763495 117.025854 
L 298.191111 113.762659 
L 302.618727 110.568678 
L 307.046343 107.44391 
L 311.47396 104.388355 
L 315.901576 101.402013 
L 320.329192 98.484884 
L 324.756808 95.636968 
L 329.184424 92.858265 
L 333.61204 90.148775 
L 338.039657 87.508498 
L 342.467273 84.937434 
L 346.894889 82.435583 
L 351.322505 80.002945 
L 355.750121 77.63952 
L 360.177737 75.345307 
L 364.605354 73.120308 
L 369.03297 70.964522 
L 373.460586 68.877949 
L 377.888202 66.860589 
L 382.315818 64.912442 
L 386.743434 63.033508 
L 391.171051 61.223787 
L 395.598667 59.483279 
L 400.026283 57.811984 
L 404.453899 56.209902 
L 408.881515 54.677033 
L 413.309131 53.213376 
L 417.736747 51.818933 
L 422.164364 50.493703 
L 426.59198 49.237686 
L 431.019596 48.050882 
L 435.447212 46.933291 
L 439.874828 45.884913 
L 444.302444 44.905748 
L 448.730061 43.995796 
L 453.157677 43.155057 
L 457.585293 42.383531 
L 462.012909 41.681217 
L 466.440525 41.048117 
L 470.868141 40.48423 
L 475.295758 39.989556 
L 479.723374 39.564095 
L 484.15099 39.207847 
L 488.578606 38.920812 
L 493.006222 38.70299 
L 497.433838 38.554381 
L 501.861455 38.474985 
L 506.289071 38.464801 
L 510.716687 38.523831 
L 515.144303 38.652074 
L 519.571919 38.84953 
L 523.999535 39.116199 
L 528.427152 39.452081 
L 532.854768 39.857176 
L 537.282384 40.331484 
L 541.71 40.875004 
" clip-path="url(#p7d8a3893cb)" style="fill: none; stroke-dasharray: 9.6,2.4,1.5,2.4; stroke-dashoffset: 0; stroke: #a50034; stroke-width: 1.5"/>
   </g>
   <g id="line2d_25">
    <path d="M 103.376 322.509034 
L 107.803616 316.275362 
L 112.231232 310.111803 
L 116.658848 304.018356 
L 121.086465 297.995022 
L 125.514081 292.041799 
L 129.941697 286.158689 
L 134.369313 280.34569 
L 138.796929 274.602804 
L 143.224545 268.93003 
L 147.652162 263.327369 
L 152.079778 257.794819 
L 156.507394 252.332382 
L 160.93501 246.940057 
L 165.362626 241.617844 
L 169.790242 236.365743 
L 174.217859 231.183754 
L 178.645475 226.071878 
L 183.073091 221.030114 
L 187.500707 216.058462 
L 191.928323 211.156922 
L 196.355939 206.325494 
L 200.783556 201.564178 
L 205.211172 196.872975 
L 209.638788 192.251884 
L 214.066404 187.700905 
L 218.49402 183.220038 
L 222.921636 178.809283 
L 227.349253 174.468641 
L 231.776869 170.19811 
L 236.204485 165.997692 
L 240.632101 161.867386 
L 245.059717 157.807192 
L 249.487333 153.817111 
L 253.914949 149.897141 
L 258.342566 146.047284 
L 262.770182 142.267539 
L 267.197798 138.557906 
L 271.625414 134.918385 
L 276.05303 131.348977 
L 280.480646 127.84968 
L 284.908263 124.420496 
L 289.335879 121.061424 
L 293.763495 117.772464 
L 298.191111 114.553617 
L 302.618727 111.404881 
L 307.046343 108.326258 
L 311.47396 105.317747 
L 315.901576 102.379348 
L 320.329192 99.511061 
L 324.756808 96.712886 
L 329.184424 93.984824 
L 333.61204 91.326873 
L 338.039657 88.739035 
L 342.467273 86.221309 
L 346.894889 83.773696 
L 351.322505 81.396194 
L 355.750121 79.088805 
L 360.177737 76.851528 
L 364.605354 74.684363 
L 369.03297 72.58731 
L 373.460586 70.560369 
L 377.888202 68.603541 
L 382.315818 66.716824 
L 386.743434 64.90022 
L 391.171051 63.153728 
L 395.598667 61.477348 
L 400.026283 59.871081 
L 404.453899 58.334925 
L 408.881515 56.868882 
L 413.309131 55.472951 
L 417.736747 54.147132 
L 422.164364 52.891425 
L 426.59198 51.705831 
L 431.019596 50.590348 
L 435.447212 49.544978 
L 439.874828 48.56972 
L 444.302444 47.664574 
L 448.730061 46.829541 
L 453.157677 46.064619 
L 457.585293 45.36981 
L 462.012909 44.745113 
L 466.440525 44.190528 
L 470.868141 43.706055 
L 475.295758 43.291694 
L 479.723374 42.947446 
L 484.15099 42.67331 
L 488.578606 42.469285 
L 493.006222 42.335374 
L 497.433838 42.271574 
L 501.861455 42.277886 
L 506.289071 42.354311 
L 510.716687 42.500848 
L 515.144303 42.717497 
L 519.571919 43.004258 
L 523.999535 43.361131 
L 528.427152 43.788117 
L 532.854768 44.285214 
L 537.282384 44.852424 
L 541.71 45.489746 
" clip-path="url(#p7d8a3893cb)" style="fill: none; stroke-dasharray: 9.6,2.4,1.5,2.4; stroke-dashoffset: 0; stroke: #ef60a3; stroke-width: 1.5"/>
   </g>
   <g id="line2d_26">
    <path d="M 103.376 320.698432 
L 107.803616 314.450575 
L 112.231232 308.273594 
L 116.658848 302.16749 
L 121.086465 296.132262 
L 125.514081 290.16791 
L 129.941697 284.274434 
L 134.369313 278.451835 
L 138.796929 272.700112 
L 143.224545 267.019265 
L 147.652162 261.409294 
L 152.079778 255.8702 
L 156.507394 250.401981 
L 160.93501 245.004639 
L 165.362626 239.678173 
L 169.790242 234.422583 
L 174.217859 229.23787 
L 178.645475 224.124033 
L 183.073091 219.081072 
L 187.500707 214.108987 
L 191.928323 209.207778 
L 196.355939 204.377446 
L 200.783556 199.61799 
L 205.211172 194.92941 
L 209.638788 190.311706 
L 214.066404 185.764879 
L 218.49402 181.288927 
L 222.921636 176.883852 
L 227.349253 172.549653 
L 231.776869 168.286331 
L 236.204485 164.093884 
L 240.632101 159.972314 
L 245.059717 155.92162 
L 249.487333 151.941803 
L 253.914949 148.032861 
L 258.342566 144.194796 
L 262.770182 140.427607 
L 267.197798 136.731294 
L 271.625414 133.105857 
L 276.05303 129.551297 
L 280.480646 126.067612 
L 284.908263 122.654804 
L 289.335879 119.312873 
L 293.763495 116.041817 
L 298.191111 112.841638 
L 302.618727 109.712335 
L 307.046343 106.653908 
L 311.47396 103.666357 
L 315.901576 100.749682 
L 320.329192 97.903884 
L 324.756808 95.128962 
L 329.184424 92.424916 
L 333.61204 89.791747 
L 338.039657 87.229453 
L 342.467273 84.738036 
L 346.894889 82.317495 
L 351.322505 79.96783 
L 355.750121 77.689042 
L 360.177737 75.48113 
L 364.605354 73.344094 
L 369.03297 71.277934 
L 373.460586 69.28265 
L 377.888202 67.358243 
L 382.315818 65.504711 
L 386.743434 63.722056 
L 391.171051 62.010278 
L 395.598667 60.369375 
L 400.026283 58.799349 
L 404.453899 57.300199 
L 408.881515 55.871925 
L 413.309131 54.514527 
L 417.736747 53.228006 
L 422.164364 52.01236 
L 426.59198 50.867591 
L 431.019596 49.793699 
L 435.447212 48.790682 
L 439.874828 47.858542 
L 444.302444 46.997278 
L 448.730061 46.20689 
L 453.157677 45.487378 
L 457.585293 44.838742 
L 462.012909 44.260983 
L 466.440525 43.7541 
L 470.868141 43.318093 
L 475.295758 42.952963 
L 479.723374 42.658708 
L 484.15099 42.43533 
L 488.578606 42.282828 
L 493.006222 42.201202 
L 497.433838 42.190453 
L 501.861455 42.25058 
L 506.289071 42.381582 
L 510.716687 42.583462 
L 515.144303 42.856217 
L 519.571919 43.199848 
L 523.999535 43.614356 
L 528.427152 44.09974 
L 532.854768 44.656 
L 537.282384 45.283137 
L 541.71 45.98115 
" clip-path="url(#p7d8a3893cb)" style="fill: none; stroke-dasharray: 9.6,2.4,1.5,2.4; stroke-dashoffset: 0; stroke: #6cc24a; stroke-width: 1.5"/>
   </g>
   <g id="line2d_27">
    <path d="M 103.376 340.990909 
L 107.803616 334.388938 
L 112.231232 327.861112 
L 116.658848 321.407431 
L 121.086465 315.027895 
L 125.514081 308.722505 
L 129.941697 302.491259 
L 134.369313 296.334159 
L 138.796929 290.251204 
L 143.224545 284.242394 
L 147.652162 278.30773 
L 152.079778 272.44721 
L 156.507394 266.660836 
L 160.93501 260.948607 
L 165.362626 255.310523 
L 169.790242 249.746584 
L 174.217859 244.25679 
L 178.645475 238.841142 
L 183.073091 233.499638 
L 187.500707 228.23228 
L 191.928323 223.039067 
L 196.355939 217.919999 
L 200.783556 212.875077 
L 205.211172 207.904299 
L 209.638788 203.007667 
L 214.066404 198.18518 
L 218.49402 193.436838 
L 222.921636 188.762641 
L 227.349253 184.162589 
L 231.776869 179.636683 
L 236.204485 175.184922 
L 240.632101 170.807305 
L 245.059717 166.503834 
L 249.487333 162.274509 
L 253.914949 158.119328 
L 258.342566 154.038293 
L 262.770182 150.031402 
L 267.197798 146.098657 
L 271.625414 142.240057 
L 276.05303 138.455602 
L 280.480646 134.745293 
L 284.908263 131.109128 
L 289.335879 127.547109 
L 293.763495 124.059235 
L 298.191111 120.645506 
L 302.618727 117.305922 
L 307.046343 114.040484 
L 311.47396 110.84919 
L 315.901576 107.732042 
L 320.329192 104.689039 
L 324.756808 101.720181 
L 329.184424 98.825468 
L 333.61204 96.0049 
L 338.039657 93.258478 
L 342.467273 90.586201 
L 346.894889 87.988069 
L 351.322505 85.464082 
L 355.750121 83.01424 
L 360.177737 80.638543 
L 364.605354 78.336992 
L 369.03297 76.109586 
L 373.460586 73.956325 
L 377.888202 71.877209 
L 382.315818 69.872238 
L 386.743434 67.941412 
L 391.171051 66.084732 
L 395.598667 64.302197 
L 400.026283 62.593807 
L 404.453899 60.959562 
L 408.881515 59.399462 
L 413.309131 57.913507 
L 417.736747 56.501698 
L 422.164364 55.164034 
L 426.59198 53.900515 
L 431.019596 52.711141 
L 435.447212 51.595912 
L 439.874828 50.554829 
L 444.302444 49.58789 
L 448.730061 48.695097 
L 453.157677 47.876449 
L 457.585293 47.131946 
L 462.012909 46.461588 
L 466.440525 45.865376 
L 470.868141 45.343309 
L 475.295758 44.895386 
L 479.723374 44.521609 
L 484.15099 44.221977 
L 488.578606 43.996491 
L 493.006222 43.845149 
L 497.433838 43.767953 
L 501.861455 43.764902 
L 506.289071 43.835996 
L 510.716687 43.981235 
L 515.144303 44.200619 
L 519.571919 44.494149 
L 523.999535 44.861823 
L 528.427152 45.303643 
L 532.854768 45.819608 
L 537.282384 46.409718 
L 541.71 47.073974 
" clip-path="url(#p7d8a3893cb)" style="fill: none; stroke-dasharray: 9.6,2.4,1.5,2.4; stroke-dashoffset: 0; stroke: #ffb81c; stroke-width: 1.5"/>
   </g>
   <g id="patch_3">
    <path d="M 103.376 356.2 
L 103.376 21.6 
" style="fill: none; stroke: #000000; stroke-width: 0.8; stroke-linejoin: miter; stroke-linecap: square"/>
   </g>
   <g id="patch_4">
    <path d="M 541.71 356.2 
L 541.71 21.6 
" style="fill: none; stroke: #000000; stroke-width: 0.8; stroke-linejoin: miter; stroke-linecap: square"/>
   </g>
   <g id="patch_5">
    <path d="M 103.376 356.2 
L 541.71 356.2 
" style="fill: none; stroke: #000000; stroke-width: 0.8; stroke-linejoin: miter; stroke-linecap: square"/>
   </g>
   <g id="patch_6">
    <path d="M 103.376 21.6 
L 541.71 21.6 
" style="fill: none; stroke: #000000; stroke-width: 0.8; stroke-linejoin: miter; stroke-linecap: square"/>
   </g>
   <g id="legend_1">
    <g id="patch_7">
     <path d="M 253.14125 346.2 
L 527.71 346.2 
Q 531.71 346.2 531.71 342.2 
L 531.71 197.41875 
Q 531.71 193.41875 527.71 193.41875 
L 253.14125 193.41875 
Q 249.14125 193.41875 249.14125 197.41875 
L 249.14125 342.2 
Q 249.14125 346.2 253.14125 346.2 
z
" style="fill: #ffffff; opacity: 0.8; stroke: #cccccc; stroke-linejoin: miter"/>
    </g>
    <g id="line2d_28">
     <path d="M 257.14125 209.615625 
L 277.14125 209.615625 
L 297.14125 209.615625 
" style="fill: none; stroke-dasharray: 9.6,2.4,1.5,2.4; stroke-dashoffset: 0; stroke: #00a6b6; stroke-width: 1.5"/>
    </g>
    <g id="text_14">
     <!-- V = 40.0 m/s, J = 1.6 -->
     <g transform="translate(313.14125 216.615625) scale(0.2 -0.2)">
      <defs>
       <path id="DejaVuSans-56" d="M 1831 0 
L 50 4666 
L 709 4666 
L 2188 738 
L 3669 4666 
L 4325 4666 
L 2547 0 
L 1831 0 
z
" transform="scale(0.015625)"/>
       <path id="DejaVuSans-3d" d="M 678 2906 
L 4684 2906 
L 4684 2381 
L 678 2381 
L 678 2906 
z
M 678 1631 
L 4684 1631 
L 4684 1100 
L 678 1100 
L 678 1631 
z
" transform="scale(0.015625)"/>
       <path id="DejaVuSans-2f" d="M 1625 4666 
L 2156 4666 
L 531 -594 
L 0 -594 
L 1625 4666 
z
" transform="scale(0.015625)"/>
       <path id="DejaVuSans-73" d="M 2834 3397 
L 2834 2853 
Q 2591 2978 2328 3040 
Q 2066 3103 1784 3103 
Q 1356 3103 1142 2972 
Q 928 2841 928 2578 
Q 928 2378 1081 2264 
Q 1234 2150 1697 2047 
L 1894 2003 
Q 2506 1872 2764 1633 
Q 3022 1394 3022 966 
Q 3022 478 2636 193 
Q 2250 -91 1575 -91 
Q 1294 -91 989 -36 
Q 684 19 347 128 
L 347 722 
Q 666 556 975 473 
Q 1284 391 1588 391 
Q 1994 391 2212 530 
Q 2431 669 2431 922 
Q 2431 1156 2273 1281 
Q 2116 1406 1581 1522 
L 1381 1569 
Q 847 1681 609 1914 
Q 372 2147 372 2553 
Q 372 3047 722 3315 
Q 1072 3584 1716 3584 
Q 2034 3584 2315 3537 
Q 2597 3491 2834 3397 
z
" transform="scale(0.015625)"/>
       <path id="DejaVuSans-2c" d="M 750 794 
L 1409 794 
L 1409 256 
L 897 -744 
L 494 -744 
L 750 256 
L 750 794 
z
" transform="scale(0.015625)"/>
       <path id="DejaVuSans-4a" d="M 628 4666 
L 1259 4666 
L 1259 325 
Q 1259 -519 939 -900 
Q 619 -1281 -91 -1281 
L -331 -1281 
L -331 -750 
L -134 -750 
Q 284 -750 456 -515 
Q 628 -281 628 325 
L 628 4666 
z
" transform="scale(0.015625)"/>
      </defs>
      <use xlink:href="#DejaVuSans-56"/>
      <use xlink:href="#DejaVuSans-20" x="68.408203"/>
      <use xlink:href="#DejaVuSans-3d" x="100.195312"/>
      <use xlink:href="#DejaVuSans-20" x="183.984375"/>
      <use xlink:href="#DejaVuSans-34" x="215.771484"/>
      <use xlink:href="#DejaVuSans-30" x="279.394531"/>
      <use xlink:href="#DejaVuSans-2e" x="343.017578"/>
      <use xlink:href="#DejaVuSans-30" x="374.804688"/>
      <use xlink:href="#DejaVuSans-20" x="438.427734"/>
      <use xlink:href="#DejaVuSans-6d" x="470.214844"/>
      <use xlink:href="#DejaVuSans-2f" x="567.626953"/>
      <use xlink:href="#DejaVuSans-73" x="601.318359"/>
      <use xlink:href="#DejaVuSans-2c" x="653.417969"/>
      <use xlink:href="#DejaVuSans-20" x="685.205078"/>
      <use xlink:href="#DejaVuSans-4a" x="716.992188"/>
      <use xlink:href="#DejaVuSans-20" x="746.484375"/>
      <use xlink:href="#DejaVuSans-3d" x="778.271484"/>
      <use xlink:href="#DejaVuSans-20" x="862.060547"/>
      <use xlink:href="#DejaVuSans-31" x="893.847656"/>
      <use xlink:href="#DejaVuSans-2e" x="957.470703"/>
      <use xlink:href="#DejaVuSans-36" x="989.257812"/>
     </g>
    </g>
    <g id="line2d_29">
     <path d="M 257.14125 238.971875 
L 277.14125 238.971875 
L 297.14125 238.971875 
" style="fill: none; stroke-dasharray: 9.6,2.4,1.5,2.4; stroke-dashoffset: 0; stroke: #a50034; stroke-width: 1.5"/>
    </g>
    <g id="text_15">
     <!-- V = 40.0 m/s, J = 1.8 -->
     <g transform="translate(313.14125 245.971875) scale(0.2 -0.2)">
      <use xlink:href="#DejaVuSans-56"/>
      <use xlink:href="#DejaVuSans-20" x="68.408203"/>
      <use xlink:href="#DejaVuSans-3d" x="100.195312"/>
      <use xlink:href="#DejaVuSans-20" x="183.984375"/>
      <use xlink:href="#DejaVuSans-34" x="215.771484"/>
      <use xlink:href="#DejaVuSans-30" x="279.394531"/>
      <use xlink:href="#DejaVuSans-2e" x="343.017578"/>
      <use xlink:href="#DejaVuSans-30" x="374.804688"/>
      <use xlink:href="#DejaVuSans-20" x="438.427734"/>
      <use xlink:href="#DejaVuSans-6d" x="470.214844"/>
      <use xlink:href="#DejaVuSans-2f" x="567.626953"/>
      <use xlink:href="#DejaVuSans-73" x="601.318359"/>
      <use xlink:href="#DejaVuSans-2c" x="653.417969"/>
      <use xlink:href="#DejaVuSans-20" x="685.205078"/>
      <use xlink:href="#DejaVuSans-4a" x="716.992188"/>
      <use xlink:href="#DejaVuSans-20" x="746.484375"/>
      <use xlink:href="#DejaVuSans-3d" x="778.271484"/>
      <use xlink:href="#DejaVuSans-20" x="862.060547"/>
      <use xlink:href="#DejaVuSans-31" x="893.847656"/>
      <use xlink:href="#DejaVuSans-2e" x="957.470703"/>
      <use xlink:href="#DejaVuSans-38" x="989.257812"/>
     </g>
    </g>
    <g id="line2d_30">
     <path d="M 257.14125 268.328125 
L 277.14125 268.328125 
L 297.14125 268.328125 
" style="fill: none; stroke-dasharray: 9.6,2.4,1.5,2.4; stroke-dashoffset: 0; stroke: #ef60a3; stroke-width: 1.5"/>
    </g>
    <g id="text_16">
     <!-- V = 40.0 m/s, J = 3.5 -->
     <g transform="translate(313.14125 275.328125) scale(0.2 -0.2)">
      <defs>
       <path id="DejaVuSans-33" d="M 2597 2516 
Q 3050 2419 3304 2112 
Q 3559 1806 3559 1356 
Q 3559 666 3084 287 
Q 2609 -91 1734 -91 
Q 1441 -91 1130 -33 
Q 819 25 488 141 
L 488 750 
Q 750 597 1062 519 
Q 1375 441 1716 441 
Q 2309 441 2620 675 
Q 2931 909 2931 1356 
Q 2931 1769 2642 2001 
Q 2353 2234 1838 2234 
L 1294 2234 
L 1294 2753 
L 1863 2753 
Q 2328 2753 2575 2939 
Q 2822 3125 2822 3475 
Q 2822 3834 2567 4026 
Q 2313 4219 1838 4219 
Q 1578 4219 1281 4162 
Q 984 4106 628 3988 
L 628 4550 
Q 988 4650 1302 4700 
Q 1616 4750 1894 4750 
Q 2613 4750 3031 4423 
Q 3450 4097 3450 3541 
Q 3450 3153 3228 2886 
Q 3006 2619 2597 2516 
z
" transform="scale(0.015625)"/>
      </defs>
      <use xlink:href="#DejaVuSans-56"/>
      <use xlink:href="#DejaVuSans-20" x="68.408203"/>
      <use xlink:href="#DejaVuSans-3d" x="100.195312"/>
      <use xlink:href="#DejaVuSans-20" x="183.984375"/>
      <use xlink:href="#DejaVuSans-34" x="215.771484"/>
      <use xlink:href="#DejaVuSans-30" x="279.394531"/>
      <use xlink:href="#DejaVuSans-2e" x="343.017578"/>
      <use xlink:href="#DejaVuSans-30" x="374.804688"/>
      <use xlink:href="#DejaVuSans-20" x="438.427734"/>
      <use xlink:href="#DejaVuSans-6d" x="470.214844"/>
      <use xlink:href="#DejaVuSans-2f" x="567.626953"/>
      <use xlink:href="#DejaVuSans-73" x="601.318359"/>
      <use xlink:href="#DejaVuSans-2c" x="653.417969"/>
      <use xlink:href="#DejaVuSans-20" x="685.205078"/>
      <use xlink:href="#DejaVuSans-4a" x="716.992188"/>
      <use xlink:href="#DejaVuSans-20" x="746.484375"/>
      <use xlink:href="#DejaVuSans-3d" x="778.271484"/>
      <use xlink:href="#DejaVuSans-20" x="862.060547"/>
      <use xlink:href="#DejaVuSans-33" x="893.847656"/>
      <use xlink:href="#DejaVuSans-2e" x="957.470703"/>
      <use xlink:href="#DejaVuSans-35" x="989.257812"/>
     </g>
    </g>
    <g id="line2d_31">
     <path d="M 257.14125 297.684375 
L 277.14125 297.684375 
L 297.14125 297.684375 
" style="fill: none; stroke-dasharray: 9.6,2.4,1.5,2.4; stroke-dashoffset: 0; stroke: #6cc24a; stroke-width: 1.5"/>
    </g>
    <g id="text_17">
     <!-- V = 20.0 m/s, J = 1.6 -->
     <g transform="translate(313.14125 304.684375) scale(0.2 -0.2)">
      <use xlink:href="#DejaVuSans-56"/>
      <use xlink:href="#DejaVuSans-20" x="68.408203"/>
      <use xlink:href="#DejaVuSans-3d" x="100.195312"/>
      <use xlink:href="#DejaVuSans-20" x="183.984375"/>
      <use xlink:href="#DejaVuSans-32" x="215.771484"/>
      <use xlink:href="#DejaVuSans-30" x="279.394531"/>
      <use xlink:href="#DejaVuSans-2e" x="343.017578"/>
      <use xlink:href="#DejaVuSans-30" x="374.804688"/>
      <use xlink:href="#DejaVuSans-20" x="438.427734"/>
      <use xlink:href="#DejaVuSans-6d" x="470.214844"/>
      <use xlink:href="#DejaVuSans-2f" x="567.626953"/>
      <use xlink:href="#DejaVuSans-73" x="601.318359"/>
      <use xlink:href="#DejaVuSans-2c" x="653.417969"/>
      <use xlink:href="#DejaVuSans-20" x="685.205078"/>
      <use xlink:href="#DejaVuSans-4a" x="716.992188"/>
      <use xlink:href="#DejaVuSans-20" x="746.484375"/>
      <use xlink:href="#DejaVuSans-3d" x="778.271484"/>
      <use xlink:href="#DejaVuSans-20" x="862.060547"/>
      <use xlink:href="#DejaVuSans-31" x="893.847656"/>
      <use xlink:href="#DejaVuSans-2e" x="957.470703"/>
      <use xlink:href="#DejaVuSans-36" x="989.257812"/>
     </g>
    </g>
    <g id="line2d_32">
     <path d="M 257.14125 327.040625 
L 277.14125 327.040625 
L 297.14125 327.040625 
" style="fill: none; stroke-dasharray: 9.6,2.4,1.5,2.4; stroke-dashoffset: 0; stroke: #ffb81c; stroke-width: 1.5"/>
    </g>
    <g id="text_18">
     <!-- V = 10.0 m/s, J = 1.6 -->
     <g transform="translate(313.14125 334.040625) scale(0.2 -0.2)">
      <use xlink:href="#DejaVuSans-56"/>
      <use xlink:href="#DejaVuSans-20" x="68.408203"/>
      <use xlink:href="#DejaVuSans-3d" x="100.195312"/>
      <use xlink:href="#DejaVuSans-20" x="183.984375"/>
      <use xlink:href="#DejaVuSans-31" x="215.771484"/>
      <use xlink:href="#DejaVuSans-30" x="279.394531"/>
      <use xlink:href="#DejaVuSans-2e" x="343.017578"/>
      <use xlink:href="#DejaVuSans-30" x="374.804688"/>
      <use xlink:href="#DejaVuSans-20" x="438.427734"/>
      <use xlink:href="#DejaVuSans-6d" x="470.214844"/>
      <use xlink:href="#DejaVuSans-2f" x="567.626953"/>
      <use xlink:href="#DejaVuSans-73" x="601.318359"/>
      <use xlink:href="#DejaVuSans-2c" x="653.417969"/>
      <use xlink:href="#DejaVuSans-20" x="685.205078"/>
      <use xlink:href="#DejaVuSans-4a" x="716.992188"/>
      <use xlink:href="#DejaVuSans-20" x="746.484375"/>
      <use xlink:href="#DejaVuSans-3d" x="778.271484"/>
      <use xlink:href="#DejaVuSans-20" x="862.060547"/>
      <use xlink:href="#DejaVuSans-31" x="893.847656"/>
      <use xlink:href="#DejaVuSans-2e" x="957.470703"/>
      <use xlink:href="#DejaVuSans-36" x="989.257812"/>
     </g>
    </g>
   </g>
  </g>
 </g>
 <defs>
  <clipPath id="p7d8a3893cb">
   <rect x="103.376" y="21.6" width="438.334" height="334.6"/>
  </clipPath>
 </defs>
</svg>
