<?xml version="1.0" encoding="utf-8" standalone="no"?>
<!DOCTYPE svg PUBLIC "-//W3C//DTD SVG 1.1//EN"
  "http://www.w3.org/Graphics/SVG/1.1/DTD/svg11.dtd">
<svg xmlns:xlink="http://www.w3.org/1999/xlink" width="720pt" height="432pt" viewBox="0 0 720 432" xmlns="http://www.w3.org/2000/svg" version="1.1">
 <metadata>
  <rdf:RDF xmlns:dc="http://purl.org/dc/elements/1.1/" xmlns:cc="http://creativecommons.org/ns#" xmlns:rdf="http://www.w3.org/1999/02/22-rdf-syntax-ns#">
   <cc:Work>
    <dc:type rdf:resource="http://purl.org/dc/dcmitype/StillImage"/>
    <dc:date>2024-04-02T15:19:56.817580</dc:date>
    <dc:format>image/svg+xml</dc:format>
    <dc:creator>
     <cc:Agent>
      <dc:title>Matplotlib v3.8.3, https://matplotlib.org/</dc:title>
     </cc:Agent>
    </dc:creator>
   </cc:Work>
  </rdf:RDF>
 </metadata>
 <defs>
  <style type="text/css">*{stroke-linejoin: round; stroke-linecap: butt}</style>
 </defs>
 <g id="figure_1">
  <g id="patch_1">
   <path d="M 0 432 
L 720 432 
L 720 0 
L 0 0 
z
" style="fill: #ffffff"/>
  </g>
  <g id="axes_1">
   <g id="patch_2">
    <path d="M 80.642 373.12 
L 694.26 373.12 
L 694.26 16.2 
L 80.642 16.2 
z
" style="fill: #ffffff"/>
   </g>
   <g id="PathCollection_1">
    <defs>
     <path id="m3f1f3386e0" d="M 0 3 
C 0.795609 3 1.55874 2.683901 2.12132 2.12132 
C 2.683901 1.55874 3 0.795609 3 0 
C 3 -0.795609 2.683901 -1.55874 2.12132 -2.12132 
C 1.55874 -2.683901 0.795609 -3 0 -3 
C -0.795609 -3 -1.55874 -2.683901 -2.12132 -2.12132 
C -2.683901 -1.55874 -3 -0.795609 -3 0 
C -3 0.795609 -2.683901 1.55874 -2.12132 2.12132 
C -1.55874 2.683901 -0.795609 3 0 3 
z
" style="stroke: #00a6b6"/>
    </defs>
    <g clip-path="url(#pd934eb87c8)">
     <use xlink:href="#m3f1f3386e0" x="182.896794" y="248.941862" style="fill: #00a6b6; stroke: #00a6b6"/>
     <use xlink:href="#m3f1f3386e0" x="203.358455" y="235.3361" style="fill: #00a6b6; stroke: #00a6b6"/>
     <use xlink:href="#m3f1f3386e0" x="223.820386" y="221.657086" style="fill: #00a6b6; stroke: #00a6b6"/>
     <use xlink:href="#m3f1f3386e0" x="244.282339" y="208.250562" style="fill: #00a6b6; stroke: #00a6b6"/>
     <use xlink:href="#m3f1f3386e0" x="264.744246" y="194.977192" style="fill: #00a6b6; stroke: #00a6b6"/>
     <use xlink:href="#m3f1f3386e0" x="285.206119" y="181.795783" style="fill: #00a6b6; stroke: #00a6b6"/>
     <use xlink:href="#m3f1f3386e0" x="305.667818" y="169.106982" style="fill: #00a6b6; stroke: #00a6b6"/>
     <use xlink:href="#m3f1f3386e0" x="326.129396" y="156.373474" style="fill: #00a6b6; stroke: #00a6b6"/>
     <use xlink:href="#m3f1f3386e0" x="346.590749" y="143.680038" style="fill: #00a6b6; stroke: #00a6b6"/>
     <use xlink:href="#m3f1f3386e0" x="367.051865" y="131.571035" style="fill: #00a6b6; stroke: #00a6b6"/>
     <use xlink:href="#m3f1f3386e0" x="387.512723" y="119.507241" style="fill: #00a6b6; stroke: #00a6b6"/>
     <use xlink:href="#m3f1f3386e0" x="407.973257" y="107.884965" style="fill: #00a6b6; stroke: #00a6b6"/>
     <use xlink:href="#m3f1f3386e0" x="428.433232" y="97.962415" style="fill: #00a6b6; stroke: #00a6b6"/>
     <use xlink:href="#m3f1f3386e0" x="448.892218" y="89.6694" style="fill: #00a6b6; stroke: #00a6b6"/>
     <use xlink:href="#m3f1f3386e0" x="469.348057" y="81.582593" style="fill: #00a6b6; stroke: #00a6b6"/>
     <use xlink:href="#m3f1f3386e0" x="489.803272" y="75.487134" style="fill: #00a6b6; stroke: #00a6b6"/>
     <use xlink:href="#m3f1f3386e0" x="510.260426" y="69.902558" style="fill: #00a6b6; stroke: #00a6b6"/>
     <use xlink:href="#m3f1f3386e0" x="530.718138" y="63.314974" style="fill: #00a6b6; stroke: #00a6b6"/>
     <use xlink:href="#m3f1f3386e0" x="551.176033" y="60.128975" style="fill: #00a6b6; stroke: #00a6b6"/>
     <use xlink:href="#m3f1f3386e0" x="571.633204" y="52.791887" style="fill: #00a6b6; stroke: #00a6b6"/>
    </g>
   </g>
   <g id="PathCollection_2">
    <defs>
     <path id="mdc7842847c" d="M 0 3 
C 0.795609 3 1.55874 2.683901 2.12132 2.12132 
C 2.683901 1.55874 3 0.795609 3 0 
C 3 -0.795609 2.683901 -1.55874 2.12132 -2.12132 
C 1.55874 -2.683901 0.795609 -3 0 -3 
C -0.795609 -3 -1.55874 -2.683901 -2.12132 -2.12132 
C -2.683901 -1.55874 -3 -0.795609 -3 0 
C -3 0.795609 -2.683901 1.55874 -2.12132 2.12132 
C -1.55874 2.683901 -0.795609 3 0 3 
z
" style="stroke: #a50034"/>
    </defs>
    <g clip-path="url(#pd934eb87c8)">
     <use xlink:href="#mdc7842847c" x="182.899191" y="247.468641" style="fill: #a50034; stroke: #a50034"/>
     <use xlink:href="#mdc7842847c" x="203.360456" y="233.981807" style="fill: #a50034; stroke: #a50034"/>
     <use xlink:href="#mdc7842847c" x="223.821947" y="220.607248" style="fill: #a50034; stroke: #a50034"/>
     <use xlink:href="#mdc7842847c" x="244.283363" y="207.836225" style="fill: #a50034; stroke: #a50034"/>
     <use xlink:href="#mdc7842847c" x="264.744928" y="194.799101" style="fill: #a50034; stroke: #a50034"/>
     <use xlink:href="#mdc7842847c" x="285.206602" y="182.277184" style="fill: #a50034; stroke: #a50034"/>
     <use xlink:href="#mdc7842847c" x="305.667951" y="169.465793" style="fill: #a50034; stroke: #a50034"/>
     <use xlink:href="#mdc7842847c" x="326.129525" y="156.829984" style="fill: #a50034; stroke: #a50034"/>
     <use xlink:href="#mdc7842847c" x="346.590899" y="144.307257" style="fill: #a50034; stroke: #a50034"/>
     <use xlink:href="#mdc7842847c" x="367.052181" y="132.017753" style="fill: #a50034; stroke: #a50034"/>
     <use xlink:href="#mdc7842847c" x="387.513372" y="119.724568" style="fill: #a50034; stroke: #a50034"/>
     <use xlink:href="#mdc7842847c" x="407.974114" y="108.74815" style="fill: #a50034; stroke: #a50034"/>
     <use xlink:href="#mdc7842847c" x="428.434448" y="98.49216" style="fill: #a50034; stroke: #a50034"/>
     <use xlink:href="#mdc7842847c" x="448.893441" y="90.446831" style="fill: #a50034; stroke: #a50034"/>
     <use xlink:href="#mdc7842847c" x="469.350845" y="82.297856" style="fill: #a50034; stroke: #a50034"/>
     <use xlink:href="#mdc7842847c" x="489.807267" y="75.242658" style="fill: #a50034; stroke: #a50034"/>
     <use xlink:href="#mdc7842847c" x="510.262316" y="71.415666" style="fill: #a50034; stroke: #a50034"/>
     <use xlink:href="#mdc7842847c" x="530.719628" y="65.791761" style="fill: #a50034; stroke: #a50034"/>
     <use xlink:href="#mdc7842847c" x="551.17466" y="62.838344" style="fill: #a50034; stroke: #a50034"/>
     <use xlink:href="#mdc7842847c" x="571.632505" y="55.998317" style="fill: #a50034; stroke: #a50034"/>
    </g>
   </g>
   <g id="PathCollection_3">
    <defs>
     <path id="me14c77c7a9" d="M 0 3 
C 0.795609 3 1.55874 2.683901 2.12132 2.12132 
C 2.683901 1.55874 3 0.795609 3 0 
C 3 -0.795609 2.683901 -1.55874 2.12132 -2.12132 
C 1.55874 -2.683901 0.795609 -3 0 -3 
C -0.795609 -3 -1.55874 -2.683901 -2.12132 -2.12132 
C -2.683901 -1.55874 -3 -0.795609 -3 0 
C -3 0.795609 -2.683901 1.55874 -2.12132 2.12132 
C -1.55874 2.683901 -0.795609 3 0 3 
z
" style="stroke: #ef60a3"/>
    </defs>
    <g clip-path="url(#pd934eb87c8)">
     <use xlink:href="#me14c77c7a9" x="182.900372" y="261.201465" style="fill: #ef60a3; stroke: #ef60a3"/>
     <use xlink:href="#me14c77c7a9" x="428.435629" y="101.785289" style="fill: #ef60a3; stroke: #ef60a3"/>
     <use xlink:href="#me14c77c7a9" x="530.72081" y="71.512194" style="fill: #ef60a3; stroke: #ef60a3"/>
     <use xlink:href="#me14c77c7a9" x="571.633687" y="56.130765" style="fill: #ef60a3; stroke: #ef60a3"/>
    </g>
   </g>
   <g id="matplotlib.axis_1">
    <g id="xtick_1">
     <g id="line2d_1">
      <path d="M 80.642 373.12 
L 80.642 16.2 
" clip-path="url(#pd934eb87c8)" style="fill: none; stroke: #b0b0b0; stroke-width: 0.8; stroke-linecap: square"/>
     </g>
     <g id="line2d_2">
      <defs>
       <path id="m93d649456d" d="M 0 0 
L 0 3.5 
" style="stroke: #000000; stroke-width: 0.8"/>
      </defs>
      <g>
       <use xlink:href="#m93d649456d" x="80.642" y="373.12" style="stroke: #000000; stroke-width: 0.8"/>
      </g>
     </g>
     <g id="text_1">
      <!-- −10 -->
      <g transform="translate(64.813484 391.517656) scale(0.15 -0.15)">
       <defs>
        <path id="DejaVuSans-2212" d="M 678 2272 
L 4684 2272 
L 4684 1741 
L 678 1741 
L 678 2272 
z
" transform="scale(0.015625)"/>
        <path id="DejaVuSans-31" d="M 794 531 
L 1825 531 
L 1825 4091 
L 703 3866 
L 703 4441 
L 1819 4666 
L 2450 4666 
L 2450 531 
L 3481 531 
L 3481 0 
L 794 0 
L 794 531 
z
" transform="scale(0.015625)"/>
        <path id="DejaVuSans-30" d="M 2034 4250 
Q 1547 4250 1301 3770 
Q 1056 3291 1056 2328 
Q 1056 1369 1301 889 
Q 1547 409 2034 409 
Q 2525 409 2770 889 
Q 3016 1369 3016 2328 
Q 3016 3291 2770 3770 
Q 2525 4250 2034 4250 
z
M 2034 4750 
Q 2819 4750 3233 4129 
Q 3647 3509 3647 2328 
Q 3647 1150 3233 529 
Q 2819 -91 2034 -91 
Q 1250 -91 836 529 
Q 422 1150 422 2328 
Q 422 3509 836 4129 
Q 1250 4750 2034 4750 
z
" transform="scale(0.015625)"/>
       </defs>
       <use xlink:href="#DejaVuSans-2212"/>
       <use xlink:href="#DejaVuSans-31" x="83.789062"/>
       <use xlink:href="#DejaVuSans-30" x="147.412109"/>
      </g>
     </g>
    </g>
    <g id="xtick_2">
     <g id="line2d_3">
      <path d="M 142.0038 373.12 
L 142.0038 16.2 
" clip-path="url(#pd934eb87c8)" style="fill: none; stroke: #b0b0b0; stroke-width: 0.8; stroke-linecap: square"/>
     </g>
     <g id="line2d_4">
      <g>
       <use xlink:href="#m93d649456d" x="142.0038" y="373.12" style="stroke: #000000; stroke-width: 0.8"/>
      </g>
     </g>
     <g id="text_2">
      <!-- −7 -->
      <g transform="translate(130.947159 391.517656) scale(0.15 -0.15)">
       <defs>
        <path id="DejaVuSans-37" d="M 525 4666 
L 3525 4666 
L 3525 4397 
L 1831 0 
L 1172 0 
L 2766 4134 
L 525 4134 
L 525 4666 
z
" transform="scale(0.015625)"/>
       </defs>
       <use xlink:href="#DejaVuSans-2212"/>
       <use xlink:href="#DejaVuSans-37" x="83.789062"/>
      </g>
     </g>
    </g>
    <g id="xtick_3">
     <g id="line2d_5">
      <path d="M 203.3656 373.12 
L 203.3656 16.2 
" clip-path="url(#pd934eb87c8)" style="fill: none; stroke: #b0b0b0; stroke-width: 0.8; stroke-linecap: square"/>
     </g>
     <g id="line2d_6">
      <g>
       <use xlink:href="#m93d649456d" x="203.3656" y="373.12" style="stroke: #000000; stroke-width: 0.8"/>
      </g>
     </g>
     <g id="text_3">
      <!-- −4 -->
      <g transform="translate(192.308959 391.517656) scale(0.15 -0.15)">
       <defs>
        <path id="DejaVuSans-34" d="M 2419 4116 
L 825 1625 
L 2419 1625 
L 2419 4116 
z
M 2253 4666 
L 3047 4666 
L 3047 1625 
L 3713 1625 
L 3713 1100 
L 3047 1100 
L 3047 0 
L 2419 0 
L 2419 1100 
L 313 1100 
L 313 1709 
L 2253 4666 
z
" transform="scale(0.015625)"/>
       </defs>
       <use xlink:href="#DejaVuSans-2212"/>
       <use xlink:href="#DejaVuSans-34" x="83.789062"/>
      </g>
     </g>
    </g>
    <g id="xtick_4">
     <g id="line2d_7">
      <path d="M 264.7274 373.12 
L 264.7274 16.2 
" clip-path="url(#pd934eb87c8)" style="fill: none; stroke: #b0b0b0; stroke-width: 0.8; stroke-linecap: square"/>
     </g>
     <g id="line2d_8">
      <g>
       <use xlink:href="#m93d649456d" x="264.7274" y="373.12" style="stroke: #000000; stroke-width: 0.8"/>
      </g>
     </g>
     <g id="text_4">
      <!-- −1 -->
      <g transform="translate(253.670759 391.517656) scale(0.15 -0.15)">
       <use xlink:href="#DejaVuSans-2212"/>
       <use xlink:href="#DejaVuSans-31" x="83.789062"/>
      </g>
     </g>
    </g>
    <g id="xtick_5">
     <g id="line2d_9">
      <path d="M 326.0892 373.12 
L 326.0892 16.2 
" clip-path="url(#pd934eb87c8)" style="fill: none; stroke: #b0b0b0; stroke-width: 0.8; stroke-linecap: square"/>
     </g>
     <g id="line2d_10">
      <g>
       <use xlink:href="#m93d649456d" x="326.0892" y="373.12" style="stroke: #000000; stroke-width: 0.8"/>
      </g>
     </g>
     <g id="text_5">
      <!-- 2 -->
      <g transform="translate(321.317325 391.517656) scale(0.15 -0.15)">
       <defs>
        <path id="DejaVuSans-32" d="M 1228 531 
L 3431 531 
L 3431 0 
L 469 0 
L 469 531 
Q 828 903 1448 1529 
Q 2069 2156 2228 2338 
Q 2531 2678 2651 2914 
Q 2772 3150 2772 3378 
Q 2772 3750 2511 3984 
Q 2250 4219 1831 4219 
Q 1534 4219 1204 4116 
Q 875 4013 500 3803 
L 500 4441 
Q 881 4594 1212 4672 
Q 1544 4750 1819 4750 
Q 2544 4750 2975 4387 
Q 3406 4025 3406 3419 
Q 3406 3131 3298 2873 
Q 3191 2616 2906 2266 
Q 2828 2175 2409 1742 
Q 1991 1309 1228 531 
z
" transform="scale(0.015625)"/>
       </defs>
       <use xlink:href="#DejaVuSans-32"/>
      </g>
     </g>
    </g>
    <g id="xtick_6">
     <g id="line2d_11">
      <path d="M 387.451 373.12 
L 387.451 16.2 
" clip-path="url(#pd934eb87c8)" style="fill: none; stroke: #b0b0b0; stroke-width: 0.8; stroke-linecap: square"/>
     </g>
     <g id="line2d_12">
      <g>
       <use xlink:href="#m93d649456d" x="387.451" y="373.12" style="stroke: #000000; stroke-width: 0.8"/>
      </g>
     </g>
     <g id="text_6">
      <!-- 5 -->
      <g transform="translate(382.679125 391.517656) scale(0.15 -0.15)">
       <defs>
        <path id="DejaVuSans-35" d="M 691 4666 
L 3169 4666 
L 3169 4134 
L 1269 4134 
L 1269 2991 
Q 1406 3038 1543 3061 
Q 1681 3084 1819 3084 
Q 2600 3084 3056 2656 
Q 3513 2228 3513 1497 
Q 3513 744 3044 326 
Q 2575 -91 1722 -91 
Q 1428 -91 1123 -41 
Q 819 9 494 109 
L 494 744 
Q 775 591 1075 516 
Q 1375 441 1709 441 
Q 2250 441 2565 725 
Q 2881 1009 2881 1497 
Q 2881 1984 2565 2268 
Q 2250 2553 1709 2553 
Q 1456 2553 1204 2497 
Q 953 2441 691 2322 
L 691 4666 
z
" transform="scale(0.015625)"/>
       </defs>
       <use xlink:href="#DejaVuSans-35"/>
      </g>
     </g>
    </g>
    <g id="xtick_7">
     <g id="line2d_13">
      <path d="M 448.8128 373.12 
L 448.8128 16.2 
" clip-path="url(#pd934eb87c8)" style="fill: none; stroke: #b0b0b0; stroke-width: 0.8; stroke-linecap: square"/>
     </g>
     <g id="line2d_14">
      <g>
       <use xlink:href="#m93d649456d" x="448.8128" y="373.12" style="stroke: #000000; stroke-width: 0.8"/>
      </g>
     </g>
     <g id="text_7">
      <!-- 8 -->
      <g transform="translate(444.040925 391.517656) scale(0.15 -0.15)">
       <defs>
        <path id="DejaVuSans-38" d="M 2034 2216 
Q 1584 2216 1326 1975 
Q 1069 1734 1069 1313 
Q 1069 891 1326 650 
Q 1584 409 2034 409 
Q 2484 409 2743 651 
Q 3003 894 3003 1313 
Q 3003 1734 2745 1975 
Q 2488 2216 2034 2216 
z
M 1403 2484 
Q 997 2584 770 2862 
Q 544 3141 544 3541 
Q 544 4100 942 4425 
Q 1341 4750 2034 4750 
Q 2731 4750 3128 4425 
Q 3525 4100 3525 3541 
Q 3525 3141 3298 2862 
Q 3072 2584 2669 2484 
Q 3125 2378 3379 2068 
Q 3634 1759 3634 1313 
Q 3634 634 3220 271 
Q 2806 -91 2034 -91 
Q 1263 -91 848 271 
Q 434 634 434 1313 
Q 434 1759 690 2068 
Q 947 2378 1403 2484 
z
M 1172 3481 
Q 1172 3119 1398 2916 
Q 1625 2713 2034 2713 
Q 2441 2713 2670 2916 
Q 2900 3119 2900 3481 
Q 2900 3844 2670 4047 
Q 2441 4250 2034 4250 
Q 1625 4250 1398 4047 
Q 1172 3844 1172 3481 
z
" transform="scale(0.015625)"/>
       </defs>
       <use xlink:href="#DejaVuSans-38"/>
      </g>
     </g>
    </g>
    <g id="xtick_8">
     <g id="line2d_15">
      <path d="M 510.1746 373.12 
L 510.1746 16.2 
" clip-path="url(#pd934eb87c8)" style="fill: none; stroke: #b0b0b0; stroke-width: 0.8; stroke-linecap: square"/>
     </g>
     <g id="line2d_16">
      <g>
       <use xlink:href="#m93d649456d" x="510.1746" y="373.12" style="stroke: #000000; stroke-width: 0.8"/>
      </g>
     </g>
     <g id="text_8">
      <!-- 11 -->
      <g transform="translate(500.63085 391.517656) scale(0.15 -0.15)">
       <use xlink:href="#DejaVuSans-31"/>
       <use xlink:href="#DejaVuSans-31" x="63.623047"/>
      </g>
     </g>
    </g>
    <g id="xtick_9">
     <g id="line2d_17">
      <path d="M 571.5364 373.12 
L 571.5364 16.2 
" clip-path="url(#pd934eb87c8)" style="fill: none; stroke: #b0b0b0; stroke-width: 0.8; stroke-linecap: square"/>
     </g>
     <g id="line2d_18">
      <g>
       <use xlink:href="#m93d649456d" x="571.5364" y="373.12" style="stroke: #000000; stroke-width: 0.8"/>
      </g>
     </g>
     <g id="text_9">
      <!-- 14 -->
      <g transform="translate(561.99265 391.517656) scale(0.15 -0.15)">
       <use xlink:href="#DejaVuSans-31"/>
       <use xlink:href="#DejaVuSans-34" x="63.623047"/>
      </g>
     </g>
    </g>
    <g id="xtick_10">
     <g id="line2d_19">
      <path d="M 632.8982 373.12 
L 632.8982 16.2 
" clip-path="url(#pd934eb87c8)" style="fill: none; stroke: #b0b0b0; stroke-width: 0.8; stroke-linecap: square"/>
     </g>
     <g id="line2d_20">
      <g>
       <use xlink:href="#m93d649456d" x="632.8982" y="373.12" style="stroke: #000000; stroke-width: 0.8"/>
      </g>
     </g>
     <g id="text_10">
      <!-- 17 -->
      <g transform="translate(623.35445 391.517656) scale(0.15 -0.15)">
       <use xlink:href="#DejaVuSans-31"/>
       <use xlink:href="#DejaVuSans-37" x="63.623047"/>
      </g>
     </g>
    </g>
    <g id="xtick_11">
     <g id="line2d_21">
      <path d="M 694.26 373.12 
L 694.26 16.2 
" clip-path="url(#pd934eb87c8)" style="fill: none; stroke: #b0b0b0; stroke-width: 0.8; stroke-linecap: square"/>
     </g>
     <g id="line2d_22">
      <g>
       <use xlink:href="#m93d649456d" x="694.26" y="373.12" style="stroke: #000000; stroke-width: 0.8"/>
      </g>
     </g>
     <g id="text_11">
      <!-- 20 -->
      <g transform="translate(684.71625 391.517656) scale(0.15 -0.15)">
       <use xlink:href="#DejaVuSans-32"/>
       <use xlink:href="#DejaVuSans-30" x="63.623047"/>
      </g>
     </g>
    </g>
    <g id="text_12">
     <!-- $\alpha$ [deg] -->
     <g transform="translate(360.076 410.037188) scale(0.15 -0.15)">
      <defs>
       <path id="DejaVuSans-Oblique-3b1" d="M 2619 1628 
L 2622 2350 
Q 2625 3088 2069 3091 
Q 1653 3094 1394 2747 
Q 1069 2319 959 1747 
Q 825 1059 994 731 
Q 1169 397 1547 397 
Q 1966 397 2319 1063 
L 2619 1628 
z
M 2166 3578 
Q 3141 3594 3128 2584 
Q 3128 2584 3616 3500 
L 4128 3500 
L 3119 1603 
L 3109 919 
Q 3109 766 3194 638 
Q 3291 488 3391 488 
L 3669 488 
L 3575 0 
L 3228 0 
Q 2934 0 2722 263 
Q 2622 394 2619 669 
Q 2416 334 2066 50 
Q 1900 -81 1453 -78 
Q 722 -72 456 397 
Q 184 884 353 1747 
Q 534 2675 1009 3097 
Q 1544 3569 2166 3578 
z
" transform="scale(0.015625)"/>
       <path id="DejaVuSans-20" transform="scale(0.015625)"/>
       <path id="DejaVuSans-5b" d="M 550 4863 
L 1875 4863 
L 1875 4416 
L 1125 4416 
L 1125 -397 
L 1875 -397 
L 1875 -844 
L 550 -844 
L 550 4863 
z
" transform="scale(0.015625)"/>
       <path id="DejaVuSans-64" d="M 2906 2969 
L 2906 4863 
L 3481 4863 
L 3481 0 
L 2906 0 
L 2906 525 
Q 2725 213 2448 61 
Q 2172 -91 1784 -91 
Q 1150 -91 751 415 
Q 353 922 353 1747 
Q 353 2572 751 3078 
Q 1150 3584 1784 3584 
Q 2172 3584 2448 3432 
Q 2725 3281 2906 2969 
z
M 947 1747 
Q 947 1113 1208 752 
Q 1469 391 1925 391 
Q 2381 391 2643 752 
Q 2906 1113 2906 1747 
Q 2906 2381 2643 2742 
Q 2381 3103 1925 3103 
Q 1469 3103 1208 2742 
Q 947 2381 947 1747 
z
" transform="scale(0.015625)"/>
       <path id="DejaVuSans-65" d="M 3597 1894 
L 3597 1613 
L 953 1613 
Q 991 1019 1311 708 
Q 1631 397 2203 397 
Q 2534 397 2845 478 
Q 3156 559 3463 722 
L 3463 178 
Q 3153 47 2828 -22 
Q 2503 -91 2169 -91 
Q 1331 -91 842 396 
Q 353 884 353 1716 
Q 353 2575 817 3079 
Q 1281 3584 2069 3584 
Q 2775 3584 3186 3129 
Q 3597 2675 3597 1894 
z
M 3022 2063 
Q 3016 2534 2758 2815 
Q 2500 3097 2075 3097 
Q 1594 3097 1305 2825 
Q 1016 2553 972 2059 
L 3022 2063 
z
" transform="scale(0.015625)"/>
       <path id="DejaVuSans-67" d="M 2906 1791 
Q 2906 2416 2648 2759 
Q 2391 3103 1925 3103 
Q 1463 3103 1205 2759 
Q 947 2416 947 1791 
Q 947 1169 1205 825 
Q 1463 481 1925 481 
Q 2391 481 2648 825 
Q 2906 1169 2906 1791 
z
M 3481 434 
Q 3481 -459 3084 -895 
Q 2688 -1331 1869 -1331 
Q 1566 -1331 1297 -1286 
Q 1028 -1241 775 -1147 
L 775 -588 
Q 1028 -725 1275 -790 
Q 1522 -856 1778 -856 
Q 2344 -856 2625 -561 
Q 2906 -266 2906 331 
L 2906 616 
Q 2728 306 2450 153 
Q 2172 0 1784 0 
Q 1141 0 747 490 
Q 353 981 353 1791 
Q 353 2603 747 3093 
Q 1141 3584 1784 3584 
Q 2172 3584 2450 3431 
Q 2728 3278 2906 2969 
L 2906 3500 
L 3481 3500 
L 3481 434 
z
" transform="scale(0.015625)"/>
       <path id="DejaVuSans-5d" d="M 1947 4863 
L 1947 -844 
L 622 -844 
L 622 -397 
L 1369 -397 
L 1369 4416 
L 622 4416 
L 622 4863 
L 1947 4863 
z
" transform="scale(0.015625)"/>
      </defs>
      <use xlink:href="#DejaVuSans-Oblique-3b1" transform="translate(0 0.015625)"/>
      <use xlink:href="#DejaVuSans-20" transform="translate(65.917969 0.015625)"/>
      <use xlink:href="#DejaVuSans-5b" transform="translate(97.705078 0.015625)"/>
      <use xlink:href="#DejaVuSans-64" transform="translate(136.71875 0.015625)"/>
      <use xlink:href="#DejaVuSans-65" transform="translate(200.195312 0.015625)"/>
      <use xlink:href="#DejaVuSans-67" transform="translate(261.71875 0.015625)"/>
      <use xlink:href="#DejaVuSans-5d" transform="translate(325.195312 0.015625)"/>
     </g>
    </g>
   </g>
   <g id="matplotlib.axis_2">
    <g id="ytick_1">
     <g id="line2d_23">
      <path d="M 80.642 321.144219 
L 694.26 321.144219 
" clip-path="url(#pd934eb87c8)" style="fill: none; stroke: #b0b0b0; stroke-width: 0.8; stroke-linecap: square"/>
     </g>
     <g id="line2d_24">
      <defs>
       <path id="m55927b0a85" d="M 0 0 
L -3.5 0 
" style="stroke: #000000; stroke-width: 0.8"/>
      </defs>
      <g>
       <use xlink:href="#m55927b0a85" x="80.642" y="321.144219" style="stroke: #000000; stroke-width: 0.8"/>
      </g>
     </g>
     <g id="text_13">
      <!-- −1.0 -->
      <g transform="translate(37.217781 326.843047) scale(0.15 -0.15)">
       <defs>
        <path id="DejaVuSans-2e" d="M 684 794 
L 1344 794 
L 1344 0 
L 684 0 
L 684 794 
z
" transform="scale(0.015625)"/>
       </defs>
       <use xlink:href="#DejaVuSans-2212"/>
       <use xlink:href="#DejaVuSans-31" x="83.789062"/>
       <use xlink:href="#DejaVuSans-2e" x="147.412109"/>
       <use xlink:href="#DejaVuSans-30" x="179.199219"/>
      </g>
     </g>
    </g>
    <g id="ytick_2">
     <g id="line2d_25">
      <path d="M 80.642 264.983735 
L 694.26 264.983735 
" clip-path="url(#pd934eb87c8)" style="fill: none; stroke: #b0b0b0; stroke-width: 0.8; stroke-linecap: square"/>
     </g>
     <g id="line2d_26">
      <g>
       <use xlink:href="#m55927b0a85" x="80.642" y="264.983735" style="stroke: #000000; stroke-width: 0.8"/>
      </g>
     </g>
     <g id="text_14">
      <!-- −0.5 -->
      <g transform="translate(37.217781 270.682563) scale(0.15 -0.15)">
       <use xlink:href="#DejaVuSans-2212"/>
       <use xlink:href="#DejaVuSans-30" x="83.789062"/>
       <use xlink:href="#DejaVuSans-2e" x="147.412109"/>
       <use xlink:href="#DejaVuSans-35" x="179.199219"/>
      </g>
     </g>
    </g>
    <g id="ytick_3">
     <g id="line2d_27">
      <path d="M 80.642 208.823251 
L 694.26 208.823251 
" clip-path="url(#pd934eb87c8)" style="fill: none; stroke: #b0b0b0; stroke-width: 0.8; stroke-linecap: square"/>
     </g>
     <g id="line2d_28">
      <g>
       <use xlink:href="#m55927b0a85" x="80.642" y="208.823251" style="stroke: #000000; stroke-width: 0.8"/>
      </g>
     </g>
     <g id="text_15">
      <!-- 0.0 -->
      <g transform="translate(49.787313 214.522079) scale(0.15 -0.15)">
       <use xlink:href="#DejaVuSans-30"/>
       <use xlink:href="#DejaVuSans-2e" x="63.623047"/>
       <use xlink:href="#DejaVuSans-30" x="95.410156"/>
      </g>
     </g>
    </g>
    <g id="ytick_4">
     <g id="line2d_29">
      <path d="M 80.642 152.662767 
L 694.26 152.662767 
" clip-path="url(#pd934eb87c8)" style="fill: none; stroke: #b0b0b0; stroke-width: 0.8; stroke-linecap: square"/>
     </g>
     <g id="line2d_30">
      <g>
       <use xlink:href="#m55927b0a85" x="80.642" y="152.662767" style="stroke: #000000; stroke-width: 0.8"/>
      </g>
     </g>
     <g id="text_16">
      <!-- 0.5 -->
      <g transform="translate(49.787313 158.361595) scale(0.15 -0.15)">
       <use xlink:href="#DejaVuSans-30"/>
       <use xlink:href="#DejaVuSans-2e" x="63.623047"/>
       <use xlink:href="#DejaVuSans-35" x="95.410156"/>
      </g>
     </g>
    </g>
    <g id="ytick_5">
     <g id="line2d_31">
      <path d="M 80.642 96.502283 
L 694.26 96.502283 
" clip-path="url(#pd934eb87c8)" style="fill: none; stroke: #b0b0b0; stroke-width: 0.8; stroke-linecap: square"/>
     </g>
     <g id="line2d_32">
      <g>
       <use xlink:href="#m55927b0a85" x="80.642" y="96.502283" style="stroke: #000000; stroke-width: 0.8"/>
      </g>
     </g>
     <g id="text_17">
      <!-- 1.0 -->
      <g transform="translate(49.787313 102.201111) scale(0.15 -0.15)">
       <use xlink:href="#DejaVuSans-31"/>
       <use xlink:href="#DejaVuSans-2e" x="63.623047"/>
       <use xlink:href="#DejaVuSans-30" x="95.410156"/>
      </g>
     </g>
    </g>
    <g id="ytick_6">
     <g id="line2d_33">
      <path d="M 80.642 40.341799 
L 694.26 40.341799 
" clip-path="url(#pd934eb87c8)" style="fill: none; stroke: #b0b0b0; stroke-width: 0.8; stroke-linecap: square"/>
     </g>
     <g id="line2d_34">
      <g>
       <use xlink:href="#m55927b0a85" x="80.642" y="40.341799" style="stroke: #000000; stroke-width: 0.8"/>
      </g>
     </g>
     <g id="text_18">
      <!-- 1.5 -->
      <g transform="translate(49.787313 46.040627) scale(0.15 -0.15)">
       <use xlink:href="#DejaVuSans-31"/>
       <use xlink:href="#DejaVuSans-2e" x="63.623047"/>
       <use xlink:href="#DejaVuSans-35" x="95.410156"/>
      </g>
     </g>
    </g>
    <g id="text_19">
     <!-- $C_L$ [-] -->
     <g transform="translate(30.09825 214.01) rotate(-90) scale(0.15 -0.15)">
      <defs>
       <path id="DejaVuSans-Oblique-43" d="M 4447 4306 
L 4319 3641 
Q 4019 3944 3683 4091 
Q 3347 4238 2956 4238 
Q 2422 4238 2017 3981 
Q 1613 3725 1319 3200 
Q 1131 2863 1032 2486 
Q 934 2109 934 1728 
Q 934 1091 1264 756 
Q 1594 422 2222 422 
Q 2656 422 3056 561 
Q 3456 700 3834 978 
L 3688 231 
Q 3316 72 2936 -9 
Q 2556 -91 2175 -91 
Q 1278 -91 773 396 
Q 269 884 269 1753 
Q 269 2309 461 2846 
Q 653 3384 1013 3828 
Q 1394 4300 1883 4525 
Q 2372 4750 3022 4750 
Q 3422 4750 3780 4639 
Q 4138 4528 4447 4306 
z
" transform="scale(0.015625)"/>
       <path id="DejaVuSans-Oblique-4c" d="M 1075 4666 
L 1709 4666 
L 909 525 
L 3181 525 
L 3078 0 
L 172 0 
L 1075 4666 
z
" transform="scale(0.015625)"/>
       <path id="DejaVuSans-2d" d="M 313 2009 
L 1997 2009 
L 1997 1497 
L 313 1497 
L 313 2009 
z
" transform="scale(0.015625)"/>
      </defs>
      <use xlink:href="#DejaVuSans-Oblique-43" transform="translate(0 0.015625)"/>
      <use xlink:href="#DejaVuSans-Oblique-4c" transform="translate(69.824219 -16.390625) scale(0.7)"/>
      <use xlink:href="#DejaVuSans-20" transform="translate(111.557617 0.015625)"/>
      <use xlink:href="#DejaVuSans-5b" transform="translate(143.344727 0.015625)"/>
      <use xlink:href="#DejaVuSans-2d" transform="translate(182.358398 0.015625)"/>
      <use xlink:href="#DejaVuSans-5d" transform="translate(218.442383 0.015625)"/>
     </g>
    </g>
   </g>
   <g id="line2d_35">
    <path d="M 80.642 340.771153 
L 86.840162 335.014616 
L 93.038323 329.311997 
L 99.236485 323.663293 
L 105.434646 318.068507 
L 111.632808 312.527637 
L 117.83097 307.040684 
L 124.029131 301.607647 
L 130.227293 296.228527 
L 136.425455 290.903324 
L 142.623616 285.632037 
L 148.821778 280.414667 
L 155.019939 275.251214 
L 161.218101 270.141677 
L 167.416263 265.086057 
L 173.614424 260.084353 
L 179.812586 255.136566 
L 186.010747 250.242696 
L 192.208909 245.402743 
L 198.407071 240.616706 
L 204.605232 235.884585 
L 210.803394 231.206381 
L 217.001556 226.582094 
L 223.199717 222.011724 
L 229.397879 217.49527 
L 235.59604 213.032733 
L 241.794202 208.624112 
L 247.992364 204.269408 
L 254.190525 199.968621 
L 260.388687 195.72175 
L 266.586848 191.528796 
L 272.78501 187.389759 
L 278.983172 183.304638 
L 285.181333 179.273434 
L 291.379495 175.296147 
L 297.577657 171.372776 
L 303.775818 167.503321 
L 309.97398 163.687784 
L 316.172141 159.926163 
L 322.370303 156.218459 
L 328.568465 152.564671 
L 334.766626 148.9648 
L 340.964788 145.418845 
L 347.162949 141.926808 
L 353.361111 138.488686 
L 359.559273 135.104482 
L 365.757434 131.774194 
L 371.955596 128.497823 
L 378.153758 125.275368 
L 384.351919 122.10683 
L 390.550081 118.992209 
L 396.748242 115.931504 
L 402.946404 112.924716 
L 409.144566 109.971844 
L 415.342727 107.072889 
L 421.540889 104.227851 
L 427.739051 101.43673 
L 433.937212 98.699525 
L 440.135374 96.016236 
L 446.333535 93.386865 
L 452.531697 90.81141 
L 458.729859 88.289871 
L 464.92802 85.822249 
L 471.126182 83.408544 
L 477.324343 81.048756 
L 483.522505 78.742884 
L 489.720667 76.490929 
L 495.918828 74.29289 
L 502.11699 72.148768 
L 508.315152 70.058563 
L 514.513313 68.022274 
L 520.711475 66.039902 
L 526.909636 64.111446 
L 533.107798 62.236908 
L 539.30596 60.416285 
L 545.504121 58.64958 
L 551.702283 56.936791 
L 557.900444 55.277919 
L 564.098606 53.672963 
L 570.296768 52.121924 
L 576.494929 50.624802 
L 582.693091 49.181596 
L 588.891253 47.792307 
L 595.089414 46.456934 
L 601.287576 45.175478 
L 607.485737 43.947939 
L 613.683899 42.774316 
L 619.882061 41.654611 
L 626.080222 40.588821 
L 632.278384 39.576949 
L 638.476545 38.618992 
L 644.674707 37.714953 
L 650.872869 36.86483 
L 657.07103 36.068624 
L 663.269192 35.326335 
L 669.467354 34.637962 
L 675.665515 34.003505 
L 681.863677 33.422966 
L 688.061838 32.896343 
L 694.26 32.423636 
" clip-path="url(#pd934eb87c8)" style="fill: none; stroke-dasharray: 9.6,2.4,1.5,2.4; stroke-dashoffset: 0; stroke: #00a6b6; stroke-width: 1.5"/>
   </g>
   <g id="line2d_36">
    <path d="M 80.642 339.297934 
L 86.840162 333.565817 
L 93.038323 327.888261 
L 99.236485 322.265265 
L 105.434646 316.696829 
L 111.632808 311.182954 
L 117.83097 305.723639 
L 124.029131 300.318884 
L 130.227293 294.96869 
L 136.425455 289.673056 
L 142.623616 284.431982 
L 148.821778 279.245469 
L 155.019939 274.113516 
L 161.218101 269.036123 
L 167.416263 264.01329 
L 173.614424 259.045018 
L 179.812586 254.131306 
L 186.010747 249.272154 
L 192.208909 244.467563 
L 198.407071 239.717532 
L 204.605232 235.022061 
L 210.803394 230.381151 
L 217.001556 225.794801 
L 223.199717 221.263011 
L 229.397879 216.785781 
L 235.59604 212.363112 
L 241.794202 207.995003 
L 247.992364 203.681455 
L 254.190525 199.422466 
L 260.388687 195.218038 
L 266.586848 191.068171 
L 272.78501 186.972863 
L 278.983172 182.932116 
L 285.181333 178.945929 
L 291.379495 175.014303 
L 297.577657 171.137237 
L 303.775818 167.314731 
L 309.97398 163.546785 
L 316.172141 159.8334 
L 322.370303 156.174575 
L 328.568465 152.57031 
L 334.766626 149.020606 
L 340.964788 145.525462 
L 347.162949 142.084878 
L 353.361111 138.698855 
L 359.559273 135.367392 
L 365.757434 132.090489 
L 371.955596 128.868146 
L 378.153758 125.700364 
L 384.351919 122.587142 
L 390.550081 119.528481 
L 396.748242 116.524379 
L 402.946404 113.574838 
L 409.144566 110.679858 
L 415.342727 107.839437 
L 421.540889 105.053577 
L 427.739051 102.322277 
L 433.937212 99.645538 
L 440.135374 97.023359 
L 446.333535 94.45574 
L 452.531697 91.942681 
L 458.729859 89.484183 
L 464.92802 87.080245 
L 471.126182 84.730868 
L 477.324343 82.43605 
L 483.522505 80.195793 
L 489.720667 78.010096 
L 495.918828 75.87896 
L 502.11699 73.802384 
L 508.315152 71.780368 
L 514.513313 69.812913 
L 520.711475 67.900017 
L 526.909636 66.041683 
L 533.107798 64.237908 
L 539.30596 62.488694 
L 545.504121 60.79404 
L 551.702283 59.153946 
L 557.900444 57.568413 
L 564.098606 56.03744 
L 570.296768 54.561027 
L 576.494929 53.139174 
L 582.693091 51.771882 
L 588.891253 50.45915 
L 595.089414 49.200979 
L 601.287576 47.997367 
L 607.485737 46.848317 
L 613.683899 45.753826 
L 619.882061 44.713896 
L 626.080222 43.728526 
L 632.278384 42.797716 
L 638.476545 41.921466 
L 644.674707 41.099777 
L 650.872869 40.332648 
L 657.07103 39.62008 
L 663.269192 38.962072 
L 669.467354 38.358624 
L 675.665515 37.809736 
L 681.863677 37.315409 
L 688.061838 36.875642 
L 694.26 36.490435 
" clip-path="url(#pd934eb87c8)" style="fill: none; stroke-dasharray: 9.6,2.4,1.5,2.4; stroke-dashoffset: 0; stroke: #a50034; stroke-width: 1.5"/>
   </g>
   <g id="line2d_37">
    <path d="M 80.642 356.896364 
L 86.840162 350.58106 
L 93.038323 344.330928 
L 99.236485 338.145968 
L 105.434646 332.02618 
L 111.632808 325.971563 
L 117.83097 319.982117 
L 124.029131 314.057844 
L 130.227293 308.198742 
L 136.425455 302.404811 
L 142.623616 296.676052 
L 148.821778 291.012465 
L 155.019939 285.41405 
L 161.218101 279.880806 
L 167.416263 274.412733 
L 173.614424 269.009833 
L 179.812586 263.672104 
L 186.010747 258.399547 
L 192.208909 253.192161 
L 198.407071 248.049947 
L 204.605232 242.972904 
L 210.803394 237.961033 
L 217.001556 233.014334 
L 223.199717 228.132807 
L 229.397879 223.316451 
L 235.59604 218.565267 
L 241.794202 213.879254 
L 247.992364 209.258413 
L 254.190525 204.702743 
L 260.388687 200.212246 
L 266.586848 195.78692 
L 272.78501 191.426765 
L 278.983172 187.131782 
L 285.181333 182.901971 
L 291.379495 178.737331 
L 297.577657 174.637864 
L 303.775818 170.603567 
L 309.97398 166.634443 
L 316.172141 162.730489 
L 322.370303 158.891708 
L 328.568465 155.118098 
L 334.766626 151.40966 
L 340.964788 147.766394 
L 347.162949 144.188299 
L 353.361111 140.675375 
L 359.559273 137.227624 
L 365.757434 133.845044 
L 371.955596 130.527636 
L 378.153758 127.275399 
L 384.351919 124.088334 
L 390.550081 120.96644 
L 396.748242 117.909718 
L 402.946404 114.918168 
L 409.144566 111.99179 
L 415.342727 109.130583 
L 421.540889 106.334548 
L 427.739051 103.603684 
L 433.937212 100.937992 
L 440.135374 98.337471 
L 446.333535 95.802123 
L 452.531697 93.331946 
L 458.729859 90.92694 
L 464.92802 88.587106 
L 471.126182 86.312444 
L 477.324343 84.102953 
L 483.522505 81.958634 
L 489.720667 79.879487 
L 495.918828 77.865511 
L 502.11699 75.916707 
L 508.315152 74.033075 
L 514.513313 72.214614 
L 520.711475 70.461325 
L 526.909636 68.773208 
L 533.107798 67.150262 
L 539.30596 65.592487 
L 545.504121 64.099885 
L 551.702283 62.672454 
L 557.900444 61.310194 
L 564.098606 60.013107 
L 570.296768 58.781191 
L 576.494929 57.614446 
L 582.693091 56.512873 
L 588.891253 55.476472 
L 595.089414 54.505243 
L 601.287576 53.599185 
L 607.485737 52.758298 
L 613.683899 51.982584 
L 619.882061 51.272041 
L 626.080222 50.626669 
L 632.278384 50.04647 
L 638.476545 49.531442 
L 644.674707 49.081585 
L 650.872869 48.6969 
L 657.07103 48.377387 
L 663.269192 48.123045 
L 669.467354 47.933875 
L 675.665515 47.809877 
L 681.863677 47.75105 
L 688.061838 47.757395 
L 694.26 47.828912 
" clip-path="url(#pd934eb87c8)" style="fill: none; stroke-dasharray: 9.6,2.4,1.5,2.4; stroke-dashoffset: 0; stroke: #ef60a3; stroke-width: 1.5"/>
   </g>
   <g id="patch_3">
    <path d="M 80.642 373.12 
L 80.642 16.2 
" style="fill: none; stroke: #000000; stroke-width: 0.8; stroke-linejoin: miter; stroke-linecap: square"/>
   </g>
   <g id="patch_4">
    <path d="M 694.26 373.12 
L 694.26 16.2 
" style="fill: none; stroke: #000000; stroke-width: 0.8; stroke-linejoin: miter; stroke-linecap: square"/>
   </g>
   <g id="patch_5">
    <path d="M 80.642 373.12 
L 694.26 373.12 
" style="fill: none; stroke: #000000; stroke-width: 0.8; stroke-linejoin: miter; stroke-linecap: square"/>
   </g>
   <g id="patch_6">
    <path d="M 80.642 16.2 
L 694.26 16.2 
" style="fill: none; stroke: #000000; stroke-width: 0.8; stroke-linejoin: miter; stroke-linecap: square"/>
   </g>
   <g id="legend_1">
    <g id="patch_7">
     <path d="M 91.142 94.251562 
L 297.068562 94.251562 
Q 300.068562 94.251562 300.068562 91.251562 
L 300.068562 26.7 
Q 300.068562 23.7 297.068562 23.7 
L 91.142 23.7 
Q 88.142 23.7 88.142 26.7 
L 88.142 91.251562 
Q 88.142 94.251562 91.142 94.251562 
z
" style="fill: #ffffff; opacity: 0.8; stroke: #cccccc; stroke-linejoin: miter"/>
    </g>
    <g id="line2d_38">
     <path d="M 94.142 35.847656 
L 109.142 35.847656 
L 124.142 35.847656 
" style="fill: none; stroke-dasharray: 9.6,2.4,1.5,2.4; stroke-dashoffset: 0; stroke: #00a6b6; stroke-width: 1.5"/>
    </g>
    <g id="text_20">
     <!-- V = 40.0 m/s, J = 1.6 -->
     <g transform="translate(136.142 41.097656) scale(0.15 -0.15)">
      <defs>
       <path id="DejaVuSans-56" d="M 1831 0 
L 50 4666 
L 709 4666 
L 2188 738 
L 3669 4666 
L 4325 4666 
L 2547 0 
L 1831 0 
z
" transform="scale(0.015625)"/>
       <path id="DejaVuSans-3d" d="M 678 2906 
L 4684 2906 
L 4684 2381 
L 678 2381 
L 678 2906 
z
M 678 1631 
L 4684 1631 
L 4684 1100 
L 678 1100 
L 678 1631 
z
" transform="scale(0.015625)"/>
       <path id="DejaVuSans-6d" d="M 3328 2828 
Q 3544 3216 3844 3400 
Q 4144 3584 4550 3584 
Q 5097 3584 5394 3201 
Q 5691 2819 5691 2113 
L 5691 0 
L 5113 0 
L 5113 2094 
Q 5113 2597 4934 2840 
Q 4756 3084 4391 3084 
Q 3944 3084 3684 2787 
Q 3425 2491 3425 1978 
L 3425 0 
L 2847 0 
L 2847 2094 
Q 2847 2600 2669 2842 
Q 2491 3084 2119 3084 
Q 1678 3084 1418 2786 
Q 1159 2488 1159 1978 
L 1159 0 
L 581 0 
L 581 3500 
L 1159 3500 
L 1159 2956 
Q 1356 3278 1631 3431 
Q 1906 3584 2284 3584 
Q 2666 3584 2933 3390 
Q 3200 3197 3328 2828 
z
" transform="scale(0.015625)"/>
       <path id="DejaVuSans-2f" d="M 1625 4666 
L 2156 4666 
L 531 -594 
L 0 -594 
L 1625 4666 
z
" transform="scale(0.015625)"/>
       <path id="DejaVuSans-73" d="M 2834 3397 
L 2834 2853 
Q 2591 2978 2328 3040 
Q 2066 3103 1784 3103 
Q 1356 3103 1142 2972 
Q 928 2841 928 2578 
Q 928 2378 1081 2264 
Q 1234 2150 1697 2047 
L 1894 2003 
Q 2506 1872 2764 1633 
Q 3022 1394 3022 966 
Q 3022 478 2636 193 
Q 2250 -91 1575 -91 
Q 1294 -91 989 -36 
Q 684 19 347 128 
L 347 722 
Q 666 556 975 473 
Q 1284 391 1588 391 
Q 1994 391 2212 530 
Q 2431 669 2431 922 
Q 2431 1156 2273 1281 
Q 2116 1406 1581 1522 
L 1381 1569 
Q 847 1681 609 1914 
Q 372 2147 372 2553 
Q 372 3047 722 3315 
Q 1072 3584 1716 3584 
Q 2034 3584 2315 3537 
Q 2597 3491 2834 3397 
z
" transform="scale(0.015625)"/>
       <path id="DejaVuSans-2c" d="M 750 794 
L 1409 794 
L 1409 256 
L 897 -744 
L 494 -744 
L 750 256 
L 750 794 
z
" transform="scale(0.015625)"/>
       <path id="DejaVuSans-4a" d="M 628 4666 
L 1259 4666 
L 1259 325 
Q 1259 -519 939 -900 
Q 619 -1281 -91 -1281 
L -331 -1281 
L -331 -750 
L -134 -750 
Q 284 -750 456 -515 
Q 628 -281 628 325 
L 628 4666 
z
" transform="scale(0.015625)"/>
       <path id="DejaVuSans-36" d="M 2113 2584 
Q 1688 2584 1439 2293 
Q 1191 2003 1191 1497 
Q 1191 994 1439 701 
Q 1688 409 2113 409 
Q 2538 409 2786 701 
Q 3034 994 3034 1497 
Q 3034 2003 2786 2293 
Q 2538 2584 2113 2584 
z
M 3366 4563 
L 3366 3988 
Q 3128 4100 2886 4159 
Q 2644 4219 2406 4219 
Q 1781 4219 1451 3797 
Q 1122 3375 1075 2522 
Q 1259 2794 1537 2939 
Q 1816 3084 2150 3084 
Q 2853 3084 3261 2657 
Q 3669 2231 3669 1497 
Q 3669 778 3244 343 
Q 2819 -91 2113 -91 
Q 1303 -91 875 529 
Q 447 1150 447 2328 
Q 447 3434 972 4092 
Q 1497 4750 2381 4750 
Q 2619 4750 2861 4703 
Q 3103 4656 3366 4563 
z
" transform="scale(0.015625)"/>
      </defs>
      <use xlink:href="#DejaVuSans-56"/>
      <use xlink:href="#DejaVuSans-20" x="68.408203"/>
      <use xlink:href="#DejaVuSans-3d" x="100.195312"/>
      <use xlink:href="#DejaVuSans-20" x="183.984375"/>
      <use xlink:href="#DejaVuSans-34" x="215.771484"/>
      <use xlink:href="#DejaVuSans-30" x="279.394531"/>
      <use xlink:href="#DejaVuSans-2e" x="343.017578"/>
      <use xlink:href="#DejaVuSans-30" x="374.804688"/>
      <use xlink:href="#DejaVuSans-20" x="438.427734"/>
      <use xlink:href="#DejaVuSans-6d" x="470.214844"/>
      <use xlink:href="#DejaVuSans-2f" x="567.626953"/>
      <use xlink:href="#DejaVuSans-73" x="601.318359"/>
      <use xlink:href="#DejaVuSans-2c" x="653.417969"/>
      <use xlink:href="#DejaVuSans-20" x="685.205078"/>
      <use xlink:href="#DejaVuSans-4a" x="716.992188"/>
      <use xlink:href="#DejaVuSans-20" x="746.484375"/>
      <use xlink:href="#DejaVuSans-3d" x="778.271484"/>
      <use xlink:href="#DejaVuSans-20" x="862.060547"/>
      <use xlink:href="#DejaVuSans-31" x="893.847656"/>
      <use xlink:href="#DejaVuSans-2e" x="957.470703"/>
      <use xlink:href="#DejaVuSans-36" x="989.257812"/>
     </g>
    </g>
    <g id="line2d_39">
     <path d="M 94.142 57.864844 
L 109.142 57.864844 
L 124.142 57.864844 
" style="fill: none; stroke-dasharray: 9.6,2.4,1.5,2.4; stroke-dashoffset: 0; stroke: #a50034; stroke-width: 1.5"/>
    </g>
    <g id="text_21">
     <!-- V = 20.0 m/s, J = 1.6 -->
     <g transform="translate(136.142 63.114844) scale(0.15 -0.15)">
      <use xlink:href="#DejaVuSans-56"/>
      <use xlink:href="#DejaVuSans-20" x="68.408203"/>
      <use xlink:href="#DejaVuSans-3d" x="100.195312"/>
      <use xlink:href="#DejaVuSans-20" x="183.984375"/>
      <use xlink:href="#DejaVuSans-32" x="215.771484"/>
      <use xlink:href="#DejaVuSans-30" x="279.394531"/>
      <use xlink:href="#DejaVuSans-2e" x="343.017578"/>
      <use xlink:href="#DejaVuSans-30" x="374.804688"/>
      <use xlink:href="#DejaVuSans-20" x="438.427734"/>
      <use xlink:href="#DejaVuSans-6d" x="470.214844"/>
      <use xlink:href="#DejaVuSans-2f" x="567.626953"/>
      <use xlink:href="#DejaVuSans-73" x="601.318359"/>
      <use xlink:href="#DejaVuSans-2c" x="653.417969"/>
      <use xlink:href="#DejaVuSans-20" x="685.205078"/>
      <use xlink:href="#DejaVuSans-4a" x="716.992188"/>
      <use xlink:href="#DejaVuSans-20" x="746.484375"/>
      <use xlink:href="#DejaVuSans-3d" x="778.271484"/>
      <use xlink:href="#DejaVuSans-20" x="862.060547"/>
      <use xlink:href="#DejaVuSans-31" x="893.847656"/>
      <use xlink:href="#DejaVuSans-2e" x="957.470703"/>
      <use xlink:href="#DejaVuSans-36" x="989.257812"/>
     </g>
    </g>
    <g id="line2d_40">
     <path d="M 94.142 79.882031 
L 109.142 79.882031 
L 124.142 79.882031 
" style="fill: none; stroke-dasharray: 9.6,2.4,1.5,2.4; stroke-dashoffset: 0; stroke: #ef60a3; stroke-width: 1.5"/>
    </g>
    <g id="text_22">
     <!-- V = 10.0 m/s, J = 1.6 -->
     <g transform="translate(136.142 85.132031) scale(0.15 -0.15)">
      <use xlink:href="#DejaVuSans-56"/>
      <use xlink:href="#DejaVuSans-20" x="68.408203"/>
      <use xlink:href="#DejaVuSans-3d" x="100.195312"/>
      <use xlink:href="#DejaVuSans-20" x="183.984375"/>
      <use xlink:href="#DejaVuSans-31" x="215.771484"/>
      <use xlink:href="#DejaVuSans-30" x="279.394531"/>
      <use xlink:href="#DejaVuSans-2e" x="343.017578"/>
      <use xlink:href="#DejaVuSans-30" x="374.804688"/>
      <use xlink:href="#DejaVuSans-20" x="438.427734"/>
      <use xlink:href="#DejaVuSans-6d" x="470.214844"/>
      <use xlink:href="#DejaVuSans-2f" x="567.626953"/>
      <use xlink:href="#DejaVuSans-73" x="601.318359"/>
      <use xlink:href="#DejaVuSans-2c" x="653.417969"/>
      <use xlink:href="#DejaVuSans-20" x="685.205078"/>
      <use xlink:href="#DejaVuSans-4a" x="716.992188"/>
      <use xlink:href="#DejaVuSans-20" x="746.484375"/>
      <use xlink:href="#DejaVuSans-3d" x="778.271484"/>
      <use xlink:href="#DejaVuSans-20" x="862.060547"/>
      <use xlink:href="#DejaVuSans-31" x="893.847656"/>
      <use xlink:href="#DejaVuSans-2e" x="957.470703"/>
      <use xlink:href="#DejaVuSans-36" x="989.257812"/>
     </g>
    </g>
   </g>
  </g>
 </g>
 <defs>
  <clipPath id="pd934eb87c8">
   <rect x="80.642" y="16.2" width="613.618" height="356.92"/>
  </clipPath>
 </defs>
</svg>
