<?xml version="1.0" encoding="utf-8" standalone="no"?>
<!DOCTYPE svg PUBLIC "-//W3C//DTD SVG 1.1//EN"
  "http://www.w3.org/Graphics/SVG/1.1/DTD/svg11.dtd">
<svg xmlns:xlink="http://www.w3.org/1999/xlink" width="720pt" height="432pt" viewBox="0 0 720 432" xmlns="http://www.w3.org/2000/svg" version="1.1">
 <metadata>
  <rdf:RDF xmlns:dc="http://purl.org/dc/elements/1.1/" xmlns:cc="http://creativecommons.org/ns#" xmlns:rdf="http://www.w3.org/1999/02/22-rdf-syntax-ns#">
   <cc:Work>
    <dc:type rdf:resource="http://purl.org/dc/dcmitype/StillImage"/>
    <dc:date>2024-04-02T15:26:19.894996</dc:date>
    <dc:format>image/svg+xml</dc:format>
    <dc:creator>
     <cc:Agent>
      <dc:title>Matplotlib v3.8.3, https://matplotlib.org/</dc:title>
     </cc:Agent>
    </dc:creator>
   </cc:Work>
  </rdf:RDF>
 </metadata>
 <defs>
  <style type="text/css">*{stroke-linejoin: round; stroke-linecap: butt}</style>
 </defs>
 <g id="figure_1">
  <g id="patch_1">
   <path d="M 0 432 
L 720 432 
L 720 0 
L 0 0 
z
" style="fill: #ffffff"/>
  </g>
  <g id="axes_1">
   <g id="patch_2">
    <path d="M 77.582 373.408 
L 691.875 373.408 
L 691.875 16.2 
L 77.582 16.2 
z
" style="fill: #ffffff"/>
   </g>
   <g id="PathCollection_1">
    <defs>
     <path id="m7dc0b5c1dd" d="M 0 3 
C 0.795609 3 1.55874 2.683901 2.12132 2.12132 
C 2.683901 1.55874 3 0.795609 3 0 
C 3 -0.795609 2.683901 -1.55874 2.12132 -2.12132 
C 1.55874 -2.683901 0.795609 -3 0 -3 
C -0.795609 -3 -1.55874 -2.683901 -2.12132 -2.12132 
C -2.683901 -1.55874 -3 -0.795609 -3 0 
C -3 0.795609 -2.683901 1.55874 -2.12132 2.12132 
C -1.55874 2.683901 -0.795609 3 0 3 
z
" style="stroke: #00a6b6"/>
    </defs>
    <g clip-path="url(#p1b90354f83)">
     <use xlink:href="#m7dc0b5c1dd" x="121.44919" y="297.446514" style="fill: #00a6b6; stroke: #00a6b6"/>
     <use xlink:href="#m7dc0b5c1dd" x="158.654728" y="300.733404" style="fill: #00a6b6; stroke: #00a6b6"/>
     <use xlink:href="#m7dc0b5c1dd" x="196.060577" y="303.36089" style="fill: #00a6b6; stroke: #00a6b6"/>
     <use xlink:href="#m7dc0b5c1dd" x="232.721293" y="305.216952" style="fill: #00a6b6; stroke: #00a6b6"/>
     <use xlink:href="#m7dc0b5c1dd" x="269.017892" y="306.196925" style="fill: #00a6b6; stroke: #00a6b6"/>
     <use xlink:href="#m7dc0b5c1dd" x="305.063019" y="306.196837" style="fill: #00a6b6; stroke: #00a6b6"/>
     <use xlink:href="#m7dc0b5c1dd" x="339.761089" y="305.118707" style="fill: #00a6b6; stroke: #00a6b6"/>
     <use xlink:href="#m7dc0b5c1dd" x="374.581413" y="302.860975" style="fill: #00a6b6; stroke: #00a6b6"/>
     <use xlink:href="#m7dc0b5c1dd" x="409.292157" y="299.329749" style="fill: #00a6b6; stroke: #00a6b6"/>
     <use xlink:href="#m7dc0b5c1dd" x="442.404746" y="294.429452" style="fill: #00a6b6; stroke: #00a6b6"/>
     <use xlink:href="#m7dc0b5c1dd" x="475.393706" y="288.066083" style="fill: #00a6b6; stroke: #00a6b6"/>
     <use xlink:href="#m7dc0b5c1dd" x="507.175319" y="280.154044" style="fill: #00a6b6; stroke: #00a6b6"/>
     <use xlink:href="#m7dc0b5c1dd" x="534.308957" y="270.641403" style="fill: #00a6b6; stroke: #00a6b6"/>
     <use xlink:href="#m7dc0b5c1dd" x="556.986562" y="259.477081" style="fill: #00a6b6; stroke: #00a6b6"/>
     <use xlink:href="#m7dc0b5c1dd" x="579.100281" y="246.806169" style="fill: #00a6b6; stroke: #00a6b6"/>
     <use xlink:href="#m7dc0b5c1dd" x="595.768577" y="232.298227" style="fill: #00a6b6; stroke: #00a6b6"/>
     <use xlink:href="#m7dc0b5c1dd" x="611.039838" y="215.621214" style="fill: #00a6b6; stroke: #00a6b6"/>
     <use xlink:href="#m7dc0b5c1dd" x="629.053869" y="196.871255" style="fill: #00a6b6; stroke: #00a6b6"/>
     <use xlink:href="#m7dc0b5c1dd" x="637.766119" y="175.853382" style="fill: #00a6b6; stroke: #00a6b6"/>
     <use xlink:href="#m7dc0b5c1dd" x="657.829701" y="152.959248" style="fill: #00a6b6; stroke: #00a6b6"/>
    </g>
   </g>
   <g id="PathCollection_2">
    <defs>
     <path id="m5bfd9c00a6" d="M 0 3 
C 0.795609 3 1.55874 2.683901 2.12132 2.12132 
C 2.683901 1.55874 3 0.795609 3 0 
C 3 -0.795609 2.683901 -1.55874 2.12132 -2.12132 
C 1.55874 -2.683901 0.795609 -3 0 -3 
C -0.795609 -3 -1.55874 -2.683901 -2.12132 -2.12132 
C -2.683901 -1.55874 -3 -0.795609 -3 0 
C -3 0.795609 -2.683901 1.55874 -2.12132 2.12132 
C -1.55874 2.683901 -0.795609 3 0 3 
z
" style="stroke: #a50034"/>
    </defs>
    <g clip-path="url(#p1b90354f83)">
     <use xlink:href="#m5bfd9c00a6" x="125.477774" y="269.280057" style="fill: #a50034; stroke: #a50034"/>
     <use xlink:href="#m5bfd9c00a6" x="162.3581" y="271.688783" style="fill: #a50034; stroke: #a50034"/>
     <use xlink:href="#m5bfd9c00a6" x="198.931404" y="273.474859" style="fill: #a50034; stroke: #a50034"/>
     <use xlink:href="#m5bfd9c00a6" x="233.854316" y="274.587947" style="fill: #a50034; stroke: #a50034"/>
     <use xlink:href="#m5bfd9c00a6" x="269.50489" y="274.967727" style="fill: #a50034; stroke: #a50034"/>
     <use xlink:href="#m5bfd9c00a6" x="303.746606" y="274.541028" style="fill: #a50034; stroke: #a50034"/>
     <use xlink:href="#m5bfd9c00a6" x="338.779905" y="273.239002" style="fill: #a50034; stroke: #a50034"/>
     <use xlink:href="#m5bfd9c00a6" x="373.333066" y="270.949351" style="fill: #a50034; stroke: #a50034"/>
     <use xlink:href="#m5bfd9c00a6" x="407.577" y="267.584089" style="fill: #a50034; stroke: #a50034"/>
     <use xlink:href="#m5bfd9c00a6" x="441.183174" y="263.023732" style="fill: #a50034; stroke: #a50034"/>
     <use xlink:href="#m5bfd9c00a6" x="474.799418" y="257.141084" style="fill: #a50034; stroke: #a50034"/>
     <use xlink:href="#m5bfd9c00a6" x="504.814903" y="249.830471" style="fill: #a50034; stroke: #a50034"/>
     <use xlink:href="#m5bfd9c00a6" x="532.860347" y="240.976758" style="fill: #a50034; stroke: #a50034"/>
     <use xlink:href="#m5bfd9c00a6" x="554.860643" y="230.499581" style="fill: #a50034; stroke: #a50034"/>
     <use xlink:href="#m5bfd9c00a6" x="577.144364" y="218.294624" style="fill: #a50034; stroke: #a50034"/>
     <use xlink:href="#m5bfd9c00a6" x="596.437105" y="204.136625" style="fill: #a50034; stroke: #a50034"/>
     <use xlink:href="#m5bfd9c00a6" x="606.902178" y="187.819753" style="fill: #a50034; stroke: #a50034"/>
     <use xlink:href="#m5bfd9c00a6" x="622.280989" y="168.897749" style="fill: #a50034; stroke: #a50034"/>
     <use xlink:href="#m5bfd9c00a6" x="630.357234" y="147.468263" style="fill: #a50034; stroke: #a50034"/>
     <use xlink:href="#m5bfd9c00a6" x="649.061581" y="123.190469" style="fill: #a50034; stroke: #a50034"/>
    </g>
   </g>
   <g id="PathCollection_3">
    <defs>
     <path id="m4b5fa055b9" d="M 0 3 
C 0.795609 3 1.55874 2.683901 2.12132 2.12132 
C 2.683901 1.55874 3 0.795609 3 0 
C 3 -0.795609 2.683901 -1.55874 2.12132 -2.12132 
C 1.55874 -2.683901 0.795609 -3 0 -3 
C -0.795609 -3 -1.55874 -2.683901 -2.12132 -2.12132 
C -2.683901 -1.55874 -3 -0.795609 -3 0 
C -3 0.795609 -2.683901 1.55874 -2.12132 2.12132 
C -1.55874 2.683901 -0.795609 3 0 3 
z
" style="stroke: #ef60a3"/>
    </defs>
    <g clip-path="url(#p1b90354f83)">
     <use xlink:href="#m4b5fa055b9" x="87.924779" y="236.998424" style="fill: #ef60a3; stroke: #ef60a3"/>
     <use xlink:href="#m4b5fa055b9" x="523.855143" y="215.702282" style="fill: #ef60a3; stroke: #ef60a3"/>
     <use xlink:href="#m4b5fa055b9" x="606.638219" y="129.484246" style="fill: #ef60a3; stroke: #ef60a3"/>
     <use xlink:href="#m4b5fa055b9" x="648.699395" y="93.453191" style="fill: #ef60a3; stroke: #ef60a3"/>
    </g>
   </g>
   <g id="matplotlib.axis_1">
    <g id="xtick_1">
     <g id="line2d_1">
      <path d="M 77.582 373.408 
L 77.582 16.2 
" clip-path="url(#p1b90354f83)" style="fill: none; stroke: #b0b0b0; stroke-width: 0.8; stroke-linecap: square"/>
     </g>
     <g id="line2d_2">
      <defs>
       <path id="me62c32392a" d="M 0 0 
L 0 3.5 
" style="stroke: #000000; stroke-width: 0.8"/>
      </defs>
      <g>
       <use xlink:href="#me62c32392a" x="77.582" y="373.408" style="stroke: #000000; stroke-width: 0.8"/>
      </g>
     </g>
     <g id="text_1">
      <!-- −0.5 -->
      <g transform="translate(59.369891 391.805656) scale(0.15 -0.15)">
       <defs>
        <path id="DejaVuSans-2212" d="M 678 2272 
L 4684 2272 
L 4684 1741 
L 678 1741 
L 678 2272 
z
" transform="scale(0.015625)"/>
        <path id="DejaVuSans-30" d="M 2034 4250 
Q 1547 4250 1301 3770 
Q 1056 3291 1056 2328 
Q 1056 1369 1301 889 
Q 1547 409 2034 409 
Q 2525 409 2770 889 
Q 3016 1369 3016 2328 
Q 3016 3291 2770 3770 
Q 2525 4250 2034 4250 
z
M 2034 4750 
Q 2819 4750 3233 4129 
Q 3647 3509 3647 2328 
Q 3647 1150 3233 529 
Q 2819 -91 2034 -91 
Q 1250 -91 836 529 
Q 422 1150 422 2328 
Q 422 3509 836 4129 
Q 1250 4750 2034 4750 
z
" transform="scale(0.015625)"/>
        <path id="DejaVuSans-2e" d="M 684 794 
L 1344 794 
L 1344 0 
L 684 0 
L 684 794 
z
" transform="scale(0.015625)"/>
        <path id="DejaVuSans-35" d="M 691 4666 
L 3169 4666 
L 3169 4134 
L 1269 4134 
L 1269 2991 
Q 1406 3038 1543 3061 
Q 1681 3084 1819 3084 
Q 2600 3084 3056 2656 
Q 3513 2228 3513 1497 
Q 3513 744 3044 326 
Q 2575 -91 1722 -91 
Q 1428 -91 1123 -41 
Q 819 9 494 109 
L 494 744 
Q 775 591 1075 516 
Q 1375 441 1709 441 
Q 2250 441 2565 725 
Q 2881 1009 2881 1497 
Q 2881 1984 2565 2268 
Q 2250 2553 1709 2553 
Q 1456 2553 1204 2497 
Q 953 2441 691 2322 
L 691 4666 
z
" transform="scale(0.015625)"/>
       </defs>
       <use xlink:href="#DejaVuSans-2212"/>
       <use xlink:href="#DejaVuSans-30" x="83.789062"/>
       <use xlink:href="#DejaVuSans-2e" x="147.412109"/>
       <use xlink:href="#DejaVuSans-35" x="179.199219"/>
      </g>
     </g>
    </g>
    <g id="xtick_2">
     <g id="line2d_3">
      <path d="M 139.0113 373.408 
L 139.0113 16.2 
" clip-path="url(#p1b90354f83)" style="fill: none; stroke: #b0b0b0; stroke-width: 0.8; stroke-linecap: square"/>
     </g>
     <g id="line2d_4">
      <g>
       <use xlink:href="#me62c32392a" x="139.0113" y="373.408" style="stroke: #000000; stroke-width: 0.8"/>
      </g>
     </g>
     <g id="text_2">
      <!-- −0.3 -->
      <g transform="translate(120.799191 391.805656) scale(0.15 -0.15)">
       <defs>
        <path id="DejaVuSans-33" d="M 2597 2516 
Q 3050 2419 3304 2112 
Q 3559 1806 3559 1356 
Q 3559 666 3084 287 
Q 2609 -91 1734 -91 
Q 1441 -91 1130 -33 
Q 819 25 488 141 
L 488 750 
Q 750 597 1062 519 
Q 1375 441 1716 441 
Q 2309 441 2620 675 
Q 2931 909 2931 1356 
Q 2931 1769 2642 2001 
Q 2353 2234 1838 2234 
L 1294 2234 
L 1294 2753 
L 1863 2753 
Q 2328 2753 2575 2939 
Q 2822 3125 2822 3475 
Q 2822 3834 2567 4026 
Q 2313 4219 1838 4219 
Q 1578 4219 1281 4162 
Q 984 4106 628 3988 
L 628 4550 
Q 988 4650 1302 4700 
Q 1616 4750 1894 4750 
Q 2613 4750 3031 4423 
Q 3450 4097 3450 3541 
Q 3450 3153 3228 2886 
Q 3006 2619 2597 2516 
z
" transform="scale(0.015625)"/>
       </defs>
       <use xlink:href="#DejaVuSans-2212"/>
       <use xlink:href="#DejaVuSans-30" x="83.789062"/>
       <use xlink:href="#DejaVuSans-2e" x="147.412109"/>
       <use xlink:href="#DejaVuSans-33" x="179.199219"/>
      </g>
     </g>
    </g>
    <g id="xtick_3">
     <g id="line2d_5">
      <path d="M 200.4406 373.408 
L 200.4406 16.2 
" clip-path="url(#p1b90354f83)" style="fill: none; stroke: #b0b0b0; stroke-width: 0.8; stroke-linecap: square"/>
     </g>
     <g id="line2d_6">
      <g>
       <use xlink:href="#me62c32392a" x="200.4406" y="373.408" style="stroke: #000000; stroke-width: 0.8"/>
      </g>
     </g>
     <g id="text_3">
      <!-- −0.1 -->
      <g transform="translate(182.228491 391.805656) scale(0.15 -0.15)">
       <defs>
        <path id="DejaVuSans-31" d="M 794 531 
L 1825 531 
L 1825 4091 
L 703 3866 
L 703 4441 
L 1819 4666 
L 2450 4666 
L 2450 531 
L 3481 531 
L 3481 0 
L 794 0 
L 794 531 
z
" transform="scale(0.015625)"/>
       </defs>
       <use xlink:href="#DejaVuSans-2212"/>
       <use xlink:href="#DejaVuSans-30" x="83.789062"/>
       <use xlink:href="#DejaVuSans-2e" x="147.412109"/>
       <use xlink:href="#DejaVuSans-31" x="179.199219"/>
      </g>
     </g>
    </g>
    <g id="xtick_4">
     <g id="line2d_7">
      <path d="M 261.8699 373.408 
L 261.8699 16.2 
" clip-path="url(#p1b90354f83)" style="fill: none; stroke: #b0b0b0; stroke-width: 0.8; stroke-linecap: square"/>
     </g>
     <g id="line2d_8">
      <g>
       <use xlink:href="#me62c32392a" x="261.8699" y="373.408" style="stroke: #000000; stroke-width: 0.8"/>
      </g>
     </g>
     <g id="text_4">
      <!-- 0.1 -->
      <g transform="translate(249.942556 391.805656) scale(0.15 -0.15)">
       <use xlink:href="#DejaVuSans-30"/>
       <use xlink:href="#DejaVuSans-2e" x="63.623047"/>
       <use xlink:href="#DejaVuSans-31" x="95.410156"/>
      </g>
     </g>
    </g>
    <g id="xtick_5">
     <g id="line2d_9">
      <path d="M 323.2992 373.408 
L 323.2992 16.2 
" clip-path="url(#p1b90354f83)" style="fill: none; stroke: #b0b0b0; stroke-width: 0.8; stroke-linecap: square"/>
     </g>
     <g id="line2d_10">
      <g>
       <use xlink:href="#me62c32392a" x="323.2992" y="373.408" style="stroke: #000000; stroke-width: 0.8"/>
      </g>
     </g>
     <g id="text_5">
      <!-- 0.3 -->
      <g transform="translate(311.371856 391.805656) scale(0.15 -0.15)">
       <use xlink:href="#DejaVuSans-30"/>
       <use xlink:href="#DejaVuSans-2e" x="63.623047"/>
       <use xlink:href="#DejaVuSans-33" x="95.410156"/>
      </g>
     </g>
    </g>
    <g id="xtick_6">
     <g id="line2d_11">
      <path d="M 384.7285 373.408 
L 384.7285 16.2 
" clip-path="url(#p1b90354f83)" style="fill: none; stroke: #b0b0b0; stroke-width: 0.8; stroke-linecap: square"/>
     </g>
     <g id="line2d_12">
      <g>
       <use xlink:href="#me62c32392a" x="384.7285" y="373.408" style="stroke: #000000; stroke-width: 0.8"/>
      </g>
     </g>
     <g id="text_6">
      <!-- 0.5 -->
      <g transform="translate(372.801156 391.805656) scale(0.15 -0.15)">
       <use xlink:href="#DejaVuSans-30"/>
       <use xlink:href="#DejaVuSans-2e" x="63.623047"/>
       <use xlink:href="#DejaVuSans-35" x="95.410156"/>
      </g>
     </g>
    </g>
    <g id="xtick_7">
     <g id="line2d_13">
      <path d="M 446.1578 373.408 
L 446.1578 16.2 
" clip-path="url(#p1b90354f83)" style="fill: none; stroke: #b0b0b0; stroke-width: 0.8; stroke-linecap: square"/>
     </g>
     <g id="line2d_14">
      <g>
       <use xlink:href="#me62c32392a" x="446.1578" y="373.408" style="stroke: #000000; stroke-width: 0.8"/>
      </g>
     </g>
     <g id="text_7">
      <!-- 0.7 -->
      <g transform="translate(434.230456 391.805656) scale(0.15 -0.15)">
       <defs>
        <path id="DejaVuSans-37" d="M 525 4666 
L 3525 4666 
L 3525 4397 
L 1831 0 
L 1172 0 
L 2766 4134 
L 525 4134 
L 525 4666 
z
" transform="scale(0.015625)"/>
       </defs>
       <use xlink:href="#DejaVuSans-30"/>
       <use xlink:href="#DejaVuSans-2e" x="63.623047"/>
       <use xlink:href="#DejaVuSans-37" x="95.410156"/>
      </g>
     </g>
    </g>
    <g id="xtick_8">
     <g id="line2d_15">
      <path d="M 507.5871 373.408 
L 507.5871 16.2 
" clip-path="url(#p1b90354f83)" style="fill: none; stroke: #b0b0b0; stroke-width: 0.8; stroke-linecap: square"/>
     </g>
     <g id="line2d_16">
      <g>
       <use xlink:href="#me62c32392a" x="507.5871" y="373.408" style="stroke: #000000; stroke-width: 0.8"/>
      </g>
     </g>
     <g id="text_8">
      <!-- 0.9 -->
      <g transform="translate(495.659756 391.805656) scale(0.15 -0.15)">
       <defs>
        <path id="DejaVuSans-39" d="M 703 97 
L 703 672 
Q 941 559 1184 500 
Q 1428 441 1663 441 
Q 2288 441 2617 861 
Q 2947 1281 2994 2138 
Q 2813 1869 2534 1725 
Q 2256 1581 1919 1581 
Q 1219 1581 811 2004 
Q 403 2428 403 3163 
Q 403 3881 828 4315 
Q 1253 4750 1959 4750 
Q 2769 4750 3195 4129 
Q 3622 3509 3622 2328 
Q 3622 1225 3098 567 
Q 2575 -91 1691 -91 
Q 1453 -91 1209 -44 
Q 966 3 703 97 
z
M 1959 2075 
Q 2384 2075 2632 2365 
Q 2881 2656 2881 3163 
Q 2881 3666 2632 3958 
Q 2384 4250 1959 4250 
Q 1534 4250 1286 3958 
Q 1038 3666 1038 3163 
Q 1038 2656 1286 2365 
Q 1534 2075 1959 2075 
z
" transform="scale(0.015625)"/>
       </defs>
       <use xlink:href="#DejaVuSans-30"/>
       <use xlink:href="#DejaVuSans-2e" x="63.623047"/>
       <use xlink:href="#DejaVuSans-39" x="95.410156"/>
      </g>
     </g>
    </g>
    <g id="xtick_9">
     <g id="line2d_17">
      <path d="M 569.0164 373.408 
L 569.0164 16.2 
" clip-path="url(#p1b90354f83)" style="fill: none; stroke: #b0b0b0; stroke-width: 0.8; stroke-linecap: square"/>
     </g>
     <g id="line2d_18">
      <g>
       <use xlink:href="#me62c32392a" x="569.0164" y="373.408" style="stroke: #000000; stroke-width: 0.8"/>
      </g>
     </g>
     <g id="text_9">
      <!-- 1.1 -->
      <g transform="translate(557.089056 391.805656) scale(0.15 -0.15)">
       <use xlink:href="#DejaVuSans-31"/>
       <use xlink:href="#DejaVuSans-2e" x="63.623047"/>
       <use xlink:href="#DejaVuSans-31" x="95.410156"/>
      </g>
     </g>
    </g>
    <g id="xtick_10">
     <g id="line2d_19">
      <path d="M 630.4457 373.408 
L 630.4457 16.2 
" clip-path="url(#p1b90354f83)" style="fill: none; stroke: #b0b0b0; stroke-width: 0.8; stroke-linecap: square"/>
     </g>
     <g id="line2d_20">
      <g>
       <use xlink:href="#me62c32392a" x="630.4457" y="373.408" style="stroke: #000000; stroke-width: 0.8"/>
      </g>
     </g>
     <g id="text_10">
      <!-- 1.3 -->
      <g transform="translate(618.518356 391.805656) scale(0.15 -0.15)">
       <use xlink:href="#DejaVuSans-31"/>
       <use xlink:href="#DejaVuSans-2e" x="63.623047"/>
       <use xlink:href="#DejaVuSans-33" x="95.410156"/>
      </g>
     </g>
    </g>
    <g id="xtick_11">
     <g id="line2d_21">
      <path d="M 691.875 373.408 
L 691.875 16.2 
" clip-path="url(#p1b90354f83)" style="fill: none; stroke: #b0b0b0; stroke-width: 0.8; stroke-linecap: square"/>
     </g>
     <g id="line2d_22">
      <g>
       <use xlink:href="#me62c32392a" x="691.875" y="373.408" style="stroke: #000000; stroke-width: 0.8"/>
      </g>
     </g>
     <g id="text_11">
      <!-- 1.5 -->
      <g transform="translate(679.947656 391.805656) scale(0.15 -0.15)">
       <use xlink:href="#DejaVuSans-31"/>
       <use xlink:href="#DejaVuSans-2e" x="63.623047"/>
       <use xlink:href="#DejaVuSans-35" x="95.410156"/>
      </g>
     </g>
    </g>
    <g id="text_12">
     <!-- $C_L$ [-] -->
     <g transform="translate(365.3785 410.322844) scale(0.15 -0.15)">
      <defs>
       <path id="DejaVuSans-Oblique-43" d="M 4447 4306 
L 4319 3641 
Q 4019 3944 3683 4091 
Q 3347 4238 2956 4238 
Q 2422 4238 2017 3981 
Q 1613 3725 1319 3200 
Q 1131 2863 1032 2486 
Q 934 2109 934 1728 
Q 934 1091 1264 756 
Q 1594 422 2222 422 
Q 2656 422 3056 561 
Q 3456 700 3834 978 
L 3688 231 
Q 3316 72 2936 -9 
Q 2556 -91 2175 -91 
Q 1278 -91 773 396 
Q 269 884 269 1753 
Q 269 2309 461 2846 
Q 653 3384 1013 3828 
Q 1394 4300 1883 4525 
Q 2372 4750 3022 4750 
Q 3422 4750 3780 4639 
Q 4138 4528 4447 4306 
z
" transform="scale(0.015625)"/>
       <path id="DejaVuSans-Oblique-4c" d="M 1075 4666 
L 1709 4666 
L 909 525 
L 3181 525 
L 3078 0 
L 172 0 
L 1075 4666 
z
" transform="scale(0.015625)"/>
       <path id="DejaVuSans-20" transform="scale(0.015625)"/>
       <path id="DejaVuSans-5b" d="M 550 4863 
L 1875 4863 
L 1875 4416 
L 1125 4416 
L 1125 -397 
L 1875 -397 
L 1875 -844 
L 550 -844 
L 550 4863 
z
" transform="scale(0.015625)"/>
       <path id="DejaVuSans-2d" d="M 313 2009 
L 1997 2009 
L 1997 1497 
L 313 1497 
L 313 2009 
z
" transform="scale(0.015625)"/>
       <path id="DejaVuSans-5d" d="M 1947 4863 
L 1947 -844 
L 622 -844 
L 622 -397 
L 1369 -397 
L 1369 4416 
L 622 4416 
L 622 4863 
L 1947 4863 
z
" transform="scale(0.015625)"/>
      </defs>
      <use xlink:href="#DejaVuSans-Oblique-43" transform="translate(0 0.015625)"/>
      <use xlink:href="#DejaVuSans-Oblique-4c" transform="translate(69.824219 -16.390625) scale(0.7)"/>
      <use xlink:href="#DejaVuSans-20" transform="translate(111.557617 0.015625)"/>
      <use xlink:href="#DejaVuSans-5b" transform="translate(143.344727 0.015625)"/>
      <use xlink:href="#DejaVuSans-2d" transform="translate(182.358398 0.015625)"/>
      <use xlink:href="#DejaVuSans-5d" transform="translate(218.442383 0.015625)"/>
     </g>
    </g>
   </g>
   <g id="matplotlib.axis_2">
    <g id="ytick_1">
     <g id="line2d_23">
      <path d="M 77.582 334.629966 
L 691.875 334.629966 
" clip-path="url(#p1b90354f83)" style="fill: none; stroke: #b0b0b0; stroke-width: 0.8; stroke-linecap: square"/>
     </g>
     <g id="line2d_24">
      <defs>
       <path id="m1c66eb8888" d="M 0 0 
L -3.5 0 
" style="stroke: #000000; stroke-width: 0.8"/>
      </defs>
      <g>
       <use xlink:href="#m1c66eb8888" x="77.582" y="334.629966" style="stroke: #000000; stroke-width: 0.8"/>
      </g>
     </g>
     <g id="text_13">
      <!-- 0.00 -->
      <g transform="translate(37.183563 340.328794) scale(0.15 -0.15)">
       <use xlink:href="#DejaVuSans-30"/>
       <use xlink:href="#DejaVuSans-2e" x="63.623047"/>
       <use xlink:href="#DejaVuSans-30" x="95.410156"/>
       <use xlink:href="#DejaVuSans-30" x="159.033203"/>
      </g>
     </g>
    </g>
    <g id="ytick_2">
     <g id="line2d_25">
      <path d="M 77.582 278.771475 
L 691.875 278.771475 
" clip-path="url(#p1b90354f83)" style="fill: none; stroke: #b0b0b0; stroke-width: 0.8; stroke-linecap: square"/>
     </g>
     <g id="line2d_26">
      <g>
       <use xlink:href="#m1c66eb8888" x="77.582" y="278.771475" style="stroke: #000000; stroke-width: 0.8"/>
      </g>
     </g>
     <g id="text_14">
      <!-- 0.05 -->
      <g transform="translate(37.183563 284.470303) scale(0.15 -0.15)">
       <use xlink:href="#DejaVuSans-30"/>
       <use xlink:href="#DejaVuSans-2e" x="63.623047"/>
       <use xlink:href="#DejaVuSans-30" x="95.410156"/>
       <use xlink:href="#DejaVuSans-35" x="159.033203"/>
      </g>
     </g>
    </g>
    <g id="ytick_3">
     <g id="line2d_27">
      <path d="M 77.582 222.912984 
L 691.875 222.912984 
" clip-path="url(#p1b90354f83)" style="fill: none; stroke: #b0b0b0; stroke-width: 0.8; stroke-linecap: square"/>
     </g>
     <g id="line2d_28">
      <g>
       <use xlink:href="#m1c66eb8888" x="77.582" y="222.912984" style="stroke: #000000; stroke-width: 0.8"/>
      </g>
     </g>
     <g id="text_15">
      <!-- 0.10 -->
      <g transform="translate(37.183563 228.611812) scale(0.15 -0.15)">
       <use xlink:href="#DejaVuSans-30"/>
       <use xlink:href="#DejaVuSans-2e" x="63.623047"/>
       <use xlink:href="#DejaVuSans-31" x="95.410156"/>
       <use xlink:href="#DejaVuSans-30" x="159.033203"/>
      </g>
     </g>
    </g>
    <g id="ytick_4">
     <g id="line2d_29">
      <path d="M 77.582 167.054492 
L 691.875 167.054492 
" clip-path="url(#p1b90354f83)" style="fill: none; stroke: #b0b0b0; stroke-width: 0.8; stroke-linecap: square"/>
     </g>
     <g id="line2d_30">
      <g>
       <use xlink:href="#m1c66eb8888" x="77.582" y="167.054492" style="stroke: #000000; stroke-width: 0.8"/>
      </g>
     </g>
     <g id="text_16">
      <!-- 0.15 -->
      <g transform="translate(37.183563 172.753321) scale(0.15 -0.15)">
       <use xlink:href="#DejaVuSans-30"/>
       <use xlink:href="#DejaVuSans-2e" x="63.623047"/>
       <use xlink:href="#DejaVuSans-31" x="95.410156"/>
       <use xlink:href="#DejaVuSans-35" x="159.033203"/>
      </g>
     </g>
    </g>
    <g id="ytick_5">
     <g id="line2d_31">
      <path d="M 77.582 111.196001 
L 691.875 111.196001 
" clip-path="url(#p1b90354f83)" style="fill: none; stroke: #b0b0b0; stroke-width: 0.8; stroke-linecap: square"/>
     </g>
     <g id="line2d_32">
      <g>
       <use xlink:href="#m1c66eb8888" x="77.582" y="111.196001" style="stroke: #000000; stroke-width: 0.8"/>
      </g>
     </g>
     <g id="text_17">
      <!-- 0.20 -->
      <g transform="translate(37.183563 116.894829) scale(0.15 -0.15)">
       <defs>
        <path id="DejaVuSans-32" d="M 1228 531 
L 3431 531 
L 3431 0 
L 469 0 
L 469 531 
Q 828 903 1448 1529 
Q 2069 2156 2228 2338 
Q 2531 2678 2651 2914 
Q 2772 3150 2772 3378 
Q 2772 3750 2511 3984 
Q 2250 4219 1831 4219 
Q 1534 4219 1204 4116 
Q 875 4013 500 3803 
L 500 4441 
Q 881 4594 1212 4672 
Q 1544 4750 1819 4750 
Q 2544 4750 2975 4387 
Q 3406 4025 3406 3419 
Q 3406 3131 3298 2873 
Q 3191 2616 2906 2266 
Q 2828 2175 2409 1742 
Q 1991 1309 1228 531 
z
" transform="scale(0.015625)"/>
       </defs>
       <use xlink:href="#DejaVuSans-30"/>
       <use xlink:href="#DejaVuSans-2e" x="63.623047"/>
       <use xlink:href="#DejaVuSans-32" x="95.410156"/>
       <use xlink:href="#DejaVuSans-30" x="159.033203"/>
      </g>
     </g>
    </g>
    <g id="ytick_6">
     <g id="line2d_33">
      <path d="M 77.582 55.33751 
L 691.875 55.33751 
" clip-path="url(#p1b90354f83)" style="fill: none; stroke: #b0b0b0; stroke-width: 0.8; stroke-linecap: square"/>
     </g>
     <g id="line2d_34">
      <g>
       <use xlink:href="#m1c66eb8888" x="77.582" y="55.33751" style="stroke: #000000; stroke-width: 0.8"/>
      </g>
     </g>
     <g id="text_18">
      <!-- 0.25 -->
      <g transform="translate(37.183563 61.036338) scale(0.15 -0.15)">
       <use xlink:href="#DejaVuSans-30"/>
       <use xlink:href="#DejaVuSans-2e" x="63.623047"/>
       <use xlink:href="#DejaVuSans-32" x="95.410156"/>
       <use xlink:href="#DejaVuSans-35" x="159.033203"/>
      </g>
     </g>
    </g>
    <g id="text_19">
     <!-- $C_D$ [-] -->
     <g transform="translate(30.064031 215.279) rotate(-90) scale(0.15 -0.15)">
      <defs>
       <path id="DejaVuSans-Oblique-44" d="M 1081 4666 
L 2438 4666 
Q 3519 4666 4070 4208 
Q 4622 3750 4622 2847 
Q 4622 2250 4412 1698 
Q 4203 1147 3834 769 
Q 3463 381 2891 190 
Q 2319 0 1538 0 
L 172 0 
L 1081 4666 
z
M 1613 4147 
L 909 519 
L 1734 519 
Q 2794 519 3375 1128 
Q 3956 1738 3956 2847 
Q 3956 3519 3581 3833 
Q 3206 4147 2406 4147 
L 1613 4147 
z
" transform="scale(0.015625)"/>
      </defs>
      <use xlink:href="#DejaVuSans-Oblique-43" transform="translate(0 0.015625)"/>
      <use xlink:href="#DejaVuSans-Oblique-44" transform="translate(69.824219 -16.390625) scale(0.7)"/>
      <use xlink:href="#DejaVuSans-20" transform="translate(126.459961 0.015625)"/>
      <use xlink:href="#DejaVuSans-5b" transform="translate(158.24707 0.015625)"/>
      <use xlink:href="#DejaVuSans-2d" transform="translate(197.260742 0.015625)"/>
      <use xlink:href="#DejaVuSans-5d" transform="translate(233.344727 0.015625)"/>
     </g>
    </g>
   </g>
   <g id="line2d_35">
    <path d="M 77.582 279.830667 
L 83.78698 282.705564 
L 89.99196 285.348849 
L 96.196939 287.772668 
L 102.401919 289.988833 
L 108.606899 292.00882 
L 114.811879 293.843774 
L 121.016859 295.504504 
L 127.221838 297.001487 
L 133.426818 298.344864 
L 139.631798 299.544443 
L 145.836778 300.609699 
L 152.041758 301.549772 
L 158.246737 302.373469 
L 164.451717 303.089262 
L 170.656697 303.705291 
L 176.861677 304.229359 
L 183.066657 304.668938 
L 189.271636 305.031165 
L 195.476616 305.322844 
L 201.681596 305.550443 
L 207.886576 305.720098 
L 214.091556 305.837611 
L 220.296535 305.90845 
L 226.501515 305.937748 
L 232.706495 305.930305 
L 238.911475 305.890588 
L 245.116455 305.822729 
L 251.321434 305.730526 
L 257.526414 305.617443 
L 263.731394 305.486611 
L 269.936374 305.340827 
L 276.141354 305.182554 
L 282.346333 305.01392 
L 288.551313 304.836721 
L 294.756293 304.652418 
L 300.961273 304.462138 
L 307.166253 304.266675 
L 313.371232 304.066487 
L 319.576212 303.861702 
L 325.781192 303.65211 
L 331.986172 303.43717 
L 338.191152 303.216006 
L 344.396131 302.987407 
L 350.601111 302.749831 
L 356.806091 302.501399 
L 363.011071 302.2399 
L 369.216051 301.962788 
L 375.42103 301.667186 
L 381.62601 301.349878 
L 387.83099 301.007319 
L 394.03597 300.635628 
L 400.240949 300.230589 
L 406.445929 299.787655 
L 412.650909 299.301942 
L 418.855889 298.768235 
L 425.060869 298.180983 
L 431.265848 297.534302 
L 437.470828 296.821973 
L 443.675808 296.037446 
L 449.880788 295.173834 
L 456.085768 294.223918 
L 462.290747 293.180144 
L 468.495727 292.034625 
L 474.700707 290.779139 
L 480.905687 289.405132 
L 487.110667 287.903714 
L 493.315646 286.265662 
L 499.520626 284.48142 
L 505.725606 282.541097 
L 511.930586 280.434468 
L 518.135566 278.150976 
L 524.340545 275.679727 
L 530.545525 273.009495 
L 536.750505 270.128721 
L 542.955485 267.025511 
L 549.160465 263.687636 
L 555.365444 260.102535 
L 561.570424 256.257313 
L 567.775404 252.138739 
L 573.980384 247.733251 
L 580.185364 243.026952 
L 586.390343 238.00561 
L 592.595323 232.654661 
L 598.800303 226.959205 
L 605.005283 220.90401 
L 611.210263 214.473509 
L 617.415242 207.651802 
L 623.620222 200.422654 
L 629.825202 192.769498 
L 636.030182 184.67543 
L 642.235162 176.123216 
L 648.440141 167.095285 
L 654.645121 157.573733 
L 660.850101 147.540324 
L 667.055081 136.976484 
L 673.260061 125.86331 
L 679.46504 114.181561 
L 685.67002 101.911665 
L 691.875 89.033715 
" clip-path="url(#p1b90354f83)" style="fill: none; stroke-dasharray: 9.6,2.4,1.5,2.4; stroke-dashoffset: 0; stroke: #00a6b6; stroke-width: 1.5"/>
   </g>
   <g id="line2d_36">
    <path d="M 77.582 244.094477 
L 83.78698 248.038034 
L 89.99196 251.640327 
L 96.196939 254.919416 
L 102.401919 257.892889 
L 108.606899 260.577861 
L 114.811879 262.990974 
L 121.016859 265.148397 
L 127.221838 267.065827 
L 133.426818 268.758488 
L 139.631798 270.241132 
L 145.836778 271.528037 
L 152.041758 272.63301 
L 158.246737 273.569384 
L 164.451717 274.350019 
L 170.656697 274.987305 
L 176.861677 275.493156 
L 183.066657 275.879015 
L 189.271636 276.155852 
L 195.476616 276.334164 
L 201.681596 276.423977 
L 207.886576 276.434842 
L 214.091556 276.375839 
L 220.296535 276.255575 
L 226.501515 276.082183 
L 232.706495 275.863324 
L 238.911475 275.606189 
L 245.116455 275.317492 
L 251.321434 275.003476 
L 257.526414 274.669914 
L 263.731394 274.322102 
L 269.936374 273.964865 
L 276.141354 273.602558 
L 282.346333 273.239059 
L 288.551313 272.877776 
L 294.756293 272.521643 
L 300.961273 272.173123 
L 307.166253 271.834204 
L 313.371232 271.506404 
L 319.576212 271.190767 
L 325.781192 270.887862 
L 331.986172 270.597791 
L 338.191152 270.320177 
L 344.396131 270.054174 
L 350.601111 269.798464 
L 356.806091 269.551253 
L 363.011071 269.310277 
L 369.216051 269.072799 
L 375.42103 268.835609 
L 381.62601 268.595023 
L 387.83099 268.346887 
L 394.03597 268.086572 
L 400.240949 267.808977 
L 406.445929 267.508529 
L 412.650909 267.179182 
L 418.855889 266.814416 
L 425.060869 266.407241 
L 431.265848 265.950192 
L 437.470828 265.435333 
L 443.675808 264.854254 
L 449.880788 264.198072 
L 456.085768 263.457433 
L 462.290747 262.622509 
L 468.495727 261.683 
L 474.700707 260.628134 
L 480.905687 259.446664 
L 487.110667 258.126872 
L 493.315646 256.656568 
L 499.520626 255.023088 
L 505.725606 253.213296 
L 511.930586 251.213582 
L 518.135566 249.009866 
L 524.340545 246.587592 
L 530.545525 243.931735 
L 536.750505 241.026794 
L 542.955485 237.856796 
L 549.160465 234.405298 
L 555.365444 230.655382 
L 561.570424 226.589656 
L 567.775404 222.190259 
L 573.980384 217.438854 
L 580.185364 212.316634 
L 586.390343 206.804317 
L 592.595323 200.882149 
L 598.800303 194.529904 
L 605.005283 187.726884 
L 611.210263 180.451916 
L 617.415242 172.683356 
L 623.620222 164.399088 
L 629.825202 155.57652 
L 636.030182 146.192592 
L 642.235162 136.223768 
L 648.440141 125.64604 
L 654.645121 114.434928 
L 660.850101 102.565478 
L 667.055081 90.012266 
L 673.260061 76.749392 
L 679.46504 62.750485 
L 685.67002 47.988703 
L 691.875 32.436727 
" clip-path="url(#p1b90354f83)" style="fill: none; stroke-dasharray: 9.6,2.4,1.5,2.4; stroke-dashoffset: 0; stroke: #a50034; stroke-width: 1.5"/>
   </g>
   <g id="line2d_37">
    <path d="M 77.582 227.193406 
L 83.78698 233.083599 
L 89.99196 238.948941 
L 96.196939 244.777332 
L 102.401919 250.557008 
L 108.606899 256.276548 
L 114.811879 261.924868 
L 121.016859 267.491224 
L 127.221838 272.965211 
L 133.426818 278.336765 
L 139.631798 283.59616 
L 145.836778 288.734008 
L 152.041758 293.741263 
L 158.246737 298.609218 
L 164.451717 303.329504 
L 170.656697 307.894092 
L 176.861677 312.295293 
L 183.066657 316.525756 
L 189.271636 320.57847 
L 195.476616 324.446765 
L 201.681596 328.124309 
L 207.886576 331.605108 
L 214.091556 334.883509 
L 220.296535 337.954199 
L 226.501515 340.812202 
L 232.706495 343.452885 
L 238.911475 345.871951 
L 245.116455 348.065443 
L 251.321434 350.029745 
L 257.526414 351.76158 
L 263.731394 353.258008 
L 269.936374 354.516432 
L 276.141354 355.534591 
L 282.346333 356.310565 
L 288.551313 356.842775 
L 294.756293 357.129978 
L 300.961273 357.171273 
L 307.166253 356.966096 
L 313.371232 356.514226 
L 319.576212 355.815777 
L 325.781192 354.871206 
L 331.986172 353.681308 
L 338.191152 352.247216 
L 344.396131 350.570405 
L 350.601111 348.652688 
L 356.806091 346.496217 
L 363.011071 344.103484 
L 369.216051 341.47732 
L 375.42103 338.620896 
L 381.62601 335.537721 
L 387.83099 332.231646 
L 394.03597 328.706859 
L 400.240949 324.967887 
L 406.445929 321.019599 
L 412.650909 316.867202 
L 418.855889 312.516241 
L 425.060869 307.972603 
L 431.265848 303.242512 
L 437.470828 298.332532 
L 443.675808 293.249568 
L 449.880788 288.000863 
L 456.085768 282.593999 
L 462.290747 277.036898 
L 468.495727 271.337822 
L 474.700707 265.505371 
L 480.905687 259.548484 
L 487.110667 253.476443 
L 493.315646 247.298864 
L 499.520626 241.025708 
L 505.725606 234.66727 
L 511.930586 228.234189 
L 518.135566 221.73744 
L 524.340545 215.188339 
L 530.545525 208.598542 
L 536.750505 201.980042 
L 542.955485 195.345174 
L 549.160465 188.70661 
L 555.365444 182.077364 
L 561.570424 175.470788 
L 567.775404 168.900572 
L 573.980384 162.380748 
L 580.185364 155.925685 
L 586.390343 149.550093 
L 592.595323 143.269022 
L 598.800303 137.097858 
L 605.005283 131.052331 
L 611.210263 125.148507 
L 617.415242 119.402792 
L 623.620222 113.831932 
L 629.825202 108.453012 
L 636.030182 103.283458 
L 642.235162 98.341032 
L 648.440141 93.643838 
L 654.645121 89.210318 
L 660.850101 85.059256 
L 667.055081 81.209772 
L 673.260061 77.681327 
L 679.46504 74.493721 
L 685.67002 71.667094 
L 691.875 69.221925 
" clip-path="url(#p1b90354f83)" style="fill: none; stroke-dasharray: 9.6,2.4,1.5,2.4; stroke-dashoffset: 0; stroke: #ef60a3; stroke-width: 1.5"/>
   </g>
   <g id="patch_3">
    <path d="M 77.582 373.408 
L 77.582 16.2 
" style="fill: none; stroke: #000000; stroke-width: 0.8; stroke-linejoin: miter; stroke-linecap: square"/>
   </g>
   <g id="patch_4">
    <path d="M 691.875 373.408 
L 691.875 16.2 
" style="fill: none; stroke: #000000; stroke-width: 0.8; stroke-linejoin: miter; stroke-linecap: square"/>
   </g>
   <g id="patch_5">
    <path d="M 77.582 373.408 
L 691.875 373.408 
" style="fill: none; stroke: #000000; stroke-width: 0.8; stroke-linejoin: miter; stroke-linecap: square"/>
   </g>
   <g id="patch_6">
    <path d="M 77.582 16.2 
L 691.875 16.2 
" style="fill: none; stroke: #000000; stroke-width: 0.8; stroke-linejoin: miter; stroke-linecap: square"/>
   </g>
   <g id="legend_1">
    <g id="patch_7">
     <path d="M 88.082 94.251562 
L 294.008562 94.251562 
Q 297.008562 94.251562 297.008562 91.251562 
L 297.008562 26.7 
Q 297.008562 23.7 294.008562 23.7 
L 88.082 23.7 
Q 85.082 23.7 85.082 26.7 
L 85.082 91.251562 
Q 85.082 94.251562 88.082 94.251562 
z
" style="fill: #ffffff; opacity: 0.8; stroke: #cccccc; stroke-linejoin: miter"/>
    </g>
    <g id="line2d_38">
     <path d="M 91.082 35.847656 
L 106.082 35.847656 
L 121.082 35.847656 
" style="fill: none; stroke-dasharray: 9.6,2.4,1.5,2.4; stroke-dashoffset: 0; stroke: #00a6b6; stroke-width: 1.5"/>
    </g>
    <g id="text_20">
     <!-- V = 40.0 m/s, J = 1.6 -->
     <g transform="translate(133.082 41.097656) scale(0.15 -0.15)">
      <defs>
       <path id="DejaVuSans-56" d="M 1831 0 
L 50 4666 
L 709 4666 
L 2188 738 
L 3669 4666 
L 4325 4666 
L 2547 0 
L 1831 0 
z
" transform="scale(0.015625)"/>
       <path id="DejaVuSans-3d" d="M 678 2906 
L 4684 2906 
L 4684 2381 
L 678 2381 
L 678 2906 
z
M 678 1631 
L 4684 1631 
L 4684 1100 
L 678 1100 
L 678 1631 
z
" transform="scale(0.015625)"/>
       <path id="DejaVuSans-34" d="M 2419 4116 
L 825 1625 
L 2419 1625 
L 2419 4116 
z
M 2253 4666 
L 3047 4666 
L 3047 1625 
L 3713 1625 
L 3713 1100 
L 3047 1100 
L 3047 0 
L 2419 0 
L 2419 1100 
L 313 1100 
L 313 1709 
L 2253 4666 
z
" transform="scale(0.015625)"/>
       <path id="DejaVuSans-6d" d="M 3328 2828 
Q 3544 3216 3844 3400 
Q 4144 3584 4550 3584 
Q 5097 3584 5394 3201 
Q 5691 2819 5691 2113 
L 5691 0 
L 5113 0 
L 5113 2094 
Q 5113 2597 4934 2840 
Q 4756 3084 4391 3084 
Q 3944 3084 3684 2787 
Q 3425 2491 3425 1978 
L 3425 0 
L 2847 0 
L 2847 2094 
Q 2847 2600 2669 2842 
Q 2491 3084 2119 3084 
Q 1678 3084 1418 2786 
Q 1159 2488 1159 1978 
L 1159 0 
L 581 0 
L 581 3500 
L 1159 3500 
L 1159 2956 
Q 1356 3278 1631 3431 
Q 1906 3584 2284 3584 
Q 2666 3584 2933 3390 
Q 3200 3197 3328 2828 
z
" transform="scale(0.015625)"/>
       <path id="DejaVuSans-2f" d="M 1625 4666 
L 2156 4666 
L 531 -594 
L 0 -594 
L 1625 4666 
z
" transform="scale(0.015625)"/>
       <path id="DejaVuSans-73" d="M 2834 3397 
L 2834 2853 
Q 2591 2978 2328 3040 
Q 2066 3103 1784 3103 
Q 1356 3103 1142 2972 
Q 928 2841 928 2578 
Q 928 2378 1081 2264 
Q 1234 2150 1697 2047 
L 1894 2003 
Q 2506 1872 2764 1633 
Q 3022 1394 3022 966 
Q 3022 478 2636 193 
Q 2250 -91 1575 -91 
Q 1294 -91 989 -36 
Q 684 19 347 128 
L 347 722 
Q 666 556 975 473 
Q 1284 391 1588 391 
Q 1994 391 2212 530 
Q 2431 669 2431 922 
Q 2431 1156 2273 1281 
Q 2116 1406 1581 1522 
L 1381 1569 
Q 847 1681 609 1914 
Q 372 2147 372 2553 
Q 372 3047 722 3315 
Q 1072 3584 1716 3584 
Q 2034 3584 2315 3537 
Q 2597 3491 2834 3397 
z
" transform="scale(0.015625)"/>
       <path id="DejaVuSans-2c" d="M 750 794 
L 1409 794 
L 1409 256 
L 897 -744 
L 494 -744 
L 750 256 
L 750 794 
z
" transform="scale(0.015625)"/>
       <path id="DejaVuSans-4a" d="M 628 4666 
L 1259 4666 
L 1259 325 
Q 1259 -519 939 -900 
Q 619 -1281 -91 -1281 
L -331 -1281 
L -331 -750 
L -134 -750 
Q 284 -750 456 -515 
Q 628 -281 628 325 
L 628 4666 
z
" transform="scale(0.015625)"/>
       <path id="DejaVuSans-36" d="M 2113 2584 
Q 1688 2584 1439 2293 
Q 1191 2003 1191 1497 
Q 1191 994 1439 701 
Q 1688 409 2113 409 
Q 2538 409 2786 701 
Q 3034 994 3034 1497 
Q 3034 2003 2786 2293 
Q 2538 2584 2113 2584 
z
M 3366 4563 
L 3366 3988 
Q 3128 4100 2886 4159 
Q 2644 4219 2406 4219 
Q 1781 4219 1451 3797 
Q 1122 3375 1075 2522 
Q 1259 2794 1537 2939 
Q 1816 3084 2150 3084 
Q 2853 3084 3261 2657 
Q 3669 2231 3669 1497 
Q 3669 778 3244 343 
Q 2819 -91 2113 -91 
Q 1303 -91 875 529 
Q 447 1150 447 2328 
Q 447 3434 972 4092 
Q 1497 4750 2381 4750 
Q 2619 4750 2861 4703 
Q 3103 4656 3366 4563 
z
" transform="scale(0.015625)"/>
      </defs>
      <use xlink:href="#DejaVuSans-56"/>
      <use xlink:href="#DejaVuSans-20" x="68.408203"/>
      <use xlink:href="#DejaVuSans-3d" x="100.195312"/>
      <use xlink:href="#DejaVuSans-20" x="183.984375"/>
      <use xlink:href="#DejaVuSans-34" x="215.771484"/>
      <use xlink:href="#DejaVuSans-30" x="279.394531"/>
      <use xlink:href="#DejaVuSans-2e" x="343.017578"/>
      <use xlink:href="#DejaVuSans-30" x="374.804688"/>
      <use xlink:href="#DejaVuSans-20" x="438.427734"/>
      <use xlink:href="#DejaVuSans-6d" x="470.214844"/>
      <use xlink:href="#DejaVuSans-2f" x="567.626953"/>
      <use xlink:href="#DejaVuSans-73" x="601.318359"/>
      <use xlink:href="#DejaVuSans-2c" x="653.417969"/>
      <use xlink:href="#DejaVuSans-20" x="685.205078"/>
      <use xlink:href="#DejaVuSans-4a" x="716.992188"/>
      <use xlink:href="#DejaVuSans-20" x="746.484375"/>
      <use xlink:href="#DejaVuSans-3d" x="778.271484"/>
      <use xlink:href="#DejaVuSans-20" x="862.060547"/>
      <use xlink:href="#DejaVuSans-31" x="893.847656"/>
      <use xlink:href="#DejaVuSans-2e" x="957.470703"/>
      <use xlink:href="#DejaVuSans-36" x="989.257812"/>
     </g>
    </g>
    <g id="line2d_39">
     <path d="M 91.082 57.864844 
L 106.082 57.864844 
L 121.082 57.864844 
" style="fill: none; stroke-dasharray: 9.6,2.4,1.5,2.4; stroke-dashoffset: 0; stroke: #a50034; stroke-width: 1.5"/>
    </g>
    <g id="text_21">
     <!-- V = 20.0 m/s, J = 1.6 -->
     <g transform="translate(133.082 63.114844) scale(0.15 -0.15)">
      <use xlink:href="#DejaVuSans-56"/>
      <use xlink:href="#DejaVuSans-20" x="68.408203"/>
      <use xlink:href="#DejaVuSans-3d" x="100.195312"/>
      <use xlink:href="#DejaVuSans-20" x="183.984375"/>
      <use xlink:href="#DejaVuSans-32" x="215.771484"/>
      <use xlink:href="#DejaVuSans-30" x="279.394531"/>
      <use xlink:href="#DejaVuSans-2e" x="343.017578"/>
      <use xlink:href="#DejaVuSans-30" x="374.804688"/>
      <use xlink:href="#DejaVuSans-20" x="438.427734"/>
      <use xlink:href="#DejaVuSans-6d" x="470.214844"/>
      <use xlink:href="#DejaVuSans-2f" x="567.626953"/>
      <use xlink:href="#DejaVuSans-73" x="601.318359"/>
      <use xlink:href="#DejaVuSans-2c" x="653.417969"/>
      <use xlink:href="#DejaVuSans-20" x="685.205078"/>
      <use xlink:href="#DejaVuSans-4a" x="716.992188"/>
      <use xlink:href="#DejaVuSans-20" x="746.484375"/>
      <use xlink:href="#DejaVuSans-3d" x="778.271484"/>
      <use xlink:href="#DejaVuSans-20" x="862.060547"/>
      <use xlink:href="#DejaVuSans-31" x="893.847656"/>
      <use xlink:href="#DejaVuSans-2e" x="957.470703"/>
      <use xlink:href="#DejaVuSans-36" x="989.257812"/>
     </g>
    </g>
    <g id="line2d_40">
     <path d="M 91.082 79.882031 
L 106.082 79.882031 
L 121.082 79.882031 
" style="fill: none; stroke-dasharray: 9.6,2.4,1.5,2.4; stroke-dashoffset: 0; stroke: #ef60a3; stroke-width: 1.5"/>
    </g>
    <g id="text_22">
     <!-- V = 10.0 m/s, J = 1.6 -->
     <g transform="translate(133.082 85.132031) scale(0.15 -0.15)">
      <use xlink:href="#DejaVuSans-56"/>
      <use xlink:href="#DejaVuSans-20" x="68.408203"/>
      <use xlink:href="#DejaVuSans-3d" x="100.195312"/>
      <use xlink:href="#DejaVuSans-20" x="183.984375"/>
      <use xlink:href="#DejaVuSans-31" x="215.771484"/>
      <use xlink:href="#DejaVuSans-30" x="279.394531"/>
      <use xlink:href="#DejaVuSans-2e" x="343.017578"/>
      <use xlink:href="#DejaVuSans-30" x="374.804688"/>
      <use xlink:href="#DejaVuSans-20" x="438.427734"/>
      <use xlink:href="#DejaVuSans-6d" x="470.214844"/>
      <use xlink:href="#DejaVuSans-2f" x="567.626953"/>
      <use xlink:href="#DejaVuSans-73" x="601.318359"/>
      <use xlink:href="#DejaVuSans-2c" x="653.417969"/>
      <use xlink:href="#DejaVuSans-20" x="685.205078"/>
      <use xlink:href="#DejaVuSans-4a" x="716.992188"/>
      <use xlink:href="#DejaVuSans-20" x="746.484375"/>
      <use xlink:href="#DejaVuSans-3d" x="778.271484"/>
      <use xlink:href="#DejaVuSans-20" x="862.060547"/>
      <use xlink:href="#DejaVuSans-31" x="893.847656"/>
      <use xlink:href="#DejaVuSans-2e" x="957.470703"/>
      <use xlink:href="#DejaVuSans-36" x="989.257812"/>
     </g>
    </g>
   </g>
  </g>
 </g>
 <defs>
  <clipPath id="p1b90354f83">
   <rect x="77.582" y="16.2" width="614.293" height="357.208"/>
  </clipPath>
 </defs>
</svg>
