<?xml version="1.0" encoding="utf-8" standalone="no"?>
<!DOCTYPE svg PUBLIC "-//W3C//DTD SVG 1.1//EN"
  "http://www.w3.org/Graphics/SVG/1.1/DTD/svg11.dtd">
<svg xmlns:xlink="http://www.w3.org/1999/xlink" width="576pt" height="432pt" viewBox="0 0 576 432" xmlns="http://www.w3.org/2000/svg" version="1.1">
 <metadata>
  <rdf:RDF xmlns:dc="http://purl.org/dc/elements/1.1/" xmlns:cc="http://creativecommons.org/ns#" xmlns:rdf="http://www.w3.org/1999/02/22-rdf-syntax-ns#">
   <cc:Work>
    <dc:type rdf:resource="http://purl.org/dc/dcmitype/StillImage"/>
    <dc:date>2024-04-02T17:16:41.237467</dc:date>
    <dc:format>image/svg+xml</dc:format>
    <dc:creator>
     <cc:Agent>
      <dc:title>Matplotlib v3.8.0, https://matplotlib.org/</dc:title>
     </cc:Agent>
    </dc:creator>
   </cc:Work>
  </rdf:RDF>
 </metadata>
 <defs>
  <style type="text/css">*{stroke-linejoin: round; stroke-linecap: butt}</style>
 </defs>
 <g id="figure_1">
  <g id="patch_1">
   <path d="M 0 432 
L 576 432 
L 576 0 
L 0 0 
z
" style="fill: #ffffff"/>
  </g>
  <g id="axes_1">
   <g id="patch_2">
    <path d="M 99.236 357.064 
L 538.515 357.064 
L 538.515 21.6 
L 99.236 21.6 
z
" style="fill: #ffffff"/>
   </g>
   <g id="PathCollection_1">
    <defs>
     <path id="m07c336c9bd" d="M 0 3 
C 0.795609 3 1.55874 2.683901 2.12132 2.12132 
C 2.683901 1.55874 3 0.795609 3 0 
C 3 -0.795609 2.683901 -1.55874 2.12132 -2.12132 
C 1.55874 -2.683901 0.795609 -3 0 -3 
C -0.795609 -3 -1.55874 -2.683901 -2.12132 -2.12132 
C -2.683901 -1.55874 -3 -0.795609 -3 0 
C -3 0.795609 -2.683901 1.55874 -2.12132 2.12132 
C -1.55874 2.683901 -0.795609 3 0 3 
z
" style="stroke: #00a6b6"/>
    </defs>
    <g clip-path="url(#p69d376617f)">
     <use xlink:href="#m07c336c9bd" x="130.60529" y="332.06773" style="fill: #00a6b6; stroke: #00a6b6"/>
     <use xlink:href="#m07c336c9bd" x="157.210854" y="335.729306" style="fill: #00a6b6; stroke: #00a6b6"/>
     <use xlink:href="#m07c336c9bd" x="183.959659" y="338.65631" style="fill: #00a6b6; stroke: #00a6b6"/>
     <use xlink:href="#m07c336c9bd" x="210.175623" y="340.723953" style="fill: #00a6b6; stroke: #00a6b6"/>
     <use xlink:href="#m07c336c9bd" x="236.131207" y="341.815636" style="fill: #00a6b6; stroke: #00a6b6"/>
     <use xlink:href="#m07c336c9bd" x="261.906964" y="341.815539" style="fill: #00a6b6; stroke: #00a6b6"/>
     <use xlink:href="#m07c336c9bd" x="286.719446" y="340.614508" style="fill: #00a6b6; stroke: #00a6b6"/>
     <use xlink:href="#m07c336c9bd" x="311.61935" y="338.099408" style="fill: #00a6b6; stroke: #00a6b6"/>
     <use xlink:href="#m07c336c9bd" x="336.440894" y="334.165642" style="fill: #00a6b6; stroke: #00a6b6"/>
     <use xlink:href="#m07c336c9bd" x="360.119603" y="328.70674" style="fill: #00a6b6; stroke: #00a6b6"/>
     <use xlink:href="#m07c336c9bd" x="383.709905" y="321.617983" style="fill: #00a6b6; stroke: #00a6b6"/>
     <use xlink:href="#m07c336c9bd" x="406.436836" y="312.804018" style="fill: #00a6b6; stroke: #00a6b6"/>
     <use xlink:href="#m07c336c9bd" x="425.840016" y="302.206991" style="fill: #00a6b6; stroke: #00a6b6"/>
     <use xlink:href="#m07c336c9bd" x="442.056701" y="289.770001" style="fill: #00a6b6; stroke: #00a6b6"/>
     <use xlink:href="#m07c336c9bd" x="457.870152" y="275.654679" style="fill: #00a6b6; stroke: #00a6b6"/>
     <use xlink:href="#m07c336c9bd" x="469.789598" y="259.492915" style="fill: #00a6b6; stroke: #00a6b6"/>
     <use xlink:href="#m07c336c9bd" x="480.710029" y="240.91482" style="fill: #00a6b6; stroke: #00a6b6"/>
     <use xlink:href="#m07c336c9bd" x="493.591806" y="220.027474" style="fill: #00a6b6; stroke: #00a6b6"/>
     <use xlink:href="#m07c336c9bd" x="499.821909" y="196.613686" style="fill: #00a6b6; stroke: #00a6b6"/>
     <use xlink:href="#m07c336c9bd" x="514.169313" y="171.109754" style="fill: #00a6b6; stroke: #00a6b6"/>
    </g>
   </g>
   <g id="PathCollection_2">
    <defs>
     <path id="m35929a57b2" d="M 0 3 
C 0.795609 3 1.55874 2.683901 2.12132 2.12132 
C 2.683901 1.55874 3 0.795609 3 0 
C 3 -0.795609 2.683901 -1.55874 2.12132 -2.12132 
C 1.55874 -2.683901 0.795609 -3 0 -3 
C -0.795609 -3 -1.55874 -2.683901 -2.12132 -2.12132 
C -2.683901 -1.55874 -3 -0.795609 -3 0 
C -3 0.795609 -2.683901 1.55874 -2.12132 2.12132 
C -1.55874 2.683901 -0.795609 3 0 3 
z
" style="stroke: #a50034"/>
    </defs>
    <g clip-path="url(#p69d376617f)">
     <use xlink:href="#m35929a57b2" x="133.486118" y="300.69046" style="fill: #a50034; stroke: #a50034"/>
     <use xlink:href="#m35929a57b2" x="159.859124" y="303.373767" style="fill: #a50034; stroke: #a50034"/>
     <use xlink:href="#m35929a57b2" x="186.012579" y="305.363445" style="fill: #a50034; stroke: #a50034"/>
     <use xlink:href="#m35929a57b2" x="210.985844" y="306.603418" style="fill: #a50034; stroke: #a50034"/>
     <use xlink:href="#m35929a57b2" x="236.479457" y="307.026491" style="fill: #a50034; stroke: #a50034"/>
     <use xlink:href="#m35929a57b2" x="260.965602" y="306.551151" style="fill: #a50034; stroke: #a50034"/>
     <use xlink:href="#m35929a57b2" x="286.017803" y="305.100701" style="fill: #a50034; stroke: #a50034"/>
     <use xlink:href="#m35929a57b2" x="310.726661" y="302.550044" style="fill: #a50034; stroke: #a50034"/>
     <use xlink:href="#m35929a57b2" x="335.214391" y="298.801162" style="fill: #a50034; stroke: #a50034"/>
     <use xlink:href="#m35929a57b2" x="359.246061" y="293.72095" style="fill: #a50034; stroke: #a50034"/>
     <use xlink:href="#m35929a57b2" x="383.284931" y="287.167714" style="fill: #a50034; stroke: #a50034"/>
     <use xlink:href="#m35929a57b2" x="404.748911" y="279.023734" style="fill: #a50034; stroke: #a50034"/>
     <use xlink:href="#m35929a57b2" x="424.80412" y="269.160748" style="fill: #a50034; stroke: #a50034"/>
     <use xlink:href="#m35929a57b2" x="440.536462" y="257.489234" style="fill: #a50034; stroke: #a50034"/>
     <use xlink:href="#m35929a57b2" x="456.471482" y="243.892983" style="fill: #a50034; stroke: #a50034"/>
     <use xlink:href="#m35929a57b2" x="470.26766" y="228.121054" style="fill: #a50034; stroke: #a50034"/>
     <use xlink:href="#m35929a57b2" x="477.751201" y="209.944153" style="fill: #a50034; stroke: #a50034"/>
     <use xlink:href="#m35929a57b2" x="488.748541" y="188.865151" style="fill: #a50034; stroke: #a50034"/>
     <use xlink:href="#m35929a57b2" x="494.523838" y="164.992828" style="fill: #a50034; stroke: #a50034"/>
     <use xlink:href="#m35929a57b2" x="507.899258" y="137.947506" style="fill: #a50034; stroke: #a50034"/>
    </g>
   </g>
   <g id="matplotlib.axis_1">
    <g id="xtick_1">
     <g id="line2d_1">
      <path d="M 99.236 357.064 
L 99.236 21.6 
" clip-path="url(#p69d376617f)" style="fill: none; stroke: #b0b0b0; stroke-width: 0.8; stroke-linecap: square"/>
     </g>
     <g id="line2d_2">
      <defs>
       <path id="m95fa54f5f4" d="M 0 0 
L 0 3.5 
" style="stroke: #000000; stroke-width: 0.8"/>
      </defs>
      <g>
       <use xlink:href="#m95fa54f5f4" x="99.236" y="357.064" style="stroke: #000000; stroke-width: 0.8"/>
      </g>
     </g>
     <g id="text_1">
      <!-- −0.5 -->
      <g transform="translate(74.953188 379.260875) scale(0.2 -0.2)">
       <defs>
        <path id="DejaVuSans-2212" d="M 678 2272 
L 4684 2272 
L 4684 1741 
L 678 1741 
L 678 2272 
z
" transform="scale(0.015625)"/>
        <path id="DejaVuSans-30" d="M 2034 4250 
Q 1547 4250 1301 3770 
Q 1056 3291 1056 2328 
Q 1056 1369 1301 889 
Q 1547 409 2034 409 
Q 2525 409 2770 889 
Q 3016 1369 3016 2328 
Q 3016 3291 2770 3770 
Q 2525 4250 2034 4250 
z
M 2034 4750 
Q 2819 4750 3233 4129 
Q 3647 3509 3647 2328 
Q 3647 1150 3233 529 
Q 2819 -91 2034 -91 
Q 1250 -91 836 529 
Q 422 1150 422 2328 
Q 422 3509 836 4129 
Q 1250 4750 2034 4750 
z
" transform="scale(0.015625)"/>
        <path id="DejaVuSans-2e" d="M 684 794 
L 1344 794 
L 1344 0 
L 684 0 
L 684 794 
z
" transform="scale(0.015625)"/>
        <path id="DejaVuSans-35" d="M 691 4666 
L 3169 4666 
L 3169 4134 
L 1269 4134 
L 1269 2991 
Q 1406 3038 1543 3061 
Q 1681 3084 1819 3084 
Q 2600 3084 3056 2656 
Q 3513 2228 3513 1497 
Q 3513 744 3044 326 
Q 2575 -91 1722 -91 
Q 1428 -91 1123 -41 
Q 819 9 494 109 
L 494 744 
Q 775 591 1075 516 
Q 1375 441 1709 441 
Q 2250 441 2565 725 
Q 2881 1009 2881 1497 
Q 2881 1984 2565 2268 
Q 2250 2553 1709 2553 
Q 1456 2553 1204 2497 
Q 953 2441 691 2322 
L 691 4666 
z
" transform="scale(0.015625)"/>
       </defs>
       <use xlink:href="#DejaVuSans-2212"/>
       <use xlink:href="#DejaVuSans-30" x="83.789062"/>
       <use xlink:href="#DejaVuSans-2e" x="147.412109"/>
       <use xlink:href="#DejaVuSans-35" x="179.199219"/>
      </g>
     </g>
    </g>
    <g id="xtick_2">
     <g id="line2d_3">
      <path d="M 143.1639 357.064 
L 143.1639 21.6 
" clip-path="url(#p69d376617f)" style="fill: none; stroke: #b0b0b0; stroke-width: 0.8; stroke-linecap: square"/>
     </g>
     <g id="line2d_4">
      <g>
       <use xlink:href="#m95fa54f5f4" x="143.1639" y="357.064" style="stroke: #000000; stroke-width: 0.8"/>
      </g>
     </g>
     <g id="text_2">
      <!-- −0.3 -->
      <g transform="translate(118.881088 379.260875) scale(0.2 -0.2)">
       <defs>
        <path id="DejaVuSans-33" d="M 2597 2516 
Q 3050 2419 3304 2112 
Q 3559 1806 3559 1356 
Q 3559 666 3084 287 
Q 2609 -91 1734 -91 
Q 1441 -91 1130 -33 
Q 819 25 488 141 
L 488 750 
Q 750 597 1062 519 
Q 1375 441 1716 441 
Q 2309 441 2620 675 
Q 2931 909 2931 1356 
Q 2931 1769 2642 2001 
Q 2353 2234 1838 2234 
L 1294 2234 
L 1294 2753 
L 1863 2753 
Q 2328 2753 2575 2939 
Q 2822 3125 2822 3475 
Q 2822 3834 2567 4026 
Q 2313 4219 1838 4219 
Q 1578 4219 1281 4162 
Q 984 4106 628 3988 
L 628 4550 
Q 988 4650 1302 4700 
Q 1616 4750 1894 4750 
Q 2613 4750 3031 4423 
Q 3450 4097 3450 3541 
Q 3450 3153 3228 2886 
Q 3006 2619 2597 2516 
z
" transform="scale(0.015625)"/>
       </defs>
       <use xlink:href="#DejaVuSans-2212"/>
       <use xlink:href="#DejaVuSans-30" x="83.789062"/>
       <use xlink:href="#DejaVuSans-2e" x="147.412109"/>
       <use xlink:href="#DejaVuSans-33" x="179.199219"/>
      </g>
     </g>
    </g>
    <g id="xtick_3">
     <g id="line2d_5">
      <path d="M 187.0918 357.064 
L 187.0918 21.6 
" clip-path="url(#p69d376617f)" style="fill: none; stroke: #b0b0b0; stroke-width: 0.8; stroke-linecap: square"/>
     </g>
     <g id="line2d_6">
      <g>
       <use xlink:href="#m95fa54f5f4" x="187.0918" y="357.064" style="stroke: #000000; stroke-width: 0.8"/>
      </g>
     </g>
     <g id="text_3">
      <!-- −0.1 -->
      <g transform="translate(162.808988 379.260875) scale(0.2 -0.2)">
       <defs>
        <path id="DejaVuSans-31" d="M 794 531 
L 1825 531 
L 1825 4091 
L 703 3866 
L 703 4441 
L 1819 4666 
L 2450 4666 
L 2450 531 
L 3481 531 
L 3481 0 
L 794 0 
L 794 531 
z
" transform="scale(0.015625)"/>
       </defs>
       <use xlink:href="#DejaVuSans-2212"/>
       <use xlink:href="#DejaVuSans-30" x="83.789062"/>
       <use xlink:href="#DejaVuSans-2e" x="147.412109"/>
       <use xlink:href="#DejaVuSans-31" x="179.199219"/>
      </g>
     </g>
    </g>
    <g id="xtick_4">
     <g id="line2d_7">
      <path d="M 231.0197 357.064 
L 231.0197 21.6 
" clip-path="url(#p69d376617f)" style="fill: none; stroke: #b0b0b0; stroke-width: 0.8; stroke-linecap: square"/>
     </g>
     <g id="line2d_8">
      <g>
       <use xlink:href="#m95fa54f5f4" x="231.0197" y="357.064" style="stroke: #000000; stroke-width: 0.8"/>
      </g>
     </g>
     <g id="text_4">
      <!-- 0.1 -->
      <g transform="translate(215.116575 379.260875) scale(0.2 -0.2)">
       <use xlink:href="#DejaVuSans-30"/>
       <use xlink:href="#DejaVuSans-2e" x="63.623047"/>
       <use xlink:href="#DejaVuSans-31" x="95.410156"/>
      </g>
     </g>
    </g>
    <g id="xtick_5">
     <g id="line2d_9">
      <path d="M 274.9476 357.064 
L 274.9476 21.6 
" clip-path="url(#p69d376617f)" style="fill: none; stroke: #b0b0b0; stroke-width: 0.8; stroke-linecap: square"/>
     </g>
     <g id="line2d_10">
      <g>
       <use xlink:href="#m95fa54f5f4" x="274.9476" y="357.064" style="stroke: #000000; stroke-width: 0.8"/>
      </g>
     </g>
     <g id="text_5">
      <!-- 0.3 -->
      <g transform="translate(259.044475 379.260875) scale(0.2 -0.2)">
       <use xlink:href="#DejaVuSans-30"/>
       <use xlink:href="#DejaVuSans-2e" x="63.623047"/>
       <use xlink:href="#DejaVuSans-33" x="95.410156"/>
      </g>
     </g>
    </g>
    <g id="xtick_6">
     <g id="line2d_11">
      <path d="M 318.8755 357.064 
L 318.8755 21.6 
" clip-path="url(#p69d376617f)" style="fill: none; stroke: #b0b0b0; stroke-width: 0.8; stroke-linecap: square"/>
     </g>
     <g id="line2d_12">
      <g>
       <use xlink:href="#m95fa54f5f4" x="318.8755" y="357.064" style="stroke: #000000; stroke-width: 0.8"/>
      </g>
     </g>
     <g id="text_6">
      <!-- 0.5 -->
      <g transform="translate(302.972375 379.260875) scale(0.2 -0.2)">
       <use xlink:href="#DejaVuSans-30"/>
       <use xlink:href="#DejaVuSans-2e" x="63.623047"/>
       <use xlink:href="#DejaVuSans-35" x="95.410156"/>
      </g>
     </g>
    </g>
    <g id="xtick_7">
     <g id="line2d_13">
      <path d="M 362.8034 357.064 
L 362.8034 21.6 
" clip-path="url(#p69d376617f)" style="fill: none; stroke: #b0b0b0; stroke-width: 0.8; stroke-linecap: square"/>
     </g>
     <g id="line2d_14">
      <g>
       <use xlink:href="#m95fa54f5f4" x="362.8034" y="357.064" style="stroke: #000000; stroke-width: 0.8"/>
      </g>
     </g>
     <g id="text_7">
      <!-- 0.7 -->
      <g transform="translate(346.900275 379.260875) scale(0.2 -0.2)">
       <defs>
        <path id="DejaVuSans-37" d="M 525 4666 
L 3525 4666 
L 3525 4397 
L 1831 0 
L 1172 0 
L 2766 4134 
L 525 4134 
L 525 4666 
z
" transform="scale(0.015625)"/>
       </defs>
       <use xlink:href="#DejaVuSans-30"/>
       <use xlink:href="#DejaVuSans-2e" x="63.623047"/>
       <use xlink:href="#DejaVuSans-37" x="95.410156"/>
      </g>
     </g>
    </g>
    <g id="xtick_8">
     <g id="line2d_15">
      <path d="M 406.7313 357.064 
L 406.7313 21.6 
" clip-path="url(#p69d376617f)" style="fill: none; stroke: #b0b0b0; stroke-width: 0.8; stroke-linecap: square"/>
     </g>
     <g id="line2d_16">
      <g>
       <use xlink:href="#m95fa54f5f4" x="406.7313" y="357.064" style="stroke: #000000; stroke-width: 0.8"/>
      </g>
     </g>
     <g id="text_8">
      <!-- 0.9 -->
      <g transform="translate(390.828175 379.260875) scale(0.2 -0.2)">
       <defs>
        <path id="DejaVuSans-39" d="M 703 97 
L 703 672 
Q 941 559 1184 500 
Q 1428 441 1663 441 
Q 2288 441 2617 861 
Q 2947 1281 2994 2138 
Q 2813 1869 2534 1725 
Q 2256 1581 1919 1581 
Q 1219 1581 811 2004 
Q 403 2428 403 3163 
Q 403 3881 828 4315 
Q 1253 4750 1959 4750 
Q 2769 4750 3195 4129 
Q 3622 3509 3622 2328 
Q 3622 1225 3098 567 
Q 2575 -91 1691 -91 
Q 1453 -91 1209 -44 
Q 966 3 703 97 
z
M 1959 2075 
Q 2384 2075 2632 2365 
Q 2881 2656 2881 3163 
Q 2881 3666 2632 3958 
Q 2384 4250 1959 4250 
Q 1534 4250 1286 3958 
Q 1038 3666 1038 3163 
Q 1038 2656 1286 2365 
Q 1534 2075 1959 2075 
z
" transform="scale(0.015625)"/>
       </defs>
       <use xlink:href="#DejaVuSans-30"/>
       <use xlink:href="#DejaVuSans-2e" x="63.623047"/>
       <use xlink:href="#DejaVuSans-39" x="95.410156"/>
      </g>
     </g>
    </g>
    <g id="xtick_9">
     <g id="line2d_17">
      <path d="M 450.6592 357.064 
L 450.6592 21.6 
" clip-path="url(#p69d376617f)" style="fill: none; stroke: #b0b0b0; stroke-width: 0.8; stroke-linecap: square"/>
     </g>
     <g id="line2d_18">
      <g>
       <use xlink:href="#m95fa54f5f4" x="450.6592" y="357.064" style="stroke: #000000; stroke-width: 0.8"/>
      </g>
     </g>
     <g id="text_9">
      <!-- 1.1 -->
      <g transform="translate(434.756075 379.260875) scale(0.2 -0.2)">
       <use xlink:href="#DejaVuSans-31"/>
       <use xlink:href="#DejaVuSans-2e" x="63.623047"/>
       <use xlink:href="#DejaVuSans-31" x="95.410156"/>
      </g>
     </g>
    </g>
    <g id="xtick_10">
     <g id="line2d_19">
      <path d="M 494.5871 357.064 
L 494.5871 21.6 
" clip-path="url(#p69d376617f)" style="fill: none; stroke: #b0b0b0; stroke-width: 0.8; stroke-linecap: square"/>
     </g>
     <g id="line2d_20">
      <g>
       <use xlink:href="#m95fa54f5f4" x="494.5871" y="357.064" style="stroke: #000000; stroke-width: 0.8"/>
      </g>
     </g>
     <g id="text_10">
      <!-- 1.3 -->
      <g transform="translate(478.683975 379.260875) scale(0.2 -0.2)">
       <use xlink:href="#DejaVuSans-31"/>
       <use xlink:href="#DejaVuSans-2e" x="63.623047"/>
       <use xlink:href="#DejaVuSans-33" x="95.410156"/>
      </g>
     </g>
    </g>
    <g id="xtick_11">
     <g id="line2d_21">
      <path d="M 538.515 357.064 
L 538.515 21.6 
" clip-path="url(#p69d376617f)" style="fill: none; stroke: #b0b0b0; stroke-width: 0.8; stroke-linecap: square"/>
     </g>
     <g id="line2d_22">
      <g>
       <use xlink:href="#m95fa54f5f4" x="538.515" y="357.064" style="stroke: #000000; stroke-width: 0.8"/>
      </g>
     </g>
     <g id="text_11">
      <!-- 1.5 -->
      <g transform="translate(522.611875 379.260875) scale(0.2 -0.2)">
       <use xlink:href="#DejaVuSans-31"/>
       <use xlink:href="#DejaVuSans-2e" x="63.623047"/>
       <use xlink:href="#DejaVuSans-35" x="95.410156"/>
      </g>
     </g>
    </g>
    <g id="text_12">
     <!-- $C_L$ [-] -->
     <g transform="translate(293.0755 402.617125) scale(0.2 -0.2)">
      <defs>
       <path id="DejaVuSans-Oblique-43" d="M 4447 4306 
L 4319 3641 
Q 4019 3944 3683 4091 
Q 3347 4238 2956 4238 
Q 2422 4238 2017 3981 
Q 1613 3725 1319 3200 
Q 1131 2863 1032 2486 
Q 934 2109 934 1728 
Q 934 1091 1264 756 
Q 1594 422 2222 422 
Q 2656 422 3056 561 
Q 3456 700 3834 978 
L 3688 231 
Q 3316 72 2936 -9 
Q 2556 -91 2175 -91 
Q 1278 -91 773 396 
Q 269 884 269 1753 
Q 269 2309 461 2846 
Q 653 3384 1013 3828 
Q 1394 4300 1883 4525 
Q 2372 4750 3022 4750 
Q 3422 4750 3780 4639 
Q 4138 4528 4447 4306 
z
" transform="scale(0.015625)"/>
       <path id="DejaVuSans-Oblique-4c" d="M 1075 4666 
L 1709 4666 
L 909 525 
L 3181 525 
L 3078 0 
L 172 0 
L 1075 4666 
z
" transform="scale(0.015625)"/>
       <path id="DejaVuSans-20" transform="scale(0.015625)"/>
       <path id="DejaVuSans-5b" d="M 550 4863 
L 1875 4863 
L 1875 4416 
L 1125 4416 
L 1125 -397 
L 1875 -397 
L 1875 -844 
L 550 -844 
L 550 4863 
z
" transform="scale(0.015625)"/>
       <path id="DejaVuSans-2d" d="M 313 2009 
L 1997 2009 
L 1997 1497 
L 313 1497 
L 313 2009 
z
" transform="scale(0.015625)"/>
       <path id="DejaVuSans-5d" d="M 1947 4863 
L 1947 -844 
L 622 -844 
L 622 -397 
L 1369 -397 
L 1369 4416 
L 622 4416 
L 622 4863 
L 1947 4863 
z
" transform="scale(0.015625)"/>
      </defs>
      <use xlink:href="#DejaVuSans-Oblique-43" transform="translate(0 0.015625)"/>
      <use xlink:href="#DejaVuSans-Oblique-4c" transform="translate(69.824219 -16.390625) scale(0.7)"/>
      <use xlink:href="#DejaVuSans-20" transform="translate(111.557617 0.015625)"/>
      <use xlink:href="#DejaVuSans-5b" transform="translate(143.344727 0.015625)"/>
      <use xlink:href="#DejaVuSans-2d" transform="translate(182.358398 0.015625)"/>
      <use xlink:href="#DejaVuSans-5d" transform="translate(218.442383 0.015625)"/>
     </g>
    </g>
   </g>
   <g id="matplotlib.axis_2">
    <g id="ytick_1">
     <g id="line2d_23">
      <path d="M 99.236 311.263844 
L 538.515 311.263844 
" clip-path="url(#p69d376617f)" style="fill: none; stroke: #b0b0b0; stroke-width: 0.8; stroke-linecap: square"/>
     </g>
     <g id="line2d_24">
      <defs>
       <path id="mc04421628c" d="M 0 0 
L -3.5 0 
" style="stroke: #000000; stroke-width: 0.8"/>
      </defs>
      <g>
       <use xlink:href="#mc04421628c" x="99.236" y="311.263844" style="stroke: #000000; stroke-width: 0.8"/>
      </g>
     </g>
     <g id="text_13">
      <!-- 0.05 -->
      <g transform="translate(47.70475 318.862282) scale(0.2 -0.2)">
       <use xlink:href="#DejaVuSans-30"/>
       <use xlink:href="#DejaVuSans-2e" x="63.623047"/>
       <use xlink:href="#DejaVuSans-30" x="95.410156"/>
       <use xlink:href="#DejaVuSans-35" x="159.033203"/>
      </g>
     </g>
    </g>
    <g id="ytick_2">
     <g id="line2d_25">
      <path d="M 99.236 249.037809 
L 538.515 249.037809 
" clip-path="url(#p69d376617f)" style="fill: none; stroke: #b0b0b0; stroke-width: 0.8; stroke-linecap: square"/>
     </g>
     <g id="line2d_26">
      <g>
       <use xlink:href="#mc04421628c" x="99.236" y="249.037809" style="stroke: #000000; stroke-width: 0.8"/>
      </g>
     </g>
     <g id="text_14">
      <!-- 0.10 -->
      <g transform="translate(47.70475 256.636246) scale(0.2 -0.2)">
       <use xlink:href="#DejaVuSans-30"/>
       <use xlink:href="#DejaVuSans-2e" x="63.623047"/>
       <use xlink:href="#DejaVuSans-31" x="95.410156"/>
       <use xlink:href="#DejaVuSans-30" x="159.033203"/>
      </g>
     </g>
    </g>
    <g id="ytick_3">
     <g id="line2d_27">
      <path d="M 99.236 186.811774 
L 538.515 186.811774 
" clip-path="url(#p69d376617f)" style="fill: none; stroke: #b0b0b0; stroke-width: 0.8; stroke-linecap: square"/>
     </g>
     <g id="line2d_28">
      <g>
       <use xlink:href="#mc04421628c" x="99.236" y="186.811774" style="stroke: #000000; stroke-width: 0.8"/>
      </g>
     </g>
     <g id="text_15">
      <!-- 0.15 -->
      <g transform="translate(47.70475 194.410211) scale(0.2 -0.2)">
       <use xlink:href="#DejaVuSans-30"/>
       <use xlink:href="#DejaVuSans-2e" x="63.623047"/>
       <use xlink:href="#DejaVuSans-31" x="95.410156"/>
       <use xlink:href="#DejaVuSans-35" x="159.033203"/>
      </g>
     </g>
    </g>
    <g id="ytick_4">
     <g id="line2d_29">
      <path d="M 99.236 124.585738 
L 538.515 124.585738 
" clip-path="url(#p69d376617f)" style="fill: none; stroke: #b0b0b0; stroke-width: 0.8; stroke-linecap: square"/>
     </g>
     <g id="line2d_30">
      <g>
       <use xlink:href="#mc04421628c" x="99.236" y="124.585738" style="stroke: #000000; stroke-width: 0.8"/>
      </g>
     </g>
     <g id="text_16">
      <!-- 0.20 -->
      <g transform="translate(47.70475 132.184176) scale(0.2 -0.2)">
       <defs>
        <path id="DejaVuSans-32" d="M 1228 531 
L 3431 531 
L 3431 0 
L 469 0 
L 469 531 
Q 828 903 1448 1529 
Q 2069 2156 2228 2338 
Q 2531 2678 2651 2914 
Q 2772 3150 2772 3378 
Q 2772 3750 2511 3984 
Q 2250 4219 1831 4219 
Q 1534 4219 1204 4116 
Q 875 4013 500 3803 
L 500 4441 
Q 881 4594 1212 4672 
Q 1544 4750 1819 4750 
Q 2544 4750 2975 4387 
Q 3406 4025 3406 3419 
Q 3406 3131 3298 2873 
Q 3191 2616 2906 2266 
Q 2828 2175 2409 1742 
Q 1991 1309 1228 531 
z
" transform="scale(0.015625)"/>
       </defs>
       <use xlink:href="#DejaVuSans-30"/>
       <use xlink:href="#DejaVuSans-2e" x="63.623047"/>
       <use xlink:href="#DejaVuSans-32" x="95.410156"/>
       <use xlink:href="#DejaVuSans-30" x="159.033203"/>
      </g>
     </g>
    </g>
    <g id="ytick_5">
     <g id="line2d_31">
      <path d="M 99.236 62.359703 
L 538.515 62.359703 
" clip-path="url(#p69d376617f)" style="fill: none; stroke: #b0b0b0; stroke-width: 0.8; stroke-linecap: square"/>
     </g>
     <g id="line2d_32">
      <g>
       <use xlink:href="#mc04421628c" x="99.236" y="62.359703" style="stroke: #000000; stroke-width: 0.8"/>
      </g>
     </g>
     <g id="text_17">
      <!-- 0.25 -->
      <g transform="translate(47.70475 69.958141) scale(0.2 -0.2)">
       <use xlink:href="#DejaVuSans-30"/>
       <use xlink:href="#DejaVuSans-2e" x="63.623047"/>
       <use xlink:href="#DejaVuSans-32" x="95.410156"/>
       <use xlink:href="#DejaVuSans-35" x="159.033203"/>
      </g>
     </g>
    </g>
    <g id="text_18">
     <!-- $C_D$ [-] -->
     <g transform="translate(39.545375 216.632) rotate(-90) scale(0.2 -0.2)">
      <defs>
       <path id="DejaVuSans-Oblique-44" d="M 1081 4666 
L 2438 4666 
Q 3519 4666 4070 4208 
Q 4622 3750 4622 2847 
Q 4622 2250 4412 1698 
Q 4203 1147 3834 769 
Q 3463 381 2891 190 
Q 2319 0 1538 0 
L 172 0 
L 1081 4666 
z
M 1613 4147 
L 909 519 
L 1734 519 
Q 2794 519 3375 1128 
Q 3956 1738 3956 2847 
Q 3956 3519 3581 3833 
Q 3206 4147 2406 4147 
L 1613 4147 
z
" transform="scale(0.015625)"/>
      </defs>
      <use xlink:href="#DejaVuSans-Oblique-43" transform="translate(0 0.015625)"/>
      <use xlink:href="#DejaVuSans-Oblique-44" transform="translate(69.824219 -16.390625) scale(0.7)"/>
      <use xlink:href="#DejaVuSans-20" transform="translate(126.459961 0.015625)"/>
      <use xlink:href="#DejaVuSans-5b" transform="translate(158.24707 0.015625)"/>
      <use xlink:href="#DejaVuSans-2d" transform="translate(197.260742 0.015625)"/>
      <use xlink:href="#DejaVuSans-5d" transform="translate(233.344727 0.015625)"/>
     </g>
    </g>
   </g>
   <g id="line2d_33">
    <path d="M 99.236 312.443778 
L 103.673162 315.646396 
L 108.110323 318.591001 
L 112.547485 321.291121 
L 116.984646 323.759916 
L 121.421808 326.01017 
L 125.85897 328.054298 
L 130.296131 329.904342 
L 134.733293 331.571972 
L 139.170455 333.068486 
L 143.607616 334.404811 
L 148.044778 335.5915 
L 152.481939 336.638736 
L 156.919101 337.556329 
L 161.356263 338.353719 
L 165.793424 339.039971 
L 170.230586 339.62378 
L 174.667747 340.113468 
L 179.104909 340.516987 
L 183.542071 340.841915 
L 187.979232 341.095459 
L 192.416394 341.284454 
L 196.853556 341.415363 
L 201.290717 341.494277 
L 205.727879 341.526915 
L 210.16504 341.518624 
L 214.602202 341.47438 
L 219.039364 341.398785 
L 223.476525 341.296071 
L 227.913687 341.170097 
L 232.350848 341.024351 
L 236.78801 340.861949 
L 241.225172 340.685633 
L 245.662333 340.497776 
L 250.099495 340.300378 
L 254.536657 340.095065 
L 258.973818 339.883094 
L 263.41098 339.665349 
L 267.848141 339.442342 
L 272.285303 339.214212 
L 276.722465 338.980728 
L 281.159626 338.741286 
L 285.596788 338.49491 
L 290.033949 338.240253 
L 294.471111 337.975594 
L 298.908273 337.698842 
L 303.345434 337.407534 
L 307.782596 337.098833 
L 312.219758 336.769534 
L 316.656919 336.416055 
L 321.094081 336.034446 
L 325.531242 335.620384 
L 329.968404 335.169174 
L 334.405566 334.675747 
L 338.842727 334.134666 
L 343.279889 333.540119 
L 347.717051 332.885924 
L 352.154212 332.165525 
L 356.591374 331.371995 
L 361.028535 330.498036 
L 365.465697 329.535978 
L 369.902859 328.477777 
L 374.34002 327.315019 
L 378.777182 326.038917 
L 383.214343 324.640313 
L 387.651505 323.109677 
L 392.088667 321.437106 
L 396.525828 319.612326 
L 400.96299 317.62469 
L 405.400152 315.463182 
L 409.837313 313.11641 
L 414.274475 310.572612 
L 418.711636 307.819655 
L 423.148798 304.845032 
L 427.58596 301.635867 
L 432.023121 298.178908 
L 436.460283 294.460535 
L 440.897444 290.466754 
L 445.334606 286.183198 
L 449.771768 281.595131 
L 454.208929 276.687443 
L 458.646091 271.444653 
L 463.083253 265.850907 
L 467.520414 259.889981 
L 471.957576 253.545276 
L 476.394737 246.799824 
L 480.831899 239.636283 
L 485.269061 232.036941 
L 489.706222 223.983712 
L 494.143384 215.45814 
L 498.580545 206.441396 
L 503.017707 196.914279 
L 507.454869 186.857216 
L 511.89203 176.250263 
L 516.329192 165.073103 
L 520.766354 153.305047 
L 525.203515 140.925035 
L 529.640677 127.911635 
L 534.077838 114.243042 
L 538.515 99.89708 
" clip-path="url(#p69d376617f)" style="fill: none; stroke-dasharray: 9.6,2.4,1.5,2.4; stroke-dashoffset: 0; stroke: #00a6b6; stroke-width: 1.5"/>
   </g>
   <g id="line2d_34">
    <path d="M 99.236 272.633869 
L 103.673162 277.026969 
L 108.110323 281.039903 
L 112.547485 284.692789 
L 116.984646 288.005221 
L 121.421808 290.996264 
L 125.85897 293.684458 
L 130.296131 296.087814 
L 134.733293 298.22382 
L 139.170455 300.109435 
L 143.607616 301.761092 
L 148.044778 303.194697 
L 152.481939 304.42563 
L 156.919101 305.468745 
L 161.356263 306.338369 
L 165.793424 307.048301 
L 170.230586 307.611816 
L 174.667747 308.04166 
L 179.104909 308.350055 
L 183.542071 308.548695 
L 187.979232 308.648746 
L 192.416394 308.660849 
L 196.853556 308.59512 
L 201.290717 308.461146 
L 205.727879 308.267989 
L 210.16504 308.024182 
L 214.602202 307.737734 
L 219.039364 307.416127 
L 223.476525 307.066316 
L 227.913687 306.694729 
L 232.350848 306.307268 
L 236.78801 305.909309 
L 241.225172 305.505701 
L 245.662333 305.100765 
L 250.099495 304.698298 
L 254.536657 304.301568 
L 258.973818 303.913318 
L 263.41098 303.535765 
L 267.848141 303.170598 
L 272.285303 302.818979 
L 276.722465 302.481546 
L 281.159626 302.158407 
L 285.596788 301.849147 
L 290.033949 301.552822 
L 294.471111 301.267962 
L 298.908273 300.992571 
L 303.345434 300.724125 
L 307.782596 300.459576 
L 312.219758 300.195347 
L 316.656919 299.927336 
L 321.094081 299.650914 
L 325.531242 299.360924 
L 329.968404 299.051685 
L 334.405566 298.716988 
L 338.842727 298.350097 
L 343.279889 297.94375 
L 347.717051 297.49016 
L 352.154212 296.98101 
L 356.591374 296.40746 
L 361.028535 295.760141 
L 365.465697 295.029158 
L 369.902859 294.20409 
L 374.34002 293.27399 
L 378.777182 292.227383 
L 383.214343 291.052268 
L 387.651505 289.736117 
L 392.088667 288.265877 
L 396.525828 286.627967 
L 400.96299 284.808279 
L 405.400152 282.792181 
L 409.837313 280.564512 
L 414.274475 278.109585 
L 418.711636 275.411186 
L 423.148798 272.452576 
L 427.58596 269.216488 
L 432.023121 265.68513 
L 436.460283 261.840181 
L 440.897444 257.662796 
L 445.334606 253.133601 
L 449.771768 248.232698 
L 454.208929 242.939661 
L 458.646091 237.233537 
L 463.083253 231.092847 
L 467.520414 224.495587 
L 471.957576 217.419223 
L 476.394737 209.840698 
L 480.831899 201.736426 
L 485.269061 193.082295 
L 489.706222 183.853668 
L 494.143384 174.025379 
L 498.580545 163.571738 
L 503.017707 152.466525 
L 507.454869 140.682997 
L 511.89203 128.193883 
L 516.329192 114.971386 
L 520.766354 100.98718 
L 525.203515 86.212415 
L 529.640677 70.617714 
L 534.077838 54.173174 
L 538.515 36.848364 
" clip-path="url(#p69d376617f)" style="fill: none; stroke-dasharray: 9.6,2.4,1.5,2.4; stroke-dashoffset: 0; stroke: #a50034; stroke-width: 1.5"/>
   </g>
   <g id="patch_3">
    <path d="M 99.236 357.064 
L 99.236 21.6 
" style="fill: none; stroke: #000000; stroke-width: 0.8; stroke-linejoin: miter; stroke-linecap: square"/>
   </g>
   <g id="patch_4">
    <path d="M 538.515 357.064 
L 538.515 21.6 
" style="fill: none; stroke: #000000; stroke-width: 0.8; stroke-linejoin: miter; stroke-linecap: square"/>
   </g>
   <g id="patch_5">
    <path d="M 99.236 357.064 
L 538.515 357.064 
" style="fill: none; stroke: #000000; stroke-width: 0.8; stroke-linejoin: miter; stroke-linecap: square"/>
   </g>
   <g id="patch_6">
    <path d="M 99.236 21.6 
L 538.515 21.6 
" style="fill: none; stroke: #000000; stroke-width: 0.8; stroke-linejoin: miter; stroke-linecap: square"/>
   </g>
   <g id="legend_1">
    <g id="patch_7">
     <path d="M 113.236 96.3125 
L 387.80475 96.3125 
Q 391.80475 96.3125 391.80475 92.3125 
L 391.80475 35.6 
Q 391.80475 31.6 387.80475 31.6 
L 113.236 31.6 
Q 109.236 31.6 109.236 35.6 
L 109.236 92.3125 
Q 109.236 96.3125 113.236 96.3125 
z
" style="fill: #ffffff; opacity: 0.8; stroke: #cccccc; stroke-linejoin: miter"/>
    </g>
    <g id="line2d_35">
     <path d="M 117.236 47.796875 
L 137.236 47.796875 
L 157.236 47.796875 
" style="fill: none; stroke-dasharray: 9.6,2.4,1.5,2.4; stroke-dashoffset: 0; stroke: #00a6b6; stroke-width: 1.5"/>
    </g>
    <g id="text_19">
     <!-- V = 40.0 m/s, J = 1.6 -->
     <g transform="translate(173.236 54.796875) scale(0.2 -0.2)">
      <defs>
       <path id="DejaVuSans-56" d="M 1831 0 
L 50 4666 
L 709 4666 
L 2188 738 
L 3669 4666 
L 4325 4666 
L 2547 0 
L 1831 0 
z
" transform="scale(0.015625)"/>
       <path id="DejaVuSans-3d" d="M 678 2906 
L 4684 2906 
L 4684 2381 
L 678 2381 
L 678 2906 
z
M 678 1631 
L 4684 1631 
L 4684 1100 
L 678 1100 
L 678 1631 
z
" transform="scale(0.015625)"/>
       <path id="DejaVuSans-34" d="M 2419 4116 
L 825 1625 
L 2419 1625 
L 2419 4116 
z
M 2253 4666 
L 3047 4666 
L 3047 1625 
L 3713 1625 
L 3713 1100 
L 3047 1100 
L 3047 0 
L 2419 0 
L 2419 1100 
L 313 1100 
L 313 1709 
L 2253 4666 
z
" transform="scale(0.015625)"/>
       <path id="DejaVuSans-6d" d="M 3328 2828 
Q 3544 3216 3844 3400 
Q 4144 3584 4550 3584 
Q 5097 3584 5394 3201 
Q 5691 2819 5691 2113 
L 5691 0 
L 5113 0 
L 5113 2094 
Q 5113 2597 4934 2840 
Q 4756 3084 4391 3084 
Q 3944 3084 3684 2787 
Q 3425 2491 3425 1978 
L 3425 0 
L 2847 0 
L 2847 2094 
Q 2847 2600 2669 2842 
Q 2491 3084 2119 3084 
Q 1678 3084 1418 2786 
Q 1159 2488 1159 1978 
L 1159 0 
L 581 0 
L 581 3500 
L 1159 3500 
L 1159 2956 
Q 1356 3278 1631 3431 
Q 1906 3584 2284 3584 
Q 2666 3584 2933 3390 
Q 3200 3197 3328 2828 
z
" transform="scale(0.015625)"/>
       <path id="DejaVuSans-2f" d="M 1625 4666 
L 2156 4666 
L 531 -594 
L 0 -594 
L 1625 4666 
z
" transform="scale(0.015625)"/>
       <path id="DejaVuSans-73" d="M 2834 3397 
L 2834 2853 
Q 2591 2978 2328 3040 
Q 2066 3103 1784 3103 
Q 1356 3103 1142 2972 
Q 928 2841 928 2578 
Q 928 2378 1081 2264 
Q 1234 2150 1697 2047 
L 1894 2003 
Q 2506 1872 2764 1633 
Q 3022 1394 3022 966 
Q 3022 478 2636 193 
Q 2250 -91 1575 -91 
Q 1294 -91 989 -36 
Q 684 19 347 128 
L 347 722 
Q 666 556 975 473 
Q 1284 391 1588 391 
Q 1994 391 2212 530 
Q 2431 669 2431 922 
Q 2431 1156 2273 1281 
Q 2116 1406 1581 1522 
L 1381 1569 
Q 847 1681 609 1914 
Q 372 2147 372 2553 
Q 372 3047 722 3315 
Q 1072 3584 1716 3584 
Q 2034 3584 2315 3537 
Q 2597 3491 2834 3397 
z
" transform="scale(0.015625)"/>
       <path id="DejaVuSans-2c" d="M 750 794 
L 1409 794 
L 1409 256 
L 897 -744 
L 494 -744 
L 750 256 
L 750 794 
z
" transform="scale(0.015625)"/>
       <path id="DejaVuSans-4a" d="M 628 4666 
L 1259 4666 
L 1259 325 
Q 1259 -519 939 -900 
Q 619 -1281 -91 -1281 
L -331 -1281 
L -331 -750 
L -134 -750 
Q 284 -750 456 -515 
Q 628 -281 628 325 
L 628 4666 
z
" transform="scale(0.015625)"/>
       <path id="DejaVuSans-36" d="M 2113 2584 
Q 1688 2584 1439 2293 
Q 1191 2003 1191 1497 
Q 1191 994 1439 701 
Q 1688 409 2113 409 
Q 2538 409 2786 701 
Q 3034 994 3034 1497 
Q 3034 2003 2786 2293 
Q 2538 2584 2113 2584 
z
M 3366 4563 
L 3366 3988 
Q 3128 4100 2886 4159 
Q 2644 4219 2406 4219 
Q 1781 4219 1451 3797 
Q 1122 3375 1075 2522 
Q 1259 2794 1537 2939 
Q 1816 3084 2150 3084 
Q 2853 3084 3261 2657 
Q 3669 2231 3669 1497 
Q 3669 778 3244 343 
Q 2819 -91 2113 -91 
Q 1303 -91 875 529 
Q 447 1150 447 2328 
Q 447 3434 972 4092 
Q 1497 4750 2381 4750 
Q 2619 4750 2861 4703 
Q 3103 4656 3366 4563 
z
" transform="scale(0.015625)"/>
      </defs>
      <use xlink:href="#DejaVuSans-56"/>
      <use xlink:href="#DejaVuSans-20" x="68.408203"/>
      <use xlink:href="#DejaVuSans-3d" x="100.195312"/>
      <use xlink:href="#DejaVuSans-20" x="183.984375"/>
      <use xlink:href="#DejaVuSans-34" x="215.771484"/>
      <use xlink:href="#DejaVuSans-30" x="279.394531"/>
      <use xlink:href="#DejaVuSans-2e" x="343.017578"/>
      <use xlink:href="#DejaVuSans-30" x="374.804688"/>
      <use xlink:href="#DejaVuSans-20" x="438.427734"/>
      <use xlink:href="#DejaVuSans-6d" x="470.214844"/>
      <use xlink:href="#DejaVuSans-2f" x="567.626953"/>
      <use xlink:href="#DejaVuSans-73" x="601.318359"/>
      <use xlink:href="#DejaVuSans-2c" x="653.417969"/>
      <use xlink:href="#DejaVuSans-20" x="685.205078"/>
      <use xlink:href="#DejaVuSans-4a" x="716.992188"/>
      <use xlink:href="#DejaVuSans-20" x="746.484375"/>
      <use xlink:href="#DejaVuSans-3d" x="778.271484"/>
      <use xlink:href="#DejaVuSans-20" x="862.060547"/>
      <use xlink:href="#DejaVuSans-31" x="893.847656"/>
      <use xlink:href="#DejaVuSans-2e" x="957.470703"/>
      <use xlink:href="#DejaVuSans-36" x="989.257812"/>
     </g>
    </g>
    <g id="line2d_36">
     <path d="M 117.236 77.153125 
L 137.236 77.153125 
L 157.236 77.153125 
" style="fill: none; stroke-dasharray: 9.6,2.4,1.5,2.4; stroke-dashoffset: 0; stroke: #a50034; stroke-width: 1.5"/>
    </g>
    <g id="text_20">
     <!-- V = 20.0 m/s, J = 1.6 -->
     <g transform="translate(173.236 84.153125) scale(0.2 -0.2)">
      <use xlink:href="#DejaVuSans-56"/>
      <use xlink:href="#DejaVuSans-20" x="68.408203"/>
      <use xlink:href="#DejaVuSans-3d" x="100.195312"/>
      <use xlink:href="#DejaVuSans-20" x="183.984375"/>
      <use xlink:href="#DejaVuSans-32" x="215.771484"/>
      <use xlink:href="#DejaVuSans-30" x="279.394531"/>
      <use xlink:href="#DejaVuSans-2e" x="343.017578"/>
      <use xlink:href="#DejaVuSans-30" x="374.804688"/>
      <use xlink:href="#DejaVuSans-20" x="438.427734"/>
      <use xlink:href="#DejaVuSans-6d" x="470.214844"/>
      <use xlink:href="#DejaVuSans-2f" x="567.626953"/>
      <use xlink:href="#DejaVuSans-73" x="601.318359"/>
      <use xlink:href="#DejaVuSans-2c" x="653.417969"/>
      <use xlink:href="#DejaVuSans-20" x="685.205078"/>
      <use xlink:href="#DejaVuSans-4a" x="716.992188"/>
      <use xlink:href="#DejaVuSans-20" x="746.484375"/>
      <use xlink:href="#DejaVuSans-3d" x="778.271484"/>
      <use xlink:href="#DejaVuSans-20" x="862.060547"/>
      <use xlink:href="#DejaVuSans-31" x="893.847656"/>
      <use xlink:href="#DejaVuSans-2e" x="957.470703"/>
      <use xlink:href="#DejaVuSans-36" x="989.257812"/>
     </g>
    </g>
   </g>
  </g>
 </g>
 <defs>
  <clipPath id="p69d376617f">
   <rect x="99.236" y="21.6" width="439.279" height="335.464"/>
  </clipPath>
 </defs>
</svg>
