<?xml version="1.0" encoding="utf-8" standalone="no"?>
<!DOCTYPE svg PUBLIC "-//W3C//DTD SVG 1.1//EN"
  "http://www.w3.org/Graphics/SVG/1.1/DTD/svg11.dtd">
<svg xmlns:xlink="http://www.w3.org/1999/xlink" width="576pt" height="432pt" viewBox="0 0 576 432" xmlns="http://www.w3.org/2000/svg" version="1.1">
 <metadata>
  <rdf:RDF xmlns:dc="http://purl.org/dc/elements/1.1/" xmlns:cc="http://creativecommons.org/ns#" xmlns:rdf="http://www.w3.org/1999/02/22-rdf-syntax-ns#">
   <cc:Work>
    <dc:type rdf:resource="http://purl.org/dc/dcmitype/StillImage"/>
    <dc:date>2024-04-03T10:33:53.688201</dc:date>
    <dc:format>image/svg+xml</dc:format>
    <dc:creator>
     <cc:Agent>
      <dc:title>Matplotlib v3.8.3, https://matplotlib.org/</dc:title>
     </cc:Agent>
    </dc:creator>
   </cc:Work>
  </rdf:RDF>
 </metadata>
 <defs>
  <style type="text/css">*{stroke-linejoin: round; stroke-linecap: butt}</style>
 </defs>
 <g id="figure_1">
  <g id="patch_1">
   <path d="M 0 432 
L 576 432 
L 576 0 
L 0 0 
z
" style="fill: #ffffff"/>
  </g>
  <g id="axes_1">
   <g id="patch_2">
    <path d="M 96.986 356.2 
L 532.125 356.2 
L 532.125 21.6 
L 96.986 21.6 
z
" style="fill: #ffffff"/>
   </g>
   <g id="PathCollection_1">
    <defs>
     <path id="m2b3b72e0ad" d="M 0 3 
C 0.795609 3 1.55874 2.683901 2.12132 2.12132 
C 2.683901 1.55874 3 0.795609 3 0 
C 3 -0.795609 2.683901 -1.55874 2.12132 -2.12132 
C 1.55874 -2.683901 0.795609 -3 0 -3 
C -0.795609 -3 -1.55874 -2.683901 -2.12132 -2.12132 
C -2.683901 -1.55874 -3 -0.795609 -3 0 
C -3 0.795609 -2.683901 1.55874 -2.12132 2.12132 
C -1.55874 2.683901 -0.795609 3 0 3 
z
" style="stroke: #00a6b6"/>
    </defs>
    <g clip-path="url(#pf381b9fc54)">
     <use xlink:href="#m2b3b72e0ad" x="117.691837" y="337.181059" style="fill: #00a6b6; stroke: #00a6b6"/>
     <use xlink:href="#m2b3b72e0ad" x="138.420571" y="307.636961" style="fill: #00a6b6; stroke: #00a6b6"/>
     <use xlink:href="#m2b3b72e0ad" x="159.149579" y="270.629472" style="fill: #00a6b6; stroke: #00a6b6"/>
     <use xlink:href="#m2b3b72e0ad" x="179.878607" y="227.83142" style="fill: #00a6b6; stroke: #00a6b6"/>
     <use xlink:href="#m2b3b72e0ad" x="200.607589" y="181.290445" style="fill: #00a6b6; stroke: #00a6b6"/>
     <use xlink:href="#m2b3b72e0ad" x="221.336538" y="135.138554" style="fill: #00a6b6; stroke: #00a6b6"/>
     <use xlink:href="#m2b3b72e0ad" x="242.065309" y="95.791481" style="fill: #00a6b6; stroke: #00a6b6"/>
     <use xlink:href="#m2b3b72e0ad" x="262.793959" y="65.410595" style="fill: #00a6b6; stroke: #00a6b6"/>
     <use xlink:href="#m2b3b72e0ad" x="283.52238" y="46.054387" style="fill: #00a6b6; stroke: #00a6b6"/>
     <use xlink:href="#m2b3b72e0ad" x="304.250561" y="38.461799" style="fill: #00a6b6; stroke: #00a6b6"/>
     <use xlink:href="#m2b3b72e0ad" x="324.978481" y="38.813535" style="fill: #00a6b6; stroke: #00a6b6"/>
     <use xlink:href="#m2b3b72e0ad" x="345.706072" y="45.308557" style="fill: #00a6b6; stroke: #00a6b6"/>
     <use xlink:href="#m2b3b72e0ad" x="366.433098" y="57.293436" style="fill: #00a6b6; stroke: #00a6b6"/>
     <use xlink:href="#m2b3b72e0ad" x="387.159121" y="71.930106" style="fill: #00a6b6; stroke: #00a6b6"/>
     <use xlink:href="#m2b3b72e0ad" x="407.881957" y="85.535847" style="fill: #00a6b6; stroke: #00a6b6"/>
     <use xlink:href="#m2b3b72e0ad" x="428.60416" y="100.054481" style="fill: #00a6b6; stroke: #00a6b6"/>
     <use xlink:href="#m2b3b72e0ad" x="449.328328" y="113.560236" style="fill: #00a6b6; stroke: #00a6b6"/>
     <use xlink:href="#m2b3b72e0ad" x="470.05306" y="124.616606" style="fill: #00a6b6; stroke: #00a6b6"/>
     <use xlink:href="#m2b3b72e0ad" x="490.777979" y="136.538519" style="fill: #00a6b6; stroke: #00a6b6"/>
     <use xlink:href="#m2b3b72e0ad" x="511.502163" y="144.266902" style="fill: #00a6b6; stroke: #00a6b6"/>
    </g>
   </g>
   <g id="PathCollection_2">
    <defs>
     <path id="mfb80a1a29c" d="M 0 3 
C 0.795609 3 1.55874 2.683901 2.12132 2.12132 
C 2.683901 1.55874 3 0.795609 3 0 
C 3 -0.795609 2.683901 -1.55874 2.12132 -2.12132 
C 1.55874 -2.683901 0.795609 -3 0 -3 
C -0.795609 -3 -1.55874 -2.683901 -2.12132 -2.12132 
C -2.683901 -1.55874 -3 -0.795609 -3 0 
C -3 0.795609 -2.683901 1.55874 -2.12132 2.12132 
C -1.55874 2.683901 -0.795609 3 0 3 
z
" style="stroke: #a50034"/>
    </defs>
    <g clip-path="url(#pf381b9fc54)">
     <use xlink:href="#mfb80a1a29c" x="117.694266" y="288.641456" style="fill: #a50034; stroke: #a50034"/>
     <use xlink:href="#mfb80a1a29c" x="138.422599" y="269.562578" style="fill: #a50034; stroke: #a50034"/>
     <use xlink:href="#mfb80a1a29c" x="159.151159" y="248.952647" style="fill: #a50034; stroke: #a50034"/>
     <use xlink:href="#mfb80a1a29c" x="179.879644" y="228.133232" style="fill: #a50034; stroke: #a50034"/>
     <use xlink:href="#mfb80a1a29c" x="200.608281" y="206.368972" style="fill: #a50034; stroke: #a50034"/>
     <use xlink:href="#mfb80a1a29c" x="221.337027" y="185.789353" style="fill: #a50034; stroke: #a50034"/>
     <use xlink:href="#mfb80a1a29c" x="242.065444" y="165.946906" style="fill: #a50034; stroke: #a50034"/>
     <use xlink:href="#mfb80a1a29c" x="262.794089" y="148.487922" style="fill: #a50034; stroke: #a50034"/>
     <use xlink:href="#mfb80a1a29c" x="283.522532" y="133.973404" style="fill: #a50034; stroke: #a50034"/>
     <use xlink:href="#mfb80a1a29c" x="304.250882" y="122.988474" style="fill: #a50034; stroke: #a50034"/>
     <use xlink:href="#mfb80a1a29c" x="324.979139" y="115.301371" style="fill: #a50034; stroke: #a50034"/>
     <use xlink:href="#mfb80a1a29c" x="345.706941" y="112.283669" style="fill: #a50034; stroke: #a50034"/>
     <use xlink:href="#mfb80a1a29c" x="366.434329" y="112.488416" style="fill: #a50034; stroke: #a50034"/>
     <use xlink:href="#mfb80a1a29c" x="387.16036" y="116.597131" style="fill: #a50034; stroke: #a50034"/>
     <use xlink:href="#mfb80a1a29c" x="407.884781" y="121.496875" style="fill: #a50034; stroke: #a50034"/>
     <use xlink:href="#mfb80a1a29c" x="428.608207" y="127.861664" style="fill: #a50034; stroke: #a50034"/>
     <use xlink:href="#mfb80a1a29c" x="449.330242" y="136.592893" style="fill: #a50034; stroke: #a50034"/>
     <use xlink:href="#mfb80a1a29c" x="470.05457" y="143.852902" style="fill: #a50034; stroke: #a50034"/>
     <use xlink:href="#mfb80a1a29c" x="490.776587" y="152.119194" style="fill: #a50034; stroke: #a50034"/>
     <use xlink:href="#mfb80a1a29c" x="511.501455" y="157.814633" style="fill: #a50034; stroke: #a50034"/>
    </g>
   </g>
   <g id="matplotlib.axis_1">
    <g id="xtick_1">
     <g id="line2d_1">
      <path d="M 96.986 356.2 
L 96.986 21.6 
" clip-path="url(#pf381b9fc54)" style="fill: none; stroke: #b0b0b0; stroke-width: 0.8; stroke-linecap: square"/>
     </g>
     <g id="line2d_2">
      <defs>
       <path id="m29c84cacff" d="M 0 0 
L 0 3.5 
" style="stroke: #000000; stroke-width: 0.8"/>
      </defs>
      <g>
       <use xlink:href="#m29c84cacff" x="96.986" y="356.2" style="stroke: #000000; stroke-width: 0.8"/>
      </g>
     </g>
     <g id="text_1">
      <!-- −6.0 -->
      <g transform="translate(72.703188 378.396875) scale(0.2 -0.2)">
       <defs>
        <path id="DejaVuSans-2212" d="M 678 2272 
L 4684 2272 
L 4684 1741 
L 678 1741 
L 678 2272 
z
" transform="scale(0.015625)"/>
        <path id="DejaVuSans-36" d="M 2113 2584 
Q 1688 2584 1439 2293 
Q 1191 2003 1191 1497 
Q 1191 994 1439 701 
Q 1688 409 2113 409 
Q 2538 409 2786 701 
Q 3034 994 3034 1497 
Q 3034 2003 2786 2293 
Q 2538 2584 2113 2584 
z
M 3366 4563 
L 3366 3988 
Q 3128 4100 2886 4159 
Q 2644 4219 2406 4219 
Q 1781 4219 1451 3797 
Q 1122 3375 1075 2522 
Q 1259 2794 1537 2939 
Q 1816 3084 2150 3084 
Q 2853 3084 3261 2657 
Q 3669 2231 3669 1497 
Q 3669 778 3244 343 
Q 2819 -91 2113 -91 
Q 1303 -91 875 529 
Q 447 1150 447 2328 
Q 447 3434 972 4092 
Q 1497 4750 2381 4750 
Q 2619 4750 2861 4703 
Q 3103 4656 3366 4563 
z
" transform="scale(0.015625)"/>
        <path id="DejaVuSans-2e" d="M 684 794 
L 1344 794 
L 1344 0 
L 684 0 
L 684 794 
z
" transform="scale(0.015625)"/>
        <path id="DejaVuSans-30" d="M 2034 4250 
Q 1547 4250 1301 3770 
Q 1056 3291 1056 2328 
Q 1056 1369 1301 889 
Q 1547 409 2034 409 
Q 2525 409 2770 889 
Q 3016 1369 3016 2328 
Q 3016 3291 2770 3770 
Q 2525 4250 2034 4250 
z
M 2034 4750 
Q 2819 4750 3233 4129 
Q 3647 3509 3647 2328 
Q 3647 1150 3233 529 
Q 2819 -91 2034 -91 
Q 1250 -91 836 529 
Q 422 1150 422 2328 
Q 422 3509 836 4129 
Q 1250 4750 2034 4750 
z
" transform="scale(0.015625)"/>
       </defs>
       <use xlink:href="#DejaVuSans-2212"/>
       <use xlink:href="#DejaVuSans-36" x="83.789062"/>
       <use xlink:href="#DejaVuSans-2e" x="147.412109"/>
       <use xlink:href="#DejaVuSans-30" x="179.199219"/>
      </g>
     </g>
    </g>
    <g id="xtick_2">
     <g id="line2d_3">
      <path d="M 169.509167 356.2 
L 169.509167 21.6 
" clip-path="url(#pf381b9fc54)" style="fill: none; stroke: #b0b0b0; stroke-width: 0.8; stroke-linecap: square"/>
     </g>
     <g id="line2d_4">
      <g>
       <use xlink:href="#m29c84cacff" x="169.509167" y="356.2" style="stroke: #000000; stroke-width: 0.8"/>
      </g>
     </g>
     <g id="text_2">
      <!-- −2.5 -->
      <g transform="translate(145.226354 378.396875) scale(0.2 -0.2)">
       <defs>
        <path id="DejaVuSans-32" d="M 1228 531 
L 3431 531 
L 3431 0 
L 469 0 
L 469 531 
Q 828 903 1448 1529 
Q 2069 2156 2228 2338 
Q 2531 2678 2651 2914 
Q 2772 3150 2772 3378 
Q 2772 3750 2511 3984 
Q 2250 4219 1831 4219 
Q 1534 4219 1204 4116 
Q 875 4013 500 3803 
L 500 4441 
Q 881 4594 1212 4672 
Q 1544 4750 1819 4750 
Q 2544 4750 2975 4387 
Q 3406 4025 3406 3419 
Q 3406 3131 3298 2873 
Q 3191 2616 2906 2266 
Q 2828 2175 2409 1742 
Q 1991 1309 1228 531 
z
" transform="scale(0.015625)"/>
        <path id="DejaVuSans-35" d="M 691 4666 
L 3169 4666 
L 3169 4134 
L 1269 4134 
L 1269 2991 
Q 1406 3038 1543 3061 
Q 1681 3084 1819 3084 
Q 2600 3084 3056 2656 
Q 3513 2228 3513 1497 
Q 3513 744 3044 326 
Q 2575 -91 1722 -91 
Q 1428 -91 1123 -41 
Q 819 9 494 109 
L 494 744 
Q 775 591 1075 516 
Q 1375 441 1709 441 
Q 2250 441 2565 725 
Q 2881 1009 2881 1497 
Q 2881 1984 2565 2268 
Q 2250 2553 1709 2553 
Q 1456 2553 1204 2497 
Q 953 2441 691 2322 
L 691 4666 
z
" transform="scale(0.015625)"/>
       </defs>
       <use xlink:href="#DejaVuSans-2212"/>
       <use xlink:href="#DejaVuSans-32" x="83.789062"/>
       <use xlink:href="#DejaVuSans-2e" x="147.412109"/>
       <use xlink:href="#DejaVuSans-35" x="179.199219"/>
      </g>
     </g>
    </g>
    <g id="xtick_3">
     <g id="line2d_5">
      <path d="M 242.032333 356.2 
L 242.032333 21.6 
" clip-path="url(#pf381b9fc54)" style="fill: none; stroke: #b0b0b0; stroke-width: 0.8; stroke-linecap: square"/>
     </g>
     <g id="line2d_6">
      <g>
       <use xlink:href="#m29c84cacff" x="242.032333" y="356.2" style="stroke: #000000; stroke-width: 0.8"/>
      </g>
     </g>
     <g id="text_3">
      <!-- 1.0 -->
      <g transform="translate(226.129208 378.396875) scale(0.2 -0.2)">
       <defs>
        <path id="DejaVuSans-31" d="M 794 531 
L 1825 531 
L 1825 4091 
L 703 3866 
L 703 4441 
L 1819 4666 
L 2450 4666 
L 2450 531 
L 3481 531 
L 3481 0 
L 794 0 
L 794 531 
z
" transform="scale(0.015625)"/>
       </defs>
       <use xlink:href="#DejaVuSans-31"/>
       <use xlink:href="#DejaVuSans-2e" x="63.623047"/>
       <use xlink:href="#DejaVuSans-30" x="95.410156"/>
      </g>
     </g>
    </g>
    <g id="xtick_4">
     <g id="line2d_7">
      <path d="M 314.5555 356.2 
L 314.5555 21.6 
" clip-path="url(#pf381b9fc54)" style="fill: none; stroke: #b0b0b0; stroke-width: 0.8; stroke-linecap: square"/>
     </g>
     <g id="line2d_8">
      <g>
       <use xlink:href="#m29c84cacff" x="314.5555" y="356.2" style="stroke: #000000; stroke-width: 0.8"/>
      </g>
     </g>
     <g id="text_4">
      <!-- 4.5 -->
      <g transform="translate(298.652375 378.396875) scale(0.2 -0.2)">
       <defs>
        <path id="DejaVuSans-34" d="M 2419 4116 
L 825 1625 
L 2419 1625 
L 2419 4116 
z
M 2253 4666 
L 3047 4666 
L 3047 1625 
L 3713 1625 
L 3713 1100 
L 3047 1100 
L 3047 0 
L 2419 0 
L 2419 1100 
L 313 1100 
L 313 1709 
L 2253 4666 
z
" transform="scale(0.015625)"/>
       </defs>
       <use xlink:href="#DejaVuSans-34"/>
       <use xlink:href="#DejaVuSans-2e" x="63.623047"/>
       <use xlink:href="#DejaVuSans-35" x="95.410156"/>
      </g>
     </g>
    </g>
    <g id="xtick_5">
     <g id="line2d_9">
      <path d="M 387.078667 356.2 
L 387.078667 21.6 
" clip-path="url(#pf381b9fc54)" style="fill: none; stroke: #b0b0b0; stroke-width: 0.8; stroke-linecap: square"/>
     </g>
     <g id="line2d_10">
      <g>
       <use xlink:href="#m29c84cacff" x="387.078667" y="356.2" style="stroke: #000000; stroke-width: 0.8"/>
      </g>
     </g>
     <g id="text_5">
      <!-- 8.0 -->
      <g transform="translate(371.175542 378.396875) scale(0.2 -0.2)">
       <defs>
        <path id="DejaVuSans-38" d="M 2034 2216 
Q 1584 2216 1326 1975 
Q 1069 1734 1069 1313 
Q 1069 891 1326 650 
Q 1584 409 2034 409 
Q 2484 409 2743 651 
Q 3003 894 3003 1313 
Q 3003 1734 2745 1975 
Q 2488 2216 2034 2216 
z
M 1403 2484 
Q 997 2584 770 2862 
Q 544 3141 544 3541 
Q 544 4100 942 4425 
Q 1341 4750 2034 4750 
Q 2731 4750 3128 4425 
Q 3525 4100 3525 3541 
Q 3525 3141 3298 2862 
Q 3072 2584 2669 2484 
Q 3125 2378 3379 2068 
Q 3634 1759 3634 1313 
Q 3634 634 3220 271 
Q 2806 -91 2034 -91 
Q 1263 -91 848 271 
Q 434 634 434 1313 
Q 434 1759 690 2068 
Q 947 2378 1403 2484 
z
M 1172 3481 
Q 1172 3119 1398 2916 
Q 1625 2713 2034 2713 
Q 2441 2713 2670 2916 
Q 2900 3119 2900 3481 
Q 2900 3844 2670 4047 
Q 2441 4250 2034 4250 
Q 1625 4250 1398 4047 
Q 1172 3844 1172 3481 
z
" transform="scale(0.015625)"/>
       </defs>
       <use xlink:href="#DejaVuSans-38"/>
       <use xlink:href="#DejaVuSans-2e" x="63.623047"/>
       <use xlink:href="#DejaVuSans-30" x="95.410156"/>
      </g>
     </g>
    </g>
    <g id="xtick_6">
     <g id="line2d_11">
      <path d="M 459.601833 356.2 
L 459.601833 21.6 
" clip-path="url(#pf381b9fc54)" style="fill: none; stroke: #b0b0b0; stroke-width: 0.8; stroke-linecap: square"/>
     </g>
     <g id="line2d_12">
      <g>
       <use xlink:href="#m29c84cacff" x="459.601833" y="356.2" style="stroke: #000000; stroke-width: 0.8"/>
      </g>
     </g>
     <g id="text_6">
      <!-- 11.5 -->
      <g transform="translate(437.336208 378.396875) scale(0.2 -0.2)">
       <use xlink:href="#DejaVuSans-31"/>
       <use xlink:href="#DejaVuSans-31" x="63.623047"/>
       <use xlink:href="#DejaVuSans-2e" x="127.246094"/>
       <use xlink:href="#DejaVuSans-35" x="159.033203"/>
      </g>
     </g>
    </g>
    <g id="xtick_7">
     <g id="line2d_13">
      <path d="M 532.125 356.2 
L 532.125 21.6 
" clip-path="url(#pf381b9fc54)" style="fill: none; stroke: #b0b0b0; stroke-width: 0.8; stroke-linecap: square"/>
     </g>
     <g id="line2d_14">
      <g>
       <use xlink:href="#m29c84cacff" x="532.125" y="356.2" style="stroke: #000000; stroke-width: 0.8"/>
      </g>
     </g>
     <g id="text_7">
      <!-- 15.0 -->
      <g transform="translate(509.859375 378.396875) scale(0.2 -0.2)">
       <use xlink:href="#DejaVuSans-31"/>
       <use xlink:href="#DejaVuSans-35" x="63.623047"/>
       <use xlink:href="#DejaVuSans-2e" x="127.246094"/>
       <use xlink:href="#DejaVuSans-30" x="159.033203"/>
      </g>
     </g>
    </g>
    <g id="text_8">
     <!-- $\alpha$ [deg] -->
     <g transform="translate(278.0555 401.75625) scale(0.2 -0.2)">
      <defs>
       <path id="DejaVuSans-Oblique-3b1" d="M 2619 1628 
L 2622 2350 
Q 2625 3088 2069 3091 
Q 1653 3094 1394 2747 
Q 1069 2319 959 1747 
Q 825 1059 994 731 
Q 1169 397 1547 397 
Q 1966 397 2319 1063 
L 2619 1628 
z
M 2166 3578 
Q 3141 3594 3128 2584 
Q 3128 2584 3616 3500 
L 4128 3500 
L 3119 1603 
L 3109 919 
Q 3109 766 3194 638 
Q 3291 488 3391 488 
L 3669 488 
L 3575 0 
L 3228 0 
Q 2934 0 2722 263 
Q 2622 394 2619 669 
Q 2416 334 2066 50 
Q 1900 -81 1453 -78 
Q 722 -72 456 397 
Q 184 884 353 1747 
Q 534 2675 1009 3097 
Q 1544 3569 2166 3578 
z
" transform="scale(0.015625)"/>
       <path id="DejaVuSans-20" transform="scale(0.015625)"/>
       <path id="DejaVuSans-5b" d="M 550 4863 
L 1875 4863 
L 1875 4416 
L 1125 4416 
L 1125 -397 
L 1875 -397 
L 1875 -844 
L 550 -844 
L 550 4863 
z
" transform="scale(0.015625)"/>
       <path id="DejaVuSans-64" d="M 2906 2969 
L 2906 4863 
L 3481 4863 
L 3481 0 
L 2906 0 
L 2906 525 
Q 2725 213 2448 61 
Q 2172 -91 1784 -91 
Q 1150 -91 751 415 
Q 353 922 353 1747 
Q 353 2572 751 3078 
Q 1150 3584 1784 3584 
Q 2172 3584 2448 3432 
Q 2725 3281 2906 2969 
z
M 947 1747 
Q 947 1113 1208 752 
Q 1469 391 1925 391 
Q 2381 391 2643 752 
Q 2906 1113 2906 1747 
Q 2906 2381 2643 2742 
Q 2381 3103 1925 3103 
Q 1469 3103 1208 2742 
Q 947 2381 947 1747 
z
" transform="scale(0.015625)"/>
       <path id="DejaVuSans-65" d="M 3597 1894 
L 3597 1613 
L 953 1613 
Q 991 1019 1311 708 
Q 1631 397 2203 397 
Q 2534 397 2845 478 
Q 3156 559 3463 722 
L 3463 178 
Q 3153 47 2828 -22 
Q 2503 -91 2169 -91 
Q 1331 -91 842 396 
Q 353 884 353 1716 
Q 353 2575 817 3079 
Q 1281 3584 2069 3584 
Q 2775 3584 3186 3129 
Q 3597 2675 3597 1894 
z
M 3022 2063 
Q 3016 2534 2758 2815 
Q 2500 3097 2075 3097 
Q 1594 3097 1305 2825 
Q 1016 2553 972 2059 
L 3022 2063 
z
" transform="scale(0.015625)"/>
       <path id="DejaVuSans-67" d="M 2906 1791 
Q 2906 2416 2648 2759 
Q 2391 3103 1925 3103 
Q 1463 3103 1205 2759 
Q 947 2416 947 1791 
Q 947 1169 1205 825 
Q 1463 481 1925 481 
Q 2391 481 2648 825 
Q 2906 1169 2906 1791 
z
M 3481 434 
Q 3481 -459 3084 -895 
Q 2688 -1331 1869 -1331 
Q 1566 -1331 1297 -1286 
Q 1028 -1241 775 -1147 
L 775 -588 
Q 1028 -725 1275 -790 
Q 1522 -856 1778 -856 
Q 2344 -856 2625 -561 
Q 2906 -266 2906 331 
L 2906 616 
Q 2728 306 2450 153 
Q 2172 0 1784 0 
Q 1141 0 747 490 
Q 353 981 353 1791 
Q 353 2603 747 3093 
Q 1141 3584 1784 3584 
Q 2172 3584 2450 3431 
Q 2728 3278 2906 2969 
L 2906 3500 
L 3481 3500 
L 3481 434 
z
" transform="scale(0.015625)"/>
       <path id="DejaVuSans-5d" d="M 1947 4863 
L 1947 -844 
L 622 -844 
L 622 -397 
L 1369 -397 
L 1369 4416 
L 622 4416 
L 622 4863 
L 1947 4863 
z
" transform="scale(0.015625)"/>
      </defs>
      <use xlink:href="#DejaVuSans-Oblique-3b1" transform="translate(0 0.015625)"/>
      <use xlink:href="#DejaVuSans-20" transform="translate(65.917969 0.015625)"/>
      <use xlink:href="#DejaVuSans-5b" transform="translate(97.705078 0.015625)"/>
      <use xlink:href="#DejaVuSans-64" transform="translate(136.71875 0.015625)"/>
      <use xlink:href="#DejaVuSans-65" transform="translate(200.195312 0.015625)"/>
      <use xlink:href="#DejaVuSans-67" transform="translate(261.71875 0.015625)"/>
      <use xlink:href="#DejaVuSans-5d" transform="translate(325.195312 0.015625)"/>
     </g>
    </g>
   </g>
   <g id="matplotlib.axis_2">
    <g id="ytick_1">
     <g id="line2d_15">
      <path d="M 96.986 329.860854 
L 532.125 329.860854 
" clip-path="url(#pf381b9fc54)" style="fill: none; stroke: #b0b0b0; stroke-width: 0.8; stroke-linecap: square"/>
     </g>
     <g id="line2d_16">
      <defs>
       <path id="maf52176a21" d="M 0 0 
L -3.5 0 
" style="stroke: #000000; stroke-width: 0.8"/>
      </defs>
      <g>
       <use xlink:href="#maf52176a21" x="96.986" y="329.860854" style="stroke: #000000; stroke-width: 0.8"/>
      </g>
     </g>
     <g id="text_9">
      <!-- −10 -->
      <g transform="translate(47.776625 337.459291) scale(0.2 -0.2)">
       <use xlink:href="#DejaVuSans-2212"/>
       <use xlink:href="#DejaVuSans-31" x="83.789062"/>
       <use xlink:href="#DejaVuSans-30" x="147.412109"/>
      </g>
     </g>
    </g>
    <g id="ytick_2">
     <g id="line2d_17">
      <path d="M 96.986 279.815314 
L 532.125 279.815314 
" clip-path="url(#pf381b9fc54)" style="fill: none; stroke: #b0b0b0; stroke-width: 0.8; stroke-linecap: square"/>
     </g>
     <g id="line2d_18">
      <g>
       <use xlink:href="#maf52176a21" x="96.986" y="279.815314" style="stroke: #000000; stroke-width: 0.8"/>
      </g>
     </g>
     <g id="text_10">
      <!-- −5 -->
      <g transform="translate(60.501625 287.413752) scale(0.2 -0.2)">
       <use xlink:href="#DejaVuSans-2212"/>
       <use xlink:href="#DejaVuSans-35" x="83.789062"/>
      </g>
     </g>
    </g>
    <g id="ytick_3">
     <g id="line2d_19">
      <path d="M 96.986 229.769774 
L 532.125 229.769774 
" clip-path="url(#pf381b9fc54)" style="fill: none; stroke: #b0b0b0; stroke-width: 0.8; stroke-linecap: square"/>
     </g>
     <g id="line2d_20">
      <g>
       <use xlink:href="#maf52176a21" x="96.986" y="229.769774" style="stroke: #000000; stroke-width: 0.8"/>
      </g>
     </g>
     <g id="text_11">
      <!-- 0 -->
      <g transform="translate(77.261 237.368212) scale(0.2 -0.2)">
       <use xlink:href="#DejaVuSans-30"/>
      </g>
     </g>
    </g>
    <g id="ytick_4">
     <g id="line2d_21">
      <path d="M 96.986 179.724234 
L 532.125 179.724234 
" clip-path="url(#pf381b9fc54)" style="fill: none; stroke: #b0b0b0; stroke-width: 0.8; stroke-linecap: square"/>
     </g>
     <g id="line2d_22">
      <g>
       <use xlink:href="#maf52176a21" x="96.986" y="179.724234" style="stroke: #000000; stroke-width: 0.8"/>
      </g>
     </g>
     <g id="text_12">
      <!-- 5 -->
      <g transform="translate(77.261 187.322672) scale(0.2 -0.2)">
       <use xlink:href="#DejaVuSans-35"/>
      </g>
     </g>
    </g>
    <g id="ytick_5">
     <g id="line2d_23">
      <path d="M 96.986 129.678694 
L 532.125 129.678694 
" clip-path="url(#pf381b9fc54)" style="fill: none; stroke: #b0b0b0; stroke-width: 0.8; stroke-linecap: square"/>
     </g>
     <g id="line2d_24">
      <g>
       <use xlink:href="#maf52176a21" x="96.986" y="129.678694" style="stroke: #000000; stroke-width: 0.8"/>
      </g>
     </g>
     <g id="text_13">
      <!-- 10 -->
      <g transform="translate(64.536 137.277132) scale(0.2 -0.2)">
       <use xlink:href="#DejaVuSans-31"/>
       <use xlink:href="#DejaVuSans-30" x="63.623047"/>
      </g>
     </g>
    </g>
    <g id="ytick_6">
     <g id="line2d_25">
      <path d="M 96.986 79.633155 
L 532.125 79.633155 
" clip-path="url(#pf381b9fc54)" style="fill: none; stroke: #b0b0b0; stroke-width: 0.8; stroke-linecap: square"/>
     </g>
     <g id="line2d_26">
      <g>
       <use xlink:href="#maf52176a21" x="96.986" y="79.633155" style="stroke: #000000; stroke-width: 0.8"/>
      </g>
     </g>
     <g id="text_14">
      <!-- 15 -->
      <g transform="translate(64.536 87.231592) scale(0.2 -0.2)">
       <use xlink:href="#DejaVuSans-31"/>
       <use xlink:href="#DejaVuSans-35" x="63.623047"/>
      </g>
     </g>
    </g>
    <g id="ytick_7">
     <g id="line2d_27">
      <path d="M 96.986 29.587615 
L 532.125 29.587615 
" clip-path="url(#pf381b9fc54)" style="fill: none; stroke: #b0b0b0; stroke-width: 0.8; stroke-linecap: square"/>
     </g>
     <g id="line2d_28">
      <g>
       <use xlink:href="#maf52176a21" x="96.986" y="29.587615" style="stroke: #000000; stroke-width: 0.8"/>
      </g>
     </g>
     <g id="text_15">
      <!-- 20 -->
      <g transform="translate(64.536 37.186052) scale(0.2 -0.2)">
       <use xlink:href="#DejaVuSans-32"/>
       <use xlink:href="#DejaVuSans-30" x="63.623047"/>
      </g>
     </g>
    </g>
    <g id="text_16">
     <!-- $C_L$/$C_D$ [-] -->
     <g transform="translate(39.61725 230.7) rotate(-90) scale(0.2 -0.2)">
      <defs>
       <path id="DejaVuSans-Oblique-43" d="M 4447 4306 
L 4319 3641 
Q 4019 3944 3683 4091 
Q 3347 4238 2956 4238 
Q 2422 4238 2017 3981 
Q 1613 3725 1319 3200 
Q 1131 2863 1032 2486 
Q 934 2109 934 1728 
Q 934 1091 1264 756 
Q 1594 422 2222 422 
Q 2656 422 3056 561 
Q 3456 700 3834 978 
L 3688 231 
Q 3316 72 2936 -9 
Q 2556 -91 2175 -91 
Q 1278 -91 773 396 
Q 269 884 269 1753 
Q 269 2309 461 2846 
Q 653 3384 1013 3828 
Q 1394 4300 1883 4525 
Q 2372 4750 3022 4750 
Q 3422 4750 3780 4639 
Q 4138 4528 4447 4306 
z
" transform="scale(0.015625)"/>
       <path id="DejaVuSans-Oblique-4c" d="M 1075 4666 
L 1709 4666 
L 909 525 
L 3181 525 
L 3078 0 
L 172 0 
L 1075 4666 
z
" transform="scale(0.015625)"/>
       <path id="DejaVuSans-2f" d="M 1625 4666 
L 2156 4666 
L 531 -594 
L 0 -594 
L 1625 4666 
z
" transform="scale(0.015625)"/>
       <path id="DejaVuSans-Oblique-44" d="M 1081 4666 
L 2438 4666 
Q 3519 4666 4070 4208 
Q 4622 3750 4622 2847 
Q 4622 2250 4412 1698 
Q 4203 1147 3834 769 
Q 3463 381 2891 190 
Q 2319 0 1538 0 
L 172 0 
L 1081 4666 
z
M 1613 4147 
L 909 519 
L 1734 519 
Q 2794 519 3375 1128 
Q 3956 1738 3956 2847 
Q 3956 3519 3581 3833 
Q 3206 4147 2406 4147 
L 1613 4147 
z
" transform="scale(0.015625)"/>
       <path id="DejaVuSans-2d" d="M 313 2009 
L 1997 2009 
L 1997 1497 
L 313 1497 
L 313 2009 
z
" transform="scale(0.015625)"/>
      </defs>
      <use xlink:href="#DejaVuSans-Oblique-43" transform="translate(0 0.015625)"/>
      <use xlink:href="#DejaVuSans-Oblique-4c" transform="translate(69.824219 -16.390625) scale(0.7)"/>
      <use xlink:href="#DejaVuSans-2f" transform="translate(111.557617 0.015625)"/>
      <use xlink:href="#DejaVuSans-Oblique-43" transform="translate(145.249023 0.015625)"/>
      <use xlink:href="#DejaVuSans-Oblique-44" transform="translate(215.073242 -16.390625) scale(0.7)"/>
      <use xlink:href="#DejaVuSans-20" transform="translate(271.708984 0.015625)"/>
      <use xlink:href="#DejaVuSans-5b" transform="translate(303.496094 0.015625)"/>
      <use xlink:href="#DejaVuSans-2d" transform="translate(342.509766 0.015625)"/>
      <use xlink:href="#DejaVuSans-5d" transform="translate(378.59375 0.015625)"/>
     </g>
    </g>
   </g>
   <g id="line2d_29">
    <path d="M 96.986 339.518426 
L 101.381343 340.87898 
L 105.776687 340.990909 
L 110.17203 339.935699 
L 114.567374 337.793419 
L 118.962717 334.642645 
L 123.358061 330.560382 
L 127.753404 325.621994 
L 132.148747 319.901129 
L 136.544091 313.46966 
L 140.939434 306.397616 
L 145.334778 298.75313 
L 149.730121 290.602381 
L 154.125465 282.00954 
L 158.520808 273.036729 
L 162.916152 263.743969 
L 167.311495 254.189147 
L 171.706838 244.427972 
L 176.102182 234.513946 
L 180.497525 224.498332 
L 184.892869 214.430131 
L 189.288212 204.356054 
L 193.683556 194.320508 
L 198.078899 184.365576 
L 202.474242 174.531009 
L 206.869586 164.854215 
L 211.264929 155.370256 
L 215.660273 146.111846 
L 220.055616 137.109352 
L 224.45096 128.390801 
L 228.846303 119.981892 
L 233.241646 111.906006 
L 237.63699 104.184222 
L 242.032333 96.835341 
L 246.427677 89.875907 
L 250.82302 83.320235 
L 255.218364 77.180443 
L 259.613707 71.466485 
L 264.009051 66.18619 
L 268.404394 61.345305 
L 272.799737 56.947539 
L 277.195081 52.994612 
L 281.590424 49.486307 
L 285.985768 46.420527 
L 290.381111 43.793356 
L 294.776455 41.59912 
L 299.171798 39.830455 
L 303.567141 38.478375 
L 307.962485 37.532351 
L 312.357828 36.980385 
L 316.753172 36.809091 
L 321.148515 37.003782 
L 325.543859 37.548555 
L 329.939202 38.426389 
L 334.334545 39.619232 
L 338.729889 41.108109 
L 343.125232 42.873216 
L 347.520576 44.894034 
L 351.915919 47.149434 
L 356.311263 49.617792 
L 360.706606 52.277106 
L 365.101949 55.105118 
L 369.497293 58.079435 
L 373.892636 61.177658 
L 378.28798 64.377515 
L 382.683323 67.656995 
L 387.078667 70.994486 
L 391.47401 74.368917 
L 395.869354 77.759903 
L 400.264697 81.147899 
L 404.66004 84.514345 
L 409.055384 87.841829 
L 413.450727 91.114243 
L 417.846071 94.31695 
L 422.241414 97.436948 
L 426.636758 100.463043 
L 431.032101 103.386021 
L 435.427444 106.19883 
L 439.822788 108.896756 
L 444.218131 111.477612 
L 448.613475 113.941927 
L 453.008818 116.293134 
L 457.404162 118.537772 
L 461.799505 120.68568 
L 466.194848 122.750202 
L 470.590192 124.748395 
L 474.985535 126.701237 
L 479.380879 128.633842 
L 483.776222 130.575677 
L 488.171566 132.560782 
L 492.566909 134.627996 
L 496.962253 136.821184 
L 501.357596 139.18947 
L 505.752939 141.787471 
L 510.148283 144.675535 
L 514.543626 147.919986 
L 518.93897 151.593368 
L 523.334313 155.774695 
L 527.729657 160.549704 
L 532.125 166.011113 
" clip-path="url(#pf381b9fc54)" style="fill: none; stroke-dasharray: 9.6,2.4,1.5,2.4; stroke-dashoffset: 0; stroke: #00a6b6; stroke-width: 1.5"/>
   </g>
   <g id="line2d_30">
    <path d="M 96.986 307.401091 
L 101.381343 303.415541 
L 105.776687 299.447173 
L 110.17203 295.481859 
L 114.567374 291.507442 
L 118.962717 287.513629 
L 123.358061 283.491887 
L 127.753404 279.435343 
L 132.148747 275.338686 
L 136.544091 271.198071 
L 140.939434 267.011022 
L 145.334778 262.776343 
L 149.730121 258.494026 
L 154.125465 254.165166 
L 158.520808 249.791874 
L 162.916152 245.377195 
L 167.311495 240.925025 
L 171.706838 236.440035 
L 176.102182 231.927594 
L 180.497525 227.393696 
L 184.892869 222.844885 
L 189.288212 218.288189 
L 193.683556 213.731049 
L 198.078899 209.181259 
L 202.474242 204.646897 
L 206.869586 200.136269 
L 211.264929 195.657849 
L 215.660273 191.220224 
L 220.055616 186.832037 
L 224.45096 182.501937 
L 228.846303 178.238533 
L 233.241646 174.05034 
L 237.63699 169.945741 
L 242.032333 165.932938 
L 246.427677 162.019916 
L 250.82302 158.214404 
L 255.218364 154.523836 
L 259.613707 150.95532 
L 264.009051 147.515608 
L 268.404394 144.211061 
L 272.799737 141.047629 
L 277.195081 138.03082 
L 281.590424 135.16568 
L 285.985768 132.456775 
L 290.381111 129.908168 
L 294.776455 127.523407 
L 299.171798 125.305509 
L 303.567141 123.256951 
L 307.962485 121.379658 
L 312.357828 119.674997 
L 316.753172 118.143774 
L 321.148515 116.78623 
L 325.543859 115.602041 
L 329.939202 114.590319 
L 334.334545 113.749618 
L 338.729889 113.07794 
L 343.125232 112.572743 
L 347.520576 112.230953 
L 351.915919 112.048975 
L 356.311263 112.022712 
L 360.706606 112.147579 
L 365.101949 112.418526 
L 369.497293 112.830058 
L 373.892636 113.376258 
L 378.28798 114.050821 
L 382.683323 114.847071 
L 387.078667 115.758004 
L 391.47401 116.776314 
L 395.869354 117.894428 
L 400.264697 119.10455 
L 404.66004 120.398696 
L 409.055384 121.768737 
L 413.450727 123.206445 
L 417.846071 124.703537 
L 422.241414 126.251728 
L 426.636758 127.84278 
L 431.032101 129.468553 
L 435.427444 131.121066 
L 439.822788 132.79255 
L 444.218131 134.475512 
L 448.613475 136.162795 
L 453.008818 137.847642 
L 457.404162 139.523766 
L 461.799505 141.185416 
L 466.194848 142.827451 
L 470.590192 144.445411 
L 474.985535 146.035594 
L 479.380879 147.595136 
L 483.776222 149.122087 
L 488.171566 150.615496 
L 492.566909 152.075498 
L 496.962253 153.503398 
L 501.357596 154.901758 
L 505.752939 156.274495 
L 510.148283 157.626971 
L 514.543626 158.966086 
L 518.93897 160.300382 
L 523.334313 161.64014 
L 527.729657 162.997485 
L 532.125 164.386485 
" clip-path="url(#pf381b9fc54)" style="fill: none; stroke-dasharray: 9.6,2.4,1.5,2.4; stroke-dashoffset: 0; stroke: #a50034; stroke-width: 1.5"/>
   </g>
   <g id="patch_3">
    <path d="M 96.986 356.2 
L 96.986 21.6 
" style="fill: none; stroke: #000000; stroke-width: 0.8; stroke-linejoin: miter; stroke-linecap: square"/>
   </g>
   <g id="patch_4">
    <path d="M 532.125 356.2 
L 532.125 21.6 
" style="fill: none; stroke: #000000; stroke-width: 0.8; stroke-linejoin: miter; stroke-linecap: square"/>
   </g>
   <g id="patch_5">
    <path d="M 96.986 356.2 
L 532.125 356.2 
" style="fill: none; stroke: #000000; stroke-width: 0.8; stroke-linejoin: miter; stroke-linecap: square"/>
   </g>
   <g id="patch_6">
    <path d="M 96.986 21.6 
L 532.125 21.6 
" style="fill: none; stroke: #000000; stroke-width: 0.8; stroke-linejoin: miter; stroke-linecap: square"/>
   </g>
   <g id="legend_1">
    <g id="patch_7">
     <path d="M 243.55625 346.2 
L 518.125 346.2 
Q 522.125 346.2 522.125 342.2 
L 522.125 285.4875 
Q 522.125 281.4875 518.125 281.4875 
L 243.55625 281.4875 
Q 239.55625 281.4875 239.55625 285.4875 
L 239.55625 342.2 
Q 239.55625 346.2 243.55625 346.2 
z
" style="fill: #ffffff; opacity: 0.8; stroke: #cccccc; stroke-linejoin: miter"/>
    </g>
    <g id="line2d_31">
     <path d="M 247.55625 297.684375 
L 267.55625 297.684375 
L 287.55625 297.684375 
" style="fill: none; stroke-dasharray: 9.6,2.4,1.5,2.4; stroke-dashoffset: 0; stroke: #00a6b6; stroke-width: 1.5"/>
    </g>
    <g id="text_17">
     <!-- V = 40.0 m/s, J = 1.6 -->
     <g transform="translate(303.55625 304.684375) scale(0.2 -0.2)">
      <defs>
       <path id="DejaVuSans-56" d="M 1831 0 
L 50 4666 
L 709 4666 
L 2188 738 
L 3669 4666 
L 4325 4666 
L 2547 0 
L 1831 0 
z
" transform="scale(0.015625)"/>
       <path id="DejaVuSans-3d" d="M 678 2906 
L 4684 2906 
L 4684 2381 
L 678 2381 
L 678 2906 
z
M 678 1631 
L 4684 1631 
L 4684 1100 
L 678 1100 
L 678 1631 
z
" transform="scale(0.015625)"/>
       <path id="DejaVuSans-6d" d="M 3328 2828 
Q 3544 3216 3844 3400 
Q 4144 3584 4550 3584 
Q 5097 3584 5394 3201 
Q 5691 2819 5691 2113 
L 5691 0 
L 5113 0 
L 5113 2094 
Q 5113 2597 4934 2840 
Q 4756 3084 4391 3084 
Q 3944 3084 3684 2787 
Q 3425 2491 3425 1978 
L 3425 0 
L 2847 0 
L 2847 2094 
Q 2847 2600 2669 2842 
Q 2491 3084 2119 3084 
Q 1678 3084 1418 2786 
Q 1159 2488 1159 1978 
L 1159 0 
L 581 0 
L 581 3500 
L 1159 3500 
L 1159 2956 
Q 1356 3278 1631 3431 
Q 1906 3584 2284 3584 
Q 2666 3584 2933 3390 
Q 3200 3197 3328 2828 
z
" transform="scale(0.015625)"/>
       <path id="DejaVuSans-73" d="M 2834 3397 
L 2834 2853 
Q 2591 2978 2328 3040 
Q 2066 3103 1784 3103 
Q 1356 3103 1142 2972 
Q 928 2841 928 2578 
Q 928 2378 1081 2264 
Q 1234 2150 1697 2047 
L 1894 2003 
Q 2506 1872 2764 1633 
Q 3022 1394 3022 966 
Q 3022 478 2636 193 
Q 2250 -91 1575 -91 
Q 1294 -91 989 -36 
Q 684 19 347 128 
L 347 722 
Q 666 556 975 473 
Q 1284 391 1588 391 
Q 1994 391 2212 530 
Q 2431 669 2431 922 
Q 2431 1156 2273 1281 
Q 2116 1406 1581 1522 
L 1381 1569 
Q 847 1681 609 1914 
Q 372 2147 372 2553 
Q 372 3047 722 3315 
Q 1072 3584 1716 3584 
Q 2034 3584 2315 3537 
Q 2597 3491 2834 3397 
z
" transform="scale(0.015625)"/>
       <path id="DejaVuSans-2c" d="M 750 794 
L 1409 794 
L 1409 256 
L 897 -744 
L 494 -744 
L 750 256 
L 750 794 
z
" transform="scale(0.015625)"/>
       <path id="DejaVuSans-4a" d="M 628 4666 
L 1259 4666 
L 1259 325 
Q 1259 -519 939 -900 
Q 619 -1281 -91 -1281 
L -331 -1281 
L -331 -750 
L -134 -750 
Q 284 -750 456 -515 
Q 628 -281 628 325 
L 628 4666 
z
" transform="scale(0.015625)"/>
      </defs>
      <use xlink:href="#DejaVuSans-56"/>
      <use xlink:href="#DejaVuSans-20" x="68.408203"/>
      <use xlink:href="#DejaVuSans-3d" x="100.195312"/>
      <use xlink:href="#DejaVuSans-20" x="183.984375"/>
      <use xlink:href="#DejaVuSans-34" x="215.771484"/>
      <use xlink:href="#DejaVuSans-30" x="279.394531"/>
      <use xlink:href="#DejaVuSans-2e" x="343.017578"/>
      <use xlink:href="#DejaVuSans-30" x="374.804688"/>
      <use xlink:href="#DejaVuSans-20" x="438.427734"/>
      <use xlink:href="#DejaVuSans-6d" x="470.214844"/>
      <use xlink:href="#DejaVuSans-2f" x="567.626953"/>
      <use xlink:href="#DejaVuSans-73" x="601.318359"/>
      <use xlink:href="#DejaVuSans-2c" x="653.417969"/>
      <use xlink:href="#DejaVuSans-20" x="685.205078"/>
      <use xlink:href="#DejaVuSans-4a" x="716.992188"/>
      <use xlink:href="#DejaVuSans-20" x="746.484375"/>
      <use xlink:href="#DejaVuSans-3d" x="778.271484"/>
      <use xlink:href="#DejaVuSans-20" x="862.060547"/>
      <use xlink:href="#DejaVuSans-31" x="893.847656"/>
      <use xlink:href="#DejaVuSans-2e" x="957.470703"/>
      <use xlink:href="#DejaVuSans-36" x="989.257812"/>
     </g>
    </g>
    <g id="line2d_32">
     <path d="M 247.55625 327.040625 
L 267.55625 327.040625 
L 287.55625 327.040625 
" style="fill: none; stroke-dasharray: 9.6,2.4,1.5,2.4; stroke-dashoffset: 0; stroke: #a50034; stroke-width: 1.5"/>
    </g>
    <g id="text_18">
     <!-- V = 20.0 m/s, J = 1.6 -->
     <g transform="translate(303.55625 334.040625) scale(0.2 -0.2)">
      <use xlink:href="#DejaVuSans-56"/>
      <use xlink:href="#DejaVuSans-20" x="68.408203"/>
      <use xlink:href="#DejaVuSans-3d" x="100.195312"/>
      <use xlink:href="#DejaVuSans-20" x="183.984375"/>
      <use xlink:href="#DejaVuSans-32" x="215.771484"/>
      <use xlink:href="#DejaVuSans-30" x="279.394531"/>
      <use xlink:href="#DejaVuSans-2e" x="343.017578"/>
      <use xlink:href="#DejaVuSans-30" x="374.804688"/>
      <use xlink:href="#DejaVuSans-20" x="438.427734"/>
      <use xlink:href="#DejaVuSans-6d" x="470.214844"/>
      <use xlink:href="#DejaVuSans-2f" x="567.626953"/>
      <use xlink:href="#DejaVuSans-73" x="601.318359"/>
      <use xlink:href="#DejaVuSans-2c" x="653.417969"/>
      <use xlink:href="#DejaVuSans-20" x="685.205078"/>
      <use xlink:href="#DejaVuSans-4a" x="716.992188"/>
      <use xlink:href="#DejaVuSans-20" x="746.484375"/>
      <use xlink:href="#DejaVuSans-3d" x="778.271484"/>
      <use xlink:href="#DejaVuSans-20" x="862.060547"/>
      <use xlink:href="#DejaVuSans-31" x="893.847656"/>
      <use xlink:href="#DejaVuSans-2e" x="957.470703"/>
      <use xlink:href="#DejaVuSans-36" x="989.257812"/>
     </g>
    </g>
   </g>
  </g>
 </g>
 <defs>
  <clipPath id="pf381b9fc54">
   <rect x="96.986" y="21.6" width="435.139" height="334.6"/>
  </clipPath>
 </defs>
</svg>
