<?xml version="1.0" encoding="utf-8" standalone="no"?>
<!DOCTYPE svg PUBLIC "-//W3C//DTD SVG 1.1//EN"
  "http://www.w3.org/Graphics/SVG/1.1/DTD/svg11.dtd">
<svg xmlns:xlink="http://www.w3.org/1999/xlink" width="576pt" height="432pt" viewBox="0 0 576 432" xmlns="http://www.w3.org/2000/svg" version="1.1">
 <metadata>
  <rdf:RDF xmlns:dc="http://purl.org/dc/elements/1.1/" xmlns:cc="http://creativecommons.org/ns#" xmlns:rdf="http://www.w3.org/1999/02/22-rdf-syntax-ns#">
   <cc:Work>
    <dc:type rdf:resource="http://purl.org/dc/dcmitype/StillImage"/>
    <dc:date>2024-04-03T10:33:53.215559</dc:date>
    <dc:format>image/svg+xml</dc:format>
    <dc:creator>
     <cc:Agent>
      <dc:title>Matplotlib v3.8.3, https://matplotlib.org/</dc:title>
     </cc:Agent>
    </dc:creator>
   </cc:Work>
  </rdf:RDF>
 </metadata>
 <defs>
  <style type="text/css">*{stroke-linejoin: round; stroke-linecap: butt}</style>
 </defs>
 <g id="figure_1">
  <g id="patch_1">
   <path d="M 0 432 
L 576 432 
L 576 0 
L 0 0 
z
" style="fill: #ffffff"/>
  </g>
  <g id="axes_1">
   <g id="patch_2">
    <path d="M 103.376 356.2 
L 532.125 356.2 
L 532.125 23.629775 
L 103.376 23.629775 
z
" style="fill: #ffffff"/>
   </g>
   <g id="PathCollection_1">
    <defs>
     <path id="m881b0cf284" d="M 0 3 
C 0.795609 3 1.55874 2.683901 2.12132 2.12132 
C 2.683901 1.55874 3 0.795609 3 0 
C 3 -0.795609 2.683901 -1.55874 2.12132 -2.12132 
C 1.55874 -2.683901 0.795609 -3 0 -3 
C -0.795609 -3 -1.55874 -2.683901 -2.12132 -2.12132 
C -2.683901 -1.55874 -3 -0.795609 -3 0 
C -3 0.795609 -2.683901 1.55874 -2.12132 2.12132 
C -1.55874 2.683901 -0.795609 3 0 3 
z
" style="stroke: #00a6b6"/>
    </defs>
    <g clip-path="url(#pab22a65c95)">
     <use xlink:href="#m881b0cf284" x="123.777773" y="313.595578" style="fill: #00a6b6; stroke: #00a6b6"/>
     <use xlink:href="#m881b0cf284" x="144.202106" y="295.066909" style="fill: #00a6b6; stroke: #00a6b6"/>
     <use xlink:href="#m881b0cf284" x="164.626709" y="276.438484" style="fill: #00a6b6; stroke: #00a6b6"/>
     <use xlink:href="#m881b0cf284" x="185.051332" y="258.181142" style="fill: #00a6b6; stroke: #00a6b6"/>
     <use xlink:href="#m881b0cf284" x="205.47591" y="240.105133" style="fill: #00a6b6; stroke: #00a6b6"/>
     <use xlink:href="#m881b0cf284" x="225.900455" y="222.154359" style="fill: #00a6b6; stroke: #00a6b6"/>
     <use xlink:href="#m881b0cf284" x="246.324825" y="204.87443" style="fill: #00a6b6; stroke: #00a6b6"/>
     <use xlink:href="#m881b0cf284" x="266.749075" y="187.533618" style="fill: #00a6b6; stroke: #00a6b6"/>
     <use xlink:href="#m881b0cf284" x="287.1731" y="170.247378" style="fill: #00a6b6; stroke: #00a6b6"/>
     <use xlink:href="#m881b0cf284" x="307.596889" y="153.757032" style="fill: #00a6b6; stroke: #00a6b6"/>
     <use xlink:href="#m881b0cf284" x="328.02042" y="137.328255" style="fill: #00a6b6; stroke: #00a6b6"/>
     <use xlink:href="#m881b0cf284" x="348.443627" y="121.500747" style="fill: #00a6b6; stroke: #00a6b6"/>
     <use xlink:href="#m881b0cf284" x="368.866278" y="107.987968" style="fill: #00a6b6; stroke: #00a6b6"/>
     <use xlink:href="#m881b0cf284" x="389.28794" y="96.694332" style="fill: #00a6b6; stroke: #00a6b6"/>
     <use xlink:href="#m881b0cf284" x="409.706461" y="85.681516" style="fill: #00a6b6; stroke: #00a6b6"/>
     <use xlink:href="#m881b0cf284" x="430.12436" y="77.380565" style="fill: #00a6b6; stroke: #00a6b6"/>
     <use xlink:href="#m881b0cf284" x="450.544194" y="69.77535" style="fill: #00a6b6; stroke: #00a6b6"/>
     <use xlink:href="#m881b0cf284" x="470.964584" y="60.804212" style="fill: #00a6b6; stroke: #00a6b6"/>
     <use xlink:href="#m881b0cf284" x="491.385158" y="56.465439" style="fill: #00a6b6; stroke: #00a6b6"/>
     <use xlink:href="#m881b0cf284" x="511.805009" y="46.473608" style="fill: #00a6b6; stroke: #00a6b6"/>
    </g>
   </g>
   <g id="PathCollection_2">
    <defs>
     <path id="m6d12d1a563" d="M 0 3 
C 0.795609 3 1.55874 2.683901 2.12132 2.12132 
C 2.683901 1.55874 3 0.795609 3 0 
C 3 -0.795609 2.683901 -1.55874 2.12132 -2.12132 
C 1.55874 -2.683901 0.795609 -3 0 -3 
C -0.795609 -3 -1.55874 -2.683901 -2.12132 -2.12132 
C -2.683901 -1.55874 -3 -0.795609 -3 0 
C -3 0.795609 -2.683901 1.55874 -2.12132 2.12132 
C -1.55874 2.683901 -0.795609 3 0 3 
z
" style="stroke: #a50034"/>
    </defs>
    <g clip-path="url(#pab22a65c95)">
     <use xlink:href="#m6d12d1a563" x="123.780166" y="311.589309" style="fill: #a50034; stroke: #a50034"/>
     <use xlink:href="#m6d12d1a563" x="144.204104" y="293.222599" style="fill: #a50034; stroke: #a50034"/>
     <use xlink:href="#m6d12d1a563" x="164.628266" y="275.008788" style="fill: #a50034; stroke: #a50034"/>
     <use xlink:href="#m6d12d1a563" x="185.052354" y="257.616887" style="fill: #a50034; stroke: #a50034"/>
     <use xlink:href="#m6d12d1a563" x="205.476591" y="239.862604" style="fill: #a50034; stroke: #a50034"/>
     <use xlink:href="#m6d12d1a563" x="225.900937" y="222.809943" style="fill: #a50034; stroke: #a50034"/>
     <use xlink:href="#m6d12d1a563" x="246.324958" y="205.363068" style="fill: #a50034; stroke: #a50034"/>
     <use xlink:href="#m6d12d1a563" x="266.749204" y="188.155306" style="fill: #a50034; stroke: #a50034"/>
     <use xlink:href="#m6d12d1a563" x="287.17325" y="171.101541" style="fill: #a50034; stroke: #a50034"/>
     <use xlink:href="#m6d12d1a563" x="307.597205" y="154.365386" style="fill: #a50034; stroke: #a50034"/>
     <use xlink:href="#m6d12d1a563" x="328.021068" y="137.624216" style="fill: #a50034; stroke: #a50034"/>
     <use xlink:href="#m6d12d1a563" x="348.444483" y="122.676254" style="fill: #a50034; stroke: #a50034"/>
     <use xlink:href="#m6d12d1a563" x="368.867491" y="108.709389" style="fill: #a50034; stroke: #a50034"/>
     <use xlink:href="#m6d12d1a563" x="389.289161" y="97.753058" style="fill: #a50034; stroke: #a50034"/>
     <use xlink:href="#m6d12d1a563" x="409.709244" y="86.655579" style="fill: #a50034; stroke: #a50034"/>
     <use xlink:href="#m6d12d1a563" x="430.128347" y="77.047633" style="fill: #a50034; stroke: #a50034"/>
     <use xlink:href="#m6d12d1a563" x="450.54608" y="71.835939" style="fill: #a50034; stroke: #a50034"/>
     <use xlink:href="#m6d12d1a563" x="470.966072" y="64.177163" style="fill: #a50034; stroke: #a50034"/>
     <use xlink:href="#m6d12d1a563" x="491.383787" y="60.155125" style="fill: #a50034; stroke: #a50034"/>
     <use xlink:href="#m6d12d1a563" x="511.804311" y="50.840204" style="fill: #a50034; stroke: #a50034"/>
    </g>
   </g>
   <g id="matplotlib.axis_1">
    <g id="xtick_1">
     <g id="line2d_1">
      <path d="M 103.376 356.2 
L 103.376 23.629775 
" clip-path="url(#pab22a65c95)" style="fill: none; stroke: #b0b0b0; stroke-width: 0.8; stroke-linecap: square"/>
     </g>
     <g id="line2d_2">
      <defs>
       <path id="me87de0a5a3" d="M 0 0 
L 0 3.5 
" style="stroke: #000000; stroke-width: 0.8"/>
      </defs>
      <g>
       <use xlink:href="#me87de0a5a3" x="103.376" y="356.2" style="stroke: #000000; stroke-width: 0.8"/>
      </g>
     </g>
     <g id="text_1">
      <!-- −6.0 -->
      <g transform="translate(79.093188 378.396875) scale(0.2 -0.2)">
       <defs>
        <path id="DejaVuSans-2212" d="M 678 2272 
L 4684 2272 
L 4684 1741 
L 678 1741 
L 678 2272 
z
" transform="scale(0.015625)"/>
        <path id="DejaVuSans-36" d="M 2113 2584 
Q 1688 2584 1439 2293 
Q 1191 2003 1191 1497 
Q 1191 994 1439 701 
Q 1688 409 2113 409 
Q 2538 409 2786 701 
Q 3034 994 3034 1497 
Q 3034 2003 2786 2293 
Q 2538 2584 2113 2584 
z
M 3366 4563 
L 3366 3988 
Q 3128 4100 2886 4159 
Q 2644 4219 2406 4219 
Q 1781 4219 1451 3797 
Q 1122 3375 1075 2522 
Q 1259 2794 1537 2939 
Q 1816 3084 2150 3084 
Q 2853 3084 3261 2657 
Q 3669 2231 3669 1497 
Q 3669 778 3244 343 
Q 2819 -91 2113 -91 
Q 1303 -91 875 529 
Q 447 1150 447 2328 
Q 447 3434 972 4092 
Q 1497 4750 2381 4750 
Q 2619 4750 2861 4703 
Q 3103 4656 3366 4563 
z
" transform="scale(0.015625)"/>
        <path id="DejaVuSans-2e" d="M 684 794 
L 1344 794 
L 1344 0 
L 684 0 
L 684 794 
z
" transform="scale(0.015625)"/>
        <path id="DejaVuSans-30" d="M 2034 4250 
Q 1547 4250 1301 3770 
Q 1056 3291 1056 2328 
Q 1056 1369 1301 889 
Q 1547 409 2034 409 
Q 2525 409 2770 889 
Q 3016 1369 3016 2328 
Q 3016 3291 2770 3770 
Q 2525 4250 2034 4250 
z
M 2034 4750 
Q 2819 4750 3233 4129 
Q 3647 3509 3647 2328 
Q 3647 1150 3233 529 
Q 2819 -91 2034 -91 
Q 1250 -91 836 529 
Q 422 1150 422 2328 
Q 422 3509 836 4129 
Q 1250 4750 2034 4750 
z
" transform="scale(0.015625)"/>
       </defs>
       <use xlink:href="#DejaVuSans-2212"/>
       <use xlink:href="#DejaVuSans-36" x="83.789062"/>
       <use xlink:href="#DejaVuSans-2e" x="147.412109"/>
       <use xlink:href="#DejaVuSans-30" x="179.199219"/>
      </g>
     </g>
    </g>
    <g id="xtick_2">
     <g id="line2d_3">
      <path d="M 174.834167 356.2 
L 174.834167 23.629775 
" clip-path="url(#pab22a65c95)" style="fill: none; stroke: #b0b0b0; stroke-width: 0.8; stroke-linecap: square"/>
     </g>
     <g id="line2d_4">
      <g>
       <use xlink:href="#me87de0a5a3" x="174.834167" y="356.2" style="stroke: #000000; stroke-width: 0.8"/>
      </g>
     </g>
     <g id="text_2">
      <!-- −2.5 -->
      <g transform="translate(150.551354 378.396875) scale(0.2 -0.2)">
       <defs>
        <path id="DejaVuSans-32" d="M 1228 531 
L 3431 531 
L 3431 0 
L 469 0 
L 469 531 
Q 828 903 1448 1529 
Q 2069 2156 2228 2338 
Q 2531 2678 2651 2914 
Q 2772 3150 2772 3378 
Q 2772 3750 2511 3984 
Q 2250 4219 1831 4219 
Q 1534 4219 1204 4116 
Q 875 4013 500 3803 
L 500 4441 
Q 881 4594 1212 4672 
Q 1544 4750 1819 4750 
Q 2544 4750 2975 4387 
Q 3406 4025 3406 3419 
Q 3406 3131 3298 2873 
Q 3191 2616 2906 2266 
Q 2828 2175 2409 1742 
Q 1991 1309 1228 531 
z
" transform="scale(0.015625)"/>
        <path id="DejaVuSans-35" d="M 691 4666 
L 3169 4666 
L 3169 4134 
L 1269 4134 
L 1269 2991 
Q 1406 3038 1543 3061 
Q 1681 3084 1819 3084 
Q 2600 3084 3056 2656 
Q 3513 2228 3513 1497 
Q 3513 744 3044 326 
Q 2575 -91 1722 -91 
Q 1428 -91 1123 -41 
Q 819 9 494 109 
L 494 744 
Q 775 591 1075 516 
Q 1375 441 1709 441 
Q 2250 441 2565 725 
Q 2881 1009 2881 1497 
Q 2881 1984 2565 2268 
Q 2250 2553 1709 2553 
Q 1456 2553 1204 2497 
Q 953 2441 691 2322 
L 691 4666 
z
" transform="scale(0.015625)"/>
       </defs>
       <use xlink:href="#DejaVuSans-2212"/>
       <use xlink:href="#DejaVuSans-32" x="83.789062"/>
       <use xlink:href="#DejaVuSans-2e" x="147.412109"/>
       <use xlink:href="#DejaVuSans-35" x="179.199219"/>
      </g>
     </g>
    </g>
    <g id="xtick_3">
     <g id="line2d_5">
      <path d="M 246.292333 356.2 
L 246.292333 23.629775 
" clip-path="url(#pab22a65c95)" style="fill: none; stroke: #b0b0b0; stroke-width: 0.8; stroke-linecap: square"/>
     </g>
     <g id="line2d_6">
      <g>
       <use xlink:href="#me87de0a5a3" x="246.292333" y="356.2" style="stroke: #000000; stroke-width: 0.8"/>
      </g>
     </g>
     <g id="text_3">
      <!-- 1.0 -->
      <g transform="translate(230.389208 378.396875) scale(0.2 -0.2)">
       <defs>
        <path id="DejaVuSans-31" d="M 794 531 
L 1825 531 
L 1825 4091 
L 703 3866 
L 703 4441 
L 1819 4666 
L 2450 4666 
L 2450 531 
L 3481 531 
L 3481 0 
L 794 0 
L 794 531 
z
" transform="scale(0.015625)"/>
       </defs>
       <use xlink:href="#DejaVuSans-31"/>
       <use xlink:href="#DejaVuSans-2e" x="63.623047"/>
       <use xlink:href="#DejaVuSans-30" x="95.410156"/>
      </g>
     </g>
    </g>
    <g id="xtick_4">
     <g id="line2d_7">
      <path d="M 317.7505 356.2 
L 317.7505 23.629775 
" clip-path="url(#pab22a65c95)" style="fill: none; stroke: #b0b0b0; stroke-width: 0.8; stroke-linecap: square"/>
     </g>
     <g id="line2d_8">
      <g>
       <use xlink:href="#me87de0a5a3" x="317.7505" y="356.2" style="stroke: #000000; stroke-width: 0.8"/>
      </g>
     </g>
     <g id="text_4">
      <!-- 4.5 -->
      <g transform="translate(301.847375 378.396875) scale(0.2 -0.2)">
       <defs>
        <path id="DejaVuSans-34" d="M 2419 4116 
L 825 1625 
L 2419 1625 
L 2419 4116 
z
M 2253 4666 
L 3047 4666 
L 3047 1625 
L 3713 1625 
L 3713 1100 
L 3047 1100 
L 3047 0 
L 2419 0 
L 2419 1100 
L 313 1100 
L 313 1709 
L 2253 4666 
z
" transform="scale(0.015625)"/>
       </defs>
       <use xlink:href="#DejaVuSans-34"/>
       <use xlink:href="#DejaVuSans-2e" x="63.623047"/>
       <use xlink:href="#DejaVuSans-35" x="95.410156"/>
      </g>
     </g>
    </g>
    <g id="xtick_5">
     <g id="line2d_9">
      <path d="M 389.208667 356.2 
L 389.208667 23.629775 
" clip-path="url(#pab22a65c95)" style="fill: none; stroke: #b0b0b0; stroke-width: 0.8; stroke-linecap: square"/>
     </g>
     <g id="line2d_10">
      <g>
       <use xlink:href="#me87de0a5a3" x="389.208667" y="356.2" style="stroke: #000000; stroke-width: 0.8"/>
      </g>
     </g>
     <g id="text_5">
      <!-- 8.0 -->
      <g transform="translate(373.305542 378.396875) scale(0.2 -0.2)">
       <defs>
        <path id="DejaVuSans-38" d="M 2034 2216 
Q 1584 2216 1326 1975 
Q 1069 1734 1069 1313 
Q 1069 891 1326 650 
Q 1584 409 2034 409 
Q 2484 409 2743 651 
Q 3003 894 3003 1313 
Q 3003 1734 2745 1975 
Q 2488 2216 2034 2216 
z
M 1403 2484 
Q 997 2584 770 2862 
Q 544 3141 544 3541 
Q 544 4100 942 4425 
Q 1341 4750 2034 4750 
Q 2731 4750 3128 4425 
Q 3525 4100 3525 3541 
Q 3525 3141 3298 2862 
Q 3072 2584 2669 2484 
Q 3125 2378 3379 2068 
Q 3634 1759 3634 1313 
Q 3634 634 3220 271 
Q 2806 -91 2034 -91 
Q 1263 -91 848 271 
Q 434 634 434 1313 
Q 434 1759 690 2068 
Q 947 2378 1403 2484 
z
M 1172 3481 
Q 1172 3119 1398 2916 
Q 1625 2713 2034 2713 
Q 2441 2713 2670 2916 
Q 2900 3119 2900 3481 
Q 2900 3844 2670 4047 
Q 2441 4250 2034 4250 
Q 1625 4250 1398 4047 
Q 1172 3844 1172 3481 
z
" transform="scale(0.015625)"/>
       </defs>
       <use xlink:href="#DejaVuSans-38"/>
       <use xlink:href="#DejaVuSans-2e" x="63.623047"/>
       <use xlink:href="#DejaVuSans-30" x="95.410156"/>
      </g>
     </g>
    </g>
    <g id="xtick_6">
     <g id="line2d_11">
      <path d="M 460.666833 356.2 
L 460.666833 23.629775 
" clip-path="url(#pab22a65c95)" style="fill: none; stroke: #b0b0b0; stroke-width: 0.8; stroke-linecap: square"/>
     </g>
     <g id="line2d_12">
      <g>
       <use xlink:href="#me87de0a5a3" x="460.666833" y="356.2" style="stroke: #000000; stroke-width: 0.8"/>
      </g>
     </g>
     <g id="text_6">
      <!-- 11.5 -->
      <g transform="translate(438.401208 378.396875) scale(0.2 -0.2)">
       <use xlink:href="#DejaVuSans-31"/>
       <use xlink:href="#DejaVuSans-31" x="63.623047"/>
       <use xlink:href="#DejaVuSans-2e" x="127.246094"/>
       <use xlink:href="#DejaVuSans-35" x="159.033203"/>
      </g>
     </g>
    </g>
    <g id="xtick_7">
     <g id="line2d_13">
      <path d="M 532.125 356.2 
L 532.125 23.629775 
" clip-path="url(#pab22a65c95)" style="fill: none; stroke: #b0b0b0; stroke-width: 0.8; stroke-linecap: square"/>
     </g>
     <g id="line2d_14">
      <g>
       <use xlink:href="#me87de0a5a3" x="532.125" y="356.2" style="stroke: #000000; stroke-width: 0.8"/>
      </g>
     </g>
     <g id="text_7">
      <!-- 15.0 -->
      <g transform="translate(509.859375 378.396875) scale(0.2 -0.2)">
       <use xlink:href="#DejaVuSans-31"/>
       <use xlink:href="#DejaVuSans-35" x="63.623047"/>
       <use xlink:href="#DejaVuSans-2e" x="127.246094"/>
       <use xlink:href="#DejaVuSans-30" x="159.033203"/>
      </g>
     </g>
    </g>
    <g id="text_8">
     <!-- $\alpha$ [deg] -->
     <g transform="translate(281.2505 401.75625) scale(0.2 -0.2)">
      <defs>
       <path id="DejaVuSans-Oblique-3b1" d="M 2619 1628 
L 2622 2350 
Q 2625 3088 2069 3091 
Q 1653 3094 1394 2747 
Q 1069 2319 959 1747 
Q 825 1059 994 731 
Q 1169 397 1547 397 
Q 1966 397 2319 1063 
L 2619 1628 
z
M 2166 3578 
Q 3141 3594 3128 2584 
Q 3128 2584 3616 3500 
L 4128 3500 
L 3119 1603 
L 3109 919 
Q 3109 766 3194 638 
Q 3291 488 3391 488 
L 3669 488 
L 3575 0 
L 3228 0 
Q 2934 0 2722 263 
Q 2622 394 2619 669 
Q 2416 334 2066 50 
Q 1900 -81 1453 -78 
Q 722 -72 456 397 
Q 184 884 353 1747 
Q 534 2675 1009 3097 
Q 1544 3569 2166 3578 
z
" transform="scale(0.015625)"/>
       <path id="DejaVuSans-20" transform="scale(0.015625)"/>
       <path id="DejaVuSans-5b" d="M 550 4863 
L 1875 4863 
L 1875 4416 
L 1125 4416 
L 1125 -397 
L 1875 -397 
L 1875 -844 
L 550 -844 
L 550 4863 
z
" transform="scale(0.015625)"/>
       <path id="DejaVuSans-64" d="M 2906 2969 
L 2906 4863 
L 3481 4863 
L 3481 0 
L 2906 0 
L 2906 525 
Q 2725 213 2448 61 
Q 2172 -91 1784 -91 
Q 1150 -91 751 415 
Q 353 922 353 1747 
Q 353 2572 751 3078 
Q 1150 3584 1784 3584 
Q 2172 3584 2448 3432 
Q 2725 3281 2906 2969 
z
M 947 1747 
Q 947 1113 1208 752 
Q 1469 391 1925 391 
Q 2381 391 2643 752 
Q 2906 1113 2906 1747 
Q 2906 2381 2643 2742 
Q 2381 3103 1925 3103 
Q 1469 3103 1208 2742 
Q 947 2381 947 1747 
z
" transform="scale(0.015625)"/>
       <path id="DejaVuSans-65" d="M 3597 1894 
L 3597 1613 
L 953 1613 
Q 991 1019 1311 708 
Q 1631 397 2203 397 
Q 2534 397 2845 478 
Q 3156 559 3463 722 
L 3463 178 
Q 3153 47 2828 -22 
Q 2503 -91 2169 -91 
Q 1331 -91 842 396 
Q 353 884 353 1716 
Q 353 2575 817 3079 
Q 1281 3584 2069 3584 
Q 2775 3584 3186 3129 
Q 3597 2675 3597 1894 
z
M 3022 2063 
Q 3016 2534 2758 2815 
Q 2500 3097 2075 3097 
Q 1594 3097 1305 2825 
Q 1016 2553 972 2059 
L 3022 2063 
z
" transform="scale(0.015625)"/>
       <path id="DejaVuSans-67" d="M 2906 1791 
Q 2906 2416 2648 2759 
Q 2391 3103 1925 3103 
Q 1463 3103 1205 2759 
Q 947 2416 947 1791 
Q 947 1169 1205 825 
Q 1463 481 1925 481 
Q 2391 481 2648 825 
Q 2906 1169 2906 1791 
z
M 3481 434 
Q 3481 -459 3084 -895 
Q 2688 -1331 1869 -1331 
Q 1566 -1331 1297 -1286 
Q 1028 -1241 775 -1147 
L 775 -588 
Q 1028 -725 1275 -790 
Q 1522 -856 1778 -856 
Q 2344 -856 2625 -561 
Q 2906 -266 2906 331 
L 2906 616 
Q 2728 306 2450 153 
Q 2172 0 1784 0 
Q 1141 0 747 490 
Q 353 981 353 1791 
Q 353 2603 747 3093 
Q 1141 3584 1784 3584 
Q 2172 3584 2450 3431 
Q 2728 3278 2906 2969 
L 2906 3500 
L 3481 3500 
L 3481 434 
z
" transform="scale(0.015625)"/>
       <path id="DejaVuSans-5d" d="M 1947 4863 
L 1947 -844 
L 622 -844 
L 622 -397 
L 1369 -397 
L 1369 4416 
L 622 4416 
L 622 4863 
L 1947 4863 
z
" transform="scale(0.015625)"/>
      </defs>
      <use xlink:href="#DejaVuSans-Oblique-3b1" transform="translate(0 0.015625)"/>
      <use xlink:href="#DejaVuSans-20" transform="translate(65.917969 0.015625)"/>
      <use xlink:href="#DejaVuSans-5b" transform="translate(97.705078 0.015625)"/>
      <use xlink:href="#DejaVuSans-64" transform="translate(136.71875 0.015625)"/>
      <use xlink:href="#DejaVuSans-65" transform="translate(200.195312 0.015625)"/>
      <use xlink:href="#DejaVuSans-67" transform="translate(261.71875 0.015625)"/>
      <use xlink:href="#DejaVuSans-5d" transform="translate(325.195312 0.015625)"/>
     </g>
    </g>
   </g>
   <g id="matplotlib.axis_2">
    <g id="ytick_1">
     <g id="line2d_15">
      <path d="M 103.376 335.441804 
L 532.125 335.441804 
" clip-path="url(#pab22a65c95)" style="fill: none; stroke: #b0b0b0; stroke-width: 0.8; stroke-linecap: square"/>
     </g>
     <g id="line2d_16">
      <defs>
       <path id="m893f1e9a4a" d="M 0 0 
L -3.5 0 
" style="stroke: #000000; stroke-width: 0.8"/>
      </defs>
      <g>
       <use xlink:href="#m893f1e9a4a" x="103.376" y="335.441804" style="stroke: #000000; stroke-width: 0.8"/>
      </g>
     </g>
     <g id="text_9">
      <!-- −0.5 -->
      <g transform="translate(47.810375 343.040242) scale(0.2 -0.2)">
       <use xlink:href="#DejaVuSans-2212"/>
       <use xlink:href="#DejaVuSans-30" x="83.789062"/>
       <use xlink:href="#DejaVuSans-2e" x="147.412109"/>
       <use xlink:href="#DejaVuSans-35" x="179.199219"/>
      </g>
     </g>
    </g>
    <g id="ytick_2">
     <g id="line2d_17">
      <path d="M 103.376 258.961044 
L 532.125 258.961044 
" clip-path="url(#pab22a65c95)" style="fill: none; stroke: #b0b0b0; stroke-width: 0.8; stroke-linecap: square"/>
     </g>
     <g id="line2d_18">
      <g>
       <use xlink:href="#m893f1e9a4a" x="103.376" y="258.961044" style="stroke: #000000; stroke-width: 0.8"/>
      </g>
     </g>
     <g id="text_10">
      <!-- 0.0 -->
      <g transform="translate(64.56975 266.559482) scale(0.2 -0.2)">
       <use xlink:href="#DejaVuSans-30"/>
       <use xlink:href="#DejaVuSans-2e" x="63.623047"/>
       <use xlink:href="#DejaVuSans-30" x="95.410156"/>
      </g>
     </g>
    </g>
    <g id="ytick_3">
     <g id="line2d_19">
      <path d="M 103.376 182.480284 
L 532.125 182.480284 
" clip-path="url(#pab22a65c95)" style="fill: none; stroke: #b0b0b0; stroke-width: 0.8; stroke-linecap: square"/>
     </g>
     <g id="line2d_20">
      <g>
       <use xlink:href="#m893f1e9a4a" x="103.376" y="182.480284" style="stroke: #000000; stroke-width: 0.8"/>
      </g>
     </g>
     <g id="text_11">
      <!-- 0.5 -->
      <g transform="translate(64.56975 190.078722) scale(0.2 -0.2)">
       <use xlink:href="#DejaVuSans-30"/>
       <use xlink:href="#DejaVuSans-2e" x="63.623047"/>
       <use xlink:href="#DejaVuSans-35" x="95.410156"/>
      </g>
     </g>
    </g>
    <g id="ytick_4">
     <g id="line2d_21">
      <path d="M 103.376 105.999524 
L 532.125 105.999524 
" clip-path="url(#pab22a65c95)" style="fill: none; stroke: #b0b0b0; stroke-width: 0.8; stroke-linecap: square"/>
     </g>
     <g id="line2d_22">
      <g>
       <use xlink:href="#m893f1e9a4a" x="103.376" y="105.999524" style="stroke: #000000; stroke-width: 0.8"/>
      </g>
     </g>
     <g id="text_12">
      <!-- 1.0 -->
      <g transform="translate(64.56975 113.597962) scale(0.2 -0.2)">
       <use xlink:href="#DejaVuSans-31"/>
       <use xlink:href="#DejaVuSans-2e" x="63.623047"/>
       <use xlink:href="#DejaVuSans-30" x="95.410156"/>
      </g>
     </g>
    </g>
    <g id="ytick_5">
     <g id="line2d_23">
      <path d="M 103.376 29.518764 
L 532.125 29.518764 
" clip-path="url(#pab22a65c95)" style="fill: none; stroke: #b0b0b0; stroke-width: 0.8; stroke-linecap: square"/>
     </g>
     <g id="line2d_24">
      <g>
       <use xlink:href="#m893f1e9a4a" x="103.376" y="29.518764" style="stroke: #000000; stroke-width: 0.8"/>
      </g>
     </g>
     <g id="text_13">
      <!-- 1.5 -->
      <g transform="translate(64.56975 37.117202) scale(0.2 -0.2)">
       <use xlink:href="#DejaVuSans-31"/>
       <use xlink:href="#DejaVuSans-2e" x="63.623047"/>
       <use xlink:href="#DejaVuSans-35" x="95.410156"/>
      </g>
     </g>
    </g>
    <g id="text_14">
     <!-- $C_L$ [-] -->
     <g transform="translate(39.651 215.714887) rotate(-90) scale(0.2 -0.2)">
      <defs>
       <path id="DejaVuSans-Oblique-43" d="M 4447 4306 
L 4319 3641 
Q 4019 3944 3683 4091 
Q 3347 4238 2956 4238 
Q 2422 4238 2017 3981 
Q 1613 3725 1319 3200 
Q 1131 2863 1032 2486 
Q 934 2109 934 1728 
Q 934 1091 1264 756 
Q 1594 422 2222 422 
Q 2656 422 3056 561 
Q 3456 700 3834 978 
L 3688 231 
Q 3316 72 2936 -9 
Q 2556 -91 2175 -91 
Q 1278 -91 773 396 
Q 269 884 269 1753 
Q 269 2309 461 2846 
Q 653 3384 1013 3828 
Q 1394 4300 1883 4525 
Q 2372 4750 3022 4750 
Q 3422 4750 3780 4639 
Q 4138 4528 4447 4306 
z
" transform="scale(0.015625)"/>
       <path id="DejaVuSans-Oblique-4c" d="M 1075 4666 
L 1709 4666 
L 909 525 
L 3181 525 
L 3078 0 
L 172 0 
L 1075 4666 
z
" transform="scale(0.015625)"/>
       <path id="DejaVuSans-2d" d="M 313 2009 
L 1997 2009 
L 1997 1497 
L 313 1497 
L 313 2009 
z
" transform="scale(0.015625)"/>
      </defs>
      <use xlink:href="#DejaVuSans-Oblique-43" transform="translate(0 0.015625)"/>
      <use xlink:href="#DejaVuSans-Oblique-4c" transform="translate(69.824219 -16.390625) scale(0.7)"/>
      <use xlink:href="#DejaVuSans-20" transform="translate(111.557617 0.015625)"/>
      <use xlink:href="#DejaVuSans-5b" transform="translate(143.344727 0.015625)"/>
      <use xlink:href="#DejaVuSans-2d" transform="translate(182.358398 0.015625)"/>
      <use xlink:href="#DejaVuSans-5d" transform="translate(218.442383 0.015625)"/>
     </g>
    </g>
   </g>
   <g id="line2d_25">
    <path d="M 103.376 341.083172 
L 107.706798 336.266332 
L 112.037596 331.485471 
L 116.368394 326.740587 
L 120.699192 322.031683 
L 125.02999 317.358756 
L 129.360788 312.721808 
L 133.691586 308.120838 
L 138.022384 303.555846 
L 142.353182 299.026832 
L 146.68398 294.533797 
L 151.014778 290.07674 
L 155.345576 285.655661 
L 159.676374 281.270561 
L 164.007172 276.921439 
L 168.33797 272.608295 
L 172.668768 268.331129 
L 176.999566 264.089942 
L 181.330364 259.884732 
L 185.661162 255.715502 
L 189.99196 251.582249 
L 194.322758 247.484975 
L 198.653556 243.423678 
L 202.984354 239.398361 
L 207.315152 235.409021 
L 211.645949 231.45566 
L 215.976747 227.538277 
L 220.307545 223.656872 
L 224.638343 219.811445 
L 228.969141 216.001997 
L 233.299939 212.228527 
L 237.630737 208.491035 
L 241.961535 204.789522 
L 246.292333 201.123987 
L 250.623131 197.49443 
L 254.953929 193.900851 
L 259.284727 190.343251 
L 263.615525 186.821628 
L 267.946323 183.335985 
L 272.277121 179.886319 
L 276.607919 176.472632 
L 280.938717 173.094922 
L 285.269515 169.753192 
L 289.600313 166.447439 
L 293.931111 163.177665 
L 298.261909 159.943869 
L 302.592707 156.746051 
L 306.923505 153.584211 
L 311.254303 150.45835 
L 315.585101 147.368467 
L 319.915899 144.314562 
L 324.246697 141.296636 
L 328.577495 138.314688 
L 332.908293 135.368718 
L 337.239091 132.458726 
L 341.569889 129.584713 
L 345.900687 126.746677 
L 350.231485 123.944621 
L 354.562283 121.178542 
L 358.893081 118.448442 
L 363.223879 115.754319 
L 367.554677 113.096176 
L 371.885475 110.47401 
L 376.216273 107.887823 
L 380.547071 105.337614 
L 384.877869 102.823383 
L 389.208667 100.34513 
L 393.539465 97.902856 
L 397.870263 95.49656 
L 402.201061 93.126242 
L 406.531859 90.791903 
L 410.862657 88.493542 
L 415.193455 86.231159 
L 419.524253 84.004754 
L 423.855051 81.814328 
L 428.185848 79.65988 
L 432.516646 77.54141 
L 436.847444 75.458918 
L 441.178242 73.412405 
L 445.50904 71.40187 
L 449.839838 69.427313 
L 454.170636 67.488734 
L 458.501434 65.586134 
L 462.832232 63.719512 
L 467.16303 61.888868 
L 471.493828 60.094203 
L 475.824626 58.335515 
L 480.155424 56.612806 
L 484.486222 54.926076 
L 488.81702 53.275323 
L 493.147818 51.660549 
L 497.478616 50.081753 
L 501.809414 48.538935 
L 506.140212 47.032096 
L 510.47101 45.561235 
L 514.801808 44.126352 
L 519.132606 42.727447 
L 523.463404 41.364521 
L 527.794202 40.037573 
L 532.125 38.746603 
" clip-path="url(#pab22a65c95)" style="fill: none; stroke-dasharray: 9.6,2.4,1.5,2.4; stroke-dashoffset: 0; stroke: #00a6b6; stroke-width: 1.5"/>
   </g>
   <g id="line2d_26">
    <path d="M 103.376 339.58646 
L 107.706798 334.800907 
L 112.037596 330.051761 
L 116.368394 325.339023 
L 120.699192 320.662694 
L 125.02999 316.022771 
L 129.360788 311.419257 
L 133.691586 306.85215 
L 138.022384 302.321452 
L 142.353182 297.827161 
L 146.68398 293.369277 
L 151.014778 288.947802 
L 155.345576 284.562734 
L 159.676374 280.214074 
L 164.007172 275.901822 
L 168.33797 271.625978 
L 172.668768 267.386541 
L 176.999566 263.183513 
L 181.330364 259.016892 
L 185.661162 254.886678 
L 189.99196 250.792873 
L 194.322758 246.735475 
L 198.653556 242.714485 
L 202.984354 238.729903 
L 207.315152 234.781729 
L 211.645949 230.869963 
L 215.976747 226.994604 
L 220.307545 223.155653 
L 224.638343 219.35311 
L 228.969141 215.586974 
L 233.299939 211.857247 
L 237.630737 208.163927 
L 241.961535 204.507015 
L 246.292333 200.886511 
L 250.623131 197.302414 
L 254.953929 193.754725 
L 259.284727 190.243445 
L 263.615525 186.768571 
L 267.946323 183.330106 
L 272.277121 179.928049 
L 276.607919 176.562399 
L 280.938717 173.233157 
L 285.269515 169.940323 
L 289.600313 166.683896 
L 293.931111 163.463877 
L 298.261909 160.280267 
L 302.592707 157.133063 
L 306.923505 154.022268 
L 311.254303 150.947881 
L 315.585101 147.909901 
L 319.915899 144.908329 
L 324.246697 141.943165 
L 328.577495 139.014408 
L 332.908293 136.12206 
L 337.239091 133.266119 
L 341.569889 130.446586 
L 345.900687 127.663461 
L 350.231485 124.916743 
L 354.562283 122.206433 
L 358.893081 119.532531 
L 363.223879 116.895037 
L 367.554677 114.293951 
L 371.885475 111.729272 
L 376.216273 109.201001 
L 380.547071 106.709138 
L 384.877869 104.253683 
L 389.208667 101.834636 
L 393.539465 99.451996 
L 397.870263 97.105764 
L 402.201061 94.79594 
L 406.531859 92.522524 
L 410.862657 90.285515 
L 415.193455 88.084914 
L 419.524253 85.920721 
L 423.855051 83.792936 
L 428.185848 81.701559 
L 432.516646 79.646589 
L 436.847444 77.628027 
L 441.178242 75.645873 
L 445.50904 73.700127 
L 449.839838 71.790788 
L 454.170636 69.917858 
L 458.501434 68.081335 
L 462.832232 66.28122 
L 467.16303 64.517512 
L 471.493828 62.790213 
L 475.824626 61.099321 
L 480.155424 59.444837 
L 484.486222 57.82676 
L 488.81702 56.245092 
L 493.147818 54.699831 
L 497.478616 53.190978 
L 501.809414 51.718533 
L 506.140212 50.282496 
L 510.47101 48.882866 
L 514.801808 47.519645 
L 519.132606 46.192831 
L 523.463404 44.902424 
L 527.794202 43.648426 
L 532.125 42.430835 
" clip-path="url(#pab22a65c95)" style="fill: none; stroke-dasharray: 9.6,2.4,1.5,2.4; stroke-dashoffset: 0; stroke: #a50034; stroke-width: 1.5"/>
   </g>
   <g id="patch_3">
    <path d="M 103.376 356.2 
L 103.376 23.629775 
" style="fill: none; stroke: #000000; stroke-width: 0.8; stroke-linejoin: miter; stroke-linecap: square"/>
   </g>
   <g id="patch_4">
    <path d="M 532.125 356.2 
L 532.125 23.629775 
" style="fill: none; stroke: #000000; stroke-width: 0.8; stroke-linejoin: miter; stroke-linecap: square"/>
   </g>
   <g id="patch_5">
    <path d="M 103.376 356.2 
L 532.125 356.2 
" style="fill: none; stroke: #000000; stroke-width: 0.8; stroke-linejoin: miter; stroke-linecap: square"/>
   </g>
   <g id="patch_6">
    <path d="M 103.376 23.629775 
L 532.125 23.629775 
" style="fill: none; stroke: #000000; stroke-width: 0.8; stroke-linejoin: miter; stroke-linecap: square"/>
   </g>
   <g id="legend_1">
    <g id="patch_7">
     <path d="M 243.55625 346.2 
L 518.125 346.2 
Q 522.125 346.2 522.125 342.2 
L 522.125 285.4875 
Q 522.125 281.4875 518.125 281.4875 
L 243.55625 281.4875 
Q 239.55625 281.4875 239.55625 285.4875 
L 239.55625 342.2 
Q 239.55625 346.2 243.55625 346.2 
z
" style="fill: #ffffff; opacity: 0.8; stroke: #cccccc; stroke-linejoin: miter"/>
    </g>
    <g id="line2d_27">
     <path d="M 247.55625 297.684375 
L 267.55625 297.684375 
L 287.55625 297.684375 
" style="fill: none; stroke-dasharray: 9.6,2.4,1.5,2.4; stroke-dashoffset: 0; stroke: #00a6b6; stroke-width: 1.5"/>
    </g>
    <g id="text_15">
     <!-- V = 40.0 m/s, J = 1.6 -->
     <g transform="translate(303.55625 304.684375) scale(0.2 -0.2)">
      <defs>
       <path id="DejaVuSans-56" d="M 1831 0 
L 50 4666 
L 709 4666 
L 2188 738 
L 3669 4666 
L 4325 4666 
L 2547 0 
L 1831 0 
z
" transform="scale(0.015625)"/>
       <path id="DejaVuSans-3d" d="M 678 2906 
L 4684 2906 
L 4684 2381 
L 678 2381 
L 678 2906 
z
M 678 1631 
L 4684 1631 
L 4684 1100 
L 678 1100 
L 678 1631 
z
" transform="scale(0.015625)"/>
       <path id="DejaVuSans-6d" d="M 3328 2828 
Q 3544 3216 3844 3400 
Q 4144 3584 4550 3584 
Q 5097 3584 5394 3201 
Q 5691 2819 5691 2113 
L 5691 0 
L 5113 0 
L 5113 2094 
Q 5113 2597 4934 2840 
Q 4756 3084 4391 3084 
Q 3944 3084 3684 2787 
Q 3425 2491 3425 1978 
L 3425 0 
L 2847 0 
L 2847 2094 
Q 2847 2600 2669 2842 
Q 2491 3084 2119 3084 
Q 1678 3084 1418 2786 
Q 1159 2488 1159 1978 
L 1159 0 
L 581 0 
L 581 3500 
L 1159 3500 
L 1159 2956 
Q 1356 3278 1631 3431 
Q 1906 3584 2284 3584 
Q 2666 3584 2933 3390 
Q 3200 3197 3328 2828 
z
" transform="scale(0.015625)"/>
       <path id="DejaVuSans-2f" d="M 1625 4666 
L 2156 4666 
L 531 -594 
L 0 -594 
L 1625 4666 
z
" transform="scale(0.015625)"/>
       <path id="DejaVuSans-73" d="M 2834 3397 
L 2834 2853 
Q 2591 2978 2328 3040 
Q 2066 3103 1784 3103 
Q 1356 3103 1142 2972 
Q 928 2841 928 2578 
Q 928 2378 1081 2264 
Q 1234 2150 1697 2047 
L 1894 2003 
Q 2506 1872 2764 1633 
Q 3022 1394 3022 966 
Q 3022 478 2636 193 
Q 2250 -91 1575 -91 
Q 1294 -91 989 -36 
Q 684 19 347 128 
L 347 722 
Q 666 556 975 473 
Q 1284 391 1588 391 
Q 1994 391 2212 530 
Q 2431 669 2431 922 
Q 2431 1156 2273 1281 
Q 2116 1406 1581 1522 
L 1381 1569 
Q 847 1681 609 1914 
Q 372 2147 372 2553 
Q 372 3047 722 3315 
Q 1072 3584 1716 3584 
Q 2034 3584 2315 3537 
Q 2597 3491 2834 3397 
z
" transform="scale(0.015625)"/>
       <path id="DejaVuSans-2c" d="M 750 794 
L 1409 794 
L 1409 256 
L 897 -744 
L 494 -744 
L 750 256 
L 750 794 
z
" transform="scale(0.015625)"/>
       <path id="DejaVuSans-4a" d="M 628 4666 
L 1259 4666 
L 1259 325 
Q 1259 -519 939 -900 
Q 619 -1281 -91 -1281 
L -331 -1281 
L -331 -750 
L -134 -750 
Q 284 -750 456 -515 
Q 628 -281 628 325 
L 628 4666 
z
" transform="scale(0.015625)"/>
      </defs>
      <use xlink:href="#DejaVuSans-56"/>
      <use xlink:href="#DejaVuSans-20" x="68.408203"/>
      <use xlink:href="#DejaVuSans-3d" x="100.195312"/>
      <use xlink:href="#DejaVuSans-20" x="183.984375"/>
      <use xlink:href="#DejaVuSans-34" x="215.771484"/>
      <use xlink:href="#DejaVuSans-30" x="279.394531"/>
      <use xlink:href="#DejaVuSans-2e" x="343.017578"/>
      <use xlink:href="#DejaVuSans-30" x="374.804688"/>
      <use xlink:href="#DejaVuSans-20" x="438.427734"/>
      <use xlink:href="#DejaVuSans-6d" x="470.214844"/>
      <use xlink:href="#DejaVuSans-2f" x="567.626953"/>
      <use xlink:href="#DejaVuSans-73" x="601.318359"/>
      <use xlink:href="#DejaVuSans-2c" x="653.417969"/>
      <use xlink:href="#DejaVuSans-20" x="685.205078"/>
      <use xlink:href="#DejaVuSans-4a" x="716.992188"/>
      <use xlink:href="#DejaVuSans-20" x="746.484375"/>
      <use xlink:href="#DejaVuSans-3d" x="778.271484"/>
      <use xlink:href="#DejaVuSans-20" x="862.060547"/>
      <use xlink:href="#DejaVuSans-31" x="893.847656"/>
      <use xlink:href="#DejaVuSans-2e" x="957.470703"/>
      <use xlink:href="#DejaVuSans-36" x="989.257812"/>
     </g>
    </g>
    <g id="line2d_28">
     <path d="M 247.55625 327.040625 
L 267.55625 327.040625 
L 287.55625 327.040625 
" style="fill: none; stroke-dasharray: 9.6,2.4,1.5,2.4; stroke-dashoffset: 0; stroke: #a50034; stroke-width: 1.5"/>
    </g>
    <g id="text_16">
     <!-- V = 20.0 m/s, J = 1.6 -->
     <g transform="translate(303.55625 334.040625) scale(0.2 -0.2)">
      <use xlink:href="#DejaVuSans-56"/>
      <use xlink:href="#DejaVuSans-20" x="68.408203"/>
      <use xlink:href="#DejaVuSans-3d" x="100.195312"/>
      <use xlink:href="#DejaVuSans-20" x="183.984375"/>
      <use xlink:href="#DejaVuSans-32" x="215.771484"/>
      <use xlink:href="#DejaVuSans-30" x="279.394531"/>
      <use xlink:href="#DejaVuSans-2e" x="343.017578"/>
      <use xlink:href="#DejaVuSans-30" x="374.804688"/>
      <use xlink:href="#DejaVuSans-20" x="438.427734"/>
      <use xlink:href="#DejaVuSans-6d" x="470.214844"/>
      <use xlink:href="#DejaVuSans-2f" x="567.626953"/>
      <use xlink:href="#DejaVuSans-73" x="601.318359"/>
      <use xlink:href="#DejaVuSans-2c" x="653.417969"/>
      <use xlink:href="#DejaVuSans-20" x="685.205078"/>
      <use xlink:href="#DejaVuSans-4a" x="716.992188"/>
      <use xlink:href="#DejaVuSans-20" x="746.484375"/>
      <use xlink:href="#DejaVuSans-3d" x="778.271484"/>
      <use xlink:href="#DejaVuSans-20" x="862.060547"/>
      <use xlink:href="#DejaVuSans-31" x="893.847656"/>
      <use xlink:href="#DejaVuSans-2e" x="957.470703"/>
      <use xlink:href="#DejaVuSans-36" x="989.257812"/>
     </g>
    </g>
   </g>
  </g>
 </g>
 <defs>
  <clipPath id="pab22a65c95">
   <rect x="103.376" y="23.629775" width="428.749" height="332.570225"/>
  </clipPath>
 </defs>
</svg>
