<?xml version="1.0" encoding="utf-8" standalone="no"?>
<!DOCTYPE svg PUBLIC "-//W3C//DTD SVG 1.1//EN"
  "http://www.w3.org/Graphics/SVG/1.1/DTD/svg11.dtd">
<svg xmlns:xlink="http://www.w3.org/1999/xlink" width="576pt" height="432pt" viewBox="0 0 576 432" xmlns="http://www.w3.org/2000/svg" version="1.1">
 <metadata>
  <rdf:RDF xmlns:dc="http://purl.org/dc/elements/1.1/" xmlns:cc="http://creativecommons.org/ns#" xmlns:rdf="http://www.w3.org/1999/02/22-rdf-syntax-ns#">
   <cc:Work>
    <dc:type rdf:resource="http://purl.org/dc/dcmitype/StillImage"/>
    <dc:date>2024-04-03T17:09:33.355130</dc:date>
    <dc:format>image/svg+xml</dc:format>
    <dc:creator>
     <cc:Agent>
      <dc:title>Matplotlib v3.8.3, https://matplotlib.org/</dc:title>
     </cc:Agent>
    </dc:creator>
   </cc:Work>
  </rdf:RDF>
 </metadata>
 <defs>
  <style type="text/css">*{stroke-linejoin: round; stroke-linecap: butt}</style>
 </defs>
 <g id="figure_1">
  <g id="patch_1">
   <path d="M 0 432 
L 576 432 
L 576 0 
L 0 0 
z
" style="fill: #ffffff"/>
  </g>
  <g id="axes_1">
   <g id="patch_2">
    <path d="M 96.986 356.2 
L 532.125 356.2 
L 532.125 25.522745 
L 96.986 25.522745 
z
" style="fill: #ffffff"/>
   </g>
   <g id="PathCollection_1">
    <defs>
     <path id="m3cb515075c" d="M 0 3 
C 0.795609 3 1.55874 2.683901 2.12132 2.12132 
C 2.683901 1.55874 3 0.795609 3 0 
C 3 -0.795609 2.683901 -1.55874 2.12132 -2.12132 
C 1.55874 -2.683901 0.795609 -3 0 -3 
C -0.795609 -3 -1.55874 -2.683901 -2.12132 -2.12132 
C -2.683901 -1.55874 -3 -0.795609 -3 0 
C -3 0.795609 -2.683901 1.55874 -2.12132 2.12132 
C -1.55874 2.683901 -0.795609 3 0 3 
z
" style="stroke: #00a6b6"/>
    </defs>
    <g clip-path="url(#p294d66520d)">
     <use xlink:href="#m3cb515075c" x="116.406857" y="337.54937" style="fill: #00a6b6; stroke: #00a6b6"/>
     <use xlink:href="#m3cb515075c" x="137.803248" y="308.082119" style="fill: #00a6b6; stroke: #00a6b6"/>
     <use xlink:href="#m3cb515075c" x="159.223283" y="271.029752" style="fill: #00a6b6; stroke: #00a6b6"/>
     <use xlink:href="#m3cb515075c" x="180.645137" y="228.146006" style="fill: #00a6b6; stroke: #00a6b6"/>
     <use xlink:href="#m3cb515075c" x="202.062989" y="181.635786" style="fill: #00a6b6; stroke: #00a6b6"/>
     <use xlink:href="#m3cb515075c" x="223.477932" y="135.797989" style="fill: #00a6b6; stroke: #00a6b6"/>
     <use xlink:href="#m3cb515075c" x="244.877596" y="97.090064" style="fill: #00a6b6; stroke: #00a6b6"/>
     <use xlink:href="#m3cb515075c" x="266.266712" y="67.564346" style="fill: #00a6b6; stroke: #00a6b6"/>
     <use xlink:href="#m3cb515075c" x="287.636186" y="49.05204" style="fill: #00a6b6; stroke: #00a6b6"/>
     <use xlink:href="#m3cb515075c" x="308.984925" y="42.078852" style="fill: #00a6b6; stroke: #00a6b6"/>
     <use xlink:href="#m3cb515075c" x="330.311112" y="42.768241" style="fill: #00a6b6; stroke: #00a6b6"/>
     <use xlink:href="#m3cb515075c" x="351.608927" y="49.319624" style="fill: #00a6b6; stroke: #00a6b6"/>
     <use xlink:href="#m3cb515075c" x="372.857998" y="61.096434" style="fill: #00a6b6; stroke: #00a6b6"/>
     <use xlink:href="#m3cb515075c" x="394.020497" y="75.337849" style="fill: #00a6b6; stroke: #00a6b6"/>
     <use xlink:href="#m3cb515075c" x="414.908" y="88.363106" style="fill: #00a6b6; stroke: #00a6b6"/>
     <use xlink:href="#m3cb515075c" x="435.74094" y="102.345255" style="fill: #00a6b6; stroke: #00a6b6"/>
     <use xlink:href="#m3cb515075c" x="456.743388" y="115.503916" style="fill: #00a6b6; stroke: #00a6b6"/>
     <use xlink:href="#m3cb515075c" x="477.794579" y="126.308604" style="fill: #00a6b6; stroke: #00a6b6"/>
     <use xlink:href="#m3cb515075c" x="498.861775" y="137.999697" style="fill: #00a6b6; stroke: #00a6b6"/>
     <use xlink:href="#m3cb515075c" x="519.865679" y="145.555393" style="fill: #00a6b6; stroke: #00a6b6"/>
    </g>
   </g>
   <g id="PathCollection_2">
    <defs>
     <path id="m7affba41fa" d="M 0 3 
C 0.795609 3 1.55874 2.683901 2.12132 2.12132 
C 2.683901 1.55874 3 0.795609 3 0 
C 3 -0.795609 2.683901 -1.55874 2.12132 -2.12132 
C 1.55874 -2.683901 0.795609 -3 0 -3 
C -0.795609 -3 -1.55874 -2.683901 -2.12132 -2.12132 
C -2.683901 -1.55874 -3 -0.795609 -3 0 
C -3 0.795609 -2.683901 1.55874 -2.12132 2.12132 
C -1.55874 2.683901 -0.795609 3 0 3 
z
" style="stroke: #a50034"/>
    </defs>
    <g clip-path="url(#p294d66520d)">
     <use xlink:href="#m7affba41fa" x="116.616378" y="289.041834" style="fill: #a50034; stroke: #a50034"/>
     <use xlink:href="#m7affba41fa" x="137.978213" y="269.956529" style="fill: #a50034; stroke: #a50034"/>
     <use xlink:href="#m7affba41fa" x="159.35969" y="249.308475" style="fill: #a50034; stroke: #a50034"/>
     <use xlink:href="#m7affba41fa" x="180.73462" y="228.447772" style="fill: #a50034; stroke: #a50034"/>
     <use xlink:href="#m7affba41fa" x="202.122644" y="206.670096" style="fill: #a50034; stroke: #a50034"/>
     <use xlink:href="#m7affba41fa" x="223.520127" y="186.139513" style="fill: #a50034; stroke: #a50034"/>
     <use xlink:href="#m7affba41fa" x="244.889236" y="166.424965" style="fill: #a50034; stroke: #a50034"/>
     <use xlink:href="#m7affba41fa" x="266.277989" y="149.182124" style="fill: #a50034; stroke: #a50034"/>
     <use xlink:href="#m7affba41fa" x="287.649281" y="134.945876" style="fill: #a50034; stroke: #a50034"/>
     <use xlink:href="#m7affba41fa" x="309.01257" y="124.267355" style="fill: #a50034; stroke: #a50034"/>
     <use xlink:href="#m7affba41fa" x="330.367857" y="116.878464" style="fill: #a50034; stroke: #a50034"/>
     <use xlink:href="#m7affba41fa" x="351.683859" y="114.081516" style="fill: #a50034; stroke: #a50034"/>
     <use xlink:href="#m7affba41fa" x="372.964214" y="114.420177" style="fill: #a50034; stroke: #a50034"/>
     <use xlink:href="#m7affba41fa" x="394.12744" y="118.514303" style="fill: #a50034; stroke: #a50034"/>
     <use xlink:href="#m7affba41fa" x="415.151713" y="123.299593" style="fill: #a50034; stroke: #a50034"/>
     <use xlink:href="#m7affba41fa" x="436.090141" y="129.490092" style="fill: #a50034; stroke: #a50034"/>
     <use xlink:href="#m7affba41fa" x="456.908532" y="137.988267" style="fill: #a50034; stroke: #a50034"/>
     <use xlink:href="#m7affba41fa" x="477.924802" y="145.112778" style="fill: #a50034; stroke: #a50034"/>
     <use xlink:href="#m7affba41fa" x="498.741737" y="153.195501" style="fill: #a50034; stroke: #a50034"/>
     <use xlink:href="#m7affba41fa" x="519.804569" y="158.803223" style="fill: #a50034; stroke: #a50034"/>
    </g>
   </g>
   <g id="matplotlib.axis_1">
    <g id="xtick_1">
     <g id="line2d_1">
      <path d="M 96.986 356.2 
L 96.986 25.522745 
" clip-path="url(#p294d66520d)" style="fill: none; stroke: #b0b0b0; stroke-width: 0.8; stroke-linecap: square"/>
     </g>
     <g id="line2d_2">
      <defs>
       <path id="m70a1e1b2f2" d="M 0 0 
L 0 3.5 
" style="stroke: #000000; stroke-width: 0.8"/>
      </defs>
      <g>
       <use xlink:href="#m70a1e1b2f2" x="96.986" y="356.2" style="stroke: #000000; stroke-width: 0.8"/>
      </g>
     </g>
     <g id="text_1">
      <!-- −6.0 -->
      <g transform="translate(72.703188 378.396875) scale(0.2 -0.2)">
       <defs>
        <path id="DejaVuSans-2212" d="M 678 2272 
L 4684 2272 
L 4684 1741 
L 678 1741 
L 678 2272 
z
" transform="scale(0.015625)"/>
        <path id="DejaVuSans-36" d="M 2113 2584 
Q 1688 2584 1439 2293 
Q 1191 2003 1191 1497 
Q 1191 994 1439 701 
Q 1688 409 2113 409 
Q 2538 409 2786 701 
Q 3034 994 3034 1497 
Q 3034 2003 2786 2293 
Q 2538 2584 2113 2584 
z
M 3366 4563 
L 3366 3988 
Q 3128 4100 2886 4159 
Q 2644 4219 2406 4219 
Q 1781 4219 1451 3797 
Q 1122 3375 1075 2522 
Q 1259 2794 1537 2939 
Q 1816 3084 2150 3084 
Q 2853 3084 3261 2657 
Q 3669 2231 3669 1497 
Q 3669 778 3244 343 
Q 2819 -91 2113 -91 
Q 1303 -91 875 529 
Q 447 1150 447 2328 
Q 447 3434 972 4092 
Q 1497 4750 2381 4750 
Q 2619 4750 2861 4703 
Q 3103 4656 3366 4563 
z
" transform="scale(0.015625)"/>
        <path id="DejaVuSans-2e" d="M 684 794 
L 1344 794 
L 1344 0 
L 684 0 
L 684 794 
z
" transform="scale(0.015625)"/>
        <path id="DejaVuSans-30" d="M 2034 4250 
Q 1547 4250 1301 3770 
Q 1056 3291 1056 2328 
Q 1056 1369 1301 889 
Q 1547 409 2034 409 
Q 2525 409 2770 889 
Q 3016 1369 3016 2328 
Q 3016 3291 2770 3770 
Q 2525 4250 2034 4250 
z
M 2034 4750 
Q 2819 4750 3233 4129 
Q 3647 3509 3647 2328 
Q 3647 1150 3233 529 
Q 2819 -91 2034 -91 
Q 1250 -91 836 529 
Q 422 1150 422 2328 
Q 422 3509 836 4129 
Q 1250 4750 2034 4750 
z
" transform="scale(0.015625)"/>
       </defs>
       <use xlink:href="#DejaVuSans-2212"/>
       <use xlink:href="#DejaVuSans-36" x="83.789062"/>
       <use xlink:href="#DejaVuSans-2e" x="147.412109"/>
       <use xlink:href="#DejaVuSans-30" x="179.199219"/>
      </g>
     </g>
    </g>
    <g id="xtick_2">
     <g id="line2d_3">
      <path d="M 169.509167 356.2 
L 169.509167 25.522745 
" clip-path="url(#p294d66520d)" style="fill: none; stroke: #b0b0b0; stroke-width: 0.8; stroke-linecap: square"/>
     </g>
     <g id="line2d_4">
      <g>
       <use xlink:href="#m70a1e1b2f2" x="169.509167" y="356.2" style="stroke: #000000; stroke-width: 0.8"/>
      </g>
     </g>
     <g id="text_2">
      <!-- −2.5 -->
      <g transform="translate(145.226354 378.396875) scale(0.2 -0.2)">
       <defs>
        <path id="DejaVuSans-32" d="M 1228 531 
L 3431 531 
L 3431 0 
L 469 0 
L 469 531 
Q 828 903 1448 1529 
Q 2069 2156 2228 2338 
Q 2531 2678 2651 2914 
Q 2772 3150 2772 3378 
Q 2772 3750 2511 3984 
Q 2250 4219 1831 4219 
Q 1534 4219 1204 4116 
Q 875 4013 500 3803 
L 500 4441 
Q 881 4594 1212 4672 
Q 1544 4750 1819 4750 
Q 2544 4750 2975 4387 
Q 3406 4025 3406 3419 
Q 3406 3131 3298 2873 
Q 3191 2616 2906 2266 
Q 2828 2175 2409 1742 
Q 1991 1309 1228 531 
z
" transform="scale(0.015625)"/>
        <path id="DejaVuSans-35" d="M 691 4666 
L 3169 4666 
L 3169 4134 
L 1269 4134 
L 1269 2991 
Q 1406 3038 1543 3061 
Q 1681 3084 1819 3084 
Q 2600 3084 3056 2656 
Q 3513 2228 3513 1497 
Q 3513 744 3044 326 
Q 2575 -91 1722 -91 
Q 1428 -91 1123 -41 
Q 819 9 494 109 
L 494 744 
Q 775 591 1075 516 
Q 1375 441 1709 441 
Q 2250 441 2565 725 
Q 2881 1009 2881 1497 
Q 2881 1984 2565 2268 
Q 2250 2553 1709 2553 
Q 1456 2553 1204 2497 
Q 953 2441 691 2322 
L 691 4666 
z
" transform="scale(0.015625)"/>
       </defs>
       <use xlink:href="#DejaVuSans-2212"/>
       <use xlink:href="#DejaVuSans-32" x="83.789062"/>
       <use xlink:href="#DejaVuSans-2e" x="147.412109"/>
       <use xlink:href="#DejaVuSans-35" x="179.199219"/>
      </g>
     </g>
    </g>
    <g id="xtick_3">
     <g id="line2d_5">
      <path d="M 242.032333 356.2 
L 242.032333 25.522745 
" clip-path="url(#p294d66520d)" style="fill: none; stroke: #b0b0b0; stroke-width: 0.8; stroke-linecap: square"/>
     </g>
     <g id="line2d_6">
      <g>
       <use xlink:href="#m70a1e1b2f2" x="242.032333" y="356.2" style="stroke: #000000; stroke-width: 0.8"/>
      </g>
     </g>
     <g id="text_3">
      <!-- 1.0 -->
      <g transform="translate(226.129208 378.396875) scale(0.2 -0.2)">
       <defs>
        <path id="DejaVuSans-31" d="M 794 531 
L 1825 531 
L 1825 4091 
L 703 3866 
L 703 4441 
L 1819 4666 
L 2450 4666 
L 2450 531 
L 3481 531 
L 3481 0 
L 794 0 
L 794 531 
z
" transform="scale(0.015625)"/>
       </defs>
       <use xlink:href="#DejaVuSans-31"/>
       <use xlink:href="#DejaVuSans-2e" x="63.623047"/>
       <use xlink:href="#DejaVuSans-30" x="95.410156"/>
      </g>
     </g>
    </g>
    <g id="xtick_4">
     <g id="line2d_7">
      <path d="M 314.5555 356.2 
L 314.5555 25.522745 
" clip-path="url(#p294d66520d)" style="fill: none; stroke: #b0b0b0; stroke-width: 0.8; stroke-linecap: square"/>
     </g>
     <g id="line2d_8">
      <g>
       <use xlink:href="#m70a1e1b2f2" x="314.5555" y="356.2" style="stroke: #000000; stroke-width: 0.8"/>
      </g>
     </g>
     <g id="text_4">
      <!-- 4.5 -->
      <g transform="translate(298.652375 378.396875) scale(0.2 -0.2)">
       <defs>
        <path id="DejaVuSans-34" d="M 2419 4116 
L 825 1625 
L 2419 1625 
L 2419 4116 
z
M 2253 4666 
L 3047 4666 
L 3047 1625 
L 3713 1625 
L 3713 1100 
L 3047 1100 
L 3047 0 
L 2419 0 
L 2419 1100 
L 313 1100 
L 313 1709 
L 2253 4666 
z
" transform="scale(0.015625)"/>
       </defs>
       <use xlink:href="#DejaVuSans-34"/>
       <use xlink:href="#DejaVuSans-2e" x="63.623047"/>
       <use xlink:href="#DejaVuSans-35" x="95.410156"/>
      </g>
     </g>
    </g>
    <g id="xtick_5">
     <g id="line2d_9">
      <path d="M 387.078667 356.2 
L 387.078667 25.522745 
" clip-path="url(#p294d66520d)" style="fill: none; stroke: #b0b0b0; stroke-width: 0.8; stroke-linecap: square"/>
     </g>
     <g id="line2d_10">
      <g>
       <use xlink:href="#m70a1e1b2f2" x="387.078667" y="356.2" style="stroke: #000000; stroke-width: 0.8"/>
      </g>
     </g>
     <g id="text_5">
      <!-- 8.0 -->
      <g transform="translate(371.175542 378.396875) scale(0.2 -0.2)">
       <defs>
        <path id="DejaVuSans-38" d="M 2034 2216 
Q 1584 2216 1326 1975 
Q 1069 1734 1069 1313 
Q 1069 891 1326 650 
Q 1584 409 2034 409 
Q 2484 409 2743 651 
Q 3003 894 3003 1313 
Q 3003 1734 2745 1975 
Q 2488 2216 2034 2216 
z
M 1403 2484 
Q 997 2584 770 2862 
Q 544 3141 544 3541 
Q 544 4100 942 4425 
Q 1341 4750 2034 4750 
Q 2731 4750 3128 4425 
Q 3525 4100 3525 3541 
Q 3525 3141 3298 2862 
Q 3072 2584 2669 2484 
Q 3125 2378 3379 2068 
Q 3634 1759 3634 1313 
Q 3634 634 3220 271 
Q 2806 -91 2034 -91 
Q 1263 -91 848 271 
Q 434 634 434 1313 
Q 434 1759 690 2068 
Q 947 2378 1403 2484 
z
M 1172 3481 
Q 1172 3119 1398 2916 
Q 1625 2713 2034 2713 
Q 2441 2713 2670 2916 
Q 2900 3119 2900 3481 
Q 2900 3844 2670 4047 
Q 2441 4250 2034 4250 
Q 1625 4250 1398 4047 
Q 1172 3844 1172 3481 
z
" transform="scale(0.015625)"/>
       </defs>
       <use xlink:href="#DejaVuSans-38"/>
       <use xlink:href="#DejaVuSans-2e" x="63.623047"/>
       <use xlink:href="#DejaVuSans-30" x="95.410156"/>
      </g>
     </g>
    </g>
    <g id="xtick_6">
     <g id="line2d_11">
      <path d="M 459.601833 356.2 
L 459.601833 25.522745 
" clip-path="url(#p294d66520d)" style="fill: none; stroke: #b0b0b0; stroke-width: 0.8; stroke-linecap: square"/>
     </g>
     <g id="line2d_12">
      <g>
       <use xlink:href="#m70a1e1b2f2" x="459.601833" y="356.2" style="stroke: #000000; stroke-width: 0.8"/>
      </g>
     </g>
     <g id="text_6">
      <!-- 11.5 -->
      <g transform="translate(437.336208 378.396875) scale(0.2 -0.2)">
       <use xlink:href="#DejaVuSans-31"/>
       <use xlink:href="#DejaVuSans-31" x="63.623047"/>
       <use xlink:href="#DejaVuSans-2e" x="127.246094"/>
       <use xlink:href="#DejaVuSans-35" x="159.033203"/>
      </g>
     </g>
    </g>
    <g id="xtick_7">
     <g id="line2d_13">
      <path d="M 532.125 356.2 
L 532.125 25.522745 
" clip-path="url(#p294d66520d)" style="fill: none; stroke: #b0b0b0; stroke-width: 0.8; stroke-linecap: square"/>
     </g>
     <g id="line2d_14">
      <g>
       <use xlink:href="#m70a1e1b2f2" x="532.125" y="356.2" style="stroke: #000000; stroke-width: 0.8"/>
      </g>
     </g>
     <g id="text_7">
      <!-- 15.0 -->
      <g transform="translate(509.859375 378.396875) scale(0.2 -0.2)">
       <use xlink:href="#DejaVuSans-31"/>
       <use xlink:href="#DejaVuSans-35" x="63.623047"/>
       <use xlink:href="#DejaVuSans-2e" x="127.246094"/>
       <use xlink:href="#DejaVuSans-30" x="159.033203"/>
      </g>
     </g>
    </g>
    <g id="text_8">
     <!-- $\alpha$ [deg] -->
     <g transform="translate(278.0555 401.75625) scale(0.2 -0.2)">
      <defs>
       <path id="DejaVuSans-Oblique-3b1" d="M 2619 1628 
L 2622 2350 
Q 2625 3088 2069 3091 
Q 1653 3094 1394 2747 
Q 1069 2319 959 1747 
Q 825 1059 994 731 
Q 1169 397 1547 397 
Q 1966 397 2319 1063 
L 2619 1628 
z
M 2166 3578 
Q 3141 3594 3128 2584 
Q 3128 2584 3616 3500 
L 4128 3500 
L 3119 1603 
L 3109 919 
Q 3109 766 3194 638 
Q 3291 488 3391 488 
L 3669 488 
L 3575 0 
L 3228 0 
Q 2934 0 2722 263 
Q 2622 394 2619 669 
Q 2416 334 2066 50 
Q 1900 -81 1453 -78 
Q 722 -72 456 397 
Q 184 884 353 1747 
Q 534 2675 1009 3097 
Q 1544 3569 2166 3578 
z
" transform="scale(0.015625)"/>
       <path id="DejaVuSans-20" transform="scale(0.015625)"/>
       <path id="DejaVuSans-5b" d="M 550 4863 
L 1875 4863 
L 1875 4416 
L 1125 4416 
L 1125 -397 
L 1875 -397 
L 1875 -844 
L 550 -844 
L 550 4863 
z
" transform="scale(0.015625)"/>
       <path id="DejaVuSans-64" d="M 2906 2969 
L 2906 4863 
L 3481 4863 
L 3481 0 
L 2906 0 
L 2906 525 
Q 2725 213 2448 61 
Q 2172 -91 1784 -91 
Q 1150 -91 751 415 
Q 353 922 353 1747 
Q 353 2572 751 3078 
Q 1150 3584 1784 3584 
Q 2172 3584 2448 3432 
Q 2725 3281 2906 2969 
z
M 947 1747 
Q 947 1113 1208 752 
Q 1469 391 1925 391 
Q 2381 391 2643 752 
Q 2906 1113 2906 1747 
Q 2906 2381 2643 2742 
Q 2381 3103 1925 3103 
Q 1469 3103 1208 2742 
Q 947 2381 947 1747 
z
" transform="scale(0.015625)"/>
       <path id="DejaVuSans-65" d="M 3597 1894 
L 3597 1613 
L 953 1613 
Q 991 1019 1311 708 
Q 1631 397 2203 397 
Q 2534 397 2845 478 
Q 3156 559 3463 722 
L 3463 178 
Q 3153 47 2828 -22 
Q 2503 -91 2169 -91 
Q 1331 -91 842 396 
Q 353 884 353 1716 
Q 353 2575 817 3079 
Q 1281 3584 2069 3584 
Q 2775 3584 3186 3129 
Q 3597 2675 3597 1894 
z
M 3022 2063 
Q 3016 2534 2758 2815 
Q 2500 3097 2075 3097 
Q 1594 3097 1305 2825 
Q 1016 2553 972 2059 
L 3022 2063 
z
" transform="scale(0.015625)"/>
       <path id="DejaVuSans-67" d="M 2906 1791 
Q 2906 2416 2648 2759 
Q 2391 3103 1925 3103 
Q 1463 3103 1205 2759 
Q 947 2416 947 1791 
Q 947 1169 1205 825 
Q 1463 481 1925 481 
Q 2391 481 2648 825 
Q 2906 1169 2906 1791 
z
M 3481 434 
Q 3481 -459 3084 -895 
Q 2688 -1331 1869 -1331 
Q 1566 -1331 1297 -1286 
Q 1028 -1241 775 -1147 
L 775 -588 
Q 1028 -725 1275 -790 
Q 1522 -856 1778 -856 
Q 2344 -856 2625 -561 
Q 2906 -266 2906 331 
L 2906 616 
Q 2728 306 2450 153 
Q 2172 0 1784 0 
Q 1141 0 747 490 
Q 353 981 353 1791 
Q 353 2603 747 3093 
Q 1141 3584 1784 3584 
Q 2172 3584 2450 3431 
Q 2728 3278 2906 2969 
L 2906 3500 
L 3481 3500 
L 3481 434 
z
" transform="scale(0.015625)"/>
       <path id="DejaVuSans-5d" d="M 1947 4863 
L 1947 -844 
L 622 -844 
L 622 -397 
L 1369 -397 
L 1369 4416 
L 622 4416 
L 622 4863 
L 1947 4863 
z
" transform="scale(0.015625)"/>
      </defs>
      <use xlink:href="#DejaVuSans-Oblique-3b1" transform="translate(0 0.015625)"/>
      <use xlink:href="#DejaVuSans-20" transform="translate(65.917969 0.015625)"/>
      <use xlink:href="#DejaVuSans-5b" transform="translate(97.705078 0.015625)"/>
      <use xlink:href="#DejaVuSans-64" transform="translate(136.71875 0.015625)"/>
      <use xlink:href="#DejaVuSans-65" transform="translate(200.195312 0.015625)"/>
      <use xlink:href="#DejaVuSans-67" transform="translate(261.71875 0.015625)"/>
      <use xlink:href="#DejaVuSans-5d" transform="translate(325.195312 0.015625)"/>
     </g>
    </g>
   </g>
   <g id="matplotlib.axis_2">
    <g id="ytick_1">
     <g id="line2d_15">
      <path d="M 96.986 330.382218 
L 532.125 330.382218 
" clip-path="url(#p294d66520d)" style="fill: none; stroke: #b0b0b0; stroke-width: 0.8; stroke-linecap: square"/>
     </g>
     <g id="line2d_16">
      <defs>
       <path id="md9a0df27d0" d="M 0 0 
L -3.5 0 
" style="stroke: #000000; stroke-width: 0.8"/>
      </defs>
      <g>
       <use xlink:href="#md9a0df27d0" x="96.986" y="330.382218" style="stroke: #000000; stroke-width: 0.8"/>
      </g>
     </g>
     <g id="text_9">
      <!-- −10 -->
      <g transform="translate(47.776625 337.980656) scale(0.2 -0.2)">
       <use xlink:href="#DejaVuSans-2212"/>
       <use xlink:href="#DejaVuSans-31" x="83.789062"/>
       <use xlink:href="#DejaVuSans-30" x="147.412109"/>
      </g>
     </g>
    </g>
    <g id="ytick_2">
     <g id="line2d_17">
      <path d="M 96.986 280.234584 
L 532.125 280.234584 
" clip-path="url(#p294d66520d)" style="fill: none; stroke: #b0b0b0; stroke-width: 0.8; stroke-linecap: square"/>
     </g>
     <g id="line2d_18">
      <g>
       <use xlink:href="#md9a0df27d0" x="96.986" y="280.234584" style="stroke: #000000; stroke-width: 0.8"/>
      </g>
     </g>
     <g id="text_10">
      <!-- −5 -->
      <g transform="translate(60.501625 287.833022) scale(0.2 -0.2)">
       <use xlink:href="#DejaVuSans-2212"/>
       <use xlink:href="#DejaVuSans-35" x="83.789062"/>
      </g>
     </g>
    </g>
    <g id="ytick_3">
     <g id="line2d_19">
      <path d="M 96.986 230.08695 
L 532.125 230.08695 
" clip-path="url(#p294d66520d)" style="fill: none; stroke: #b0b0b0; stroke-width: 0.8; stroke-linecap: square"/>
     </g>
     <g id="line2d_20">
      <g>
       <use xlink:href="#md9a0df27d0" x="96.986" y="230.08695" style="stroke: #000000; stroke-width: 0.8"/>
      </g>
     </g>
     <g id="text_11">
      <!-- 0 -->
      <g transform="translate(77.261 237.685388) scale(0.2 -0.2)">
       <use xlink:href="#DejaVuSans-30"/>
      </g>
     </g>
    </g>
    <g id="ytick_4">
     <g id="line2d_21">
      <path d="M 96.986 179.939316 
L 532.125 179.939316 
" clip-path="url(#p294d66520d)" style="fill: none; stroke: #b0b0b0; stroke-width: 0.8; stroke-linecap: square"/>
     </g>
     <g id="line2d_22">
      <g>
       <use xlink:href="#md9a0df27d0" x="96.986" y="179.939316" style="stroke: #000000; stroke-width: 0.8"/>
      </g>
     </g>
     <g id="text_12">
      <!-- 5 -->
      <g transform="translate(77.261 187.537754) scale(0.2 -0.2)">
       <use xlink:href="#DejaVuSans-35"/>
      </g>
     </g>
    </g>
    <g id="ytick_5">
     <g id="line2d_23">
      <path d="M 96.986 129.791682 
L 532.125 129.791682 
" clip-path="url(#p294d66520d)" style="fill: none; stroke: #b0b0b0; stroke-width: 0.8; stroke-linecap: square"/>
     </g>
     <g id="line2d_24">
      <g>
       <use xlink:href="#md9a0df27d0" x="96.986" y="129.791682" style="stroke: #000000; stroke-width: 0.8"/>
      </g>
     </g>
     <g id="text_13">
      <!-- 10 -->
      <g transform="translate(64.536 137.39012) scale(0.2 -0.2)">
       <use xlink:href="#DejaVuSans-31"/>
       <use xlink:href="#DejaVuSans-30" x="63.623047"/>
      </g>
     </g>
    </g>
    <g id="ytick_6">
     <g id="line2d_25">
      <path d="M 96.986 79.644048 
L 532.125 79.644048 
" clip-path="url(#p294d66520d)" style="fill: none; stroke: #b0b0b0; stroke-width: 0.8; stroke-linecap: square"/>
     </g>
     <g id="line2d_26">
      <g>
       <use xlink:href="#md9a0df27d0" x="96.986" y="79.644048" style="stroke: #000000; stroke-width: 0.8"/>
      </g>
     </g>
     <g id="text_14">
      <!-- 15 -->
      <g transform="translate(64.536 87.242486) scale(0.2 -0.2)">
       <use xlink:href="#DejaVuSans-31"/>
       <use xlink:href="#DejaVuSans-35" x="63.623047"/>
      </g>
     </g>
    </g>
    <g id="ytick_7">
     <g id="line2d_27">
      <path d="M 96.986 29.496414 
L 532.125 29.496414 
" clip-path="url(#p294d66520d)" style="fill: none; stroke: #b0b0b0; stroke-width: 0.8; stroke-linecap: square"/>
     </g>
     <g id="line2d_28">
      <g>
       <use xlink:href="#md9a0df27d0" x="96.986" y="29.496414" style="stroke: #000000; stroke-width: 0.8"/>
      </g>
     </g>
     <g id="text_15">
      <!-- 20 -->
      <g transform="translate(64.536 37.094852) scale(0.2 -0.2)">
       <use xlink:href="#DejaVuSans-32"/>
       <use xlink:href="#DejaVuSans-30" x="63.623047"/>
      </g>
     </g>
    </g>
    <g id="text_16">
     <!-- $C_L$/$C_D$ [-] -->
     <g transform="translate(39.61725 232.661372) rotate(-90) scale(0.2 -0.2)">
      <defs>
       <path id="DejaVuSans-Oblique-43" d="M 4447 4306 
L 4319 3641 
Q 4019 3944 3683 4091 
Q 3347 4238 2956 4238 
Q 2422 4238 2017 3981 
Q 1613 3725 1319 3200 
Q 1131 2863 1032 2486 
Q 934 2109 934 1728 
Q 934 1091 1264 756 
Q 1594 422 2222 422 
Q 2656 422 3056 561 
Q 3456 700 3834 978 
L 3688 231 
Q 3316 72 2936 -9 
Q 2556 -91 2175 -91 
Q 1278 -91 773 396 
Q 269 884 269 1753 
Q 269 2309 461 2846 
Q 653 3384 1013 3828 
Q 1394 4300 1883 4525 
Q 2372 4750 3022 4750 
Q 3422 4750 3780 4639 
Q 4138 4528 4447 4306 
z
" transform="scale(0.015625)"/>
       <path id="DejaVuSans-Oblique-4c" d="M 1075 4666 
L 1709 4666 
L 909 525 
L 3181 525 
L 3078 0 
L 172 0 
L 1075 4666 
z
" transform="scale(0.015625)"/>
       <path id="DejaVuSans-2f" d="M 1625 4666 
L 2156 4666 
L 531 -594 
L 0 -594 
L 1625 4666 
z
" transform="scale(0.015625)"/>
       <path id="DejaVuSans-Oblique-44" d="M 1081 4666 
L 2438 4666 
Q 3519 4666 4070 4208 
Q 4622 3750 4622 2847 
Q 4622 2250 4412 1698 
Q 4203 1147 3834 769 
Q 3463 381 2891 190 
Q 2319 0 1538 0 
L 172 0 
L 1081 4666 
z
M 1613 4147 
L 909 519 
L 1734 519 
Q 2794 519 3375 1128 
Q 3956 1738 3956 2847 
Q 3956 3519 3581 3833 
Q 3206 4147 2406 4147 
L 1613 4147 
z
" transform="scale(0.015625)"/>
       <path id="DejaVuSans-2d" d="M 313 2009 
L 1997 2009 
L 1997 1497 
L 313 1497 
L 313 2009 
z
" transform="scale(0.015625)"/>
      </defs>
      <use xlink:href="#DejaVuSans-Oblique-43" transform="translate(0 0.015625)"/>
      <use xlink:href="#DejaVuSans-Oblique-4c" transform="translate(69.824219 -16.390625) scale(0.7)"/>
      <use xlink:href="#DejaVuSans-2f" transform="translate(111.557617 0.015625)"/>
      <use xlink:href="#DejaVuSans-Oblique-43" transform="translate(145.249023 0.015625)"/>
      <use xlink:href="#DejaVuSans-Oblique-44" transform="translate(215.073242 -16.390625) scale(0.7)"/>
      <use xlink:href="#DejaVuSans-20" transform="translate(271.708984 0.015625)"/>
      <use xlink:href="#DejaVuSans-5b" transform="translate(303.496094 0.015625)"/>
      <use xlink:href="#DejaVuSans-2d" transform="translate(342.509766 0.015625)"/>
      <use xlink:href="#DejaVuSans-5d" transform="translate(378.59375 0.015625)"/>
     </g>
    </g>
   </g>
   <g id="line2d_29">
    <path d="M 96.986 340.204658 
L 101.381343 341.169216 
L 105.776687 340.956718 
L 110.17203 339.645734 
L 114.567374 337.313188 
L 118.962717 334.034317 
L 123.358061 329.882613 
L 127.753404 324.92978 
L 132.148747 319.245688 
L 136.544091 312.898332 
L 140.939434 305.953793 
L 145.334778 298.476203 
L 149.730121 290.527709 
L 154.125465 282.168445 
L 158.520808 273.456502 
L 162.916152 264.447902 
L 167.311495 255.196577 
L 171.706838 245.754351 
L 176.102182 236.170916 
L 180.497525 226.493825 
L 184.892869 216.768475 
L 189.288212 207.038101 
L 193.683556 197.343768 
L 198.078899 187.724366 
L 202.474242 178.216611 
L 206.869586 168.855048 
L 211.264929 159.672052 
L 215.660273 150.697836 
L 220.055616 141.960462 
L 224.45096 133.485853 
L 228.846303 125.297809 
L 233.241646 117.418021 
L 237.63699 109.866097 
L 242.032333 102.659583 
L 246.427677 95.813987 
L 250.82302 89.342811 
L 255.218364 83.257581 
L 259.613707 77.56788 
L 264.009051 72.281386 
L 268.404394 67.403913 
L 272.799737 62.939451 
L 277.195081 58.890211 
L 281.590424 55.256673 
L 285.985768 52.037639 
L 290.381111 49.230281 
L 294.776455 46.8302 
L 299.171798 44.831486 
L 303.567141 43.226775 
L 307.962485 42.007315 
L 312.357828 41.163034 
L 316.753172 40.682607 
L 321.148515 40.553529 
L 325.543859 40.762189 
L 329.939202 41.293949 
L 334.334545 42.133222 
L 338.729889 43.263556 
L 343.125232 44.667721 
L 347.520576 46.327794 
L 351.915919 48.225252 
L 356.311263 50.341064 
L 360.706606 52.655791 
L 365.101949 55.14968 
L 369.497293 57.80277 
L 373.892636 60.594995 
L 378.28798 63.506288 
L 382.683323 66.516698 
L 387.078667 69.606495 
L 391.47401 72.756289 
L 395.869354 75.947149 
L 400.264697 79.160722 
L 404.66004 82.379355 
L 409.055384 85.586224 
L 413.450727 88.765462 
L 417.846071 91.902288 
L 422.241414 94.983146 
L 426.636758 97.995837 
L 431.032101 100.92966 
L 435.427444 103.775558 
L 439.822788 106.526257 
L 444.218131 109.176419 
L 448.613475 111.722789 
L 453.008818 114.16435 
L 457.404162 116.502477 
L 461.799505 118.741097 
L 466.194848 120.886852 
L 470.590192 122.949259 
L 474.985535 124.940879 
L 479.380879 126.877485 
L 483.776222 128.778237 
L 488.171566 130.665853 
L 492.566909 132.56679 
L 496.962253 134.51142 
L 501.357596 136.534218 
L 505.752939 138.673944 
L 510.148283 140.97383 
L 514.543626 143.481778 
L 518.93897 146.250543 
L 523.334313 149.337941 
L 527.729657 152.807039 
L 532.125 156.72636 
" clip-path="url(#p294d66520d)" style="fill: none; stroke-dasharray: 9.6,2.4,1.5,2.4; stroke-dashoffset: 0; stroke: #00a6b6; stroke-width: 1.5"/>
   </g>
   <g id="line2d_30">
    <path d="M 96.986 306.001004 
L 101.381343 302.230931 
L 105.776687 298.454332 
L 110.17203 294.661052 
L 114.567374 290.842504 
L 118.962717 286.991589 
L 123.358061 283.102608 
L 127.753404 279.171185 
L 132.148747 275.194186 
L 136.544091 271.169643 
L 140.939434 267.096678 
L 145.334778 262.975427 
L 149.730121 258.806974 
L 154.125465 254.593275 
L 158.520808 250.337091 
L 162.916152 246.041922 
L 167.311495 241.711943 
L 171.706838 237.35194 
L 176.102182 232.967247 
L 180.497525 228.563689 
L 184.892869 224.147522 
L 189.288212 219.725379 
L 193.683556 215.304214 
L 198.078899 210.891251 
L 202.474242 206.49393 
L 206.869586 202.119862 
L 211.264929 197.776779 
L 215.660273 193.472491 
L 220.055616 189.214839 
L 224.45096 185.011655 
L 228.846303 180.870723 
L 233.241646 176.799738 
L 237.63699 172.806269 
L 242.032333 168.897729 
L 246.427677 165.081336 
L 250.82302 161.364084 
L 255.218364 157.752714 
L 259.613707 154.253686 
L 264.009051 150.873152 
L 268.404394 147.616932 
L 272.799737 144.490492 
L 277.195081 141.498923 
L 281.590424 138.646921 
L 285.985768 135.938772 
L 290.381111 133.378334 
L 294.776455 130.969024 
L 299.171798 128.713808 
L 303.567141 126.615188 
L 307.962485 124.675194 
L 312.357828 122.895382 
L 316.753172 121.27682 
L 321.148515 119.820093 
L 325.543859 118.525299 
L 329.939202 117.392049 
L 334.334545 116.419467 
L 338.729889 115.6062 
L 343.125232 114.950417 
L 347.520576 114.449821 
L 351.915919 114.101655 
L 356.311263 113.902716 
L 360.706606 113.849366 
L 365.101949 113.937546 
L 369.497293 114.162796 
L 373.892636 114.520267 
L 378.28798 115.004744 
L 382.683323 115.610671 
L 387.078667 116.332167 
L 391.47401 117.163058 
L 395.869354 118.0969 
L 400.264697 119.127007 
L 404.66004 120.246485 
L 409.055384 121.448261 
L 413.450727 122.72512 
L 417.846071 124.069736 
L 422.241414 125.474714 
L 426.636758 126.932627 
L 431.032101 128.436058 
L 435.427444 129.977641 
L 439.822788 131.550109 
L 444.218131 133.146336 
L 448.613475 134.759387 
L 453.008818 136.382569 
L 457.404162 138.009483 
L 461.799505 139.634072 
L 466.194848 141.250683 
L 470.590192 142.85412 
L 474.985535 144.439704 
L 479.380879 146.003333 
L 483.776222 147.541542 
L 488.171566 149.051572 
L 492.566909 150.531431 
L 496.962253 151.979964 
L 501.357596 153.396921 
L 505.752939 154.783029 
L 510.148283 156.140064 
L 514.543626 157.470926 
L 518.93897 158.779715 
L 523.334313 160.071808 
L 527.729657 161.353942 
L 532.125 162.634292 
" clip-path="url(#p294d66520d)" style="fill: none; stroke-dasharray: 9.6,2.4,1.5,2.4; stroke-dashoffset: 0; stroke: #a50034; stroke-width: 1.5"/>
   </g>
   <g id="patch_3">
    <path d="M 96.986 356.2 
L 96.986 25.522745 
" style="fill: none; stroke: #000000; stroke-width: 0.8; stroke-linejoin: miter; stroke-linecap: square"/>
   </g>
   <g id="patch_4">
    <path d="M 532.125 356.2 
L 532.125 25.522745 
" style="fill: none; stroke: #000000; stroke-width: 0.8; stroke-linejoin: miter; stroke-linecap: square"/>
   </g>
   <g id="patch_5">
    <path d="M 96.986 356.2 
L 532.125 356.2 
" style="fill: none; stroke: #000000; stroke-width: 0.8; stroke-linejoin: miter; stroke-linecap: square"/>
   </g>
   <g id="patch_6">
    <path d="M 96.986 25.522745 
L 532.125 25.522745 
" style="fill: none; stroke: #000000; stroke-width: 0.8; stroke-linejoin: miter; stroke-linecap: square"/>
   </g>
   <g id="legend_1">
    <g id="patch_7">
     <path d="M 243.55625 346.2 
L 518.125 346.2 
Q 522.125 346.2 522.125 342.2 
L 522.125 285.4875 
Q 522.125 281.4875 518.125 281.4875 
L 243.55625 281.4875 
Q 239.55625 281.4875 239.55625 285.4875 
L 239.55625 342.2 
Q 239.55625 346.2 243.55625 346.2 
z
" style="fill: #ffffff; opacity: 0.8; stroke: #cccccc; stroke-linejoin: miter"/>
    </g>
    <g id="line2d_31">
     <path d="M 247.55625 297.684375 
L 267.55625 297.684375 
L 287.55625 297.684375 
" style="fill: none; stroke-dasharray: 9.6,2.4,1.5,2.4; stroke-dashoffset: 0; stroke: #00a6b6; stroke-width: 1.5"/>
    </g>
    <g id="text_17">
     <!-- V = 40.0 m/s, J = 1.6 -->
     <g transform="translate(303.55625 304.684375) scale(0.2 -0.2)">
      <defs>
       <path id="DejaVuSans-56" d="M 1831 0 
L 50 4666 
L 709 4666 
L 2188 738 
L 3669 4666 
L 4325 4666 
L 2547 0 
L 1831 0 
z
" transform="scale(0.015625)"/>
       <path id="DejaVuSans-3d" d="M 678 2906 
L 4684 2906 
L 4684 2381 
L 678 2381 
L 678 2906 
z
M 678 1631 
L 4684 1631 
L 4684 1100 
L 678 1100 
L 678 1631 
z
" transform="scale(0.015625)"/>
       <path id="DejaVuSans-6d" d="M 3328 2828 
Q 3544 3216 3844 3400 
Q 4144 3584 4550 3584 
Q 5097 3584 5394 3201 
Q 5691 2819 5691 2113 
L 5691 0 
L 5113 0 
L 5113 2094 
Q 5113 2597 4934 2840 
Q 4756 3084 4391 3084 
Q 3944 3084 3684 2787 
Q 3425 2491 3425 1978 
L 3425 0 
L 2847 0 
L 2847 2094 
Q 2847 2600 2669 2842 
Q 2491 3084 2119 3084 
Q 1678 3084 1418 2786 
Q 1159 2488 1159 1978 
L 1159 0 
L 581 0 
L 581 3500 
L 1159 3500 
L 1159 2956 
Q 1356 3278 1631 3431 
Q 1906 3584 2284 3584 
Q 2666 3584 2933 3390 
Q 3200 3197 3328 2828 
z
" transform="scale(0.015625)"/>
       <path id="DejaVuSans-73" d="M 2834 3397 
L 2834 2853 
Q 2591 2978 2328 3040 
Q 2066 3103 1784 3103 
Q 1356 3103 1142 2972 
Q 928 2841 928 2578 
Q 928 2378 1081 2264 
Q 1234 2150 1697 2047 
L 1894 2003 
Q 2506 1872 2764 1633 
Q 3022 1394 3022 966 
Q 3022 478 2636 193 
Q 2250 -91 1575 -91 
Q 1294 -91 989 -36 
Q 684 19 347 128 
L 347 722 
Q 666 556 975 473 
Q 1284 391 1588 391 
Q 1994 391 2212 530 
Q 2431 669 2431 922 
Q 2431 1156 2273 1281 
Q 2116 1406 1581 1522 
L 1381 1569 
Q 847 1681 609 1914 
Q 372 2147 372 2553 
Q 372 3047 722 3315 
Q 1072 3584 1716 3584 
Q 2034 3584 2315 3537 
Q 2597 3491 2834 3397 
z
" transform="scale(0.015625)"/>
       <path id="DejaVuSans-2c" d="M 750 794 
L 1409 794 
L 1409 256 
L 897 -744 
L 494 -744 
L 750 256 
L 750 794 
z
" transform="scale(0.015625)"/>
       <path id="DejaVuSans-4a" d="M 628 4666 
L 1259 4666 
L 1259 325 
Q 1259 -519 939 -900 
Q 619 -1281 -91 -1281 
L -331 -1281 
L -331 -750 
L -134 -750 
Q 284 -750 456 -515 
Q 628 -281 628 325 
L 628 4666 
z
" transform="scale(0.015625)"/>
      </defs>
      <use xlink:href="#DejaVuSans-56"/>
      <use xlink:href="#DejaVuSans-20" x="68.408203"/>
      <use xlink:href="#DejaVuSans-3d" x="100.195312"/>
      <use xlink:href="#DejaVuSans-20" x="183.984375"/>
      <use xlink:href="#DejaVuSans-34" x="215.771484"/>
      <use xlink:href="#DejaVuSans-30" x="279.394531"/>
      <use xlink:href="#DejaVuSans-2e" x="343.017578"/>
      <use xlink:href="#DejaVuSans-30" x="374.804688"/>
      <use xlink:href="#DejaVuSans-20" x="438.427734"/>
      <use xlink:href="#DejaVuSans-6d" x="470.214844"/>
      <use xlink:href="#DejaVuSans-2f" x="567.626953"/>
      <use xlink:href="#DejaVuSans-73" x="601.318359"/>
      <use xlink:href="#DejaVuSans-2c" x="653.417969"/>
      <use xlink:href="#DejaVuSans-20" x="685.205078"/>
      <use xlink:href="#DejaVuSans-4a" x="716.992188"/>
      <use xlink:href="#DejaVuSans-20" x="746.484375"/>
      <use xlink:href="#DejaVuSans-3d" x="778.271484"/>
      <use xlink:href="#DejaVuSans-20" x="862.060547"/>
      <use xlink:href="#DejaVuSans-31" x="893.847656"/>
      <use xlink:href="#DejaVuSans-2e" x="957.470703"/>
      <use xlink:href="#DejaVuSans-36" x="989.257812"/>
     </g>
    </g>
    <g id="line2d_32">
     <path d="M 247.55625 327.040625 
L 267.55625 327.040625 
L 287.55625 327.040625 
" style="fill: none; stroke-dasharray: 9.6,2.4,1.5,2.4; stroke-dashoffset: 0; stroke: #a50034; stroke-width: 1.5"/>
    </g>
    <g id="text_18">
     <!-- V = 20.0 m/s, J = 1.6 -->
     <g transform="translate(303.55625 334.040625) scale(0.2 -0.2)">
      <use xlink:href="#DejaVuSans-56"/>
      <use xlink:href="#DejaVuSans-20" x="68.408203"/>
      <use xlink:href="#DejaVuSans-3d" x="100.195312"/>
      <use xlink:href="#DejaVuSans-20" x="183.984375"/>
      <use xlink:href="#DejaVuSans-32" x="215.771484"/>
      <use xlink:href="#DejaVuSans-30" x="279.394531"/>
      <use xlink:href="#DejaVuSans-2e" x="343.017578"/>
      <use xlink:href="#DejaVuSans-30" x="374.804688"/>
      <use xlink:href="#DejaVuSans-20" x="438.427734"/>
      <use xlink:href="#DejaVuSans-6d" x="470.214844"/>
      <use xlink:href="#DejaVuSans-2f" x="567.626953"/>
      <use xlink:href="#DejaVuSans-73" x="601.318359"/>
      <use xlink:href="#DejaVuSans-2c" x="653.417969"/>
      <use xlink:href="#DejaVuSans-20" x="685.205078"/>
      <use xlink:href="#DejaVuSans-4a" x="716.992188"/>
      <use xlink:href="#DejaVuSans-20" x="746.484375"/>
      <use xlink:href="#DejaVuSans-3d" x="778.271484"/>
      <use xlink:href="#DejaVuSans-20" x="862.060547"/>
      <use xlink:href="#DejaVuSans-31" x="893.847656"/>
      <use xlink:href="#DejaVuSans-2e" x="957.470703"/>
      <use xlink:href="#DejaVuSans-36" x="989.257812"/>
     </g>
    </g>
   </g>
  </g>
 </g>
 <defs>
  <clipPath id="p294d66520d">
   <rect x="96.986" y="25.522745" width="435.139" height="330.677255"/>
  </clipPath>
 </defs>
</svg>
