<?xml version="1.0" encoding="utf-8" standalone="no"?>
<!DOCTYPE svg PUBLIC "-//W3C//DTD SVG 1.1//EN"
  "http://www.w3.org/Graphics/SVG/1.1/DTD/svg11.dtd">
<svg xmlns:xlink="http://www.w3.org/1999/xlink" width="576pt" height="432pt" viewBox="0 0 576 432" xmlns="http://www.w3.org/2000/svg" version="1.1">
 <metadata>
  <rdf:RDF xmlns:dc="http://purl.org/dc/elements/1.1/" xmlns:cc="http://creativecommons.org/ns#" xmlns:rdf="http://www.w3.org/1999/02/22-rdf-syntax-ns#">
   <cc:Work>
    <dc:type rdf:resource="http://purl.org/dc/dcmitype/StillImage"/>
    <dc:date>2024-04-03T17:09:33.058270</dc:date>
    <dc:format>image/svg+xml</dc:format>
    <dc:creator>
     <cc:Agent>
      <dc:title>Matplotlib v3.8.3, https://matplotlib.org/</dc:title>
     </cc:Agent>
    </dc:creator>
   </cc:Work>
  </rdf:RDF>
 </metadata>
 <defs>
  <style type="text/css">*{stroke-linejoin: round; stroke-linecap: butt}</style>
 </defs>
 <g id="figure_1">
  <g id="patch_1">
   <path d="M 0 432 
L 576 432 
L 576 0 
L 0 0 
z
" style="fill: #ffffff"/>
  </g>
  <g id="axes_1">
   <g id="patch_2">
    <path d="M 99.416 357.064 
L 538.515 357.064 
L 538.515 21.6 
L 99.416 21.6 
z
" style="fill: #ffffff"/>
   </g>
   <g id="PathCollection_1">
    <defs>
     <path id="mec9d42a004" d="M 0 3 
C 0.795609 3 1.55874 2.683901 2.12132 2.12132 
C 2.683901 1.55874 3 0.795609 3 0 
C 3 -0.795609 2.683901 -1.55874 2.12132 -2.12132 
C 1.55874 -2.683901 0.795609 -3 0 -3 
C -0.795609 -3 -1.55874 -2.683901 -2.12132 -2.12132 
C -2.683901 -1.55874 -3 -0.795609 -3 0 
C -3 0.795609 -2.683901 1.55874 -2.12132 2.12132 
C -1.55874 2.683901 -0.795609 3 0 3 
z
" style="stroke: #00a6b6"/>
    </defs>
    <g clip-path="url(#p2a9dc2460b)">
     <use xlink:href="#mec9d42a004" x="85.467707" y="332.177482" style="fill: #00a6b6; stroke: #00a6b6"/>
     <use xlink:href="#mec9d42a004" x="115.017331" y="335.853987" style="fill: #00a6b6; stroke: #00a6b6"/>
     <use xlink:href="#mec9d42a004" x="144.726047" y="338.768075" style="fill: #00a6b6; stroke: #00a6b6"/>
     <use xlink:href="#mec9d42a004" x="173.84296" y="340.793672" style="fill: #00a6b6; stroke: #00a6b6"/>
     <use xlink:href="#mec9d42a004" x="202.67068" y="341.815636" style="fill: #00a6b6; stroke: #00a6b6"/>
     <use xlink:href="#mec9d42a004" x="231.298675" y="341.71969" style="fill: #00a6b6; stroke: #00a6b6"/>
     <use xlink:href="#mec9d42a004" x="258.856802" y="340.400842" style="fill: #00a6b6; stroke: #00a6b6"/>
     <use xlink:href="#mec9d42a004" x="286.512026" y="337.748122" style="fill: #00a6b6; stroke: #00a6b6"/>
     <use xlink:href="#mec9d42a004" x="314.080218" y="333.662398" style="fill: #00a6b6; stroke: #00a6b6"/>
     <use xlink:href="#mec9d42a004" x="340.379114" y="328.041497" style="fill: #00a6b6; stroke: #00a6b6"/>
     <use xlink:href="#mec9d42a004" x="366.57982" y="320.785394" style="fill: #00a6b6; stroke: #00a6b6"/>
     <use xlink:href="#mec9d42a004" x="391.821619" y="311.80538" style="fill: #00a6b6; stroke: #00a6b6"/>
     <use xlink:href="#mec9d42a004" x="413.371874" y="301.057938" style="fill: #00a6b6; stroke: #00a6b6"/>
     <use xlink:href="#mec9d42a004" x="431.383029" y="288.512551" style="fill: #00a6b6; stroke: #00a6b6"/>
     <use xlink:href="#mec9d42a004" x="448.94633" y="274.441049" style="fill: #00a6b6; stroke: #00a6b6"/>
     <use xlink:href="#mec9d42a004" x="462.184732" y="258.370247" style="fill: #00a6b6; stroke: #00a6b6"/>
     <use xlink:href="#mec9d42a004" x="474.313572" y="239.809438" style="fill: #00a6b6; stroke: #00a6b6"/>
     <use xlink:href="#mec9d42a004" x="488.620793" y="218.926176" style="fill: #00a6b6; stroke: #00a6b6"/>
     <use xlink:href="#mec9d42a004" x="495.540293" y="195.522009" style="fill: #00a6b6; stroke: #00a6b6"/>
     <use xlink:href="#mec9d42a004" x="511.475321" y="170.079042" style="fill: #00a6b6; stroke: #00a6b6"/>
    </g>
   </g>
   <g id="PathCollection_2">
    <defs>
     <path id="mfb748bb0a8" d="M 0 3 
C 0.795609 3 1.55874 2.683901 2.12132 2.12132 
C 2.683901 1.55874 3 0.795609 3 0 
C 3 -0.795609 2.683901 -1.55874 2.12132 -2.12132 
C 1.55874 -2.683901 0.795609 -3 0 -3 
C -0.795609 -3 -1.55874 -2.683901 -2.12132 -2.12132 
C -2.683901 -1.55874 -3 -0.795609 -3 0 
C -3 0.795609 -2.683901 1.55874 -2.12132 2.12132 
C -1.55874 2.683901 -0.795609 3 0 3 
z
" style="stroke: #a50034"/>
    </defs>
    <g clip-path="url(#p2a9dc2460b)">
     <use xlink:href="#mfb748bb0a8" x="88.667315" y="301.114105" style="fill: #a50034; stroke: #a50034"/>
     <use xlink:href="#mfb748bb0a8" x="117.958647" y="303.809657" style="fill: #a50034; stroke: #a50034"/>
     <use xlink:href="#mfb748bb0a8" x="147.006134" y="305.786618" style="fill: #a50034; stroke: #a50034"/>
     <use xlink:href="#mfb748bb0a8" x="174.742836" y="306.988231" style="fill: #a50034; stroke: #a50034"/>
     <use xlink:href="#mfb748bb0a8" x="203.057467" y="307.346636" style="fill: #a50034; stroke: #a50034"/>
     <use xlink:href="#mfb748bb0a8" x="230.253145" y="306.779709" style="fill: #a50034; stroke: #a50034"/>
     <use xlink:href="#mfb748bb0a8" x="258.077519" y="305.218274" style="fill: #a50034; stroke: #a50034"/>
     <use xlink:href="#mfb748bb0a8" x="285.520555" y="302.529838" style="fill: #a50034; stroke: #a50034"/>
     <use xlink:href="#mfb748bb0a8" x="312.717995" y="298.626129" style="fill: #a50034; stroke: #a50034"/>
     <use xlink:href="#mfb748bb0a8" x="339.408909" y="293.374423" style="fill: #a50034; stroke: #a50034"/>
     <use xlink:href="#mfb748bb0a8" x="366.107821" y="286.635528" style="fill: #a50034; stroke: #a50034"/>
     <use xlink:href="#mfb748bb0a8" x="389.946914" y="278.308382" style="fill: #a50034; stroke: #a50034"/>
     <use xlink:href="#mfb748bb0a8" x="412.221349" y="268.269429" style="fill: #a50034; stroke: #a50034"/>
     <use xlink:href="#mfb748bb0a8" x="429.694567" y="256.478374" style="fill: #a50034; stroke: #a50034"/>
     <use xlink:href="#mfb748bb0a8" x="447.392889" y="242.844098" style="fill: #a50034; stroke: #a50034"/>
     <use xlink:href="#mfb748bb0a8" x="462.715695" y="227.097208" style="fill: #a50034; stroke: #a50034"/>
     <use xlink:href="#mfb748bb0a8" x="471.027333" y="209.034761" style="fill: #a50034; stroke: #a50034"/>
     <use xlink:href="#mfb748bb0a8" x="483.241592" y="187.978655" style="fill: #a50034; stroke: #a50034"/>
     <use xlink:href="#mfb748bb0a8" x="489.65596" y="164.272294" style="fill: #a50034; stroke: #a50034"/>
     <use xlink:href="#mfb748bb0a8" x="504.511448" y="137.267559" style="fill: #a50034; stroke: #a50034"/>
    </g>
   </g>
   <g id="matplotlib.axis_1">
    <g id="xtick_1">
     <g id="line2d_1">
      <path d="M 99.416 357.064 
L 99.416 21.6 
" clip-path="url(#p2a9dc2460b)" style="fill: none; stroke: #b0b0b0; stroke-width: 0.8; stroke-linecap: square"/>
     </g>
     <g id="line2d_2">
      <defs>
       <path id="mb335ca94fd" d="M 0 0 
L 0 3.5 
" style="stroke: #000000; stroke-width: 0.8"/>
      </defs>
      <g>
       <use xlink:href="#mb335ca94fd" x="99.416" y="357.064" style="stroke: #000000; stroke-width: 0.8"/>
      </g>
     </g>
     <g id="text_1">
      <!-- −0.3 -->
      <g transform="translate(75.133188 379.260875) scale(0.2 -0.2)">
       <defs>
        <path id="DejaVuSans-2212" d="M 678 2272 
L 4684 2272 
L 4684 1741 
L 678 1741 
L 678 2272 
z
" transform="scale(0.015625)"/>
        <path id="DejaVuSans-30" d="M 2034 4250 
Q 1547 4250 1301 3770 
Q 1056 3291 1056 2328 
Q 1056 1369 1301 889 
Q 1547 409 2034 409 
Q 2525 409 2770 889 
Q 3016 1369 3016 2328 
Q 3016 3291 2770 3770 
Q 2525 4250 2034 4250 
z
M 2034 4750 
Q 2819 4750 3233 4129 
Q 3647 3509 3647 2328 
Q 3647 1150 3233 529 
Q 2819 -91 2034 -91 
Q 1250 -91 836 529 
Q 422 1150 422 2328 
Q 422 3509 836 4129 
Q 1250 4750 2034 4750 
z
" transform="scale(0.015625)"/>
        <path id="DejaVuSans-2e" d="M 684 794 
L 1344 794 
L 1344 0 
L 684 0 
L 684 794 
z
" transform="scale(0.015625)"/>
        <path id="DejaVuSans-33" d="M 2597 2516 
Q 3050 2419 3304 2112 
Q 3559 1806 3559 1356 
Q 3559 666 3084 287 
Q 2609 -91 1734 -91 
Q 1441 -91 1130 -33 
Q 819 25 488 141 
L 488 750 
Q 750 597 1062 519 
Q 1375 441 1716 441 
Q 2309 441 2620 675 
Q 2931 909 2931 1356 
Q 2931 1769 2642 2001 
Q 2353 2234 1838 2234 
L 1294 2234 
L 1294 2753 
L 1863 2753 
Q 2328 2753 2575 2939 
Q 2822 3125 2822 3475 
Q 2822 3834 2567 4026 
Q 2313 4219 1838 4219 
Q 1578 4219 1281 4162 
Q 984 4106 628 3988 
L 628 4550 
Q 988 4650 1302 4700 
Q 1616 4750 1894 4750 
Q 2613 4750 3031 4423 
Q 3450 4097 3450 3541 
Q 3450 3153 3228 2886 
Q 3006 2619 2597 2516 
z
" transform="scale(0.015625)"/>
       </defs>
       <use xlink:href="#DejaVuSans-2212"/>
       <use xlink:href="#DejaVuSans-30" x="83.789062"/>
       <use xlink:href="#DejaVuSans-2e" x="147.412109"/>
       <use xlink:href="#DejaVuSans-33" x="179.199219"/>
      </g>
     </g>
    </g>
    <g id="xtick_2">
     <g id="line2d_3">
      <path d="M 172.599167 357.064 
L 172.599167 21.6 
" clip-path="url(#p2a9dc2460b)" style="fill: none; stroke: #b0b0b0; stroke-width: 0.8; stroke-linecap: square"/>
     </g>
     <g id="line2d_4">
      <g>
       <use xlink:href="#mb335ca94fd" x="172.599167" y="357.064" style="stroke: #000000; stroke-width: 0.8"/>
      </g>
     </g>
     <g id="text_2">
      <!-- 0.0 -->
      <g transform="translate(156.696042 379.260875) scale(0.2 -0.2)">
       <use xlink:href="#DejaVuSans-30"/>
       <use xlink:href="#DejaVuSans-2e" x="63.623047"/>
       <use xlink:href="#DejaVuSans-30" x="95.410156"/>
      </g>
     </g>
    </g>
    <g id="xtick_3">
     <g id="line2d_5">
      <path d="M 245.782333 357.064 
L 245.782333 21.6 
" clip-path="url(#p2a9dc2460b)" style="fill: none; stroke: #b0b0b0; stroke-width: 0.8; stroke-linecap: square"/>
     </g>
     <g id="line2d_6">
      <g>
       <use xlink:href="#mb335ca94fd" x="245.782333" y="357.064" style="stroke: #000000; stroke-width: 0.8"/>
      </g>
     </g>
     <g id="text_3">
      <!-- 0.3 -->
      <g transform="translate(229.879208 379.260875) scale(0.2 -0.2)">
       <use xlink:href="#DejaVuSans-30"/>
       <use xlink:href="#DejaVuSans-2e" x="63.623047"/>
       <use xlink:href="#DejaVuSans-33" x="95.410156"/>
      </g>
     </g>
    </g>
    <g id="xtick_4">
     <g id="line2d_7">
      <path d="M 318.9655 357.064 
L 318.9655 21.6 
" clip-path="url(#p2a9dc2460b)" style="fill: none; stroke: #b0b0b0; stroke-width: 0.8; stroke-linecap: square"/>
     </g>
     <g id="line2d_8">
      <g>
       <use xlink:href="#mb335ca94fd" x="318.9655" y="357.064" style="stroke: #000000; stroke-width: 0.8"/>
      </g>
     </g>
     <g id="text_4">
      <!-- 0.6 -->
      <g transform="translate(303.062375 379.260875) scale(0.2 -0.2)">
       <defs>
        <path id="DejaVuSans-36" d="M 2113 2584 
Q 1688 2584 1439 2293 
Q 1191 2003 1191 1497 
Q 1191 994 1439 701 
Q 1688 409 2113 409 
Q 2538 409 2786 701 
Q 3034 994 3034 1497 
Q 3034 2003 2786 2293 
Q 2538 2584 2113 2584 
z
M 3366 4563 
L 3366 3988 
Q 3128 4100 2886 4159 
Q 2644 4219 2406 4219 
Q 1781 4219 1451 3797 
Q 1122 3375 1075 2522 
Q 1259 2794 1537 2939 
Q 1816 3084 2150 3084 
Q 2853 3084 3261 2657 
Q 3669 2231 3669 1497 
Q 3669 778 3244 343 
Q 2819 -91 2113 -91 
Q 1303 -91 875 529 
Q 447 1150 447 2328 
Q 447 3434 972 4092 
Q 1497 4750 2381 4750 
Q 2619 4750 2861 4703 
Q 3103 4656 3366 4563 
z
" transform="scale(0.015625)"/>
       </defs>
       <use xlink:href="#DejaVuSans-30"/>
       <use xlink:href="#DejaVuSans-2e" x="63.623047"/>
       <use xlink:href="#DejaVuSans-36" x="95.410156"/>
      </g>
     </g>
    </g>
    <g id="xtick_5">
     <g id="line2d_9">
      <path d="M 392.148667 357.064 
L 392.148667 21.6 
" clip-path="url(#p2a9dc2460b)" style="fill: none; stroke: #b0b0b0; stroke-width: 0.8; stroke-linecap: square"/>
     </g>
     <g id="line2d_10">
      <g>
       <use xlink:href="#mb335ca94fd" x="392.148667" y="357.064" style="stroke: #000000; stroke-width: 0.8"/>
      </g>
     </g>
     <g id="text_5">
      <!-- 0.9 -->
      <g transform="translate(376.245542 379.260875) scale(0.2 -0.2)">
       <defs>
        <path id="DejaVuSans-39" d="M 703 97 
L 703 672 
Q 941 559 1184 500 
Q 1428 441 1663 441 
Q 2288 441 2617 861 
Q 2947 1281 2994 2138 
Q 2813 1869 2534 1725 
Q 2256 1581 1919 1581 
Q 1219 1581 811 2004 
Q 403 2428 403 3163 
Q 403 3881 828 4315 
Q 1253 4750 1959 4750 
Q 2769 4750 3195 4129 
Q 3622 3509 3622 2328 
Q 3622 1225 3098 567 
Q 2575 -91 1691 -91 
Q 1453 -91 1209 -44 
Q 966 3 703 97 
z
M 1959 2075 
Q 2384 2075 2632 2365 
Q 2881 2656 2881 3163 
Q 2881 3666 2632 3958 
Q 2384 4250 1959 4250 
Q 1534 4250 1286 3958 
Q 1038 3666 1038 3163 
Q 1038 2656 1286 2365 
Q 1534 2075 1959 2075 
z
" transform="scale(0.015625)"/>
       </defs>
       <use xlink:href="#DejaVuSans-30"/>
       <use xlink:href="#DejaVuSans-2e" x="63.623047"/>
       <use xlink:href="#DejaVuSans-39" x="95.410156"/>
      </g>
     </g>
    </g>
    <g id="xtick_6">
     <g id="line2d_11">
      <path d="M 465.331833 357.064 
L 465.331833 21.6 
" clip-path="url(#p2a9dc2460b)" style="fill: none; stroke: #b0b0b0; stroke-width: 0.8; stroke-linecap: square"/>
     </g>
     <g id="line2d_12">
      <g>
       <use xlink:href="#mb335ca94fd" x="465.331833" y="357.064" style="stroke: #000000; stroke-width: 0.8"/>
      </g>
     </g>
     <g id="text_6">
      <!-- 1.2 -->
      <g transform="translate(449.428708 379.260875) scale(0.2 -0.2)">
       <defs>
        <path id="DejaVuSans-31" d="M 794 531 
L 1825 531 
L 1825 4091 
L 703 3866 
L 703 4441 
L 1819 4666 
L 2450 4666 
L 2450 531 
L 3481 531 
L 3481 0 
L 794 0 
L 794 531 
z
" transform="scale(0.015625)"/>
        <path id="DejaVuSans-32" d="M 1228 531 
L 3431 531 
L 3431 0 
L 469 0 
L 469 531 
Q 828 903 1448 1529 
Q 2069 2156 2228 2338 
Q 2531 2678 2651 2914 
Q 2772 3150 2772 3378 
Q 2772 3750 2511 3984 
Q 2250 4219 1831 4219 
Q 1534 4219 1204 4116 
Q 875 4013 500 3803 
L 500 4441 
Q 881 4594 1212 4672 
Q 1544 4750 1819 4750 
Q 2544 4750 2975 4387 
Q 3406 4025 3406 3419 
Q 3406 3131 3298 2873 
Q 3191 2616 2906 2266 
Q 2828 2175 2409 1742 
Q 1991 1309 1228 531 
z
" transform="scale(0.015625)"/>
       </defs>
       <use xlink:href="#DejaVuSans-31"/>
       <use xlink:href="#DejaVuSans-2e" x="63.623047"/>
       <use xlink:href="#DejaVuSans-32" x="95.410156"/>
      </g>
     </g>
    </g>
    <g id="xtick_7">
     <g id="line2d_13">
      <path d="M 538.515 357.064 
L 538.515 21.6 
" clip-path="url(#p2a9dc2460b)" style="fill: none; stroke: #b0b0b0; stroke-width: 0.8; stroke-linecap: square"/>
     </g>
     <g id="line2d_14">
      <g>
       <use xlink:href="#mb335ca94fd" x="538.515" y="357.064" style="stroke: #000000; stroke-width: 0.8"/>
      </g>
     </g>
     <g id="text_7">
      <!-- 1.5 -->
      <g transform="translate(522.611875 379.260875) scale(0.2 -0.2)">
       <defs>
        <path id="DejaVuSans-35" d="M 691 4666 
L 3169 4666 
L 3169 4134 
L 1269 4134 
L 1269 2991 
Q 1406 3038 1543 3061 
Q 1681 3084 1819 3084 
Q 2600 3084 3056 2656 
Q 3513 2228 3513 1497 
Q 3513 744 3044 326 
Q 2575 -91 1722 -91 
Q 1428 -91 1123 -41 
Q 819 9 494 109 
L 494 744 
Q 775 591 1075 516 
Q 1375 441 1709 441 
Q 2250 441 2565 725 
Q 2881 1009 2881 1497 
Q 2881 1984 2565 2268 
Q 2250 2553 1709 2553 
Q 1456 2553 1204 2497 
Q 953 2441 691 2322 
L 691 4666 
z
" transform="scale(0.015625)"/>
       </defs>
       <use xlink:href="#DejaVuSans-31"/>
       <use xlink:href="#DejaVuSans-2e" x="63.623047"/>
       <use xlink:href="#DejaVuSans-35" x="95.410156"/>
      </g>
     </g>
    </g>
    <g id="text_8">
     <!-- $C_L$ [-] -->
     <g transform="translate(293.1655 402.617125) scale(0.2 -0.2)">
      <defs>
       <path id="DejaVuSans-Oblique-43" d="M 4447 4306 
L 4319 3641 
Q 4019 3944 3683 4091 
Q 3347 4238 2956 4238 
Q 2422 4238 2017 3981 
Q 1613 3725 1319 3200 
Q 1131 2863 1032 2486 
Q 934 2109 934 1728 
Q 934 1091 1264 756 
Q 1594 422 2222 422 
Q 2656 422 3056 561 
Q 3456 700 3834 978 
L 3688 231 
Q 3316 72 2936 -9 
Q 2556 -91 2175 -91 
Q 1278 -91 773 396 
Q 269 884 269 1753 
Q 269 2309 461 2846 
Q 653 3384 1013 3828 
Q 1394 4300 1883 4525 
Q 2372 4750 3022 4750 
Q 3422 4750 3780 4639 
Q 4138 4528 4447 4306 
z
" transform="scale(0.015625)"/>
       <path id="DejaVuSans-Oblique-4c" d="M 1075 4666 
L 1709 4666 
L 909 525 
L 3181 525 
L 3078 0 
L 172 0 
L 1075 4666 
z
" transform="scale(0.015625)"/>
       <path id="DejaVuSans-20" transform="scale(0.015625)"/>
       <path id="DejaVuSans-5b" d="M 550 4863 
L 1875 4863 
L 1875 4416 
L 1125 4416 
L 1125 -397 
L 1875 -397 
L 1875 -844 
L 550 -844 
L 550 4863 
z
" transform="scale(0.015625)"/>
       <path id="DejaVuSans-2d" d="M 313 2009 
L 1997 2009 
L 1997 1497 
L 313 1497 
L 313 2009 
z
" transform="scale(0.015625)"/>
       <path id="DejaVuSans-5d" d="M 1947 4863 
L 1947 -844 
L 622 -844 
L 622 -397 
L 1369 -397 
L 1369 4416 
L 622 4416 
L 622 4863 
L 1947 4863 
z
" transform="scale(0.015625)"/>
      </defs>
      <use xlink:href="#DejaVuSans-Oblique-43" transform="translate(0 0.015625)"/>
      <use xlink:href="#DejaVuSans-Oblique-4c" transform="translate(69.824219 -16.390625) scale(0.7)"/>
      <use xlink:href="#DejaVuSans-20" transform="translate(111.557617 0.015625)"/>
      <use xlink:href="#DejaVuSans-5b" transform="translate(143.344727 0.015625)"/>
      <use xlink:href="#DejaVuSans-2d" transform="translate(182.358398 0.015625)"/>
      <use xlink:href="#DejaVuSans-5d" transform="translate(218.442383 0.015625)"/>
     </g>
    </g>
   </g>
   <g id="matplotlib.axis_2">
    <g id="ytick_1">
     <g id="line2d_15">
      <path d="M 99.416 311.633255 
L 538.515 311.633255 
" clip-path="url(#p2a9dc2460b)" style="fill: none; stroke: #b0b0b0; stroke-width: 0.8; stroke-linecap: square"/>
     </g>
     <g id="line2d_16">
      <defs>
       <path id="m576cc1920a" d="M 0 0 
L -3.5 0 
" style="stroke: #000000; stroke-width: 0.8"/>
      </defs>
      <g>
       <use xlink:href="#m576cc1920a" x="99.416" y="311.633255" style="stroke: #000000; stroke-width: 0.8"/>
      </g>
     </g>
     <g id="text_9">
      <!-- 0.05 -->
      <g transform="translate(47.88475 319.231692) scale(0.2 -0.2)">
       <use xlink:href="#DejaVuSans-30"/>
       <use xlink:href="#DejaVuSans-2e" x="63.623047"/>
       <use xlink:href="#DejaVuSans-30" x="95.410156"/>
       <use xlink:href="#DejaVuSans-35" x="159.033203"/>
      </g>
     </g>
    </g>
    <g id="ytick_2">
     <g id="line2d_17">
      <path d="M 99.416 249.992019 
L 538.515 249.992019 
" clip-path="url(#p2a9dc2460b)" style="fill: none; stroke: #b0b0b0; stroke-width: 0.8; stroke-linecap: square"/>
     </g>
     <g id="line2d_18">
      <g>
       <use xlink:href="#m576cc1920a" x="99.416" y="249.992019" style="stroke: #000000; stroke-width: 0.8"/>
      </g>
     </g>
     <g id="text_10">
      <!-- 0.10 -->
      <g transform="translate(47.88475 257.590456) scale(0.2 -0.2)">
       <use xlink:href="#DejaVuSans-30"/>
       <use xlink:href="#DejaVuSans-2e" x="63.623047"/>
       <use xlink:href="#DejaVuSans-31" x="95.410156"/>
       <use xlink:href="#DejaVuSans-30" x="159.033203"/>
      </g>
     </g>
    </g>
    <g id="ytick_3">
     <g id="line2d_19">
      <path d="M 99.416 188.350783 
L 538.515 188.350783 
" clip-path="url(#p2a9dc2460b)" style="fill: none; stroke: #b0b0b0; stroke-width: 0.8; stroke-linecap: square"/>
     </g>
     <g id="line2d_20">
      <g>
       <use xlink:href="#m576cc1920a" x="99.416" y="188.350783" style="stroke: #000000; stroke-width: 0.8"/>
      </g>
     </g>
     <g id="text_11">
      <!-- 0.15 -->
      <g transform="translate(47.88475 195.94922) scale(0.2 -0.2)">
       <use xlink:href="#DejaVuSans-30"/>
       <use xlink:href="#DejaVuSans-2e" x="63.623047"/>
       <use xlink:href="#DejaVuSans-31" x="95.410156"/>
       <use xlink:href="#DejaVuSans-35" x="159.033203"/>
      </g>
     </g>
    </g>
    <g id="ytick_4">
     <g id="line2d_21">
      <path d="M 99.416 126.709547 
L 538.515 126.709547 
" clip-path="url(#p2a9dc2460b)" style="fill: none; stroke: #b0b0b0; stroke-width: 0.8; stroke-linecap: square"/>
     </g>
     <g id="line2d_22">
      <g>
       <use xlink:href="#m576cc1920a" x="99.416" y="126.709547" style="stroke: #000000; stroke-width: 0.8"/>
      </g>
     </g>
     <g id="text_12">
      <!-- 0.20 -->
      <g transform="translate(47.88475 134.307985) scale(0.2 -0.2)">
       <use xlink:href="#DejaVuSans-30"/>
       <use xlink:href="#DejaVuSans-2e" x="63.623047"/>
       <use xlink:href="#DejaVuSans-32" x="95.410156"/>
       <use xlink:href="#DejaVuSans-30" x="159.033203"/>
      </g>
     </g>
    </g>
    <g id="ytick_5">
     <g id="line2d_23">
      <path d="M 99.416 65.068311 
L 538.515 65.068311 
" clip-path="url(#p2a9dc2460b)" style="fill: none; stroke: #b0b0b0; stroke-width: 0.8; stroke-linecap: square"/>
     </g>
     <g id="line2d_24">
      <g>
       <use xlink:href="#m576cc1920a" x="99.416" y="65.068311" style="stroke: #000000; stroke-width: 0.8"/>
      </g>
     </g>
     <g id="text_13">
      <!-- 0.25 -->
      <g transform="translate(47.88475 72.666749) scale(0.2 -0.2)">
       <use xlink:href="#DejaVuSans-30"/>
       <use xlink:href="#DejaVuSans-2e" x="63.623047"/>
       <use xlink:href="#DejaVuSans-32" x="95.410156"/>
       <use xlink:href="#DejaVuSans-35" x="159.033203"/>
      </g>
     </g>
    </g>
    <g id="text_14">
     <!-- $C_D$ [-] -->
     <g transform="translate(39.725375 216.632) rotate(-90) scale(0.2 -0.2)">
      <defs>
       <path id="DejaVuSans-Oblique-44" d="M 1081 4666 
L 2438 4666 
Q 3519 4666 4070 4208 
Q 4622 3750 4622 2847 
Q 4622 2250 4412 1698 
Q 4203 1147 3834 769 
Q 3463 381 2891 190 
Q 2319 0 1538 0 
L 172 0 
L 1081 4666 
z
M 1613 4147 
L 909 519 
L 1734 519 
Q 2794 519 3375 1128 
Q 3956 1738 3956 2847 
Q 3956 3519 3581 3833 
Q 3206 4147 2406 4147 
L 1613 4147 
z
" transform="scale(0.015625)"/>
      </defs>
      <use xlink:href="#DejaVuSans-Oblique-43" transform="translate(0 0.015625)"/>
      <use xlink:href="#DejaVuSans-Oblique-44" transform="translate(69.824219 -16.390625) scale(0.7)"/>
      <use xlink:href="#DejaVuSans-20" transform="translate(126.459961 0.015625)"/>
      <use xlink:href="#DejaVuSans-5b" transform="translate(158.24707 0.015625)"/>
      <use xlink:href="#DejaVuSans-2d" transform="translate(197.260742 0.015625)"/>
      <use xlink:href="#DejaVuSans-5d" transform="translate(233.344727 0.015625)"/>
     </g>
    </g>
   </g>
   <g id="line2d_25">
    <path d="M 99.416 334.393879 
L 103.851343 335.481986 
L 108.286687 336.455331 
L 112.72203 337.321084 
L 117.157374 338.086173 
L 121.592717 338.757287 
L 126.028061 339.340869 
L 130.463404 339.843123 
L 134.898747 340.270009 
L 139.334091 340.627247 
L 143.769434 340.920313 
L 148.204778 341.154441 
L 152.640121 341.334626 
L 157.075465 341.465618 
L 161.510808 341.551927 
L 165.946152 341.597818 
L 170.381495 341.607317 
L 174.816838 341.584207 
L 179.252182 341.53203 
L 183.687525 341.454084 
L 188.122869 341.353427 
L 192.558212 341.232873 
L 196.993556 341.094995 
L 201.428899 340.942126 
L 205.864242 340.776353 
L 210.299586 340.599525 
L 214.734929 340.413247 
L 219.170273 340.218881 
L 223.605616 340.017549 
L 228.04096 339.810131 
L 232.476303 339.597263 
L 236.911646 339.379341 
L 241.34699 339.156518 
L 245.782333 338.928705 
L 250.217677 338.695573 
L 254.65302 338.456548 
L 259.088364 338.210816 
L 263.523707 337.957321 
L 267.959051 337.694762 
L 272.394394 337.421602 
L 276.829737 337.136055 
L 281.265081 336.836099 
L 285.700424 336.519467 
L 290.135768 336.18365 
L 294.571111 335.825897 
L 299.006455 335.443217 
L 303.441798 335.032376 
L 307.877141 334.589896 
L 312.312485 334.112059 
L 316.747828 333.594905 
L 321.183172 333.034232 
L 325.618515 332.425595 
L 330.053859 331.764308 
L 334.489202 331.045443 
L 338.924545 330.26383 
L 343.359889 329.414056 
L 347.795232 328.490467 
L 352.230576 327.487168 
L 356.665919 326.398019 
L 361.101263 325.216641 
L 365.536606 323.936411 
L 369.971949 322.550466 
L 374.407293 321.0517 
L 378.842636 319.432763 
L 383.27798 317.686068 
L 387.713323 315.80378 
L 392.148667 313.777827 
L 396.58401 311.599891 
L 401.019354 309.261417 
L 405.454697 306.753602 
L 409.89004 304.067406 
L 414.325384 301.193545 
L 418.760727 298.122492 
L 423.196071 294.84448 
L 427.631414 291.349499 
L 432.066758 287.627298 
L 436.502101 283.667381 
L 440.937444 279.459014 
L 445.372788 274.991218 
L 449.808131 270.252775 
L 454.243475 265.232222 
L 458.678818 259.917855 
L 463.114162 254.297729 
L 467.549505 248.359657 
L 471.984848 242.091207 
L 476.420192 235.47971 
L 480.855535 228.512251 
L 485.290879 221.175674 
L 489.726222 213.456583 
L 494.161566 205.341337 
L 498.596909 196.816055 
L 503.032253 187.866613 
L 507.467596 178.478646 
L 511.902939 168.637547 
L 516.338283 158.328465 
L 520.773626 147.536311 
L 525.20897 136.245749 
L 529.644313 124.441205 
L 534.079657 112.106861 
L 538.515 99.226658 
" clip-path="url(#p2a9dc2460b)" style="fill: none; stroke-dasharray: 9.6,2.4,1.5,2.4; stroke-dashoffset: 0; stroke: #00a6b6; stroke-width: 1.5"/>
   </g>
   <g id="line2d_26">
    <path d="M 99.416 302.037421 
L 103.851343 303.348385 
L 108.286687 304.49386 
L 112.72203 305.484634 
L 117.157374 306.331155 
L 121.592717 307.043531 
L 126.028061 307.631524 
L 130.463404 308.10456 
L 134.898747 308.471722 
L 139.334091 308.74175 
L 143.769434 308.923045 
L 148.204778 309.023667 
L 152.640121 309.051332 
L 157.075465 309.013419 
L 161.510808 308.916961 
L 165.946152 308.768655 
L 170.381495 308.574853 
L 174.816838 308.341566 
L 179.252182 308.074466 
L 183.687525 307.778883 
L 188.122869 307.459804 
L 192.558212 307.121877 
L 196.993556 306.769407 
L 201.428899 306.406361 
L 205.864242 306.03636 
L 210.299586 305.662689 
L 214.734929 305.288287 
L 219.170273 304.915755 
L 223.605616 304.547352 
L 228.04096 304.184996 
L 232.476303 303.830262 
L 236.911646 303.484387 
L 241.34699 303.148263 
L 245.782333 302.822445 
L 250.217677 302.507143 
L 254.65302 302.202229 
L 259.088364 301.907231 
L 263.523707 301.621338 
L 267.959051 301.343396 
L 272.394394 301.071912 
L 276.829737 300.805049 
L 281.265081 300.540632 
L 285.700424 300.276141 
L 290.135768 300.008719 
L 294.571111 299.735164 
L 299.006455 299.451936 
L 303.441798 299.155152 
L 307.877141 298.840588 
L 312.312485 298.503678 
L 316.747828 298.139517 
L 321.183172 297.742858 
L 325.618515 297.308111 
L 330.053859 296.829347 
L 334.489202 296.300294 
L 338.924545 295.714341 
L 343.359889 295.064535 
L 347.795232 294.34358 
L 352.230576 293.543841 
L 356.665919 292.657341 
L 361.101263 291.675762 
L 365.536606 290.590444 
L 369.971949 289.392387 
L 374.407293 288.072249 
L 378.842636 286.620347 
L 383.27798 285.026657 
L 387.713323 283.280813 
L 392.148667 281.37211 
L 396.58401 279.2895 
L 401.019354 277.021593 
L 405.454697 274.556659 
L 409.89004 271.882628 
L 414.325384 268.987086 
L 418.760727 265.85728 
L 423.196071 262.480115 
L 427.631414 258.842156 
L 432.066758 254.929624 
L 436.502101 250.728401 
L 440.937444 246.224028 
L 445.372788 241.401704 
L 449.808131 236.246287 
L 454.243475 230.742293 
L 458.678818 224.873899 
L 463.114162 218.624938 
L 467.549505 211.978904 
L 471.984848 204.918948 
L 476.420192 197.427882 
L 480.855535 189.488175 
L 485.290879 181.081955 
L 489.726222 172.191011 
L 494.161566 162.796787 
L 498.596909 152.880389 
L 503.032253 142.42258 
L 507.467596 131.403782 
L 511.902939 119.804078 
L 516.338283 107.603207 
L 520.773626 94.780567 
L 525.20897 81.315217 
L 529.644313 67.185873 
L 534.079657 52.370911 
L 538.515 36.848364 
" clip-path="url(#p2a9dc2460b)" style="fill: none; stroke-dasharray: 9.6,2.4,1.5,2.4; stroke-dashoffset: 0; stroke: #a50034; stroke-width: 1.5"/>
   </g>
   <g id="patch_3">
    <path d="M 99.416 357.064 
L 99.416 21.6 
" style="fill: none; stroke: #000000; stroke-width: 0.8; stroke-linejoin: miter; stroke-linecap: square"/>
   </g>
   <g id="patch_4">
    <path d="M 538.515 357.064 
L 538.515 21.6 
" style="fill: none; stroke: #000000; stroke-width: 0.8; stroke-linejoin: miter; stroke-linecap: square"/>
   </g>
   <g id="patch_5">
    <path d="M 99.416 357.064 
L 538.515 357.064 
" style="fill: none; stroke: #000000; stroke-width: 0.8; stroke-linejoin: miter; stroke-linecap: square"/>
   </g>
   <g id="patch_6">
    <path d="M 99.416 21.6 
L 538.515 21.6 
" style="fill: none; stroke: #000000; stroke-width: 0.8; stroke-linejoin: miter; stroke-linecap: square"/>
   </g>
   <g id="legend_1">
    <g id="patch_7">
     <path d="M 113.416 96.3125 
L 387.98475 96.3125 
Q 391.98475 96.3125 391.98475 92.3125 
L 391.98475 35.6 
Q 391.98475 31.6 387.98475 31.6 
L 113.416 31.6 
Q 109.416 31.6 109.416 35.6 
L 109.416 92.3125 
Q 109.416 96.3125 113.416 96.3125 
z
" style="fill: #ffffff; opacity: 0.8; stroke: #cccccc; stroke-linejoin: miter"/>
    </g>
    <g id="line2d_27">
     <path d="M 117.416 47.796875 
L 137.416 47.796875 
L 157.416 47.796875 
" style="fill: none; stroke-dasharray: 9.6,2.4,1.5,2.4; stroke-dashoffset: 0; stroke: #00a6b6; stroke-width: 1.5"/>
    </g>
    <g id="text_15">
     <!-- V = 40.0 m/s, J = 1.6 -->
     <g transform="translate(173.416 54.796875) scale(0.2 -0.2)">
      <defs>
       <path id="DejaVuSans-56" d="M 1831 0 
L 50 4666 
L 709 4666 
L 2188 738 
L 3669 4666 
L 4325 4666 
L 2547 0 
L 1831 0 
z
" transform="scale(0.015625)"/>
       <path id="DejaVuSans-3d" d="M 678 2906 
L 4684 2906 
L 4684 2381 
L 678 2381 
L 678 2906 
z
M 678 1631 
L 4684 1631 
L 4684 1100 
L 678 1100 
L 678 1631 
z
" transform="scale(0.015625)"/>
       <path id="DejaVuSans-34" d="M 2419 4116 
L 825 1625 
L 2419 1625 
L 2419 4116 
z
M 2253 4666 
L 3047 4666 
L 3047 1625 
L 3713 1625 
L 3713 1100 
L 3047 1100 
L 3047 0 
L 2419 0 
L 2419 1100 
L 313 1100 
L 313 1709 
L 2253 4666 
z
" transform="scale(0.015625)"/>
       <path id="DejaVuSans-6d" d="M 3328 2828 
Q 3544 3216 3844 3400 
Q 4144 3584 4550 3584 
Q 5097 3584 5394 3201 
Q 5691 2819 5691 2113 
L 5691 0 
L 5113 0 
L 5113 2094 
Q 5113 2597 4934 2840 
Q 4756 3084 4391 3084 
Q 3944 3084 3684 2787 
Q 3425 2491 3425 1978 
L 3425 0 
L 2847 0 
L 2847 2094 
Q 2847 2600 2669 2842 
Q 2491 3084 2119 3084 
Q 1678 3084 1418 2786 
Q 1159 2488 1159 1978 
L 1159 0 
L 581 0 
L 581 3500 
L 1159 3500 
L 1159 2956 
Q 1356 3278 1631 3431 
Q 1906 3584 2284 3584 
Q 2666 3584 2933 3390 
Q 3200 3197 3328 2828 
z
" transform="scale(0.015625)"/>
       <path id="DejaVuSans-2f" d="M 1625 4666 
L 2156 4666 
L 531 -594 
L 0 -594 
L 1625 4666 
z
" transform="scale(0.015625)"/>
       <path id="DejaVuSans-73" d="M 2834 3397 
L 2834 2853 
Q 2591 2978 2328 3040 
Q 2066 3103 1784 3103 
Q 1356 3103 1142 2972 
Q 928 2841 928 2578 
Q 928 2378 1081 2264 
Q 1234 2150 1697 2047 
L 1894 2003 
Q 2506 1872 2764 1633 
Q 3022 1394 3022 966 
Q 3022 478 2636 193 
Q 2250 -91 1575 -91 
Q 1294 -91 989 -36 
Q 684 19 347 128 
L 347 722 
Q 666 556 975 473 
Q 1284 391 1588 391 
Q 1994 391 2212 530 
Q 2431 669 2431 922 
Q 2431 1156 2273 1281 
Q 2116 1406 1581 1522 
L 1381 1569 
Q 847 1681 609 1914 
Q 372 2147 372 2553 
Q 372 3047 722 3315 
Q 1072 3584 1716 3584 
Q 2034 3584 2315 3537 
Q 2597 3491 2834 3397 
z
" transform="scale(0.015625)"/>
       <path id="DejaVuSans-2c" d="M 750 794 
L 1409 794 
L 1409 256 
L 897 -744 
L 494 -744 
L 750 256 
L 750 794 
z
" transform="scale(0.015625)"/>
       <path id="DejaVuSans-4a" d="M 628 4666 
L 1259 4666 
L 1259 325 
Q 1259 -519 939 -900 
Q 619 -1281 -91 -1281 
L -331 -1281 
L -331 -750 
L -134 -750 
Q 284 -750 456 -515 
Q 628 -281 628 325 
L 628 4666 
z
" transform="scale(0.015625)"/>
      </defs>
      <use xlink:href="#DejaVuSans-56"/>
      <use xlink:href="#DejaVuSans-20" x="68.408203"/>
      <use xlink:href="#DejaVuSans-3d" x="100.195312"/>
      <use xlink:href="#DejaVuSans-20" x="183.984375"/>
      <use xlink:href="#DejaVuSans-34" x="215.771484"/>
      <use xlink:href="#DejaVuSans-30" x="279.394531"/>
      <use xlink:href="#DejaVuSans-2e" x="343.017578"/>
      <use xlink:href="#DejaVuSans-30" x="374.804688"/>
      <use xlink:href="#DejaVuSans-20" x="438.427734"/>
      <use xlink:href="#DejaVuSans-6d" x="470.214844"/>
      <use xlink:href="#DejaVuSans-2f" x="567.626953"/>
      <use xlink:href="#DejaVuSans-73" x="601.318359"/>
      <use xlink:href="#DejaVuSans-2c" x="653.417969"/>
      <use xlink:href="#DejaVuSans-20" x="685.205078"/>
      <use xlink:href="#DejaVuSans-4a" x="716.992188"/>
      <use xlink:href="#DejaVuSans-20" x="746.484375"/>
      <use xlink:href="#DejaVuSans-3d" x="778.271484"/>
      <use xlink:href="#DejaVuSans-20" x="862.060547"/>
      <use xlink:href="#DejaVuSans-31" x="893.847656"/>
      <use xlink:href="#DejaVuSans-2e" x="957.470703"/>
      <use xlink:href="#DejaVuSans-36" x="989.257812"/>
     </g>
    </g>
    <g id="line2d_28">
     <path d="M 117.416 77.153125 
L 137.416 77.153125 
L 157.416 77.153125 
" style="fill: none; stroke-dasharray: 9.6,2.4,1.5,2.4; stroke-dashoffset: 0; stroke: #a50034; stroke-width: 1.5"/>
    </g>
    <g id="text_16">
     <!-- V = 20.0 m/s, J = 1.6 -->
     <g transform="translate(173.416 84.153125) scale(0.2 -0.2)">
      <use xlink:href="#DejaVuSans-56"/>
      <use xlink:href="#DejaVuSans-20" x="68.408203"/>
      <use xlink:href="#DejaVuSans-3d" x="100.195312"/>
      <use xlink:href="#DejaVuSans-20" x="183.984375"/>
      <use xlink:href="#DejaVuSans-32" x="215.771484"/>
      <use xlink:href="#DejaVuSans-30" x="279.394531"/>
      <use xlink:href="#DejaVuSans-2e" x="343.017578"/>
      <use xlink:href="#DejaVuSans-30" x="374.804688"/>
      <use xlink:href="#DejaVuSans-20" x="438.427734"/>
      <use xlink:href="#DejaVuSans-6d" x="470.214844"/>
      <use xlink:href="#DejaVuSans-2f" x="567.626953"/>
      <use xlink:href="#DejaVuSans-73" x="601.318359"/>
      <use xlink:href="#DejaVuSans-2c" x="653.417969"/>
      <use xlink:href="#DejaVuSans-20" x="685.205078"/>
      <use xlink:href="#DejaVuSans-4a" x="716.992188"/>
      <use xlink:href="#DejaVuSans-20" x="746.484375"/>
      <use xlink:href="#DejaVuSans-3d" x="778.271484"/>
      <use xlink:href="#DejaVuSans-20" x="862.060547"/>
      <use xlink:href="#DejaVuSans-31" x="893.847656"/>
      <use xlink:href="#DejaVuSans-2e" x="957.470703"/>
      <use xlink:href="#DejaVuSans-36" x="989.257812"/>
     </g>
    </g>
   </g>
  </g>
 </g>
 <defs>
  <clipPath id="p2a9dc2460b">
   <rect x="99.416" y="21.6" width="439.099" height="335.464"/>
  </clipPath>
 </defs>
</svg>
