<?xml version="1.0" encoding="utf-8" standalone="no"?>
<!DOCTYPE svg PUBLIC "-//W3C//DTD SVG 1.1//EN"
  "http://www.w3.org/Graphics/SVG/1.1/DTD/svg11.dtd">
<svg xmlns:xlink="http://www.w3.org/1999/xlink" width="576pt" height="432pt" viewBox="0 0 576 432" xmlns="http://www.w3.org/2000/svg" version="1.1">
 <metadata>
  <rdf:RDF xmlns:dc="http://purl.org/dc/elements/1.1/" xmlns:cc="http://creativecommons.org/ns#" xmlns:rdf="http://www.w3.org/1999/02/22-rdf-syntax-ns#">
   <cc:Work>
    <dc:type rdf:resource="http://purl.org/dc/dcmitype/StillImage"/>
    <dc:date>2024-04-03T16:46:49.460837</dc:date>
    <dc:format>image/svg+xml</dc:format>
    <dc:creator>
     <cc:Agent>
      <dc:title>Matplotlib v3.8.0, https://matplotlib.org/</dc:title>
     </cc:Agent>
    </dc:creator>
   </cc:Work>
  </rdf:RDF>
 </metadata>
 <defs>
  <style type="text/css">*{stroke-linejoin: round; stroke-linecap: butt}</style>
 </defs>
 <g id="figure_1">
  <g id="patch_1">
   <path d="M 0 432 
L 576 432 
L 576 0 
L 0 0 
z
" style="fill: #ffffff"/>
  </g>
  <g id="axes_1">
   <g id="patch_2">
    <path d="M 103.286 356.2 
L 541.71 356.2 
L 541.71 21.6 
L 103.286 21.6 
z
" style="fill: #ffffff"/>
   </g>
   <g id="PathCollection_1">
    <defs>
     <path id="m51111faf53" d="M 0 3 
C 0.795609 3 1.55874 2.683901 2.12132 2.12132 
C 2.683901 1.55874 3 0.795609 3 0 
C 3 -0.795609 2.683901 -1.55874 2.12132 -2.12132 
C 1.55874 -2.683901 0.795609 -3 0 -3 
C -0.795609 -3 -1.55874 -2.683901 -2.12132 -2.12132 
C -2.683901 -1.55874 -3 -0.795609 -3 0 
C -3 0.795609 -2.683901 1.55874 -2.12132 2.12132 
C -1.55874 2.683901 -0.795609 3 0 3 
z
" style="stroke: #00a6b6"/>
    </defs>
    <g clip-path="url(#p300e5eab6f)">
     <use xlink:href="#m51111faf53" x="176.356667" y="253.575456" style="fill: #00a6b6; stroke: #00a6b6"/>
     <use xlink:href="#m51111faf53" x="351.726267" y="103.544117" style="fill: #00a6b6; stroke: #00a6b6"/>
     <use xlink:href="#m51111faf53" x="424.796933" y="67.80196" style="fill: #00a6b6; stroke: #00a6b6"/>
     <use xlink:href="#m51111faf53" x="454.0252" y="54.803923" style="fill: #00a6b6; stroke: #00a6b6"/>
    </g>
   </g>
   <g id="PathCollection_2">
    <defs>
     <path id="m257f45911f" d="M 0 3 
C 0.795609 3 1.55874 2.683901 2.12132 2.12132 
C 2.683901 1.55874 3 0.795609 3 0 
C 3 -0.795609 2.683901 -1.55874 2.12132 -2.12132 
C 1.55874 -2.683901 0.795609 -3 0 -3 
C -0.795609 -3 -1.55874 -2.683901 -2.12132 -2.12132 
C -2.683901 -1.55874 -3 -0.795609 -3 0 
C -3 0.795609 -2.683901 1.55874 -2.12132 2.12132 
C -1.55874 2.683901 -0.795609 3 0 3 
z
" style="stroke: #a50034"/>
    </defs>
    <g clip-path="url(#p300e5eab6f)">
     <use xlink:href="#m257f45911f" x="175.439763" y="255.334174" style="fill: #a50034; stroke: #a50034"/>
     <use xlink:href="#m257f45911f" x="356.310783" y="106.092438" style="fill: #a50034; stroke: #a50034"/>
     <use xlink:href="#m257f45911f" x="430.320929" y="73.113753" style="fill: #a50034; stroke: #a50034"/>
     <use xlink:href="#m257f45911f" x="459.993024" y="62.980745" style="fill: #a50034; stroke: #a50034"/>
    </g>
   </g>
   <g id="PathCollection_3">
    <defs>
     <path id="m15f10c09da" d="M 0 3 
C 0.795609 3 1.55874 2.683901 2.12132 2.12132 
C 2.683901 1.55874 3 0.795609 3 0 
C 3 -0.795609 2.683901 -1.55874 2.12132 -2.12132 
C 1.55874 -2.683901 0.795609 -3 0 -3 
C -0.795609 -3 -1.55874 -2.683901 -2.12132 -2.12132 
C -2.683901 -1.55874 -3 -0.795609 -3 0 
C -3 0.795609 -2.683901 1.55874 -2.12132 2.12132 
C -1.55874 2.683901 -0.795609 3 0 3 
z
" style="stroke: #ef60a3"/>
    </defs>
    <g clip-path="url(#p300e5eab6f)">
     <use xlink:href="#m15f10c09da" x="176.356667" y="254.223045" style="fill: #ef60a3; stroke: #ef60a3"/>
     <use xlink:href="#m15f10c09da" x="249.427333" y="190.125277" style="fill: #ef60a3; stroke: #ef60a3"/>
     <use xlink:href="#m15f10c09da" x="351.726267" y="108.21824" style="fill: #ef60a3; stroke: #ef60a3"/>
     <use xlink:href="#m15f10c09da" x="424.796933" y="75.670174" style="fill: #ef60a3; stroke: #ef60a3"/>
     <use xlink:href="#m15f10c09da" x="454.0252" y="64.57256" style="fill: #ef60a3; stroke: #ef60a3"/>
    </g>
   </g>
   <g id="PathCollection_4">
    <defs>
     <path id="m725e8e58d1" d="M 0 3 
C 0.795609 3 1.55874 2.683901 2.12132 2.12132 
C 2.683901 1.55874 3 0.795609 3 0 
C 3 -0.795609 2.683901 -1.55874 2.12132 -2.12132 
C 1.55874 -2.683901 0.795609 -3 0 -3 
C -0.795609 -3 -1.55874 -2.683901 -2.12132 -2.12132 
C -2.683901 -1.55874 -3 -0.795609 -3 0 
C -3 0.795609 -2.683901 1.55874 -2.12132 2.12132 
C -1.55874 2.683901 -0.795609 3 0 3 
z
" style="stroke: #6cc24a"/>
    </defs>
    <g clip-path="url(#p300e5eab6f)">
     <use xlink:href="#m725e8e58d1" x="175.439763" y="256.694156" style="fill: #6cc24a; stroke: #6cc24a"/>
     <use xlink:href="#m725e8e58d1" x="250.955334" y="192.219345" style="fill: #6cc24a; stroke: #6cc24a"/>
     <use xlink:href="#m725e8e58d1" x="356.310783" y="109.634833" style="fill: #6cc24a; stroke: #6cc24a"/>
     <use xlink:href="#m725e8e58d1" x="430.320929" y="78.866547" style="fill: #6cc24a; stroke: #6cc24a"/>
     <use xlink:href="#m725e8e58d1" x="459.993024" y="70.150872" style="fill: #6cc24a; stroke: #6cc24a"/>
    </g>
   </g>
   <g id="matplotlib.axis_1">
    <g id="xtick_1">
     <g id="line2d_1">
      <path d="M 103.286 356.2 
L 103.286 21.6 
" clip-path="url(#p300e5eab6f)" style="fill: none; stroke: #b0b0b0; stroke-width: 0.8; stroke-linecap: square"/>
     </g>
     <g id="line2d_2">
      <defs>
       <path id="m2fcd7b49b9" d="M 0 0 
L 0 3.5 
" style="stroke: #000000; stroke-width: 0.8"/>
      </defs>
      <g>
       <use xlink:href="#m2fcd7b49b9" x="103.286" y="356.2" style="stroke: #000000; stroke-width: 0.8"/>
      </g>
     </g>
     <g id="text_1">
      <!-- −10 -->
      <g transform="translate(82.181313 378.396875) scale(0.2 -0.2)">
       <defs>
        <path id="DejaVuSans-2212" d="M 678 2272 
L 4684 2272 
L 4684 1741 
L 678 1741 
L 678 2272 
z
" transform="scale(0.015625)"/>
        <path id="DejaVuSans-31" d="M 794 531 
L 1825 531 
L 1825 4091 
L 703 3866 
L 703 4441 
L 1819 4666 
L 2450 4666 
L 2450 531 
L 3481 531 
L 3481 0 
L 794 0 
L 794 531 
z
" transform="scale(0.015625)"/>
        <path id="DejaVuSans-30" d="M 2034 4250 
Q 1547 4250 1301 3770 
Q 1056 3291 1056 2328 
Q 1056 1369 1301 889 
Q 1547 409 2034 409 
Q 2525 409 2770 889 
Q 3016 1369 3016 2328 
Q 3016 3291 2770 3770 
Q 2525 4250 2034 4250 
z
M 2034 4750 
Q 2819 4750 3233 4129 
Q 3647 3509 3647 2328 
Q 3647 1150 3233 529 
Q 2819 -91 2034 -91 
Q 1250 -91 836 529 
Q 422 1150 422 2328 
Q 422 3509 836 4129 
Q 1250 4750 2034 4750 
z
" transform="scale(0.015625)"/>
       </defs>
       <use xlink:href="#DejaVuSans-2212"/>
       <use xlink:href="#DejaVuSans-31" x="83.789062"/>
       <use xlink:href="#DejaVuSans-30" x="147.412109"/>
      </g>
     </g>
    </g>
    <g id="xtick_2">
     <g id="line2d_3">
      <path d="M 176.356667 356.2 
L 176.356667 21.6 
" clip-path="url(#p300e5eab6f)" style="fill: none; stroke: #b0b0b0; stroke-width: 0.8; stroke-linecap: square"/>
     </g>
     <g id="line2d_4">
      <g>
       <use xlink:href="#m2fcd7b49b9" x="176.356667" y="356.2" style="stroke: #000000; stroke-width: 0.8"/>
      </g>
     </g>
     <g id="text_2">
      <!-- −5 -->
      <g transform="translate(161.614479 378.396875) scale(0.2 -0.2)">
       <defs>
        <path id="DejaVuSans-35" d="M 691 4666 
L 3169 4666 
L 3169 4134 
L 1269 4134 
L 1269 2991 
Q 1406 3038 1543 3061 
Q 1681 3084 1819 3084 
Q 2600 3084 3056 2656 
Q 3513 2228 3513 1497 
Q 3513 744 3044 326 
Q 2575 -91 1722 -91 
Q 1428 -91 1123 -41 
Q 819 9 494 109 
L 494 744 
Q 775 591 1075 516 
Q 1375 441 1709 441 
Q 2250 441 2565 725 
Q 2881 1009 2881 1497 
Q 2881 1984 2565 2268 
Q 2250 2553 1709 2553 
Q 1456 2553 1204 2497 
Q 953 2441 691 2322 
L 691 4666 
z
" transform="scale(0.015625)"/>
       </defs>
       <use xlink:href="#DejaVuSans-2212"/>
       <use xlink:href="#DejaVuSans-35" x="83.789062"/>
      </g>
     </g>
    </g>
    <g id="xtick_3">
     <g id="line2d_5">
      <path d="M 249.427333 356.2 
L 249.427333 21.6 
" clip-path="url(#p300e5eab6f)" style="fill: none; stroke: #b0b0b0; stroke-width: 0.8; stroke-linecap: square"/>
     </g>
     <g id="line2d_6">
      <g>
       <use xlink:href="#m2fcd7b49b9" x="249.427333" y="356.2" style="stroke: #000000; stroke-width: 0.8"/>
      </g>
     </g>
     <g id="text_3">
      <!-- 0 -->
      <g transform="translate(243.064833 378.396875) scale(0.2 -0.2)">
       <use xlink:href="#DejaVuSans-30"/>
      </g>
     </g>
    </g>
    <g id="xtick_4">
     <g id="line2d_7">
      <path d="M 322.498 356.2 
L 322.498 21.6 
" clip-path="url(#p300e5eab6f)" style="fill: none; stroke: #b0b0b0; stroke-width: 0.8; stroke-linecap: square"/>
     </g>
     <g id="line2d_8">
      <g>
       <use xlink:href="#m2fcd7b49b9" x="322.498" y="356.2" style="stroke: #000000; stroke-width: 0.8"/>
      </g>
     </g>
     <g id="text_4">
      <!-- 5 -->
      <g transform="translate(316.1355 378.396875) scale(0.2 -0.2)">
       <use xlink:href="#DejaVuSans-35"/>
      </g>
     </g>
    </g>
    <g id="xtick_5">
     <g id="line2d_9">
      <path d="M 395.568667 356.2 
L 395.568667 21.6 
" clip-path="url(#p300e5eab6f)" style="fill: none; stroke: #b0b0b0; stroke-width: 0.8; stroke-linecap: square"/>
     </g>
     <g id="line2d_10">
      <g>
       <use xlink:href="#m2fcd7b49b9" x="395.568667" y="356.2" style="stroke: #000000; stroke-width: 0.8"/>
      </g>
     </g>
     <g id="text_5">
      <!-- 10 -->
      <g transform="translate(382.843667 378.396875) scale(0.2 -0.2)">
       <use xlink:href="#DejaVuSans-31"/>
       <use xlink:href="#DejaVuSans-30" x="63.623047"/>
      </g>
     </g>
    </g>
    <g id="xtick_6">
     <g id="line2d_11">
      <path d="M 468.639333 356.2 
L 468.639333 21.6 
" clip-path="url(#p300e5eab6f)" style="fill: none; stroke: #b0b0b0; stroke-width: 0.8; stroke-linecap: square"/>
     </g>
     <g id="line2d_12">
      <g>
       <use xlink:href="#m2fcd7b49b9" x="468.639333" y="356.2" style="stroke: #000000; stroke-width: 0.8"/>
      </g>
     </g>
     <g id="text_6">
      <!-- 15 -->
      <g transform="translate(455.914333 378.396875) scale(0.2 -0.2)">
       <use xlink:href="#DejaVuSans-31"/>
       <use xlink:href="#DejaVuSans-35" x="63.623047"/>
      </g>
     </g>
    </g>
    <g id="xtick_7">
     <g id="line2d_13">
      <path d="M 541.71 356.2 
L 541.71 21.6 
" clip-path="url(#p300e5eab6f)" style="fill: none; stroke: #b0b0b0; stroke-width: 0.8; stroke-linecap: square"/>
     </g>
     <g id="line2d_14">
      <g>
       <use xlink:href="#m2fcd7b49b9" x="541.71" y="356.2" style="stroke: #000000; stroke-width: 0.8"/>
      </g>
     </g>
     <g id="text_7">
      <!-- 20 -->
      <g transform="translate(528.985 378.396875) scale(0.2 -0.2)">
       <defs>
        <path id="DejaVuSans-32" d="M 1228 531 
L 3431 531 
L 3431 0 
L 469 0 
L 469 531 
Q 828 903 1448 1529 
Q 2069 2156 2228 2338 
Q 2531 2678 2651 2914 
Q 2772 3150 2772 3378 
Q 2772 3750 2511 3984 
Q 2250 4219 1831 4219 
Q 1534 4219 1204 4116 
Q 875 4013 500 3803 
L 500 4441 
Q 881 4594 1212 4672 
Q 1544 4750 1819 4750 
Q 2544 4750 2975 4387 
Q 3406 4025 3406 3419 
Q 3406 3131 3298 2873 
Q 3191 2616 2906 2266 
Q 2828 2175 2409 1742 
Q 1991 1309 1228 531 
z
" transform="scale(0.015625)"/>
       </defs>
       <use xlink:href="#DejaVuSans-32"/>
       <use xlink:href="#DejaVuSans-30" x="63.623047"/>
      </g>
     </g>
    </g>
    <g id="text_8">
     <!-- $\alpha$ [deg] -->
     <g transform="translate(285.998 401.75625) scale(0.2 -0.2)">
      <defs>
       <path id="DejaVuSans-Oblique-3b1" d="M 2619 1628 
L 2622 2350 
Q 2625 3088 2069 3091 
Q 1653 3094 1394 2747 
Q 1069 2319 959 1747 
Q 825 1059 994 731 
Q 1169 397 1547 397 
Q 1966 397 2319 1063 
L 2619 1628 
z
M 2166 3578 
Q 3141 3594 3128 2584 
Q 3128 2584 3616 3500 
L 4128 3500 
L 3119 1603 
L 3109 919 
Q 3109 766 3194 638 
Q 3291 488 3391 488 
L 3669 488 
L 3575 0 
L 3228 0 
Q 2934 0 2722 263 
Q 2622 394 2619 669 
Q 2416 334 2066 50 
Q 1900 -81 1453 -78 
Q 722 -72 456 397 
Q 184 884 353 1747 
Q 534 2675 1009 3097 
Q 1544 3569 2166 3578 
z
" transform="scale(0.015625)"/>
       <path id="DejaVuSans-20" transform="scale(0.015625)"/>
       <path id="DejaVuSans-5b" d="M 550 4863 
L 1875 4863 
L 1875 4416 
L 1125 4416 
L 1125 -397 
L 1875 -397 
L 1875 -844 
L 550 -844 
L 550 4863 
z
" transform="scale(0.015625)"/>
       <path id="DejaVuSans-64" d="M 2906 2969 
L 2906 4863 
L 3481 4863 
L 3481 0 
L 2906 0 
L 2906 525 
Q 2725 213 2448 61 
Q 2172 -91 1784 -91 
Q 1150 -91 751 415 
Q 353 922 353 1747 
Q 353 2572 751 3078 
Q 1150 3584 1784 3584 
Q 2172 3584 2448 3432 
Q 2725 3281 2906 2969 
z
M 947 1747 
Q 947 1113 1208 752 
Q 1469 391 1925 391 
Q 2381 391 2643 752 
Q 2906 1113 2906 1747 
Q 2906 2381 2643 2742 
Q 2381 3103 1925 3103 
Q 1469 3103 1208 2742 
Q 947 2381 947 1747 
z
" transform="scale(0.015625)"/>
       <path id="DejaVuSans-65" d="M 3597 1894 
L 3597 1613 
L 953 1613 
Q 991 1019 1311 708 
Q 1631 397 2203 397 
Q 2534 397 2845 478 
Q 3156 559 3463 722 
L 3463 178 
Q 3153 47 2828 -22 
Q 2503 -91 2169 -91 
Q 1331 -91 842 396 
Q 353 884 353 1716 
Q 353 2575 817 3079 
Q 1281 3584 2069 3584 
Q 2775 3584 3186 3129 
Q 3597 2675 3597 1894 
z
M 3022 2063 
Q 3016 2534 2758 2815 
Q 2500 3097 2075 3097 
Q 1594 3097 1305 2825 
Q 1016 2553 972 2059 
L 3022 2063 
z
" transform="scale(0.015625)"/>
       <path id="DejaVuSans-67" d="M 2906 1791 
Q 2906 2416 2648 2759 
Q 2391 3103 1925 3103 
Q 1463 3103 1205 2759 
Q 947 2416 947 1791 
Q 947 1169 1205 825 
Q 1463 481 1925 481 
Q 2391 481 2648 825 
Q 2906 1169 2906 1791 
z
M 3481 434 
Q 3481 -459 3084 -895 
Q 2688 -1331 1869 -1331 
Q 1566 -1331 1297 -1286 
Q 1028 -1241 775 -1147 
L 775 -588 
Q 1028 -725 1275 -790 
Q 1522 -856 1778 -856 
Q 2344 -856 2625 -561 
Q 2906 -266 2906 331 
L 2906 616 
Q 2728 306 2450 153 
Q 2172 0 1784 0 
Q 1141 0 747 490 
Q 353 981 353 1791 
Q 353 2603 747 3093 
Q 1141 3584 1784 3584 
Q 2172 3584 2450 3431 
Q 2728 3278 2906 2969 
L 2906 3500 
L 3481 3500 
L 3481 434 
z
" transform="scale(0.015625)"/>
       <path id="DejaVuSans-5d" d="M 1947 4863 
L 1947 -844 
L 622 -844 
L 622 -397 
L 1369 -397 
L 1369 4416 
L 622 4416 
L 622 4863 
L 1947 4863 
z
" transform="scale(0.015625)"/>
      </defs>
      <use xlink:href="#DejaVuSans-Oblique-3b1" transform="translate(0 0.015625)"/>
      <use xlink:href="#DejaVuSans-20" transform="translate(65.917969 0.015625)"/>
      <use xlink:href="#DejaVuSans-5b" transform="translate(97.705078 0.015625)"/>
      <use xlink:href="#DejaVuSans-64" transform="translate(136.71875 0.015625)"/>
      <use xlink:href="#DejaVuSans-65" transform="translate(200.195312 0.015625)"/>
      <use xlink:href="#DejaVuSans-67" transform="translate(261.71875 0.015625)"/>
      <use xlink:href="#DejaVuSans-5d" transform="translate(325.195312 0.015625)"/>
     </g>
    </g>
   </g>
   <g id="matplotlib.axis_2">
    <g id="ytick_1">
     <g id="line2d_15">
      <path d="M 103.286 326.209486 
L 541.71 326.209486 
" clip-path="url(#p300e5eab6f)" style="fill: none; stroke: #b0b0b0; stroke-width: 0.8; stroke-linecap: square"/>
     </g>
     <g id="line2d_16">
      <defs>
       <path id="m74149265df" d="M 0 0 
L -3.5 0 
" style="stroke: #000000; stroke-width: 0.8"/>
      </defs>
      <g>
       <use xlink:href="#m74149265df" x="103.286" y="326.209486" style="stroke: #000000; stroke-width: 0.8"/>
      </g>
     </g>
     <g id="text_9">
      <!-- −1.0 -->
      <g transform="translate(47.720375 333.807923) scale(0.2 -0.2)">
       <defs>
        <path id="DejaVuSans-2e" d="M 684 794 
L 1344 794 
L 1344 0 
L 684 0 
L 684 794 
z
" transform="scale(0.015625)"/>
       </defs>
       <use xlink:href="#DejaVuSans-2212"/>
       <use xlink:href="#DejaVuSans-31" x="83.789062"/>
       <use xlink:href="#DejaVuSans-2e" x="147.412109"/>
       <use xlink:href="#DejaVuSans-30" x="179.199219"/>
      </g>
     </g>
    </g>
    <g id="ytick_2">
     <g id="line2d_17">
      <path d="M 103.286 270.620677 
L 541.71 270.620677 
" clip-path="url(#p300e5eab6f)" style="fill: none; stroke: #b0b0b0; stroke-width: 0.8; stroke-linecap: square"/>
     </g>
     <g id="line2d_18">
      <g>
       <use xlink:href="#m74149265df" x="103.286" y="270.620677" style="stroke: #000000; stroke-width: 0.8"/>
      </g>
     </g>
     <g id="text_10">
      <!-- −0.5 -->
      <g transform="translate(47.720375 278.219114) scale(0.2 -0.2)">
       <use xlink:href="#DejaVuSans-2212"/>
       <use xlink:href="#DejaVuSans-30" x="83.789062"/>
       <use xlink:href="#DejaVuSans-2e" x="147.412109"/>
       <use xlink:href="#DejaVuSans-35" x="179.199219"/>
      </g>
     </g>
    </g>
    <g id="ytick_3">
     <g id="line2d_19">
      <path d="M 103.286 215.031868 
L 541.71 215.031868 
" clip-path="url(#p300e5eab6f)" style="fill: none; stroke: #b0b0b0; stroke-width: 0.8; stroke-linecap: square"/>
     </g>
     <g id="line2d_20">
      <g>
       <use xlink:href="#m74149265df" x="103.286" y="215.031868" style="stroke: #000000; stroke-width: 0.8"/>
      </g>
     </g>
     <g id="text_11">
      <!-- 0.0 -->
      <g transform="translate(64.47975 222.630305) scale(0.2 -0.2)">
       <use xlink:href="#DejaVuSans-30"/>
       <use xlink:href="#DejaVuSans-2e" x="63.623047"/>
       <use xlink:href="#DejaVuSans-30" x="95.410156"/>
      </g>
     </g>
    </g>
    <g id="ytick_4">
     <g id="line2d_21">
      <path d="M 103.286 159.443059 
L 541.71 159.443059 
" clip-path="url(#p300e5eab6f)" style="fill: none; stroke: #b0b0b0; stroke-width: 0.8; stroke-linecap: square"/>
     </g>
     <g id="line2d_22">
      <g>
       <use xlink:href="#m74149265df" x="103.286" y="159.443059" style="stroke: #000000; stroke-width: 0.8"/>
      </g>
     </g>
     <g id="text_12">
      <!-- 0.5 -->
      <g transform="translate(64.47975 167.041496) scale(0.2 -0.2)">
       <use xlink:href="#DejaVuSans-30"/>
       <use xlink:href="#DejaVuSans-2e" x="63.623047"/>
       <use xlink:href="#DejaVuSans-35" x="95.410156"/>
      </g>
     </g>
    </g>
    <g id="ytick_5">
     <g id="line2d_23">
      <path d="M 103.286 103.85425 
L 541.71 103.85425 
" clip-path="url(#p300e5eab6f)" style="fill: none; stroke: #b0b0b0; stroke-width: 0.8; stroke-linecap: square"/>
     </g>
     <g id="line2d_24">
      <g>
       <use xlink:href="#m74149265df" x="103.286" y="103.85425" style="stroke: #000000; stroke-width: 0.8"/>
      </g>
     </g>
     <g id="text_13">
      <!-- 1.0 -->
      <g transform="translate(64.47975 111.452687) scale(0.2 -0.2)">
       <use xlink:href="#DejaVuSans-31"/>
       <use xlink:href="#DejaVuSans-2e" x="63.623047"/>
       <use xlink:href="#DejaVuSans-30" x="95.410156"/>
      </g>
     </g>
    </g>
    <g id="ytick_6">
     <g id="line2d_25">
      <path d="M 103.286 48.265441 
L 541.71 48.265441 
" clip-path="url(#p300e5eab6f)" style="fill: none; stroke: #b0b0b0; stroke-width: 0.8; stroke-linecap: square"/>
     </g>
     <g id="line2d_26">
      <g>
       <use xlink:href="#m74149265df" x="103.286" y="48.265441" style="stroke: #000000; stroke-width: 0.8"/>
      </g>
     </g>
     <g id="text_14">
      <!-- 1.5 -->
      <g transform="translate(64.47975 55.863878) scale(0.2 -0.2)">
       <use xlink:href="#DejaVuSans-31"/>
       <use xlink:href="#DejaVuSans-2e" x="63.623047"/>
       <use xlink:href="#DejaVuSans-35" x="95.410156"/>
      </g>
     </g>
    </g>
    <g id="text_15">
     <!-- $C_L$ [-] -->
     <g transform="translate(39.561 214.7) rotate(-90) scale(0.2 -0.2)">
      <defs>
       <path id="DejaVuSans-Oblique-43" d="M 4447 4306 
L 4319 3641 
Q 4019 3944 3683 4091 
Q 3347 4238 2956 4238 
Q 2422 4238 2017 3981 
Q 1613 3725 1319 3200 
Q 1131 2863 1032 2486 
Q 934 2109 934 1728 
Q 934 1091 1264 756 
Q 1594 422 2222 422 
Q 2656 422 3056 561 
Q 3456 700 3834 978 
L 3688 231 
Q 3316 72 2936 -9 
Q 2556 -91 2175 -91 
Q 1278 -91 773 396 
Q 269 884 269 1753 
Q 269 2309 461 2846 
Q 653 3384 1013 3828 
Q 1394 4300 1883 4525 
Q 2372 4750 3022 4750 
Q 3422 4750 3780 4639 
Q 4138 4528 4447 4306 
z
" transform="scale(0.015625)"/>
       <path id="DejaVuSans-Oblique-4c" d="M 1075 4666 
L 1709 4666 
L 909 525 
L 3181 525 
L 3078 0 
L 172 0 
L 1075 4666 
z
" transform="scale(0.015625)"/>
       <path id="DejaVuSans-2d" d="M 313 2009 
L 1997 2009 
L 1997 1497 
L 313 1497 
L 313 2009 
z
" transform="scale(0.015625)"/>
      </defs>
      <use xlink:href="#DejaVuSans-Oblique-43" transform="translate(0 0.015625)"/>
      <use xlink:href="#DejaVuSans-Oblique-4c" transform="translate(69.824219 -16.390625) scale(0.7)"/>
      <use xlink:href="#DejaVuSans-20" transform="translate(111.557617 0.015625)"/>
      <use xlink:href="#DejaVuSans-5b" transform="translate(143.344727 0.015625)"/>
      <use xlink:href="#DejaVuSans-2d" transform="translate(182.358398 0.015625)"/>
      <use xlink:href="#DejaVuSans-5d" transform="translate(218.442383 0.015625)"/>
     </g>
    </g>
   </g>
   <g id="line2d_27">
    <path d="M 103.286 340.557983 
L 107.714525 334.868336 
L 112.143051 329.23219 
L 116.571576 323.649543 
L 121.000101 318.120395 
L 125.428626 312.644747 
L 129.857152 307.222598 
L 134.285677 301.853949 
L 138.714202 296.538799 
L 143.142727 291.277149 
L 147.571253 286.068998 
L 151.999778 280.914347 
L 156.428303 275.813196 
L 160.856828 270.765543 
L 165.285354 265.771391 
L 169.713879 260.830738 
L 174.142404 255.943584 
L 178.570929 251.10993 
L 182.999455 246.329775 
L 187.42798 241.60312 
L 191.856505 236.929964 
L 196.28503 232.310308 
L 200.713556 227.744151 
L 205.142081 223.231494 
L 209.570606 218.772337 
L 213.999131 214.366678 
L 218.427657 210.01452 
L 222.856182 205.715861 
L 227.284707 201.470701 
L 231.713232 197.279041 
L 236.141758 193.14088 
L 240.570283 189.056219 
L 244.998808 185.025057 
L 249.427333 181.047395 
L 253.855859 177.123233 
L 258.284384 173.252569 
L 262.712909 169.435406 
L 267.141434 165.671742 
L 271.56996 161.961577 
L 275.998485 158.304912 
L 280.42701 154.701746 
L 284.855535 151.15208 
L 289.284061 147.655914 
L 293.712586 144.213246 
L 298.141111 140.824079 
L 302.569636 137.488411 
L 306.998162 134.206242 
L 311.426687 130.977573 
L 315.855212 127.802403 
L 320.283737 124.680733 
L 324.712263 121.612563 
L 329.140788 118.597891 
L 333.569313 115.63672 
L 337.997838 112.729048 
L 342.426364 109.874875 
L 346.854889 107.074202 
L 351.283414 104.327028 
L 355.711939 101.633354 
L 360.140465 98.99318 
L 364.56899 96.406504 
L 368.997515 93.873329 
L 373.42604 91.393653 
L 377.854566 88.967476 
L 382.283091 86.594799 
L 386.711616 84.275621 
L 391.140141 82.009943 
L 395.568667 79.797765 
L 399.997192 77.639086 
L 404.425717 75.533906 
L 408.854242 73.482226 
L 413.282768 71.484045 
L 417.711293 69.539364 
L 422.139818 67.648183 
L 426.568343 65.810501 
L 430.996869 64.026318 
L 435.425394 62.295635 
L 439.853919 60.618451 
L 444.282444 58.994767 
L 448.71097 57.424583 
L 453.139495 55.907897 
L 457.56802 54.444712 
L 461.996545 53.035026 
L 466.425071 51.678839 
L 470.853596 50.376152 
L 475.282121 49.126965 
L 479.710646 47.931276 
L 484.139172 46.789088 
L 488.567697 45.700399 
L 492.996222 44.665209 
L 497.424747 43.683519 
L 501.853273 42.755329 
L 506.281798 41.880637 
L 510.710323 41.059446 
L 515.138848 40.291754 
L 519.567374 39.577561 
L 523.995899 38.916868 
L 528.424424 38.309675 
L 532.852949 37.755981 
L 537.281475 37.255786 
L 541.71 36.809091 
" clip-path="url(#p300e5eab6f)" style="fill: none; stroke-dasharray: 9.6,2.4,1.5,2.4; stroke-dashoffset: 0; stroke: #00a6b6; stroke-width: 1.5"/>
   </g>
   <g id="line2d_28">
    <path d="M 103.286 340.990909 
L 107.714525 335.300724 
L 112.143051 329.666945 
L 116.571576 324.089573 
L 121.000101 318.568607 
L 125.428626 313.104047 
L 129.857152 307.695894 
L 134.285677 302.344147 
L 138.714202 297.048807 
L 143.142727 291.809873 
L 147.571253 286.627346 
L 151.999778 281.501225 
L 156.428303 276.43151 
L 160.856828 271.418202 
L 165.285354 266.4613 
L 169.713879 261.560805 
L 174.142404 256.716716 
L 178.570929 251.929033 
L 182.999455 247.197757 
L 187.42798 242.522887 
L 191.856505 237.904424 
L 196.28503 233.342367 
L 200.713556 228.836717 
L 205.142081 224.387472 
L 209.570606 219.994635 
L 213.999131 215.658204 
L 218.427657 211.378179 
L 222.856182 207.15456 
L 227.284707 202.987348 
L 231.713232 198.876543 
L 236.141758 194.822144 
L 240.570283 190.824151 
L 244.998808 186.882565 
L 249.427333 182.997385 
L 253.855859 179.168611 
L 258.284384 175.396244 
L 262.712909 171.680283 
L 267.141434 168.020729 
L 271.56996 164.417581 
L 275.998485 160.87084 
L 280.42701 157.380505 
L 284.855535 153.946576 
L 289.284061 150.569054 
L 293.712586 147.247938 
L 298.141111 143.983229 
L 302.569636 140.774926 
L 306.998162 137.623029 
L 311.426687 134.527539 
L 315.855212 131.488456 
L 320.283737 128.505778 
L 324.712263 125.579508 
L 329.140788 122.709643 
L 333.569313 119.896185 
L 337.997838 117.139133 
L 342.426364 114.438488 
L 346.854889 111.794249 
L 351.283414 109.206417 
L 355.711939 106.674991 
L 360.140465 104.199972 
L 364.56899 101.781358 
L 368.997515 99.419152 
L 373.42604 97.113351 
L 377.854566 94.863958 
L 382.283091 92.67097 
L 386.711616 90.534389 
L 391.140141 88.454214 
L 395.568667 86.430446 
L 399.997192 84.463084 
L 404.425717 82.552129 
L 408.854242 80.69758 
L 413.282768 78.899437 
L 417.711293 77.157701 
L 422.139818 75.472372 
L 426.568343 73.843448 
L 430.996869 72.270931 
L 435.425394 70.754821 
L 439.853919 69.295117 
L 444.282444 67.891819 
L 448.71097 66.544928 
L 453.139495 65.254443 
L 457.56802 64.020365 
L 461.996545 62.842693 
L 466.425071 61.721427 
L 470.853596 60.656568 
L 475.282121 59.648115 
L 479.710646 58.696069 
L 484.139172 57.800429 
L 488.567697 56.961195 
L 492.996222 56.178368 
L 497.424747 55.451948 
L 501.853273 54.781933 
L 506.281798 54.168325 
L 510.710323 53.611124 
L 515.138848 53.110329 
L 519.567374 52.66594 
L 523.995899 52.277958 
L 528.424424 51.946382 
L 532.852949 51.671213 
L 537.281475 51.45245 
L 541.71 51.290094 
" clip-path="url(#p300e5eab6f)" style="fill: none; stroke-dasharray: 9.6,2.4,1.5,2.4; stroke-dashoffset: 0; stroke: #a50034; stroke-width: 1.5"/>
   </g>
   <g id="line2d_29">
    <path d="M 103.286 339.126794 
L 107.714525 333.691227 
L 112.143051 328.30584 
L 116.571576 322.970635 
L 121.000101 317.68561 
L 125.428626 312.450767 
L 129.857152 307.266104 
L 134.285677 302.131623 
L 138.714202 297.047322 
L 143.142727 292.013202 
L 147.571253 287.029263 
L 151.999778 282.095505 
L 156.428303 277.211928 
L 160.856828 272.378532 
L 165.285354 267.595317 
L 169.713879 262.862282 
L 174.142404 258.179429 
L 178.570929 253.546757 
L 182.999455 248.964265 
L 187.42798 244.431954 
L 191.856505 239.949825 
L 196.28503 235.517876 
L 200.713556 231.136108 
L 205.142081 226.804522 
L 209.570606 222.523116 
L 213.999131 218.291891 
L 218.427657 214.110847 
L 222.856182 209.979984 
L 227.284707 205.899301 
L 231.713232 201.8688 
L 236.141758 197.88848 
L 240.570283 193.95834 
L 244.998808 190.078382 
L 249.427333 186.248604 
L 253.855859 182.469008 
L 258.284384 178.739592 
L 262.712909 175.060357 
L 267.141434 171.431304 
L 271.56996 167.852431 
L 275.998485 164.323739 
L 280.42701 160.845228 
L 284.855535 157.416898 
L 289.284061 154.038749 
L 293.712586 150.71078 
L 298.141111 147.432993 
L 302.569636 144.205387 
L 306.998162 141.027961 
L 311.426687 137.900717 
L 315.855212 134.823653 
L 320.283737 131.796771 
L 324.712263 128.820069 
L 329.140788 125.893548 
L 333.569313 123.017208 
L 337.997838 120.191049 
L 342.426364 117.415071 
L 346.854889 114.689274 
L 351.283414 112.013658 
L 355.711939 109.388223 
L 360.140465 106.812969 
L 364.56899 104.287895 
L 368.997515 101.813003 
L 373.42604 99.388291 
L 377.854566 97.013761 
L 382.283091 94.689411 
L 386.711616 92.415243 
L 391.140141 90.191255 
L 395.568667 88.017448 
L 399.997192 85.893822 
L 404.425717 83.820377 
L 408.854242 81.797113 
L 413.282768 79.82403 
L 417.711293 77.901128 
L 422.139818 76.028407 
L 426.568343 74.205866 
L 430.996869 72.433507 
L 435.425394 70.711329 
L 439.853919 69.039331 
L 444.282444 67.417514 
L 448.71097 65.845879 
L 453.139495 64.324424 
L 457.56802 62.85315 
L 461.996545 61.432057 
L 466.425071 60.061145 
L 470.853596 58.740414 
L 475.282121 57.469864 
L 479.710646 56.249495 
L 484.139172 55.079307 
L 488.567697 53.9593 
L 492.996222 52.889473 
L 497.424747 51.869828 
L 501.853273 50.900363 
L 506.281798 49.98108 
L 510.710323 49.111977 
L 515.138848 48.293056 
L 519.567374 47.524315 
L 523.995899 46.805755 
L 528.424424 46.137376 
L 532.852949 45.519178 
L 537.281475 44.951161 
L 541.71 44.433325 
" clip-path="url(#p300e5eab6f)" style="fill: none; stroke-dasharray: 9.6,2.4,1.5,2.4; stroke-dashoffset: 0; stroke: #ef60a3; stroke-width: 1.5"/>
   </g>
   <g id="line2d_30">
    <path d="M 103.286 340.461413 
L 107.714525 335.047595 
L 112.143051 329.68514 
L 116.571576 324.374048 
L 121.000101 319.11432 
L 125.428626 313.905955 
L 129.857152 308.748954 
L 134.285677 303.643316 
L 138.714202 298.589041 
L 143.142727 293.58613 
L 147.571253 288.634582 
L 151.999778 283.734397 
L 156.428303 278.885576 
L 160.856828 274.088119 
L 165.285354 269.342024 
L 169.713879 264.647293 
L 174.142404 260.003926 
L 178.570929 255.411922 
L 182.999455 250.871281 
L 187.42798 246.382004 
L 191.856505 241.94409 
L 196.28503 237.557539 
L 200.713556 233.222352 
L 205.142081 228.938528 
L 209.570606 224.706068 
L 213.999131 220.524971 
L 218.427657 216.395237 
L 222.856182 212.316867 
L 227.284707 208.28986 
L 231.713232 204.314216 
L 236.141758 200.389936 
L 240.570283 196.51702 
L 244.998808 192.695466 
L 249.427333 188.925276 
L 253.855859 185.20645 
L 258.284384 181.538987 
L 262.712909 177.922887 
L 267.141434 174.358151 
L 271.56996 170.844778 
L 275.998485 167.382768 
L 280.42701 163.972122 
L 284.855535 160.612839 
L 289.284061 157.30492 
L 293.712586 154.048364 
L 298.141111 150.843171 
L 302.569636 147.689342 
L 306.998162 144.586876 
L 311.426687 141.535774 
L 315.855212 138.536035 
L 320.283737 135.587659 
L 324.712263 132.690647 
L 329.140788 129.844998 
L 333.569313 127.050712 
L 337.997838 124.30779 
L 342.426364 121.616232 
L 346.854889 118.976036 
L 351.283414 116.387204 
L 355.711939 113.849736 
L 360.140465 111.363631 
L 364.56899 108.928889 
L 368.997515 106.54551 
L 373.42604 104.213495 
L 377.854566 101.932844 
L 382.283091 99.703556 
L 386.711616 97.525631 
L 391.140141 95.399069 
L 395.568667 93.323871 
L 399.997192 91.300037 
L 404.425717 89.327566 
L 408.854242 87.406458 
L 413.282768 85.536713 
L 417.711293 83.718332 
L 422.139818 81.951314 
L 426.568343 80.23566 
L 430.996869 78.571369 
L 435.425394 76.958442 
L 439.853919 75.396878 
L 444.282444 73.886677 
L 448.71097 72.42784 
L 453.139495 71.020366 
L 457.56802 69.664255 
L 461.996545 68.359508 
L 466.425071 67.106124 
L 470.853596 65.904104 
L 475.282121 64.753447 
L 479.710646 63.654153 
L 484.139172 62.606223 
L 488.567697 61.609656 
L 492.996222 60.664453 
L 497.424747 59.770612 
L 501.853273 58.928136 
L 506.281798 58.137023 
L 510.710323 57.397273 
L 515.138848 56.708886 
L 519.567374 56.071863 
L 523.995899 55.486203 
L 528.424424 54.951907 
L 532.852949 54.468974 
L 537.281475 54.037405 
L 541.71 53.657198 
" clip-path="url(#p300e5eab6f)" style="fill: none; stroke-dasharray: 9.6,2.4,1.5,2.4; stroke-dashoffset: 0; stroke: #6cc24a; stroke-width: 1.5"/>
   </g>
   <g id="patch_3">
    <path d="M 103.286 356.2 
L 103.286 21.6 
" style="fill: none; stroke: #000000; stroke-width: 0.8; stroke-linejoin: miter; stroke-linecap: square"/>
   </g>
   <g id="patch_4">
    <path d="M 541.71 356.2 
L 541.71 21.6 
" style="fill: none; stroke: #000000; stroke-width: 0.8; stroke-linejoin: miter; stroke-linecap: square"/>
   </g>
   <g id="patch_5">
    <path d="M 103.286 356.2 
L 541.71 356.2 
" style="fill: none; stroke: #000000; stroke-width: 0.8; stroke-linejoin: miter; stroke-linecap: square"/>
   </g>
   <g id="patch_6">
    <path d="M 103.286 21.6 
L 541.71 21.6 
" style="fill: none; stroke: #000000; stroke-width: 0.8; stroke-linejoin: miter; stroke-linecap: square"/>
   </g>
   <g id="legend_1">
    <g id="patch_7">
     <path d="M 280.550625 346.2 
L 527.71 346.2 
Q 531.71 346.2 531.71 342.2 
L 531.71 226.775 
Q 531.71 222.775 527.71 222.775 
L 280.550625 222.775 
Q 276.550625 222.775 276.550625 226.775 
L 276.550625 342.2 
Q 276.550625 346.2 280.550625 346.2 
z
" style="fill: #ffffff; opacity: 0.8; stroke: #cccccc; stroke-linejoin: miter"/>
    </g>
    <g id="line2d_31">
     <path d="M 284.550625 238.971875 
L 304.550625 238.971875 
L 324.550625 238.971875 
" style="fill: none; stroke-dasharray: 9.6,2.4,1.5,2.4; stroke-dashoffset: 0; stroke: #00a6b6; stroke-width: 1.5"/>
    </g>
    <g id="text_16">
     <!-- Uncorrected J=1.8 -->
     <g transform="translate(340.550625 245.971875) scale(0.2 -0.2)">
      <defs>
       <path id="DejaVuSans-55" d="M 556 4666 
L 1191 4666 
L 1191 1831 
Q 1191 1081 1462 751 
Q 1734 422 2344 422 
Q 2950 422 3222 751 
Q 3494 1081 3494 1831 
L 3494 4666 
L 4128 4666 
L 4128 1753 
Q 4128 841 3676 375 
Q 3225 -91 2344 -91 
Q 1459 -91 1007 375 
Q 556 841 556 1753 
L 556 4666 
z
" transform="scale(0.015625)"/>
       <path id="DejaVuSans-6e" d="M 3513 2113 
L 3513 0 
L 2938 0 
L 2938 2094 
Q 2938 2591 2744 2837 
Q 2550 3084 2163 3084 
Q 1697 3084 1428 2787 
Q 1159 2491 1159 1978 
L 1159 0 
L 581 0 
L 581 3500 
L 1159 3500 
L 1159 2956 
Q 1366 3272 1645 3428 
Q 1925 3584 2291 3584 
Q 2894 3584 3203 3211 
Q 3513 2838 3513 2113 
z
" transform="scale(0.015625)"/>
       <path id="DejaVuSans-63" d="M 3122 3366 
L 3122 2828 
Q 2878 2963 2633 3030 
Q 2388 3097 2138 3097 
Q 1578 3097 1268 2742 
Q 959 2388 959 1747 
Q 959 1106 1268 751 
Q 1578 397 2138 397 
Q 2388 397 2633 464 
Q 2878 531 3122 666 
L 3122 134 
Q 2881 22 2623 -34 
Q 2366 -91 2075 -91 
Q 1284 -91 818 406 
Q 353 903 353 1747 
Q 353 2603 823 3093 
Q 1294 3584 2113 3584 
Q 2378 3584 2631 3529 
Q 2884 3475 3122 3366 
z
" transform="scale(0.015625)"/>
       <path id="DejaVuSans-6f" d="M 1959 3097 
Q 1497 3097 1228 2736 
Q 959 2375 959 1747 
Q 959 1119 1226 758 
Q 1494 397 1959 397 
Q 2419 397 2687 759 
Q 2956 1122 2956 1747 
Q 2956 2369 2687 2733 
Q 2419 3097 1959 3097 
z
M 1959 3584 
Q 2709 3584 3137 3096 
Q 3566 2609 3566 1747 
Q 3566 888 3137 398 
Q 2709 -91 1959 -91 
Q 1206 -91 779 398 
Q 353 888 353 1747 
Q 353 2609 779 3096 
Q 1206 3584 1959 3584 
z
" transform="scale(0.015625)"/>
       <path id="DejaVuSans-72" d="M 2631 2963 
Q 2534 3019 2420 3045 
Q 2306 3072 2169 3072 
Q 1681 3072 1420 2755 
Q 1159 2438 1159 1844 
L 1159 0 
L 581 0 
L 581 3500 
L 1159 3500 
L 1159 2956 
Q 1341 3275 1631 3429 
Q 1922 3584 2338 3584 
Q 2397 3584 2469 3576 
Q 2541 3569 2628 3553 
L 2631 2963 
z
" transform="scale(0.015625)"/>
       <path id="DejaVuSans-74" d="M 1172 4494 
L 1172 3500 
L 2356 3500 
L 2356 3053 
L 1172 3053 
L 1172 1153 
Q 1172 725 1289 603 
Q 1406 481 1766 481 
L 2356 481 
L 2356 0 
L 1766 0 
Q 1100 0 847 248 
Q 594 497 594 1153 
L 594 3053 
L 172 3053 
L 172 3500 
L 594 3500 
L 594 4494 
L 1172 4494 
z
" transform="scale(0.015625)"/>
       <path id="DejaVuSans-4a" d="M 628 4666 
L 1259 4666 
L 1259 325 
Q 1259 -519 939 -900 
Q 619 -1281 -91 -1281 
L -331 -1281 
L -331 -750 
L -134 -750 
Q 284 -750 456 -515 
Q 628 -281 628 325 
L 628 4666 
z
" transform="scale(0.015625)"/>
       <path id="DejaVuSans-3d" d="M 678 2906 
L 4684 2906 
L 4684 2381 
L 678 2381 
L 678 2906 
z
M 678 1631 
L 4684 1631 
L 4684 1100 
L 678 1100 
L 678 1631 
z
" transform="scale(0.015625)"/>
       <path id="DejaVuSans-38" d="M 2034 2216 
Q 1584 2216 1326 1975 
Q 1069 1734 1069 1313 
Q 1069 891 1326 650 
Q 1584 409 2034 409 
Q 2484 409 2743 651 
Q 3003 894 3003 1313 
Q 3003 1734 2745 1975 
Q 2488 2216 2034 2216 
z
M 1403 2484 
Q 997 2584 770 2862 
Q 544 3141 544 3541 
Q 544 4100 942 4425 
Q 1341 4750 2034 4750 
Q 2731 4750 3128 4425 
Q 3525 4100 3525 3541 
Q 3525 3141 3298 2862 
Q 3072 2584 2669 2484 
Q 3125 2378 3379 2068 
Q 3634 1759 3634 1313 
Q 3634 634 3220 271 
Q 2806 -91 2034 -91 
Q 1263 -91 848 271 
Q 434 634 434 1313 
Q 434 1759 690 2068 
Q 947 2378 1403 2484 
z
M 1172 3481 
Q 1172 3119 1398 2916 
Q 1625 2713 2034 2713 
Q 2441 2713 2670 2916 
Q 2900 3119 2900 3481 
Q 2900 3844 2670 4047 
Q 2441 4250 2034 4250 
Q 1625 4250 1398 4047 
Q 1172 3844 1172 3481 
z
" transform="scale(0.015625)"/>
      </defs>
      <use xlink:href="#DejaVuSans-55"/>
      <use xlink:href="#DejaVuSans-6e" x="73.193359"/>
      <use xlink:href="#DejaVuSans-63" x="136.572266"/>
      <use xlink:href="#DejaVuSans-6f" x="191.552734"/>
      <use xlink:href="#DejaVuSans-72" x="252.734375"/>
      <use xlink:href="#DejaVuSans-72" x="292.097656"/>
      <use xlink:href="#DejaVuSans-65" x="330.960938"/>
      <use xlink:href="#DejaVuSans-63" x="392.484375"/>
      <use xlink:href="#DejaVuSans-74" x="447.464844"/>
      <use xlink:href="#DejaVuSans-65" x="486.673828"/>
      <use xlink:href="#DejaVuSans-64" x="548.197266"/>
      <use xlink:href="#DejaVuSans-20" x="611.673828"/>
      <use xlink:href="#DejaVuSans-4a" x="643.460938"/>
      <use xlink:href="#DejaVuSans-3d" x="672.953125"/>
      <use xlink:href="#DejaVuSans-31" x="756.742188"/>
      <use xlink:href="#DejaVuSans-2e" x="820.365234"/>
      <use xlink:href="#DejaVuSans-38" x="852.152344"/>
     </g>
    </g>
    <g id="line2d_32">
     <path d="M 284.550625 268.328125 
L 304.550625 268.328125 
L 324.550625 268.328125 
" style="fill: none; stroke-dasharray: 9.6,2.4,1.5,2.4; stroke-dashoffset: 0; stroke: #a50034; stroke-width: 1.5"/>
    </g>
    <g id="text_17">
     <!-- Corrected J=1.8 -->
     <g transform="translate(340.550625 275.328125) scale(0.2 -0.2)">
      <defs>
       <path id="DejaVuSans-43" d="M 4122 4306 
L 4122 3641 
Q 3803 3938 3442 4084 
Q 3081 4231 2675 4231 
Q 1875 4231 1450 3742 
Q 1025 3253 1025 2328 
Q 1025 1406 1450 917 
Q 1875 428 2675 428 
Q 3081 428 3442 575 
Q 3803 722 4122 1019 
L 4122 359 
Q 3791 134 3420 21 
Q 3050 -91 2638 -91 
Q 1578 -91 968 557 
Q 359 1206 359 2328 
Q 359 3453 968 4101 
Q 1578 4750 2638 4750 
Q 3056 4750 3426 4639 
Q 3797 4528 4122 4306 
z
" transform="scale(0.015625)"/>
      </defs>
      <use xlink:href="#DejaVuSans-43"/>
      <use xlink:href="#DejaVuSans-6f" x="69.824219"/>
      <use xlink:href="#DejaVuSans-72" x="131.005859"/>
      <use xlink:href="#DejaVuSans-72" x="170.369141"/>
      <use xlink:href="#DejaVuSans-65" x="209.232422"/>
      <use xlink:href="#DejaVuSans-63" x="270.755859"/>
      <use xlink:href="#DejaVuSans-74" x="325.736328"/>
      <use xlink:href="#DejaVuSans-65" x="364.945312"/>
      <use xlink:href="#DejaVuSans-64" x="426.46875"/>
      <use xlink:href="#DejaVuSans-20" x="489.945312"/>
      <use xlink:href="#DejaVuSans-4a" x="521.732422"/>
      <use xlink:href="#DejaVuSans-3d" x="551.224609"/>
      <use xlink:href="#DejaVuSans-31" x="635.013672"/>
      <use xlink:href="#DejaVuSans-2e" x="698.636719"/>
      <use xlink:href="#DejaVuSans-38" x="730.423828"/>
     </g>
    </g>
    <g id="line2d_33">
     <path d="M 284.550625 297.684375 
L 304.550625 297.684375 
L 324.550625 297.684375 
" style="fill: none; stroke-dasharray: 9.6,2.4,1.5,2.4; stroke-dashoffset: 0; stroke: #ef60a3; stroke-width: 1.5"/>
    </g>
    <g id="text_18">
     <!-- Uncorrected J=3.5 -->
     <g transform="translate(340.550625 304.684375) scale(0.2 -0.2)">
      <defs>
       <path id="DejaVuSans-33" d="M 2597 2516 
Q 3050 2419 3304 2112 
Q 3559 1806 3559 1356 
Q 3559 666 3084 287 
Q 2609 -91 1734 -91 
Q 1441 -91 1130 -33 
Q 819 25 488 141 
L 488 750 
Q 750 597 1062 519 
Q 1375 441 1716 441 
Q 2309 441 2620 675 
Q 2931 909 2931 1356 
Q 2931 1769 2642 2001 
Q 2353 2234 1838 2234 
L 1294 2234 
L 1294 2753 
L 1863 2753 
Q 2328 2753 2575 2939 
Q 2822 3125 2822 3475 
Q 2822 3834 2567 4026 
Q 2313 4219 1838 4219 
Q 1578 4219 1281 4162 
Q 984 4106 628 3988 
L 628 4550 
Q 988 4650 1302 4700 
Q 1616 4750 1894 4750 
Q 2613 4750 3031 4423 
Q 3450 4097 3450 3541 
Q 3450 3153 3228 2886 
Q 3006 2619 2597 2516 
z
" transform="scale(0.015625)"/>
      </defs>
      <use xlink:href="#DejaVuSans-55"/>
      <use xlink:href="#DejaVuSans-6e" x="73.193359"/>
      <use xlink:href="#DejaVuSans-63" x="136.572266"/>
      <use xlink:href="#DejaVuSans-6f" x="191.552734"/>
      <use xlink:href="#DejaVuSans-72" x="252.734375"/>
      <use xlink:href="#DejaVuSans-72" x="292.097656"/>
      <use xlink:href="#DejaVuSans-65" x="330.960938"/>
      <use xlink:href="#DejaVuSans-63" x="392.484375"/>
      <use xlink:href="#DejaVuSans-74" x="447.464844"/>
      <use xlink:href="#DejaVuSans-65" x="486.673828"/>
      <use xlink:href="#DejaVuSans-64" x="548.197266"/>
      <use xlink:href="#DejaVuSans-20" x="611.673828"/>
      <use xlink:href="#DejaVuSans-4a" x="643.460938"/>
      <use xlink:href="#DejaVuSans-3d" x="672.953125"/>
      <use xlink:href="#DejaVuSans-33" x="756.742188"/>
      <use xlink:href="#DejaVuSans-2e" x="820.365234"/>
      <use xlink:href="#DejaVuSans-35" x="852.152344"/>
     </g>
    </g>
    <g id="line2d_34">
     <path d="M 284.550625 327.040625 
L 304.550625 327.040625 
L 324.550625 327.040625 
" style="fill: none; stroke-dasharray: 9.6,2.4,1.5,2.4; stroke-dashoffset: 0; stroke: #6cc24a; stroke-width: 1.5"/>
    </g>
    <g id="text_19">
     <!-- Corrected J=3.5 -->
     <g transform="translate(340.550625 334.040625) scale(0.2 -0.2)">
      <use xlink:href="#DejaVuSans-43"/>
      <use xlink:href="#DejaVuSans-6f" x="69.824219"/>
      <use xlink:href="#DejaVuSans-72" x="131.005859"/>
      <use xlink:href="#DejaVuSans-72" x="170.369141"/>
      <use xlink:href="#DejaVuSans-65" x="209.232422"/>
      <use xlink:href="#DejaVuSans-63" x="270.755859"/>
      <use xlink:href="#DejaVuSans-74" x="325.736328"/>
      <use xlink:href="#DejaVuSans-65" x="364.945312"/>
      <use xlink:href="#DejaVuSans-64" x="426.46875"/>
      <use xlink:href="#DejaVuSans-20" x="489.945312"/>
      <use xlink:href="#DejaVuSans-4a" x="521.732422"/>
      <use xlink:href="#DejaVuSans-3d" x="551.224609"/>
      <use xlink:href="#DejaVuSans-33" x="635.013672"/>
      <use xlink:href="#DejaVuSans-2e" x="698.636719"/>
      <use xlink:href="#DejaVuSans-35" x="730.423828"/>
     </g>
    </g>
   </g>
  </g>
 </g>
 <defs>
  <clipPath id="p300e5eab6f">
   <rect x="103.286" y="21.6" width="438.424" height="334.6"/>
  </clipPath>
 </defs>
</svg>
