<?xml version="1.0" encoding="utf-8" standalone="no"?>
<!DOCTYPE svg PUBLIC "-//W3C//DTD SVG 1.1//EN"
  "http://www.w3.org/Graphics/SVG/1.1/DTD/svg11.dtd">
<svg xmlns:xlink="http://www.w3.org/1999/xlink" width="576pt" height="432pt" viewBox="0 0 576 432" xmlns="http://www.w3.org/2000/svg" version="1.1">
 <metadata>
  <rdf:RDF xmlns:dc="http://purl.org/dc/elements/1.1/" xmlns:cc="http://creativecommons.org/ns#" xmlns:rdf="http://www.w3.org/1999/02/22-rdf-syntax-ns#">
   <cc:Work>
    <dc:type rdf:resource="http://purl.org/dc/dcmitype/StillImage"/>
    <dc:date>2024-04-03T17:07:12.053183</dc:date>
    <dc:format>image/svg+xml</dc:format>
    <dc:creator>
     <cc:Agent>
      <dc:title>Matplotlib v3.8.0, https://matplotlib.org/</dc:title>
     </cc:Agent>
    </dc:creator>
   </cc:Work>
  </rdf:RDF>
 </metadata>
 <defs>
  <style type="text/css">*{stroke-linejoin: round; stroke-linecap: butt}</style>
 </defs>
 <g id="figure_1">
  <g id="patch_1">
   <path d="M 0 432 
L 576 432 
L 576 0 
L 0 0 
z
" style="fill: #ffffff"/>
  </g>
  <g id="axes_1">
   <g id="patch_2">
    <path d="M 99.506 356.2 
L 541.665 356.2 
L 541.665 28.6104 
L 99.506 28.6104 
z
" style="fill: #ffffff"/>
   </g>
   <g id="PathCollection_1">
    <defs>
     <path id="m4964618f68" d="M 0 3 
C 0.795609 3 1.55874 2.683901 2.12132 2.12132 
C 2.683901 1.55874 3 0.795609 3 0 
C 3 -0.795609 2.683901 -1.55874 2.12132 -2.12132 
C 1.55874 -2.683901 0.795609 -3 0 -3 
C -0.795609 -3 -1.55874 -2.683901 -2.12132 -2.12132 
C -2.683901 -1.55874 -3 -0.795609 -3 0 
C -3 0.795609 -2.683901 1.55874 -2.12132 2.12132 
C -1.55874 2.683901 -0.795609 3 0 3 
z
" style="stroke: #00a6b6"/>
    </defs>
    <g clip-path="url(#pf7af97baed)">
     <use xlink:href="#m4964618f68" x="173.199167" y="333.42352" style="fill: #00a6b6; stroke: #00a6b6"/>
     <use xlink:href="#m4964618f68" x="350.062767" y="312.83838" style="fill: #00a6b6; stroke: #00a6b6"/>
     <use xlink:href="#m4964618f68" x="423.755933" y="249.390508" style="fill: #00a6b6; stroke: #00a6b6"/>
     <use xlink:href="#m4964618f68" x="453.2332" y="211.128903" style="fill: #00a6b6; stroke: #00a6b6"/>
    </g>
   </g>
   <g id="PathCollection_2">
    <defs>
     <path id="m8b849cbfc7" d="M 0 3 
C 0.795609 3 1.55874 2.683901 2.12132 2.12132 
C 2.683901 1.55874 3 0.795609 3 0 
C 3 -0.795609 2.683901 -1.55874 2.12132 -2.12132 
C 1.55874 -2.683901 0.795609 -3 0 -3 
C -0.795609 -3 -1.55874 -2.683901 -2.12132 -2.12132 
C -2.683901 -1.55874 -3 -0.795609 -3 0 
C -3 0.795609 -2.683901 1.55874 -2.12132 2.12132 
C -1.55874 2.683901 -0.795609 3 0 3 
z
" style="stroke: #a50034"/>
    </defs>
    <g clip-path="url(#pf7af97baed)">
     <use xlink:href="#m8b849cbfc7" x="172.274452" y="333.653949" style="fill: #a50034; stroke: #a50034"/>
     <use xlink:href="#m8b849cbfc7" x="354.686339" y="309.45585" style="fill: #a50034; stroke: #a50034"/>
     <use xlink:href="#m8b849cbfc7" x="429.326989" y="245.65998" style="fill: #a50034; stroke: #a50034"/>
     <use xlink:href="#m8b849cbfc7" x="459.251865" y="207.869746" style="fill: #a50034; stroke: #a50034"/>
    </g>
   </g>
   <g id="PathCollection_3">
    <defs>
     <path id="mcf296cd88b" d="M 0 3 
C 0.795609 3 1.55874 2.683901 2.12132 2.12132 
C 2.683901 1.55874 3 0.795609 3 0 
C 3 -0.795609 2.683901 -1.55874 2.12132 -2.12132 
C 1.55874 -2.683901 0.795609 -3 0 -3 
C -0.795609 -3 -1.55874 -2.683901 -2.12132 -2.12132 
C -2.683901 -1.55874 -3 -0.795609 -3 0 
C -3 0.795609 -2.683901 1.55874 -2.12132 2.12132 
C -1.55874 2.683901 -0.795609 3 0 3 
z
" style="stroke: #ef60a3"/>
    </defs>
    <g clip-path="url(#pf7af97baed)">
     <use xlink:href="#mcf296cd88b" x="173.199167" y="333.42352" style="fill: #ef60a3; stroke: #ef60a3"/>
     <use xlink:href="#mcf296cd88b" x="246.892333" y="341.239298" style="fill: #ef60a3; stroke: #ef60a3"/>
     <use xlink:href="#mcf296cd88b" x="350.062767" y="312.83838" style="fill: #ef60a3; stroke: #ef60a3"/>
     <use xlink:href="#mcf296cd88b" x="423.755933" y="249.390508" style="fill: #ef60a3; stroke: #ef60a3"/>
     <use xlink:href="#mcf296cd88b" x="453.2332" y="211.128903" style="fill: #ef60a3; stroke: #ef60a3"/>
    </g>
   </g>
   <g id="PathCollection_4">
    <defs>
     <path id="mf4b3d861a8" d="M 0 3 
C 0.795609 3 1.55874 2.683901 2.12132 2.12132 
C 2.683901 1.55874 3 0.795609 3 0 
C 3 -0.795609 2.683901 -1.55874 2.12132 -2.12132 
C 1.55874 -2.683901 0.795609 -3 0 -3 
C -0.795609 -3 -1.55874 -2.683901 -2.12132 -2.12132 
C -2.683901 -1.55874 -3 -0.795609 -3 0 
C -3 0.795609 -2.683901 1.55874 -2.12132 2.12132 
C -1.55874 2.683901 -0.795609 3 0 3 
z
" style="stroke: #6cc24a"/>
    </defs>
    <g clip-path="url(#pf7af97baed)">
     <use xlink:href="#mf4b3d861a8" x="172.274452" y="333.668906" style="fill: #6cc24a; stroke: #6cc24a"/>
     <use xlink:href="#mf4b3d861a8" x="248.433352" y="341.094975" style="fill: #6cc24a; stroke: #6cc24a"/>
     <use xlink:href="#mf4b3d861a8" x="354.686339" y="309.453393" style="fill: #6cc24a; stroke: #6cc24a"/>
     <use xlink:href="#mf4b3d861a8" x="429.326989" y="245.55109" style="fill: #6cc24a; stroke: #6cc24a"/>
     <use xlink:href="#mf4b3d861a8" x="459.251865" y="207.516783" style="fill: #6cc24a; stroke: #6cc24a"/>
    </g>
   </g>
   <g id="matplotlib.axis_1">
    <g id="xtick_1">
     <g id="line2d_1">
      <path d="M 99.506 356.2 
L 99.506 28.6104 
" clip-path="url(#pf7af97baed)" style="fill: none; stroke: #b0b0b0; stroke-width: 0.8; stroke-linecap: square"/>
     </g>
     <g id="line2d_2">
      <defs>
       <path id="mc593917740" d="M 0 0 
L 0 3.5 
" style="stroke: #000000; stroke-width: 0.8"/>
      </defs>
      <g>
       <use xlink:href="#mc593917740" x="99.506" y="356.2" style="stroke: #000000; stroke-width: 0.8"/>
      </g>
     </g>
     <g id="text_1">
      <!-- −10 -->
      <g transform="translate(78.401313 378.396875) scale(0.2 -0.2)">
       <defs>
        <path id="DejaVuSans-2212" d="M 678 2272 
L 4684 2272 
L 4684 1741 
L 678 1741 
L 678 2272 
z
" transform="scale(0.015625)"/>
        <path id="DejaVuSans-31" d="M 794 531 
L 1825 531 
L 1825 4091 
L 703 3866 
L 703 4441 
L 1819 4666 
L 2450 4666 
L 2450 531 
L 3481 531 
L 3481 0 
L 794 0 
L 794 531 
z
" transform="scale(0.015625)"/>
        <path id="DejaVuSans-30" d="M 2034 4250 
Q 1547 4250 1301 3770 
Q 1056 3291 1056 2328 
Q 1056 1369 1301 889 
Q 1547 409 2034 409 
Q 2525 409 2770 889 
Q 3016 1369 3016 2328 
Q 3016 3291 2770 3770 
Q 2525 4250 2034 4250 
z
M 2034 4750 
Q 2819 4750 3233 4129 
Q 3647 3509 3647 2328 
Q 3647 1150 3233 529 
Q 2819 -91 2034 -91 
Q 1250 -91 836 529 
Q 422 1150 422 2328 
Q 422 3509 836 4129 
Q 1250 4750 2034 4750 
z
" transform="scale(0.015625)"/>
       </defs>
       <use xlink:href="#DejaVuSans-2212"/>
       <use xlink:href="#DejaVuSans-31" x="83.789062"/>
       <use xlink:href="#DejaVuSans-30" x="147.412109"/>
      </g>
     </g>
    </g>
    <g id="xtick_2">
     <g id="line2d_3">
      <path d="M 173.199167 356.2 
L 173.199167 28.6104 
" clip-path="url(#pf7af97baed)" style="fill: none; stroke: #b0b0b0; stroke-width: 0.8; stroke-linecap: square"/>
     </g>
     <g id="line2d_4">
      <g>
       <use xlink:href="#mc593917740" x="173.199167" y="356.2" style="stroke: #000000; stroke-width: 0.8"/>
      </g>
     </g>
     <g id="text_2">
      <!-- −5 -->
      <g transform="translate(158.456979 378.396875) scale(0.2 -0.2)">
       <defs>
        <path id="DejaVuSans-35" d="M 691 4666 
L 3169 4666 
L 3169 4134 
L 1269 4134 
L 1269 2991 
Q 1406 3038 1543 3061 
Q 1681 3084 1819 3084 
Q 2600 3084 3056 2656 
Q 3513 2228 3513 1497 
Q 3513 744 3044 326 
Q 2575 -91 1722 -91 
Q 1428 -91 1123 -41 
Q 819 9 494 109 
L 494 744 
Q 775 591 1075 516 
Q 1375 441 1709 441 
Q 2250 441 2565 725 
Q 2881 1009 2881 1497 
Q 2881 1984 2565 2268 
Q 2250 2553 1709 2553 
Q 1456 2553 1204 2497 
Q 953 2441 691 2322 
L 691 4666 
z
" transform="scale(0.015625)"/>
       </defs>
       <use xlink:href="#DejaVuSans-2212"/>
       <use xlink:href="#DejaVuSans-35" x="83.789062"/>
      </g>
     </g>
    </g>
    <g id="xtick_3">
     <g id="line2d_5">
      <path d="M 246.892333 356.2 
L 246.892333 28.6104 
" clip-path="url(#pf7af97baed)" style="fill: none; stroke: #b0b0b0; stroke-width: 0.8; stroke-linecap: square"/>
     </g>
     <g id="line2d_6">
      <g>
       <use xlink:href="#mc593917740" x="246.892333" y="356.2" style="stroke: #000000; stroke-width: 0.8"/>
      </g>
     </g>
     <g id="text_3">
      <!-- 0 -->
      <g transform="translate(240.529833 378.396875) scale(0.2 -0.2)">
       <use xlink:href="#DejaVuSans-30"/>
      </g>
     </g>
    </g>
    <g id="xtick_4">
     <g id="line2d_7">
      <path d="M 320.5855 356.2 
L 320.5855 28.6104 
" clip-path="url(#pf7af97baed)" style="fill: none; stroke: #b0b0b0; stroke-width: 0.8; stroke-linecap: square"/>
     </g>
     <g id="line2d_8">
      <g>
       <use xlink:href="#mc593917740" x="320.5855" y="356.2" style="stroke: #000000; stroke-width: 0.8"/>
      </g>
     </g>
     <g id="text_4">
      <!-- 5 -->
      <g transform="translate(314.223 378.396875) scale(0.2 -0.2)">
       <use xlink:href="#DejaVuSans-35"/>
      </g>
     </g>
    </g>
    <g id="xtick_5">
     <g id="line2d_9">
      <path d="M 394.278667 356.2 
L 394.278667 28.6104 
" clip-path="url(#pf7af97baed)" style="fill: none; stroke: #b0b0b0; stroke-width: 0.8; stroke-linecap: square"/>
     </g>
     <g id="line2d_10">
      <g>
       <use xlink:href="#mc593917740" x="394.278667" y="356.2" style="stroke: #000000; stroke-width: 0.8"/>
      </g>
     </g>
     <g id="text_5">
      <!-- 10 -->
      <g transform="translate(381.553667 378.396875) scale(0.2 -0.2)">
       <use xlink:href="#DejaVuSans-31"/>
       <use xlink:href="#DejaVuSans-30" x="63.623047"/>
      </g>
     </g>
    </g>
    <g id="xtick_6">
     <g id="line2d_11">
      <path d="M 467.971833 356.2 
L 467.971833 28.6104 
" clip-path="url(#pf7af97baed)" style="fill: none; stroke: #b0b0b0; stroke-width: 0.8; stroke-linecap: square"/>
     </g>
     <g id="line2d_12">
      <g>
       <use xlink:href="#mc593917740" x="467.971833" y="356.2" style="stroke: #000000; stroke-width: 0.8"/>
      </g>
     </g>
     <g id="text_6">
      <!-- 15 -->
      <g transform="translate(455.246833 378.396875) scale(0.2 -0.2)">
       <use xlink:href="#DejaVuSans-31"/>
       <use xlink:href="#DejaVuSans-35" x="63.623047"/>
      </g>
     </g>
    </g>
    <g id="xtick_7">
     <g id="line2d_13">
      <path d="M 541.665 356.2 
L 541.665 28.6104 
" clip-path="url(#pf7af97baed)" style="fill: none; stroke: #b0b0b0; stroke-width: 0.8; stroke-linecap: square"/>
     </g>
     <g id="line2d_14">
      <g>
       <use xlink:href="#mc593917740" x="541.665" y="356.2" style="stroke: #000000; stroke-width: 0.8"/>
      </g>
     </g>
     <g id="text_7">
      <!-- 20 -->
      <g transform="translate(528.94 378.396875) scale(0.2 -0.2)">
       <defs>
        <path id="DejaVuSans-32" d="M 1228 531 
L 3431 531 
L 3431 0 
L 469 0 
L 469 531 
Q 828 903 1448 1529 
Q 2069 2156 2228 2338 
Q 2531 2678 2651 2914 
Q 2772 3150 2772 3378 
Q 2772 3750 2511 3984 
Q 2250 4219 1831 4219 
Q 1534 4219 1204 4116 
Q 875 4013 500 3803 
L 500 4441 
Q 881 4594 1212 4672 
Q 1544 4750 1819 4750 
Q 2544 4750 2975 4387 
Q 3406 4025 3406 3419 
Q 3406 3131 3298 2873 
Q 3191 2616 2906 2266 
Q 2828 2175 2409 1742 
Q 1991 1309 1228 531 
z
" transform="scale(0.015625)"/>
       </defs>
       <use xlink:href="#DejaVuSans-32"/>
       <use xlink:href="#DejaVuSans-30" x="63.623047"/>
      </g>
     </g>
    </g>
    <g id="text_8">
     <!-- $\alpha$ [deg] -->
     <g transform="translate(284.0855 401.75625) scale(0.2 -0.2)">
      <defs>
       <path id="DejaVuSans-Oblique-3b1" d="M 2619 1628 
L 2622 2350 
Q 2625 3088 2069 3091 
Q 1653 3094 1394 2747 
Q 1069 2319 959 1747 
Q 825 1059 994 731 
Q 1169 397 1547 397 
Q 1966 397 2319 1063 
L 2619 1628 
z
M 2166 3578 
Q 3141 3594 3128 2584 
Q 3128 2584 3616 3500 
L 4128 3500 
L 3119 1603 
L 3109 919 
Q 3109 766 3194 638 
Q 3291 488 3391 488 
L 3669 488 
L 3575 0 
L 3228 0 
Q 2934 0 2722 263 
Q 2622 394 2619 669 
Q 2416 334 2066 50 
Q 1900 -81 1453 -78 
Q 722 -72 456 397 
Q 184 884 353 1747 
Q 534 2675 1009 3097 
Q 1544 3569 2166 3578 
z
" transform="scale(0.015625)"/>
       <path id="DejaVuSans-20" transform="scale(0.015625)"/>
       <path id="DejaVuSans-5b" d="M 550 4863 
L 1875 4863 
L 1875 4416 
L 1125 4416 
L 1125 -397 
L 1875 -397 
L 1875 -844 
L 550 -844 
L 550 4863 
z
" transform="scale(0.015625)"/>
       <path id="DejaVuSans-64" d="M 2906 2969 
L 2906 4863 
L 3481 4863 
L 3481 0 
L 2906 0 
L 2906 525 
Q 2725 213 2448 61 
Q 2172 -91 1784 -91 
Q 1150 -91 751 415 
Q 353 922 353 1747 
Q 353 2572 751 3078 
Q 1150 3584 1784 3584 
Q 2172 3584 2448 3432 
Q 2725 3281 2906 2969 
z
M 947 1747 
Q 947 1113 1208 752 
Q 1469 391 1925 391 
Q 2381 391 2643 752 
Q 2906 1113 2906 1747 
Q 2906 2381 2643 2742 
Q 2381 3103 1925 3103 
Q 1469 3103 1208 2742 
Q 947 2381 947 1747 
z
" transform="scale(0.015625)"/>
       <path id="DejaVuSans-65" d="M 3597 1894 
L 3597 1613 
L 953 1613 
Q 991 1019 1311 708 
Q 1631 397 2203 397 
Q 2534 397 2845 478 
Q 3156 559 3463 722 
L 3463 178 
Q 3153 47 2828 -22 
Q 2503 -91 2169 -91 
Q 1331 -91 842 396 
Q 353 884 353 1716 
Q 353 2575 817 3079 
Q 1281 3584 2069 3584 
Q 2775 3584 3186 3129 
Q 3597 2675 3597 1894 
z
M 3022 2063 
Q 3016 2534 2758 2815 
Q 2500 3097 2075 3097 
Q 1594 3097 1305 2825 
Q 1016 2553 972 2059 
L 3022 2063 
z
" transform="scale(0.015625)"/>
       <path id="DejaVuSans-67" d="M 2906 1791 
Q 2906 2416 2648 2759 
Q 2391 3103 1925 3103 
Q 1463 3103 1205 2759 
Q 947 2416 947 1791 
Q 947 1169 1205 825 
Q 1463 481 1925 481 
Q 2391 481 2648 825 
Q 2906 1169 2906 1791 
z
M 3481 434 
Q 3481 -459 3084 -895 
Q 2688 -1331 1869 -1331 
Q 1566 -1331 1297 -1286 
Q 1028 -1241 775 -1147 
L 775 -588 
Q 1028 -725 1275 -790 
Q 1522 -856 1778 -856 
Q 2344 -856 2625 -561 
Q 2906 -266 2906 331 
L 2906 616 
Q 2728 306 2450 153 
Q 2172 0 1784 0 
Q 1141 0 747 490 
Q 353 981 353 1791 
Q 353 2603 747 3093 
Q 1141 3584 1784 3584 
Q 2172 3584 2450 3431 
Q 2728 3278 2906 2969 
L 2906 3500 
L 3481 3500 
L 3481 434 
z
" transform="scale(0.015625)"/>
       <path id="DejaVuSans-5d" d="M 1947 4863 
L 1947 -844 
L 622 -844 
L 622 -397 
L 1369 -397 
L 1369 4416 
L 622 4416 
L 622 4863 
L 1947 4863 
z
" transform="scale(0.015625)"/>
      </defs>
      <use xlink:href="#DejaVuSans-Oblique-3b1" transform="translate(0 0.015625)"/>
      <use xlink:href="#DejaVuSans-20" transform="translate(65.917969 0.015625)"/>
      <use xlink:href="#DejaVuSans-5b" transform="translate(97.705078 0.015625)"/>
      <use xlink:href="#DejaVuSans-64" transform="translate(136.71875 0.015625)"/>
      <use xlink:href="#DejaVuSans-65" transform="translate(200.195312 0.015625)"/>
      <use xlink:href="#DejaVuSans-67" transform="translate(261.71875 0.015625)"/>
      <use xlink:href="#DejaVuSans-5d" transform="translate(325.195312 0.015625)"/>
     </g>
    </g>
   </g>
   <g id="matplotlib.axis_2">
    <g id="ytick_1">
     <g id="line2d_15">
      <path d="M 99.506 317.628414 
L 541.665 317.628414 
" clip-path="url(#pf7af97baed)" style="fill: none; stroke: #b0b0b0; stroke-width: 0.8; stroke-linecap: square"/>
     </g>
     <g id="line2d_16">
      <defs>
       <path id="mf8e1c41e24" d="M 0 0 
L -3.5 0 
" style="stroke: #000000; stroke-width: 0.8"/>
      </defs>
      <g>
       <use xlink:href="#mf8e1c41e24" x="99.506" y="317.628414" style="stroke: #000000; stroke-width: 0.8"/>
      </g>
     </g>
     <g id="text_9">
      <!-- 0.05 -->
      <g transform="translate(47.97475 325.226851) scale(0.2 -0.2)">
       <defs>
        <path id="DejaVuSans-2e" d="M 684 794 
L 1344 794 
L 1344 0 
L 684 0 
L 684 794 
z
" transform="scale(0.015625)"/>
       </defs>
       <use xlink:href="#DejaVuSans-30"/>
       <use xlink:href="#DejaVuSans-2e" x="63.623047"/>
       <use xlink:href="#DejaVuSans-30" x="95.410156"/>
       <use xlink:href="#DejaVuSans-35" x="159.033203"/>
      </g>
     </g>
    </g>
    <g id="ytick_2">
     <g id="line2d_17">
      <path d="M 99.506 269.608043 
L 541.665 269.608043 
" clip-path="url(#pf7af97baed)" style="fill: none; stroke: #b0b0b0; stroke-width: 0.8; stroke-linecap: square"/>
     </g>
     <g id="line2d_18">
      <g>
       <use xlink:href="#mf8e1c41e24" x="99.506" y="269.608043" style="stroke: #000000; stroke-width: 0.8"/>
      </g>
     </g>
     <g id="text_10">
      <!-- 0.10 -->
      <g transform="translate(47.97475 277.20648) scale(0.2 -0.2)">
       <use xlink:href="#DejaVuSans-30"/>
       <use xlink:href="#DejaVuSans-2e" x="63.623047"/>
       <use xlink:href="#DejaVuSans-31" x="95.410156"/>
       <use xlink:href="#DejaVuSans-30" x="159.033203"/>
      </g>
     </g>
    </g>
    <g id="ytick_3">
     <g id="line2d_19">
      <path d="M 99.506 221.587672 
L 541.665 221.587672 
" clip-path="url(#pf7af97baed)" style="fill: none; stroke: #b0b0b0; stroke-width: 0.8; stroke-linecap: square"/>
     </g>
     <g id="line2d_20">
      <g>
       <use xlink:href="#mf8e1c41e24" x="99.506" y="221.587672" style="stroke: #000000; stroke-width: 0.8"/>
      </g>
     </g>
     <g id="text_11">
      <!-- 0.15 -->
      <g transform="translate(47.97475 229.18611) scale(0.2 -0.2)">
       <use xlink:href="#DejaVuSans-30"/>
       <use xlink:href="#DejaVuSans-2e" x="63.623047"/>
       <use xlink:href="#DejaVuSans-31" x="95.410156"/>
       <use xlink:href="#DejaVuSans-35" x="159.033203"/>
      </g>
     </g>
    </g>
    <g id="ytick_4">
     <g id="line2d_21">
      <path d="M 99.506 173.567302 
L 541.665 173.567302 
" clip-path="url(#pf7af97baed)" style="fill: none; stroke: #b0b0b0; stroke-width: 0.8; stroke-linecap: square"/>
     </g>
     <g id="line2d_22">
      <g>
       <use xlink:href="#mf8e1c41e24" x="99.506" y="173.567302" style="stroke: #000000; stroke-width: 0.8"/>
      </g>
     </g>
     <g id="text_12">
      <!-- 0.20 -->
      <g transform="translate(47.97475 181.165739) scale(0.2 -0.2)">
       <use xlink:href="#DejaVuSans-30"/>
       <use xlink:href="#DejaVuSans-2e" x="63.623047"/>
       <use xlink:href="#DejaVuSans-32" x="95.410156"/>
       <use xlink:href="#DejaVuSans-30" x="159.033203"/>
      </g>
     </g>
    </g>
    <g id="ytick_5">
     <g id="line2d_23">
      <path d="M 99.506 125.546931 
L 541.665 125.546931 
" clip-path="url(#pf7af97baed)" style="fill: none; stroke: #b0b0b0; stroke-width: 0.8; stroke-linecap: square"/>
     </g>
     <g id="line2d_24">
      <g>
       <use xlink:href="#mf8e1c41e24" x="99.506" y="125.546931" style="stroke: #000000; stroke-width: 0.8"/>
      </g>
     </g>
     <g id="text_13">
      <!-- 0.25 -->
      <g transform="translate(47.97475 133.145368) scale(0.2 -0.2)">
       <use xlink:href="#DejaVuSans-30"/>
       <use xlink:href="#DejaVuSans-2e" x="63.623047"/>
       <use xlink:href="#DejaVuSans-32" x="95.410156"/>
       <use xlink:href="#DejaVuSans-35" x="159.033203"/>
      </g>
     </g>
    </g>
    <g id="ytick_6">
     <g id="line2d_25">
      <path d="M 99.506 77.52656 
L 541.665 77.52656 
" clip-path="url(#pf7af97baed)" style="fill: none; stroke: #b0b0b0; stroke-width: 0.8; stroke-linecap: square"/>
     </g>
     <g id="line2d_26">
      <g>
       <use xlink:href="#mf8e1c41e24" x="99.506" y="77.52656" style="stroke: #000000; stroke-width: 0.8"/>
      </g>
     </g>
     <g id="text_14">
      <!-- 0.30 -->
      <g transform="translate(47.97475 85.124998) scale(0.2 -0.2)">
       <defs>
        <path id="DejaVuSans-33" d="M 2597 2516 
Q 3050 2419 3304 2112 
Q 3559 1806 3559 1356 
Q 3559 666 3084 287 
Q 2609 -91 1734 -91 
Q 1441 -91 1130 -33 
Q 819 25 488 141 
L 488 750 
Q 750 597 1062 519 
Q 1375 441 1716 441 
Q 2309 441 2620 675 
Q 2931 909 2931 1356 
Q 2931 1769 2642 2001 
Q 2353 2234 1838 2234 
L 1294 2234 
L 1294 2753 
L 1863 2753 
Q 2328 2753 2575 2939 
Q 2822 3125 2822 3475 
Q 2822 3834 2567 4026 
Q 2313 4219 1838 4219 
Q 1578 4219 1281 4162 
Q 984 4106 628 3988 
L 628 4550 
Q 988 4650 1302 4700 
Q 1616 4750 1894 4750 
Q 2613 4750 3031 4423 
Q 3450 4097 3450 3541 
Q 3450 3153 3228 2886 
Q 3006 2619 2597 2516 
z
" transform="scale(0.015625)"/>
       </defs>
       <use xlink:href="#DejaVuSans-30"/>
       <use xlink:href="#DejaVuSans-2e" x="63.623047"/>
       <use xlink:href="#DejaVuSans-33" x="95.410156"/>
       <use xlink:href="#DejaVuSans-30" x="159.033203"/>
      </g>
     </g>
    </g>
    <g id="ytick_7">
     <g id="line2d_27">
      <path d="M 99.506 29.50619 
L 541.665 29.50619 
" clip-path="url(#pf7af97baed)" style="fill: none; stroke: #b0b0b0; stroke-width: 0.8; stroke-linecap: square"/>
     </g>
     <g id="line2d_28">
      <g>
       <use xlink:href="#mf8e1c41e24" x="99.506" y="29.50619" style="stroke: #000000; stroke-width: 0.8"/>
      </g>
     </g>
     <g id="text_15">
      <!-- 0.35 -->
      <g transform="translate(47.97475 37.104627) scale(0.2 -0.2)">
       <use xlink:href="#DejaVuSans-30"/>
       <use xlink:href="#DejaVuSans-2e" x="63.623047"/>
       <use xlink:href="#DejaVuSans-33" x="95.410156"/>
       <use xlink:href="#DejaVuSans-35" x="159.033203"/>
      </g>
     </g>
    </g>
    <g id="text_16">
     <!-- $C_D$ [-] -->
     <g transform="translate(39.815375 219.7052) rotate(-90) scale(0.2 -0.2)">
      <defs>
       <path id="DejaVuSans-Oblique-43" d="M 4447 4306 
L 4319 3641 
Q 4019 3944 3683 4091 
Q 3347 4238 2956 4238 
Q 2422 4238 2017 3981 
Q 1613 3725 1319 3200 
Q 1131 2863 1032 2486 
Q 934 2109 934 1728 
Q 934 1091 1264 756 
Q 1594 422 2222 422 
Q 2656 422 3056 561 
Q 3456 700 3834 978 
L 3688 231 
Q 3316 72 2936 -9 
Q 2556 -91 2175 -91 
Q 1278 -91 773 396 
Q 269 884 269 1753 
Q 269 2309 461 2846 
Q 653 3384 1013 3828 
Q 1394 4300 1883 4525 
Q 2372 4750 3022 4750 
Q 3422 4750 3780 4639 
Q 4138 4528 4447 4306 
z
" transform="scale(0.015625)"/>
       <path id="DejaVuSans-Oblique-44" d="M 1081 4666 
L 2438 4666 
Q 3519 4666 4070 4208 
Q 4622 3750 4622 2847 
Q 4622 2250 4412 1698 
Q 4203 1147 3834 769 
Q 3463 381 2891 190 
Q 2319 0 1538 0 
L 172 0 
L 1081 4666 
z
M 1613 4147 
L 909 519 
L 1734 519 
Q 2794 519 3375 1128 
Q 3956 1738 3956 2847 
Q 3956 3519 3581 3833 
Q 3206 4147 2406 4147 
L 1613 4147 
z
" transform="scale(0.015625)"/>
       <path id="DejaVuSans-2d" d="M 313 2009 
L 1997 2009 
L 1997 1497 
L 313 1497 
L 313 2009 
z
" transform="scale(0.015625)"/>
      </defs>
      <use xlink:href="#DejaVuSans-Oblique-43" transform="translate(0 0.015625)"/>
      <use xlink:href="#DejaVuSans-Oblique-44" transform="translate(69.824219 -16.390625) scale(0.7)"/>
      <use xlink:href="#DejaVuSans-20" transform="translate(126.459961 0.015625)"/>
      <use xlink:href="#DejaVuSans-5b" transform="translate(158.24707 0.015625)"/>
      <use xlink:href="#DejaVuSans-2d" transform="translate(197.260742 0.015625)"/>
      <use xlink:href="#DejaVuSans-5d" transform="translate(233.344727 0.015625)"/>
     </g>
    </g>
   </g>
   <g id="line2d_29">
    <path d="M 99.506 315.152112 
L 103.972253 316.341526 
L 108.438505 317.533125 
L 112.904758 318.724249 
L 117.37101 319.912248 
L 121.837263 321.094471 
L 126.303515 322.268274 
L 130.769768 323.431019 
L 135.23602 324.580069 
L 139.702273 325.712794 
L 144.168525 326.826569 
L 148.634778 327.918769 
L 153.10103 328.98678 
L 157.567283 330.027988 
L 162.033535 331.039783 
L 166.499788 332.019564 
L 170.96604 332.964729 
L 175.432293 333.872685 
L 179.898545 334.74084 
L 184.364798 335.566609 
L 188.831051 336.34741 
L 193.297303 337.080666 
L 197.763556 337.763805 
L 202.229808 338.394258 
L 206.696061 338.969462 
L 211.162313 339.486858 
L 215.628566 339.94389 
L 220.094818 340.33801 
L 224.561071 340.66667 
L 229.027323 340.92733 
L 233.493576 341.117453 
L 237.959828 341.234506 
L 242.426081 341.275963 
L 246.892333 341.239298 
L 251.358586 341.121994 
L 255.824838 340.921537 
L 260.291091 340.635415 
L 264.757343 340.261124 
L 269.223596 339.796162 
L 273.689848 339.238034 
L 278.156101 338.584247 
L 282.622354 337.832313 
L 287.088606 336.97975 
L 291.554859 336.024078 
L 296.021111 334.962824 
L 300.487364 333.793517 
L 304.953616 332.513694 
L 309.419869 331.120892 
L 313.886121 329.612656 
L 318.352374 327.986534 
L 322.818626 326.240078 
L 327.284879 324.370846 
L 331.751131 322.376399 
L 336.217384 320.254304 
L 340.683636 318.00213 
L 345.149889 315.617454 
L 349.616141 313.097854 
L 354.082394 310.440915 
L 358.548646 307.644224 
L 363.014899 304.705376 
L 367.481152 301.621967 
L 371.947404 298.391599 
L 376.413657 295.011878 
L 380.879909 291.480416 
L 385.346162 287.794828 
L 389.812414 283.952734 
L 394.278667 279.951757 
L 398.744919 275.789526 
L 403.211172 271.463676 
L 407.677424 266.971842 
L 412.143677 262.311668 
L 416.609929 257.480801 
L 421.076182 252.47689 
L 425.542434 247.297593 
L 430.008687 241.940568 
L 434.474939 236.40348 
L 438.941192 230.683999 
L 443.407444 224.779798 
L 447.873697 218.688554 
L 452.339949 212.407951 
L 456.806202 205.935674 
L 461.272455 199.269416 
L 465.738707 192.406872 
L 470.20496 185.345743 
L 474.671212 178.083733 
L 479.137465 170.618552 
L 483.603717 162.947913 
L 488.06997 155.069534 
L 492.536222 146.981138 
L 497.002475 138.680453 
L 501.468727 130.16521 
L 505.93498 121.433144 
L 510.401232 112.481997 
L 514.867485 103.309514 
L 519.333737 93.913444 
L 523.79999 84.291541 
L 528.266242 74.441564 
L 532.732495 64.361275 
L 537.198747 54.048442 
L 541.665 43.500836 
" clip-path="url(#pf7af97baed)" style="fill: none; stroke-dasharray: 9.6,2.4,1.5,2.4; stroke-dashoffset: 0; stroke: #00a6b6; stroke-width: 1.5"/>
   </g>
   <g id="line2d_30">
    <path d="M 99.506 317.523857 
L 103.972253 318.573869 
L 108.438505 319.629 
L 112.904758 320.686486 
L 117.37101 321.743573 
L 121.837263 322.797524 
L 126.303515 323.845612 
L 130.769768 324.885123 
L 135.23602 325.913359 
L 139.702273 326.927632 
L 144.168525 327.92527 
L 148.634778 328.903611 
L 153.10103 329.860008 
L 157.567283 330.791827 
L 162.033535 331.696447 
L 166.499788 332.57126 
L 170.96604 333.413671 
L 175.432293 334.221098 
L 179.898545 334.990973 
L 184.364798 335.72074 
L 188.831051 336.407856 
L 193.297303 337.049793 
L 197.763556 337.644035 
L 202.229808 338.188078 
L 206.696061 338.679432 
L 211.162313 339.11562 
L 215.628566 339.494179 
L 220.094818 339.812659 
L 224.561071 340.068621 
L 229.027323 340.259641 
L 233.493576 340.383309 
L 237.959828 340.437225 
L 242.426081 340.419005 
L 246.892333 340.326278 
L 251.358586 340.156684 
L 255.824838 339.907877 
L 260.291091 339.577526 
L 264.757343 339.16331 
L 269.223596 338.662923 
L 273.689848 338.074073 
L 278.156101 337.394479 
L 282.622354 336.621874 
L 287.088606 335.754004 
L 291.554859 334.788628 
L 296.021111 333.72352 
L 300.487364 332.556464 
L 304.953616 331.285259 
L 309.419869 329.907716 
L 313.886121 328.421662 
L 318.352374 326.824932 
L 322.818626 325.11538 
L 327.284879 323.290868 
L 331.751131 321.349275 
L 336.217384 319.28849 
L 340.683636 317.106417 
L 345.149889 314.800973 
L 349.616141 312.370088 
L 354.082394 309.811703 
L 358.548646 307.123777 
L 363.014899 304.304277 
L 367.481152 301.351186 
L 371.947404 298.262499 
L 376.413657 295.036225 
L 380.879909 291.670385 
L 385.346162 288.163013 
L 389.812414 284.512159 
L 394.278667 280.715882 
L 398.744919 276.772258 
L 403.211172 272.679372 
L 407.677424 268.435325 
L 412.143677 264.038231 
L 416.609929 259.486216 
L 421.076182 254.77742 
L 425.542434 249.909995 
L 430.008687 244.882108 
L 434.474939 239.691937 
L 438.941192 234.337675 
L 443.407444 228.817526 
L 447.873697 223.129709 
L 452.339949 217.272456 
L 456.806202 211.24401 
L 461.272455 205.042631 
L 465.738707 198.666588 
L 470.20496 192.114165 
L 474.671212 185.38366 
L 479.137465 178.473382 
L 483.603717 171.381655 
L 488.06997 164.106816 
L 492.536222 156.647213 
L 497.002475 149.001209 
L 501.468727 141.16718 
L 505.93498 133.143515 
L 510.401232 124.928616 
L 514.867485 116.520898 
L 519.333737 107.918789 
L 523.79999 99.120731 
L 528.266242 90.125177 
L 532.732495 80.930595 
L 537.198747 71.535467 
L 541.665 61.938285 
" clip-path="url(#pf7af97baed)" style="fill: none; stroke-dasharray: 9.6,2.4,1.5,2.4; stroke-dashoffset: 0; stroke: #a50034; stroke-width: 1.5"/>
   </g>
   <g id="line2d_31">
    <path d="M 99.506 315.152112 
L 103.972253 316.341526 
L 108.438505 317.533125 
L 112.904758 318.724249 
L 117.37101 319.912248 
L 121.837263 321.094471 
L 126.303515 322.268274 
L 130.769768 323.431019 
L 135.23602 324.580069 
L 139.702273 325.712794 
L 144.168525 326.826569 
L 148.634778 327.918769 
L 153.10103 328.98678 
L 157.567283 330.027988 
L 162.033535 331.039783 
L 166.499788 332.019564 
L 170.96604 332.964729 
L 175.432293 333.872685 
L 179.898545 334.74084 
L 184.364798 335.566609 
L 188.831051 336.34741 
L 193.297303 337.080666 
L 197.763556 337.763805 
L 202.229808 338.394258 
L 206.696061 338.969462 
L 211.162313 339.486858 
L 215.628566 339.94389 
L 220.094818 340.33801 
L 224.561071 340.66667 
L 229.027323 340.92733 
L 233.493576 341.117453 
L 237.959828 341.234506 
L 242.426081 341.275963 
L 246.892333 341.239298 
L 251.358586 341.121994 
L 255.824838 340.921537 
L 260.291091 340.635415 
L 264.757343 340.261124 
L 269.223596 339.796162 
L 273.689848 339.238034 
L 278.156101 338.584247 
L 282.622354 337.832313 
L 287.088606 336.97975 
L 291.554859 336.024078 
L 296.021111 334.962824 
L 300.487364 333.793517 
L 304.953616 332.513694 
L 309.419869 331.120892 
L 313.886121 329.612656 
L 318.352374 327.986534 
L 322.818626 326.240078 
L 327.284879 324.370846 
L 331.751131 322.376399 
L 336.217384 320.254304 
L 340.683636 318.00213 
L 345.149889 315.617454 
L 349.616141 313.097854 
L 354.082394 310.440915 
L 358.548646 307.644224 
L 363.014899 304.705376 
L 367.481152 301.621967 
L 371.947404 298.391599 
L 376.413657 295.011878 
L 380.879909 291.480416 
L 385.346162 287.794828 
L 389.812414 283.952734 
L 394.278667 279.951757 
L 398.744919 275.789526 
L 403.211172 271.463676 
L 407.677424 266.971842 
L 412.143677 262.311668 
L 416.609929 257.480801 
L 421.076182 252.47689 
L 425.542434 247.297593 
L 430.008687 241.940568 
L 434.474939 236.40348 
L 438.941192 230.683999 
L 443.407444 224.779798 
L 447.873697 218.688554 
L 452.339949 212.407951 
L 456.806202 205.935674 
L 461.272455 199.269416 
L 465.738707 192.406872 
L 470.20496 185.345743 
L 474.671212 178.083733 
L 479.137465 170.618552 
L 483.603717 162.947913 
L 488.06997 155.069534 
L 492.536222 146.981138 
L 497.002475 138.680453 
L 501.468727 130.16521 
L 505.93498 121.433144 
L 510.401232 112.481997 
L 514.867485 103.309514 
L 519.333737 93.913444 
L 523.79999 84.291541 
L 528.266242 74.441564 
L 532.732495 64.361275 
L 537.198747 54.048442 
L 541.665 43.500836 
" clip-path="url(#pf7af97baed)" style="fill: none; stroke-dasharray: 9.6,2.4,1.5,2.4; stroke-dashoffset: 0; stroke: #ef60a3; stroke-width: 1.5"/>
   </g>
   <g id="line2d_32">
    <path d="M 99.506 311.068165 
L 103.972253 312.787765 
L 108.438505 314.46915 
L 112.904758 316.111283 
L 117.37101 317.713104 
L 121.837263 319.273536 
L 126.303515 320.79148 
L 130.769768 322.265819 
L 135.23602 323.695414 
L 139.702273 325.079106 
L 144.168525 326.415718 
L 148.634778 327.704052 
L 153.10103 328.942888 
L 157.567283 330.130989 
L 162.033535 331.267096 
L 166.499788 332.349931 
L 170.96604 333.378196 
L 175.432293 334.350571 
L 179.898545 335.26572 
L 184.364798 336.122283 
L 188.831051 336.918882 
L 193.297303 337.654118 
L 197.763556 338.326573 
L 202.229808 338.934809 
L 206.696061 339.477367 
L 211.162313 339.952767 
L 215.628566 340.359513 
L 220.094818 340.696085 
L 224.561071 340.960945 
L 229.027323 341.152534 
L 233.493576 341.269273 
L 237.959828 341.309564 
L 242.426081 341.271788 
L 246.892333 341.154306 
L 251.358586 340.95546 
L 255.824838 340.673571 
L 260.291091 340.306941 
L 264.757343 339.85385 
L 269.223596 339.31256 
L 273.689848 338.681311 
L 278.156101 337.958326 
L 282.622354 337.141805 
L 287.088606 336.22993 
L 291.554859 335.220861 
L 296.021111 334.11274 
L 300.487364 332.903687 
L 304.953616 331.591805 
L 309.419869 330.175174 
L 313.886121 328.651854 
L 318.352374 327.019888 
L 322.818626 325.277295 
L 327.284879 323.422078 
L 331.751131 321.452217 
L 336.217384 319.365672 
L 340.683636 317.160386 
L 345.149889 314.834278 
L 349.616141 312.38525 
L 354.082394 309.811183 
L 358.548646 307.109937 
L 363.014899 304.279353 
L 367.481152 301.317253 
L 371.947404 298.221436 
L 376.413657 294.989684 
L 380.879909 291.619758 
L 385.346162 288.109398 
L 389.812414 284.456325 
L 394.278667 280.658239 
L 398.744919 276.712822 
L 403.211172 272.617734 
L 407.677424 268.370616 
L 412.143677 263.969088 
L 416.609929 259.410752 
L 421.076182 254.693187 
L 425.542434 249.813954 
L 430.008687 244.770593 
L 434.474939 239.560627 
L 438.941192 234.181554 
L 443.407444 228.630855 
L 447.873697 222.905992 
L 452.339949 217.004404 
L 456.806202 210.923511 
L 461.272455 204.660715 
L 465.738707 198.213396 
L 470.20496 191.578914 
L 474.671212 184.754609 
L 479.137465 177.737802 
L 483.603717 170.525793 
L 488.06997 163.115863 
L 492.536222 155.505272 
L 497.002475 147.69126 
L 501.468727 139.671048 
L 505.93498 131.441835 
L 510.401232 123.000803 
L 514.867485 114.34511 
L 519.333737 105.471898 
L 523.79999 96.378287 
L 528.266242 87.061376 
L 532.732495 77.518247 
L 537.198747 67.745958 
L 541.665 57.741551 
" clip-path="url(#pf7af97baed)" style="fill: none; stroke-dasharray: 9.6,2.4,1.5,2.4; stroke-dashoffset: 0; stroke: #6cc24a; stroke-width: 1.5"/>
   </g>
   <g id="patch_3">
    <path d="M 99.506 356.2 
L 99.506 28.6104 
" style="fill: none; stroke: #000000; stroke-width: 0.8; stroke-linejoin: miter; stroke-linecap: square"/>
   </g>
   <g id="patch_4">
    <path d="M 541.665 356.2 
L 541.665 28.6104 
" style="fill: none; stroke: #000000; stroke-width: 0.8; stroke-linejoin: miter; stroke-linecap: square"/>
   </g>
   <g id="patch_5">
    <path d="M 99.506 356.2 
L 541.665 356.2 
" style="fill: none; stroke: #000000; stroke-width: 0.8; stroke-linejoin: miter; stroke-linecap: square"/>
   </g>
   <g id="patch_6">
    <path d="M 99.506 28.6104 
L 541.665 28.6104 
" style="fill: none; stroke: #000000; stroke-width: 0.8; stroke-linejoin: miter; stroke-linecap: square"/>
   </g>
   <g id="legend_1">
    <g id="patch_7">
     <path d="M 113.506 162.0354 
L 360.665375 162.0354 
Q 364.665375 162.0354 364.665375 158.0354 
L 364.665375 42.6104 
Q 364.665375 38.6104 360.665375 38.6104 
L 113.506 38.6104 
Q 109.506 38.6104 109.506 42.6104 
L 109.506 158.0354 
Q 109.506 162.0354 113.506 162.0354 
z
" style="fill: #ffffff; opacity: 0.8; stroke: #cccccc; stroke-linejoin: miter"/>
    </g>
    <g id="line2d_33">
     <path d="M 117.506 54.807275 
L 137.506 54.807275 
L 157.506 54.807275 
" style="fill: none; stroke-dasharray: 9.6,2.4,1.5,2.4; stroke-dashoffset: 0; stroke: #00a6b6; stroke-width: 1.5"/>
    </g>
    <g id="text_17">
     <!-- Uncorrected J=1.8 -->
     <g transform="translate(173.506 61.807275) scale(0.2 -0.2)">
      <defs>
       <path id="DejaVuSans-55" d="M 556 4666 
L 1191 4666 
L 1191 1831 
Q 1191 1081 1462 751 
Q 1734 422 2344 422 
Q 2950 422 3222 751 
Q 3494 1081 3494 1831 
L 3494 4666 
L 4128 4666 
L 4128 1753 
Q 4128 841 3676 375 
Q 3225 -91 2344 -91 
Q 1459 -91 1007 375 
Q 556 841 556 1753 
L 556 4666 
z
" transform="scale(0.015625)"/>
       <path id="DejaVuSans-6e" d="M 3513 2113 
L 3513 0 
L 2938 0 
L 2938 2094 
Q 2938 2591 2744 2837 
Q 2550 3084 2163 3084 
Q 1697 3084 1428 2787 
Q 1159 2491 1159 1978 
L 1159 0 
L 581 0 
L 581 3500 
L 1159 3500 
L 1159 2956 
Q 1366 3272 1645 3428 
Q 1925 3584 2291 3584 
Q 2894 3584 3203 3211 
Q 3513 2838 3513 2113 
z
" transform="scale(0.015625)"/>
       <path id="DejaVuSans-63" d="M 3122 3366 
L 3122 2828 
Q 2878 2963 2633 3030 
Q 2388 3097 2138 3097 
Q 1578 3097 1268 2742 
Q 959 2388 959 1747 
Q 959 1106 1268 751 
Q 1578 397 2138 397 
Q 2388 397 2633 464 
Q 2878 531 3122 666 
L 3122 134 
Q 2881 22 2623 -34 
Q 2366 -91 2075 -91 
Q 1284 -91 818 406 
Q 353 903 353 1747 
Q 353 2603 823 3093 
Q 1294 3584 2113 3584 
Q 2378 3584 2631 3529 
Q 2884 3475 3122 3366 
z
" transform="scale(0.015625)"/>
       <path id="DejaVuSans-6f" d="M 1959 3097 
Q 1497 3097 1228 2736 
Q 959 2375 959 1747 
Q 959 1119 1226 758 
Q 1494 397 1959 397 
Q 2419 397 2687 759 
Q 2956 1122 2956 1747 
Q 2956 2369 2687 2733 
Q 2419 3097 1959 3097 
z
M 1959 3584 
Q 2709 3584 3137 3096 
Q 3566 2609 3566 1747 
Q 3566 888 3137 398 
Q 2709 -91 1959 -91 
Q 1206 -91 779 398 
Q 353 888 353 1747 
Q 353 2609 779 3096 
Q 1206 3584 1959 3584 
z
" transform="scale(0.015625)"/>
       <path id="DejaVuSans-72" d="M 2631 2963 
Q 2534 3019 2420 3045 
Q 2306 3072 2169 3072 
Q 1681 3072 1420 2755 
Q 1159 2438 1159 1844 
L 1159 0 
L 581 0 
L 581 3500 
L 1159 3500 
L 1159 2956 
Q 1341 3275 1631 3429 
Q 1922 3584 2338 3584 
Q 2397 3584 2469 3576 
Q 2541 3569 2628 3553 
L 2631 2963 
z
" transform="scale(0.015625)"/>
       <path id="DejaVuSans-74" d="M 1172 4494 
L 1172 3500 
L 2356 3500 
L 2356 3053 
L 1172 3053 
L 1172 1153 
Q 1172 725 1289 603 
Q 1406 481 1766 481 
L 2356 481 
L 2356 0 
L 1766 0 
Q 1100 0 847 248 
Q 594 497 594 1153 
L 594 3053 
L 172 3053 
L 172 3500 
L 594 3500 
L 594 4494 
L 1172 4494 
z
" transform="scale(0.015625)"/>
       <path id="DejaVuSans-4a" d="M 628 4666 
L 1259 4666 
L 1259 325 
Q 1259 -519 939 -900 
Q 619 -1281 -91 -1281 
L -331 -1281 
L -331 -750 
L -134 -750 
Q 284 -750 456 -515 
Q 628 -281 628 325 
L 628 4666 
z
" transform="scale(0.015625)"/>
       <path id="DejaVuSans-3d" d="M 678 2906 
L 4684 2906 
L 4684 2381 
L 678 2381 
L 678 2906 
z
M 678 1631 
L 4684 1631 
L 4684 1100 
L 678 1100 
L 678 1631 
z
" transform="scale(0.015625)"/>
       <path id="DejaVuSans-38" d="M 2034 2216 
Q 1584 2216 1326 1975 
Q 1069 1734 1069 1313 
Q 1069 891 1326 650 
Q 1584 409 2034 409 
Q 2484 409 2743 651 
Q 3003 894 3003 1313 
Q 3003 1734 2745 1975 
Q 2488 2216 2034 2216 
z
M 1403 2484 
Q 997 2584 770 2862 
Q 544 3141 544 3541 
Q 544 4100 942 4425 
Q 1341 4750 2034 4750 
Q 2731 4750 3128 4425 
Q 3525 4100 3525 3541 
Q 3525 3141 3298 2862 
Q 3072 2584 2669 2484 
Q 3125 2378 3379 2068 
Q 3634 1759 3634 1313 
Q 3634 634 3220 271 
Q 2806 -91 2034 -91 
Q 1263 -91 848 271 
Q 434 634 434 1313 
Q 434 1759 690 2068 
Q 947 2378 1403 2484 
z
M 1172 3481 
Q 1172 3119 1398 2916 
Q 1625 2713 2034 2713 
Q 2441 2713 2670 2916 
Q 2900 3119 2900 3481 
Q 2900 3844 2670 4047 
Q 2441 4250 2034 4250 
Q 1625 4250 1398 4047 
Q 1172 3844 1172 3481 
z
" transform="scale(0.015625)"/>
      </defs>
      <use xlink:href="#DejaVuSans-55"/>
      <use xlink:href="#DejaVuSans-6e" x="73.193359"/>
      <use xlink:href="#DejaVuSans-63" x="136.572266"/>
      <use xlink:href="#DejaVuSans-6f" x="191.552734"/>
      <use xlink:href="#DejaVuSans-72" x="252.734375"/>
      <use xlink:href="#DejaVuSans-72" x="292.097656"/>
      <use xlink:href="#DejaVuSans-65" x="330.960938"/>
      <use xlink:href="#DejaVuSans-63" x="392.484375"/>
      <use xlink:href="#DejaVuSans-74" x="447.464844"/>
      <use xlink:href="#DejaVuSans-65" x="486.673828"/>
      <use xlink:href="#DejaVuSans-64" x="548.197266"/>
      <use xlink:href="#DejaVuSans-20" x="611.673828"/>
      <use xlink:href="#DejaVuSans-4a" x="643.460938"/>
      <use xlink:href="#DejaVuSans-3d" x="672.953125"/>
      <use xlink:href="#DejaVuSans-31" x="756.742188"/>
      <use xlink:href="#DejaVuSans-2e" x="820.365234"/>
      <use xlink:href="#DejaVuSans-38" x="852.152344"/>
     </g>
    </g>
    <g id="line2d_34">
     <path d="M 117.506 84.163525 
L 137.506 84.163525 
L 157.506 84.163525 
" style="fill: none; stroke-dasharray: 9.6,2.4,1.5,2.4; stroke-dashoffset: 0; stroke: #a50034; stroke-width: 1.5"/>
    </g>
    <g id="text_18">
     <!-- Corrected J=1.8 -->
     <g transform="translate(173.506 91.163525) scale(0.2 -0.2)">
      <defs>
       <path id="DejaVuSans-43" d="M 4122 4306 
L 4122 3641 
Q 3803 3938 3442 4084 
Q 3081 4231 2675 4231 
Q 1875 4231 1450 3742 
Q 1025 3253 1025 2328 
Q 1025 1406 1450 917 
Q 1875 428 2675 428 
Q 3081 428 3442 575 
Q 3803 722 4122 1019 
L 4122 359 
Q 3791 134 3420 21 
Q 3050 -91 2638 -91 
Q 1578 -91 968 557 
Q 359 1206 359 2328 
Q 359 3453 968 4101 
Q 1578 4750 2638 4750 
Q 3056 4750 3426 4639 
Q 3797 4528 4122 4306 
z
" transform="scale(0.015625)"/>
      </defs>
      <use xlink:href="#DejaVuSans-43"/>
      <use xlink:href="#DejaVuSans-6f" x="69.824219"/>
      <use xlink:href="#DejaVuSans-72" x="131.005859"/>
      <use xlink:href="#DejaVuSans-72" x="170.369141"/>
      <use xlink:href="#DejaVuSans-65" x="209.232422"/>
      <use xlink:href="#DejaVuSans-63" x="270.755859"/>
      <use xlink:href="#DejaVuSans-74" x="325.736328"/>
      <use xlink:href="#DejaVuSans-65" x="364.945312"/>
      <use xlink:href="#DejaVuSans-64" x="426.46875"/>
      <use xlink:href="#DejaVuSans-20" x="489.945312"/>
      <use xlink:href="#DejaVuSans-4a" x="521.732422"/>
      <use xlink:href="#DejaVuSans-3d" x="551.224609"/>
      <use xlink:href="#DejaVuSans-31" x="635.013672"/>
      <use xlink:href="#DejaVuSans-2e" x="698.636719"/>
      <use xlink:href="#DejaVuSans-38" x="730.423828"/>
     </g>
    </g>
    <g id="line2d_35">
     <path d="M 117.506 113.519775 
L 137.506 113.519775 
L 157.506 113.519775 
" style="fill: none; stroke-dasharray: 9.6,2.4,1.5,2.4; stroke-dashoffset: 0; stroke: #ef60a3; stroke-width: 1.5"/>
    </g>
    <g id="text_19">
     <!-- Uncorrected J=3.5 -->
     <g transform="translate(173.506 120.519775) scale(0.2 -0.2)">
      <use xlink:href="#DejaVuSans-55"/>
      <use xlink:href="#DejaVuSans-6e" x="73.193359"/>
      <use xlink:href="#DejaVuSans-63" x="136.572266"/>
      <use xlink:href="#DejaVuSans-6f" x="191.552734"/>
      <use xlink:href="#DejaVuSans-72" x="252.734375"/>
      <use xlink:href="#DejaVuSans-72" x="292.097656"/>
      <use xlink:href="#DejaVuSans-65" x="330.960938"/>
      <use xlink:href="#DejaVuSans-63" x="392.484375"/>
      <use xlink:href="#DejaVuSans-74" x="447.464844"/>
      <use xlink:href="#DejaVuSans-65" x="486.673828"/>
      <use xlink:href="#DejaVuSans-64" x="548.197266"/>
      <use xlink:href="#DejaVuSans-20" x="611.673828"/>
      <use xlink:href="#DejaVuSans-4a" x="643.460938"/>
      <use xlink:href="#DejaVuSans-3d" x="672.953125"/>
      <use xlink:href="#DejaVuSans-33" x="756.742188"/>
      <use xlink:href="#DejaVuSans-2e" x="820.365234"/>
      <use xlink:href="#DejaVuSans-35" x="852.152344"/>
     </g>
    </g>
    <g id="line2d_36">
     <path d="M 117.506 142.876025 
L 137.506 142.876025 
L 157.506 142.876025 
" style="fill: none; stroke-dasharray: 9.6,2.4,1.5,2.4; stroke-dashoffset: 0; stroke: #6cc24a; stroke-width: 1.5"/>
    </g>
    <g id="text_20">
     <!-- Corrected J=3.5 -->
     <g transform="translate(173.506 149.876025) scale(0.2 -0.2)">
      <use xlink:href="#DejaVuSans-43"/>
      <use xlink:href="#DejaVuSans-6f" x="69.824219"/>
      <use xlink:href="#DejaVuSans-72" x="131.005859"/>
      <use xlink:href="#DejaVuSans-72" x="170.369141"/>
      <use xlink:href="#DejaVuSans-65" x="209.232422"/>
      <use xlink:href="#DejaVuSans-63" x="270.755859"/>
      <use xlink:href="#DejaVuSans-74" x="325.736328"/>
      <use xlink:href="#DejaVuSans-65" x="364.945312"/>
      <use xlink:href="#DejaVuSans-64" x="426.46875"/>
      <use xlink:href="#DejaVuSans-20" x="489.945312"/>
      <use xlink:href="#DejaVuSans-4a" x="521.732422"/>
      <use xlink:href="#DejaVuSans-3d" x="551.224609"/>
      <use xlink:href="#DejaVuSans-33" x="635.013672"/>
      <use xlink:href="#DejaVuSans-2e" x="698.636719"/>
      <use xlink:href="#DejaVuSans-35" x="730.423828"/>
     </g>
    </g>
   </g>
  </g>
 </g>
 <defs>
  <clipPath id="pf7af97baed">
   <rect x="99.506" y="28.6104" width="442.159" height="327.5896"/>
  </clipPath>
 </defs>
</svg>
