<?xml version="1.0" encoding="utf-8" standalone="no"?>
<!DOCTYPE svg PUBLIC "-//W3C//DTD SVG 1.1//EN"
  "http://www.w3.org/Graphics/SVG/1.1/DTD/svg11.dtd">
<svg xmlns:xlink="http://www.w3.org/1999/xlink" width="576pt" height="432pt" viewBox="0 0 576 432" xmlns="http://www.w3.org/2000/svg" version="1.1">
 <metadata>
  <rdf:RDF xmlns:dc="http://purl.org/dc/elements/1.1/" xmlns:cc="http://creativecommons.org/ns#" xmlns:rdf="http://www.w3.org/1999/02/22-rdf-syntax-ns#">
   <cc:Work>
    <dc:type rdf:resource="http://purl.org/dc/dcmitype/StillImage"/>
    <dc:date>2024-04-03T11:44:57.974588</dc:date>
    <dc:format>image/svg+xml</dc:format>
    <dc:creator>
     <cc:Agent>
      <dc:title>Matplotlib v3.8.0, https://matplotlib.org/</dc:title>
     </cc:Agent>
    </dc:creator>
   </cc:Work>
  </rdf:RDF>
 </metadata>
 <defs>
  <style type="text/css">*{stroke-linejoin: round; stroke-linecap: butt}</style>
 </defs>
 <g id="figure_1">
  <g id="patch_1">
   <path d="M 0 432 
L 576 432 
L 576 0 
L 0 0 
z
" style="fill: #ffffff"/>
  </g>
  <g id="axes_1">
   <g id="patch_2">
    <path d="M 103.376 356.2 
L 541.665 356.2 
L 541.665 21.6 
L 103.376 21.6 
z
" style="fill: #ffffff"/>
   </g>
   <g id="PathCollection_1">
    <defs>
     <path id="m73cecbd54e" d="M 0 3 
C 0.795609 3 1.55874 2.683901 2.12132 2.12132 
C 2.683901 1.55874 3 0.795609 3 0 
C 3 -0.795609 2.683901 -1.55874 2.12132 -2.12132 
C 1.55874 -2.683901 0.795609 -3 0 -3 
C -0.795609 -3 -1.55874 -2.683901 -2.12132 -2.12132 
C -2.683901 -1.55874 -3 -0.795609 -3 0 
C -3 0.795609 -2.683901 1.55874 -2.12132 2.12132 
C -1.55874 2.683901 -0.795609 3 0 3 
z
" style="stroke: #00a6b6"/>
    </defs>
    <g clip-path="url(#p8a75667be1)">
     <use xlink:href="#m73cecbd54e" x="176.424167" y="250.496206" style="fill: #00a6b6; stroke: #00a6b6"/>
     <use xlink:href="#m73cecbd54e" x="351.739767" y="102.596121" style="fill: #00a6b6; stroke: #00a6b6"/>
     <use xlink:href="#m73cecbd54e" x="424.787933" y="67.361694" style="fill: #00a6b6; stroke: #00a6b6"/>
     <use xlink:href="#m73cecbd54e" x="454.0072" y="54.5483" style="fill: #00a6b6; stroke: #00a6b6"/>
    </g>
   </g>
   <g id="PathCollection_2">
    <defs>
     <path id="mcf50f51a4b" d="M 0 3 
C 0.795609 3 1.55874 2.683901 2.12132 2.12132 
C 2.683901 1.55874 3 0.795609 3 0 
C 3 -0.795609 2.683901 -1.55874 2.12132 -2.12132 
C 1.55874 -2.683901 0.795609 -3 0 -3 
C -0.795609 -3 -1.55874 -2.683901 -2.12132 -2.12132 
C -2.683901 -1.55874 -3 -0.795609 -3 0 
C -3 0.795609 -2.683901 1.55874 -2.12132 2.12132 
C -1.55874 2.683901 -0.795609 3 0 3 
z
" style="stroke: #a50034"/>
    </defs>
    <g clip-path="url(#p8a75667be1)">
     <use xlink:href="#mcf50f51a4b" x="176.413543" y="252.229941" style="fill: #a50034; stroke: #a50034"/>
     <use xlink:href="#mcf50f51a4b" x="351.792884" y="105.108241" style="fill: #a50034; stroke: #a50034"/>
     <use xlink:href="#mcf50f51a4b" x="424.851936" y="72.598032" style="fill: #a50034; stroke: #a50034"/>
     <use xlink:href="#mcf50f51a4b" x="454.076345" y="62.608966" style="fill: #a50034; stroke: #a50034"/>
    </g>
   </g>
   <g id="PathCollection_3">
    <defs>
     <path id="meac24f91d4" d="M 0 3 
C 0.795609 3 1.55874 2.683901 2.12132 2.12132 
C 2.683901 1.55874 3 0.795609 3 0 
C 3 -0.795609 2.683901 -1.55874 2.12132 -2.12132 
C 1.55874 -2.683901 0.795609 -3 0 -3 
C -0.795609 -3 -1.55874 -2.683901 -2.12132 -2.12132 
C -2.683901 -1.55874 -3 -0.795609 -3 0 
C -3 0.795609 -2.683901 1.55874 -2.12132 2.12132 
C -1.55874 2.683901 -0.795609 3 0 3 
z
" style="stroke: #ef60a3"/>
    </defs>
    <g clip-path="url(#p8a75667be1)">
     <use xlink:href="#meac24f91d4" x="176.424167" y="251.134596" style="fill: #ef60a3; stroke: #ef60a3"/>
     <use xlink:href="#meac24f91d4" x="249.472333" y="187.947362" style="fill: #ef60a3; stroke: #ef60a3"/>
     <use xlink:href="#meac24f91d4" x="351.739767" y="107.203846" style="fill: #ef60a3; stroke: #ef60a3"/>
     <use xlink:href="#meac24f91d4" x="424.787933" y="75.118137" style="fill: #ef60a3; stroke: #ef60a3"/>
     <use xlink:href="#meac24f91d4" x="454.0072" y="64.17817" style="fill: #ef60a3; stroke: #ef60a3"/>
    </g>
   </g>
   <g id="PathCollection_4">
    <defs>
     <path id="m73f564ea14" d="M 0 3 
C 0.795609 3 1.55874 2.683901 2.12132 2.12132 
C 2.683901 1.55874 3 0.795609 3 0 
C 3 -0.795609 2.683901 -1.55874 2.12132 -2.12132 
C 1.55874 -2.683901 0.795609 -3 0 -3 
C -0.795609 -3 -1.55874 -2.683901 -2.12132 -2.12132 
C -2.683901 -1.55874 -3 -0.795609 -3 0 
C -3 0.795609 -2.683901 1.55874 -2.12132 2.12132 
C -1.55874 2.683901 -0.795609 3 0 3 
z
" style="stroke: #6cc24a"/>
    </defs>
    <g clip-path="url(#p8a75667be1)">
     <use xlink:href="#m73f564ea14" x="176.413543" y="253.570604" style="fill: #6cc24a; stroke: #6cc24a"/>
     <use xlink:href="#m73f564ea14" x="249.490037" y="190.011682" style="fill: #6cc24a; stroke: #6cc24a"/>
     <use xlink:href="#m73f564ea14" x="351.792884" y="108.600315" style="fill: #6cc24a; stroke: #6cc24a"/>
     <use xlink:href="#m73f564ea14" x="424.851936" y="78.269105" style="fill: #6cc24a; stroke: #6cc24a"/>
     <use xlink:href="#m73f564ea14" x="454.076345" y="69.677239" style="fill: #6cc24a; stroke: #6cc24a"/>
    </g>
   </g>
   <g id="matplotlib.axis_1">
    <g id="xtick_1">
     <g id="line2d_1">
      <path d="M 103.376 356.2 
L 103.376 21.6 
" clip-path="url(#p8a75667be1)" style="fill: none; stroke: #b0b0b0; stroke-width: 0.8; stroke-linecap: square"/>
     </g>
     <g id="line2d_2">
      <defs>
       <path id="m878056cca4" d="M 0 0 
L 0 3.5 
" style="stroke: #000000; stroke-width: 0.8"/>
      </defs>
      <g>
       <use xlink:href="#m878056cca4" x="103.376" y="356.2" style="stroke: #000000; stroke-width: 0.8"/>
      </g>
     </g>
     <g id="text_1">
      <!-- −10 -->
      <g transform="translate(82.271313 378.396875) scale(0.2 -0.2)">
       <defs>
        <path id="DejaVuSans-2212" d="M 678 2272 
L 4684 2272 
L 4684 1741 
L 678 1741 
L 678 2272 
z
" transform="scale(0.015625)"/>
        <path id="DejaVuSans-31" d="M 794 531 
L 1825 531 
L 1825 4091 
L 703 3866 
L 703 4441 
L 1819 4666 
L 2450 4666 
L 2450 531 
L 3481 531 
L 3481 0 
L 794 0 
L 794 531 
z
" transform="scale(0.015625)"/>
        <path id="DejaVuSans-30" d="M 2034 4250 
Q 1547 4250 1301 3770 
Q 1056 3291 1056 2328 
Q 1056 1369 1301 889 
Q 1547 409 2034 409 
Q 2525 409 2770 889 
Q 3016 1369 3016 2328 
Q 3016 3291 2770 3770 
Q 2525 4250 2034 4250 
z
M 2034 4750 
Q 2819 4750 3233 4129 
Q 3647 3509 3647 2328 
Q 3647 1150 3233 529 
Q 2819 -91 2034 -91 
Q 1250 -91 836 529 
Q 422 1150 422 2328 
Q 422 3509 836 4129 
Q 1250 4750 2034 4750 
z
" transform="scale(0.015625)"/>
       </defs>
       <use xlink:href="#DejaVuSans-2212"/>
       <use xlink:href="#DejaVuSans-31" x="83.789062"/>
       <use xlink:href="#DejaVuSans-30" x="147.412109"/>
      </g>
     </g>
    </g>
    <g id="xtick_2">
     <g id="line2d_3">
      <path d="M 176.424167 356.2 
L 176.424167 21.6 
" clip-path="url(#p8a75667be1)" style="fill: none; stroke: #b0b0b0; stroke-width: 0.8; stroke-linecap: square"/>
     </g>
     <g id="line2d_4">
      <g>
       <use xlink:href="#m878056cca4" x="176.424167" y="356.2" style="stroke: #000000; stroke-width: 0.8"/>
      </g>
     </g>
     <g id="text_2">
      <!-- −5 -->
      <g transform="translate(161.681979 378.396875) scale(0.2 -0.2)">
       <defs>
        <path id="DejaVuSans-35" d="M 691 4666 
L 3169 4666 
L 3169 4134 
L 1269 4134 
L 1269 2991 
Q 1406 3038 1543 3061 
Q 1681 3084 1819 3084 
Q 2600 3084 3056 2656 
Q 3513 2228 3513 1497 
Q 3513 744 3044 326 
Q 2575 -91 1722 -91 
Q 1428 -91 1123 -41 
Q 819 9 494 109 
L 494 744 
Q 775 591 1075 516 
Q 1375 441 1709 441 
Q 2250 441 2565 725 
Q 2881 1009 2881 1497 
Q 2881 1984 2565 2268 
Q 2250 2553 1709 2553 
Q 1456 2553 1204 2497 
Q 953 2441 691 2322 
L 691 4666 
z
" transform="scale(0.015625)"/>
       </defs>
       <use xlink:href="#DejaVuSans-2212"/>
       <use xlink:href="#DejaVuSans-35" x="83.789062"/>
      </g>
     </g>
    </g>
    <g id="xtick_3">
     <g id="line2d_5">
      <path d="M 249.472333 356.2 
L 249.472333 21.6 
" clip-path="url(#p8a75667be1)" style="fill: none; stroke: #b0b0b0; stroke-width: 0.8; stroke-linecap: square"/>
     </g>
     <g id="line2d_6">
      <g>
       <use xlink:href="#m878056cca4" x="249.472333" y="356.2" style="stroke: #000000; stroke-width: 0.8"/>
      </g>
     </g>
     <g id="text_3">
      <!-- 0 -->
      <g transform="translate(243.109833 378.396875) scale(0.2 -0.2)">
       <use xlink:href="#DejaVuSans-30"/>
      </g>
     </g>
    </g>
    <g id="xtick_4">
     <g id="line2d_7">
      <path d="M 322.5205 356.2 
L 322.5205 21.6 
" clip-path="url(#p8a75667be1)" style="fill: none; stroke: #b0b0b0; stroke-width: 0.8; stroke-linecap: square"/>
     </g>
     <g id="line2d_8">
      <g>
       <use xlink:href="#m878056cca4" x="322.5205" y="356.2" style="stroke: #000000; stroke-width: 0.8"/>
      </g>
     </g>
     <g id="text_4">
      <!-- 5 -->
      <g transform="translate(316.158 378.396875) scale(0.2 -0.2)">
       <use xlink:href="#DejaVuSans-35"/>
      </g>
     </g>
    </g>
    <g id="xtick_5">
     <g id="line2d_9">
      <path d="M 395.568667 356.2 
L 395.568667 21.6 
" clip-path="url(#p8a75667be1)" style="fill: none; stroke: #b0b0b0; stroke-width: 0.8; stroke-linecap: square"/>
     </g>
     <g id="line2d_10">
      <g>
       <use xlink:href="#m878056cca4" x="395.568667" y="356.2" style="stroke: #000000; stroke-width: 0.8"/>
      </g>
     </g>
     <g id="text_5">
      <!-- 10 -->
      <g transform="translate(382.843667 378.396875) scale(0.2 -0.2)">
       <use xlink:href="#DejaVuSans-31"/>
       <use xlink:href="#DejaVuSans-30" x="63.623047"/>
      </g>
     </g>
    </g>
    <g id="xtick_6">
     <g id="line2d_11">
      <path d="M 468.616833 356.2 
L 468.616833 21.6 
" clip-path="url(#p8a75667be1)" style="fill: none; stroke: #b0b0b0; stroke-width: 0.8; stroke-linecap: square"/>
     </g>
     <g id="line2d_12">
      <g>
       <use xlink:href="#m878056cca4" x="468.616833" y="356.2" style="stroke: #000000; stroke-width: 0.8"/>
      </g>
     </g>
     <g id="text_6">
      <!-- 15 -->
      <g transform="translate(455.891833 378.396875) scale(0.2 -0.2)">
       <use xlink:href="#DejaVuSans-31"/>
       <use xlink:href="#DejaVuSans-35" x="63.623047"/>
      </g>
     </g>
    </g>
    <g id="xtick_7">
     <g id="line2d_13">
      <path d="M 541.665 356.2 
L 541.665 21.6 
" clip-path="url(#p8a75667be1)" style="fill: none; stroke: #b0b0b0; stroke-width: 0.8; stroke-linecap: square"/>
     </g>
     <g id="line2d_14">
      <g>
       <use xlink:href="#m878056cca4" x="541.665" y="356.2" style="stroke: #000000; stroke-width: 0.8"/>
      </g>
     </g>
     <g id="text_7">
      <!-- 20 -->
      <g transform="translate(528.94 378.396875) scale(0.2 -0.2)">
       <defs>
        <path id="DejaVuSans-32" d="M 1228 531 
L 3431 531 
L 3431 0 
L 469 0 
L 469 531 
Q 828 903 1448 1529 
Q 2069 2156 2228 2338 
Q 2531 2678 2651 2914 
Q 2772 3150 2772 3378 
Q 2772 3750 2511 3984 
Q 2250 4219 1831 4219 
Q 1534 4219 1204 4116 
Q 875 4013 500 3803 
L 500 4441 
Q 881 4594 1212 4672 
Q 1544 4750 1819 4750 
Q 2544 4750 2975 4387 
Q 3406 4025 3406 3419 
Q 3406 3131 3298 2873 
Q 3191 2616 2906 2266 
Q 2828 2175 2409 1742 
Q 1991 1309 1228 531 
z
" transform="scale(0.015625)"/>
       </defs>
       <use xlink:href="#DejaVuSans-32"/>
       <use xlink:href="#DejaVuSans-30" x="63.623047"/>
      </g>
     </g>
    </g>
    <g id="text_8">
     <!-- $\alpha$ [deg] -->
     <g transform="translate(286.0205 401.75625) scale(0.2 -0.2)">
      <defs>
       <path id="DejaVuSans-Oblique-3b1" d="M 2619 1628 
L 2622 2350 
Q 2625 3088 2069 3091 
Q 1653 3094 1394 2747 
Q 1069 2319 959 1747 
Q 825 1059 994 731 
Q 1169 397 1547 397 
Q 1966 397 2319 1063 
L 2619 1628 
z
M 2166 3578 
Q 3141 3594 3128 2584 
Q 3128 2584 3616 3500 
L 4128 3500 
L 3119 1603 
L 3109 919 
Q 3109 766 3194 638 
Q 3291 488 3391 488 
L 3669 488 
L 3575 0 
L 3228 0 
Q 2934 0 2722 263 
Q 2622 394 2619 669 
Q 2416 334 2066 50 
Q 1900 -81 1453 -78 
Q 722 -72 456 397 
Q 184 884 353 1747 
Q 534 2675 1009 3097 
Q 1544 3569 2166 3578 
z
" transform="scale(0.015625)"/>
       <path id="DejaVuSans-20" transform="scale(0.015625)"/>
       <path id="DejaVuSans-5b" d="M 550 4863 
L 1875 4863 
L 1875 4416 
L 1125 4416 
L 1125 -397 
L 1875 -397 
L 1875 -844 
L 550 -844 
L 550 4863 
z
" transform="scale(0.015625)"/>
       <path id="DejaVuSans-64" d="M 2906 2969 
L 2906 4863 
L 3481 4863 
L 3481 0 
L 2906 0 
L 2906 525 
Q 2725 213 2448 61 
Q 2172 -91 1784 -91 
Q 1150 -91 751 415 
Q 353 922 353 1747 
Q 353 2572 751 3078 
Q 1150 3584 1784 3584 
Q 2172 3584 2448 3432 
Q 2725 3281 2906 2969 
z
M 947 1747 
Q 947 1113 1208 752 
Q 1469 391 1925 391 
Q 2381 391 2643 752 
Q 2906 1113 2906 1747 
Q 2906 2381 2643 2742 
Q 2381 3103 1925 3103 
Q 1469 3103 1208 2742 
Q 947 2381 947 1747 
z
" transform="scale(0.015625)"/>
       <path id="DejaVuSans-65" d="M 3597 1894 
L 3597 1613 
L 953 1613 
Q 991 1019 1311 708 
Q 1631 397 2203 397 
Q 2534 397 2845 478 
Q 3156 559 3463 722 
L 3463 178 
Q 3153 47 2828 -22 
Q 2503 -91 2169 -91 
Q 1331 -91 842 396 
Q 353 884 353 1716 
Q 353 2575 817 3079 
Q 1281 3584 2069 3584 
Q 2775 3584 3186 3129 
Q 3597 2675 3597 1894 
z
M 3022 2063 
Q 3016 2534 2758 2815 
Q 2500 3097 2075 3097 
Q 1594 3097 1305 2825 
Q 1016 2553 972 2059 
L 3022 2063 
z
" transform="scale(0.015625)"/>
       <path id="DejaVuSans-67" d="M 2906 1791 
Q 2906 2416 2648 2759 
Q 2391 3103 1925 3103 
Q 1463 3103 1205 2759 
Q 947 2416 947 1791 
Q 947 1169 1205 825 
Q 1463 481 1925 481 
Q 2391 481 2648 825 
Q 2906 1169 2906 1791 
z
M 3481 434 
Q 3481 -459 3084 -895 
Q 2688 -1331 1869 -1331 
Q 1566 -1331 1297 -1286 
Q 1028 -1241 775 -1147 
L 775 -588 
Q 1028 -725 1275 -790 
Q 1522 -856 1778 -856 
Q 2344 -856 2625 -561 
Q 2906 -266 2906 331 
L 2906 616 
Q 2728 306 2450 153 
Q 2172 0 1784 0 
Q 1141 0 747 490 
Q 353 981 353 1791 
Q 353 2603 747 3093 
Q 1141 3584 1784 3584 
Q 2172 3584 2450 3431 
Q 2728 3278 2906 2969 
L 2906 3500 
L 3481 3500 
L 3481 434 
z
" transform="scale(0.015625)"/>
       <path id="DejaVuSans-5d" d="M 1947 4863 
L 1947 -844 
L 622 -844 
L 622 -397 
L 1369 -397 
L 1369 4416 
L 622 4416 
L 622 4863 
L 1947 4863 
z
" transform="scale(0.015625)"/>
      </defs>
      <use xlink:href="#DejaVuSans-Oblique-3b1" transform="translate(0 0.015625)"/>
      <use xlink:href="#DejaVuSans-20" transform="translate(65.917969 0.015625)"/>
      <use xlink:href="#DejaVuSans-5b" transform="translate(97.705078 0.015625)"/>
      <use xlink:href="#DejaVuSans-64" transform="translate(136.71875 0.015625)"/>
      <use xlink:href="#DejaVuSans-65" transform="translate(200.195312 0.015625)"/>
      <use xlink:href="#DejaVuSans-67" transform="translate(261.71875 0.015625)"/>
      <use xlink:href="#DejaVuSans-5d" transform="translate(325.195312 0.015625)"/>
     </g>
    </g>
   </g>
   <g id="matplotlib.axis_2">
    <g id="ytick_1">
     <g id="line2d_15">
      <path d="M 103.376 322.098442 
L 541.665 322.098442 
" clip-path="url(#p8a75667be1)" style="fill: none; stroke: #b0b0b0; stroke-width: 0.8; stroke-linecap: square"/>
     </g>
     <g id="line2d_16">
      <defs>
       <path id="m3b3dcf6a04" d="M 0 0 
L -3.5 0 
" style="stroke: #000000; stroke-width: 0.8"/>
      </defs>
      <g>
       <use xlink:href="#m3b3dcf6a04" x="103.376" y="322.098442" style="stroke: #000000; stroke-width: 0.8"/>
      </g>
     </g>
     <g id="text_9">
      <!-- −1.0 -->
      <g transform="translate(47.810375 329.69688) scale(0.2 -0.2)">
       <defs>
        <path id="DejaVuSans-2e" d="M 684 794 
L 1344 794 
L 1344 0 
L 684 0 
L 684 794 
z
" transform="scale(0.015625)"/>
       </defs>
       <use xlink:href="#DejaVuSans-2212"/>
       <use xlink:href="#DejaVuSans-31" x="83.789062"/>
       <use xlink:href="#DejaVuSans-2e" x="147.412109"/>
       <use xlink:href="#DejaVuSans-30" x="179.199219"/>
      </g>
     </g>
    </g>
    <g id="ytick_2">
     <g id="line2d_17">
      <path d="M 103.376 267.299293 
L 541.665 267.299293 
" clip-path="url(#p8a75667be1)" style="fill: none; stroke: #b0b0b0; stroke-width: 0.8; stroke-linecap: square"/>
     </g>
     <g id="line2d_18">
      <g>
       <use xlink:href="#m3b3dcf6a04" x="103.376" y="267.299293" style="stroke: #000000; stroke-width: 0.8"/>
      </g>
     </g>
     <g id="text_10">
      <!-- −0.5 -->
      <g transform="translate(47.810375 274.897731) scale(0.2 -0.2)">
       <use xlink:href="#DejaVuSans-2212"/>
       <use xlink:href="#DejaVuSans-30" x="83.789062"/>
       <use xlink:href="#DejaVuSans-2e" x="147.412109"/>
       <use xlink:href="#DejaVuSans-35" x="179.199219"/>
      </g>
     </g>
    </g>
    <g id="ytick_3">
     <g id="line2d_19">
      <path d="M 103.376 212.500145 
L 541.665 212.500145 
" clip-path="url(#p8a75667be1)" style="fill: none; stroke: #b0b0b0; stroke-width: 0.8; stroke-linecap: square"/>
     </g>
     <g id="line2d_20">
      <g>
       <use xlink:href="#m3b3dcf6a04" x="103.376" y="212.500145" style="stroke: #000000; stroke-width: 0.8"/>
      </g>
     </g>
     <g id="text_11">
      <!-- 0.0 -->
      <g transform="translate(64.56975 220.098582) scale(0.2 -0.2)">
       <use xlink:href="#DejaVuSans-30"/>
       <use xlink:href="#DejaVuSans-2e" x="63.623047"/>
       <use xlink:href="#DejaVuSans-30" x="95.410156"/>
      </g>
     </g>
    </g>
    <g id="ytick_4">
     <g id="line2d_21">
      <path d="M 103.376 157.700996 
L 541.665 157.700996 
" clip-path="url(#p8a75667be1)" style="fill: none; stroke: #b0b0b0; stroke-width: 0.8; stroke-linecap: square"/>
     </g>
     <g id="line2d_22">
      <g>
       <use xlink:href="#m3b3dcf6a04" x="103.376" y="157.700996" style="stroke: #000000; stroke-width: 0.8"/>
      </g>
     </g>
     <g id="text_12">
      <!-- 0.5 -->
      <g transform="translate(64.56975 165.299434) scale(0.2 -0.2)">
       <use xlink:href="#DejaVuSans-30"/>
       <use xlink:href="#DejaVuSans-2e" x="63.623047"/>
       <use xlink:href="#DejaVuSans-35" x="95.410156"/>
      </g>
     </g>
    </g>
    <g id="ytick_5">
     <g id="line2d_23">
      <path d="M 103.376 102.901847 
L 541.665 102.901847 
" clip-path="url(#p8a75667be1)" style="fill: none; stroke: #b0b0b0; stroke-width: 0.8; stroke-linecap: square"/>
     </g>
     <g id="line2d_24">
      <g>
       <use xlink:href="#m3b3dcf6a04" x="103.376" y="102.901847" style="stroke: #000000; stroke-width: 0.8"/>
      </g>
     </g>
     <g id="text_13">
      <!-- 1.0 -->
      <g transform="translate(64.56975 110.500285) scale(0.2 -0.2)">
       <use xlink:href="#DejaVuSans-31"/>
       <use xlink:href="#DejaVuSans-2e" x="63.623047"/>
       <use xlink:href="#DejaVuSans-30" x="95.410156"/>
      </g>
     </g>
    </g>
    <g id="ytick_6">
     <g id="line2d_25">
      <path d="M 103.376 48.102699 
L 541.665 48.102699 
" clip-path="url(#p8a75667be1)" style="fill: none; stroke: #b0b0b0; stroke-width: 0.8; stroke-linecap: square"/>
     </g>
     <g id="line2d_26">
      <g>
       <use xlink:href="#m3b3dcf6a04" x="103.376" y="48.102699" style="stroke: #000000; stroke-width: 0.8"/>
      </g>
     </g>
     <g id="text_14">
      <!-- 1.5 -->
      <g transform="translate(64.56975 55.701136) scale(0.2 -0.2)">
       <use xlink:href="#DejaVuSans-31"/>
       <use xlink:href="#DejaVuSans-2e" x="63.623047"/>
       <use xlink:href="#DejaVuSans-35" x="95.410156"/>
      </g>
     </g>
    </g>
    <g id="text_15">
     <!-- $C_L$ [-] -->
     <g transform="translate(39.651 214.7) rotate(-90) scale(0.2 -0.2)">
      <defs>
       <path id="DejaVuSans-Oblique-43" d="M 4447 4306 
L 4319 3641 
Q 4019 3944 3683 4091 
Q 3347 4238 2956 4238 
Q 2422 4238 2017 3981 
Q 1613 3725 1319 3200 
Q 1131 2863 1032 2486 
Q 934 2109 934 1728 
Q 934 1091 1264 756 
Q 1594 422 2222 422 
Q 2656 422 3056 561 
Q 3456 700 3834 978 
L 3688 231 
Q 3316 72 2936 -9 
Q 2556 -91 2175 -91 
Q 1278 -91 773 396 
Q 269 884 269 1753 
Q 269 2309 461 2846 
Q 653 3384 1013 3828 
Q 1394 4300 1883 4525 
Q 2372 4750 3022 4750 
Q 3422 4750 3780 4639 
Q 4138 4528 4447 4306 
z
" transform="scale(0.015625)"/>
       <path id="DejaVuSans-Oblique-4c" d="M 1075 4666 
L 1709 4666 
L 909 525 
L 3181 525 
L 3078 0 
L 172 0 
L 1075 4666 
z
" transform="scale(0.015625)"/>
       <path id="DejaVuSans-2d" d="M 313 2009 
L 1997 2009 
L 1997 1497 
L 313 1497 
L 313 2009 
z
" transform="scale(0.015625)"/>
      </defs>
      <use xlink:href="#DejaVuSans-Oblique-43" transform="translate(0 0.015625)"/>
      <use xlink:href="#DejaVuSans-Oblique-4c" transform="translate(69.824219 -16.390625) scale(0.7)"/>
      <use xlink:href="#DejaVuSans-20" transform="translate(111.557617 0.015625)"/>
      <use xlink:href="#DejaVuSans-5b" transform="translate(143.344727 0.015625)"/>
      <use xlink:href="#DejaVuSans-2d" transform="translate(182.358398 0.015625)"/>
      <use xlink:href="#DejaVuSans-5d" transform="translate(218.442383 0.015625)"/>
     </g>
    </g>
   </g>
   <g id="line2d_27">
    <path d="M 103.376 336.243113 
L 107.803162 330.63429 
L 112.230323 325.078207 
L 116.657485 319.574864 
L 121.084646 314.12426 
L 125.511808 308.726395 
L 129.93897 303.38127 
L 134.366131 298.088885 
L 138.793293 292.849239 
L 143.220455 287.662332 
L 147.647616 282.528166 
L 152.074778 277.446738 
L 156.501939 272.41805 
L 160.929101 267.442102 
L 165.356263 262.518893 
L 169.783424 257.648424 
L 174.210586 252.830694 
L 178.637747 248.065704 
L 183.064909 243.353453 
L 187.492071 238.693942 
L 191.919232 234.08717 
L 196.346394 229.533138 
L 200.773556 225.031845 
L 205.200717 220.583292 
L 209.627879 216.187479 
L 214.05504 211.844405 
L 218.482202 207.55407 
L 222.909364 203.316475 
L 227.336525 199.13162 
L 231.763687 194.999504 
L 236.190848 190.920127 
L 240.61801 186.89349 
L 245.045172 182.919593 
L 249.472333 178.998435 
L 253.899495 175.130016 
L 258.326657 171.314337 
L 262.753818 167.551398 
L 267.18098 163.841198 
L 271.608141 160.183738 
L 276.035303 156.579017 
L 280.462465 153.027036 
L 284.889626 149.527794 
L 289.316788 146.081292 
L 293.743949 142.687529 
L 298.171111 139.346506 
L 302.598273 136.058222 
L 307.025434 132.822678 
L 311.452596 129.639873 
L 315.879758 126.509808 
L 320.306919 123.432483 
L 324.734081 120.407897 
L 329.161242 117.43605 
L 333.588404 114.516943 
L 338.015566 111.650575 
L 342.442727 108.836947 
L 346.869889 106.076059 
L 351.297051 103.36791 
L 355.724212 100.712501 
L 360.151374 98.109831 
L 364.578535 95.5599 
L 369.005697 93.062709 
L 373.432859 90.618258 
L 377.86002 88.226546 
L 382.287182 85.887574 
L 386.714343 83.601341 
L 391.141505 81.367848 
L 395.568667 79.187094 
L 399.995828 77.05908 
L 404.42299 74.983805 
L 408.850152 72.96127 
L 413.277313 70.991474 
L 417.704475 69.074418 
L 422.131636 67.210101 
L 426.558798 65.398524 
L 430.98596 63.639687 
L 435.413121 61.933589 
L 439.840283 60.28023 
L 444.267444 58.679611 
L 448.694606 57.131732 
L 453.121768 55.636592 
L 457.548929 54.194191 
L 461.976091 52.80453 
L 466.403253 51.467609 
L 470.830414 50.183427 
L 475.257576 48.951984 
L 479.684737 47.773282 
L 484.111899 46.647318 
L 488.539061 45.574094 
L 492.966222 44.55361 
L 497.393384 43.585865 
L 501.820545 42.67086 
L 506.247707 41.808594 
L 510.674869 40.999068 
L 515.10203 40.242281 
L 519.529192 39.538234 
L 523.956354 38.886926 
L 528.383515 38.288358 
L 532.810677 37.74253 
L 537.237838 37.24944 
L 541.665 36.809091 
" clip-path="url(#p8a75667be1)" style="fill: none; stroke-dasharray: 9.6,2.4,1.5,2.4; stroke-dashoffset: 0; stroke: #00a6b6; stroke-width: 1.5"/>
   </g>
   <g id="line2d_28">
    <path d="M 103.376 340.990909 
L 107.803162 335.14587 
L 112.230323 329.360575 
L 116.657485 323.635024 
L 121.084646 317.969217 
L 125.511808 312.363153 
L 129.93897 306.816834 
L 134.366131 301.330259 
L 138.793293 295.903427 
L 143.220455 290.53634 
L 147.647616 285.228997 
L 152.074778 279.981397 
L 156.501939 274.793541 
L 160.929101 269.66543 
L 165.356263 264.597062 
L 169.783424 259.588438 
L 174.210586 254.639559 
L 178.637747 249.750423 
L 183.064909 244.921031 
L 187.492071 240.151383 
L 191.919232 235.441479 
L 196.346394 230.791319 
L 200.773556 226.200903 
L 205.200717 221.670231 
L 209.627879 217.199303 
L 214.05504 212.788118 
L 218.482202 208.436678 
L 222.909364 204.144982 
L 227.336525 199.913029 
L 231.763687 195.740821 
L 236.190848 191.628356 
L 240.61801 187.575636 
L 245.045172 183.582659 
L 249.472333 179.649427 
L 253.899495 175.775938 
L 258.326657 171.962193 
L 262.753818 168.208193 
L 267.18098 164.513936 
L 271.608141 160.879423 
L 276.035303 157.304654 
L 280.462465 153.789629 
L 284.889626 150.334348 
L 289.316788 146.938811 
L 293.743949 143.603018 
L 298.171111 140.326968 
L 302.598273 137.110663 
L 307.025434 133.954102 
L 311.452596 130.857285 
L 315.879758 127.820211 
L 320.306919 124.842882 
L 324.734081 121.925296 
L 329.161242 119.067455 
L 333.588404 116.269357 
L 338.015566 113.531004 
L 342.442727 110.852394 
L 346.869889 108.233528 
L 351.297051 105.674406 
L 355.724212 103.175029 
L 360.151374 100.735395 
L 364.578535 98.355505 
L 369.005697 96.035359 
L 373.432859 93.774957 
L 377.86002 91.574299 
L 382.287182 89.433384 
L 386.714343 87.352214 
L 391.141505 85.330788 
L 395.568667 83.369106 
L 399.995828 81.467167 
L 404.42299 79.624973 
L 408.850152 77.842523 
L 413.277313 76.119816 
L 417.704475 74.456854 
L 422.131636 72.853635 
L 426.558798 71.31016 
L 430.98596 69.82643 
L 435.413121 68.402443 
L 439.840283 67.0382 
L 444.267444 65.733701 
L 448.694606 64.488946 
L 453.121768 63.303935 
L 457.548929 62.178668 
L 461.976091 61.113145 
L 466.403253 60.107366 
L 470.830414 59.161331 
L 475.257576 58.27504 
L 479.684737 57.448493 
L 484.111899 56.68169 
L 488.539061 55.97463 
L 492.966222 55.327315 
L 497.393384 54.739743 
L 501.820545 54.211916 
L 506.247707 53.743832 
L 510.674869 53.335493 
L 515.10203 52.986897 
L 519.529192 52.698045 
L 523.956354 52.468938 
L 528.383515 52.299574 
L 532.810677 52.189954 
L 537.237838 52.140078 
L 541.665 52.149946 
" clip-path="url(#p8a75667be1)" style="fill: none; stroke-dasharray: 9.6,2.4,1.5,2.4; stroke-dashoffset: 0; stroke: #a50034; stroke-width: 1.5"/>
   </g>
   <g id="line2d_29">
    <path d="M 103.376 334.832255 
L 107.803162 329.473902 
L 112.230323 324.165017 
L 116.657485 318.9056 
L 121.084646 313.695652 
L 125.511808 308.535171 
L 129.93897 303.424158 
L 134.366131 298.362614 
L 138.793293 293.350538 
L 143.220455 288.387929 
L 147.647616 283.474789 
L 152.074778 278.611117 
L 156.501939 273.796913 
L 160.929101 269.032177 
L 165.356263 264.31691 
L 169.783424 259.65111 
L 174.210586 255.034778 
L 178.637747 250.467915 
L 183.064909 245.950519 
L 187.492071 241.482592 
L 191.919232 237.064133 
L 196.346394 232.695141 
L 200.773556 228.375618 
L 205.200717 224.105563 
L 209.627879 219.884977 
L 214.05504 215.713858 
L 218.482202 211.592207 
L 222.909364 207.520024 
L 227.336525 203.49731 
L 231.763687 199.524064 
L 236.190848 195.600285 
L 240.61801 191.725975 
L 245.045172 187.901133 
L 249.472333 184.125759 
L 253.899495 180.399853 
L 258.326657 176.723415 
L 262.753818 173.096445 
L 267.18098 169.518943 
L 271.608141 165.99091 
L 276.035303 162.512344 
L 280.462465 159.083247 
L 284.889626 155.703617 
L 289.316788 152.373456 
L 293.743949 149.092763 
L 298.171111 145.861538 
L 302.598273 142.679781 
L 307.025434 139.547492 
L 311.452596 136.464671 
L 315.879758 133.431319 
L 320.306919 130.447434 
L 324.734081 127.513018 
L 329.161242 124.628069 
L 333.588404 121.792589 
L 338.015566 119.006577 
L 342.442727 116.270032 
L 346.869889 113.582956 
L 351.297051 110.945348 
L 355.724212 108.357208 
L 360.151374 105.818537 
L 364.578535 103.329333 
L 369.005697 100.889597 
L 373.432859 98.49933 
L 377.86002 96.15853 
L 382.287182 93.867199 
L 386.714343 91.625336 
L 391.141505 89.432941 
L 395.568667 87.290014 
L 399.995828 85.196555 
L 404.42299 83.152564 
L 408.850152 81.158041 
L 413.277313 79.212986 
L 417.704475 77.3174 
L 422.131636 75.471281 
L 426.558798 73.674631 
L 430.98596 71.927448 
L 435.413121 70.229734 
L 439.840283 68.581488 
L 444.267444 66.98271 
L 448.694606 65.4334 
L 453.121768 63.933558 
L 457.548929 62.483184 
L 461.976091 61.082279 
L 466.403253 59.730841 
L 470.830414 58.428872 
L 475.257576 57.17637 
L 479.684737 55.973337 
L 484.111899 54.819772 
L 488.539061 53.715674 
L 492.966222 52.661045 
L 497.393384 51.655884 
L 501.820545 50.700192 
L 506.247707 49.793967 
L 510.674869 48.93721 
L 515.10203 48.129921 
L 519.529192 47.372101 
L 523.956354 46.663749 
L 528.383515 46.004864 
L 532.810677 45.395448 
L 537.237838 44.8355 
L 541.665 44.32502 
" clip-path="url(#p8a75667be1)" style="fill: none; stroke-dasharray: 9.6,2.4,1.5,2.4; stroke-dashoffset: 0; stroke: #ef60a3; stroke-width: 1.5"/>
   </g>
   <g id="line2d_30">
    <path d="M 103.376 340.385569 
L 107.803162 334.81772 
L 112.230323 329.304504 
L 116.657485 323.84592 
L 121.084646 318.441968 
L 125.511808 313.092648 
L 129.93897 307.79796 
L 134.366131 302.557904 
L 138.793293 297.372481 
L 143.220455 292.24169 
L 147.647616 287.165531 
L 152.074778 282.144004 
L 156.501939 277.177109 
L 160.929101 272.264847 
L 165.356263 267.407217 
L 169.783424 262.604219 
L 174.210586 257.855853 
L 178.637747 253.162119 
L 183.064909 248.523018 
L 187.492071 243.938548 
L 191.919232 239.408711 
L 196.346394 234.933506 
L 200.773556 230.512934 
L 205.200717 226.146993 
L 209.627879 221.835685 
L 214.05504 217.579008 
L 218.482202 213.376964 
L 222.909364 209.229553 
L 227.336525 205.136773 
L 231.763687 201.098626 
L 236.190848 197.11511 
L 240.61801 193.186227 
L 245.045172 189.311976 
L 249.472333 185.492358 
L 253.899495 181.727371 
L 258.326657 178.017017 
L 262.753818 174.361295 
L 267.18098 170.760205 
L 271.608141 167.213747 
L 276.035303 163.721922 
L 280.462465 160.284728 
L 284.889626 156.902167 
L 289.316788 153.574238 
L 293.743949 150.300941 
L 298.171111 147.082277 
L 302.598273 143.918244 
L 307.025434 140.808844 
L 311.452596 137.754076 
L 315.879758 134.75394 
L 320.306919 131.808436 
L 324.734081 128.917565 
L 329.161242 126.081326 
L 333.588404 123.299719 
L 338.015566 120.572744 
L 342.442727 117.900401 
L 346.869889 115.28269 
L 351.297051 112.719612 
L 355.724212 110.211166 
L 360.151374 107.757352 
L 364.578535 105.35817 
L 369.005697 103.01362 
L 373.432859 100.723703 
L 377.86002 98.488418 
L 382.287182 96.307765 
L 386.714343 94.181744 
L 391.141505 92.110355 
L 395.568667 90.093599 
L 399.995828 88.131474 
L 404.42299 86.223982 
L 408.850152 84.371122 
L 413.277313 82.572895 
L 417.704475 80.829299 
L 422.131636 79.140336 
L 426.558798 77.506004 
L 430.98596 75.926306 
L 435.413121 74.401239 
L 439.840283 72.930804 
L 444.267444 71.515002 
L 448.694606 70.153831 
L 453.121768 68.847293 
L 457.548929 67.595387 
L 461.976091 66.398114 
L 466.403253 65.255472 
L 470.830414 64.167463 
L 475.257576 63.134086 
L 479.684737 62.155341 
L 484.111899 61.231228 
L 488.539061 60.361748 
L 492.966222 59.546899 
L 497.393384 58.786683 
L 501.820545 58.081099 
L 506.247707 57.430147 
L 510.674869 56.833828 
L 515.10203 56.29214 
L 519.529192 55.805085 
L 523.956354 55.372662 
L 528.383515 54.994871 
L 532.810677 54.671712 
L 537.237838 54.403186 
L 541.665 54.189292 
" clip-path="url(#p8a75667be1)" style="fill: none; stroke-dasharray: 9.6,2.4,1.5,2.4; stroke-dashoffset: 0; stroke: #6cc24a; stroke-width: 1.5"/>
   </g>
   <g id="patch_3">
    <path d="M 103.376 356.2 
L 103.376 21.6 
" style="fill: none; stroke: #000000; stroke-width: 0.8; stroke-linejoin: miter; stroke-linecap: square"/>
   </g>
   <g id="patch_4">
    <path d="M 541.665 356.2 
L 541.665 21.6 
" style="fill: none; stroke: #000000; stroke-width: 0.8; stroke-linejoin: miter; stroke-linecap: square"/>
   </g>
   <g id="patch_5">
    <path d="M 103.376 356.2 
L 541.665 356.2 
" style="fill: none; stroke: #000000; stroke-width: 0.8; stroke-linejoin: miter; stroke-linecap: square"/>
   </g>
   <g id="patch_6">
    <path d="M 103.376 21.6 
L 541.665 21.6 
" style="fill: none; stroke: #000000; stroke-width: 0.8; stroke-linejoin: miter; stroke-linecap: square"/>
   </g>
   <g id="legend_1">
    <g id="patch_7">
     <path d="M 280.505625 346.2 
L 527.665 346.2 
Q 531.665 346.2 531.665 342.2 
L 531.665 226.775 
Q 531.665 222.775 527.665 222.775 
L 280.505625 222.775 
Q 276.505625 222.775 276.505625 226.775 
L 276.505625 342.2 
Q 276.505625 346.2 280.505625 346.2 
z
" style="fill: #ffffff; opacity: 0.8; stroke: #cccccc; stroke-linejoin: miter"/>
    </g>
    <g id="line2d_31">
     <path d="M 284.505625 238.971875 
L 304.505625 238.971875 
L 324.505625 238.971875 
" style="fill: none; stroke-dasharray: 9.6,2.4,1.5,2.4; stroke-dashoffset: 0; stroke: #00a6b6; stroke-width: 1.5"/>
    </g>
    <g id="text_16">
     <!-- Uncorrected J=1.8 -->
     <g transform="translate(340.505625 245.971875) scale(0.2 -0.2)">
      <defs>
       <path id="DejaVuSans-55" d="M 556 4666 
L 1191 4666 
L 1191 1831 
Q 1191 1081 1462 751 
Q 1734 422 2344 422 
Q 2950 422 3222 751 
Q 3494 1081 3494 1831 
L 3494 4666 
L 4128 4666 
L 4128 1753 
Q 4128 841 3676 375 
Q 3225 -91 2344 -91 
Q 1459 -91 1007 375 
Q 556 841 556 1753 
L 556 4666 
z
" transform="scale(0.015625)"/>
       <path id="DejaVuSans-6e" d="M 3513 2113 
L 3513 0 
L 2938 0 
L 2938 2094 
Q 2938 2591 2744 2837 
Q 2550 3084 2163 3084 
Q 1697 3084 1428 2787 
Q 1159 2491 1159 1978 
L 1159 0 
L 581 0 
L 581 3500 
L 1159 3500 
L 1159 2956 
Q 1366 3272 1645 3428 
Q 1925 3584 2291 3584 
Q 2894 3584 3203 3211 
Q 3513 2838 3513 2113 
z
" transform="scale(0.015625)"/>
       <path id="DejaVuSans-63" d="M 3122 3366 
L 3122 2828 
Q 2878 2963 2633 3030 
Q 2388 3097 2138 3097 
Q 1578 3097 1268 2742 
Q 959 2388 959 1747 
Q 959 1106 1268 751 
Q 1578 397 2138 397 
Q 2388 397 2633 464 
Q 2878 531 3122 666 
L 3122 134 
Q 2881 22 2623 -34 
Q 2366 -91 2075 -91 
Q 1284 -91 818 406 
Q 353 903 353 1747 
Q 353 2603 823 3093 
Q 1294 3584 2113 3584 
Q 2378 3584 2631 3529 
Q 2884 3475 3122 3366 
z
" transform="scale(0.015625)"/>
       <path id="DejaVuSans-6f" d="M 1959 3097 
Q 1497 3097 1228 2736 
Q 959 2375 959 1747 
Q 959 1119 1226 758 
Q 1494 397 1959 397 
Q 2419 397 2687 759 
Q 2956 1122 2956 1747 
Q 2956 2369 2687 2733 
Q 2419 3097 1959 3097 
z
M 1959 3584 
Q 2709 3584 3137 3096 
Q 3566 2609 3566 1747 
Q 3566 888 3137 398 
Q 2709 -91 1959 -91 
Q 1206 -91 779 398 
Q 353 888 353 1747 
Q 353 2609 779 3096 
Q 1206 3584 1959 3584 
z
" transform="scale(0.015625)"/>
       <path id="DejaVuSans-72" d="M 2631 2963 
Q 2534 3019 2420 3045 
Q 2306 3072 2169 3072 
Q 1681 3072 1420 2755 
Q 1159 2438 1159 1844 
L 1159 0 
L 581 0 
L 581 3500 
L 1159 3500 
L 1159 2956 
Q 1341 3275 1631 3429 
Q 1922 3584 2338 3584 
Q 2397 3584 2469 3576 
Q 2541 3569 2628 3553 
L 2631 2963 
z
" transform="scale(0.015625)"/>
       <path id="DejaVuSans-74" d="M 1172 4494 
L 1172 3500 
L 2356 3500 
L 2356 3053 
L 1172 3053 
L 1172 1153 
Q 1172 725 1289 603 
Q 1406 481 1766 481 
L 2356 481 
L 2356 0 
L 1766 0 
Q 1100 0 847 248 
Q 594 497 594 1153 
L 594 3053 
L 172 3053 
L 172 3500 
L 594 3500 
L 594 4494 
L 1172 4494 
z
" transform="scale(0.015625)"/>
       <path id="DejaVuSans-4a" d="M 628 4666 
L 1259 4666 
L 1259 325 
Q 1259 -519 939 -900 
Q 619 -1281 -91 -1281 
L -331 -1281 
L -331 -750 
L -134 -750 
Q 284 -750 456 -515 
Q 628 -281 628 325 
L 628 4666 
z
" transform="scale(0.015625)"/>
       <path id="DejaVuSans-3d" d="M 678 2906 
L 4684 2906 
L 4684 2381 
L 678 2381 
L 678 2906 
z
M 678 1631 
L 4684 1631 
L 4684 1100 
L 678 1100 
L 678 1631 
z
" transform="scale(0.015625)"/>
       <path id="DejaVuSans-38" d="M 2034 2216 
Q 1584 2216 1326 1975 
Q 1069 1734 1069 1313 
Q 1069 891 1326 650 
Q 1584 409 2034 409 
Q 2484 409 2743 651 
Q 3003 894 3003 1313 
Q 3003 1734 2745 1975 
Q 2488 2216 2034 2216 
z
M 1403 2484 
Q 997 2584 770 2862 
Q 544 3141 544 3541 
Q 544 4100 942 4425 
Q 1341 4750 2034 4750 
Q 2731 4750 3128 4425 
Q 3525 4100 3525 3541 
Q 3525 3141 3298 2862 
Q 3072 2584 2669 2484 
Q 3125 2378 3379 2068 
Q 3634 1759 3634 1313 
Q 3634 634 3220 271 
Q 2806 -91 2034 -91 
Q 1263 -91 848 271 
Q 434 634 434 1313 
Q 434 1759 690 2068 
Q 947 2378 1403 2484 
z
M 1172 3481 
Q 1172 3119 1398 2916 
Q 1625 2713 2034 2713 
Q 2441 2713 2670 2916 
Q 2900 3119 2900 3481 
Q 2900 3844 2670 4047 
Q 2441 4250 2034 4250 
Q 1625 4250 1398 4047 
Q 1172 3844 1172 3481 
z
" transform="scale(0.015625)"/>
      </defs>
      <use xlink:href="#DejaVuSans-55"/>
      <use xlink:href="#DejaVuSans-6e" x="73.193359"/>
      <use xlink:href="#DejaVuSans-63" x="136.572266"/>
      <use xlink:href="#DejaVuSans-6f" x="191.552734"/>
      <use xlink:href="#DejaVuSans-72" x="252.734375"/>
      <use xlink:href="#DejaVuSans-72" x="292.097656"/>
      <use xlink:href="#DejaVuSans-65" x="330.960938"/>
      <use xlink:href="#DejaVuSans-63" x="392.484375"/>
      <use xlink:href="#DejaVuSans-74" x="447.464844"/>
      <use xlink:href="#DejaVuSans-65" x="486.673828"/>
      <use xlink:href="#DejaVuSans-64" x="548.197266"/>
      <use xlink:href="#DejaVuSans-20" x="611.673828"/>
      <use xlink:href="#DejaVuSans-4a" x="643.460938"/>
      <use xlink:href="#DejaVuSans-3d" x="672.953125"/>
      <use xlink:href="#DejaVuSans-31" x="756.742188"/>
      <use xlink:href="#DejaVuSans-2e" x="820.365234"/>
      <use xlink:href="#DejaVuSans-38" x="852.152344"/>
     </g>
    </g>
    <g id="line2d_32">
     <path d="M 284.505625 268.328125 
L 304.505625 268.328125 
L 324.505625 268.328125 
" style="fill: none; stroke-dasharray: 9.6,2.4,1.5,2.4; stroke-dashoffset: 0; stroke: #a50034; stroke-width: 1.5"/>
    </g>
    <g id="text_17">
     <!-- Corrected J=1.8 -->
     <g transform="translate(340.505625 275.328125) scale(0.2 -0.2)">
      <defs>
       <path id="DejaVuSans-43" d="M 4122 4306 
L 4122 3641 
Q 3803 3938 3442 4084 
Q 3081 4231 2675 4231 
Q 1875 4231 1450 3742 
Q 1025 3253 1025 2328 
Q 1025 1406 1450 917 
Q 1875 428 2675 428 
Q 3081 428 3442 575 
Q 3803 722 4122 1019 
L 4122 359 
Q 3791 134 3420 21 
Q 3050 -91 2638 -91 
Q 1578 -91 968 557 
Q 359 1206 359 2328 
Q 359 3453 968 4101 
Q 1578 4750 2638 4750 
Q 3056 4750 3426 4639 
Q 3797 4528 4122 4306 
z
" transform="scale(0.015625)"/>
      </defs>
      <use xlink:href="#DejaVuSans-43"/>
      <use xlink:href="#DejaVuSans-6f" x="69.824219"/>
      <use xlink:href="#DejaVuSans-72" x="131.005859"/>
      <use xlink:href="#DejaVuSans-72" x="170.369141"/>
      <use xlink:href="#DejaVuSans-65" x="209.232422"/>
      <use xlink:href="#DejaVuSans-63" x="270.755859"/>
      <use xlink:href="#DejaVuSans-74" x="325.736328"/>
      <use xlink:href="#DejaVuSans-65" x="364.945312"/>
      <use xlink:href="#DejaVuSans-64" x="426.46875"/>
      <use xlink:href="#DejaVuSans-20" x="489.945312"/>
      <use xlink:href="#DejaVuSans-4a" x="521.732422"/>
      <use xlink:href="#DejaVuSans-3d" x="551.224609"/>
      <use xlink:href="#DejaVuSans-31" x="635.013672"/>
      <use xlink:href="#DejaVuSans-2e" x="698.636719"/>
      <use xlink:href="#DejaVuSans-38" x="730.423828"/>
     </g>
    </g>
    <g id="line2d_33">
     <path d="M 284.505625 297.684375 
L 304.505625 297.684375 
L 324.505625 297.684375 
" style="fill: none; stroke-dasharray: 9.6,2.4,1.5,2.4; stroke-dashoffset: 0; stroke: #ef60a3; stroke-width: 1.5"/>
    </g>
    <g id="text_18">
     <!-- Uncorrected J=3.5 -->
     <g transform="translate(340.505625 304.684375) scale(0.2 -0.2)">
      <defs>
       <path id="DejaVuSans-33" d="M 2597 2516 
Q 3050 2419 3304 2112 
Q 3559 1806 3559 1356 
Q 3559 666 3084 287 
Q 2609 -91 1734 -91 
Q 1441 -91 1130 -33 
Q 819 25 488 141 
L 488 750 
Q 750 597 1062 519 
Q 1375 441 1716 441 
Q 2309 441 2620 675 
Q 2931 909 2931 1356 
Q 2931 1769 2642 2001 
Q 2353 2234 1838 2234 
L 1294 2234 
L 1294 2753 
L 1863 2753 
Q 2328 2753 2575 2939 
Q 2822 3125 2822 3475 
Q 2822 3834 2567 4026 
Q 2313 4219 1838 4219 
Q 1578 4219 1281 4162 
Q 984 4106 628 3988 
L 628 4550 
Q 988 4650 1302 4700 
Q 1616 4750 1894 4750 
Q 2613 4750 3031 4423 
Q 3450 4097 3450 3541 
Q 3450 3153 3228 2886 
Q 3006 2619 2597 2516 
z
" transform="scale(0.015625)"/>
      </defs>
      <use xlink:href="#DejaVuSans-55"/>
      <use xlink:href="#DejaVuSans-6e" x="73.193359"/>
      <use xlink:href="#DejaVuSans-63" x="136.572266"/>
      <use xlink:href="#DejaVuSans-6f" x="191.552734"/>
      <use xlink:href="#DejaVuSans-72" x="252.734375"/>
      <use xlink:href="#DejaVuSans-72" x="292.097656"/>
      <use xlink:href="#DejaVuSans-65" x="330.960938"/>
      <use xlink:href="#DejaVuSans-63" x="392.484375"/>
      <use xlink:href="#DejaVuSans-74" x="447.464844"/>
      <use xlink:href="#DejaVuSans-65" x="486.673828"/>
      <use xlink:href="#DejaVuSans-64" x="548.197266"/>
      <use xlink:href="#DejaVuSans-20" x="611.673828"/>
      <use xlink:href="#DejaVuSans-4a" x="643.460938"/>
      <use xlink:href="#DejaVuSans-3d" x="672.953125"/>
      <use xlink:href="#DejaVuSans-33" x="756.742188"/>
      <use xlink:href="#DejaVuSans-2e" x="820.365234"/>
      <use xlink:href="#DejaVuSans-35" x="852.152344"/>
     </g>
    </g>
    <g id="line2d_34">
     <path d="M 284.505625 327.040625 
L 304.505625 327.040625 
L 324.505625 327.040625 
" style="fill: none; stroke-dasharray: 9.6,2.4,1.5,2.4; stroke-dashoffset: 0; stroke: #6cc24a; stroke-width: 1.5"/>
    </g>
    <g id="text_19">
     <!-- Corrected J=3.5 -->
     <g transform="translate(340.505625 334.040625) scale(0.2 -0.2)">
      <use xlink:href="#DejaVuSans-43"/>
      <use xlink:href="#DejaVuSans-6f" x="69.824219"/>
      <use xlink:href="#DejaVuSans-72" x="131.005859"/>
      <use xlink:href="#DejaVuSans-72" x="170.369141"/>
      <use xlink:href="#DejaVuSans-65" x="209.232422"/>
      <use xlink:href="#DejaVuSans-63" x="270.755859"/>
      <use xlink:href="#DejaVuSans-74" x="325.736328"/>
      <use xlink:href="#DejaVuSans-65" x="364.945312"/>
      <use xlink:href="#DejaVuSans-64" x="426.46875"/>
      <use xlink:href="#DejaVuSans-20" x="489.945312"/>
      <use xlink:href="#DejaVuSans-4a" x="521.732422"/>
      <use xlink:href="#DejaVuSans-3d" x="551.224609"/>
      <use xlink:href="#DejaVuSans-33" x="635.013672"/>
      <use xlink:href="#DejaVuSans-2e" x="698.636719"/>
      <use xlink:href="#DejaVuSans-35" x="730.423828"/>
     </g>
    </g>
   </g>
  </g>
 </g>
 <defs>
  <clipPath id="p8a75667be1">
   <rect x="103.376" y="21.6" width="438.289" height="334.6"/>
  </clipPath>
 </defs>
</svg>
