<?xml version="1.0" encoding="utf-8" standalone="no"?>
<!DOCTYPE svg PUBLIC "-//W3C//DTD SVG 1.1//EN"
  "http://www.w3.org/Graphics/SVG/1.1/DTD/svg11.dtd">
<svg xmlns:xlink="http://www.w3.org/1999/xlink" width="720pt" height="432pt" viewBox="0 0 720 432" xmlns="http://www.w3.org/2000/svg" version="1.1">
 <metadata>
  <rdf:RDF xmlns:dc="http://purl.org/dc/elements/1.1/" xmlns:cc="http://creativecommons.org/ns#" xmlns:rdf="http://www.w3.org/1999/02/22-rdf-syntax-ns#">
   <cc:Work>
    <dc:type rdf:resource="http://purl.org/dc/dcmitype/StillImage"/>
    <dc:date>2024-04-02T12:17:38.252637</dc:date>
    <dc:format>image/svg+xml</dc:format>
    <dc:creator>
     <cc:Agent>
      <dc:title>Matplotlib v3.8.0, https://matplotlib.org/</dc:title>
     </cc:Agent>
    </dc:creator>
   </cc:Work>
  </rdf:RDF>
 </metadata>
 <defs>
  <style type="text/css">*{stroke-linejoin: round; stroke-linecap: butt}</style>
 </defs>
 <g id="figure_1">
  <g id="patch_1">
   <path d="M 0 432 
L 720 432 
L 720 0 
L 0 0 
z
" style="fill: #ffffff"/>
  </g>
  <g id="axes_1">
   <g id="patch_2">
    <path d="M 80.732 373.12 
L 694.26 373.12 
L 694.26 16.2 
L 80.732 16.2 
z
" style="fill: #ffffff"/>
   </g>
   <g id="PathCollection_1">
    <defs>
     <path id="m446e8bef85" d="M 0 3 
C 0.795609 3 1.55874 2.683901 2.12132 2.12132 
C 2.683901 1.55874 3 0.795609 3 0 
C 3 -0.795609 2.683901 -1.55874 2.12132 -2.12132 
C 1.55874 -2.683901 0.795609 -3 0 -3 
C -0.795609 -3 -1.55874 -2.683901 -2.12132 -2.12132 
C -2.683901 -1.55874 -3 -0.795609 -3 0 
C -3 0.795609 -2.683901 1.55874 -2.12132 2.12132 
C -1.55874 2.683901 -0.795609 3 0 3 
z
" style="stroke: #00a6b6"/>
    </defs>
    <g clip-path="url(#p9b75fb8f4c)">
     <use xlink:href="#m446e8bef85" x="182.986667" y="94.067446" style="fill: #00a6b6; stroke: #00a6b6"/>
     <use xlink:href="#m446e8bef85" x="428.397867" y="201.404544" style="fill: #00a6b6; stroke: #00a6b6"/>
     <use xlink:href="#m446e8bef85" x="530.652533" y="270.339023" style="fill: #00a6b6; stroke: #00a6b6"/>
     <use xlink:href="#m446e8bef85" x="571.5544" y="297.748919" style="fill: #00a6b6; stroke: #00a6b6"/>
    </g>
   </g>
   <g id="PathCollection_2">
    <defs>
     <path id="m7f4dba3792" d="M 0 3 
C 0.795609 3 1.55874 2.683901 2.12132 2.12132 
C 2.683901 1.55874 3 0.795609 3 0 
C 3 -0.795609 2.683901 -1.55874 2.12132 -2.12132 
C 1.55874 -2.683901 0.795609 -3 0 -3 
C -0.795609 -3 -1.55874 -2.683901 -2.12132 -2.12132 
C -2.683901 -1.55874 -3 -0.795609 -3 0 
C -3 0.795609 -2.683901 1.55874 -2.12132 2.12132 
C -1.55874 2.683901 -0.795609 3 0 3 
z
" style="stroke: #a50034"/>
    </defs>
    <g clip-path="url(#p9b75fb8f4c)">
     <use xlink:href="#m7f4dba3792" x="182.971796" y="93.842006" style="fill: #a50034; stroke: #a50034"/>
     <use xlink:href="#m7f4dba3792" x="428.472221" y="203.787115" style="fill: #a50034; stroke: #a50034"/>
     <use xlink:href="#m7f4dba3792" x="530.742125" y="273.041382" style="fill: #a50034; stroke: #a50034"/>
     <use xlink:href="#m7f4dba3792" x="571.65119" y="299.722287" style="fill: #a50034; stroke: #a50034"/>
    </g>
   </g>
   <g id="PathCollection_3">
    <defs>
     <path id="m03329a39e0" d="M 0 3 
C 0.795609 3 1.55874 2.683901 2.12132 2.12132 
C 2.683901 1.55874 3 0.795609 3 0 
C 3 -0.795609 2.683901 -1.55874 2.12132 -2.12132 
C 1.55874 -2.683901 0.795609 -3 0 -3 
C -0.795609 -3 -1.55874 -2.683901 -2.12132 -2.12132 
C -2.683901 -1.55874 -3 -0.795609 -3 0 
C -3 0.795609 -2.683901 1.55874 -2.12132 2.12132 
C -1.55874 2.683901 -0.795609 3 0 3 
z
" style="stroke: #ef60a3"/>
    </defs>
    <g clip-path="url(#p9b75fb8f4c)">
     <use xlink:href="#m03329a39e0" x="182.986667" y="84.404361" style="fill: #ef60a3; stroke: #ef60a3"/>
     <use xlink:href="#m03329a39e0" x="285.241333" y="128.246109" style="fill: #ef60a3; stroke: #ef60a3"/>
     <use xlink:href="#m03329a39e0" x="428.397867" y="182.129576" style="fill: #ef60a3; stroke: #ef60a3"/>
     <use xlink:href="#m03329a39e0" x="530.652533" y="241.652116" style="fill: #ef60a3; stroke: #ef60a3"/>
     <use xlink:href="#m03329a39e0" x="571.5544" y="265.869322" style="fill: #ef60a3; stroke: #ef60a3"/>
    </g>
   </g>
   <g id="PathCollection_4">
    <defs>
     <path id="md7b2306fb6" d="M 0 3 
C 0.795609 3 1.55874 2.683901 2.12132 2.12132 
C 2.683901 1.55874 3 0.795609 3 0 
C 3 -0.795609 2.683901 -1.55874 2.12132 -2.12132 
C 1.55874 -2.683901 0.795609 -3 0 -3 
C -0.795609 -3 -1.55874 -2.683901 -2.12132 -2.12132 
C -2.683901 -1.55874 -3 -0.795609 -3 0 
C -3 0.795609 -2.683901 1.55874 -2.12132 2.12132 
C -1.55874 2.683901 -0.795609 3 0 3 
z
" style="stroke: #6cc24a"/>
    </defs>
    <g clip-path="url(#p9b75fb8f4c)">
     <use xlink:href="#md7b2306fb6" x="182.971796" y="84.31769" style="fill: #6cc24a; stroke: #6cc24a"/>
     <use xlink:href="#md7b2306fb6" x="285.266116" y="128.048835" style="fill: #6cc24a; stroke: #6cc24a"/>
     <use xlink:href="#md7b2306fb6" x="428.472221" y="184.371208" style="fill: #6cc24a; stroke: #6cc24a"/>
     <use xlink:href="#md7b2306fb6" x="530.742125" y="244.277261" style="fill: #6cc24a; stroke: #6cc24a"/>
     <use xlink:href="#md7b2306fb6" x="571.65119" y="268.252795" style="fill: #6cc24a; stroke: #6cc24a"/>
    </g>
   </g>
   <g id="matplotlib.axis_1">
    <g id="xtick_1">
     <g id="line2d_1">
      <path d="M 80.732 373.12 
L 80.732 16.2 
" clip-path="url(#p9b75fb8f4c)" style="fill: none; stroke: #b0b0b0; stroke-width: 0.8; stroke-linecap: square"/>
     </g>
     <g id="line2d_2">
      <defs>
       <path id="m5649726203" d="M 0 0 
L 0 3.5 
" style="stroke: #000000; stroke-width: 0.8"/>
      </defs>
      <g>
       <use xlink:href="#m5649726203" x="80.732" y="373.12" style="stroke: #000000; stroke-width: 0.8"/>
      </g>
     </g>
     <g id="text_1">
      <!-- −10 -->
      <g transform="translate(64.903484 391.517656) scale(0.15 -0.15)">
       <defs>
        <path id="DejaVuSans-2212" d="M 678 2272 
L 4684 2272 
L 4684 1741 
L 678 1741 
L 678 2272 
z
" transform="scale(0.015625)"/>
        <path id="DejaVuSans-31" d="M 794 531 
L 1825 531 
L 1825 4091 
L 703 3866 
L 703 4441 
L 1819 4666 
L 2450 4666 
L 2450 531 
L 3481 531 
L 3481 0 
L 794 0 
L 794 531 
z
" transform="scale(0.015625)"/>
        <path id="DejaVuSans-30" d="M 2034 4250 
Q 1547 4250 1301 3770 
Q 1056 3291 1056 2328 
Q 1056 1369 1301 889 
Q 1547 409 2034 409 
Q 2525 409 2770 889 
Q 3016 1369 3016 2328 
Q 3016 3291 2770 3770 
Q 2525 4250 2034 4250 
z
M 2034 4750 
Q 2819 4750 3233 4129 
Q 3647 3509 3647 2328 
Q 3647 1150 3233 529 
Q 2819 -91 2034 -91 
Q 1250 -91 836 529 
Q 422 1150 422 2328 
Q 422 3509 836 4129 
Q 1250 4750 2034 4750 
z
" transform="scale(0.015625)"/>
       </defs>
       <use xlink:href="#DejaVuSans-2212"/>
       <use xlink:href="#DejaVuSans-31" x="83.789062"/>
       <use xlink:href="#DejaVuSans-30" x="147.412109"/>
      </g>
     </g>
    </g>
    <g id="xtick_2">
     <g id="line2d_3">
      <path d="M 142.0848 373.12 
L 142.0848 16.2 
" clip-path="url(#p9b75fb8f4c)" style="fill: none; stroke: #b0b0b0; stroke-width: 0.8; stroke-linecap: square"/>
     </g>
     <g id="line2d_4">
      <g>
       <use xlink:href="#m5649726203" x="142.0848" y="373.12" style="stroke: #000000; stroke-width: 0.8"/>
      </g>
     </g>
     <g id="text_2">
      <!-- −7 -->
      <g transform="translate(131.028159 391.517656) scale(0.15 -0.15)">
       <defs>
        <path id="DejaVuSans-37" d="M 525 4666 
L 3525 4666 
L 3525 4397 
L 1831 0 
L 1172 0 
L 2766 4134 
L 525 4134 
L 525 4666 
z
" transform="scale(0.015625)"/>
       </defs>
       <use xlink:href="#DejaVuSans-2212"/>
       <use xlink:href="#DejaVuSans-37" x="83.789062"/>
      </g>
     </g>
    </g>
    <g id="xtick_3">
     <g id="line2d_5">
      <path d="M 203.4376 373.12 
L 203.4376 16.2 
" clip-path="url(#p9b75fb8f4c)" style="fill: none; stroke: #b0b0b0; stroke-width: 0.8; stroke-linecap: square"/>
     </g>
     <g id="line2d_6">
      <g>
       <use xlink:href="#m5649726203" x="203.4376" y="373.12" style="stroke: #000000; stroke-width: 0.8"/>
      </g>
     </g>
     <g id="text_3">
      <!-- −4 -->
      <g transform="translate(192.380959 391.517656) scale(0.15 -0.15)">
       <defs>
        <path id="DejaVuSans-34" d="M 2419 4116 
L 825 1625 
L 2419 1625 
L 2419 4116 
z
M 2253 4666 
L 3047 4666 
L 3047 1625 
L 3713 1625 
L 3713 1100 
L 3047 1100 
L 3047 0 
L 2419 0 
L 2419 1100 
L 313 1100 
L 313 1709 
L 2253 4666 
z
" transform="scale(0.015625)"/>
       </defs>
       <use xlink:href="#DejaVuSans-2212"/>
       <use xlink:href="#DejaVuSans-34" x="83.789062"/>
      </g>
     </g>
    </g>
    <g id="xtick_4">
     <g id="line2d_7">
      <path d="M 264.7904 373.12 
L 264.7904 16.2 
" clip-path="url(#p9b75fb8f4c)" style="fill: none; stroke: #b0b0b0; stroke-width: 0.8; stroke-linecap: square"/>
     </g>
     <g id="line2d_8">
      <g>
       <use xlink:href="#m5649726203" x="264.7904" y="373.12" style="stroke: #000000; stroke-width: 0.8"/>
      </g>
     </g>
     <g id="text_4">
      <!-- −1 -->
      <g transform="translate(253.733759 391.517656) scale(0.15 -0.15)">
       <use xlink:href="#DejaVuSans-2212"/>
       <use xlink:href="#DejaVuSans-31" x="83.789062"/>
      </g>
     </g>
    </g>
    <g id="xtick_5">
     <g id="line2d_9">
      <path d="M 326.1432 373.12 
L 326.1432 16.2 
" clip-path="url(#p9b75fb8f4c)" style="fill: none; stroke: #b0b0b0; stroke-width: 0.8; stroke-linecap: square"/>
     </g>
     <g id="line2d_10">
      <g>
       <use xlink:href="#m5649726203" x="326.1432" y="373.12" style="stroke: #000000; stroke-width: 0.8"/>
      </g>
     </g>
     <g id="text_5">
      <!-- 2 -->
      <g transform="translate(321.371325 391.517656) scale(0.15 -0.15)">
       <defs>
        <path id="DejaVuSans-32" d="M 1228 531 
L 3431 531 
L 3431 0 
L 469 0 
L 469 531 
Q 828 903 1448 1529 
Q 2069 2156 2228 2338 
Q 2531 2678 2651 2914 
Q 2772 3150 2772 3378 
Q 2772 3750 2511 3984 
Q 2250 4219 1831 4219 
Q 1534 4219 1204 4116 
Q 875 4013 500 3803 
L 500 4441 
Q 881 4594 1212 4672 
Q 1544 4750 1819 4750 
Q 2544 4750 2975 4387 
Q 3406 4025 3406 3419 
Q 3406 3131 3298 2873 
Q 3191 2616 2906 2266 
Q 2828 2175 2409 1742 
Q 1991 1309 1228 531 
z
" transform="scale(0.015625)"/>
       </defs>
       <use xlink:href="#DejaVuSans-32"/>
      </g>
     </g>
    </g>
    <g id="xtick_6">
     <g id="line2d_11">
      <path d="M 387.496 373.12 
L 387.496 16.2 
" clip-path="url(#p9b75fb8f4c)" style="fill: none; stroke: #b0b0b0; stroke-width: 0.8; stroke-linecap: square"/>
     </g>
     <g id="line2d_12">
      <g>
       <use xlink:href="#m5649726203" x="387.496" y="373.12" style="stroke: #000000; stroke-width: 0.8"/>
      </g>
     </g>
     <g id="text_6">
      <!-- 5 -->
      <g transform="translate(382.724125 391.517656) scale(0.15 -0.15)">
       <defs>
        <path id="DejaVuSans-35" d="M 691 4666 
L 3169 4666 
L 3169 4134 
L 1269 4134 
L 1269 2991 
Q 1406 3038 1543 3061 
Q 1681 3084 1819 3084 
Q 2600 3084 3056 2656 
Q 3513 2228 3513 1497 
Q 3513 744 3044 326 
Q 2575 -91 1722 -91 
Q 1428 -91 1123 -41 
Q 819 9 494 109 
L 494 744 
Q 775 591 1075 516 
Q 1375 441 1709 441 
Q 2250 441 2565 725 
Q 2881 1009 2881 1497 
Q 2881 1984 2565 2268 
Q 2250 2553 1709 2553 
Q 1456 2553 1204 2497 
Q 953 2441 691 2322 
L 691 4666 
z
" transform="scale(0.015625)"/>
       </defs>
       <use xlink:href="#DejaVuSans-35"/>
      </g>
     </g>
    </g>
    <g id="xtick_7">
     <g id="line2d_13">
      <path d="M 448.8488 373.12 
L 448.8488 16.2 
" clip-path="url(#p9b75fb8f4c)" style="fill: none; stroke: #b0b0b0; stroke-width: 0.8; stroke-linecap: square"/>
     </g>
     <g id="line2d_14">
      <g>
       <use xlink:href="#m5649726203" x="448.8488" y="373.12" style="stroke: #000000; stroke-width: 0.8"/>
      </g>
     </g>
     <g id="text_7">
      <!-- 8 -->
      <g transform="translate(444.076925 391.517656) scale(0.15 -0.15)">
       <defs>
        <path id="DejaVuSans-38" d="M 2034 2216 
Q 1584 2216 1326 1975 
Q 1069 1734 1069 1313 
Q 1069 891 1326 650 
Q 1584 409 2034 409 
Q 2484 409 2743 651 
Q 3003 894 3003 1313 
Q 3003 1734 2745 1975 
Q 2488 2216 2034 2216 
z
M 1403 2484 
Q 997 2584 770 2862 
Q 544 3141 544 3541 
Q 544 4100 942 4425 
Q 1341 4750 2034 4750 
Q 2731 4750 3128 4425 
Q 3525 4100 3525 3541 
Q 3525 3141 3298 2862 
Q 3072 2584 2669 2484 
Q 3125 2378 3379 2068 
Q 3634 1759 3634 1313 
Q 3634 634 3220 271 
Q 2806 -91 2034 -91 
Q 1263 -91 848 271 
Q 434 634 434 1313 
Q 434 1759 690 2068 
Q 947 2378 1403 2484 
z
M 1172 3481 
Q 1172 3119 1398 2916 
Q 1625 2713 2034 2713 
Q 2441 2713 2670 2916 
Q 2900 3119 2900 3481 
Q 2900 3844 2670 4047 
Q 2441 4250 2034 4250 
Q 1625 4250 1398 4047 
Q 1172 3844 1172 3481 
z
" transform="scale(0.015625)"/>
       </defs>
       <use xlink:href="#DejaVuSans-38"/>
      </g>
     </g>
    </g>
    <g id="xtick_8">
     <g id="line2d_15">
      <path d="M 510.2016 373.12 
L 510.2016 16.2 
" clip-path="url(#p9b75fb8f4c)" style="fill: none; stroke: #b0b0b0; stroke-width: 0.8; stroke-linecap: square"/>
     </g>
     <g id="line2d_16">
      <g>
       <use xlink:href="#m5649726203" x="510.2016" y="373.12" style="stroke: #000000; stroke-width: 0.8"/>
      </g>
     </g>
     <g id="text_8">
      <!-- 11 -->
      <g transform="translate(500.65785 391.517656) scale(0.15 -0.15)">
       <use xlink:href="#DejaVuSans-31"/>
       <use xlink:href="#DejaVuSans-31" x="63.623047"/>
      </g>
     </g>
    </g>
    <g id="xtick_9">
     <g id="line2d_17">
      <path d="M 571.5544 373.12 
L 571.5544 16.2 
" clip-path="url(#p9b75fb8f4c)" style="fill: none; stroke: #b0b0b0; stroke-width: 0.8; stroke-linecap: square"/>
     </g>
     <g id="line2d_18">
      <g>
       <use xlink:href="#m5649726203" x="571.5544" y="373.12" style="stroke: #000000; stroke-width: 0.8"/>
      </g>
     </g>
     <g id="text_9">
      <!-- 14 -->
      <g transform="translate(562.01065 391.517656) scale(0.15 -0.15)">
       <use xlink:href="#DejaVuSans-31"/>
       <use xlink:href="#DejaVuSans-34" x="63.623047"/>
      </g>
     </g>
    </g>
    <g id="xtick_10">
     <g id="line2d_19">
      <path d="M 632.9072 373.12 
L 632.9072 16.2 
" clip-path="url(#p9b75fb8f4c)" style="fill: none; stroke: #b0b0b0; stroke-width: 0.8; stroke-linecap: square"/>
     </g>
     <g id="line2d_20">
      <g>
       <use xlink:href="#m5649726203" x="632.9072" y="373.12" style="stroke: #000000; stroke-width: 0.8"/>
      </g>
     </g>
     <g id="text_10">
      <!-- 17 -->
      <g transform="translate(623.36345 391.517656) scale(0.15 -0.15)">
       <use xlink:href="#DejaVuSans-31"/>
       <use xlink:href="#DejaVuSans-37" x="63.623047"/>
      </g>
     </g>
    </g>
    <g id="xtick_11">
     <g id="line2d_21">
      <path d="M 694.26 373.12 
L 694.26 16.2 
" clip-path="url(#p9b75fb8f4c)" style="fill: none; stroke: #b0b0b0; stroke-width: 0.8; stroke-linecap: square"/>
     </g>
     <g id="line2d_22">
      <g>
       <use xlink:href="#m5649726203" x="694.26" y="373.12" style="stroke: #000000; stroke-width: 0.8"/>
      </g>
     </g>
     <g id="text_11">
      <!-- 20 -->
      <g transform="translate(684.71625 391.517656) scale(0.15 -0.15)">
       <use xlink:href="#DejaVuSans-32"/>
       <use xlink:href="#DejaVuSans-30" x="63.623047"/>
      </g>
     </g>
    </g>
    <g id="text_12">
     <!-- $\alpha$ [deg] -->
     <g transform="translate(360.121 410.037188) scale(0.15 -0.15)">
      <defs>
       <path id="DejaVuSans-Oblique-3b1" d="M 2619 1628 
L 2622 2350 
Q 2625 3088 2069 3091 
Q 1653 3094 1394 2747 
Q 1069 2319 959 1747 
Q 825 1059 994 731 
Q 1169 397 1547 397 
Q 1966 397 2319 1063 
L 2619 1628 
z
M 2166 3578 
Q 3141 3594 3128 2584 
Q 3128 2584 3616 3500 
L 4128 3500 
L 3119 1603 
L 3109 919 
Q 3109 766 3194 638 
Q 3291 488 3391 488 
L 3669 488 
L 3575 0 
L 3228 0 
Q 2934 0 2722 263 
Q 2622 394 2619 669 
Q 2416 334 2066 50 
Q 1900 -81 1453 -78 
Q 722 -72 456 397 
Q 184 884 353 1747 
Q 534 2675 1009 3097 
Q 1544 3569 2166 3578 
z
" transform="scale(0.015625)"/>
       <path id="DejaVuSans-20" transform="scale(0.015625)"/>
       <path id="DejaVuSans-5b" d="M 550 4863 
L 1875 4863 
L 1875 4416 
L 1125 4416 
L 1125 -397 
L 1875 -397 
L 1875 -844 
L 550 -844 
L 550 4863 
z
" transform="scale(0.015625)"/>
       <path id="DejaVuSans-64" d="M 2906 2969 
L 2906 4863 
L 3481 4863 
L 3481 0 
L 2906 0 
L 2906 525 
Q 2725 213 2448 61 
Q 2172 -91 1784 -91 
Q 1150 -91 751 415 
Q 353 922 353 1747 
Q 353 2572 751 3078 
Q 1150 3584 1784 3584 
Q 2172 3584 2448 3432 
Q 2725 3281 2906 2969 
z
M 947 1747 
Q 947 1113 1208 752 
Q 1469 391 1925 391 
Q 2381 391 2643 752 
Q 2906 1113 2906 1747 
Q 2906 2381 2643 2742 
Q 2381 3103 1925 3103 
Q 1469 3103 1208 2742 
Q 947 2381 947 1747 
z
" transform="scale(0.015625)"/>
       <path id="DejaVuSans-65" d="M 3597 1894 
L 3597 1613 
L 953 1613 
Q 991 1019 1311 708 
Q 1631 397 2203 397 
Q 2534 397 2845 478 
Q 3156 559 3463 722 
L 3463 178 
Q 3153 47 2828 -22 
Q 2503 -91 2169 -91 
Q 1331 -91 842 396 
Q 353 884 353 1716 
Q 353 2575 817 3079 
Q 1281 3584 2069 3584 
Q 2775 3584 3186 3129 
Q 3597 2675 3597 1894 
z
M 3022 2063 
Q 3016 2534 2758 2815 
Q 2500 3097 2075 3097 
Q 1594 3097 1305 2825 
Q 1016 2553 972 2059 
L 3022 2063 
z
" transform="scale(0.015625)"/>
       <path id="DejaVuSans-67" d="M 2906 1791 
Q 2906 2416 2648 2759 
Q 2391 3103 1925 3103 
Q 1463 3103 1205 2759 
Q 947 2416 947 1791 
Q 947 1169 1205 825 
Q 1463 481 1925 481 
Q 2391 481 2648 825 
Q 2906 1169 2906 1791 
z
M 3481 434 
Q 3481 -459 3084 -895 
Q 2688 -1331 1869 -1331 
Q 1566 -1331 1297 -1286 
Q 1028 -1241 775 -1147 
L 775 -588 
Q 1028 -725 1275 -790 
Q 1522 -856 1778 -856 
Q 2344 -856 2625 -561 
Q 2906 -266 2906 331 
L 2906 616 
Q 2728 306 2450 153 
Q 2172 0 1784 0 
Q 1141 0 747 490 
Q 353 981 353 1791 
Q 353 2603 747 3093 
Q 1141 3584 1784 3584 
Q 2172 3584 2450 3431 
Q 2728 3278 2906 2969 
L 2906 3500 
L 3481 3500 
L 3481 434 
z
" transform="scale(0.015625)"/>
       <path id="DejaVuSans-5d" d="M 1947 4863 
L 1947 -844 
L 622 -844 
L 622 -397 
L 1369 -397 
L 1369 4416 
L 622 4416 
L 622 4863 
L 1947 4863 
z
" transform="scale(0.015625)"/>
      </defs>
      <use xlink:href="#DejaVuSans-Oblique-3b1" transform="translate(0 0.015625)"/>
      <use xlink:href="#DejaVuSans-20" transform="translate(65.917969 0.015625)"/>
      <use xlink:href="#DejaVuSans-5b" transform="translate(97.705078 0.015625)"/>
      <use xlink:href="#DejaVuSans-64" transform="translate(136.71875 0.015625)"/>
      <use xlink:href="#DejaVuSans-65" transform="translate(200.195312 0.015625)"/>
      <use xlink:href="#DejaVuSans-67" transform="translate(261.71875 0.015625)"/>
      <use xlink:href="#DejaVuSans-5d" transform="translate(325.195312 0.015625)"/>
     </g>
    </g>
   </g>
   <g id="matplotlib.axis_2">
    <g id="ytick_1">
     <g id="line2d_23">
      <path d="M 80.732 346.431016 
L 694.26 346.431016 
" clip-path="url(#p9b75fb8f4c)" style="fill: none; stroke: #b0b0b0; stroke-width: 0.8; stroke-linecap: square"/>
     </g>
     <g id="line2d_24">
      <defs>
       <path id="mcedfdcf4b7" d="M 0 0 
L -3.5 0 
" style="stroke: #000000; stroke-width: 0.8"/>
      </defs>
      <g>
       <use xlink:href="#mcedfdcf4b7" x="80.732" y="346.431016" style="stroke: #000000; stroke-width: 0.8"/>
      </g>
     </g>
     <g id="text_13">
      <!-- −1.0 -->
      <g transform="translate(37.307781 352.129844) scale(0.15 -0.15)">
       <defs>
        <path id="DejaVuSans-2e" d="M 684 794 
L 1344 794 
L 1344 0 
L 684 0 
L 684 794 
z
" transform="scale(0.015625)"/>
       </defs>
       <use xlink:href="#DejaVuSans-2212"/>
       <use xlink:href="#DejaVuSans-31" x="83.789062"/>
       <use xlink:href="#DejaVuSans-2e" x="147.412109"/>
       <use xlink:href="#DejaVuSans-30" x="179.199219"/>
      </g>
     </g>
    </g>
    <g id="ytick_2">
     <g id="line2d_25">
      <path d="M 80.732 302.34702 
L 694.26 302.34702 
" clip-path="url(#p9b75fb8f4c)" style="fill: none; stroke: #b0b0b0; stroke-width: 0.8; stroke-linecap: square"/>
     </g>
     <g id="line2d_26">
      <g>
       <use xlink:href="#mcedfdcf4b7" x="80.732" y="302.34702" style="stroke: #000000; stroke-width: 0.8"/>
      </g>
     </g>
     <g id="text_14">
      <!-- −0.8 -->
      <g transform="translate(37.307781 308.045848) scale(0.15 -0.15)">
       <use xlink:href="#DejaVuSans-2212"/>
       <use xlink:href="#DejaVuSans-30" x="83.789062"/>
       <use xlink:href="#DejaVuSans-2e" x="147.412109"/>
       <use xlink:href="#DejaVuSans-38" x="179.199219"/>
      </g>
     </g>
    </g>
    <g id="ytick_3">
     <g id="line2d_27">
      <path d="M 80.732 258.263024 
L 694.26 258.263024 
" clip-path="url(#p9b75fb8f4c)" style="fill: none; stroke: #b0b0b0; stroke-width: 0.8; stroke-linecap: square"/>
     </g>
     <g id="line2d_28">
      <g>
       <use xlink:href="#mcedfdcf4b7" x="80.732" y="258.263024" style="stroke: #000000; stroke-width: 0.8"/>
      </g>
     </g>
     <g id="text_15">
      <!-- −0.6 -->
      <g transform="translate(37.307781 263.961852) scale(0.15 -0.15)">
       <defs>
        <path id="DejaVuSans-36" d="M 2113 2584 
Q 1688 2584 1439 2293 
Q 1191 2003 1191 1497 
Q 1191 994 1439 701 
Q 1688 409 2113 409 
Q 2538 409 2786 701 
Q 3034 994 3034 1497 
Q 3034 2003 2786 2293 
Q 2538 2584 2113 2584 
z
M 3366 4563 
L 3366 3988 
Q 3128 4100 2886 4159 
Q 2644 4219 2406 4219 
Q 1781 4219 1451 3797 
Q 1122 3375 1075 2522 
Q 1259 2794 1537 2939 
Q 1816 3084 2150 3084 
Q 2853 3084 3261 2657 
Q 3669 2231 3669 1497 
Q 3669 778 3244 343 
Q 2819 -91 2113 -91 
Q 1303 -91 875 529 
Q 447 1150 447 2328 
Q 447 3434 972 4092 
Q 1497 4750 2381 4750 
Q 2619 4750 2861 4703 
Q 3103 4656 3366 4563 
z
" transform="scale(0.015625)"/>
       </defs>
       <use xlink:href="#DejaVuSans-2212"/>
       <use xlink:href="#DejaVuSans-30" x="83.789062"/>
       <use xlink:href="#DejaVuSans-2e" x="147.412109"/>
       <use xlink:href="#DejaVuSans-36" x="179.199219"/>
      </g>
     </g>
    </g>
    <g id="ytick_4">
     <g id="line2d_29">
      <path d="M 80.732 214.179028 
L 694.26 214.179028 
" clip-path="url(#p9b75fb8f4c)" style="fill: none; stroke: #b0b0b0; stroke-width: 0.8; stroke-linecap: square"/>
     </g>
     <g id="line2d_30">
      <g>
       <use xlink:href="#mcedfdcf4b7" x="80.732" y="214.179028" style="stroke: #000000; stroke-width: 0.8"/>
      </g>
     </g>
     <g id="text_16">
      <!-- −0.4 -->
      <g transform="translate(37.307781 219.877857) scale(0.15 -0.15)">
       <use xlink:href="#DejaVuSans-2212"/>
       <use xlink:href="#DejaVuSans-30" x="83.789062"/>
       <use xlink:href="#DejaVuSans-2e" x="147.412109"/>
       <use xlink:href="#DejaVuSans-34" x="179.199219"/>
      </g>
     </g>
    </g>
    <g id="ytick_5">
     <g id="line2d_31">
      <path d="M 80.732 170.095033 
L 694.26 170.095033 
" clip-path="url(#p9b75fb8f4c)" style="fill: none; stroke: #b0b0b0; stroke-width: 0.8; stroke-linecap: square"/>
     </g>
     <g id="line2d_32">
      <g>
       <use xlink:href="#mcedfdcf4b7" x="80.732" y="170.095033" style="stroke: #000000; stroke-width: 0.8"/>
      </g>
     </g>
     <g id="text_17">
      <!-- −0.2 -->
      <g transform="translate(37.307781 175.793861) scale(0.15 -0.15)">
       <use xlink:href="#DejaVuSans-2212"/>
       <use xlink:href="#DejaVuSans-30" x="83.789062"/>
       <use xlink:href="#DejaVuSans-2e" x="147.412109"/>
       <use xlink:href="#DejaVuSans-32" x="179.199219"/>
      </g>
     </g>
    </g>
    <g id="ytick_6">
     <g id="line2d_33">
      <path d="M 80.732 126.011037 
L 694.26 126.011037 
" clip-path="url(#p9b75fb8f4c)" style="fill: none; stroke: #b0b0b0; stroke-width: 0.8; stroke-linecap: square"/>
     </g>
     <g id="line2d_34">
      <g>
       <use xlink:href="#mcedfdcf4b7" x="80.732" y="126.011037" style="stroke: #000000; stroke-width: 0.8"/>
      </g>
     </g>
     <g id="text_18">
      <!-- 0.0 -->
      <g transform="translate(49.877313 131.709865) scale(0.15 -0.15)">
       <use xlink:href="#DejaVuSans-30"/>
       <use xlink:href="#DejaVuSans-2e" x="63.623047"/>
       <use xlink:href="#DejaVuSans-30" x="95.410156"/>
      </g>
     </g>
    </g>
    <g id="ytick_7">
     <g id="line2d_35">
      <path d="M 80.732 81.927041 
L 694.26 81.927041 
" clip-path="url(#p9b75fb8f4c)" style="fill: none; stroke: #b0b0b0; stroke-width: 0.8; stroke-linecap: square"/>
     </g>
     <g id="line2d_36">
      <g>
       <use xlink:href="#mcedfdcf4b7" x="80.732" y="81.927041" style="stroke: #000000; stroke-width: 0.8"/>
      </g>
     </g>
     <g id="text_19">
      <!-- 0.2 -->
      <g transform="translate(49.877313 87.625869) scale(0.15 -0.15)">
       <use xlink:href="#DejaVuSans-30"/>
       <use xlink:href="#DejaVuSans-2e" x="63.623047"/>
       <use xlink:href="#DejaVuSans-32" x="95.410156"/>
      </g>
     </g>
    </g>
    <g id="ytick_8">
     <g id="line2d_37">
      <path d="M 80.732 37.843045 
L 694.26 37.843045 
" clip-path="url(#p9b75fb8f4c)" style="fill: none; stroke: #b0b0b0; stroke-width: 0.8; stroke-linecap: square"/>
     </g>
     <g id="line2d_38">
      <g>
       <use xlink:href="#mcedfdcf4b7" x="80.732" y="37.843045" style="stroke: #000000; stroke-width: 0.8"/>
      </g>
     </g>
     <g id="text_20">
      <!-- 0.4 -->
      <g transform="translate(49.877313 43.541874) scale(0.15 -0.15)">
       <use xlink:href="#DejaVuSans-30"/>
       <use xlink:href="#DejaVuSans-2e" x="63.623047"/>
       <use xlink:href="#DejaVuSans-34" x="95.410156"/>
      </g>
     </g>
    </g>
    <g id="text_21">
     <!-- $C_M$ [-] -->
     <g transform="translate(30.18825 215.585) rotate(-90) scale(0.15 -0.15)">
      <defs>
       <path id="DejaVuSans-Oblique-43" d="M 4447 4306 
L 4319 3641 
Q 4019 3944 3683 4091 
Q 3347 4238 2956 4238 
Q 2422 4238 2017 3981 
Q 1613 3725 1319 3200 
Q 1131 2863 1032 2486 
Q 934 2109 934 1728 
Q 934 1091 1264 756 
Q 1594 422 2222 422 
Q 2656 422 3056 561 
Q 3456 700 3834 978 
L 3688 231 
Q 3316 72 2936 -9 
Q 2556 -91 2175 -91 
Q 1278 -91 773 396 
Q 269 884 269 1753 
Q 269 2309 461 2846 
Q 653 3384 1013 3828 
Q 1394 4300 1883 4525 
Q 2372 4750 3022 4750 
Q 3422 4750 3780 4639 
Q 4138 4528 4447 4306 
z
" transform="scale(0.015625)"/>
       <path id="DejaVuSans-Oblique-4d" d="M 1081 4666 
L 2028 4666 
L 2572 1522 
L 4378 4666 
L 5350 4666 
L 4441 0 
L 3828 0 
L 4622 4091 
L 2791 897 
L 2175 897 
L 1581 4103 
L 788 0 
L 172 0 
L 1081 4666 
z
" transform="scale(0.015625)"/>
       <path id="DejaVuSans-2d" d="M 313 2009 
L 1997 2009 
L 1997 1497 
L 313 1497 
L 313 2009 
z
" transform="scale(0.015625)"/>
      </defs>
      <use xlink:href="#DejaVuSans-Oblique-43" transform="translate(0 0.015625)"/>
      <use xlink:href="#DejaVuSans-Oblique-4d" transform="translate(69.824219 -16.390625) scale(0.7)"/>
      <use xlink:href="#DejaVuSans-20" transform="translate(132.954102 0.015625)"/>
      <use xlink:href="#DejaVuSans-5b" transform="translate(164.741211 0.015625)"/>
      <use xlink:href="#DejaVuSans-2d" transform="translate(203.754883 0.015625)"/>
      <use xlink:href="#DejaVuSans-5d" transform="translate(239.838867 0.015625)"/>
     </g>
    </g>
   </g>
   <g id="line2d_39">
    <path d="M 80.732 35.976316 
L 86.929253 39.183333 
L 93.126505 42.390351 
L 99.323758 45.597368 
L 105.52101 48.804385 
L 111.718263 52.011402 
L 117.915515 55.218419 
L 124.112768 58.425437 
L 130.31002 61.632454 
L 136.507273 64.839471 
L 142.704525 68.046488 
L 148.901778 71.253506 
L 155.09903 74.460523 
L 161.296283 77.66754 
L 167.493535 80.874557 
L 173.690788 84.081575 
L 179.88804 87.288592 
L 186.085293 90.495609 
L 192.282545 93.702626 
L 198.479798 96.909644 
L 204.677051 100.116661 
L 210.874303 103.323678 
L 217.071556 106.530695 
L 223.268808 109.737713 
L 229.466061 112.94473 
L 235.663313 116.151747 
L 241.860566 119.358764 
L 248.057818 122.565781 
L 254.255071 125.772799 
L 260.452323 128.979816 
L 266.649576 132.186833 
L 272.846828 135.39385 
L 279.044081 138.600868 
L 285.241333 141.807885 
L 291.438586 145.014902 
L 297.635838 148.221919 
L 303.833091 151.428937 
L 310.030343 154.635954 
L 316.227596 157.842971 
L 322.424848 161.049988 
L 328.622101 164.257006 
L 334.819354 167.464023 
L 341.016606 170.67104 
L 347.213859 173.878057 
L 353.411111 177.085074 
L 359.608364 180.292092 
L 365.805616 183.499109 
L 372.002869 186.706126 
L 378.200121 189.913143 
L 384.397374 193.120161 
L 390.594626 196.327178 
L 396.791879 199.534195 
L 402.989131 202.741212 
L 409.186384 205.94823 
L 415.383636 209.155247 
L 421.580889 212.362264 
L 427.778141 215.569281 
L 433.975394 218.776299 
L 440.172646 221.983316 
L 446.369899 225.190333 
L 452.567152 228.39735 
L 458.764404 231.604367 
L 464.961657 234.811385 
L 471.158909 238.018402 
L 477.356162 241.225419 
L 483.553414 244.432436 
L 489.750667 247.639454 
L 495.947919 250.846471 
L 502.145172 254.053488 
L 508.342424 257.260505 
L 514.539677 260.467523 
L 520.736929 263.67454 
L 526.934182 266.881557 
L 533.131434 270.088574 
L 539.328687 273.295592 
L 545.525939 276.502609 
L 551.723192 279.709626 
L 557.920444 282.916643 
L 564.117697 286.12366 
L 570.314949 289.330678 
L 576.512202 292.537695 
L 582.709455 295.744712 
L 588.906707 298.951729 
L 595.10396 302.158747 
L 601.301212 305.365764 
L 607.498465 308.572781 
L 613.695717 311.779798 
L 619.89297 314.986816 
L 626.090222 318.193833 
L 632.287475 321.40085 
L 638.484727 324.607867 
L 644.68198 327.814885 
L 650.879232 331.021902 
L 657.076485 334.228919 
L 663.273737 337.435936 
L 669.47099 340.642954 
L 675.668242 343.849971 
L 681.865495 347.056988 
L 688.062747 350.264005 
L 694.26 353.471022 
" clip-path="url(#p9b75fb8f4c)" style="fill: none; stroke-dasharray: 9.6,2.4,1.5,2.4; stroke-dashoffset: 0; stroke: #00a6b6; stroke-width: 1.5"/>
   </g>
   <g id="line2d_40">
    <path d="M 80.732 35.364721 
L 86.929253 38.612515 
L 93.126505 41.860309 
L 99.323758 45.108104 
L 105.52101 48.355898 
L 111.718263 51.603692 
L 117.915515 54.851487 
L 124.112768 58.099281 
L 130.31002 61.347076 
L 136.507273 64.59487 
L 142.704525 67.842664 
L 148.901778 71.090459 
L 155.09903 74.338253 
L 161.296283 77.586047 
L 167.493535 80.833842 
L 173.690788 84.081636 
L 179.88804 87.329431 
L 186.085293 90.577225 
L 192.282545 93.825019 
L 198.479798 97.072814 
L 204.677051 100.320608 
L 210.874303 103.568402 
L 217.071556 106.816197 
L 223.268808 110.063991 
L 229.466061 113.311786 
L 235.663313 116.55958 
L 241.860566 119.807374 
L 248.057818 123.055169 
L 254.255071 126.302963 
L 260.452323 129.550757 
L 266.649576 132.798552 
L 272.846828 136.046346 
L 279.044081 139.294141 
L 285.241333 142.541935 
L 291.438586 145.789729 
L 297.635838 149.037524 
L 303.833091 152.285318 
L 310.030343 155.533112 
L 316.227596 158.780907 
L 322.424848 162.028701 
L 328.622101 165.276496 
L 334.819354 168.52429 
L 341.016606 171.772084 
L 347.213859 175.019879 
L 353.411111 178.267673 
L 359.608364 181.515467 
L 365.805616 184.763262 
L 372.002869 188.011056 
L 378.200121 191.258851 
L 384.397374 194.506645 
L 390.594626 197.754439 
L 396.791879 201.002234 
L 402.989131 204.250028 
L 409.186384 207.497822 
L 415.383636 210.745617 
L 421.580889 213.993411 
L 427.778141 217.241206 
L 433.975394 220.489 
L 440.172646 223.736794 
L 446.369899 226.984589 
L 452.567152 230.232383 
L 458.764404 233.480177 
L 464.961657 236.727972 
L 471.158909 239.975766 
L 477.356162 243.223561 
L 483.553414 246.471355 
L 489.750667 249.719149 
L 495.947919 252.966944 
L 502.145172 256.214738 
L 508.342424 259.462532 
L 514.539677 262.710327 
L 520.736929 265.958121 
L 526.934182 269.205916 
L 533.131434 272.45371 
L 539.328687 275.701504 
L 545.525939 278.949299 
L 551.723192 282.197093 
L 557.920444 285.444887 
L 564.117697 288.692682 
L 570.314949 291.940476 
L 576.512202 295.188271 
L 582.709455 298.436065 
L 588.906707 301.683859 
L 595.10396 304.931654 
L 601.301212 308.179448 
L 607.498465 311.427242 
L 613.695717 314.675037 
L 619.89297 317.922831 
L 626.090222 321.170626 
L 632.287475 324.41842 
L 638.484727 327.666214 
L 644.68198 330.914009 
L 650.879232 334.161803 
L 657.076485 337.409597 
L 663.273737 340.657392 
L 669.47099 343.905186 
L 675.668242 347.152981 
L 681.865495 350.400775 
L 688.062747 353.648569 
L 694.26 356.896364 
" clip-path="url(#p9b75fb8f4c)" style="fill: none; stroke-dasharray: 9.6,2.4,1.5,2.4; stroke-dashoffset: 0; stroke: #a50034; stroke-width: 1.5"/>
   </g>
   <g id="line2d_41">
    <path d="M 80.732 33.55871 
L 86.929253 36.412277 
L 93.126505 39.265843 
L 99.323758 42.119409 
L 105.52101 44.972975 
L 111.718263 47.826541 
L 117.915515 50.680107 
L 124.112768 53.533674 
L 130.31002 56.38724 
L 136.507273 59.240806 
L 142.704525 62.094372 
L 148.901778 64.947938 
L 155.09903 67.801504 
L 161.296283 70.655071 
L 167.493535 73.508637 
L 173.690788 76.362203 
L 179.88804 79.215769 
L 186.085293 82.069335 
L 192.282545 84.922901 
L 198.479798 87.776468 
L 204.677051 90.630034 
L 210.874303 93.4836 
L 217.071556 96.337166 
L 223.268808 99.190732 
L 229.466061 102.044298 
L 235.663313 104.897865 
L 241.860566 107.751431 
L 248.057818 110.604997 
L 254.255071 113.458563 
L 260.452323 116.312129 
L 266.649576 119.165695 
L 272.846828 122.019262 
L 279.044081 124.872828 
L 285.241333 127.726394 
L 291.438586 130.57996 
L 297.635838 133.433526 
L 303.833091 136.287092 
L 310.030343 139.140659 
L 316.227596 141.994225 
L 322.424848 144.847791 
L 328.622101 147.701357 
L 334.819354 150.554923 
L 341.016606 153.408489 
L 347.213859 156.262056 
L 353.411111 159.115622 
L 359.608364 161.969188 
L 365.805616 164.822754 
L 372.002869 167.67632 
L 378.200121 170.529886 
L 384.397374 173.383453 
L 390.594626 176.237019 
L 396.791879 179.090585 
L 402.989131 181.944151 
L 409.186384 184.797717 
L 415.383636 187.651283 
L 421.580889 190.50485 
L 427.778141 193.358416 
L 433.975394 196.211982 
L 440.172646 199.065548 
L 446.369899 201.919114 
L 452.567152 204.77268 
L 458.764404 207.626247 
L 464.961657 210.479813 
L 471.158909 213.333379 
L 477.356162 216.186945 
L 483.553414 219.040511 
L 489.750667 221.894077 
L 495.947919 224.747644 
L 502.145172 227.60121 
L 508.342424 230.454776 
L 514.539677 233.308342 
L 520.736929 236.161908 
L 526.934182 239.015474 
L 533.131434 241.869041 
L 539.328687 244.722607 
L 545.525939 247.576173 
L 551.723192 250.429739 
L 557.920444 253.283305 
L 564.117697 256.136871 
L 570.314949 258.990438 
L 576.512202 261.844004 
L 582.709455 264.69757 
L 588.906707 267.551136 
L 595.10396 270.404702 
L 601.301212 273.258268 
L 607.498465 276.111835 
L 613.695717 278.965401 
L 619.89297 281.818967 
L 626.090222 284.672533 
L 632.287475 287.526099 
L 638.484727 290.379665 
L 644.68198 293.233232 
L 650.879232 296.086798 
L 657.076485 298.940364 
L 663.273737 301.79393 
L 669.47099 304.647496 
L 675.668242 307.501062 
L 681.865495 310.354629 
L 688.062747 313.208195 
L 694.26 316.061761 
" clip-path="url(#p9b75fb8f4c)" style="fill: none; stroke-dasharray: 9.6,2.4,1.5,2.4; stroke-dashoffset: 0; stroke: #ef60a3; stroke-width: 1.5"/>
   </g>
   <g id="line2d_42">
    <path d="M 80.732 32.423636 
L 86.929253 35.325823 
L 93.126505 38.22801 
L 99.323758 41.130197 
L 105.52101 44.032383 
L 111.718263 46.93457 
L 117.915515 49.836757 
L 124.112768 52.738943 
L 130.31002 55.64113 
L 136.507273 58.543317 
L 142.704525 61.445504 
L 148.901778 64.34769 
L 155.09903 67.249877 
L 161.296283 70.152064 
L 167.493535 73.05425 
L 173.690788 75.956437 
L 179.88804 78.858624 
L 186.085293 81.760811 
L 192.282545 84.662997 
L 198.479798 87.565184 
L 204.677051 90.467371 
L 210.874303 93.369557 
L 217.071556 96.271744 
L 223.268808 99.173931 
L 229.466061 102.076118 
L 235.663313 104.978304 
L 241.860566 107.880491 
L 248.057818 110.782678 
L 254.255071 113.684865 
L 260.452323 116.587051 
L 266.649576 119.489238 
L 272.846828 122.391425 
L 279.044081 125.293611 
L 285.241333 128.195798 
L 291.438586 131.097985 
L 297.635838 134.000172 
L 303.833091 136.902358 
L 310.030343 139.804545 
L 316.227596 142.706732 
L 322.424848 145.608918 
L 328.622101 148.511105 
L 334.819354 151.413292 
L 341.016606 154.315479 
L 347.213859 157.217665 
L 353.411111 160.119852 
L 359.608364 163.022039 
L 365.805616 165.924225 
L 372.002869 168.826412 
L 378.200121 171.728599 
L 384.397374 174.630786 
L 390.594626 177.532972 
L 396.791879 180.435159 
L 402.989131 183.337346 
L 409.186384 186.239533 
L 415.383636 189.141719 
L 421.580889 192.043906 
L 427.778141 194.946093 
L 433.975394 197.848279 
L 440.172646 200.750466 
L 446.369899 203.652653 
L 452.567152 206.55484 
L 458.764404 209.457026 
L 464.961657 212.359213 
L 471.158909 215.2614 
L 477.356162 218.163586 
L 483.553414 221.065773 
L 489.750667 223.96796 
L 495.947919 226.870147 
L 502.145172 229.772333 
L 508.342424 232.67452 
L 514.539677 235.576707 
L 520.736929 238.478893 
L 526.934182 241.38108 
L 533.131434 244.283267 
L 539.328687 247.185454 
L 545.525939 250.08764 
L 551.723192 252.989827 
L 557.920444 255.892014 
L 564.117697 258.794201 
L 570.314949 261.696387 
L 576.512202 264.598574 
L 582.709455 267.500761 
L 588.906707 270.402947 
L 595.10396 273.305134 
L 601.301212 276.207321 
L 607.498465 279.109508 
L 613.695717 282.011694 
L 619.89297 284.913881 
L 626.090222 287.816068 
L 632.287475 290.718254 
L 638.484727 293.620441 
L 644.68198 296.522628 
L 650.879232 299.424815 
L 657.076485 302.327001 
L 663.273737 305.229188 
L 669.47099 308.131375 
L 675.668242 311.033561 
L 681.865495 313.935748 
L 688.062747 316.837935 
L 694.26 319.740122 
" clip-path="url(#p9b75fb8f4c)" style="fill: none; stroke-dasharray: 9.6,2.4,1.5,2.4; stroke-dashoffset: 0; stroke: #6cc24a; stroke-width: 1.5"/>
   </g>
   <g id="patch_3">
    <path d="M 80.732 373.12 
L 80.732 16.2 
" style="fill: none; stroke: #000000; stroke-width: 0.8; stroke-linejoin: miter; stroke-linecap: square"/>
   </g>
   <g id="patch_4">
    <path d="M 694.26 373.12 
L 694.26 16.2 
" style="fill: none; stroke: #000000; stroke-width: 0.8; stroke-linejoin: miter; stroke-linecap: square"/>
   </g>
   <g id="patch_5">
    <path d="M 80.732 373.12 
L 694.26 373.12 
" style="fill: none; stroke: #000000; stroke-width: 0.8; stroke-linejoin: miter; stroke-linecap: square"/>
   </g>
   <g id="patch_6">
    <path d="M 80.732 16.2 
L 694.26 16.2 
" style="fill: none; stroke: #000000; stroke-width: 0.8; stroke-linejoin: miter; stroke-linecap: square"/>
   </g>
   <g id="legend_1">
    <g id="patch_7">
     <path d="M 498.390469 116.26875 
L 683.76 116.26875 
Q 686.76 116.26875 686.76 113.26875 
L 686.76 26.7 
Q 686.76 23.7 683.76 23.7 
L 498.390469 23.7 
Q 495.390469 23.7 495.390469 26.7 
L 495.390469 113.26875 
Q 495.390469 116.26875 498.390469 116.26875 
z
" style="fill: #ffffff; opacity: 0.8; stroke: #cccccc; stroke-linejoin: miter"/>
    </g>
    <g id="line2d_43">
     <path d="M 501.390469 35.847656 
L 516.390469 35.847656 
L 531.390469 35.847656 
" style="fill: none; stroke-dasharray: 9.6,2.4,1.5,2.4; stroke-dashoffset: 0; stroke: #00a6b6; stroke-width: 1.5"/>
    </g>
    <g id="text_22">
     <!-- Uncorrected J=1.8 -->
     <g transform="translate(543.390469 41.097656) scale(0.15 -0.15)">
      <defs>
       <path id="DejaVuSans-55" d="M 556 4666 
L 1191 4666 
L 1191 1831 
Q 1191 1081 1462 751 
Q 1734 422 2344 422 
Q 2950 422 3222 751 
Q 3494 1081 3494 1831 
L 3494 4666 
L 4128 4666 
L 4128 1753 
Q 4128 841 3676 375 
Q 3225 -91 2344 -91 
Q 1459 -91 1007 375 
Q 556 841 556 1753 
L 556 4666 
z
" transform="scale(0.015625)"/>
       <path id="DejaVuSans-6e" d="M 3513 2113 
L 3513 0 
L 2938 0 
L 2938 2094 
Q 2938 2591 2744 2837 
Q 2550 3084 2163 3084 
Q 1697 3084 1428 2787 
Q 1159 2491 1159 1978 
L 1159 0 
L 581 0 
L 581 3500 
L 1159 3500 
L 1159 2956 
Q 1366 3272 1645 3428 
Q 1925 3584 2291 3584 
Q 2894 3584 3203 3211 
Q 3513 2838 3513 2113 
z
" transform="scale(0.015625)"/>
       <path id="DejaVuSans-63" d="M 3122 3366 
L 3122 2828 
Q 2878 2963 2633 3030 
Q 2388 3097 2138 3097 
Q 1578 3097 1268 2742 
Q 959 2388 959 1747 
Q 959 1106 1268 751 
Q 1578 397 2138 397 
Q 2388 397 2633 464 
Q 2878 531 3122 666 
L 3122 134 
Q 2881 22 2623 -34 
Q 2366 -91 2075 -91 
Q 1284 -91 818 406 
Q 353 903 353 1747 
Q 353 2603 823 3093 
Q 1294 3584 2113 3584 
Q 2378 3584 2631 3529 
Q 2884 3475 3122 3366 
z
" transform="scale(0.015625)"/>
       <path id="DejaVuSans-6f" d="M 1959 3097 
Q 1497 3097 1228 2736 
Q 959 2375 959 1747 
Q 959 1119 1226 758 
Q 1494 397 1959 397 
Q 2419 397 2687 759 
Q 2956 1122 2956 1747 
Q 2956 2369 2687 2733 
Q 2419 3097 1959 3097 
z
M 1959 3584 
Q 2709 3584 3137 3096 
Q 3566 2609 3566 1747 
Q 3566 888 3137 398 
Q 2709 -91 1959 -91 
Q 1206 -91 779 398 
Q 353 888 353 1747 
Q 353 2609 779 3096 
Q 1206 3584 1959 3584 
z
" transform="scale(0.015625)"/>
       <path id="DejaVuSans-72" d="M 2631 2963 
Q 2534 3019 2420 3045 
Q 2306 3072 2169 3072 
Q 1681 3072 1420 2755 
Q 1159 2438 1159 1844 
L 1159 0 
L 581 0 
L 581 3500 
L 1159 3500 
L 1159 2956 
Q 1341 3275 1631 3429 
Q 1922 3584 2338 3584 
Q 2397 3584 2469 3576 
Q 2541 3569 2628 3553 
L 2631 2963 
z
" transform="scale(0.015625)"/>
       <path id="DejaVuSans-74" d="M 1172 4494 
L 1172 3500 
L 2356 3500 
L 2356 3053 
L 1172 3053 
L 1172 1153 
Q 1172 725 1289 603 
Q 1406 481 1766 481 
L 2356 481 
L 2356 0 
L 1766 0 
Q 1100 0 847 248 
Q 594 497 594 1153 
L 594 3053 
L 172 3053 
L 172 3500 
L 594 3500 
L 594 4494 
L 1172 4494 
z
" transform="scale(0.015625)"/>
       <path id="DejaVuSans-4a" d="M 628 4666 
L 1259 4666 
L 1259 325 
Q 1259 -519 939 -900 
Q 619 -1281 -91 -1281 
L -331 -1281 
L -331 -750 
L -134 -750 
Q 284 -750 456 -515 
Q 628 -281 628 325 
L 628 4666 
z
" transform="scale(0.015625)"/>
       <path id="DejaVuSans-3d" d="M 678 2906 
L 4684 2906 
L 4684 2381 
L 678 2381 
L 678 2906 
z
M 678 1631 
L 4684 1631 
L 4684 1100 
L 678 1100 
L 678 1631 
z
" transform="scale(0.015625)"/>
      </defs>
      <use xlink:href="#DejaVuSans-55"/>
      <use xlink:href="#DejaVuSans-6e" x="73.193359"/>
      <use xlink:href="#DejaVuSans-63" x="136.572266"/>
      <use xlink:href="#DejaVuSans-6f" x="191.552734"/>
      <use xlink:href="#DejaVuSans-72" x="252.734375"/>
      <use xlink:href="#DejaVuSans-72" x="292.097656"/>
      <use xlink:href="#DejaVuSans-65" x="330.960938"/>
      <use xlink:href="#DejaVuSans-63" x="392.484375"/>
      <use xlink:href="#DejaVuSans-74" x="447.464844"/>
      <use xlink:href="#DejaVuSans-65" x="486.673828"/>
      <use xlink:href="#DejaVuSans-64" x="548.197266"/>
      <use xlink:href="#DejaVuSans-20" x="611.673828"/>
      <use xlink:href="#DejaVuSans-4a" x="643.460938"/>
      <use xlink:href="#DejaVuSans-3d" x="672.953125"/>
      <use xlink:href="#DejaVuSans-31" x="756.742188"/>
      <use xlink:href="#DejaVuSans-2e" x="820.365234"/>
      <use xlink:href="#DejaVuSans-38" x="852.152344"/>
     </g>
    </g>
    <g id="line2d_44">
     <path d="M 501.390469 57.864844 
L 516.390469 57.864844 
L 531.390469 57.864844 
" style="fill: none; stroke-dasharray: 9.6,2.4,1.5,2.4; stroke-dashoffset: 0; stroke: #a50034; stroke-width: 1.5"/>
    </g>
    <g id="text_23">
     <!-- Corrected J=1.8 -->
     <g transform="translate(543.390469 63.114844) scale(0.15 -0.15)">
      <defs>
       <path id="DejaVuSans-43" d="M 4122 4306 
L 4122 3641 
Q 3803 3938 3442 4084 
Q 3081 4231 2675 4231 
Q 1875 4231 1450 3742 
Q 1025 3253 1025 2328 
Q 1025 1406 1450 917 
Q 1875 428 2675 428 
Q 3081 428 3442 575 
Q 3803 722 4122 1019 
L 4122 359 
Q 3791 134 3420 21 
Q 3050 -91 2638 -91 
Q 1578 -91 968 557 
Q 359 1206 359 2328 
Q 359 3453 968 4101 
Q 1578 4750 2638 4750 
Q 3056 4750 3426 4639 
Q 3797 4528 4122 4306 
z
" transform="scale(0.015625)"/>
      </defs>
      <use xlink:href="#DejaVuSans-43"/>
      <use xlink:href="#DejaVuSans-6f" x="69.824219"/>
      <use xlink:href="#DejaVuSans-72" x="131.005859"/>
      <use xlink:href="#DejaVuSans-72" x="170.369141"/>
      <use xlink:href="#DejaVuSans-65" x="209.232422"/>
      <use xlink:href="#DejaVuSans-63" x="270.755859"/>
      <use xlink:href="#DejaVuSans-74" x="325.736328"/>
      <use xlink:href="#DejaVuSans-65" x="364.945312"/>
      <use xlink:href="#DejaVuSans-64" x="426.46875"/>
      <use xlink:href="#DejaVuSans-20" x="489.945312"/>
      <use xlink:href="#DejaVuSans-4a" x="521.732422"/>
      <use xlink:href="#DejaVuSans-3d" x="551.224609"/>
      <use xlink:href="#DejaVuSans-31" x="635.013672"/>
      <use xlink:href="#DejaVuSans-2e" x="698.636719"/>
      <use xlink:href="#DejaVuSans-38" x="730.423828"/>
     </g>
    </g>
    <g id="line2d_45">
     <path d="M 501.390469 79.882031 
L 516.390469 79.882031 
L 531.390469 79.882031 
" style="fill: none; stroke-dasharray: 9.6,2.4,1.5,2.4; stroke-dashoffset: 0; stroke: #ef60a3; stroke-width: 1.5"/>
    </g>
    <g id="text_24">
     <!-- Uncorrected J=3.5 -->
     <g transform="translate(543.390469 85.132031) scale(0.15 -0.15)">
      <defs>
       <path id="DejaVuSans-33" d="M 2597 2516 
Q 3050 2419 3304 2112 
Q 3559 1806 3559 1356 
Q 3559 666 3084 287 
Q 2609 -91 1734 -91 
Q 1441 -91 1130 -33 
Q 819 25 488 141 
L 488 750 
Q 750 597 1062 519 
Q 1375 441 1716 441 
Q 2309 441 2620 675 
Q 2931 909 2931 1356 
Q 2931 1769 2642 2001 
Q 2353 2234 1838 2234 
L 1294 2234 
L 1294 2753 
L 1863 2753 
Q 2328 2753 2575 2939 
Q 2822 3125 2822 3475 
Q 2822 3834 2567 4026 
Q 2313 4219 1838 4219 
Q 1578 4219 1281 4162 
Q 984 4106 628 3988 
L 628 4550 
Q 988 4650 1302 4700 
Q 1616 4750 1894 4750 
Q 2613 4750 3031 4423 
Q 3450 4097 3450 3541 
Q 3450 3153 3228 2886 
Q 3006 2619 2597 2516 
z
" transform="scale(0.015625)"/>
      </defs>
      <use xlink:href="#DejaVuSans-55"/>
      <use xlink:href="#DejaVuSans-6e" x="73.193359"/>
      <use xlink:href="#DejaVuSans-63" x="136.572266"/>
      <use xlink:href="#DejaVuSans-6f" x="191.552734"/>
      <use xlink:href="#DejaVuSans-72" x="252.734375"/>
      <use xlink:href="#DejaVuSans-72" x="292.097656"/>
      <use xlink:href="#DejaVuSans-65" x="330.960938"/>
      <use xlink:href="#DejaVuSans-63" x="392.484375"/>
      <use xlink:href="#DejaVuSans-74" x="447.464844"/>
      <use xlink:href="#DejaVuSans-65" x="486.673828"/>
      <use xlink:href="#DejaVuSans-64" x="548.197266"/>
      <use xlink:href="#DejaVuSans-20" x="611.673828"/>
      <use xlink:href="#DejaVuSans-4a" x="643.460938"/>
      <use xlink:href="#DejaVuSans-3d" x="672.953125"/>
      <use xlink:href="#DejaVuSans-33" x="756.742188"/>
      <use xlink:href="#DejaVuSans-2e" x="820.365234"/>
      <use xlink:href="#DejaVuSans-35" x="852.152344"/>
     </g>
    </g>
    <g id="line2d_46">
     <path d="M 501.390469 101.899219 
L 516.390469 101.899219 
L 531.390469 101.899219 
" style="fill: none; stroke-dasharray: 9.6,2.4,1.5,2.4; stroke-dashoffset: 0; stroke: #6cc24a; stroke-width: 1.5"/>
    </g>
    <g id="text_25">
     <!-- Corrected J=3.5 -->
     <g transform="translate(543.390469 107.149219) scale(0.15 -0.15)">
      <use xlink:href="#DejaVuSans-43"/>
      <use xlink:href="#DejaVuSans-6f" x="69.824219"/>
      <use xlink:href="#DejaVuSans-72" x="131.005859"/>
      <use xlink:href="#DejaVuSans-72" x="170.369141"/>
      <use xlink:href="#DejaVuSans-65" x="209.232422"/>
      <use xlink:href="#DejaVuSans-63" x="270.755859"/>
      <use xlink:href="#DejaVuSans-74" x="325.736328"/>
      <use xlink:href="#DejaVuSans-65" x="364.945312"/>
      <use xlink:href="#DejaVuSans-64" x="426.46875"/>
      <use xlink:href="#DejaVuSans-20" x="489.945312"/>
      <use xlink:href="#DejaVuSans-4a" x="521.732422"/>
      <use xlink:href="#DejaVuSans-3d" x="551.224609"/>
      <use xlink:href="#DejaVuSans-33" x="635.013672"/>
      <use xlink:href="#DejaVuSans-2e" x="698.636719"/>
      <use xlink:href="#DejaVuSans-35" x="730.423828"/>
     </g>
    </g>
   </g>
  </g>
 </g>
 <defs>
  <clipPath id="p9b75fb8f4c">
   <rect x="80.732" y="16.2" width="613.528" height="356.92"/>
  </clipPath>
 </defs>
</svg>
