<?xml version="1.0" encoding="utf-8" standalone="no"?>
<!DOCTYPE svg PUBLIC "-//W3C//DTD SVG 1.1//EN"
  "http://www.w3.org/Graphics/SVG/1.1/DTD/svg11.dtd">
<svg xmlns:xlink="http://www.w3.org/1999/xlink" width="576pt" height="432pt" viewBox="0 0 576 432" xmlns="http://www.w3.org/2000/svg" version="1.1">
 <metadata>
  <rdf:RDF xmlns:dc="http://purl.org/dc/elements/1.1/" xmlns:cc="http://creativecommons.org/ns#" xmlns:rdf="http://www.w3.org/1999/02/22-rdf-syntax-ns#">
   <cc:Work>
    <dc:type rdf:resource="http://purl.org/dc/dcmitype/StillImage"/>
    <dc:date>2024-04-03T11:45:37.608673</dc:date>
    <dc:format>image/svg+xml</dc:format>
    <dc:creator>
     <cc:Agent>
      <dc:title>Matplotlib v3.8.0, https://matplotlib.org/</dc:title>
     </cc:Agent>
    </dc:creator>
   </cc:Work>
  </rdf:RDF>
 </metadata>
 <defs>
  <style type="text/css">*{stroke-linejoin: round; stroke-linecap: butt}</style>
 </defs>
 <g id="figure_1">
  <g id="patch_1">
   <path d="M 0 432 
L 576 432 
L 576 0 
L 0 0 
z
" style="fill: #ffffff"/>
  </g>
  <g id="axes_1">
   <g id="patch_2">
    <path d="M 99.506 356.2 
L 541.665 356.2 
L 541.665 28.605796 
L 99.506 28.605796 
z
" style="fill: #ffffff"/>
   </g>
   <g id="PathCollection_1">
    <defs>
     <path id="ma5baec18dd" d="M 0 3 
C 0.795609 3 1.55874 2.683901 2.12132 2.12132 
C 2.683901 1.55874 3 0.795609 3 0 
C 3 -0.795609 2.683901 -1.55874 2.12132 -2.12132 
C 1.55874 -2.683901 0.795609 -3 0 -3 
C -0.795609 -3 -1.55874 -2.683901 -2.12132 -2.12132 
C -2.683901 -1.55874 -3 -0.795609 -3 0 
C -3 0.795609 -2.683901 1.55874 -2.12132 2.12132 
C -1.55874 2.683901 -0.795609 3 0 3 
z
" style="stroke: #00a6b6"/>
    </defs>
    <g clip-path="url(#pa9f7ad8259)">
     <use xlink:href="#ma5baec18dd" x="173.199167" y="333.329259" style="fill: #00a6b6; stroke: #00a6b6"/>
     <use xlink:href="#ma5baec18dd" x="350.062767" y="312.7505" style="fill: #00a6b6; stroke: #00a6b6"/>
     <use xlink:href="#ma5baec18dd" x="423.755933" y="249.322294" style="fill: #00a6b6; stroke: #00a6b6"/>
     <use xlink:href="#ma5baec18dd" x="453.2332" y="211.072549" style="fill: #00a6b6; stroke: #00a6b6"/>
    </g>
   </g>
   <g id="PathCollection_2">
    <defs>
     <path id="m346b9ffc62" d="M 0 3 
C 0.795609 3 1.55874 2.683901 2.12132 2.12132 
C 2.683901 1.55874 3 0.795609 3 0 
C 3 -0.795609 2.683901 -1.55874 2.12132 -2.12132 
C 1.55874 -2.683901 0.795609 -3 0 -3 
C -0.795609 -3 -1.55874 -2.683901 -2.12132 -2.12132 
C -2.683901 -1.55874 -3 -0.795609 -3 0 
C -3 0.795609 -2.683901 1.55874 -2.12132 2.12132 
C -1.55874 2.683901 -0.795609 3 0 3 
z
" style="stroke: #a50034"/>
    </defs>
    <g clip-path="url(#pa9f7ad8259)">
     <use xlink:href="#m346b9ffc62" x="173.188449" y="333.60957" style="fill: #a50034; stroke: #a50034"/>
     <use xlink:href="#m346b9ffc62" x="350.116353" y="310.617868" style="fill: #a50034; stroke: #a50034"/>
     <use xlink:href="#m346b9ffc62" x="423.820501" y="247.406056" style="fill: #a50034; stroke: #a50034"/>
     <use xlink:href="#m346b9ffc62" x="453.302955" y="209.930595" style="fill: #a50034; stroke: #a50034"/>
    </g>
   </g>
   <g id="PathCollection_3">
    <defs>
     <path id="m7f833eaf2e" d="M 0 3 
C 0.795609 3 1.55874 2.683901 2.12132 2.12132 
C 2.683901 1.55874 3 0.795609 3 0 
C 3 -0.795609 2.683901 -1.55874 2.12132 -2.12132 
C 1.55874 -2.683901 0.795609 -3 0 -3 
C -0.795609 -3 -1.55874 -2.683901 -2.12132 -2.12132 
C -2.683901 -1.55874 -3 -0.795609 -3 0 
C -3 0.795609 -2.683901 1.55874 -2.12132 2.12132 
C -1.55874 2.683901 -0.795609 3 0 3 
z
" style="stroke: #ef60a3"/>
    </defs>
    <g clip-path="url(#pa9f7ad8259)">
     <use xlink:href="#m7f833eaf2e" x="173.199167" y="333.329259" style="fill: #ef60a3; stroke: #ef60a3"/>
     <use xlink:href="#m7f833eaf2e" x="246.892333" y="341.142614" style="fill: #ef60a3; stroke: #ef60a3"/>
     <use xlink:href="#m7f833eaf2e" x="350.062767" y="312.7505" style="fill: #ef60a3; stroke: #ef60a3"/>
     <use xlink:href="#m7f833eaf2e" x="423.755933" y="249.322294" style="fill: #ef60a3; stroke: #ef60a3"/>
     <use xlink:href="#m7f833eaf2e" x="453.2332" y="211.072549" style="fill: #ef60a3; stroke: #ef60a3"/>
    </g>
   </g>
   <g id="PathCollection_4">
    <defs>
     <path id="m4b8c91e520" d="M 0 3 
C 0.795609 3 1.55874 2.683901 2.12132 2.12132 
C 2.683901 1.55874 3 0.795609 3 0 
C 3 -0.795609 2.683901 -1.55874 2.12132 -2.12132 
C 1.55874 -2.683901 0.795609 -3 0 -3 
C -0.795609 -3 -1.55874 -2.683901 -2.12132 -2.12132 
C -2.683901 -1.55874 -3 -0.795609 -3 0 
C -3 0.795609 -2.683901 1.55874 -2.12132 2.12132 
C -1.55874 2.683901 -0.795609 3 0 3 
z
" style="stroke: #6cc24a"/>
    </defs>
    <g clip-path="url(#pa9f7ad8259)">
     <use xlink:href="#m4b8c91e520" x="173.188449" y="333.624522" style="fill: #6cc24a; stroke: #6cc24a"/>
     <use xlink:href="#m4b8c91e520" x="246.910193" y="341.137066" style="fill: #6cc24a; stroke: #6cc24a"/>
     <use xlink:href="#m4b8c91e520" x="350.116353" y="310.615412" style="fill: #6cc24a; stroke: #6cc24a"/>
     <use xlink:href="#m4b8c91e520" x="423.820501" y="247.2972" style="fill: #6cc24a; stroke: #6cc24a"/>
     <use xlink:href="#m4b8c91e520" x="453.302955" y="209.577742" style="fill: #6cc24a; stroke: #6cc24a"/>
    </g>
   </g>
   <g id="matplotlib.axis_1">
    <g id="xtick_1">
     <g id="line2d_1">
      <path d="M 99.506 356.2 
L 99.506 28.605796 
" clip-path="url(#pa9f7ad8259)" style="fill: none; stroke: #b0b0b0; stroke-width: 0.8; stroke-linecap: square"/>
     </g>
     <g id="line2d_2">
      <defs>
       <path id="m506a63bf95" d="M 0 0 
L 0 3.5 
" style="stroke: #000000; stroke-width: 0.8"/>
      </defs>
      <g>
       <use xlink:href="#m506a63bf95" x="99.506" y="356.2" style="stroke: #000000; stroke-width: 0.8"/>
      </g>
     </g>
     <g id="text_1">
      <!-- −10 -->
      <g transform="translate(78.401313 378.396875) scale(0.2 -0.2)">
       <defs>
        <path id="DejaVuSans-2212" d="M 678 2272 
L 4684 2272 
L 4684 1741 
L 678 1741 
L 678 2272 
z
" transform="scale(0.015625)"/>
        <path id="DejaVuSans-31" d="M 794 531 
L 1825 531 
L 1825 4091 
L 703 3866 
L 703 4441 
L 1819 4666 
L 2450 4666 
L 2450 531 
L 3481 531 
L 3481 0 
L 794 0 
L 794 531 
z
" transform="scale(0.015625)"/>
        <path id="DejaVuSans-30" d="M 2034 4250 
Q 1547 4250 1301 3770 
Q 1056 3291 1056 2328 
Q 1056 1369 1301 889 
Q 1547 409 2034 409 
Q 2525 409 2770 889 
Q 3016 1369 3016 2328 
Q 3016 3291 2770 3770 
Q 2525 4250 2034 4250 
z
M 2034 4750 
Q 2819 4750 3233 4129 
Q 3647 3509 3647 2328 
Q 3647 1150 3233 529 
Q 2819 -91 2034 -91 
Q 1250 -91 836 529 
Q 422 1150 422 2328 
Q 422 3509 836 4129 
Q 1250 4750 2034 4750 
z
" transform="scale(0.015625)"/>
       </defs>
       <use xlink:href="#DejaVuSans-2212"/>
       <use xlink:href="#DejaVuSans-31" x="83.789062"/>
       <use xlink:href="#DejaVuSans-30" x="147.412109"/>
      </g>
     </g>
    </g>
    <g id="xtick_2">
     <g id="line2d_3">
      <path d="M 173.199167 356.2 
L 173.199167 28.605796 
" clip-path="url(#pa9f7ad8259)" style="fill: none; stroke: #b0b0b0; stroke-width: 0.8; stroke-linecap: square"/>
     </g>
     <g id="line2d_4">
      <g>
       <use xlink:href="#m506a63bf95" x="173.199167" y="356.2" style="stroke: #000000; stroke-width: 0.8"/>
      </g>
     </g>
     <g id="text_2">
      <!-- −5 -->
      <g transform="translate(158.456979 378.396875) scale(0.2 -0.2)">
       <defs>
        <path id="DejaVuSans-35" d="M 691 4666 
L 3169 4666 
L 3169 4134 
L 1269 4134 
L 1269 2991 
Q 1406 3038 1543 3061 
Q 1681 3084 1819 3084 
Q 2600 3084 3056 2656 
Q 3513 2228 3513 1497 
Q 3513 744 3044 326 
Q 2575 -91 1722 -91 
Q 1428 -91 1123 -41 
Q 819 9 494 109 
L 494 744 
Q 775 591 1075 516 
Q 1375 441 1709 441 
Q 2250 441 2565 725 
Q 2881 1009 2881 1497 
Q 2881 1984 2565 2268 
Q 2250 2553 1709 2553 
Q 1456 2553 1204 2497 
Q 953 2441 691 2322 
L 691 4666 
z
" transform="scale(0.015625)"/>
       </defs>
       <use xlink:href="#DejaVuSans-2212"/>
       <use xlink:href="#DejaVuSans-35" x="83.789062"/>
      </g>
     </g>
    </g>
    <g id="xtick_3">
     <g id="line2d_5">
      <path d="M 246.892333 356.2 
L 246.892333 28.605796 
" clip-path="url(#pa9f7ad8259)" style="fill: none; stroke: #b0b0b0; stroke-width: 0.8; stroke-linecap: square"/>
     </g>
     <g id="line2d_6">
      <g>
       <use xlink:href="#m506a63bf95" x="246.892333" y="356.2" style="stroke: #000000; stroke-width: 0.8"/>
      </g>
     </g>
     <g id="text_3">
      <!-- 0 -->
      <g transform="translate(240.529833 378.396875) scale(0.2 -0.2)">
       <use xlink:href="#DejaVuSans-30"/>
      </g>
     </g>
    </g>
    <g id="xtick_4">
     <g id="line2d_7">
      <path d="M 320.5855 356.2 
L 320.5855 28.605796 
" clip-path="url(#pa9f7ad8259)" style="fill: none; stroke: #b0b0b0; stroke-width: 0.8; stroke-linecap: square"/>
     </g>
     <g id="line2d_8">
      <g>
       <use xlink:href="#m506a63bf95" x="320.5855" y="356.2" style="stroke: #000000; stroke-width: 0.8"/>
      </g>
     </g>
     <g id="text_4">
      <!-- 5 -->
      <g transform="translate(314.223 378.396875) scale(0.2 -0.2)">
       <use xlink:href="#DejaVuSans-35"/>
      </g>
     </g>
    </g>
    <g id="xtick_5">
     <g id="line2d_9">
      <path d="M 394.278667 356.2 
L 394.278667 28.605796 
" clip-path="url(#pa9f7ad8259)" style="fill: none; stroke: #b0b0b0; stroke-width: 0.8; stroke-linecap: square"/>
     </g>
     <g id="line2d_10">
      <g>
       <use xlink:href="#m506a63bf95" x="394.278667" y="356.2" style="stroke: #000000; stroke-width: 0.8"/>
      </g>
     </g>
     <g id="text_5">
      <!-- 10 -->
      <g transform="translate(381.553667 378.396875) scale(0.2 -0.2)">
       <use xlink:href="#DejaVuSans-31"/>
       <use xlink:href="#DejaVuSans-30" x="63.623047"/>
      </g>
     </g>
    </g>
    <g id="xtick_6">
     <g id="line2d_11">
      <path d="M 467.971833 356.2 
L 467.971833 28.605796 
" clip-path="url(#pa9f7ad8259)" style="fill: none; stroke: #b0b0b0; stroke-width: 0.8; stroke-linecap: square"/>
     </g>
     <g id="line2d_12">
      <g>
       <use xlink:href="#m506a63bf95" x="467.971833" y="356.2" style="stroke: #000000; stroke-width: 0.8"/>
      </g>
     </g>
     <g id="text_6">
      <!-- 15 -->
      <g transform="translate(455.246833 378.396875) scale(0.2 -0.2)">
       <use xlink:href="#DejaVuSans-31"/>
       <use xlink:href="#DejaVuSans-35" x="63.623047"/>
      </g>
     </g>
    </g>
    <g id="xtick_7">
     <g id="line2d_13">
      <path d="M 541.665 356.2 
L 541.665 28.605796 
" clip-path="url(#pa9f7ad8259)" style="fill: none; stroke: #b0b0b0; stroke-width: 0.8; stroke-linecap: square"/>
     </g>
     <g id="line2d_14">
      <g>
       <use xlink:href="#m506a63bf95" x="541.665" y="356.2" style="stroke: #000000; stroke-width: 0.8"/>
      </g>
     </g>
     <g id="text_7">
      <!-- 20 -->
      <g transform="translate(528.94 378.396875) scale(0.2 -0.2)">
       <defs>
        <path id="DejaVuSans-32" d="M 1228 531 
L 3431 531 
L 3431 0 
L 469 0 
L 469 531 
Q 828 903 1448 1529 
Q 2069 2156 2228 2338 
Q 2531 2678 2651 2914 
Q 2772 3150 2772 3378 
Q 2772 3750 2511 3984 
Q 2250 4219 1831 4219 
Q 1534 4219 1204 4116 
Q 875 4013 500 3803 
L 500 4441 
Q 881 4594 1212 4672 
Q 1544 4750 1819 4750 
Q 2544 4750 2975 4387 
Q 3406 4025 3406 3419 
Q 3406 3131 3298 2873 
Q 3191 2616 2906 2266 
Q 2828 2175 2409 1742 
Q 1991 1309 1228 531 
z
" transform="scale(0.015625)"/>
       </defs>
       <use xlink:href="#DejaVuSans-32"/>
       <use xlink:href="#DejaVuSans-30" x="63.623047"/>
      </g>
     </g>
    </g>
    <g id="text_8">
     <!-- $\alpha$ [deg] -->
     <g transform="translate(284.0855 401.75625) scale(0.2 -0.2)">
      <defs>
       <path id="DejaVuSans-Oblique-3b1" d="M 2619 1628 
L 2622 2350 
Q 2625 3088 2069 3091 
Q 1653 3094 1394 2747 
Q 1069 2319 959 1747 
Q 825 1059 994 731 
Q 1169 397 1547 397 
Q 1966 397 2319 1063 
L 2619 1628 
z
M 2166 3578 
Q 3141 3594 3128 2584 
Q 3128 2584 3616 3500 
L 4128 3500 
L 3119 1603 
L 3109 919 
Q 3109 766 3194 638 
Q 3291 488 3391 488 
L 3669 488 
L 3575 0 
L 3228 0 
Q 2934 0 2722 263 
Q 2622 394 2619 669 
Q 2416 334 2066 50 
Q 1900 -81 1453 -78 
Q 722 -72 456 397 
Q 184 884 353 1747 
Q 534 2675 1009 3097 
Q 1544 3569 2166 3578 
z
" transform="scale(0.015625)"/>
       <path id="DejaVuSans-20" transform="scale(0.015625)"/>
       <path id="DejaVuSans-5b" d="M 550 4863 
L 1875 4863 
L 1875 4416 
L 1125 4416 
L 1125 -397 
L 1875 -397 
L 1875 -844 
L 550 -844 
L 550 4863 
z
" transform="scale(0.015625)"/>
       <path id="DejaVuSans-64" d="M 2906 2969 
L 2906 4863 
L 3481 4863 
L 3481 0 
L 2906 0 
L 2906 525 
Q 2725 213 2448 61 
Q 2172 -91 1784 -91 
Q 1150 -91 751 415 
Q 353 922 353 1747 
Q 353 2572 751 3078 
Q 1150 3584 1784 3584 
Q 2172 3584 2448 3432 
Q 2725 3281 2906 2969 
z
M 947 1747 
Q 947 1113 1208 752 
Q 1469 391 1925 391 
Q 2381 391 2643 752 
Q 2906 1113 2906 1747 
Q 2906 2381 2643 2742 
Q 2381 3103 1925 3103 
Q 1469 3103 1208 2742 
Q 947 2381 947 1747 
z
" transform="scale(0.015625)"/>
       <path id="DejaVuSans-65" d="M 3597 1894 
L 3597 1613 
L 953 1613 
Q 991 1019 1311 708 
Q 1631 397 2203 397 
Q 2534 397 2845 478 
Q 3156 559 3463 722 
L 3463 178 
Q 3153 47 2828 -22 
Q 2503 -91 2169 -91 
Q 1331 -91 842 396 
Q 353 884 353 1716 
Q 353 2575 817 3079 
Q 1281 3584 2069 3584 
Q 2775 3584 3186 3129 
Q 3597 2675 3597 1894 
z
M 3022 2063 
Q 3016 2534 2758 2815 
Q 2500 3097 2075 3097 
Q 1594 3097 1305 2825 
Q 1016 2553 972 2059 
L 3022 2063 
z
" transform="scale(0.015625)"/>
       <path id="DejaVuSans-67" d="M 2906 1791 
Q 2906 2416 2648 2759 
Q 2391 3103 1925 3103 
Q 1463 3103 1205 2759 
Q 947 2416 947 1791 
Q 947 1169 1205 825 
Q 1463 481 1925 481 
Q 2391 481 2648 825 
Q 2906 1169 2906 1791 
z
M 3481 434 
Q 3481 -459 3084 -895 
Q 2688 -1331 1869 -1331 
Q 1566 -1331 1297 -1286 
Q 1028 -1241 775 -1147 
L 775 -588 
Q 1028 -725 1275 -790 
Q 1522 -856 1778 -856 
Q 2344 -856 2625 -561 
Q 2906 -266 2906 331 
L 2906 616 
Q 2728 306 2450 153 
Q 2172 0 1784 0 
Q 1141 0 747 490 
Q 353 981 353 1791 
Q 353 2603 747 3093 
Q 1141 3584 1784 3584 
Q 2172 3584 2450 3431 
Q 2728 3278 2906 2969 
L 2906 3500 
L 3481 3500 
L 3481 434 
z
" transform="scale(0.015625)"/>
       <path id="DejaVuSans-5d" d="M 1947 4863 
L 1947 -844 
L 622 -844 
L 622 -397 
L 1369 -397 
L 1369 4416 
L 622 4416 
L 622 4863 
L 1947 4863 
z
" transform="scale(0.015625)"/>
      </defs>
      <use xlink:href="#DejaVuSans-Oblique-3b1" transform="translate(0 0.015625)"/>
      <use xlink:href="#DejaVuSans-20" transform="translate(65.917969 0.015625)"/>
      <use xlink:href="#DejaVuSans-5b" transform="translate(97.705078 0.015625)"/>
      <use xlink:href="#DejaVuSans-64" transform="translate(136.71875 0.015625)"/>
      <use xlink:href="#DejaVuSans-65" transform="translate(200.195312 0.015625)"/>
      <use xlink:href="#DejaVuSans-67" transform="translate(261.71875 0.015625)"/>
      <use xlink:href="#DejaVuSans-5d" transform="translate(325.195312 0.015625)"/>
     </g>
    </g>
   </g>
   <g id="matplotlib.axis_2">
    <g id="ytick_1">
     <g id="line2d_15">
      <path d="M 99.506 317.539048 
L 541.665 317.539048 
" clip-path="url(#pa9f7ad8259)" style="fill: none; stroke: #b0b0b0; stroke-width: 0.8; stroke-linecap: square"/>
     </g>
     <g id="line2d_16">
      <defs>
       <path id="mc4077a81ec" d="M 0 0 
L -3.5 0 
" style="stroke: #000000; stroke-width: 0.8"/>
      </defs>
      <g>
       <use xlink:href="#mc4077a81ec" x="99.506" y="317.539048" style="stroke: #000000; stroke-width: 0.8"/>
      </g>
     </g>
     <g id="text_9">
      <!-- 0.05 -->
      <g transform="translate(47.97475 325.137486) scale(0.2 -0.2)">
       <defs>
        <path id="DejaVuSans-2e" d="M 684 794 
L 1344 794 
L 1344 0 
L 684 0 
L 684 794 
z
" transform="scale(0.015625)"/>
       </defs>
       <use xlink:href="#DejaVuSans-30"/>
       <use xlink:href="#DejaVuSans-2e" x="63.623047"/>
       <use xlink:href="#DejaVuSans-30" x="95.410156"/>
       <use xlink:href="#DejaVuSans-35" x="159.033203"/>
      </g>
     </g>
    </g>
    <g id="ytick_2">
     <g id="line2d_17">
      <path d="M 99.506 269.533562 
L 541.665 269.533562 
" clip-path="url(#pa9f7ad8259)" style="fill: none; stroke: #b0b0b0; stroke-width: 0.8; stroke-linecap: square"/>
     </g>
     <g id="line2d_18">
      <g>
       <use xlink:href="#mc4077a81ec" x="99.506" y="269.533562" style="stroke: #000000; stroke-width: 0.8"/>
      </g>
     </g>
     <g id="text_10">
      <!-- 0.10 -->
      <g transform="translate(47.97475 277.132) scale(0.2 -0.2)">
       <use xlink:href="#DejaVuSans-30"/>
       <use xlink:href="#DejaVuSans-2e" x="63.623047"/>
       <use xlink:href="#DejaVuSans-31" x="95.410156"/>
       <use xlink:href="#DejaVuSans-30" x="159.033203"/>
      </g>
     </g>
    </g>
    <g id="ytick_3">
     <g id="line2d_19">
      <path d="M 99.506 221.528076 
L 541.665 221.528076 
" clip-path="url(#pa9f7ad8259)" style="fill: none; stroke: #b0b0b0; stroke-width: 0.8; stroke-linecap: square"/>
     </g>
     <g id="line2d_20">
      <g>
       <use xlink:href="#mc4077a81ec" x="99.506" y="221.528076" style="stroke: #000000; stroke-width: 0.8"/>
      </g>
     </g>
     <g id="text_11">
      <!-- 0.15 -->
      <g transform="translate(47.97475 229.126514) scale(0.2 -0.2)">
       <use xlink:href="#DejaVuSans-30"/>
       <use xlink:href="#DejaVuSans-2e" x="63.623047"/>
       <use xlink:href="#DejaVuSans-31" x="95.410156"/>
       <use xlink:href="#DejaVuSans-35" x="159.033203"/>
      </g>
     </g>
    </g>
    <g id="ytick_4">
     <g id="line2d_21">
      <path d="M 99.506 173.52259 
L 541.665 173.52259 
" clip-path="url(#pa9f7ad8259)" style="fill: none; stroke: #b0b0b0; stroke-width: 0.8; stroke-linecap: square"/>
     </g>
     <g id="line2d_22">
      <g>
       <use xlink:href="#mc4077a81ec" x="99.506" y="173.52259" style="stroke: #000000; stroke-width: 0.8"/>
      </g>
     </g>
     <g id="text_12">
      <!-- 0.20 -->
      <g transform="translate(47.97475 181.121028) scale(0.2 -0.2)">
       <use xlink:href="#DejaVuSans-30"/>
       <use xlink:href="#DejaVuSans-2e" x="63.623047"/>
       <use xlink:href="#DejaVuSans-32" x="95.410156"/>
       <use xlink:href="#DejaVuSans-30" x="159.033203"/>
      </g>
     </g>
    </g>
    <g id="ytick_5">
     <g id="line2d_23">
      <path d="M 99.506 125.517104 
L 541.665 125.517104 
" clip-path="url(#pa9f7ad8259)" style="fill: none; stroke: #b0b0b0; stroke-width: 0.8; stroke-linecap: square"/>
     </g>
     <g id="line2d_24">
      <g>
       <use xlink:href="#mc4077a81ec" x="99.506" y="125.517104" style="stroke: #000000; stroke-width: 0.8"/>
      </g>
     </g>
     <g id="text_13">
      <!-- 0.25 -->
      <g transform="translate(47.97475 133.115542) scale(0.2 -0.2)">
       <use xlink:href="#DejaVuSans-30"/>
       <use xlink:href="#DejaVuSans-2e" x="63.623047"/>
       <use xlink:href="#DejaVuSans-32" x="95.410156"/>
       <use xlink:href="#DejaVuSans-35" x="159.033203"/>
      </g>
     </g>
    </g>
    <g id="ytick_6">
     <g id="line2d_25">
      <path d="M 99.506 77.511618 
L 541.665 77.511618 
" clip-path="url(#pa9f7ad8259)" style="fill: none; stroke: #b0b0b0; stroke-width: 0.8; stroke-linecap: square"/>
     </g>
     <g id="line2d_26">
      <g>
       <use xlink:href="#mc4077a81ec" x="99.506" y="77.511618" style="stroke: #000000; stroke-width: 0.8"/>
      </g>
     </g>
     <g id="text_14">
      <!-- 0.30 -->
      <g transform="translate(47.97475 85.110056) scale(0.2 -0.2)">
       <defs>
        <path id="DejaVuSans-33" d="M 2597 2516 
Q 3050 2419 3304 2112 
Q 3559 1806 3559 1356 
Q 3559 666 3084 287 
Q 2609 -91 1734 -91 
Q 1441 -91 1130 -33 
Q 819 25 488 141 
L 488 750 
Q 750 597 1062 519 
Q 1375 441 1716 441 
Q 2309 441 2620 675 
Q 2931 909 2931 1356 
Q 2931 1769 2642 2001 
Q 2353 2234 1838 2234 
L 1294 2234 
L 1294 2753 
L 1863 2753 
Q 2328 2753 2575 2939 
Q 2822 3125 2822 3475 
Q 2822 3834 2567 4026 
Q 2313 4219 1838 4219 
Q 1578 4219 1281 4162 
Q 984 4106 628 3988 
L 628 4550 
Q 988 4650 1302 4700 
Q 1616 4750 1894 4750 
Q 2613 4750 3031 4423 
Q 3450 4097 3450 3541 
Q 3450 3153 3228 2886 
Q 3006 2619 2597 2516 
z
" transform="scale(0.015625)"/>
       </defs>
       <use xlink:href="#DejaVuSans-30"/>
       <use xlink:href="#DejaVuSans-2e" x="63.623047"/>
       <use xlink:href="#DejaVuSans-33" x="95.410156"/>
       <use xlink:href="#DejaVuSans-30" x="159.033203"/>
      </g>
     </g>
    </g>
    <g id="ytick_7">
     <g id="line2d_27">
      <path d="M 99.506 29.506132 
L 541.665 29.506132 
" clip-path="url(#pa9f7ad8259)" style="fill: none; stroke: #b0b0b0; stroke-width: 0.8; stroke-linecap: square"/>
     </g>
     <g id="line2d_28">
      <g>
       <use xlink:href="#mc4077a81ec" x="99.506" y="29.506132" style="stroke: #000000; stroke-width: 0.8"/>
      </g>
     </g>
     <g id="text_15">
      <!-- 0.35 -->
      <g transform="translate(47.97475 37.10457) scale(0.2 -0.2)">
       <use xlink:href="#DejaVuSans-30"/>
       <use xlink:href="#DejaVuSans-2e" x="63.623047"/>
       <use xlink:href="#DejaVuSans-33" x="95.410156"/>
       <use xlink:href="#DejaVuSans-35" x="159.033203"/>
      </g>
     </g>
    </g>
    <g id="text_16">
     <!-- $C_D$ [-] -->
     <g transform="translate(39.815375 219.702898) rotate(-90) scale(0.2 -0.2)">
      <defs>
       <path id="DejaVuSans-Oblique-43" d="M 4447 4306 
L 4319 3641 
Q 4019 3944 3683 4091 
Q 3347 4238 2956 4238 
Q 2422 4238 2017 3981 
Q 1613 3725 1319 3200 
Q 1131 2863 1032 2486 
Q 934 2109 934 1728 
Q 934 1091 1264 756 
Q 1594 422 2222 422 
Q 2656 422 3056 561 
Q 3456 700 3834 978 
L 3688 231 
Q 3316 72 2936 -9 
Q 2556 -91 2175 -91 
Q 1278 -91 773 396 
Q 269 884 269 1753 
Q 269 2309 461 2846 
Q 653 3384 1013 3828 
Q 1394 4300 1883 4525 
Q 2372 4750 3022 4750 
Q 3422 4750 3780 4639 
Q 4138 4528 4447 4306 
z
" transform="scale(0.015625)"/>
       <path id="DejaVuSans-Oblique-44" d="M 1081 4666 
L 2438 4666 
Q 3519 4666 4070 4208 
Q 4622 3750 4622 2847 
Q 4622 2250 4412 1698 
Q 4203 1147 3834 769 
Q 3463 381 2891 190 
Q 2319 0 1538 0 
L 172 0 
L 1081 4666 
z
M 1613 4147 
L 909 519 
L 1734 519 
Q 2794 519 3375 1128 
Q 3956 1738 3956 2847 
Q 3956 3519 3581 3833 
Q 3206 4147 2406 4147 
L 1613 4147 
z
" transform="scale(0.015625)"/>
       <path id="DejaVuSans-2d" d="M 313 2009 
L 1997 2009 
L 1997 1497 
L 313 1497 
L 313 2009 
z
" transform="scale(0.015625)"/>
      </defs>
      <use xlink:href="#DejaVuSans-Oblique-43" transform="translate(0 0.015625)"/>
      <use xlink:href="#DejaVuSans-Oblique-44" transform="translate(69.824219 -16.390625) scale(0.7)"/>
      <use xlink:href="#DejaVuSans-20" transform="translate(126.459961 0.015625)"/>
      <use xlink:href="#DejaVuSans-5b" transform="translate(158.24707 0.015625)"/>
      <use xlink:href="#DejaVuSans-2d" transform="translate(197.260742 0.015625)"/>
      <use xlink:href="#DejaVuSans-5d" transform="translate(233.344727 0.015625)"/>
     </g>
    </g>
   </g>
   <g id="line2d_29">
    <path d="M 99.506 315.063515 
L 103.972253 316.25256 
L 108.438505 317.443789 
L 112.904758 318.634545 
L 117.37101 319.822175 
L 121.837263 321.004031 
L 126.303515 322.177471 
L 130.769768 323.339855 
L 135.23602 324.488549 
L 139.702273 325.620923 
L 144.168525 326.734352 
L 148.634778 327.826215 
L 153.10103 328.893894 
L 157.567283 329.934779 
L 162.033535 330.946261 
L 166.499788 331.925738 
L 170.96604 332.87061 
L 175.432293 333.778284 
L 179.898545 334.646171 
L 184.364798 335.471684 
L 188.831051 336.252243 
L 193.297303 336.985272 
L 197.763556 337.668199 
L 202.229808 338.298456 
L 206.696061 338.873482 
L 211.162313 339.390717 
L 215.628566 339.847608 
L 220.094818 340.241605 
L 224.561071 340.570164 
L 229.027323 340.830743 
L 233.493576 341.020807 
L 237.959828 341.137824 
L 242.426081 341.179267 
L 246.892333 341.142614 
L 251.358586 341.025347 
L 255.824838 340.824951 
L 260.291091 340.538918 
L 264.757343 340.164743 
L 269.223596 339.699926 
L 273.689848 339.141971 
L 278.156101 338.488386 
L 282.622354 337.736685 
L 287.088606 336.884386 
L 291.554859 335.929011 
L 296.021111 334.868085 
L 300.487364 333.699142 
L 304.953616 332.419715 
L 309.419869 331.027345 
L 313.886121 329.519576 
L 318.352374 327.893958 
L 322.818626 326.148043 
L 327.284879 324.279391 
L 331.751131 322.285562 
L 336.217384 320.164124 
L 340.683636 317.912649 
L 345.149889 315.528712 
L 349.616141 313.009893 
L 354.082394 310.353777 
L 358.548646 307.557954 
L 363.014899 304.620016 
L 367.481152 301.537563 
L 371.947404 298.308196 
L 376.413657 294.929523 
L 380.879909 291.399156 
L 385.346162 287.71471 
L 389.812414 283.873807 
L 394.278667 279.87407 
L 398.744919 275.71313 
L 403.211172 271.38862 
L 407.677424 266.898179 
L 412.143677 262.23945 
L 416.609929 257.410079 
L 421.076182 252.40772 
L 425.542434 247.230028 
L 430.008687 241.874663 
L 434.474939 236.339292 
L 438.941192 230.621584 
L 443.407444 224.719212 
L 447.873697 218.629857 
L 452.339949 212.3512 
L 456.806202 205.88093 
L 461.272455 199.216738 
L 465.738707 192.356322 
L 470.20496 185.297381 
L 474.671212 178.037622 
L 479.137465 170.574754 
L 483.603717 162.906493 
L 488.06997 155.030556 
L 492.536222 146.944668 
L 497.002475 138.646555 
L 501.468727 130.133952 
L 505.93498 121.404593 
L 510.401232 112.456221 
L 514.867485 103.28658 
L 519.333737 93.893423 
L 523.79999 84.274502 
L 528.266242 74.427578 
L 532.732495 64.350414 
L 537.198747 54.040777 
L 541.665 43.496441 
" clip-path="url(#pa9f7ad8259)" style="fill: none; stroke-dasharray: 9.6,2.4,1.5,2.4; stroke-dashoffset: 0; stroke: #00a6b6; stroke-width: 1.5"/>
   </g>
   <g id="line2d_30">
    <path d="M 99.506 316.716418 
L 103.972253 317.797792 
L 108.438505 318.885899 
L 112.904758 319.97776 
L 117.37101 321.07041 
L 121.837263 322.160901 
L 126.303515 323.2463 
L 130.769768 324.323693 
L 135.23602 325.390178 
L 139.702273 326.442871 
L 144.168525 327.478904 
L 148.634778 328.495426 
L 153.10103 329.4896 
L 157.567283 330.458605 
L 162.033535 331.399639 
L 166.499788 332.309912 
L 170.96604 333.186653 
L 175.432293 334.027106 
L 179.898545 334.82853 
L 184.364798 335.588202 
L 188.831051 336.303413 
L 193.297303 336.971472 
L 197.763556 337.589702 
L 202.229808 338.155444 
L 206.696061 338.666053 
L 211.162313 339.118902 
L 215.628566 339.511378 
L 220.094818 339.840886 
L 224.561071 340.104845 
L 229.027323 340.300692 
L 233.493576 340.425879 
L 237.959828 340.477873 
L 242.426081 340.45416 
L 246.892333 340.352238 
L 251.358586 340.169625 
L 255.824838 339.903851 
L 260.291091 339.552466 
L 264.757343 339.113033 
L 269.223596 338.583133 
L 273.689848 337.960362 
L 278.156101 337.242331 
L 282.622354 336.426669 
L 287.088606 335.511021 
L 291.554859 334.493045 
L 296.021111 333.37042 
L 300.487364 332.140836 
L 304.953616 330.802002 
L 309.419869 329.351642 
L 313.886121 327.787497 
L 318.352374 326.107322 
L 322.818626 324.308891 
L 327.284879 322.38999 
L 331.751131 320.348425 
L 336.217384 318.182015 
L 340.683636 315.888598 
L 345.149889 313.466025 
L 349.616141 310.912164 
L 354.082394 308.2249 
L 358.548646 305.402134 
L 363.014899 302.441781 
L 367.481152 299.341773 
L 371.947404 296.100061 
L 376.413657 292.714606 
L 380.879909 289.183391 
L 385.346162 285.504411 
L 389.812414 281.675679 
L 394.278667 277.695223 
L 398.744919 273.561087 
L 403.211172 269.271332 
L 407.677424 264.824035 
L 412.143677 260.217288 
L 416.609929 255.449199 
L 421.076182 250.517892 
L 425.542434 245.421509 
L 430.008687 240.158205 
L 434.474939 234.726153 
L 438.941192 229.123543 
L 443.407444 223.348577 
L 447.873697 217.399477 
L 452.339949 211.274478 
L 456.806202 204.971835 
L 461.272455 198.489815 
L 465.738707 191.826702 
L 470.20496 184.980798 
L 474.671212 177.950419 
L 479.137465 170.733897 
L 483.603717 163.329581 
L 488.06997 155.735836 
L 492.536222 147.951042 
L 497.002475 139.973596 
L 501.468727 131.80191 
L 505.93498 123.434414 
L 510.401232 114.869551 
L 514.867485 106.105783 
L 519.333737 97.141585 
L 523.79999 87.975451 
L 528.266242 78.60589 
L 532.732495 69.031426 
L 537.198747 59.250599 
L 541.665 49.261967 
" clip-path="url(#pa9f7ad8259)" style="fill: none; stroke-dasharray: 9.6,2.4,1.5,2.4; stroke-dashoffset: 0; stroke: #a50034; stroke-width: 1.5"/>
   </g>
   <g id="line2d_31">
    <path d="M 99.506 315.063515 
L 103.972253 316.25256 
L 108.438505 317.443789 
L 112.904758 318.634545 
L 117.37101 319.822175 
L 121.837263 321.004031 
L 126.303515 322.177471 
L 130.769768 323.339855 
L 135.23602 324.488549 
L 139.702273 325.620923 
L 144.168525 326.734352 
L 148.634778 327.826215 
L 153.10103 328.893894 
L 157.567283 329.934779 
L 162.033535 330.946261 
L 166.499788 331.925738 
L 170.96604 332.87061 
L 175.432293 333.778284 
L 179.898545 334.646171 
L 184.364798 335.471684 
L 188.831051 336.252243 
L 193.297303 336.985272 
L 197.763556 337.668199 
L 202.229808 338.298456 
L 206.696061 338.873482 
L 211.162313 339.390717 
L 215.628566 339.847608 
L 220.094818 340.241605 
L 224.561071 340.570164 
L 229.027323 340.830743 
L 233.493576 341.020807 
L 237.959828 341.137824 
L 242.426081 341.179267 
L 246.892333 341.142614 
L 251.358586 341.025347 
L 255.824838 340.824951 
L 260.291091 340.538918 
L 264.757343 340.164743 
L 269.223596 339.699926 
L 273.689848 339.141971 
L 278.156101 338.488386 
L 282.622354 337.736685 
L 287.088606 336.884386 
L 291.554859 335.929011 
L 296.021111 334.868085 
L 300.487364 333.699142 
L 304.953616 332.419715 
L 309.419869 331.027345 
L 313.886121 329.519576 
L 318.352374 327.893958 
L 322.818626 326.148043 
L 327.284879 324.279391 
L 331.751131 322.285562 
L 336.217384 320.164124 
L 340.683636 317.912649 
L 345.149889 315.528712 
L 349.616141 313.009893 
L 354.082394 310.353777 
L 358.548646 307.557954 
L 363.014899 304.620016 
L 367.481152 301.537563 
L 371.947404 298.308196 
L 376.413657 294.929523 
L 380.879909 291.399156 
L 385.346162 287.71471 
L 389.812414 283.873807 
L 394.278667 279.87407 
L 398.744919 275.71313 
L 403.211172 271.38862 
L 407.677424 266.898179 
L 412.143677 262.23945 
L 416.609929 257.410079 
L 421.076182 252.40772 
L 425.542434 247.230028 
L 430.008687 241.874663 
L 434.474939 236.339292 
L 438.941192 230.621584 
L 443.407444 224.719212 
L 447.873697 218.629857 
L 452.339949 212.3512 
L 456.806202 205.88093 
L 461.272455 199.216738 
L 465.738707 192.356322 
L 470.20496 185.297381 
L 474.671212 178.037622 
L 479.137465 170.574754 
L 483.603717 162.906493 
L 488.06997 155.030556 
L 492.536222 146.944668 
L 497.002475 138.646555 
L 501.468727 130.133952 
L 505.93498 121.404593 
L 510.401232 112.456221 
L 514.867485 103.28658 
L 519.333737 93.893423 
L 523.79999 84.274502 
L 528.266242 74.427578 
L 532.732495 64.350414 
L 537.198747 54.040777 
L 541.665 43.496441 
" clip-path="url(#pa9f7ad8259)" style="fill: none; stroke-dasharray: 9.6,2.4,1.5,2.4; stroke-dashoffset: 0; stroke: #ef60a3; stroke-width: 1.5"/>
   </g>
   <g id="line2d_32">
    <path d="M 99.506 310.090652 
L 103.972253 311.859226 
L 108.438505 313.589598 
L 112.904758 315.280601 
L 117.37101 316.931054 
L 121.837263 318.539753 
L 126.303515 320.105476 
L 130.769768 321.626981 
L 135.23602 323.103007 
L 139.702273 324.532274 
L 144.168525 325.913481 
L 148.634778 327.24531 
L 153.10103 328.526422 
L 157.567283 329.755459 
L 162.033535 330.931043 
L 166.499788 332.051779 
L 170.96604 333.11625 
L 175.432293 334.123021 
L 179.898545 335.070637 
L 184.364798 335.957623 
L 188.831051 336.782487 
L 193.297303 337.543715 
L 197.763556 338.239776 
L 202.229808 338.869116 
L 206.696061 339.430167 
L 211.162313 339.921336 
L 215.628566 340.341015 
L 220.094818 340.687574 
L 224.561071 340.959366 
L 229.027323 341.154721 
L 233.493576 341.271952 
L 237.959828 341.309354 
L 242.426081 341.265201 
L 246.892333 341.137746 
L 251.358586 340.925225 
L 255.824838 340.625854 
L 260.291091 340.23783 
L 264.757343 339.75933 
L 269.223596 339.188512 
L 273.689848 338.523513 
L 278.156101 337.762454 
L 282.622354 336.903434 
L 287.088606 335.944533 
L 291.554859 334.883812 
L 296.021111 333.719313 
L 300.487364 332.449058 
L 304.953616 331.07105 
L 309.419869 329.583272 
L 313.886121 327.983688 
L 318.352374 326.270244 
L 322.818626 324.440865 
L 327.284879 322.493456 
L 331.751131 320.425904 
L 336.217384 318.236076 
L 340.683636 315.921821 
L 345.149889 313.480967 
L 349.616141 310.911323 
L 354.082394 308.210679 
L 358.548646 305.376805 
L 363.014899 302.407452 
L 367.481152 299.300352 
L 371.947404 296.053217 
L 376.413657 292.663741 
L 380.879909 289.129596 
L 385.346162 285.448437 
L 389.812414 281.617898 
L 394.278667 277.635596 
L 398.744919 273.499126 
L 403.211172 269.206065 
L 407.677424 264.75397 
L 412.143677 260.140379 
L 416.609929 255.362811 
L 421.076182 250.418765 
L 425.542434 245.305721 
L 430.008687 240.021139 
L 434.474939 234.562461 
L 438.941192 228.927108 
L 443.407444 223.112482 
L 447.873697 217.115967 
L 452.339949 210.934927 
L 456.806202 204.566704 
L 461.272455 198.008625 
L 465.738707 191.257995 
L 470.20496 184.3121 
L 474.671212 177.168206 
L 479.137465 169.823562 
L 483.603717 162.275395 
L 488.06997 154.520914 
L 492.536222 146.557308 
L 497.002475 138.381747 
L 501.468727 129.991382 
L 505.93498 121.383343 
L 510.401232 112.554743 
L 514.867485 103.502674 
L 519.333737 94.22421 
L 523.79999 84.716403 
L 528.266242 74.976288 
L 532.732495 65.000881 
L 537.198747 54.787176 
L 541.665 44.33215 
" clip-path="url(#pa9f7ad8259)" style="fill: none; stroke-dasharray: 9.6,2.4,1.5,2.4; stroke-dashoffset: 0; stroke: #6cc24a; stroke-width: 1.5"/>
   </g>
   <g id="patch_3">
    <path d="M 99.506 356.2 
L 99.506 28.605796 
" style="fill: none; stroke: #000000; stroke-width: 0.8; stroke-linejoin: miter; stroke-linecap: square"/>
   </g>
   <g id="patch_4">
    <path d="M 541.665 356.2 
L 541.665 28.605796 
" style="fill: none; stroke: #000000; stroke-width: 0.8; stroke-linejoin: miter; stroke-linecap: square"/>
   </g>
   <g id="patch_5">
    <path d="M 99.506 356.2 
L 541.665 356.2 
" style="fill: none; stroke: #000000; stroke-width: 0.8; stroke-linejoin: miter; stroke-linecap: square"/>
   </g>
   <g id="patch_6">
    <path d="M 99.506 28.605796 
L 541.665 28.605796 
" style="fill: none; stroke: #000000; stroke-width: 0.8; stroke-linejoin: miter; stroke-linecap: square"/>
   </g>
   <g id="legend_1">
    <g id="patch_7">
     <path d="M 113.506 162.030796 
L 360.665375 162.030796 
Q 364.665375 162.030796 364.665375 158.030796 
L 364.665375 42.605796 
Q 364.665375 38.605796 360.665375 38.605796 
L 113.506 38.605796 
Q 109.506 38.605796 109.506 42.605796 
L 109.506 158.030796 
Q 109.506 162.030796 113.506 162.030796 
z
" style="fill: #ffffff; opacity: 0.8; stroke: #cccccc; stroke-linejoin: miter"/>
    </g>
    <g id="line2d_33">
     <path d="M 117.506 54.802671 
L 137.506 54.802671 
L 157.506 54.802671 
" style="fill: none; stroke-dasharray: 9.6,2.4,1.5,2.4; stroke-dashoffset: 0; stroke: #00a6b6; stroke-width: 1.5"/>
    </g>
    <g id="text_17">
     <!-- Uncorrected J=1.8 -->
     <g transform="translate(173.506 61.802671) scale(0.2 -0.2)">
      <defs>
       <path id="DejaVuSans-55" d="M 556 4666 
L 1191 4666 
L 1191 1831 
Q 1191 1081 1462 751 
Q 1734 422 2344 422 
Q 2950 422 3222 751 
Q 3494 1081 3494 1831 
L 3494 4666 
L 4128 4666 
L 4128 1753 
Q 4128 841 3676 375 
Q 3225 -91 2344 -91 
Q 1459 -91 1007 375 
Q 556 841 556 1753 
L 556 4666 
z
" transform="scale(0.015625)"/>
       <path id="DejaVuSans-6e" d="M 3513 2113 
L 3513 0 
L 2938 0 
L 2938 2094 
Q 2938 2591 2744 2837 
Q 2550 3084 2163 3084 
Q 1697 3084 1428 2787 
Q 1159 2491 1159 1978 
L 1159 0 
L 581 0 
L 581 3500 
L 1159 3500 
L 1159 2956 
Q 1366 3272 1645 3428 
Q 1925 3584 2291 3584 
Q 2894 3584 3203 3211 
Q 3513 2838 3513 2113 
z
" transform="scale(0.015625)"/>
       <path id="DejaVuSans-63" d="M 3122 3366 
L 3122 2828 
Q 2878 2963 2633 3030 
Q 2388 3097 2138 3097 
Q 1578 3097 1268 2742 
Q 959 2388 959 1747 
Q 959 1106 1268 751 
Q 1578 397 2138 397 
Q 2388 397 2633 464 
Q 2878 531 3122 666 
L 3122 134 
Q 2881 22 2623 -34 
Q 2366 -91 2075 -91 
Q 1284 -91 818 406 
Q 353 903 353 1747 
Q 353 2603 823 3093 
Q 1294 3584 2113 3584 
Q 2378 3584 2631 3529 
Q 2884 3475 3122 3366 
z
" transform="scale(0.015625)"/>
       <path id="DejaVuSans-6f" d="M 1959 3097 
Q 1497 3097 1228 2736 
Q 959 2375 959 1747 
Q 959 1119 1226 758 
Q 1494 397 1959 397 
Q 2419 397 2687 759 
Q 2956 1122 2956 1747 
Q 2956 2369 2687 2733 
Q 2419 3097 1959 3097 
z
M 1959 3584 
Q 2709 3584 3137 3096 
Q 3566 2609 3566 1747 
Q 3566 888 3137 398 
Q 2709 -91 1959 -91 
Q 1206 -91 779 398 
Q 353 888 353 1747 
Q 353 2609 779 3096 
Q 1206 3584 1959 3584 
z
" transform="scale(0.015625)"/>
       <path id="DejaVuSans-72" d="M 2631 2963 
Q 2534 3019 2420 3045 
Q 2306 3072 2169 3072 
Q 1681 3072 1420 2755 
Q 1159 2438 1159 1844 
L 1159 0 
L 581 0 
L 581 3500 
L 1159 3500 
L 1159 2956 
Q 1341 3275 1631 3429 
Q 1922 3584 2338 3584 
Q 2397 3584 2469 3576 
Q 2541 3569 2628 3553 
L 2631 2963 
z
" transform="scale(0.015625)"/>
       <path id="DejaVuSans-74" d="M 1172 4494 
L 1172 3500 
L 2356 3500 
L 2356 3053 
L 1172 3053 
L 1172 1153 
Q 1172 725 1289 603 
Q 1406 481 1766 481 
L 2356 481 
L 2356 0 
L 1766 0 
Q 1100 0 847 248 
Q 594 497 594 1153 
L 594 3053 
L 172 3053 
L 172 3500 
L 594 3500 
L 594 4494 
L 1172 4494 
z
" transform="scale(0.015625)"/>
       <path id="DejaVuSans-4a" d="M 628 4666 
L 1259 4666 
L 1259 325 
Q 1259 -519 939 -900 
Q 619 -1281 -91 -1281 
L -331 -1281 
L -331 -750 
L -134 -750 
Q 284 -750 456 -515 
Q 628 -281 628 325 
L 628 4666 
z
" transform="scale(0.015625)"/>
       <path id="DejaVuSans-3d" d="M 678 2906 
L 4684 2906 
L 4684 2381 
L 678 2381 
L 678 2906 
z
M 678 1631 
L 4684 1631 
L 4684 1100 
L 678 1100 
L 678 1631 
z
" transform="scale(0.015625)"/>
       <path id="DejaVuSans-38" d="M 2034 2216 
Q 1584 2216 1326 1975 
Q 1069 1734 1069 1313 
Q 1069 891 1326 650 
Q 1584 409 2034 409 
Q 2484 409 2743 651 
Q 3003 894 3003 1313 
Q 3003 1734 2745 1975 
Q 2488 2216 2034 2216 
z
M 1403 2484 
Q 997 2584 770 2862 
Q 544 3141 544 3541 
Q 544 4100 942 4425 
Q 1341 4750 2034 4750 
Q 2731 4750 3128 4425 
Q 3525 4100 3525 3541 
Q 3525 3141 3298 2862 
Q 3072 2584 2669 2484 
Q 3125 2378 3379 2068 
Q 3634 1759 3634 1313 
Q 3634 634 3220 271 
Q 2806 -91 2034 -91 
Q 1263 -91 848 271 
Q 434 634 434 1313 
Q 434 1759 690 2068 
Q 947 2378 1403 2484 
z
M 1172 3481 
Q 1172 3119 1398 2916 
Q 1625 2713 2034 2713 
Q 2441 2713 2670 2916 
Q 2900 3119 2900 3481 
Q 2900 3844 2670 4047 
Q 2441 4250 2034 4250 
Q 1625 4250 1398 4047 
Q 1172 3844 1172 3481 
z
" transform="scale(0.015625)"/>
      </defs>
      <use xlink:href="#DejaVuSans-55"/>
      <use xlink:href="#DejaVuSans-6e" x="73.193359"/>
      <use xlink:href="#DejaVuSans-63" x="136.572266"/>
      <use xlink:href="#DejaVuSans-6f" x="191.552734"/>
      <use xlink:href="#DejaVuSans-72" x="252.734375"/>
      <use xlink:href="#DejaVuSans-72" x="292.097656"/>
      <use xlink:href="#DejaVuSans-65" x="330.960938"/>
      <use xlink:href="#DejaVuSans-63" x="392.484375"/>
      <use xlink:href="#DejaVuSans-74" x="447.464844"/>
      <use xlink:href="#DejaVuSans-65" x="486.673828"/>
      <use xlink:href="#DejaVuSans-64" x="548.197266"/>
      <use xlink:href="#DejaVuSans-20" x="611.673828"/>
      <use xlink:href="#DejaVuSans-4a" x="643.460938"/>
      <use xlink:href="#DejaVuSans-3d" x="672.953125"/>
      <use xlink:href="#DejaVuSans-31" x="756.742188"/>
      <use xlink:href="#DejaVuSans-2e" x="820.365234"/>
      <use xlink:href="#DejaVuSans-38" x="852.152344"/>
     </g>
    </g>
    <g id="line2d_34">
     <path d="M 117.506 84.158921 
L 137.506 84.158921 
L 157.506 84.158921 
" style="fill: none; stroke-dasharray: 9.6,2.4,1.5,2.4; stroke-dashoffset: 0; stroke: #a50034; stroke-width: 1.5"/>
    </g>
    <g id="text_18">
     <!-- Corrected J=1.8 -->
     <g transform="translate(173.506 91.158921) scale(0.2 -0.2)">
      <defs>
       <path id="DejaVuSans-43" d="M 4122 4306 
L 4122 3641 
Q 3803 3938 3442 4084 
Q 3081 4231 2675 4231 
Q 1875 4231 1450 3742 
Q 1025 3253 1025 2328 
Q 1025 1406 1450 917 
Q 1875 428 2675 428 
Q 3081 428 3442 575 
Q 3803 722 4122 1019 
L 4122 359 
Q 3791 134 3420 21 
Q 3050 -91 2638 -91 
Q 1578 -91 968 557 
Q 359 1206 359 2328 
Q 359 3453 968 4101 
Q 1578 4750 2638 4750 
Q 3056 4750 3426 4639 
Q 3797 4528 4122 4306 
z
" transform="scale(0.015625)"/>
      </defs>
      <use xlink:href="#DejaVuSans-43"/>
      <use xlink:href="#DejaVuSans-6f" x="69.824219"/>
      <use xlink:href="#DejaVuSans-72" x="131.005859"/>
      <use xlink:href="#DejaVuSans-72" x="170.369141"/>
      <use xlink:href="#DejaVuSans-65" x="209.232422"/>
      <use xlink:href="#DejaVuSans-63" x="270.755859"/>
      <use xlink:href="#DejaVuSans-74" x="325.736328"/>
      <use xlink:href="#DejaVuSans-65" x="364.945312"/>
      <use xlink:href="#DejaVuSans-64" x="426.46875"/>
      <use xlink:href="#DejaVuSans-20" x="489.945312"/>
      <use xlink:href="#DejaVuSans-4a" x="521.732422"/>
      <use xlink:href="#DejaVuSans-3d" x="551.224609"/>
      <use xlink:href="#DejaVuSans-31" x="635.013672"/>
      <use xlink:href="#DejaVuSans-2e" x="698.636719"/>
      <use xlink:href="#DejaVuSans-38" x="730.423828"/>
     </g>
    </g>
    <g id="line2d_35">
     <path d="M 117.506 113.515171 
L 137.506 113.515171 
L 157.506 113.515171 
" style="fill: none; stroke-dasharray: 9.6,2.4,1.5,2.4; stroke-dashoffset: 0; stroke: #ef60a3; stroke-width: 1.5"/>
    </g>
    <g id="text_19">
     <!-- Uncorrected J=3.5 -->
     <g transform="translate(173.506 120.515171) scale(0.2 -0.2)">
      <use xlink:href="#DejaVuSans-55"/>
      <use xlink:href="#DejaVuSans-6e" x="73.193359"/>
      <use xlink:href="#DejaVuSans-63" x="136.572266"/>
      <use xlink:href="#DejaVuSans-6f" x="191.552734"/>
      <use xlink:href="#DejaVuSans-72" x="252.734375"/>
      <use xlink:href="#DejaVuSans-72" x="292.097656"/>
      <use xlink:href="#DejaVuSans-65" x="330.960938"/>
      <use xlink:href="#DejaVuSans-63" x="392.484375"/>
      <use xlink:href="#DejaVuSans-74" x="447.464844"/>
      <use xlink:href="#DejaVuSans-65" x="486.673828"/>
      <use xlink:href="#DejaVuSans-64" x="548.197266"/>
      <use xlink:href="#DejaVuSans-20" x="611.673828"/>
      <use xlink:href="#DejaVuSans-4a" x="643.460938"/>
      <use xlink:href="#DejaVuSans-3d" x="672.953125"/>
      <use xlink:href="#DejaVuSans-33" x="756.742188"/>
      <use xlink:href="#DejaVuSans-2e" x="820.365234"/>
      <use xlink:href="#DejaVuSans-35" x="852.152344"/>
     </g>
    </g>
    <g id="line2d_36">
     <path d="M 117.506 142.871421 
L 137.506 142.871421 
L 157.506 142.871421 
" style="fill: none; stroke-dasharray: 9.6,2.4,1.5,2.4; stroke-dashoffset: 0; stroke: #6cc24a; stroke-width: 1.5"/>
    </g>
    <g id="text_20">
     <!-- Corrected J=3.5 -->
     <g transform="translate(173.506 149.871421) scale(0.2 -0.2)">
      <use xlink:href="#DejaVuSans-43"/>
      <use xlink:href="#DejaVuSans-6f" x="69.824219"/>
      <use xlink:href="#DejaVuSans-72" x="131.005859"/>
      <use xlink:href="#DejaVuSans-72" x="170.369141"/>
      <use xlink:href="#DejaVuSans-65" x="209.232422"/>
      <use xlink:href="#DejaVuSans-63" x="270.755859"/>
      <use xlink:href="#DejaVuSans-74" x="325.736328"/>
      <use xlink:href="#DejaVuSans-65" x="364.945312"/>
      <use xlink:href="#DejaVuSans-64" x="426.46875"/>
      <use xlink:href="#DejaVuSans-20" x="489.945312"/>
      <use xlink:href="#DejaVuSans-4a" x="521.732422"/>
      <use xlink:href="#DejaVuSans-3d" x="551.224609"/>
      <use xlink:href="#DejaVuSans-33" x="635.013672"/>
      <use xlink:href="#DejaVuSans-2e" x="698.636719"/>
      <use xlink:href="#DejaVuSans-35" x="730.423828"/>
     </g>
    </g>
   </g>
  </g>
 </g>
 <defs>
  <clipPath id="pa9f7ad8259">
   <rect x="99.506" y="28.605796" width="442.159" height="327.594204"/>
  </clipPath>
 </defs>
</svg>
