<?xml version="1.0" encoding="utf-8" standalone="no"?>
<!DOCTYPE svg PUBLIC "-//W3C//DTD SVG 1.1//EN"
  "http://www.w3.org/Graphics/SVG/1.1/DTD/svg11.dtd">
<svg xmlns:xlink="http://www.w3.org/1999/xlink" width="720pt" height="432pt" viewBox="0 0 720 432" xmlns="http://www.w3.org/2000/svg" version="1.1">
 <metadata>
  <rdf:RDF xmlns:dc="http://purl.org/dc/elements/1.1/" xmlns:cc="http://creativecommons.org/ns#" xmlns:rdf="http://www.w3.org/1999/02/22-rdf-syntax-ns#">
   <cc:Work>
    <dc:type rdf:resource="http://purl.org/dc/dcmitype/StillImage"/>
    <dc:date>2024-04-02T11:54:03.867136</dc:date>
    <dc:format>image/svg+xml</dc:format>
    <dc:creator>
     <cc:Agent>
      <dc:title>Matplotlib v3.8.3, https://matplotlib.org/</dc:title>
     </cc:Agent>
    </dc:creator>
   </cc:Work>
  </rdf:RDF>
 </metadata>
 <defs>
  <style type="text/css">*{stroke-linejoin: round; stroke-linecap: butt}</style>
 </defs>
 <g id="figure_1">
  <g id="patch_1">
   <path d="M 0 432 
L 720 432 
L 720 0 
L 0 0 
z
" style="fill: #ffffff"/>
  </g>
  <g id="axes_1">
   <g id="patch_2">
    <path d="M 76.16 373.12 
L 687.105 373.12 
L 687.105 16.2 
L 76.16 16.2 
z
" style="fill: #ffffff"/>
   </g>
   <g id="PathCollection_1">
    <defs>
     <path id="m985910cead" d="M 0 3 
C 0.795609 3 1.55874 2.683901 2.12132 2.12132 
C 2.683901 1.55874 3 0.795609 3 0 
C 3 -0.795609 2.683901 -1.55874 2.12132 -2.12132 
C 1.55874 -2.683901 0.795609 -3 0 -3 
C -0.795609 -3 -1.55874 -2.683901 -2.12132 -2.12132 
C -2.683901 -1.55874 -3 -0.795609 -3 0 
C -3 0.795609 -2.683901 1.55874 -2.12132 2.12132 
C -1.55874 2.683901 -0.795609 3 0 3 
z
" style="stroke: #00a6b6"/>
    </defs>
    <g clip-path="url(#pb588235166)">
     <use xlink:href="#m985910cead" x="99.642171" y="54.809298" style="fill: #00a6b6; stroke: #00a6b6"/>
     <use xlink:href="#m985910cead" x="381.718763" y="119.683728" style="fill: #00a6b6; stroke: #00a6b6"/>
     <use xlink:href="#m985910cead" x="499.225819" y="187.070103" style="fill: #00a6b6; stroke: #00a6b6"/>
     <use xlink:href="#m985910cead" x="546.228853" y="218.824457" style="fill: #00a6b6; stroke: #00a6b6"/>
    </g>
   </g>
   <g id="PathCollection_2">
    <defs>
     <path id="mc8ceb67c25" d="M 0 3 
C 0.795609 3 1.55874 2.683901 2.12132 2.12132 
C 2.683901 1.55874 3 0.795609 3 0 
C 3 -0.795609 2.683901 -1.55874 2.12132 -2.12132 
C 1.55874 -2.683901 0.795609 -3 0 -3 
C -0.795609 -3 -1.55874 -2.683901 -2.12132 -2.12132 
C -2.683901 -1.55874 -3 -0.795609 -3 0 
C -3 0.795609 -2.683901 1.55874 -2.12132 2.12132 
C -1.55874 2.683901 -0.795609 3 0 3 
z
" style="stroke: #a50034"/>
    </defs>
    <g clip-path="url(#pb588235166)">
     <use xlink:href="#mc8ceb67c25" x="99.642171" y="50.998624" style="fill: #a50034; stroke: #a50034"/>
     <use xlink:href="#mc8ceb67c25" x="381.718763" y="115.712426" style="fill: #a50034; stroke: #a50034"/>
     <use xlink:href="#mc8ceb67c25" x="499.225819" y="180.678979" style="fill: #a50034; stroke: #a50034"/>
     <use xlink:href="#mc8ceb67c25" x="546.228853" y="213.518333" style="fill: #a50034; stroke: #a50034"/>
    </g>
   </g>
   <g id="PathCollection_3">
    <defs>
     <path id="m21f3ddfe90" d="M 0 3 
C 0.795609 3 1.55874 2.683901 2.12132 2.12132 
C 2.683901 1.55874 3 0.795609 3 0 
C 3 -0.795609 2.683901 -1.55874 2.12132 -2.12132 
C 1.55874 -2.683901 0.795609 -3 0 -3 
C -0.795609 -3 -1.55874 -2.683901 -2.12132 -2.12132 
C -2.683901 -1.55874 -3 -0.795609 -3 0 
C -3 0.795609 -2.683901 1.55874 -2.12132 2.12132 
C -1.55874 2.683901 -0.795609 3 0 3 
z
" style="stroke: #ef60a3"/>
    </defs>
    <g clip-path="url(#pb588235166)">
     <use xlink:href="#m21f3ddfe90" x="99.642171" y="33.111911" style="fill: #ef60a3; stroke: #ef60a3"/>
     <use xlink:href="#m21f3ddfe90" x="381.718763" y="87.73878" style="fill: #ef60a3; stroke: #ef60a3"/>
     <use xlink:href="#m21f3ddfe90" x="499.225819" y="154.014363" style="fill: #ef60a3; stroke: #ef60a3"/>
     <use xlink:href="#m21f3ddfe90" x="546.228853" y="182.753718" style="fill: #ef60a3; stroke: #ef60a3"/>
    </g>
   </g>
   <g id="PathCollection_4">
    <defs>
     <path id="m46f7d32e1d" d="M 0 3 
C 0.795609 3 1.55874 2.683901 2.12132 2.12132 
C 2.683901 1.55874 3 0.795609 3 0 
C 3 -0.795609 2.683901 -1.55874 2.12132 -2.12132 
C 1.55874 -2.683901 0.795609 -3 0 -3 
C -0.795609 -3 -1.55874 -2.683901 -2.12132 -2.12132 
C -2.683901 -1.55874 -3 -0.795609 -3 0 
C -3 0.795609 -2.683901 1.55874 -2.12132 2.12132 
C -1.55874 2.683901 -0.795609 3 0 3 
z
" style="stroke: #6cc24a"/>
    </defs>
    <g clip-path="url(#pb588235166)">
     <use xlink:href="#m46f7d32e1d" x="99.642171" y="60.436088" style="fill: #6cc24a; stroke: #6cc24a"/>
     <use xlink:href="#m46f7d32e1d" x="381.718763" y="113.415714" style="fill: #6cc24a; stroke: #6cc24a"/>
     <use xlink:href="#m46f7d32e1d" x="499.225819" y="186.270306" style="fill: #6cc24a; stroke: #6cc24a"/>
     <use xlink:href="#m46f7d32e1d" x="546.228853" y="220.019441" style="fill: #6cc24a; stroke: #6cc24a"/>
    </g>
   </g>
   <g id="PathCollection_5">
    <defs>
     <path id="mc0a8332f1f" d="M 0 3 
C 0.795609 3 1.55874 2.683901 2.12132 2.12132 
C 2.683901 1.55874 3 0.795609 3 0 
C 3 -0.795609 2.683901 -1.55874 2.12132 -2.12132 
C 1.55874 -2.683901 0.795609 -3 0 -3 
C -0.795609 -3 -1.55874 -2.683901 -2.12132 -2.12132 
C -2.683901 -1.55874 -3 -0.795609 -3 0 
C -3 0.795609 -2.683901 1.55874 -2.12132 2.12132 
C -1.55874 2.683901 -0.795609 3 0 3 
z
" style="stroke: #ffb81c"/>
    </defs>
    <g clip-path="url(#pb588235166)">
     <use xlink:href="#mc0a8332f1f" x="99.642171" y="45.721781" style="fill: #ffb81c; stroke: #ffb81c"/>
     <use xlink:href="#mc0a8332f1f" x="381.718763" y="114.389027" style="fill: #ffb81c; stroke: #ffb81c"/>
     <use xlink:href="#mc0a8332f1f" x="499.225819" y="197.967409" style="fill: #ffb81c; stroke: #ffb81c"/>
     <use xlink:href="#mc0a8332f1f" x="546.228853" y="213.590992" style="fill: #ffb81c; stroke: #ffb81c"/>
    </g>
   </g>
   <g id="matplotlib.axis_1">
    <g id="xtick_1">
     <g id="line2d_1">
      <path d="M 76.16 373.12 
L 76.16 16.2 
" clip-path="url(#pb588235166)" style="fill: none; stroke: #b0b0b0; stroke-width: 0.8; stroke-linecap: square"/>
     </g>
     <g id="line2d_2">
      <defs>
       <path id="m93dca063ff" d="M 0 0 
L 0 3.5 
" style="stroke: #000000; stroke-width: 0.8"/>
      </defs>
      <g>
       <use xlink:href="#m93dca063ff" x="76.16" y="373.12" style="stroke: #000000; stroke-width: 0.8"/>
      </g>
     </g>
     <g id="text_1">
      <!-- −6.0 -->
      <g transform="translate(57.947891 391.517656) scale(0.15 -0.15)">
       <defs>
        <path id="DejaVuSans-2212" d="M 678 2272 
L 4684 2272 
L 4684 1741 
L 678 1741 
L 678 2272 
z
" transform="scale(0.015625)"/>
        <path id="DejaVuSans-36" d="M 2113 2584 
Q 1688 2584 1439 2293 
Q 1191 2003 1191 1497 
Q 1191 994 1439 701 
Q 1688 409 2113 409 
Q 2538 409 2786 701 
Q 3034 994 3034 1497 
Q 3034 2003 2786 2293 
Q 2538 2584 2113 2584 
z
M 3366 4563 
L 3366 3988 
Q 3128 4100 2886 4159 
Q 2644 4219 2406 4219 
Q 1781 4219 1451 3797 
Q 1122 3375 1075 2522 
Q 1259 2794 1537 2939 
Q 1816 3084 2150 3084 
Q 2853 3084 3261 2657 
Q 3669 2231 3669 1497 
Q 3669 778 3244 343 
Q 2819 -91 2113 -91 
Q 1303 -91 875 529 
Q 447 1150 447 2328 
Q 447 3434 972 4092 
Q 1497 4750 2381 4750 
Q 2619 4750 2861 4703 
Q 3103 4656 3366 4563 
z
" transform="scale(0.015625)"/>
        <path id="DejaVuSans-2e" d="M 684 794 
L 1344 794 
L 1344 0 
L 684 0 
L 684 794 
z
" transform="scale(0.015625)"/>
        <path id="DejaVuSans-30" d="M 2034 4250 
Q 1547 4250 1301 3770 
Q 1056 3291 1056 2328 
Q 1056 1369 1301 889 
Q 1547 409 2034 409 
Q 2525 409 2770 889 
Q 3016 1369 3016 2328 
Q 3016 3291 2770 3770 
Q 2525 4250 2034 4250 
z
M 2034 4750 
Q 2819 4750 3233 4129 
Q 3647 3509 3647 2328 
Q 3647 1150 3233 529 
Q 2819 -91 2034 -91 
Q 1250 -91 836 529 
Q 422 1150 422 2328 
Q 422 3509 836 4129 
Q 1250 4750 2034 4750 
z
" transform="scale(0.015625)"/>
       </defs>
       <use xlink:href="#DejaVuSans-2212"/>
       <use xlink:href="#DejaVuSans-36" x="83.789062"/>
       <use xlink:href="#DejaVuSans-2e" x="147.412109"/>
       <use xlink:href="#DejaVuSans-30" x="179.199219"/>
      </g>
     </g>
    </g>
    <g id="xtick_2">
     <g id="line2d_3">
      <path d="M 137.2545 373.12 
L 137.2545 16.2 
" clip-path="url(#pb588235166)" style="fill: none; stroke: #b0b0b0; stroke-width: 0.8; stroke-linecap: square"/>
     </g>
     <g id="line2d_4">
      <g>
       <use xlink:href="#m93dca063ff" x="137.2545" y="373.12" style="stroke: #000000; stroke-width: 0.8"/>
      </g>
     </g>
     <g id="text_2">
      <!-- −3.4 -->
      <g transform="translate(119.042391 391.517656) scale(0.15 -0.15)">
       <defs>
        <path id="DejaVuSans-33" d="M 2597 2516 
Q 3050 2419 3304 2112 
Q 3559 1806 3559 1356 
Q 3559 666 3084 287 
Q 2609 -91 1734 -91 
Q 1441 -91 1130 -33 
Q 819 25 488 141 
L 488 750 
Q 750 597 1062 519 
Q 1375 441 1716 441 
Q 2309 441 2620 675 
Q 2931 909 2931 1356 
Q 2931 1769 2642 2001 
Q 2353 2234 1838 2234 
L 1294 2234 
L 1294 2753 
L 1863 2753 
Q 2328 2753 2575 2939 
Q 2822 3125 2822 3475 
Q 2822 3834 2567 4026 
Q 2313 4219 1838 4219 
Q 1578 4219 1281 4162 
Q 984 4106 628 3988 
L 628 4550 
Q 988 4650 1302 4700 
Q 1616 4750 1894 4750 
Q 2613 4750 3031 4423 
Q 3450 4097 3450 3541 
Q 3450 3153 3228 2886 
Q 3006 2619 2597 2516 
z
" transform="scale(0.015625)"/>
        <path id="DejaVuSans-34" d="M 2419 4116 
L 825 1625 
L 2419 1625 
L 2419 4116 
z
M 2253 4666 
L 3047 4666 
L 3047 1625 
L 3713 1625 
L 3713 1100 
L 3047 1100 
L 3047 0 
L 2419 0 
L 2419 1100 
L 313 1100 
L 313 1709 
L 2253 4666 
z
" transform="scale(0.015625)"/>
       </defs>
       <use xlink:href="#DejaVuSans-2212"/>
       <use xlink:href="#DejaVuSans-33" x="83.789062"/>
       <use xlink:href="#DejaVuSans-2e" x="147.412109"/>
       <use xlink:href="#DejaVuSans-34" x="179.199219"/>
      </g>
     </g>
    </g>
    <g id="xtick_3">
     <g id="line2d_5">
      <path d="M 198.349 373.12 
L 198.349 16.2 
" clip-path="url(#pb588235166)" style="fill: none; stroke: #b0b0b0; stroke-width: 0.8; stroke-linecap: square"/>
     </g>
     <g id="line2d_6">
      <g>
       <use xlink:href="#m93dca063ff" x="198.349" y="373.12" style="stroke: #000000; stroke-width: 0.8"/>
      </g>
     </g>
     <g id="text_3">
      <!-- −0.8 -->
      <g transform="translate(180.136891 391.517656) scale(0.15 -0.15)">
       <defs>
        <path id="DejaVuSans-38" d="M 2034 2216 
Q 1584 2216 1326 1975 
Q 1069 1734 1069 1313 
Q 1069 891 1326 650 
Q 1584 409 2034 409 
Q 2484 409 2743 651 
Q 3003 894 3003 1313 
Q 3003 1734 2745 1975 
Q 2488 2216 2034 2216 
z
M 1403 2484 
Q 997 2584 770 2862 
Q 544 3141 544 3541 
Q 544 4100 942 4425 
Q 1341 4750 2034 4750 
Q 2731 4750 3128 4425 
Q 3525 4100 3525 3541 
Q 3525 3141 3298 2862 
Q 3072 2584 2669 2484 
Q 3125 2378 3379 2068 
Q 3634 1759 3634 1313 
Q 3634 634 3220 271 
Q 2806 -91 2034 -91 
Q 1263 -91 848 271 
Q 434 634 434 1313 
Q 434 1759 690 2068 
Q 947 2378 1403 2484 
z
M 1172 3481 
Q 1172 3119 1398 2916 
Q 1625 2713 2034 2713 
Q 2441 2713 2670 2916 
Q 2900 3119 2900 3481 
Q 2900 3844 2670 4047 
Q 2441 4250 2034 4250 
Q 1625 4250 1398 4047 
Q 1172 3844 1172 3481 
z
" transform="scale(0.015625)"/>
       </defs>
       <use xlink:href="#DejaVuSans-2212"/>
       <use xlink:href="#DejaVuSans-30" x="83.789062"/>
       <use xlink:href="#DejaVuSans-2e" x="147.412109"/>
       <use xlink:href="#DejaVuSans-38" x="179.199219"/>
      </g>
     </g>
    </g>
    <g id="xtick_4">
     <g id="line2d_7">
      <path d="M 259.4435 373.12 
L 259.4435 16.2 
" clip-path="url(#pb588235166)" style="fill: none; stroke: #b0b0b0; stroke-width: 0.8; stroke-linecap: square"/>
     </g>
     <g id="line2d_8">
      <g>
       <use xlink:href="#m93dca063ff" x="259.4435" y="373.12" style="stroke: #000000; stroke-width: 0.8"/>
      </g>
     </g>
     <g id="text_4">
      <!-- 1.8 -->
      <g transform="translate(247.516156 391.517656) scale(0.15 -0.15)">
       <defs>
        <path id="DejaVuSans-31" d="M 794 531 
L 1825 531 
L 1825 4091 
L 703 3866 
L 703 4441 
L 1819 4666 
L 2450 4666 
L 2450 531 
L 3481 531 
L 3481 0 
L 794 0 
L 794 531 
z
" transform="scale(0.015625)"/>
       </defs>
       <use xlink:href="#DejaVuSans-31"/>
       <use xlink:href="#DejaVuSans-2e" x="63.623047"/>
       <use xlink:href="#DejaVuSans-38" x="95.410156"/>
      </g>
     </g>
    </g>
    <g id="xtick_5">
     <g id="line2d_9">
      <path d="M 320.538 373.12 
L 320.538 16.2 
" clip-path="url(#pb588235166)" style="fill: none; stroke: #b0b0b0; stroke-width: 0.8; stroke-linecap: square"/>
     </g>
     <g id="line2d_10">
      <g>
       <use xlink:href="#m93dca063ff" x="320.538" y="373.12" style="stroke: #000000; stroke-width: 0.8"/>
      </g>
     </g>
     <g id="text_5">
      <!-- 4.4 -->
      <g transform="translate(308.610656 391.517656) scale(0.15 -0.15)">
       <use xlink:href="#DejaVuSans-34"/>
       <use xlink:href="#DejaVuSans-2e" x="63.623047"/>
       <use xlink:href="#DejaVuSans-34" x="95.410156"/>
      </g>
     </g>
    </g>
    <g id="xtick_6">
     <g id="line2d_11">
      <path d="M 381.6325 373.12 
L 381.6325 16.2 
" clip-path="url(#pb588235166)" style="fill: none; stroke: #b0b0b0; stroke-width: 0.8; stroke-linecap: square"/>
     </g>
     <g id="line2d_12">
      <g>
       <use xlink:href="#m93dca063ff" x="381.6325" y="373.12" style="stroke: #000000; stroke-width: 0.8"/>
      </g>
     </g>
     <g id="text_6">
      <!-- 7.0 -->
      <g transform="translate(369.705156 391.517656) scale(0.15 -0.15)">
       <defs>
        <path id="DejaVuSans-37" d="M 525 4666 
L 3525 4666 
L 3525 4397 
L 1831 0 
L 1172 0 
L 2766 4134 
L 525 4134 
L 525 4666 
z
" transform="scale(0.015625)"/>
       </defs>
       <use xlink:href="#DejaVuSans-37"/>
       <use xlink:href="#DejaVuSans-2e" x="63.623047"/>
       <use xlink:href="#DejaVuSans-30" x="95.410156"/>
      </g>
     </g>
    </g>
    <g id="xtick_7">
     <g id="line2d_13">
      <path d="M 442.727 373.12 
L 442.727 16.2 
" clip-path="url(#pb588235166)" style="fill: none; stroke: #b0b0b0; stroke-width: 0.8; stroke-linecap: square"/>
     </g>
     <g id="line2d_14">
      <g>
       <use xlink:href="#m93dca063ff" x="442.727" y="373.12" style="stroke: #000000; stroke-width: 0.8"/>
      </g>
     </g>
     <g id="text_7">
      <!-- 9.6 -->
      <g transform="translate(430.799656 391.517656) scale(0.15 -0.15)">
       <defs>
        <path id="DejaVuSans-39" d="M 703 97 
L 703 672 
Q 941 559 1184 500 
Q 1428 441 1663 441 
Q 2288 441 2617 861 
Q 2947 1281 2994 2138 
Q 2813 1869 2534 1725 
Q 2256 1581 1919 1581 
Q 1219 1581 811 2004 
Q 403 2428 403 3163 
Q 403 3881 828 4315 
Q 1253 4750 1959 4750 
Q 2769 4750 3195 4129 
Q 3622 3509 3622 2328 
Q 3622 1225 3098 567 
Q 2575 -91 1691 -91 
Q 1453 -91 1209 -44 
Q 966 3 703 97 
z
M 1959 2075 
Q 2384 2075 2632 2365 
Q 2881 2656 2881 3163 
Q 2881 3666 2632 3958 
Q 2384 4250 1959 4250 
Q 1534 4250 1286 3958 
Q 1038 3666 1038 3163 
Q 1038 2656 1286 2365 
Q 1534 2075 1959 2075 
z
" transform="scale(0.015625)"/>
       </defs>
       <use xlink:href="#DejaVuSans-39"/>
       <use xlink:href="#DejaVuSans-2e" x="63.623047"/>
       <use xlink:href="#DejaVuSans-36" x="95.410156"/>
      </g>
     </g>
    </g>
    <g id="xtick_8">
     <g id="line2d_15">
      <path d="M 503.8215 373.12 
L 503.8215 16.2 
" clip-path="url(#pb588235166)" style="fill: none; stroke: #b0b0b0; stroke-width: 0.8; stroke-linecap: square"/>
     </g>
     <g id="line2d_16">
      <g>
       <use xlink:href="#m93dca063ff" x="503.8215" y="373.12" style="stroke: #000000; stroke-width: 0.8"/>
      </g>
     </g>
     <g id="text_8">
      <!-- 12.2 -->
      <g transform="translate(487.122281 391.517656) scale(0.15 -0.15)">
       <defs>
        <path id="DejaVuSans-32" d="M 1228 531 
L 3431 531 
L 3431 0 
L 469 0 
L 469 531 
Q 828 903 1448 1529 
Q 2069 2156 2228 2338 
Q 2531 2678 2651 2914 
Q 2772 3150 2772 3378 
Q 2772 3750 2511 3984 
Q 2250 4219 1831 4219 
Q 1534 4219 1204 4116 
Q 875 4013 500 3803 
L 500 4441 
Q 881 4594 1212 4672 
Q 1544 4750 1819 4750 
Q 2544 4750 2975 4387 
Q 3406 4025 3406 3419 
Q 3406 3131 3298 2873 
Q 3191 2616 2906 2266 
Q 2828 2175 2409 1742 
Q 1991 1309 1228 531 
z
" transform="scale(0.015625)"/>
       </defs>
       <use xlink:href="#DejaVuSans-31"/>
       <use xlink:href="#DejaVuSans-32" x="63.623047"/>
       <use xlink:href="#DejaVuSans-2e" x="127.246094"/>
       <use xlink:href="#DejaVuSans-32" x="159.033203"/>
      </g>
     </g>
    </g>
    <g id="xtick_9">
     <g id="line2d_17">
      <path d="M 564.916 373.12 
L 564.916 16.2 
" clip-path="url(#pb588235166)" style="fill: none; stroke: #b0b0b0; stroke-width: 0.8; stroke-linecap: square"/>
     </g>
     <g id="line2d_18">
      <g>
       <use xlink:href="#m93dca063ff" x="564.916" y="373.12" style="stroke: #000000; stroke-width: 0.8"/>
      </g>
     </g>
     <g id="text_9">
      <!-- 14.8 -->
      <g transform="translate(548.216781 391.517656) scale(0.15 -0.15)">
       <use xlink:href="#DejaVuSans-31"/>
       <use xlink:href="#DejaVuSans-34" x="63.623047"/>
       <use xlink:href="#DejaVuSans-2e" x="127.246094"/>
       <use xlink:href="#DejaVuSans-38" x="159.033203"/>
      </g>
     </g>
    </g>
    <g id="xtick_10">
     <g id="line2d_19">
      <path d="M 626.0105 373.12 
L 626.0105 16.2 
" clip-path="url(#pb588235166)" style="fill: none; stroke: #b0b0b0; stroke-width: 0.8; stroke-linecap: square"/>
     </g>
     <g id="line2d_20">
      <g>
       <use xlink:href="#m93dca063ff" x="626.0105" y="373.12" style="stroke: #000000; stroke-width: 0.8"/>
      </g>
     </g>
     <g id="text_10">
      <!-- 17.4 -->
      <g transform="translate(609.311281 391.517656) scale(0.15 -0.15)">
       <use xlink:href="#DejaVuSans-31"/>
       <use xlink:href="#DejaVuSans-37" x="63.623047"/>
       <use xlink:href="#DejaVuSans-2e" x="127.246094"/>
       <use xlink:href="#DejaVuSans-34" x="159.033203"/>
      </g>
     </g>
    </g>
    <g id="xtick_11">
     <g id="line2d_21">
      <path d="M 687.105 373.12 
L 687.105 16.2 
" clip-path="url(#pb588235166)" style="fill: none; stroke: #b0b0b0; stroke-width: 0.8; stroke-linecap: square"/>
     </g>
     <g id="line2d_22">
      <g>
       <use xlink:href="#m93dca063ff" x="687.105" y="373.12" style="stroke: #000000; stroke-width: 0.8"/>
      </g>
     </g>
     <g id="text_11">
      <!-- 20.0 -->
      <g transform="translate(670.405781 391.517656) scale(0.15 -0.15)">
       <use xlink:href="#DejaVuSans-32"/>
       <use xlink:href="#DejaVuSans-30" x="63.623047"/>
       <use xlink:href="#DejaVuSans-2e" x="127.246094"/>
       <use xlink:href="#DejaVuSans-30" x="159.033203"/>
      </g>
     </g>
    </g>
    <g id="text_12">
     <!-- $\alpha$ [deg] -->
     <g transform="translate(354.2575 410.037188) scale(0.15 -0.15)">
      <defs>
       <path id="DejaVuSans-Oblique-3b1" d="M 2619 1628 
L 2622 2350 
Q 2625 3088 2069 3091 
Q 1653 3094 1394 2747 
Q 1069 2319 959 1747 
Q 825 1059 994 731 
Q 1169 397 1547 397 
Q 1966 397 2319 1063 
L 2619 1628 
z
M 2166 3578 
Q 3141 3594 3128 2584 
Q 3128 2584 3616 3500 
L 4128 3500 
L 3119 1603 
L 3109 919 
Q 3109 766 3194 638 
Q 3291 488 3391 488 
L 3669 488 
L 3575 0 
L 3228 0 
Q 2934 0 2722 263 
Q 2622 394 2619 669 
Q 2416 334 2066 50 
Q 1900 -81 1453 -78 
Q 722 -72 456 397 
Q 184 884 353 1747 
Q 534 2675 1009 3097 
Q 1544 3569 2166 3578 
z
" transform="scale(0.015625)"/>
       <path id="DejaVuSans-20" transform="scale(0.015625)"/>
       <path id="DejaVuSans-5b" d="M 550 4863 
L 1875 4863 
L 1875 4416 
L 1125 4416 
L 1125 -397 
L 1875 -397 
L 1875 -844 
L 550 -844 
L 550 4863 
z
" transform="scale(0.015625)"/>
       <path id="DejaVuSans-64" d="M 2906 2969 
L 2906 4863 
L 3481 4863 
L 3481 0 
L 2906 0 
L 2906 525 
Q 2725 213 2448 61 
Q 2172 -91 1784 -91 
Q 1150 -91 751 415 
Q 353 922 353 1747 
Q 353 2572 751 3078 
Q 1150 3584 1784 3584 
Q 2172 3584 2448 3432 
Q 2725 3281 2906 2969 
z
M 947 1747 
Q 947 1113 1208 752 
Q 1469 391 1925 391 
Q 2381 391 2643 752 
Q 2906 1113 2906 1747 
Q 2906 2381 2643 2742 
Q 2381 3103 1925 3103 
Q 1469 3103 1208 2742 
Q 947 2381 947 1747 
z
" transform="scale(0.015625)"/>
       <path id="DejaVuSans-65" d="M 3597 1894 
L 3597 1613 
L 953 1613 
Q 991 1019 1311 708 
Q 1631 397 2203 397 
Q 2534 397 2845 478 
Q 3156 559 3463 722 
L 3463 178 
Q 3153 47 2828 -22 
Q 2503 -91 2169 -91 
Q 1331 -91 842 396 
Q 353 884 353 1716 
Q 353 2575 817 3079 
Q 1281 3584 2069 3584 
Q 2775 3584 3186 3129 
Q 3597 2675 3597 1894 
z
M 3022 2063 
Q 3016 2534 2758 2815 
Q 2500 3097 2075 3097 
Q 1594 3097 1305 2825 
Q 1016 2553 972 2059 
L 3022 2063 
z
" transform="scale(0.015625)"/>
       <path id="DejaVuSans-67" d="M 2906 1791 
Q 2906 2416 2648 2759 
Q 2391 3103 1925 3103 
Q 1463 3103 1205 2759 
Q 947 2416 947 1791 
Q 947 1169 1205 825 
Q 1463 481 1925 481 
Q 2391 481 2648 825 
Q 2906 1169 2906 1791 
z
M 3481 434 
Q 3481 -459 3084 -895 
Q 2688 -1331 1869 -1331 
Q 1566 -1331 1297 -1286 
Q 1028 -1241 775 -1147 
L 775 -588 
Q 1028 -725 1275 -790 
Q 1522 -856 1778 -856 
Q 2344 -856 2625 -561 
Q 2906 -266 2906 331 
L 2906 616 
Q 2728 306 2450 153 
Q 2172 0 1784 0 
Q 1141 0 747 490 
Q 353 981 353 1791 
Q 353 2603 747 3093 
Q 1141 3584 1784 3584 
Q 2172 3584 2450 3431 
Q 2728 3278 2906 2969 
L 2906 3500 
L 3481 3500 
L 3481 434 
z
" transform="scale(0.015625)"/>
       <path id="DejaVuSans-5d" d="M 1947 4863 
L 1947 -844 
L 622 -844 
L 622 -397 
L 1369 -397 
L 1369 4416 
L 622 4416 
L 622 4863 
L 1947 4863 
z
" transform="scale(0.015625)"/>
      </defs>
      <use xlink:href="#DejaVuSans-Oblique-3b1" transform="translate(0 0.015625)"/>
      <use xlink:href="#DejaVuSans-20" transform="translate(65.917969 0.015625)"/>
      <use xlink:href="#DejaVuSans-5b" transform="translate(97.705078 0.015625)"/>
      <use xlink:href="#DejaVuSans-64" transform="translate(136.71875 0.015625)"/>
      <use xlink:href="#DejaVuSans-65" transform="translate(200.195312 0.015625)"/>
      <use xlink:href="#DejaVuSans-67" transform="translate(261.71875 0.015625)"/>
      <use xlink:href="#DejaVuSans-5d" transform="translate(325.195312 0.015625)"/>
     </g>
    </g>
   </g>
   <g id="matplotlib.axis_2">
    <g id="ytick_1">
     <g id="line2d_23">
      <path d="M 76.16 357.652688 
L 687.105 357.652688 
" clip-path="url(#pb588235166)" style="fill: none; stroke: #b0b0b0; stroke-width: 0.8; stroke-linecap: square"/>
     </g>
     <g id="line2d_24">
      <defs>
       <path id="mb5ed45cf3e" d="M 0 0 
L -3.5 0 
" style="stroke: #000000; stroke-width: 0.8"/>
      </defs>
      <g>
       <use xlink:href="#mb5ed45cf3e" x="76.16" y="357.652688" style="stroke: #000000; stroke-width: 0.8"/>
      </g>
     </g>
     <g id="text_13">
      <!-- −35 -->
      <g transform="translate(37.502969 363.351516) scale(0.15 -0.15)">
       <defs>
        <path id="DejaVuSans-35" d="M 691 4666 
L 3169 4666 
L 3169 4134 
L 1269 4134 
L 1269 2991 
Q 1406 3038 1543 3061 
Q 1681 3084 1819 3084 
Q 2600 3084 3056 2656 
Q 3513 2228 3513 1497 
Q 3513 744 3044 326 
Q 2575 -91 1722 -91 
Q 1428 -91 1123 -41 
Q 819 9 494 109 
L 494 744 
Q 775 591 1075 516 
Q 1375 441 1709 441 
Q 2250 441 2565 725 
Q 2881 1009 2881 1497 
Q 2881 1984 2565 2268 
Q 2250 2553 1709 2553 
Q 1456 2553 1204 2497 
Q 953 2441 691 2322 
L 691 4666 
z
" transform="scale(0.015625)"/>
       </defs>
       <use xlink:href="#DejaVuSans-2212"/>
       <use xlink:href="#DejaVuSans-33" x="83.789062"/>
       <use xlink:href="#DejaVuSans-35" x="147.412109"/>
      </g>
     </g>
    </g>
    <g id="ytick_2">
     <g id="line2d_25">
      <path d="M 76.16 317.937626 
L 687.105 317.937626 
" clip-path="url(#pb588235166)" style="fill: none; stroke: #b0b0b0; stroke-width: 0.8; stroke-linecap: square"/>
     </g>
     <g id="line2d_26">
      <g>
       <use xlink:href="#mb5ed45cf3e" x="76.16" y="317.937626" style="stroke: #000000; stroke-width: 0.8"/>
      </g>
     </g>
     <g id="text_14">
      <!-- −30 -->
      <g transform="translate(37.502969 323.636455) scale(0.15 -0.15)">
       <use xlink:href="#DejaVuSans-2212"/>
       <use xlink:href="#DejaVuSans-33" x="83.789062"/>
       <use xlink:href="#DejaVuSans-30" x="147.412109"/>
      </g>
     </g>
    </g>
    <g id="ytick_3">
     <g id="line2d_27">
      <path d="M 76.16 278.222565 
L 687.105 278.222565 
" clip-path="url(#pb588235166)" style="fill: none; stroke: #b0b0b0; stroke-width: 0.8; stroke-linecap: square"/>
     </g>
     <g id="line2d_28">
      <g>
       <use xlink:href="#mb5ed45cf3e" x="76.16" y="278.222565" style="stroke: #000000; stroke-width: 0.8"/>
      </g>
     </g>
     <g id="text_15">
      <!-- −25 -->
      <g transform="translate(37.502969 283.921393) scale(0.15 -0.15)">
       <use xlink:href="#DejaVuSans-2212"/>
       <use xlink:href="#DejaVuSans-32" x="83.789062"/>
       <use xlink:href="#DejaVuSans-35" x="147.412109"/>
      </g>
     </g>
    </g>
    <g id="ytick_4">
     <g id="line2d_29">
      <path d="M 76.16 238.507503 
L 687.105 238.507503 
" clip-path="url(#pb588235166)" style="fill: none; stroke: #b0b0b0; stroke-width: 0.8; stroke-linecap: square"/>
     </g>
     <g id="line2d_30">
      <g>
       <use xlink:href="#mb5ed45cf3e" x="76.16" y="238.507503" style="stroke: #000000; stroke-width: 0.8"/>
      </g>
     </g>
     <g id="text_16">
      <!-- −20 -->
      <g transform="translate(37.502969 244.206331) scale(0.15 -0.15)">
       <use xlink:href="#DejaVuSans-2212"/>
       <use xlink:href="#DejaVuSans-32" x="83.789062"/>
       <use xlink:href="#DejaVuSans-30" x="147.412109"/>
      </g>
     </g>
    </g>
    <g id="ytick_5">
     <g id="line2d_31">
      <path d="M 76.16 198.792442 
L 687.105 198.792442 
" clip-path="url(#pb588235166)" style="fill: none; stroke: #b0b0b0; stroke-width: 0.8; stroke-linecap: square"/>
     </g>
     <g id="line2d_32">
      <g>
       <use xlink:href="#mb5ed45cf3e" x="76.16" y="198.792442" style="stroke: #000000; stroke-width: 0.8"/>
      </g>
     </g>
     <g id="text_17">
      <!-- −15 -->
      <g transform="translate(37.502969 204.49127) scale(0.15 -0.15)">
       <use xlink:href="#DejaVuSans-2212"/>
       <use xlink:href="#DejaVuSans-31" x="83.789062"/>
       <use xlink:href="#DejaVuSans-35" x="147.412109"/>
      </g>
     </g>
    </g>
    <g id="ytick_6">
     <g id="line2d_33">
      <path d="M 76.16 159.07738 
L 687.105 159.07738 
" clip-path="url(#pb588235166)" style="fill: none; stroke: #b0b0b0; stroke-width: 0.8; stroke-linecap: square"/>
     </g>
     <g id="line2d_34">
      <g>
       <use xlink:href="#mb5ed45cf3e" x="76.16" y="159.07738" style="stroke: #000000; stroke-width: 0.8"/>
      </g>
     </g>
     <g id="text_18">
      <!-- −10 -->
      <g transform="translate(37.502969 164.776208) scale(0.15 -0.15)">
       <use xlink:href="#DejaVuSans-2212"/>
       <use xlink:href="#DejaVuSans-31" x="83.789062"/>
       <use xlink:href="#DejaVuSans-30" x="147.412109"/>
      </g>
     </g>
    </g>
    <g id="ytick_7">
     <g id="line2d_35">
      <path d="M 76.16 119.362319 
L 687.105 119.362319 
" clip-path="url(#pb588235166)" style="fill: none; stroke: #b0b0b0; stroke-width: 0.8; stroke-linecap: square"/>
     </g>
     <g id="line2d_36">
      <g>
       <use xlink:href="#mb5ed45cf3e" x="76.16" y="119.362319" style="stroke: #000000; stroke-width: 0.8"/>
      </g>
     </g>
     <g id="text_19">
      <!-- −5 -->
      <g transform="translate(47.046719 125.061147) scale(0.15 -0.15)">
       <use xlink:href="#DejaVuSans-2212"/>
       <use xlink:href="#DejaVuSans-35" x="83.789062"/>
      </g>
     </g>
    </g>
    <g id="ytick_8">
     <g id="line2d_37">
      <path d="M 76.16 79.647257 
L 687.105 79.647257 
" clip-path="url(#pb588235166)" style="fill: none; stroke: #b0b0b0; stroke-width: 0.8; stroke-linecap: square"/>
     </g>
     <g id="line2d_38">
      <g>
       <use xlink:href="#mb5ed45cf3e" x="76.16" y="79.647257" style="stroke: #000000; stroke-width: 0.8"/>
      </g>
     </g>
     <g id="text_20">
      <!-- 0 -->
      <g transform="translate(59.61625 85.346085) scale(0.15 -0.15)">
       <use xlink:href="#DejaVuSans-30"/>
      </g>
     </g>
    </g>
    <g id="ytick_9">
     <g id="line2d_39">
      <path d="M 76.16 39.932196 
L 687.105 39.932196 
" clip-path="url(#pb588235166)" style="fill: none; stroke: #b0b0b0; stroke-width: 0.8; stroke-linecap: square"/>
     </g>
     <g id="line2d_40">
      <g>
       <use xlink:href="#mb5ed45cf3e" x="76.16" y="39.932196" style="stroke: #000000; stroke-width: 0.8"/>
      </g>
     </g>
     <g id="text_21">
      <!-- 5 -->
      <g transform="translate(59.61625 45.631024) scale(0.15 -0.15)">
       <use xlink:href="#DejaVuSans-35"/>
      </g>
     </g>
    </g>
    <g id="text_22">
     <!-- $\delta_e$ [deg] (trim) -->
     <g transform="translate(30.352969 248.735) rotate(-90) scale(0.15 -0.15)">
      <defs>
       <path id="DejaVuSans-Oblique-3b4" d="M 3472 4053 
Q 3197 4272 2450 4272 
Q 1659 4272 1588 3906 
Q 1531 3619 2328 3469 
Q 2953 3353 3253 3003 
Q 3616 2581 3447 1716 
Q 3284 888 2763 400 
Q 2238 -91 1488 -91 
Q 741 -91 406 400 
Q 72 888 241 1747 
Q 363 2384 891 2900 
Q 1097 3100 1353 3213 
Q 913 3459 1000 3900 
Q 1166 4750 2544 4750 
Q 3234 4750 3566 4531 
L 3472 4053 
z
M 1753 3056 
Q 1525 2966 1306 2738 
Q 969 2384 847 1747 
Q 722 1113 919 756 
Q 1119 397 1584 397 
Q 2044 397 2381 759 
Q 2722 1122 2838 1716 
Q 2956 2338 2731 2638 
Q 2491 2959 2103 2994 
Q 1906 3013 1753 3056 
z
" transform="scale(0.015625)"/>
       <path id="DejaVuSans-Oblique-65" d="M 3078 2063 
Q 3088 2113 3092 2166 
Q 3097 2219 3097 2272 
Q 3097 2653 2873 2875 
Q 2650 3097 2266 3097 
Q 1838 3097 1509 2826 
Q 1181 2556 1013 2059 
L 3078 2063 
z
M 3578 1613 
L 903 1613 
Q 884 1494 878 1425 
Q 872 1356 872 1306 
Q 872 872 1139 634 
Q 1406 397 1894 397 
Q 2269 397 2603 481 
Q 2938 566 3225 728 
L 3116 159 
Q 2806 34 2476 -28 
Q 2147 -91 1806 -91 
Q 1078 -91 686 257 
Q 294 606 294 1247 
Q 294 1794 489 2264 
Q 684 2734 1063 3103 
Q 1306 3334 1642 3459 
Q 1978 3584 2356 3584 
Q 2950 3584 3301 3228 
Q 3653 2872 3653 2272 
Q 3653 2128 3634 1964 
Q 3616 1800 3578 1613 
z
" transform="scale(0.015625)"/>
       <path id="DejaVuSans-28" d="M 1984 4856 
Q 1566 4138 1362 3434 
Q 1159 2731 1159 2009 
Q 1159 1288 1364 580 
Q 1569 -128 1984 -844 
L 1484 -844 
Q 1016 -109 783 600 
Q 550 1309 550 2009 
Q 550 2706 781 3412 
Q 1013 4119 1484 4856 
L 1984 4856 
z
" transform="scale(0.015625)"/>
       <path id="DejaVuSans-74" d="M 1172 4494 
L 1172 3500 
L 2356 3500 
L 2356 3053 
L 1172 3053 
L 1172 1153 
Q 1172 725 1289 603 
Q 1406 481 1766 481 
L 2356 481 
L 2356 0 
L 1766 0 
Q 1100 0 847 248 
Q 594 497 594 1153 
L 594 3053 
L 172 3053 
L 172 3500 
L 594 3500 
L 594 4494 
L 1172 4494 
z
" transform="scale(0.015625)"/>
       <path id="DejaVuSans-72" d="M 2631 2963 
Q 2534 3019 2420 3045 
Q 2306 3072 2169 3072 
Q 1681 3072 1420 2755 
Q 1159 2438 1159 1844 
L 1159 0 
L 581 0 
L 581 3500 
L 1159 3500 
L 1159 2956 
Q 1341 3275 1631 3429 
Q 1922 3584 2338 3584 
Q 2397 3584 2469 3576 
Q 2541 3569 2628 3553 
L 2631 2963 
z
" transform="scale(0.015625)"/>
       <path id="DejaVuSans-69" d="M 603 3500 
L 1178 3500 
L 1178 0 
L 603 0 
L 603 3500 
z
M 603 4863 
L 1178 4863 
L 1178 4134 
L 603 4134 
L 603 4863 
z
" transform="scale(0.015625)"/>
       <path id="DejaVuSans-6d" d="M 3328 2828 
Q 3544 3216 3844 3400 
Q 4144 3584 4550 3584 
Q 5097 3584 5394 3201 
Q 5691 2819 5691 2113 
L 5691 0 
L 5113 0 
L 5113 2094 
Q 5113 2597 4934 2840 
Q 4756 3084 4391 3084 
Q 3944 3084 3684 2787 
Q 3425 2491 3425 1978 
L 3425 0 
L 2847 0 
L 2847 2094 
Q 2847 2600 2669 2842 
Q 2491 3084 2119 3084 
Q 1678 3084 1418 2786 
Q 1159 2488 1159 1978 
L 1159 0 
L 581 0 
L 581 3500 
L 1159 3500 
L 1159 2956 
Q 1356 3278 1631 3431 
Q 1906 3584 2284 3584 
Q 2666 3584 2933 3390 
Q 3200 3197 3328 2828 
z
" transform="scale(0.015625)"/>
       <path id="DejaVuSans-29" d="M 513 4856 
L 1013 4856 
Q 1481 4119 1714 3412 
Q 1947 2706 1947 2009 
Q 1947 1309 1714 600 
Q 1481 -109 1013 -844 
L 513 -844 
Q 928 -128 1133 580 
Q 1338 1288 1338 2009 
Q 1338 2731 1133 3434 
Q 928 4138 513 4856 
z
" transform="scale(0.015625)"/>
      </defs>
      <use xlink:href="#DejaVuSans-Oblique-3b4" transform="translate(0 0.015625)"/>
      <use xlink:href="#DejaVuSans-Oblique-65" transform="translate(61.181641 -16.390625) scale(0.7)"/>
      <use xlink:href="#DejaVuSans-20" transform="translate(106.982422 0.015625)"/>
      <use xlink:href="#DejaVuSans-5b" transform="translate(138.769531 0.015625)"/>
      <use xlink:href="#DejaVuSans-64" transform="translate(177.783203 0.015625)"/>
      <use xlink:href="#DejaVuSans-65" transform="translate(241.259766 0.015625)"/>
      <use xlink:href="#DejaVuSans-67" transform="translate(302.783203 0.015625)"/>
      <use xlink:href="#DejaVuSans-5d" transform="translate(366.259766 0.015625)"/>
      <use xlink:href="#DejaVuSans-20" transform="translate(405.273438 0.015625)"/>
      <use xlink:href="#DejaVuSans-28" transform="translate(437.060547 0.015625)"/>
      <use xlink:href="#DejaVuSans-74" transform="translate(476.074219 0.015625)"/>
      <use xlink:href="#DejaVuSans-72" transform="translate(515.283203 0.015625)"/>
      <use xlink:href="#DejaVuSans-69" transform="translate(556.396484 0.015625)"/>
      <use xlink:href="#DejaVuSans-6d" transform="translate(584.179688 0.015625)"/>
      <use xlink:href="#DejaVuSans-29" transform="translate(681.591797 0.015625)"/>
     </g>
    </g>
   </g>
   <g id="line2d_41">
    <path d="M 76.16 55.333106 
L 82.331162 55.097694 
L 88.502323 54.925818 
L 94.673485 54.817478 
L 100.844646 54.772673 
L 107.015808 54.791404 
L 113.18697 54.873671 
L 119.358131 55.019474 
L 125.529293 55.228813 
L 131.700455 55.501687 
L 137.871616 55.838097 
L 144.042778 56.238044 
L 150.213939 56.701525 
L 156.385101 57.228543 
L 162.556263 57.819097 
L 168.727424 58.473186 
L 174.898586 59.190811 
L 181.069747 59.971972 
L 187.240909 60.816669 
L 193.412071 61.724901 
L 199.583232 62.696669 
L 205.754394 63.731973 
L 211.925556 64.830813 
L 218.096717 65.993189 
L 224.267879 67.219101 
L 230.43904 68.508548 
L 236.610202 69.861531 
L 242.781364 71.27805 
L 248.952525 72.758105 
L 255.123687 74.301695 
L 261.294848 75.908822 
L 267.46601 77.579484 
L 273.637172 79.313682 
L 279.808333 81.111415 
L 285.979495 82.972685 
L 292.150657 84.89749 
L 298.321818 86.885831 
L 304.49298 88.937708 
L 310.664141 91.053121 
L 316.835303 93.23207 
L 323.006465 95.474554 
L 329.177626 97.780574 
L 335.348788 100.15013 
L 341.519949 102.583222 
L 347.691111 105.07985 
L 353.862273 107.640013 
L 360.033434 110.263712 
L 366.204596 112.950947 
L 372.375758 115.701718 
L 378.546919 118.516025 
L 384.718081 121.393867 
L 390.889242 124.335245 
L 397.060404 127.340159 
L 403.231566 130.408609 
L 409.402727 133.540595 
L 415.573889 136.736116 
L 421.745051 139.995174 
L 427.916212 143.317767 
L 434.087374 146.703895 
L 440.258535 150.15356 
L 446.429697 153.666761 
L 452.600859 157.243497 
L 458.77202 160.883769 
L 464.943182 164.587577 
L 471.114343 168.35492 
L 477.285505 172.1858 
L 483.456667 176.080215 
L 489.627828 180.038166 
L 495.79899 184.059653 
L 501.970152 188.144676 
L 508.141313 192.293234 
L 514.312475 196.505329 
L 520.483636 200.780959 
L 526.654798 205.120125 
L 532.82596 209.522826 
L 538.997121 213.989064 
L 545.168283 218.518837 
L 551.339444 223.112146 
L 557.510606 227.768991 
L 563.681768 232.489372 
L 569.852929 237.273289 
L 576.024091 242.120741 
L 582.195253 247.031729 
L 588.366414 252.006253 
L 594.537576 257.044313 
L 600.708737 262.145908 
L 606.879899 267.31104 
L 613.051061 272.539707 
L 619.222222 277.83191 
L 625.393384 283.187649 
L 631.564545 288.606923 
L 637.735707 294.089733 
L 643.906869 299.63608 
L 650.07803 305.245962 
L 656.249192 310.919379 
L 662.420354 316.656333 
L 668.591515 322.456822 
L 674.762677 328.320848 
L 680.933838 334.248409 
L 687.105 340.239505 
" clip-path="url(#pb588235166)" style="fill: none; stroke-dasharray: 9.6,2.4,1.5,2.4; stroke-dashoffset: 0; stroke: #00a6b6; stroke-width: 1.5"/>
   </g>
   <g id="line2d_42">
    <path d="M 76.16 51.497666 
L 82.331162 51.281944 
L 88.502323 51.1285 
L 94.673485 51.037332 
L 100.844646 51.008442 
L 107.015808 51.041829 
L 113.18697 51.137493 
L 119.358131 51.295433 
L 125.529293 51.515651 
L 131.700455 51.798146 
L 137.871616 52.142918 
L 144.042778 52.549968 
L 150.213939 53.019294 
L 156.385101 53.550897 
L 162.556263 54.144777 
L 168.727424 54.800935 
L 174.898586 55.519369 
L 181.069747 56.300081 
L 187.240909 57.143069 
L 193.412071 58.048335 
L 199.583232 59.015878 
L 205.754394 60.045697 
L 211.925556 61.137794 
L 218.096717 62.292168 
L 224.267879 63.508819 
L 230.43904 64.787747 
L 236.610202 66.128952 
L 242.781364 67.532434 
L 248.952525 68.998194 
L 255.123687 70.52623 
L 261.294848 72.116543 
L 267.46601 73.769134 
L 273.637172 75.484001 
L 279.808333 77.261146 
L 285.979495 79.100567 
L 292.150657 81.002266 
L 298.321818 82.966242 
L 304.49298 84.992494 
L 310.664141 87.081024 
L 316.835303 89.231831 
L 323.006465 91.444915 
L 329.177626 93.720276 
L 335.348788 96.057914 
L 341.519949 98.457829 
L 347.691111 100.920022 
L 353.862273 103.444491 
L 360.033434 106.031237 
L 366.204596 108.680261 
L 372.375758 111.391561 
L 378.546919 114.165139 
L 384.718081 117.000993 
L 390.889242 119.899125 
L 397.060404 122.859534 
L 403.231566 125.88222 
L 409.402727 128.967183 
L 415.573889 132.114423 
L 421.745051 135.32394 
L 427.916212 138.595734 
L 434.087374 141.929805 
L 440.258535 145.326153 
L 446.429697 148.784778 
L 452.600859 152.305681 
L 458.77202 155.88886 
L 464.943182 159.534316 
L 471.114343 163.24205 
L 477.285505 167.01206 
L 483.456667 170.844348 
L 489.627828 174.738913 
L 495.79899 178.695755 
L 501.970152 182.714873 
L 508.141313 186.796269 
L 514.312475 190.939942 
L 520.483636 195.145892 
L 526.654798 199.414119 
L 532.82596 203.744624 
L 538.997121 208.137405 
L 545.168283 212.592463 
L 551.339444 217.109798 
L 557.510606 221.689411 
L 563.681768 226.3313 
L 569.852929 231.035467 
L 576.024091 235.80191 
L 582.195253 240.630631 
L 588.366414 245.521629 
L 594.537576 250.474904 
L 600.708737 255.490456 
L 606.879899 260.568284 
L 613.051061 265.70839 
L 619.222222 270.910774 
L 625.393384 276.175434 
L 631.564545 281.502371 
L 637.735707 286.891585 
L 643.906869 292.343076 
L 650.07803 297.856845 
L 656.249192 303.43289 
L 662.420354 309.071213 
L 668.591515 314.771812 
L 674.762677 320.534689 
L 680.933838 326.359843 
L 687.105 332.247273 
" clip-path="url(#pb588235166)" style="fill: none; stroke-dasharray: 9.6,2.4,1.5,2.4; stroke-dashoffset: 0; stroke: #a50034; stroke-width: 1.5"/>
   </g>
   <g id="line2d_43">
    <path d="M 76.16 34.564333 
L 82.331162 34.067779 
L 88.502323 33.636645 
L 94.673485 33.270929 
L 100.844646 32.970632 
L 107.015808 32.735755 
L 113.18697 32.566296 
L 119.358131 32.462257 
L 125.529293 32.423636 
L 131.700455 32.450435 
L 137.871616 32.542653 
L 144.042778 32.700289 
L 150.213939 32.923345 
L 156.385101 33.211819 
L 162.556263 33.565713 
L 168.727424 33.985026 
L 174.898586 34.469758 
L 181.069747 35.019908 
L 187.240909 35.635478 
L 193.412071 36.316467 
L 199.583232 37.062875 
L 205.754394 37.874702 
L 211.925556 38.751948 
L 218.096717 39.694612 
L 224.267879 40.702696 
L 230.43904 41.776199 
L 236.610202 42.915121 
L 242.781364 44.119462 
L 248.952525 45.389222 
L 255.123687 46.724401 
L 261.294848 48.125 
L 267.46601 49.591017 
L 273.637172 51.122453 
L 279.808333 52.719308 
L 285.979495 54.381582 
L 292.150657 56.109275 
L 298.321818 57.902388 
L 304.49298 59.760919 
L 310.664141 61.684869 
L 316.835303 63.674239 
L 323.006465 65.729027 
L 329.177626 67.849234 
L 335.348788 70.034861 
L 341.519949 72.285906 
L 347.691111 74.602371 
L 353.862273 76.984254 
L 360.033434 79.431557 
L 366.204596 81.944278 
L 372.375758 84.522419 
L 378.546919 87.165978 
L 384.718081 89.874957 
L 390.889242 92.649355 
L 397.060404 95.489171 
L 403.231566 98.394407 
L 409.402727 101.365062 
L 415.573889 104.401135 
L 421.745051 107.502628 
L 427.916212 110.66954 
L 434.087374 113.901871 
L 440.258535 117.199621 
L 446.429697 120.562789 
L 452.600859 123.991377 
L 458.77202 127.485384 
L 464.943182 131.04481 
L 471.114343 134.669655 
L 477.285505 138.359919 
L 483.456667 142.115602 
L 489.627828 145.936704 
L 495.79899 149.823225 
L 501.970152 153.775165 
L 508.141313 157.792524 
L 514.312475 161.875303 
L 520.483636 166.0235 
L 526.654798 170.237116 
L 532.82596 174.516151 
L 538.997121 178.860605 
L 545.168283 183.270479 
L 551.339444 187.745771 
L 557.510606 192.286482 
L 563.681768 196.892613 
L 569.852929 201.564162 
L 576.024091 206.301131 
L 582.195253 211.103518 
L 588.366414 215.971324 
L 594.537576 220.90455 
L 600.708737 225.903194 
L 606.879899 230.967258 
L 613.051061 236.096741 
L 619.222222 241.291642 
L 625.393384 246.551963 
L 631.564545 251.877702 
L 637.735707 257.268861 
L 643.906869 262.725439 
L 650.07803 268.247435 
L 656.249192 273.834851 
L 662.420354 279.487686 
L 668.591515 285.20594 
L 674.762677 290.989613 
L 680.933838 296.838704 
L 687.105 302.753215 
" clip-path="url(#pb588235166)" style="fill: none; stroke-dasharray: 9.6,2.4,1.5,2.4; stroke-dashoffset: 0; stroke: #ef60a3; stroke-width: 1.5"/>
   </g>
   <g id="line2d_44">
    <path d="M 76.16 63.2915 
L 82.331162 62.413499 
L 88.502323 61.613941 
L 94.673485 60.892826 
L 100.844646 60.250153 
L 107.015808 59.685924 
L 113.18697 59.200138 
L 119.358131 58.792795 
L 125.529293 58.463895 
L 131.700455 58.213438 
L 137.871616 58.041424 
L 144.042778 57.947852 
L 150.213939 57.932724 
L 156.385101 57.996039 
L 162.556263 58.137797 
L 168.727424 58.357998 
L 174.898586 58.656642 
L 181.069747 59.033728 
L 187.240909 59.489258 
L 193.412071 60.023231 
L 199.583232 60.635647 
L 205.754394 61.326506 
L 211.925556 62.095807 
L 218.096717 62.943552 
L 224.267879 63.86974 
L 230.43904 64.874371 
L 236.610202 65.957445 
L 242.781364 67.118961 
L 248.952525 68.358921 
L 255.123687 69.677324 
L 261.294848 71.07417 
L 267.46601 72.549458 
L 273.637172 74.10319 
L 279.808333 75.735365 
L 285.979495 77.445983 
L 292.150657 79.235043 
L 298.321818 81.102547 
L 304.49298 83.048494 
L 310.664141 85.072884 
L 316.835303 87.175716 
L 323.006465 89.356992 
L 329.177626 91.616711 
L 335.348788 93.954873 
L 341.519949 96.371477 
L 347.691111 98.866525 
L 353.862273 101.440016 
L 360.033434 104.091949 
L 366.204596 106.822326 
L 372.375758 109.631146 
L 378.546919 112.518409 
L 384.718081 115.484114 
L 390.889242 118.528263 
L 397.060404 121.650855 
L 403.231566 124.851889 
L 409.402727 128.131367 
L 415.573889 131.489288 
L 421.745051 134.925651 
L 427.916212 138.440458 
L 434.087374 142.033708 
L 440.258535 145.7054 
L 446.429697 149.455536 
L 452.600859 153.284115 
L 458.77202 157.191136 
L 464.943182 161.176601 
L 471.114343 165.240509 
L 477.285505 169.382859 
L 483.456667 173.603653 
L 489.627828 177.902889 
L 495.79899 182.280569 
L 501.970152 186.736692 
L 508.141313 191.271257 
L 514.312475 195.884266 
L 520.483636 200.575718 
L 526.654798 205.345612 
L 532.82596 210.19395 
L 538.997121 215.12073 
L 545.168283 220.125954 
L 551.339444 225.209621 
L 557.510606 230.37173 
L 563.681768 235.612283 
L 569.852929 240.931278 
L 576.024091 246.328717 
L 582.195253 251.804598 
L 588.366414 257.358923 
L 594.537576 262.991691 
L 600.708737 268.702901 
L 606.879899 274.492555 
L 613.051061 280.360651 
L 619.222222 286.307191 
L 625.393384 292.332173 
L 631.564545 298.435599 
L 637.735707 304.617467 
L 643.906869 310.877779 
L 650.07803 317.216534 
L 656.249192 323.633731 
L 662.420354 330.129372 
L 668.591515 336.703455 
L 674.762677 343.355982 
L 680.933838 350.086951 
L 687.105 356.896364 
" clip-path="url(#pb588235166)" style="fill: none; stroke-dasharray: 9.6,2.4,1.5,2.4; stroke-dashoffset: 0; stroke: #6cc24a; stroke-width: 1.5"/>
   </g>
   <g id="line2d_45">
    <path d="M 76.16 44.868268 
L 82.331162 44.881333 
L 88.502323 44.955417 
L 94.673485 45.090521 
L 100.844646 45.286643 
L 107.015808 45.543785 
L 113.18697 45.861946 
L 119.358131 46.241125 
L 125.529293 46.681325 
L 131.700455 47.182543 
L 137.871616 47.74478 
L 144.042778 48.368036 
L 150.213939 49.052312 
L 156.385101 49.797607 
L 162.556263 50.603921 
L 168.727424 51.471254 
L 174.898586 52.399606 
L 181.069747 53.388977 
L 187.240909 54.439367 
L 193.412071 55.550777 
L 199.583232 56.723206 
L 205.754394 57.956653 
L 211.925556 59.25112 
L 218.096717 60.606606 
L 224.267879 62.023112 
L 230.43904 63.500636 
L 236.610202 65.03918 
L 242.781364 66.638742 
L 248.952525 68.299324 
L 255.123687 70.020925 
L 261.294848 71.803545 
L 267.46601 73.647184 
L 273.637172 75.551842 
L 279.808333 77.51752 
L 285.979495 79.544216 
L 292.150657 81.631932 
L 298.321818 83.780667 
L 304.49298 85.990421 
L 310.664141 88.261194 
L 316.835303 90.592986 
L 323.006465 92.985798 
L 329.177626 95.439628 
L 335.348788 97.954478 
L 341.519949 100.530347 
L 347.691111 103.167235 
L 353.862273 105.865142 
L 360.033434 108.624068 
L 366.204596 111.444014 
L 372.375758 114.324978 
L 378.546919 117.266962 
L 384.718081 120.269965 
L 390.889242 123.333986 
L 397.060404 126.459027 
L 403.231566 129.645088 
L 409.402727 132.892167 
L 415.573889 136.200265 
L 421.745051 139.569383 
L 427.916212 142.99952 
L 434.087374 146.490676 
L 440.258535 150.042851 
L 446.429697 153.656045 
L 452.600859 157.330258 
L 458.77202 161.06549 
L 464.943182 164.861742 
L 471.114343 168.719013 
L 477.285505 172.637303 
L 483.456667 176.616612 
L 489.627828 180.65694 
L 495.79899 184.758287 
L 501.970152 188.920653 
L 508.141313 193.144039 
L 514.312475 197.428443 
L 520.483636 201.773867 
L 526.654798 206.18031 
L 532.82596 210.647772 
L 538.997121 215.176253 
L 545.168283 219.765754 
L 551.339444 224.416273 
L 557.510606 229.127812 
L 563.681768 233.900369 
L 569.852929 238.733946 
L 576.024091 243.628542 
L 582.195253 248.584157 
L 588.366414 253.600792 
L 594.537576 258.678445 
L 600.708737 263.817118 
L 606.879899 269.016809 
L 613.051061 274.27752 
L 619.222222 279.59925 
L 625.393384 284.981999 
L 631.564545 290.425768 
L 637.735707 295.930555 
L 643.906869 301.496361 
L 650.07803 307.123187 
L 656.249192 312.811032 
L 662.420354 318.559896 
L 668.591515 324.369779 
L 674.762677 330.240681 
L 680.933838 336.172602 
L 687.105 342.165543 
" clip-path="url(#pb588235166)" style="fill: none; stroke-dasharray: 9.6,2.4,1.5,2.4; stroke-dashoffset: 0; stroke: #ffb81c; stroke-width: 1.5"/>
   </g>
   <g id="patch_3">
    <path d="M 76.16 373.12 
L 76.16 16.2 
" style="fill: none; stroke: #000000; stroke-width: 0.8; stroke-linejoin: miter; stroke-linecap: square"/>
   </g>
   <g id="patch_4">
    <path d="M 687.105 373.12 
L 687.105 16.2 
" style="fill: none; stroke: #000000; stroke-width: 0.8; stroke-linejoin: miter; stroke-linecap: square"/>
   </g>
   <g id="patch_5">
    <path d="M 76.16 373.12 
L 687.105 373.12 
" style="fill: none; stroke: #000000; stroke-width: 0.8; stroke-linejoin: miter; stroke-linecap: square"/>
   </g>
   <g id="patch_6">
    <path d="M 76.16 16.2 
L 687.105 16.2 
" style="fill: none; stroke: #000000; stroke-width: 0.8; stroke-linejoin: miter; stroke-linecap: square"/>
   </g>
   <g id="legend_1">
    <g id="patch_7">
     <path d="M 86.66 365.62 
L 292.586563 365.62 
Q 295.586563 365.62 295.586563 362.62 
L 295.586563 254.034063 
Q 295.586563 251.034063 292.586563 251.034063 
L 86.66 251.034063 
Q 83.66 251.034063 83.66 254.034063 
L 83.66 362.62 
Q 83.66 365.62 86.66 365.62 
z
" style="fill: #ffffff; opacity: 0.8; stroke: #cccccc; stroke-linejoin: miter"/>
    </g>
    <g id="line2d_46">
     <path d="M 89.66 263.181719 
L 104.66 263.181719 
L 119.66 263.181719 
" style="fill: none; stroke-dasharray: 9.6,2.4,1.5,2.4; stroke-dashoffset: 0; stroke: #00a6b6; stroke-width: 1.5"/>
    </g>
    <g id="text_23">
     <!-- V = 40.0 m/s, J = 1.6 -->
     <g transform="translate(131.66 268.431719) scale(0.15 -0.15)">
      <defs>
       <path id="DejaVuSans-56" d="M 1831 0 
L 50 4666 
L 709 4666 
L 2188 738 
L 3669 4666 
L 4325 4666 
L 2547 0 
L 1831 0 
z
" transform="scale(0.015625)"/>
       <path id="DejaVuSans-3d" d="M 678 2906 
L 4684 2906 
L 4684 2381 
L 678 2381 
L 678 2906 
z
M 678 1631 
L 4684 1631 
L 4684 1100 
L 678 1100 
L 678 1631 
z
" transform="scale(0.015625)"/>
       <path id="DejaVuSans-2f" d="M 1625 4666 
L 2156 4666 
L 531 -594 
L 0 -594 
L 1625 4666 
z
" transform="scale(0.015625)"/>
       <path id="DejaVuSans-73" d="M 2834 3397 
L 2834 2853 
Q 2591 2978 2328 3040 
Q 2066 3103 1784 3103 
Q 1356 3103 1142 2972 
Q 928 2841 928 2578 
Q 928 2378 1081 2264 
Q 1234 2150 1697 2047 
L 1894 2003 
Q 2506 1872 2764 1633 
Q 3022 1394 3022 966 
Q 3022 478 2636 193 
Q 2250 -91 1575 -91 
Q 1294 -91 989 -36 
Q 684 19 347 128 
L 347 722 
Q 666 556 975 473 
Q 1284 391 1588 391 
Q 1994 391 2212 530 
Q 2431 669 2431 922 
Q 2431 1156 2273 1281 
Q 2116 1406 1581 1522 
L 1381 1569 
Q 847 1681 609 1914 
Q 372 2147 372 2553 
Q 372 3047 722 3315 
Q 1072 3584 1716 3584 
Q 2034 3584 2315 3537 
Q 2597 3491 2834 3397 
z
" transform="scale(0.015625)"/>
       <path id="DejaVuSans-2c" d="M 750 794 
L 1409 794 
L 1409 256 
L 897 -744 
L 494 -744 
L 750 256 
L 750 794 
z
" transform="scale(0.015625)"/>
       <path id="DejaVuSans-4a" d="M 628 4666 
L 1259 4666 
L 1259 325 
Q 1259 -519 939 -900 
Q 619 -1281 -91 -1281 
L -331 -1281 
L -331 -750 
L -134 -750 
Q 284 -750 456 -515 
Q 628 -281 628 325 
L 628 4666 
z
" transform="scale(0.015625)"/>
      </defs>
      <use xlink:href="#DejaVuSans-56"/>
      <use xlink:href="#DejaVuSans-20" x="68.408203"/>
      <use xlink:href="#DejaVuSans-3d" x="100.195312"/>
      <use xlink:href="#DejaVuSans-20" x="183.984375"/>
      <use xlink:href="#DejaVuSans-34" x="215.771484"/>
      <use xlink:href="#DejaVuSans-30" x="279.394531"/>
      <use xlink:href="#DejaVuSans-2e" x="343.017578"/>
      <use xlink:href="#DejaVuSans-30" x="374.804688"/>
      <use xlink:href="#DejaVuSans-20" x="438.427734"/>
      <use xlink:href="#DejaVuSans-6d" x="470.214844"/>
      <use xlink:href="#DejaVuSans-2f" x="567.626953"/>
      <use xlink:href="#DejaVuSans-73" x="601.318359"/>
      <use xlink:href="#DejaVuSans-2c" x="653.417969"/>
      <use xlink:href="#DejaVuSans-20" x="685.205078"/>
      <use xlink:href="#DejaVuSans-4a" x="716.992188"/>
      <use xlink:href="#DejaVuSans-20" x="746.484375"/>
      <use xlink:href="#DejaVuSans-3d" x="778.271484"/>
      <use xlink:href="#DejaVuSans-20" x="862.060547"/>
      <use xlink:href="#DejaVuSans-31" x="893.847656"/>
      <use xlink:href="#DejaVuSans-2e" x="957.470703"/>
      <use xlink:href="#DejaVuSans-36" x="989.257812"/>
     </g>
    </g>
    <g id="line2d_47">
     <path d="M 89.66 285.198906 
L 104.66 285.198906 
L 119.66 285.198906 
" style="fill: none; stroke-dasharray: 9.6,2.4,1.5,2.4; stroke-dashoffset: 0; stroke: #a50034; stroke-width: 1.5"/>
    </g>
    <g id="text_24">
     <!-- V = 40.0 m/s, J = 1.8 -->
     <g transform="translate(131.66 290.448906) scale(0.15 -0.15)">
      <use xlink:href="#DejaVuSans-56"/>
      <use xlink:href="#DejaVuSans-20" x="68.408203"/>
      <use xlink:href="#DejaVuSans-3d" x="100.195312"/>
      <use xlink:href="#DejaVuSans-20" x="183.984375"/>
      <use xlink:href="#DejaVuSans-34" x="215.771484"/>
      <use xlink:href="#DejaVuSans-30" x="279.394531"/>
      <use xlink:href="#DejaVuSans-2e" x="343.017578"/>
      <use xlink:href="#DejaVuSans-30" x="374.804688"/>
      <use xlink:href="#DejaVuSans-20" x="438.427734"/>
      <use xlink:href="#DejaVuSans-6d" x="470.214844"/>
      <use xlink:href="#DejaVuSans-2f" x="567.626953"/>
      <use xlink:href="#DejaVuSans-73" x="601.318359"/>
      <use xlink:href="#DejaVuSans-2c" x="653.417969"/>
      <use xlink:href="#DejaVuSans-20" x="685.205078"/>
      <use xlink:href="#DejaVuSans-4a" x="716.992188"/>
      <use xlink:href="#DejaVuSans-20" x="746.484375"/>
      <use xlink:href="#DejaVuSans-3d" x="778.271484"/>
      <use xlink:href="#DejaVuSans-20" x="862.060547"/>
      <use xlink:href="#DejaVuSans-31" x="893.847656"/>
      <use xlink:href="#DejaVuSans-2e" x="957.470703"/>
      <use xlink:href="#DejaVuSans-38" x="989.257812"/>
     </g>
    </g>
    <g id="line2d_48">
     <path d="M 89.66 307.216094 
L 104.66 307.216094 
L 119.66 307.216094 
" style="fill: none; stroke-dasharray: 9.6,2.4,1.5,2.4; stroke-dashoffset: 0; stroke: #ef60a3; stroke-width: 1.5"/>
    </g>
    <g id="text_25">
     <!-- V = 40.0 m/s, J = 3.5 -->
     <g transform="translate(131.66 312.466094) scale(0.15 -0.15)">
      <use xlink:href="#DejaVuSans-56"/>
      <use xlink:href="#DejaVuSans-20" x="68.408203"/>
      <use xlink:href="#DejaVuSans-3d" x="100.195312"/>
      <use xlink:href="#DejaVuSans-20" x="183.984375"/>
      <use xlink:href="#DejaVuSans-34" x="215.771484"/>
      <use xlink:href="#DejaVuSans-30" x="279.394531"/>
      <use xlink:href="#DejaVuSans-2e" x="343.017578"/>
      <use xlink:href="#DejaVuSans-30" x="374.804688"/>
      <use xlink:href="#DejaVuSans-20" x="438.427734"/>
      <use xlink:href="#DejaVuSans-6d" x="470.214844"/>
      <use xlink:href="#DejaVuSans-2f" x="567.626953"/>
      <use xlink:href="#DejaVuSans-73" x="601.318359"/>
      <use xlink:href="#DejaVuSans-2c" x="653.417969"/>
      <use xlink:href="#DejaVuSans-20" x="685.205078"/>
      <use xlink:href="#DejaVuSans-4a" x="716.992188"/>
      <use xlink:href="#DejaVuSans-20" x="746.484375"/>
      <use xlink:href="#DejaVuSans-3d" x="778.271484"/>
      <use xlink:href="#DejaVuSans-20" x="862.060547"/>
      <use xlink:href="#DejaVuSans-33" x="893.847656"/>
      <use xlink:href="#DejaVuSans-2e" x="957.470703"/>
      <use xlink:href="#DejaVuSans-35" x="989.257812"/>
     </g>
    </g>
    <g id="line2d_49">
     <path d="M 89.66 329.233281 
L 104.66 329.233281 
L 119.66 329.233281 
" style="fill: none; stroke-dasharray: 9.6,2.4,1.5,2.4; stroke-dashoffset: 0; stroke: #6cc24a; stroke-width: 1.5"/>
    </g>
    <g id="text_26">
     <!-- V = 20.0 m/s, J = 1.6 -->
     <g transform="translate(131.66 334.483281) scale(0.15 -0.15)">
      <use xlink:href="#DejaVuSans-56"/>
      <use xlink:href="#DejaVuSans-20" x="68.408203"/>
      <use xlink:href="#DejaVuSans-3d" x="100.195312"/>
      <use xlink:href="#DejaVuSans-20" x="183.984375"/>
      <use xlink:href="#DejaVuSans-32" x="215.771484"/>
      <use xlink:href="#DejaVuSans-30" x="279.394531"/>
      <use xlink:href="#DejaVuSans-2e" x="343.017578"/>
      <use xlink:href="#DejaVuSans-30" x="374.804688"/>
      <use xlink:href="#DejaVuSans-20" x="438.427734"/>
      <use xlink:href="#DejaVuSans-6d" x="470.214844"/>
      <use xlink:href="#DejaVuSans-2f" x="567.626953"/>
      <use xlink:href="#DejaVuSans-73" x="601.318359"/>
      <use xlink:href="#DejaVuSans-2c" x="653.417969"/>
      <use xlink:href="#DejaVuSans-20" x="685.205078"/>
      <use xlink:href="#DejaVuSans-4a" x="716.992188"/>
      <use xlink:href="#DejaVuSans-20" x="746.484375"/>
      <use xlink:href="#DejaVuSans-3d" x="778.271484"/>
      <use xlink:href="#DejaVuSans-20" x="862.060547"/>
      <use xlink:href="#DejaVuSans-31" x="893.847656"/>
      <use xlink:href="#DejaVuSans-2e" x="957.470703"/>
      <use xlink:href="#DejaVuSans-36" x="989.257812"/>
     </g>
    </g>
    <g id="line2d_50">
     <path d="M 89.66 351.250469 
L 104.66 351.250469 
L 119.66 351.250469 
" style="fill: none; stroke-dasharray: 9.6,2.4,1.5,2.4; stroke-dashoffset: 0; stroke: #ffb81c; stroke-width: 1.5"/>
    </g>
    <g id="text_27">
     <!-- V = 10.0 m/s, J = 1.6 -->
     <g transform="translate(131.66 356.500469) scale(0.15 -0.15)">
      <use xlink:href="#DejaVuSans-56"/>
      <use xlink:href="#DejaVuSans-20" x="68.408203"/>
      <use xlink:href="#DejaVuSans-3d" x="100.195312"/>
      <use xlink:href="#DejaVuSans-20" x="183.984375"/>
      <use xlink:href="#DejaVuSans-31" x="215.771484"/>
      <use xlink:href="#DejaVuSans-30" x="279.394531"/>
      <use xlink:href="#DejaVuSans-2e" x="343.017578"/>
      <use xlink:href="#DejaVuSans-30" x="374.804688"/>
      <use xlink:href="#DejaVuSans-20" x="438.427734"/>
      <use xlink:href="#DejaVuSans-6d" x="470.214844"/>
      <use xlink:href="#DejaVuSans-2f" x="567.626953"/>
      <use xlink:href="#DejaVuSans-73" x="601.318359"/>
      <use xlink:href="#DejaVuSans-2c" x="653.417969"/>
      <use xlink:href="#DejaVuSans-20" x="685.205078"/>
      <use xlink:href="#DejaVuSans-4a" x="716.992188"/>
      <use xlink:href="#DejaVuSans-20" x="746.484375"/>
      <use xlink:href="#DejaVuSans-3d" x="778.271484"/>
      <use xlink:href="#DejaVuSans-20" x="862.060547"/>
      <use xlink:href="#DejaVuSans-31" x="893.847656"/>
      <use xlink:href="#DejaVuSans-2e" x="957.470703"/>
      <use xlink:href="#DejaVuSans-36" x="989.257812"/>
     </g>
    </g>
   </g>
  </g>
 </g>
 <defs>
  <clipPath id="pb588235166">
   <rect x="76.16" y="16.2" width="610.945" height="356.92"/>
  </clipPath>
 </defs>
</svg>
