<?xml version="1.0" encoding="utf-8" standalone="no"?>
<!DOCTYPE svg PUBLIC "-//W3C//DTD SVG 1.1//EN"
  "http://www.w3.org/Graphics/SVG/1.1/DTD/svg11.dtd">
<svg xmlns:xlink="http://www.w3.org/1999/xlink" width="720pt" height="432pt" viewBox="0 0 720 432" xmlns="http://www.w3.org/2000/svg" version="1.1">
 <metadata>
  <rdf:RDF xmlns:dc="http://purl.org/dc/elements/1.1/" xmlns:cc="http://creativecommons.org/ns#" xmlns:rdf="http://www.w3.org/1999/02/22-rdf-syntax-ns#">
   <cc:Work>
    <dc:type rdf:resource="http://purl.org/dc/dcmitype/StillImage"/>
    <dc:date>2024-04-02T12:17:06.713310</dc:date>
    <dc:format>image/svg+xml</dc:format>
    <dc:creator>
     <cc:Agent>
      <dc:title>Matplotlib v3.8.0, https://matplotlib.org/</dc:title>
     </cc:Agent>
    </dc:creator>
   </cc:Work>
  </rdf:RDF>
 </metadata>
 <defs>
  <style type="text/css">*{stroke-linejoin: round; stroke-linecap: butt}</style>
 </defs>
 <g id="figure_1">
  <g id="patch_1">
   <path d="M 0 432 
L 720 432 
L 720 0 
L 0 0 
z
" style="fill: #ffffff"/>
  </g>
  <g id="axes_1">
   <g id="patch_2">
    <path d="M 77.582 373.12 
L 694.26 373.12 
L 694.26 21.045796 
L 77.582 21.045796 
z
" style="fill: #ffffff"/>
   </g>
   <g id="PathCollection_1">
    <defs>
     <path id="m3f1f7f82d9" d="M 0 3 
C 0.795609 3 1.55874 2.683901 2.12132 2.12132 
C 2.683901 1.55874 3 0.795609 3 0 
C 3 -0.795609 2.683901 -1.55874 2.12132 -2.12132 
C 1.55874 -2.683901 0.795609 -3 0 -3 
C -0.795609 -3 -1.55874 -2.683901 -2.12132 -2.12132 
C -2.683901 -1.55874 -3 -0.795609 -3 0 
C -3 0.795609 -2.683901 1.55874 -2.12132 2.12132 
C -1.55874 2.683901 -0.795609 3 0 3 
z
" style="stroke: #00a6b6"/>
    </defs>
    <g clip-path="url(#pa1e147a2e8)">
     <use xlink:href="#m3f1f7f82d9" x="180.361667" y="348.540206" style="fill: #00a6b6; stroke: #00a6b6"/>
     <use xlink:href="#m3f1f7f82d9" x="427.032867" y="326.423666" style="fill: #00a6b6; stroke: #00a6b6"/>
     <use xlink:href="#m3f1f7f82d9" x="529.812533" y="258.255687" style="fill: #00a6b6; stroke: #00a6b6"/>
     <use xlink:href="#m3f1f7f82d9" x="570.9244" y="217.147669" style="fill: #00a6b6; stroke: #00a6b6"/>
    </g>
   </g>
   <g id="PathCollection_2">
    <defs>
     <path id="m2753e6271a" d="M 0 3 
C 0.795609 3 1.55874 2.683901 2.12132 2.12132 
C 2.683901 1.55874 3 0.795609 3 0 
C 3 -0.795609 2.683901 -1.55874 2.12132 -2.12132 
C 1.55874 -2.683901 0.795609 -3 0 -3 
C -0.795609 -3 -1.55874 -2.683901 -2.12132 -2.12132 
C -2.683901 -1.55874 -3 -0.795609 -3 0 
C -3 0.795609 -2.683901 1.55874 -2.12132 2.12132 
C -1.55874 2.683901 -0.795609 3 0 3 
z
" style="stroke: #a50034"/>
    </defs>
    <g clip-path="url(#pa1e147a2e8)">
     <use xlink:href="#m2753e6271a" x="180.346719" y="348.841464" style="fill: #a50034; stroke: #a50034"/>
     <use xlink:href="#m2753e6271a" x="427.107603" y="324.131671" style="fill: #a50034; stroke: #a50034"/>
     <use xlink:href="#m2753e6271a" x="529.902585" y="256.196255" style="fill: #a50034; stroke: #a50034"/>
     <use xlink:href="#m2753e6271a" x="571.021687" y="215.920381" style="fill: #a50034; stroke: #a50034"/>
    </g>
   </g>
   <g id="PathCollection_3">
    <defs>
     <path id="m88b4e34dbe" d="M 0 3 
C 0.795609 3 1.55874 2.683901 2.12132 2.12132 
C 2.683901 1.55874 3 0.795609 3 0 
C 3 -0.795609 2.683901 -1.55874 2.12132 -2.12132 
C 1.55874 -2.683901 0.795609 -3 0 -3 
C -0.795609 -3 -1.55874 -2.683901 -2.12132 -2.12132 
C -2.683901 -1.55874 -3 -0.795609 -3 0 
C -3 0.795609 -2.683901 1.55874 -2.12132 2.12132 
C -1.55874 2.683901 -0.795609 3 0 3 
z
" style="stroke: #ef60a3"/>
    </defs>
    <g clip-path="url(#pa1e147a2e8)">
     <use xlink:href="#m88b4e34dbe" x="180.361667" y="348.540206" style="fill: #ef60a3; stroke: #ef60a3"/>
     <use xlink:href="#m88b4e34dbe" x="283.141333" y="356.937427" style="fill: #ef60a3; stroke: #ef60a3"/>
     <use xlink:href="#m88b4e34dbe" x="427.032867" y="326.423666" style="fill: #ef60a3; stroke: #ef60a3"/>
     <use xlink:href="#m88b4e34dbe" x="529.812533" y="258.255687" style="fill: #ef60a3; stroke: #ef60a3"/>
     <use xlink:href="#m88b4e34dbe" x="570.9244" y="217.147669" style="fill: #ef60a3; stroke: #ef60a3"/>
    </g>
   </g>
   <g id="PathCollection_4">
    <defs>
     <path id="m89813c589b" d="M 0 3 
C 0.795609 3 1.55874 2.683901 2.12132 2.12132 
C 2.683901 1.55874 3 0.795609 3 0 
C 3 -0.795609 2.683901 -1.55874 2.12132 -2.12132 
C 1.55874 -2.683901 0.795609 -3 0 -3 
C -0.795609 -3 -1.55874 -2.683901 -2.12132 -2.12132 
C -2.683901 -1.55874 -3 -0.795609 -3 0 
C -3 0.795609 -2.683901 1.55874 -2.12132 2.12132 
C -1.55874 2.683901 -0.795609 3 0 3 
z
" style="stroke: #6cc24a"/>
    </defs>
    <g clip-path="url(#pa1e147a2e8)">
     <use xlink:href="#m89813c589b" x="180.346719" y="348.857534" style="fill: #6cc24a; stroke: #6cc24a"/>
     <use xlink:href="#m89813c589b" x="283.166243" y="356.931465" style="fill: #6cc24a; stroke: #6cc24a"/>
     <use xlink:href="#m89813c589b" x="427.107603" y="324.12903" style="fill: #6cc24a; stroke: #6cc24a"/>
     <use xlink:href="#m89813c589b" x="529.902585" y="256.079265" style="fill: #6cc24a; stroke: #6cc24a"/>
     <use xlink:href="#m89813c589b" x="571.021687" y="215.541159" style="fill: #6cc24a; stroke: #6cc24a"/>
    </g>
   </g>
   <g id="matplotlib.axis_1">
    <g id="xtick_1">
     <g id="line2d_1">
      <path d="M 77.582 373.12 
L 77.582 21.045796 
" clip-path="url(#pa1e147a2e8)" style="fill: none; stroke: #b0b0b0; stroke-width: 0.8; stroke-linecap: square"/>
     </g>
     <g id="line2d_2">
      <defs>
       <path id="m62e7caa051" d="M 0 0 
L 0 3.5 
" style="stroke: #000000; stroke-width: 0.8"/>
      </defs>
      <g>
       <use xlink:href="#m62e7caa051" x="77.582" y="373.12" style="stroke: #000000; stroke-width: 0.8"/>
      </g>
     </g>
     <g id="text_1">
      <!-- −10 -->
      <g transform="translate(61.753484 391.517656) scale(0.15 -0.15)">
       <defs>
        <path id="DejaVuSans-2212" d="M 678 2272 
L 4684 2272 
L 4684 1741 
L 678 1741 
L 678 2272 
z
" transform="scale(0.015625)"/>
        <path id="DejaVuSans-31" d="M 794 531 
L 1825 531 
L 1825 4091 
L 703 3866 
L 703 4441 
L 1819 4666 
L 2450 4666 
L 2450 531 
L 3481 531 
L 3481 0 
L 794 0 
L 794 531 
z
" transform="scale(0.015625)"/>
        <path id="DejaVuSans-30" d="M 2034 4250 
Q 1547 4250 1301 3770 
Q 1056 3291 1056 2328 
Q 1056 1369 1301 889 
Q 1547 409 2034 409 
Q 2525 409 2770 889 
Q 3016 1369 3016 2328 
Q 3016 3291 2770 3770 
Q 2525 4250 2034 4250 
z
M 2034 4750 
Q 2819 4750 3233 4129 
Q 3647 3509 3647 2328 
Q 3647 1150 3233 529 
Q 2819 -91 2034 -91 
Q 1250 -91 836 529 
Q 422 1150 422 2328 
Q 422 3509 836 4129 
Q 1250 4750 2034 4750 
z
" transform="scale(0.015625)"/>
       </defs>
       <use xlink:href="#DejaVuSans-2212"/>
       <use xlink:href="#DejaVuSans-31" x="83.789062"/>
       <use xlink:href="#DejaVuSans-30" x="147.412109"/>
      </g>
     </g>
    </g>
    <g id="xtick_2">
     <g id="line2d_3">
      <path d="M 139.2498 373.12 
L 139.2498 21.045796 
" clip-path="url(#pa1e147a2e8)" style="fill: none; stroke: #b0b0b0; stroke-width: 0.8; stroke-linecap: square"/>
     </g>
     <g id="line2d_4">
      <g>
       <use xlink:href="#m62e7caa051" x="139.2498" y="373.12" style="stroke: #000000; stroke-width: 0.8"/>
      </g>
     </g>
     <g id="text_2">
      <!-- −7 -->
      <g transform="translate(128.193159 391.517656) scale(0.15 -0.15)">
       <defs>
        <path id="DejaVuSans-37" d="M 525 4666 
L 3525 4666 
L 3525 4397 
L 1831 0 
L 1172 0 
L 2766 4134 
L 525 4134 
L 525 4666 
z
" transform="scale(0.015625)"/>
       </defs>
       <use xlink:href="#DejaVuSans-2212"/>
       <use xlink:href="#DejaVuSans-37" x="83.789062"/>
      </g>
     </g>
    </g>
    <g id="xtick_3">
     <g id="line2d_5">
      <path d="M 200.9176 373.12 
L 200.9176 21.045796 
" clip-path="url(#pa1e147a2e8)" style="fill: none; stroke: #b0b0b0; stroke-width: 0.8; stroke-linecap: square"/>
     </g>
     <g id="line2d_6">
      <g>
       <use xlink:href="#m62e7caa051" x="200.9176" y="373.12" style="stroke: #000000; stroke-width: 0.8"/>
      </g>
     </g>
     <g id="text_3">
      <!-- −4 -->
      <g transform="translate(189.860959 391.517656) scale(0.15 -0.15)">
       <defs>
        <path id="DejaVuSans-34" d="M 2419 4116 
L 825 1625 
L 2419 1625 
L 2419 4116 
z
M 2253 4666 
L 3047 4666 
L 3047 1625 
L 3713 1625 
L 3713 1100 
L 3047 1100 
L 3047 0 
L 2419 0 
L 2419 1100 
L 313 1100 
L 313 1709 
L 2253 4666 
z
" transform="scale(0.015625)"/>
       </defs>
       <use xlink:href="#DejaVuSans-2212"/>
       <use xlink:href="#DejaVuSans-34" x="83.789062"/>
      </g>
     </g>
    </g>
    <g id="xtick_4">
     <g id="line2d_7">
      <path d="M 262.5854 373.12 
L 262.5854 21.045796 
" clip-path="url(#pa1e147a2e8)" style="fill: none; stroke: #b0b0b0; stroke-width: 0.8; stroke-linecap: square"/>
     </g>
     <g id="line2d_8">
      <g>
       <use xlink:href="#m62e7caa051" x="262.5854" y="373.12" style="stroke: #000000; stroke-width: 0.8"/>
      </g>
     </g>
     <g id="text_4">
      <!-- −1 -->
      <g transform="translate(251.528759 391.517656) scale(0.15 -0.15)">
       <use xlink:href="#DejaVuSans-2212"/>
       <use xlink:href="#DejaVuSans-31" x="83.789062"/>
      </g>
     </g>
    </g>
    <g id="xtick_5">
     <g id="line2d_9">
      <path d="M 324.2532 373.12 
L 324.2532 21.045796 
" clip-path="url(#pa1e147a2e8)" style="fill: none; stroke: #b0b0b0; stroke-width: 0.8; stroke-linecap: square"/>
     </g>
     <g id="line2d_10">
      <g>
       <use xlink:href="#m62e7caa051" x="324.2532" y="373.12" style="stroke: #000000; stroke-width: 0.8"/>
      </g>
     </g>
     <g id="text_5">
      <!-- 2 -->
      <g transform="translate(319.481325 391.517656) scale(0.15 -0.15)">
       <defs>
        <path id="DejaVuSans-32" d="M 1228 531 
L 3431 531 
L 3431 0 
L 469 0 
L 469 531 
Q 828 903 1448 1529 
Q 2069 2156 2228 2338 
Q 2531 2678 2651 2914 
Q 2772 3150 2772 3378 
Q 2772 3750 2511 3984 
Q 2250 4219 1831 4219 
Q 1534 4219 1204 4116 
Q 875 4013 500 3803 
L 500 4441 
Q 881 4594 1212 4672 
Q 1544 4750 1819 4750 
Q 2544 4750 2975 4387 
Q 3406 4025 3406 3419 
Q 3406 3131 3298 2873 
Q 3191 2616 2906 2266 
Q 2828 2175 2409 1742 
Q 1991 1309 1228 531 
z
" transform="scale(0.015625)"/>
       </defs>
       <use xlink:href="#DejaVuSans-32"/>
      </g>
     </g>
    </g>
    <g id="xtick_6">
     <g id="line2d_11">
      <path d="M 385.921 373.12 
L 385.921 21.045796 
" clip-path="url(#pa1e147a2e8)" style="fill: none; stroke: #b0b0b0; stroke-width: 0.8; stroke-linecap: square"/>
     </g>
     <g id="line2d_12">
      <g>
       <use xlink:href="#m62e7caa051" x="385.921" y="373.12" style="stroke: #000000; stroke-width: 0.8"/>
      </g>
     </g>
     <g id="text_6">
      <!-- 5 -->
      <g transform="translate(381.149125 391.517656) scale(0.15 -0.15)">
       <defs>
        <path id="DejaVuSans-35" d="M 691 4666 
L 3169 4666 
L 3169 4134 
L 1269 4134 
L 1269 2991 
Q 1406 3038 1543 3061 
Q 1681 3084 1819 3084 
Q 2600 3084 3056 2656 
Q 3513 2228 3513 1497 
Q 3513 744 3044 326 
Q 2575 -91 1722 -91 
Q 1428 -91 1123 -41 
Q 819 9 494 109 
L 494 744 
Q 775 591 1075 516 
Q 1375 441 1709 441 
Q 2250 441 2565 725 
Q 2881 1009 2881 1497 
Q 2881 1984 2565 2268 
Q 2250 2553 1709 2553 
Q 1456 2553 1204 2497 
Q 953 2441 691 2322 
L 691 4666 
z
" transform="scale(0.015625)"/>
       </defs>
       <use xlink:href="#DejaVuSans-35"/>
      </g>
     </g>
    </g>
    <g id="xtick_7">
     <g id="line2d_13">
      <path d="M 447.5888 373.12 
L 447.5888 21.045796 
" clip-path="url(#pa1e147a2e8)" style="fill: none; stroke: #b0b0b0; stroke-width: 0.8; stroke-linecap: square"/>
     </g>
     <g id="line2d_14">
      <g>
       <use xlink:href="#m62e7caa051" x="447.5888" y="373.12" style="stroke: #000000; stroke-width: 0.8"/>
      </g>
     </g>
     <g id="text_7">
      <!-- 8 -->
      <g transform="translate(442.816925 391.517656) scale(0.15 -0.15)">
       <defs>
        <path id="DejaVuSans-38" d="M 2034 2216 
Q 1584 2216 1326 1975 
Q 1069 1734 1069 1313 
Q 1069 891 1326 650 
Q 1584 409 2034 409 
Q 2484 409 2743 651 
Q 3003 894 3003 1313 
Q 3003 1734 2745 1975 
Q 2488 2216 2034 2216 
z
M 1403 2484 
Q 997 2584 770 2862 
Q 544 3141 544 3541 
Q 544 4100 942 4425 
Q 1341 4750 2034 4750 
Q 2731 4750 3128 4425 
Q 3525 4100 3525 3541 
Q 3525 3141 3298 2862 
Q 3072 2584 2669 2484 
Q 3125 2378 3379 2068 
Q 3634 1759 3634 1313 
Q 3634 634 3220 271 
Q 2806 -91 2034 -91 
Q 1263 -91 848 271 
Q 434 634 434 1313 
Q 434 1759 690 2068 
Q 947 2378 1403 2484 
z
M 1172 3481 
Q 1172 3119 1398 2916 
Q 1625 2713 2034 2713 
Q 2441 2713 2670 2916 
Q 2900 3119 2900 3481 
Q 2900 3844 2670 4047 
Q 2441 4250 2034 4250 
Q 1625 4250 1398 4047 
Q 1172 3844 1172 3481 
z
" transform="scale(0.015625)"/>
       </defs>
       <use xlink:href="#DejaVuSans-38"/>
      </g>
     </g>
    </g>
    <g id="xtick_8">
     <g id="line2d_15">
      <path d="M 509.2566 373.12 
L 509.2566 21.045796 
" clip-path="url(#pa1e147a2e8)" style="fill: none; stroke: #b0b0b0; stroke-width: 0.8; stroke-linecap: square"/>
     </g>
     <g id="line2d_16">
      <g>
       <use xlink:href="#m62e7caa051" x="509.2566" y="373.12" style="stroke: #000000; stroke-width: 0.8"/>
      </g>
     </g>
     <g id="text_8">
      <!-- 11 -->
      <g transform="translate(499.71285 391.517656) scale(0.15 -0.15)">
       <use xlink:href="#DejaVuSans-31"/>
       <use xlink:href="#DejaVuSans-31" x="63.623047"/>
      </g>
     </g>
    </g>
    <g id="xtick_9">
     <g id="line2d_17">
      <path d="M 570.9244 373.12 
L 570.9244 21.045796 
" clip-path="url(#pa1e147a2e8)" style="fill: none; stroke: #b0b0b0; stroke-width: 0.8; stroke-linecap: square"/>
     </g>
     <g id="line2d_18">
      <g>
       <use xlink:href="#m62e7caa051" x="570.9244" y="373.12" style="stroke: #000000; stroke-width: 0.8"/>
      </g>
     </g>
     <g id="text_9">
      <!-- 14 -->
      <g transform="translate(561.38065 391.517656) scale(0.15 -0.15)">
       <use xlink:href="#DejaVuSans-31"/>
       <use xlink:href="#DejaVuSans-34" x="63.623047"/>
      </g>
     </g>
    </g>
    <g id="xtick_10">
     <g id="line2d_19">
      <path d="M 632.5922 373.12 
L 632.5922 21.045796 
" clip-path="url(#pa1e147a2e8)" style="fill: none; stroke: #b0b0b0; stroke-width: 0.8; stroke-linecap: square"/>
     </g>
     <g id="line2d_20">
      <g>
       <use xlink:href="#m62e7caa051" x="632.5922" y="373.12" style="stroke: #000000; stroke-width: 0.8"/>
      </g>
     </g>
     <g id="text_10">
      <!-- 17 -->
      <g transform="translate(623.04845 391.517656) scale(0.15 -0.15)">
       <use xlink:href="#DejaVuSans-31"/>
       <use xlink:href="#DejaVuSans-37" x="63.623047"/>
      </g>
     </g>
    </g>
    <g id="xtick_11">
     <g id="line2d_21">
      <path d="M 694.26 373.12 
L 694.26 21.045796 
" clip-path="url(#pa1e147a2e8)" style="fill: none; stroke: #b0b0b0; stroke-width: 0.8; stroke-linecap: square"/>
     </g>
     <g id="line2d_22">
      <g>
       <use xlink:href="#m62e7caa051" x="694.26" y="373.12" style="stroke: #000000; stroke-width: 0.8"/>
      </g>
     </g>
     <g id="text_11">
      <!-- 20 -->
      <g transform="translate(684.71625 391.517656) scale(0.15 -0.15)">
       <use xlink:href="#DejaVuSans-32"/>
       <use xlink:href="#DejaVuSans-30" x="63.623047"/>
      </g>
     </g>
    </g>
    <g id="text_12">
     <!-- $\alpha$ [deg] -->
     <g transform="translate(358.546 410.037187) scale(0.15 -0.15)">
      <defs>
       <path id="DejaVuSans-Oblique-3b1" d="M 2619 1628 
L 2622 2350 
Q 2625 3088 2069 3091 
Q 1653 3094 1394 2747 
Q 1069 2319 959 1747 
Q 825 1059 994 731 
Q 1169 397 1547 397 
Q 1966 397 2319 1063 
L 2619 1628 
z
M 2166 3578 
Q 3141 3594 3128 2584 
Q 3128 2584 3616 3500 
L 4128 3500 
L 3119 1603 
L 3109 919 
Q 3109 766 3194 638 
Q 3291 488 3391 488 
L 3669 488 
L 3575 0 
L 3228 0 
Q 2934 0 2722 263 
Q 2622 394 2619 669 
Q 2416 334 2066 50 
Q 1900 -81 1453 -78 
Q 722 -72 456 397 
Q 184 884 353 1747 
Q 534 2675 1009 3097 
Q 1544 3569 2166 3578 
z
" transform="scale(0.015625)"/>
       <path id="DejaVuSans-20" transform="scale(0.015625)"/>
       <path id="DejaVuSans-5b" d="M 550 4863 
L 1875 4863 
L 1875 4416 
L 1125 4416 
L 1125 -397 
L 1875 -397 
L 1875 -844 
L 550 -844 
L 550 4863 
z
" transform="scale(0.015625)"/>
       <path id="DejaVuSans-64" d="M 2906 2969 
L 2906 4863 
L 3481 4863 
L 3481 0 
L 2906 0 
L 2906 525 
Q 2725 213 2448 61 
Q 2172 -91 1784 -91 
Q 1150 -91 751 415 
Q 353 922 353 1747 
Q 353 2572 751 3078 
Q 1150 3584 1784 3584 
Q 2172 3584 2448 3432 
Q 2725 3281 2906 2969 
z
M 947 1747 
Q 947 1113 1208 752 
Q 1469 391 1925 391 
Q 2381 391 2643 752 
Q 2906 1113 2906 1747 
Q 2906 2381 2643 2742 
Q 2381 3103 1925 3103 
Q 1469 3103 1208 2742 
Q 947 2381 947 1747 
z
" transform="scale(0.015625)"/>
       <path id="DejaVuSans-65" d="M 3597 1894 
L 3597 1613 
L 953 1613 
Q 991 1019 1311 708 
Q 1631 397 2203 397 
Q 2534 397 2845 478 
Q 3156 559 3463 722 
L 3463 178 
Q 3153 47 2828 -22 
Q 2503 -91 2169 -91 
Q 1331 -91 842 396 
Q 353 884 353 1716 
Q 353 2575 817 3079 
Q 1281 3584 2069 3584 
Q 2775 3584 3186 3129 
Q 3597 2675 3597 1894 
z
M 3022 2063 
Q 3016 2534 2758 2815 
Q 2500 3097 2075 3097 
Q 1594 3097 1305 2825 
Q 1016 2553 972 2059 
L 3022 2063 
z
" transform="scale(0.015625)"/>
       <path id="DejaVuSans-67" d="M 2906 1791 
Q 2906 2416 2648 2759 
Q 2391 3103 1925 3103 
Q 1463 3103 1205 2759 
Q 947 2416 947 1791 
Q 947 1169 1205 825 
Q 1463 481 1925 481 
Q 2391 481 2648 825 
Q 2906 1169 2906 1791 
z
M 3481 434 
Q 3481 -459 3084 -895 
Q 2688 -1331 1869 -1331 
Q 1566 -1331 1297 -1286 
Q 1028 -1241 775 -1147 
L 775 -588 
Q 1028 -725 1275 -790 
Q 1522 -856 1778 -856 
Q 2344 -856 2625 -561 
Q 2906 -266 2906 331 
L 2906 616 
Q 2728 306 2450 153 
Q 2172 0 1784 0 
Q 1141 0 747 490 
Q 353 981 353 1791 
Q 353 2603 747 3093 
Q 1141 3584 1784 3584 
Q 2172 3584 2450 3431 
Q 2728 3278 2906 2969 
L 2906 3500 
L 3481 3500 
L 3481 434 
z
" transform="scale(0.015625)"/>
       <path id="DejaVuSans-5d" d="M 1947 4863 
L 1947 -844 
L 622 -844 
L 622 -397 
L 1369 -397 
L 1369 4416 
L 622 4416 
L 622 4863 
L 1947 4863 
z
" transform="scale(0.015625)"/>
      </defs>
      <use xlink:href="#DejaVuSans-Oblique-3b1" transform="translate(0 0.015625)"/>
      <use xlink:href="#DejaVuSans-20" transform="translate(65.917969 0.015625)"/>
      <use xlink:href="#DejaVuSans-5b" transform="translate(97.705078 0.015625)"/>
      <use xlink:href="#DejaVuSans-64" transform="translate(136.71875 0.015625)"/>
      <use xlink:href="#DejaVuSans-65" transform="translate(200.195312 0.015625)"/>
      <use xlink:href="#DejaVuSans-67" transform="translate(261.71875 0.015625)"/>
      <use xlink:href="#DejaVuSans-5d" transform="translate(325.195312 0.015625)"/>
     </g>
    </g>
   </g>
   <g id="matplotlib.axis_2">
    <g id="ytick_1">
     <g id="line2d_23">
      <path d="M 77.582 331.570047 
L 694.26 331.570047 
" clip-path="url(#pa1e147a2e8)" style="fill: none; stroke: #b0b0b0; stroke-width: 0.8; stroke-linecap: square"/>
     </g>
     <g id="line2d_24">
      <defs>
       <path id="mab87d3c083" d="M 0 0 
L -3.5 0 
" style="stroke: #000000; stroke-width: 0.8"/>
      </defs>
      <g>
       <use xlink:href="#mab87d3c083" x="77.582" y="331.570047" style="stroke: #000000; stroke-width: 0.8"/>
      </g>
     </g>
     <g id="text_13">
      <!-- 0.05 -->
      <g transform="translate(37.183563 337.268875) scale(0.15 -0.15)">
       <defs>
        <path id="DejaVuSans-2e" d="M 684 794 
L 1344 794 
L 1344 0 
L 684 0 
L 684 794 
z
" transform="scale(0.015625)"/>
       </defs>
       <use xlink:href="#DejaVuSans-30"/>
       <use xlink:href="#DejaVuSans-2e" x="63.623047"/>
       <use xlink:href="#DejaVuSans-30" x="95.410156"/>
       <use xlink:href="#DejaVuSans-35" x="159.033203"/>
      </g>
     </g>
    </g>
    <g id="ytick_2">
     <g id="line2d_25">
      <path d="M 77.582 279.977274 
L 694.26 279.977274 
" clip-path="url(#pa1e147a2e8)" style="fill: none; stroke: #b0b0b0; stroke-width: 0.8; stroke-linecap: square"/>
     </g>
     <g id="line2d_26">
      <g>
       <use xlink:href="#mab87d3c083" x="77.582" y="279.977274" style="stroke: #000000; stroke-width: 0.8"/>
      </g>
     </g>
     <g id="text_14">
      <!-- 0.10 -->
      <g transform="translate(37.183563 285.676103) scale(0.15 -0.15)">
       <use xlink:href="#DejaVuSans-30"/>
       <use xlink:href="#DejaVuSans-2e" x="63.623047"/>
       <use xlink:href="#DejaVuSans-31" x="95.410156"/>
       <use xlink:href="#DejaVuSans-30" x="159.033203"/>
      </g>
     </g>
    </g>
    <g id="ytick_3">
     <g id="line2d_27">
      <path d="M 77.582 228.384502 
L 694.26 228.384502 
" clip-path="url(#pa1e147a2e8)" style="fill: none; stroke: #b0b0b0; stroke-width: 0.8; stroke-linecap: square"/>
     </g>
     <g id="line2d_28">
      <g>
       <use xlink:href="#mab87d3c083" x="77.582" y="228.384502" style="stroke: #000000; stroke-width: 0.8"/>
      </g>
     </g>
     <g id="text_15">
      <!-- 0.15 -->
      <g transform="translate(37.183563 234.08333) scale(0.15 -0.15)">
       <use xlink:href="#DejaVuSans-30"/>
       <use xlink:href="#DejaVuSans-2e" x="63.623047"/>
       <use xlink:href="#DejaVuSans-31" x="95.410156"/>
       <use xlink:href="#DejaVuSans-35" x="159.033203"/>
      </g>
     </g>
    </g>
    <g id="ytick_4">
     <g id="line2d_29">
      <path d="M 77.582 176.791729 
L 694.26 176.791729 
" clip-path="url(#pa1e147a2e8)" style="fill: none; stroke: #b0b0b0; stroke-width: 0.8; stroke-linecap: square"/>
     </g>
     <g id="line2d_30">
      <g>
       <use xlink:href="#mab87d3c083" x="77.582" y="176.791729" style="stroke: #000000; stroke-width: 0.8"/>
      </g>
     </g>
     <g id="text_16">
      <!-- 0.20 -->
      <g transform="translate(37.183563 182.490557) scale(0.15 -0.15)">
       <use xlink:href="#DejaVuSans-30"/>
       <use xlink:href="#DejaVuSans-2e" x="63.623047"/>
       <use xlink:href="#DejaVuSans-32" x="95.410156"/>
       <use xlink:href="#DejaVuSans-30" x="159.033203"/>
      </g>
     </g>
    </g>
    <g id="ytick_5">
     <g id="line2d_31">
      <path d="M 77.582 125.198957 
L 694.26 125.198957 
" clip-path="url(#pa1e147a2e8)" style="fill: none; stroke: #b0b0b0; stroke-width: 0.8; stroke-linecap: square"/>
     </g>
     <g id="line2d_32">
      <g>
       <use xlink:href="#mab87d3c083" x="77.582" y="125.198957" style="stroke: #000000; stroke-width: 0.8"/>
      </g>
     </g>
     <g id="text_17">
      <!-- 0.25 -->
      <g transform="translate(37.183563 130.897785) scale(0.15 -0.15)">
       <use xlink:href="#DejaVuSans-30"/>
       <use xlink:href="#DejaVuSans-2e" x="63.623047"/>
       <use xlink:href="#DejaVuSans-32" x="95.410156"/>
       <use xlink:href="#DejaVuSans-35" x="159.033203"/>
      </g>
     </g>
    </g>
    <g id="ytick_6">
     <g id="line2d_33">
      <path d="M 77.582 73.606184 
L 694.26 73.606184 
" clip-path="url(#pa1e147a2e8)" style="fill: none; stroke: #b0b0b0; stroke-width: 0.8; stroke-linecap: square"/>
     </g>
     <g id="line2d_34">
      <g>
       <use xlink:href="#mab87d3c083" x="77.582" y="73.606184" style="stroke: #000000; stroke-width: 0.8"/>
      </g>
     </g>
     <g id="text_18">
      <!-- 0.30 -->
      <g transform="translate(37.183563 79.305012) scale(0.15 -0.15)">
       <defs>
        <path id="DejaVuSans-33" d="M 2597 2516 
Q 3050 2419 3304 2112 
Q 3559 1806 3559 1356 
Q 3559 666 3084 287 
Q 2609 -91 1734 -91 
Q 1441 -91 1130 -33 
Q 819 25 488 141 
L 488 750 
Q 750 597 1062 519 
Q 1375 441 1716 441 
Q 2309 441 2620 675 
Q 2931 909 2931 1356 
Q 2931 1769 2642 2001 
Q 2353 2234 1838 2234 
L 1294 2234 
L 1294 2753 
L 1863 2753 
Q 2328 2753 2575 2939 
Q 2822 3125 2822 3475 
Q 2822 3834 2567 4026 
Q 2313 4219 1838 4219 
Q 1578 4219 1281 4162 
Q 984 4106 628 3988 
L 628 4550 
Q 988 4650 1302 4700 
Q 1616 4750 1894 4750 
Q 2613 4750 3031 4423 
Q 3450 4097 3450 3541 
Q 3450 3153 3228 2886 
Q 3006 2619 2597 2516 
z
" transform="scale(0.015625)"/>
       </defs>
       <use xlink:href="#DejaVuSans-30"/>
       <use xlink:href="#DejaVuSans-2e" x="63.623047"/>
       <use xlink:href="#DejaVuSans-33" x="95.410156"/>
       <use xlink:href="#DejaVuSans-30" x="159.033203"/>
      </g>
     </g>
    </g>
    <g id="ytick_7">
     <g id="line2d_35">
      <path d="M 77.582 22.013412 
L 694.26 22.013412 
" clip-path="url(#pa1e147a2e8)" style="fill: none; stroke: #b0b0b0; stroke-width: 0.8; stroke-linecap: square"/>
     </g>
     <g id="line2d_36">
      <g>
       <use xlink:href="#mab87d3c083" x="77.582" y="22.013412" style="stroke: #000000; stroke-width: 0.8"/>
      </g>
     </g>
     <g id="text_19">
      <!-- 0.35 -->
      <g transform="translate(37.183563 27.71224) scale(0.15 -0.15)">
       <use xlink:href="#DejaVuSans-30"/>
       <use xlink:href="#DejaVuSans-2e" x="63.623047"/>
       <use xlink:href="#DejaVuSans-33" x="95.410156"/>
       <use xlink:href="#DejaVuSans-35" x="159.033203"/>
      </g>
     </g>
    </g>
    <g id="text_20">
     <!-- $C_D$ [-] -->
     <g transform="translate(30.064031 217.557898) rotate(-90) scale(0.15 -0.15)">
      <defs>
       <path id="DejaVuSans-Oblique-43" d="M 4447 4306 
L 4319 3641 
Q 4019 3944 3683 4091 
Q 3347 4238 2956 4238 
Q 2422 4238 2017 3981 
Q 1613 3725 1319 3200 
Q 1131 2863 1032 2486 
Q 934 2109 934 1728 
Q 934 1091 1264 756 
Q 1594 422 2222 422 
Q 2656 422 3056 561 
Q 3456 700 3834 978 
L 3688 231 
Q 3316 72 2936 -9 
Q 2556 -91 2175 -91 
Q 1278 -91 773 396 
Q 269 884 269 1753 
Q 269 2309 461 2846 
Q 653 3384 1013 3828 
Q 1394 4300 1883 4525 
Q 2372 4750 3022 4750 
Q 3422 4750 3780 4639 
Q 4138 4528 4447 4306 
z
" transform="scale(0.015625)"/>
       <path id="DejaVuSans-Oblique-44" d="M 1081 4666 
L 2438 4666 
Q 3519 4666 4070 4208 
Q 4622 3750 4622 2847 
Q 4622 2250 4412 1698 
Q 4203 1147 3834 769 
Q 3463 381 2891 190 
Q 2319 0 1538 0 
L 172 0 
L 1081 4666 
z
M 1613 4147 
L 909 519 
L 1734 519 
Q 2794 519 3375 1128 
Q 3956 1738 3956 2847 
Q 3956 3519 3581 3833 
Q 3206 4147 2406 4147 
L 1613 4147 
z
" transform="scale(0.015625)"/>
       <path id="DejaVuSans-2d" d="M 313 2009 
L 1997 2009 
L 1997 1497 
L 313 1497 
L 313 2009 
z
" transform="scale(0.015625)"/>
      </defs>
      <use xlink:href="#DejaVuSans-Oblique-43" transform="translate(0 0.015625)"/>
      <use xlink:href="#DejaVuSans-Oblique-44" transform="translate(69.824219 -16.390625) scale(0.7)"/>
      <use xlink:href="#DejaVuSans-20" transform="translate(126.459961 0.015625)"/>
      <use xlink:href="#DejaVuSans-5b" transform="translate(158.24707 0.015625)"/>
      <use xlink:href="#DejaVuSans-2d" transform="translate(197.260742 0.015625)"/>
      <use xlink:href="#DejaVuSans-5d" transform="translate(233.344727 0.015625)"/>
     </g>
    </g>
   </g>
   <g id="line2d_37">
    <path d="M 77.582 328.909525 
L 83.811071 330.187424 
L 90.040141 331.467669 
L 96.269212 332.747406 
L 102.498283 334.023783 
L 108.727354 335.293956 
L 114.956424 336.555083 
L 121.185495 337.804328 
L 127.414566 339.03886 
L 133.643636 340.255853 
L 139.872707 341.452485 
L 146.101778 342.625938 
L 152.330848 343.773402 
L 158.559919 344.892068 
L 164.78899 345.979135 
L 171.018061 347.031805 
L 177.247131 348.047284 
L 183.476202 349.022786 
L 189.705273 349.955526 
L 195.934343 350.842727 
L 202.163414 351.681615 
L 208.392485 352.46942 
L 214.621556 353.20338 
L 220.850626 353.880735 
L 227.079697 354.49873 
L 233.308768 355.054617 
L 239.537838 355.54565 
L 245.766909 355.969089 
L 251.99598 356.322199 
L 258.225051 356.602251 
L 264.454121 356.806517 
L 270.683192 356.932279 
L 276.912263 356.976819 
L 283.141333 356.937427 
L 289.370404 356.811397 
L 295.599475 356.596026 
L 301.828545 356.288619 
L 308.057616 355.886483 
L 314.286687 355.386932 
L 320.515758 354.787282 
L 326.744828 354.084857 
L 332.973899 353.276985 
L 339.20297 352.360996 
L 345.43204 351.334229 
L 351.661111 350.194024 
L 357.890182 348.937729 
L 364.119253 347.562695 
L 370.348323 346.066278 
L 376.577394 344.445839 
L 382.806465 342.698744 
L 389.035535 340.822363 
L 395.264606 338.814072 
L 401.493677 336.671252 
L 407.722747 334.391286 
L 413.951818 331.971566 
L 420.180889 329.409485 
L 426.40996 326.702443 
L 432.63903 323.847845 
L 438.868101 320.843099 
L 445.097172 317.685619 
L 451.326242 314.372825 
L 457.555313 310.902139 
L 463.784384 307.270989 
L 470.013455 303.47681 
L 476.242525 299.517038 
L 482.471596 295.389116 
L 488.700667 291.090493 
L 494.929737 286.61862 
L 501.158808 281.970954 
L 507.387879 277.144958 
L 513.616949 272.138097 
L 519.84602 266.947845 
L 526.075091 261.571676 
L 532.304162 256.007072 
L 538.533232 250.25152 
L 544.762303 244.302509 
L 550.991374 238.157536 
L 557.220444 231.814101 
L 563.449515 225.269708 
L 569.678586 218.521869 
L 575.907657 211.568097 
L 582.136727 204.405913 
L 588.365798 197.032841 
L 594.594869 189.44641 
L 600.823939 181.644154 
L 607.05301 173.623612 
L 613.282081 165.382327 
L 619.511152 156.917848 
L 625.740222 148.227729 
L 631.969293 139.309527 
L 638.198364 130.160805 
L 644.427434 120.779131 
L 650.656505 111.162077 
L 656.885576 101.307221 
L 663.114646 91.212145 
L 669.343717 80.874435 
L 675.572788 70.291684 
L 681.801859 59.461487 
L 688.030929 48.381447 
L 694.26 37.049169 
" clip-path="url(#pa1e147a2e8)" style="fill: none; stroke-dasharray: 9.6,2.4,1.5,2.4; stroke-dashoffset: 0; stroke: #00a6b6; stroke-width: 1.5"/>
   </g>
   <g id="line2d_38">
    <path d="M 77.582 330.685944 
L 83.811071 331.848126 
L 90.040141 333.017544 
L 96.269212 334.190995 
L 102.498283 335.365295 
L 108.727354 336.537275 
L 114.956424 337.703783 
L 121.185495 338.861685 
L 127.414566 340.007865 
L 133.643636 341.139222 
L 139.872707 342.252675 
L 146.101778 343.345158 
L 152.330848 344.413622 
L 158.559919 345.455039 
L 164.78899 346.466392 
L 171.018061 347.444687 
L 177.247131 348.386944 
L 183.476202 349.290201 
L 189.705273 350.151513 
L 195.934343 350.967952 
L 202.163414 351.736609 
L 208.392485 352.454589 
L 214.621556 353.119018 
L 220.850626 353.727035 
L 227.079697 354.275801 
L 233.308768 354.762489 
L 239.537838 355.184294 
L 245.766909 355.538425 
L 251.99598 355.822109 
L 258.225051 356.032591 
L 264.454121 356.167132 
L 270.683192 356.223012 
L 276.912263 356.197527 
L 283.141333 356.087989 
L 289.370404 355.891729 
L 295.599475 355.606095 
L 301.828545 355.228452 
L 308.057616 354.756182 
L 314.286687 354.186685 
L 320.515758 353.517375 
L 326.744828 352.745689 
L 332.973899 351.869075 
L 339.20297 350.885004 
L 345.43204 349.790959 
L 351.661111 348.584443 
L 357.890182 347.262977 
L 364.119253 345.824096 
L 370.348323 344.265356 
L 376.577394 342.584327 
L 382.806465 340.778599 
L 389.035535 338.845777 
L 395.264606 336.783483 
L 401.493677 334.589359 
L 407.722747 332.261061 
L 413.951818 329.796264 
L 420.180889 327.19266 
L 426.40996 324.447958 
L 432.63903 321.559884 
L 438.868101 318.526182 
L 445.097172 315.344612 
L 451.326242 312.012952 
L 457.555313 308.528997 
L 463.784384 304.890559 
L 470.013455 301.095468 
L 476.242525 297.14157 
L 482.471596 293.02673 
L 488.700667 288.748828 
L 494.929737 284.305762 
L 501.158808 279.695449 
L 507.387879 274.91582 
L 513.616949 269.964826 
L 519.84602 264.840434 
L 526.075091 259.540628 
L 532.304162 254.063409 
L 538.533232 248.406797 
L 544.762303 242.568826 
L 550.991374 236.547551 
L 557.220444 230.341042 
L 563.449515 223.947386 
L 569.678586 217.364687 
L 575.907657 210.591069 
L 582.136727 203.624669 
L 588.365798 196.463645 
L 594.594869 189.10617 
L 600.823939 181.550434 
L 607.05301 173.794646 
L 613.282081 165.837031 
L 619.511152 157.675831 
L 625.740222 149.309306 
L 631.969293 140.735733 
L 638.198364 131.953405 
L 644.427434 122.960634 
L 650.656505 113.755748 
L 656.885576 104.337093 
L 663.114646 94.703031 
L 669.343717 84.851944 
L 675.572788 74.782227 
L 681.801859 64.492296 
L 688.030929 53.980581 
L 694.26 43.245533 
" clip-path="url(#pa1e147a2e8)" style="fill: none; stroke-dasharray: 9.6,2.4,1.5,2.4; stroke-dashoffset: 0; stroke: #a50034; stroke-width: 1.5"/>
   </g>
   <g id="line2d_39">
    <path d="M 77.582 328.909525 
L 83.811071 330.187424 
L 90.040141 331.467669 
L 96.269212 332.747406 
L 102.498283 334.023783 
L 108.727354 335.293956 
L 114.956424 336.555083 
L 121.185495 337.804328 
L 127.414566 339.03886 
L 133.643636 340.255853 
L 139.872707 341.452485 
L 146.101778 342.625938 
L 152.330848 343.773402 
L 158.559919 344.892068 
L 164.78899 345.979135 
L 171.018061 347.031805 
L 177.247131 348.047284 
L 183.476202 349.022786 
L 189.705273 349.955526 
L 195.934343 350.842727 
L 202.163414 351.681615 
L 208.392485 352.46942 
L 214.621556 353.20338 
L 220.850626 353.880735 
L 227.079697 354.49873 
L 233.308768 355.054617 
L 239.537838 355.54565 
L 245.766909 355.969089 
L 251.99598 356.322199 
L 258.225051 356.602251 
L 264.454121 356.806517 
L 270.683192 356.932279 
L 276.912263 356.976819 
L 283.141333 356.937427 
L 289.370404 356.811397 
L 295.599475 356.596026 
L 301.828545 356.288619 
L 308.057616 355.886483 
L 314.286687 355.386932 
L 320.515758 354.787282 
L 326.744828 354.084857 
L 332.973899 353.276985 
L 339.20297 352.360996 
L 345.43204 351.334229 
L 351.661111 350.194024 
L 357.890182 348.937729 
L 364.119253 347.562695 
L 370.348323 346.066278 
L 376.577394 344.445839 
L 382.806465 342.698744 
L 389.035535 340.822363 
L 395.264606 338.814072 
L 401.493677 336.671252 
L 407.722747 334.391286 
L 413.951818 331.971566 
L 420.180889 329.409485 
L 426.40996 326.702443 
L 432.63903 323.847845 
L 438.868101 320.843099 
L 445.097172 317.685619 
L 451.326242 314.372825 
L 457.555313 310.902139 
L 463.784384 307.270989 
L 470.013455 303.47681 
L 476.242525 299.517038 
L 482.471596 295.389116 
L 488.700667 291.090493 
L 494.929737 286.61862 
L 501.158808 281.970954 
L 507.387879 277.144958 
L 513.616949 272.138097 
L 519.84602 266.947845 
L 526.075091 261.571676 
L 532.304162 256.007072 
L 538.533232 250.25152 
L 544.762303 244.302509 
L 550.991374 238.157536 
L 557.220444 231.814101 
L 563.449515 225.269708 
L 569.678586 218.521869 
L 575.907657 211.568097 
L 582.136727 204.405913 
L 588.365798 197.032841 
L 594.594869 189.44641 
L 600.823939 181.644154 
L 607.05301 173.623612 
L 613.282081 165.382327 
L 619.511152 156.917848 
L 625.740222 148.227729 
L 631.969293 139.309527 
L 638.198364 130.160805 
L 644.427434 120.779131 
L 650.656505 111.162077 
L 656.885576 101.307221 
L 663.114646 91.212145 
L 669.343717 80.874435 
L 675.572788 70.291684 
L 681.801859 59.461487 
L 688.030929 48.381447 
L 694.26 37.049169 
" clip-path="url(#pa1e147a2e8)" style="fill: none; stroke-dasharray: 9.6,2.4,1.5,2.4; stroke-dashoffset: 0; stroke: #ef60a3; stroke-width: 1.5"/>
   </g>
   <g id="line2d_40">
    <path d="M 77.582 323.565057 
L 83.811071 325.465791 
L 90.040141 327.325467 
L 96.269212 329.142834 
L 102.498283 330.91662 
L 108.727354 332.645531 
L 114.956424 334.328255 
L 121.185495 335.963457 
L 127.414566 337.549781 
L 133.643636 339.085852 
L 139.872707 340.570272 
L 146.101778 342.001624 
L 152.330848 343.378469 
L 158.559919 344.699348 
L 164.78899 345.96278 
L 171.018061 347.167265 
L 177.247131 348.31128 
L 183.476202 349.393284 
L 189.705273 350.411711 
L 195.934343 351.364979 
L 202.163414 352.251482 
L 208.392485 353.069595 
L 214.621556 353.817669 
L 220.850626 354.494038 
L 227.079697 355.097014 
L 233.308768 355.624887 
L 239.537838 356.075927 
L 245.766909 356.448384 
L 251.99598 356.740485 
L 258.225051 356.950438 
L 264.454121 357.07643 
L 270.683192 357.116627 
L 276.912263 357.069174 
L 283.141333 356.932195 
L 289.370404 356.703793 
L 295.599475 356.382051 
L 301.828545 355.965032 
L 308.057616 355.450775 
L 314.286687 354.837301 
L 320.515758 354.12261 
L 326.744828 353.304679 
L 332.973899 352.381467 
L 339.20297 351.350911 
L 345.43204 350.210926 
L 351.661111 348.959408 
L 357.890182 347.594231 
L 364.119253 346.113249 
L 370.348323 344.514294 
L 376.577394 342.795179 
L 382.806465 340.953695 
L 389.035535 338.987613 
L 395.264606 336.89468 
L 401.493677 334.672627 
L 407.722747 332.319162 
L 413.951818 329.83197 
L 420.180889 327.208719 
L 426.40996 324.447055 
L 432.63903 321.5446 
L 438.868101 318.49896 
L 445.097172 315.307718 
L 451.326242 311.968435 
L 457.555313 308.478653 
L 463.784384 304.835892 
L 470.013455 301.037653 
L 476.242525 297.081413 
L 482.471596 292.964632 
L 488.700667 288.684745 
L 494.929737 284.239171 
L 501.158808 279.625304 
L 507.387879 274.840519 
L 513.616949 269.88217 
L 519.84602 264.747591 
L 526.075091 259.434093 
L 532.304162 253.938969 
L 538.533232 248.259488 
L 544.762303 242.392902 
L 550.991374 236.336438 
L 557.220444 230.087305 
L 563.449515 223.642691 
L 569.678586 216.999762 
L 575.907657 210.155664 
L 582.136727 203.107522 
L 588.365798 195.85244 
L 594.594869 188.387502 
L 600.823939 180.70977 
L 607.05301 172.816285 
L 613.282081 164.704069 
L 619.511152 156.370122 
L 625.740222 147.811423 
L 631.969293 139.02493 
L 638.198364 130.007581 
L 644.427434 120.756293 
L 650.656505 111.267962 
L 656.885576 101.539463 
L 663.114646 91.56765 
L 669.343717 81.349358 
L 675.572788 70.881397 
L 681.801859 60.160561 
L 688.030929 49.183621 
L 694.26 37.947327 
" clip-path="url(#pa1e147a2e8)" style="fill: none; stroke-dasharray: 9.6,2.4,1.5,2.4; stroke-dashoffset: 0; stroke: #6cc24a; stroke-width: 1.5"/>
   </g>
   <g id="patch_3">
    <path d="M 77.582 373.12 
L 77.582 21.045796 
" style="fill: none; stroke: #000000; stroke-width: 0.8; stroke-linejoin: miter; stroke-linecap: square"/>
   </g>
   <g id="patch_4">
    <path d="M 694.26 373.12 
L 694.26 21.045796 
" style="fill: none; stroke: #000000; stroke-width: 0.8; stroke-linejoin: miter; stroke-linecap: square"/>
   </g>
   <g id="patch_5">
    <path d="M 77.582 373.12 
L 694.26 373.12 
" style="fill: none; stroke: #000000; stroke-width: 0.8; stroke-linejoin: miter; stroke-linecap: square"/>
   </g>
   <g id="patch_6">
    <path d="M 77.582 21.045796 
L 694.26 21.045796 
" style="fill: none; stroke: #000000; stroke-width: 0.8; stroke-linejoin: miter; stroke-linecap: square"/>
   </g>
   <g id="legend_1">
    <g id="patch_7">
     <path d="M 88.082 121.114546 
L 273.451531 121.114546 
Q 276.451531 121.114546 276.451531 118.114546 
L 276.451531 31.545796 
Q 276.451531 28.545796 273.451531 28.545796 
L 88.082 28.545796 
Q 85.082 28.545796 85.082 31.545796 
L 85.082 118.114546 
Q 85.082 121.114546 88.082 121.114546 
z
" style="fill: #ffffff; opacity: 0.8; stroke: #cccccc; stroke-linejoin: miter"/>
    </g>
    <g id="line2d_41">
     <path d="M 91.082 40.693452 
L 106.082 40.693452 
L 121.082 40.693452 
" style="fill: none; stroke-dasharray: 9.6,2.4,1.5,2.4; stroke-dashoffset: 0; stroke: #00a6b6; stroke-width: 1.5"/>
    </g>
    <g id="text_21">
     <!-- Uncorrected J=1.8 -->
     <g transform="translate(133.082 45.943452) scale(0.15 -0.15)">
      <defs>
       <path id="DejaVuSans-55" d="M 556 4666 
L 1191 4666 
L 1191 1831 
Q 1191 1081 1462 751 
Q 1734 422 2344 422 
Q 2950 422 3222 751 
Q 3494 1081 3494 1831 
L 3494 4666 
L 4128 4666 
L 4128 1753 
Q 4128 841 3676 375 
Q 3225 -91 2344 -91 
Q 1459 -91 1007 375 
Q 556 841 556 1753 
L 556 4666 
z
" transform="scale(0.015625)"/>
       <path id="DejaVuSans-6e" d="M 3513 2113 
L 3513 0 
L 2938 0 
L 2938 2094 
Q 2938 2591 2744 2837 
Q 2550 3084 2163 3084 
Q 1697 3084 1428 2787 
Q 1159 2491 1159 1978 
L 1159 0 
L 581 0 
L 581 3500 
L 1159 3500 
L 1159 2956 
Q 1366 3272 1645 3428 
Q 1925 3584 2291 3584 
Q 2894 3584 3203 3211 
Q 3513 2838 3513 2113 
z
" transform="scale(0.015625)"/>
       <path id="DejaVuSans-63" d="M 3122 3366 
L 3122 2828 
Q 2878 2963 2633 3030 
Q 2388 3097 2138 3097 
Q 1578 3097 1268 2742 
Q 959 2388 959 1747 
Q 959 1106 1268 751 
Q 1578 397 2138 397 
Q 2388 397 2633 464 
Q 2878 531 3122 666 
L 3122 134 
Q 2881 22 2623 -34 
Q 2366 -91 2075 -91 
Q 1284 -91 818 406 
Q 353 903 353 1747 
Q 353 2603 823 3093 
Q 1294 3584 2113 3584 
Q 2378 3584 2631 3529 
Q 2884 3475 3122 3366 
z
" transform="scale(0.015625)"/>
       <path id="DejaVuSans-6f" d="M 1959 3097 
Q 1497 3097 1228 2736 
Q 959 2375 959 1747 
Q 959 1119 1226 758 
Q 1494 397 1959 397 
Q 2419 397 2687 759 
Q 2956 1122 2956 1747 
Q 2956 2369 2687 2733 
Q 2419 3097 1959 3097 
z
M 1959 3584 
Q 2709 3584 3137 3096 
Q 3566 2609 3566 1747 
Q 3566 888 3137 398 
Q 2709 -91 1959 -91 
Q 1206 -91 779 398 
Q 353 888 353 1747 
Q 353 2609 779 3096 
Q 1206 3584 1959 3584 
z
" transform="scale(0.015625)"/>
       <path id="DejaVuSans-72" d="M 2631 2963 
Q 2534 3019 2420 3045 
Q 2306 3072 2169 3072 
Q 1681 3072 1420 2755 
Q 1159 2438 1159 1844 
L 1159 0 
L 581 0 
L 581 3500 
L 1159 3500 
L 1159 2956 
Q 1341 3275 1631 3429 
Q 1922 3584 2338 3584 
Q 2397 3584 2469 3576 
Q 2541 3569 2628 3553 
L 2631 2963 
z
" transform="scale(0.015625)"/>
       <path id="DejaVuSans-74" d="M 1172 4494 
L 1172 3500 
L 2356 3500 
L 2356 3053 
L 1172 3053 
L 1172 1153 
Q 1172 725 1289 603 
Q 1406 481 1766 481 
L 2356 481 
L 2356 0 
L 1766 0 
Q 1100 0 847 248 
Q 594 497 594 1153 
L 594 3053 
L 172 3053 
L 172 3500 
L 594 3500 
L 594 4494 
L 1172 4494 
z
" transform="scale(0.015625)"/>
       <path id="DejaVuSans-4a" d="M 628 4666 
L 1259 4666 
L 1259 325 
Q 1259 -519 939 -900 
Q 619 -1281 -91 -1281 
L -331 -1281 
L -331 -750 
L -134 -750 
Q 284 -750 456 -515 
Q 628 -281 628 325 
L 628 4666 
z
" transform="scale(0.015625)"/>
       <path id="DejaVuSans-3d" d="M 678 2906 
L 4684 2906 
L 4684 2381 
L 678 2381 
L 678 2906 
z
M 678 1631 
L 4684 1631 
L 4684 1100 
L 678 1100 
L 678 1631 
z
" transform="scale(0.015625)"/>
      </defs>
      <use xlink:href="#DejaVuSans-55"/>
      <use xlink:href="#DejaVuSans-6e" x="73.193359"/>
      <use xlink:href="#DejaVuSans-63" x="136.572266"/>
      <use xlink:href="#DejaVuSans-6f" x="191.552734"/>
      <use xlink:href="#DejaVuSans-72" x="252.734375"/>
      <use xlink:href="#DejaVuSans-72" x="292.097656"/>
      <use xlink:href="#DejaVuSans-65" x="330.960938"/>
      <use xlink:href="#DejaVuSans-63" x="392.484375"/>
      <use xlink:href="#DejaVuSans-74" x="447.464844"/>
      <use xlink:href="#DejaVuSans-65" x="486.673828"/>
      <use xlink:href="#DejaVuSans-64" x="548.197266"/>
      <use xlink:href="#DejaVuSans-20" x="611.673828"/>
      <use xlink:href="#DejaVuSans-4a" x="643.460938"/>
      <use xlink:href="#DejaVuSans-3d" x="672.953125"/>
      <use xlink:href="#DejaVuSans-31" x="756.742188"/>
      <use xlink:href="#DejaVuSans-2e" x="820.365234"/>
      <use xlink:href="#DejaVuSans-38" x="852.152344"/>
     </g>
    </g>
    <g id="line2d_42">
     <path d="M 91.082 62.710639 
L 106.082 62.710639 
L 121.082 62.710639 
" style="fill: none; stroke-dasharray: 9.6,2.4,1.5,2.4; stroke-dashoffset: 0; stroke: #a50034; stroke-width: 1.5"/>
    </g>
    <g id="text_22">
     <!-- Corrected J=1.8 -->
     <g transform="translate(133.082 67.960639) scale(0.15 -0.15)">
      <defs>
       <path id="DejaVuSans-43" d="M 4122 4306 
L 4122 3641 
Q 3803 3938 3442 4084 
Q 3081 4231 2675 4231 
Q 1875 4231 1450 3742 
Q 1025 3253 1025 2328 
Q 1025 1406 1450 917 
Q 1875 428 2675 428 
Q 3081 428 3442 575 
Q 3803 722 4122 1019 
L 4122 359 
Q 3791 134 3420 21 
Q 3050 -91 2638 -91 
Q 1578 -91 968 557 
Q 359 1206 359 2328 
Q 359 3453 968 4101 
Q 1578 4750 2638 4750 
Q 3056 4750 3426 4639 
Q 3797 4528 4122 4306 
z
" transform="scale(0.015625)"/>
      </defs>
      <use xlink:href="#DejaVuSans-43"/>
      <use xlink:href="#DejaVuSans-6f" x="69.824219"/>
      <use xlink:href="#DejaVuSans-72" x="131.005859"/>
      <use xlink:href="#DejaVuSans-72" x="170.369141"/>
      <use xlink:href="#DejaVuSans-65" x="209.232422"/>
      <use xlink:href="#DejaVuSans-63" x="270.755859"/>
      <use xlink:href="#DejaVuSans-74" x="325.736328"/>
      <use xlink:href="#DejaVuSans-65" x="364.945312"/>
      <use xlink:href="#DejaVuSans-64" x="426.46875"/>
      <use xlink:href="#DejaVuSans-20" x="489.945312"/>
      <use xlink:href="#DejaVuSans-4a" x="521.732422"/>
      <use xlink:href="#DejaVuSans-3d" x="551.224609"/>
      <use xlink:href="#DejaVuSans-31" x="635.013672"/>
      <use xlink:href="#DejaVuSans-2e" x="698.636719"/>
      <use xlink:href="#DejaVuSans-38" x="730.423828"/>
     </g>
    </g>
    <g id="line2d_43">
     <path d="M 91.082 84.727827 
L 106.082 84.727827 
L 121.082 84.727827 
" style="fill: none; stroke-dasharray: 9.6,2.4,1.5,2.4; stroke-dashoffset: 0; stroke: #ef60a3; stroke-width: 1.5"/>
    </g>
    <g id="text_23">
     <!-- Uncorrected J=3.5 -->
     <g transform="translate(133.082 89.977827) scale(0.15 -0.15)">
      <use xlink:href="#DejaVuSans-55"/>
      <use xlink:href="#DejaVuSans-6e" x="73.193359"/>
      <use xlink:href="#DejaVuSans-63" x="136.572266"/>
      <use xlink:href="#DejaVuSans-6f" x="191.552734"/>
      <use xlink:href="#DejaVuSans-72" x="252.734375"/>
      <use xlink:href="#DejaVuSans-72" x="292.097656"/>
      <use xlink:href="#DejaVuSans-65" x="330.960938"/>
      <use xlink:href="#DejaVuSans-63" x="392.484375"/>
      <use xlink:href="#DejaVuSans-74" x="447.464844"/>
      <use xlink:href="#DejaVuSans-65" x="486.673828"/>
      <use xlink:href="#DejaVuSans-64" x="548.197266"/>
      <use xlink:href="#DejaVuSans-20" x="611.673828"/>
      <use xlink:href="#DejaVuSans-4a" x="643.460938"/>
      <use xlink:href="#DejaVuSans-3d" x="672.953125"/>
      <use xlink:href="#DejaVuSans-33" x="756.742188"/>
      <use xlink:href="#DejaVuSans-2e" x="820.365234"/>
      <use xlink:href="#DejaVuSans-35" x="852.152344"/>
     </g>
    </g>
    <g id="line2d_44">
     <path d="M 91.082 106.745014 
L 106.082 106.745014 
L 121.082 106.745014 
" style="fill: none; stroke-dasharray: 9.6,2.4,1.5,2.4; stroke-dashoffset: 0; stroke: #6cc24a; stroke-width: 1.5"/>
    </g>
    <g id="text_24">
     <!-- Corrected J=3.5 -->
     <g transform="translate(133.082 111.995014) scale(0.15 -0.15)">
      <use xlink:href="#DejaVuSans-43"/>
      <use xlink:href="#DejaVuSans-6f" x="69.824219"/>
      <use xlink:href="#DejaVuSans-72" x="131.005859"/>
      <use xlink:href="#DejaVuSans-72" x="170.369141"/>
      <use xlink:href="#DejaVuSans-65" x="209.232422"/>
      <use xlink:href="#DejaVuSans-63" x="270.755859"/>
      <use xlink:href="#DejaVuSans-74" x="325.736328"/>
      <use xlink:href="#DejaVuSans-65" x="364.945312"/>
      <use xlink:href="#DejaVuSans-64" x="426.46875"/>
      <use xlink:href="#DejaVuSans-20" x="489.945312"/>
      <use xlink:href="#DejaVuSans-4a" x="521.732422"/>
      <use xlink:href="#DejaVuSans-3d" x="551.224609"/>
      <use xlink:href="#DejaVuSans-33" x="635.013672"/>
      <use xlink:href="#DejaVuSans-2e" x="698.636719"/>
      <use xlink:href="#DejaVuSans-35" x="730.423828"/>
     </g>
    </g>
   </g>
  </g>
 </g>
 <defs>
  <clipPath id="pa1e147a2e8">
   <rect x="77.582" y="21.045796" width="616.678" height="352.074204"/>
  </clipPath>
 </defs>
</svg>
