<?xml version="1.0" encoding="utf-8" standalone="no"?>
<!DOCTYPE svg PUBLIC "-//W3C//DTD SVG 1.1//EN"
  "http://www.w3.org/Graphics/SVG/1.1/DTD/svg11.dtd">
<svg xmlns:xlink="http://www.w3.org/1999/xlink" width="576pt" height="432pt" viewBox="0 0 576 432" xmlns="http://www.w3.org/2000/svg" version="1.1">
 <metadata>
  <rdf:RDF xmlns:dc="http://purl.org/dc/elements/1.1/" xmlns:cc="http://creativecommons.org/ns#" xmlns:rdf="http://www.w3.org/1999/02/22-rdf-syntax-ns#">
   <cc:Work>
    <dc:type rdf:resource="http://purl.org/dc/dcmitype/StillImage"/>
    <dc:date>2024-04-03T16:46:21.873516</dc:date>
    <dc:format>image/svg+xml</dc:format>
    <dc:creator>
     <cc:Agent>
      <dc:title>Matplotlib v3.8.0, https://matplotlib.org/</dc:title>
     </cc:Agent>
    </dc:creator>
   </cc:Work>
  </rdf:RDF>
 </metadata>
 <defs>
  <style type="text/css">*{stroke-linejoin: round; stroke-linecap: butt}</style>
 </defs>
 <g id="figure_1">
  <g id="patch_1">
   <path d="M 0 432 
L 576 432 
L 576 0 
L 0 0 
z
" style="fill: #ffffff"/>
  </g>
  <g id="axes_1">
   <g id="patch_2">
    <path d="M 103.286 356.2 
L 541.71 356.2 
L 541.71 21.6 
L 103.286 21.6 
z
" style="fill: #ffffff"/>
   </g>
   <g id="PathCollection_1">
    <defs>
     <path id="mff4c8972f3" d="M 0 3 
C 0.795609 3 1.55874 2.683901 2.12132 2.12132 
C 2.683901 1.55874 3 0.795609 3 0 
C 3 -0.795609 2.683901 -1.55874 2.12132 -2.12132 
C 1.55874 -2.683901 0.795609 -3 0 -3 
C -0.795609 -3 -1.55874 -2.683901 -2.12132 -2.12132 
C -2.683901 -1.55874 -3 -0.795609 -3 0 
C -3 0.795609 -2.683901 1.55874 -2.12132 2.12132 
C -1.55874 2.683901 -0.795609 3 0 3 
z
" style="stroke: #00a6b6"/>
    </defs>
    <g clip-path="url(#p4db0eff44f)">
     <use xlink:href="#mff4c8972f3" x="176.356667" y="94.342535" style="fill: #00a6b6; stroke: #00a6b6"/>
     <use xlink:href="#mff4c8972f3" x="351.726267" y="196.401732" style="fill: #00a6b6; stroke: #00a6b6"/>
     <use xlink:href="#mff4c8972f3" x="424.796933" y="261.946616" style="fill: #00a6b6; stroke: #00a6b6"/>
     <use xlink:href="#mff4c8972f3" x="454.0252" y="288.008732" style="fill: #00a6b6; stroke: #00a6b6"/>
    </g>
   </g>
   <g id="PathCollection_2">
    <defs>
     <path id="m8aef7268c0" d="M 0 3 
C 0.795609 3 1.55874 2.683901 2.12132 2.12132 
C 2.683901 1.55874 3 0.795609 3 0 
C 3 -0.795609 2.683901 -1.55874 2.12132 -2.12132 
C 1.55874 -2.683901 0.795609 -3 0 -3 
C -0.795609 -3 -1.55874 -2.683901 -2.12132 -2.12132 
C -2.683901 -1.55874 -3 -0.795609 -3 0 
C -3 0.795609 -2.683901 1.55874 -2.12132 2.12132 
C -1.55874 2.683901 -0.795609 3 0 3 
z
" style="stroke: #a50034"/>
    </defs>
    <g clip-path="url(#p4db0eff44f)">
     <use xlink:href="#m8aef7268c0" x="175.439763" y="96.283557" style="fill: #a50034; stroke: #a50034"/>
     <use xlink:href="#m8aef7268c0" x="356.310783" y="189.34146" style="fill: #a50034; stroke: #a50034"/>
     <use xlink:href="#m8aef7268c0" x="430.320929" y="250.688782" style="fill: #a50034; stroke: #a50034"/>
     <use xlink:href="#m8aef7268c0" x="459.993024" y="274.896483" style="fill: #a50034; stroke: #a50034"/>
    </g>
   </g>
   <g id="PathCollection_3">
    <defs>
     <path id="m550c84ae12" d="M 0 3 
C 0.795609 3 1.55874 2.683901 2.12132 2.12132 
C 2.683901 1.55874 3 0.795609 3 0 
C 3 -0.795609 2.683901 -1.55874 2.12132 -2.12132 
C 1.55874 -2.683901 0.795609 -3 0 -3 
C -0.795609 -3 -1.55874 -2.683901 -2.12132 -2.12132 
C -2.683901 -1.55874 -3 -0.795609 -3 0 
C -3 0.795609 -2.683901 1.55874 -2.12132 2.12132 
C -1.55874 2.683901 -0.795609 3 0 3 
z
" style="stroke: #ef60a3"/>
    </defs>
    <g clip-path="url(#p4db0eff44f)">
     <use xlink:href="#m550c84ae12" x="176.356667" y="85.154596" style="fill: #ef60a3; stroke: #ef60a3"/>
     <use xlink:href="#m550c84ae12" x="249.427333" y="126.84059" style="fill: #ef60a3; stroke: #ef60a3"/>
     <use xlink:href="#m550c84ae12" x="351.726267" y="178.074538" style="fill: #ef60a3; stroke: #ef60a3"/>
     <use xlink:href="#m550c84ae12" x="424.796933" y="234.67028" style="fill: #ef60a3; stroke: #ef60a3"/>
     <use xlink:href="#m550c84ae12" x="454.0252" y="257.696695" style="fill: #ef60a3; stroke: #ef60a3"/>
    </g>
   </g>
   <g id="PathCollection_4">
    <defs>
     <path id="m1ac35130aa" d="M 0 3 
C 0.795609 3 1.55874 2.683901 2.12132 2.12132 
C 2.683901 1.55874 3 0.795609 3 0 
C 3 -0.795609 2.683901 -1.55874 2.12132 -2.12132 
C 1.55874 -2.683901 0.795609 -3 0 -3 
C -0.795609 -3 -1.55874 -2.683901 -2.12132 -2.12132 
C -2.683901 -1.55874 -3 -0.795609 -3 0 
C -3 0.795609 -2.683901 1.55874 -2.12132 2.12132 
C -1.55874 2.683901 -0.795609 3 0 3 
z
" style="stroke: #6cc24a"/>
    </defs>
    <g clip-path="url(#p4db0eff44f)">
     <use xlink:href="#m1ac35130aa" x="175.439763" y="87.223867" style="fill: #6cc24a; stroke: #6cc24a"/>
     <use xlink:href="#m1ac35130aa" x="250.955334" y="123.642476" style="fill: #6cc24a; stroke: #6cc24a"/>
     <use xlink:href="#m1ac35130aa" x="356.310783" y="171.835342" style="fill: #6cc24a; stroke: #6cc24a"/>
     <use xlink:href="#m1ac35130aa" x="430.320929" y="225.066981" style="fill: #6cc24a; stroke: #6cc24a"/>
     <use xlink:href="#m1ac35130aa" x="459.993024" y="246.558483" style="fill: #6cc24a; stroke: #6cc24a"/>
    </g>
   </g>
   <g id="matplotlib.axis_1">
    <g id="xtick_1">
     <g id="line2d_1">
      <path d="M 103.286 356.2 
L 103.286 21.6 
" clip-path="url(#p4db0eff44f)" style="fill: none; stroke: #b0b0b0; stroke-width: 0.8; stroke-linecap: square"/>
     </g>
     <g id="line2d_2">
      <defs>
       <path id="m042fac1e19" d="M 0 0 
L 0 3.5 
" style="stroke: #000000; stroke-width: 0.8"/>
      </defs>
      <g>
       <use xlink:href="#m042fac1e19" x="103.286" y="356.2" style="stroke: #000000; stroke-width: 0.8"/>
      </g>
     </g>
     <g id="text_1">
      <!-- −10 -->
      <g transform="translate(82.181313 378.396875) scale(0.2 -0.2)">
       <defs>
        <path id="DejaVuSans-2212" d="M 678 2272 
L 4684 2272 
L 4684 1741 
L 678 1741 
L 678 2272 
z
" transform="scale(0.015625)"/>
        <path id="DejaVuSans-31" d="M 794 531 
L 1825 531 
L 1825 4091 
L 703 3866 
L 703 4441 
L 1819 4666 
L 2450 4666 
L 2450 531 
L 3481 531 
L 3481 0 
L 794 0 
L 794 531 
z
" transform="scale(0.015625)"/>
        <path id="DejaVuSans-30" d="M 2034 4250 
Q 1547 4250 1301 3770 
Q 1056 3291 1056 2328 
Q 1056 1369 1301 889 
Q 1547 409 2034 409 
Q 2525 409 2770 889 
Q 3016 1369 3016 2328 
Q 3016 3291 2770 3770 
Q 2525 4250 2034 4250 
z
M 2034 4750 
Q 2819 4750 3233 4129 
Q 3647 3509 3647 2328 
Q 3647 1150 3233 529 
Q 2819 -91 2034 -91 
Q 1250 -91 836 529 
Q 422 1150 422 2328 
Q 422 3509 836 4129 
Q 1250 4750 2034 4750 
z
" transform="scale(0.015625)"/>
       </defs>
       <use xlink:href="#DejaVuSans-2212"/>
       <use xlink:href="#DejaVuSans-31" x="83.789062"/>
       <use xlink:href="#DejaVuSans-30" x="147.412109"/>
      </g>
     </g>
    </g>
    <g id="xtick_2">
     <g id="line2d_3">
      <path d="M 176.356667 356.2 
L 176.356667 21.6 
" clip-path="url(#p4db0eff44f)" style="fill: none; stroke: #b0b0b0; stroke-width: 0.8; stroke-linecap: square"/>
     </g>
     <g id="line2d_4">
      <g>
       <use xlink:href="#m042fac1e19" x="176.356667" y="356.2" style="stroke: #000000; stroke-width: 0.8"/>
      </g>
     </g>
     <g id="text_2">
      <!-- −5 -->
      <g transform="translate(161.614479 378.396875) scale(0.2 -0.2)">
       <defs>
        <path id="DejaVuSans-35" d="M 691 4666 
L 3169 4666 
L 3169 4134 
L 1269 4134 
L 1269 2991 
Q 1406 3038 1543 3061 
Q 1681 3084 1819 3084 
Q 2600 3084 3056 2656 
Q 3513 2228 3513 1497 
Q 3513 744 3044 326 
Q 2575 -91 1722 -91 
Q 1428 -91 1123 -41 
Q 819 9 494 109 
L 494 744 
Q 775 591 1075 516 
Q 1375 441 1709 441 
Q 2250 441 2565 725 
Q 2881 1009 2881 1497 
Q 2881 1984 2565 2268 
Q 2250 2553 1709 2553 
Q 1456 2553 1204 2497 
Q 953 2441 691 2322 
L 691 4666 
z
" transform="scale(0.015625)"/>
       </defs>
       <use xlink:href="#DejaVuSans-2212"/>
       <use xlink:href="#DejaVuSans-35" x="83.789062"/>
      </g>
     </g>
    </g>
    <g id="xtick_3">
     <g id="line2d_5">
      <path d="M 249.427333 356.2 
L 249.427333 21.6 
" clip-path="url(#p4db0eff44f)" style="fill: none; stroke: #b0b0b0; stroke-width: 0.8; stroke-linecap: square"/>
     </g>
     <g id="line2d_6">
      <g>
       <use xlink:href="#m042fac1e19" x="249.427333" y="356.2" style="stroke: #000000; stroke-width: 0.8"/>
      </g>
     </g>
     <g id="text_3">
      <!-- 0 -->
      <g transform="translate(243.064833 378.396875) scale(0.2 -0.2)">
       <use xlink:href="#DejaVuSans-30"/>
      </g>
     </g>
    </g>
    <g id="xtick_4">
     <g id="line2d_7">
      <path d="M 322.498 356.2 
L 322.498 21.6 
" clip-path="url(#p4db0eff44f)" style="fill: none; stroke: #b0b0b0; stroke-width: 0.8; stroke-linecap: square"/>
     </g>
     <g id="line2d_8">
      <g>
       <use xlink:href="#m042fac1e19" x="322.498" y="356.2" style="stroke: #000000; stroke-width: 0.8"/>
      </g>
     </g>
     <g id="text_4">
      <!-- 5 -->
      <g transform="translate(316.1355 378.396875) scale(0.2 -0.2)">
       <use xlink:href="#DejaVuSans-35"/>
      </g>
     </g>
    </g>
    <g id="xtick_5">
     <g id="line2d_9">
      <path d="M 395.568667 356.2 
L 395.568667 21.6 
" clip-path="url(#p4db0eff44f)" style="fill: none; stroke: #b0b0b0; stroke-width: 0.8; stroke-linecap: square"/>
     </g>
     <g id="line2d_10">
      <g>
       <use xlink:href="#m042fac1e19" x="395.568667" y="356.2" style="stroke: #000000; stroke-width: 0.8"/>
      </g>
     </g>
     <g id="text_5">
      <!-- 10 -->
      <g transform="translate(382.843667 378.396875) scale(0.2 -0.2)">
       <use xlink:href="#DejaVuSans-31"/>
       <use xlink:href="#DejaVuSans-30" x="63.623047"/>
      </g>
     </g>
    </g>
    <g id="xtick_6">
     <g id="line2d_11">
      <path d="M 468.639333 356.2 
L 468.639333 21.6 
" clip-path="url(#p4db0eff44f)" style="fill: none; stroke: #b0b0b0; stroke-width: 0.8; stroke-linecap: square"/>
     </g>
     <g id="line2d_12">
      <g>
       <use xlink:href="#m042fac1e19" x="468.639333" y="356.2" style="stroke: #000000; stroke-width: 0.8"/>
      </g>
     </g>
     <g id="text_6">
      <!-- 15 -->
      <g transform="translate(455.914333 378.396875) scale(0.2 -0.2)">
       <use xlink:href="#DejaVuSans-31"/>
       <use xlink:href="#DejaVuSans-35" x="63.623047"/>
      </g>
     </g>
    </g>
    <g id="xtick_7">
     <g id="line2d_13">
      <path d="M 541.71 356.2 
L 541.71 21.6 
" clip-path="url(#p4db0eff44f)" style="fill: none; stroke: #b0b0b0; stroke-width: 0.8; stroke-linecap: square"/>
     </g>
     <g id="line2d_14">
      <g>
       <use xlink:href="#m042fac1e19" x="541.71" y="356.2" style="stroke: #000000; stroke-width: 0.8"/>
      </g>
     </g>
     <g id="text_7">
      <!-- 20 -->
      <g transform="translate(528.985 378.396875) scale(0.2 -0.2)">
       <defs>
        <path id="DejaVuSans-32" d="M 1228 531 
L 3431 531 
L 3431 0 
L 469 0 
L 469 531 
Q 828 903 1448 1529 
Q 2069 2156 2228 2338 
Q 2531 2678 2651 2914 
Q 2772 3150 2772 3378 
Q 2772 3750 2511 3984 
Q 2250 4219 1831 4219 
Q 1534 4219 1204 4116 
Q 875 4013 500 3803 
L 500 4441 
Q 881 4594 1212 4672 
Q 1544 4750 1819 4750 
Q 2544 4750 2975 4387 
Q 3406 4025 3406 3419 
Q 3406 3131 3298 2873 
Q 3191 2616 2906 2266 
Q 2828 2175 2409 1742 
Q 1991 1309 1228 531 
z
" transform="scale(0.015625)"/>
       </defs>
       <use xlink:href="#DejaVuSans-32"/>
       <use xlink:href="#DejaVuSans-30" x="63.623047"/>
      </g>
     </g>
    </g>
    <g id="text_8">
     <!-- $\alpha$ [deg] -->
     <g transform="translate(285.998 401.75625) scale(0.2 -0.2)">
      <defs>
       <path id="DejaVuSans-Oblique-3b1" d="M 2619 1628 
L 2622 2350 
Q 2625 3088 2069 3091 
Q 1653 3094 1394 2747 
Q 1069 2319 959 1747 
Q 825 1059 994 731 
Q 1169 397 1547 397 
Q 1966 397 2319 1063 
L 2619 1628 
z
M 2166 3578 
Q 3141 3594 3128 2584 
Q 3128 2584 3616 3500 
L 4128 3500 
L 3119 1603 
L 3109 919 
Q 3109 766 3194 638 
Q 3291 488 3391 488 
L 3669 488 
L 3575 0 
L 3228 0 
Q 2934 0 2722 263 
Q 2622 394 2619 669 
Q 2416 334 2066 50 
Q 1900 -81 1453 -78 
Q 722 -72 456 397 
Q 184 884 353 1747 
Q 534 2675 1009 3097 
Q 1544 3569 2166 3578 
z
" transform="scale(0.015625)"/>
       <path id="DejaVuSans-20" transform="scale(0.015625)"/>
       <path id="DejaVuSans-5b" d="M 550 4863 
L 1875 4863 
L 1875 4416 
L 1125 4416 
L 1125 -397 
L 1875 -397 
L 1875 -844 
L 550 -844 
L 550 4863 
z
" transform="scale(0.015625)"/>
       <path id="DejaVuSans-64" d="M 2906 2969 
L 2906 4863 
L 3481 4863 
L 3481 0 
L 2906 0 
L 2906 525 
Q 2725 213 2448 61 
Q 2172 -91 1784 -91 
Q 1150 -91 751 415 
Q 353 922 353 1747 
Q 353 2572 751 3078 
Q 1150 3584 1784 3584 
Q 2172 3584 2448 3432 
Q 2725 3281 2906 2969 
z
M 947 1747 
Q 947 1113 1208 752 
Q 1469 391 1925 391 
Q 2381 391 2643 752 
Q 2906 1113 2906 1747 
Q 2906 2381 2643 2742 
Q 2381 3103 1925 3103 
Q 1469 3103 1208 2742 
Q 947 2381 947 1747 
z
" transform="scale(0.015625)"/>
       <path id="DejaVuSans-65" d="M 3597 1894 
L 3597 1613 
L 953 1613 
Q 991 1019 1311 708 
Q 1631 397 2203 397 
Q 2534 397 2845 478 
Q 3156 559 3463 722 
L 3463 178 
Q 3153 47 2828 -22 
Q 2503 -91 2169 -91 
Q 1331 -91 842 396 
Q 353 884 353 1716 
Q 353 2575 817 3079 
Q 1281 3584 2069 3584 
Q 2775 3584 3186 3129 
Q 3597 2675 3597 1894 
z
M 3022 2063 
Q 3016 2534 2758 2815 
Q 2500 3097 2075 3097 
Q 1594 3097 1305 2825 
Q 1016 2553 972 2059 
L 3022 2063 
z
" transform="scale(0.015625)"/>
       <path id="DejaVuSans-67" d="M 2906 1791 
Q 2906 2416 2648 2759 
Q 2391 3103 1925 3103 
Q 1463 3103 1205 2759 
Q 947 2416 947 1791 
Q 947 1169 1205 825 
Q 1463 481 1925 481 
Q 2391 481 2648 825 
Q 2906 1169 2906 1791 
z
M 3481 434 
Q 3481 -459 3084 -895 
Q 2688 -1331 1869 -1331 
Q 1566 -1331 1297 -1286 
Q 1028 -1241 775 -1147 
L 775 -588 
Q 1028 -725 1275 -790 
Q 1522 -856 1778 -856 
Q 2344 -856 2625 -561 
Q 2906 -266 2906 331 
L 2906 616 
Q 2728 306 2450 153 
Q 2172 0 1784 0 
Q 1141 0 747 490 
Q 353 981 353 1791 
Q 353 2603 747 3093 
Q 1141 3584 1784 3584 
Q 2172 3584 2450 3431 
Q 2728 3278 2906 2969 
L 2906 3500 
L 3481 3500 
L 3481 434 
z
" transform="scale(0.015625)"/>
       <path id="DejaVuSans-5d" d="M 1947 4863 
L 1947 -844 
L 622 -844 
L 622 -397 
L 1369 -397 
L 1369 4416 
L 622 4416 
L 622 4863 
L 1947 4863 
z
" transform="scale(0.015625)"/>
      </defs>
      <use xlink:href="#DejaVuSans-Oblique-3b1" transform="translate(0 0.015625)"/>
      <use xlink:href="#DejaVuSans-20" transform="translate(65.917969 0.015625)"/>
      <use xlink:href="#DejaVuSans-5b" transform="translate(97.705078 0.015625)"/>
      <use xlink:href="#DejaVuSans-64" transform="translate(136.71875 0.015625)"/>
      <use xlink:href="#DejaVuSans-65" transform="translate(200.195312 0.015625)"/>
      <use xlink:href="#DejaVuSans-67" transform="translate(261.71875 0.015625)"/>
      <use xlink:href="#DejaVuSans-5d" transform="translate(325.195312 0.015625)"/>
     </g>
    </g>
   </g>
   <g id="matplotlib.axis_2">
    <g id="ytick_1">
     <g id="line2d_15">
      <path d="M 103.286 334.297068 
L 541.71 334.297068 
" clip-path="url(#p4db0eff44f)" style="fill: none; stroke: #b0b0b0; stroke-width: 0.8; stroke-linecap: square"/>
     </g>
     <g id="line2d_16">
      <defs>
       <path id="m9ba375f0ec" d="M 0 0 
L -3.5 0 
" style="stroke: #000000; stroke-width: 0.8"/>
      </defs>
      <g>
       <use xlink:href="#m9ba375f0ec" x="103.286" y="334.297068" style="stroke: #000000; stroke-width: 0.8"/>
      </g>
     </g>
     <g id="text_9">
      <!-- −1.0 -->
      <g transform="translate(47.720375 341.895506) scale(0.2 -0.2)">
       <defs>
        <path id="DejaVuSans-2e" d="M 684 794 
L 1344 794 
L 1344 0 
L 684 0 
L 684 794 
z
" transform="scale(0.015625)"/>
       </defs>
       <use xlink:href="#DejaVuSans-2212"/>
       <use xlink:href="#DejaVuSans-31" x="83.789062"/>
       <use xlink:href="#DejaVuSans-2e" x="147.412109"/>
       <use xlink:href="#DejaVuSans-30" x="179.199219"/>
      </g>
     </g>
    </g>
    <g id="ytick_2">
     <g id="line2d_17">
      <path d="M 103.286 292.380739 
L 541.71 292.380739 
" clip-path="url(#p4db0eff44f)" style="fill: none; stroke: #b0b0b0; stroke-width: 0.8; stroke-linecap: square"/>
     </g>
     <g id="line2d_18">
      <g>
       <use xlink:href="#m9ba375f0ec" x="103.286" y="292.380739" style="stroke: #000000; stroke-width: 0.8"/>
      </g>
     </g>
     <g id="text_10">
      <!-- −0.8 -->
      <g transform="translate(47.720375 299.979176) scale(0.2 -0.2)">
       <defs>
        <path id="DejaVuSans-38" d="M 2034 2216 
Q 1584 2216 1326 1975 
Q 1069 1734 1069 1313 
Q 1069 891 1326 650 
Q 1584 409 2034 409 
Q 2484 409 2743 651 
Q 3003 894 3003 1313 
Q 3003 1734 2745 1975 
Q 2488 2216 2034 2216 
z
M 1403 2484 
Q 997 2584 770 2862 
Q 544 3141 544 3541 
Q 544 4100 942 4425 
Q 1341 4750 2034 4750 
Q 2731 4750 3128 4425 
Q 3525 4100 3525 3541 
Q 3525 3141 3298 2862 
Q 3072 2584 2669 2484 
Q 3125 2378 3379 2068 
Q 3634 1759 3634 1313 
Q 3634 634 3220 271 
Q 2806 -91 2034 -91 
Q 1263 -91 848 271 
Q 434 634 434 1313 
Q 434 1759 690 2068 
Q 947 2378 1403 2484 
z
M 1172 3481 
Q 1172 3119 1398 2916 
Q 1625 2713 2034 2713 
Q 2441 2713 2670 2916 
Q 2900 3119 2900 3481 
Q 2900 3844 2670 4047 
Q 2441 4250 2034 4250 
Q 1625 4250 1398 4047 
Q 1172 3844 1172 3481 
z
" transform="scale(0.015625)"/>
       </defs>
       <use xlink:href="#DejaVuSans-2212"/>
       <use xlink:href="#DejaVuSans-30" x="83.789062"/>
       <use xlink:href="#DejaVuSans-2e" x="147.412109"/>
       <use xlink:href="#DejaVuSans-38" x="179.199219"/>
      </g>
     </g>
    </g>
    <g id="ytick_3">
     <g id="line2d_19">
      <path d="M 103.286 250.464409 
L 541.71 250.464409 
" clip-path="url(#p4db0eff44f)" style="fill: none; stroke: #b0b0b0; stroke-width: 0.8; stroke-linecap: square"/>
     </g>
     <g id="line2d_20">
      <g>
       <use xlink:href="#m9ba375f0ec" x="103.286" y="250.464409" style="stroke: #000000; stroke-width: 0.8"/>
      </g>
     </g>
     <g id="text_11">
      <!-- −0.6 -->
      <g transform="translate(47.720375 258.062846) scale(0.2 -0.2)">
       <defs>
        <path id="DejaVuSans-36" d="M 2113 2584 
Q 1688 2584 1439 2293 
Q 1191 2003 1191 1497 
Q 1191 994 1439 701 
Q 1688 409 2113 409 
Q 2538 409 2786 701 
Q 3034 994 3034 1497 
Q 3034 2003 2786 2293 
Q 2538 2584 2113 2584 
z
M 3366 4563 
L 3366 3988 
Q 3128 4100 2886 4159 
Q 2644 4219 2406 4219 
Q 1781 4219 1451 3797 
Q 1122 3375 1075 2522 
Q 1259 2794 1537 2939 
Q 1816 3084 2150 3084 
Q 2853 3084 3261 2657 
Q 3669 2231 3669 1497 
Q 3669 778 3244 343 
Q 2819 -91 2113 -91 
Q 1303 -91 875 529 
Q 447 1150 447 2328 
Q 447 3434 972 4092 
Q 1497 4750 2381 4750 
Q 2619 4750 2861 4703 
Q 3103 4656 3366 4563 
z
" transform="scale(0.015625)"/>
       </defs>
       <use xlink:href="#DejaVuSans-2212"/>
       <use xlink:href="#DejaVuSans-30" x="83.789062"/>
       <use xlink:href="#DejaVuSans-2e" x="147.412109"/>
       <use xlink:href="#DejaVuSans-36" x="179.199219"/>
      </g>
     </g>
    </g>
    <g id="ytick_4">
     <g id="line2d_21">
      <path d="M 103.286 208.548079 
L 541.71 208.548079 
" clip-path="url(#p4db0eff44f)" style="fill: none; stroke: #b0b0b0; stroke-width: 0.8; stroke-linecap: square"/>
     </g>
     <g id="line2d_22">
      <g>
       <use xlink:href="#m9ba375f0ec" x="103.286" y="208.548079" style="stroke: #000000; stroke-width: 0.8"/>
      </g>
     </g>
     <g id="text_12">
      <!-- −0.4 -->
      <g transform="translate(47.720375 216.146516) scale(0.2 -0.2)">
       <defs>
        <path id="DejaVuSans-34" d="M 2419 4116 
L 825 1625 
L 2419 1625 
L 2419 4116 
z
M 2253 4666 
L 3047 4666 
L 3047 1625 
L 3713 1625 
L 3713 1100 
L 3047 1100 
L 3047 0 
L 2419 0 
L 2419 1100 
L 313 1100 
L 313 1709 
L 2253 4666 
z
" transform="scale(0.015625)"/>
       </defs>
       <use xlink:href="#DejaVuSans-2212"/>
       <use xlink:href="#DejaVuSans-30" x="83.789062"/>
       <use xlink:href="#DejaVuSans-2e" x="147.412109"/>
       <use xlink:href="#DejaVuSans-34" x="179.199219"/>
      </g>
     </g>
    </g>
    <g id="ytick_5">
     <g id="line2d_23">
      <path d="M 103.286 166.631749 
L 541.71 166.631749 
" clip-path="url(#p4db0eff44f)" style="fill: none; stroke: #b0b0b0; stroke-width: 0.8; stroke-linecap: square"/>
     </g>
     <g id="line2d_24">
      <g>
       <use xlink:href="#m9ba375f0ec" x="103.286" y="166.631749" style="stroke: #000000; stroke-width: 0.8"/>
      </g>
     </g>
     <g id="text_13">
      <!-- −0.2 -->
      <g transform="translate(47.720375 174.230187) scale(0.2 -0.2)">
       <use xlink:href="#DejaVuSans-2212"/>
       <use xlink:href="#DejaVuSans-30" x="83.789062"/>
       <use xlink:href="#DejaVuSans-2e" x="147.412109"/>
       <use xlink:href="#DejaVuSans-32" x="179.199219"/>
      </g>
     </g>
    </g>
    <g id="ytick_6">
     <g id="line2d_25">
      <path d="M 103.286 124.715419 
L 541.71 124.715419 
" clip-path="url(#p4db0eff44f)" style="fill: none; stroke: #b0b0b0; stroke-width: 0.8; stroke-linecap: square"/>
     </g>
     <g id="line2d_26">
      <g>
       <use xlink:href="#m9ba375f0ec" x="103.286" y="124.715419" style="stroke: #000000; stroke-width: 0.8"/>
      </g>
     </g>
     <g id="text_14">
      <!-- 0.0 -->
      <g transform="translate(64.47975 132.313857) scale(0.2 -0.2)">
       <use xlink:href="#DejaVuSans-30"/>
       <use xlink:href="#DejaVuSans-2e" x="63.623047"/>
       <use xlink:href="#DejaVuSans-30" x="95.410156"/>
      </g>
     </g>
    </g>
    <g id="ytick_7">
     <g id="line2d_27">
      <path d="M 103.286 82.79909 
L 541.71 82.79909 
" clip-path="url(#p4db0eff44f)" style="fill: none; stroke: #b0b0b0; stroke-width: 0.8; stroke-linecap: square"/>
     </g>
     <g id="line2d_28">
      <g>
       <use xlink:href="#m9ba375f0ec" x="103.286" y="82.79909" style="stroke: #000000; stroke-width: 0.8"/>
      </g>
     </g>
     <g id="text_15">
      <!-- 0.2 -->
      <g transform="translate(64.47975 90.397527) scale(0.2 -0.2)">
       <use xlink:href="#DejaVuSans-30"/>
       <use xlink:href="#DejaVuSans-2e" x="63.623047"/>
       <use xlink:href="#DejaVuSans-32" x="95.410156"/>
      </g>
     </g>
    </g>
    <g id="ytick_8">
     <g id="line2d_29">
      <path d="M 103.286 40.88276 
L 541.71 40.88276 
" clip-path="url(#p4db0eff44f)" style="fill: none; stroke: #b0b0b0; stroke-width: 0.8; stroke-linecap: square"/>
     </g>
     <g id="line2d_30">
      <g>
       <use xlink:href="#m9ba375f0ec" x="103.286" y="40.88276" style="stroke: #000000; stroke-width: 0.8"/>
      </g>
     </g>
     <g id="text_16">
      <!-- 0.4 -->
      <g transform="translate(64.47975 48.481197) scale(0.2 -0.2)">
       <use xlink:href="#DejaVuSans-30"/>
       <use xlink:href="#DejaVuSans-2e" x="63.623047"/>
       <use xlink:href="#DejaVuSans-34" x="95.410156"/>
      </g>
     </g>
    </g>
    <g id="text_17">
     <!-- $C_M$ [-] -->
     <g transform="translate(39.561 216.8) rotate(-90) scale(0.2 -0.2)">
      <defs>
       <path id="DejaVuSans-Oblique-43" d="M 4447 4306 
L 4319 3641 
Q 4019 3944 3683 4091 
Q 3347 4238 2956 4238 
Q 2422 4238 2017 3981 
Q 1613 3725 1319 3200 
Q 1131 2863 1032 2486 
Q 934 2109 934 1728 
Q 934 1091 1264 756 
Q 1594 422 2222 422 
Q 2656 422 3056 561 
Q 3456 700 3834 978 
L 3688 231 
Q 3316 72 2936 -9 
Q 2556 -91 2175 -91 
Q 1278 -91 773 396 
Q 269 884 269 1753 
Q 269 2309 461 2846 
Q 653 3384 1013 3828 
Q 1394 4300 1883 4525 
Q 2372 4750 3022 4750 
Q 3422 4750 3780 4639 
Q 4138 4528 4447 4306 
z
" transform="scale(0.015625)"/>
       <path id="DejaVuSans-Oblique-4d" d="M 1081 4666 
L 2028 4666 
L 2572 1522 
L 4378 4666 
L 5350 4666 
L 4441 0 
L 3828 0 
L 4622 4091 
L 2791 897 
L 2175 897 
L 1581 4103 
L 788 0 
L 172 0 
L 1081 4666 
z
" transform="scale(0.015625)"/>
       <path id="DejaVuSans-2d" d="M 313 2009 
L 1997 2009 
L 1997 1497 
L 313 1497 
L 313 2009 
z
" transform="scale(0.015625)"/>
      </defs>
      <use xlink:href="#DejaVuSans-Oblique-43" transform="translate(0 0.015625)"/>
      <use xlink:href="#DejaVuSans-Oblique-4d" transform="translate(69.824219 -16.390625) scale(0.7)"/>
      <use xlink:href="#DejaVuSans-20" transform="translate(132.954102 0.015625)"/>
      <use xlink:href="#DejaVuSans-5b" transform="translate(164.741211 0.015625)"/>
      <use xlink:href="#DejaVuSans-2d" transform="translate(203.754883 0.015625)"/>
      <use xlink:href="#DejaVuSans-5d" transform="translate(239.838867 0.015625)"/>
     </g>
    </g>
   </g>
   <g id="line2d_31">
    <path d="M 103.286 39.10782 
L 107.714525 42.157144 
L 112.143051 45.206468 
L 116.571576 48.255792 
L 121.000101 51.305116 
L 125.428626 54.35444 
L 129.857152 57.403765 
L 134.285677 60.453089 
L 138.714202 63.502413 
L 143.142727 66.551737 
L 147.571253 69.601061 
L 151.999778 72.650385 
L 156.428303 75.699709 
L 160.856828 78.749034 
L 165.285354 81.798358 
L 169.713879 84.847682 
L 174.142404 87.897006 
L 178.570929 90.94633 
L 182.999455 93.995654 
L 187.42798 97.044978 
L 191.856505 100.094302 
L 196.28503 103.143627 
L 200.713556 106.192951 
L 205.142081 109.242275 
L 209.570606 112.291599 
L 213.999131 115.340923 
L 218.427657 118.390247 
L 222.856182 121.439571 
L 227.284707 124.488896 
L 231.713232 127.53822 
L 236.141758 130.587544 
L 240.570283 133.636868 
L 244.998808 136.686192 
L 249.427333 139.735516 
L 253.855859 142.78484 
L 258.284384 145.834165 
L 262.712909 148.883489 
L 267.141434 151.932813 
L 271.56996 154.982137 
L 275.998485 158.031461 
L 280.42701 161.080785 
L 284.855535 164.130109 
L 289.284061 167.179433 
L 293.712586 170.228758 
L 298.141111 173.278082 
L 302.569636 176.327406 
L 306.998162 179.37673 
L 311.426687 182.426054 
L 315.855212 185.475378 
L 320.283737 188.524702 
L 324.712263 191.574027 
L 329.140788 194.623351 
L 333.569313 197.672675 
L 337.997838 200.721999 
L 342.426364 203.771323 
L 346.854889 206.820647 
L 351.283414 209.869971 
L 355.711939 212.919295 
L 360.140465 215.96862 
L 364.56899 219.017944 
L 368.997515 222.067268 
L 373.42604 225.116592 
L 377.854566 228.165916 
L 382.283091 231.21524 
L 386.711616 234.264564 
L 391.140141 237.313889 
L 395.568667 240.363213 
L 399.997192 243.412537 
L 404.425717 246.461861 
L 408.854242 249.511185 
L 413.282768 252.560509 
L 417.711293 255.609833 
L 422.139818 258.659157 
L 426.568343 261.708482 
L 430.996869 264.757806 
L 435.425394 267.80713 
L 439.853919 270.856454 
L 444.282444 273.905778 
L 448.71097 276.955102 
L 453.139495 280.004426 
L 457.56802 283.053751 
L 461.996545 286.103075 
L 466.425071 289.152399 
L 470.853596 292.201723 
L 475.282121 295.251047 
L 479.710646 298.300371 
L 484.139172 301.349695 
L 488.567697 304.399019 
L 492.996222 307.448344 
L 497.424747 310.497668 
L 501.853273 313.546992 
L 506.281798 316.596316 
L 510.710323 319.64564 
L 515.138848 322.694964 
L 519.567374 325.744288 
L 523.995899 328.793613 
L 528.424424 331.842937 
L 532.852949 334.892261 
L 537.281475 337.941585 
L 541.71 340.990909 
" clip-path="url(#p4db0eff44f)" style="fill: none; stroke-dasharray: 9.6,2.4,1.5,2.4; stroke-dashoffset: 0; stroke: #00a6b6; stroke-width: 1.5"/>
   </g>
   <g id="line2d_32">
    <path d="M 103.286 46.714929 
L 107.714525 49.455435 
L 112.143051 52.19594 
L 116.571576 54.936446 
L 121.000101 57.676952 
L 125.428626 60.417457 
L 129.857152 63.157963 
L 134.285677 65.898468 
L 138.714202 68.638974 
L 143.142727 71.379479 
L 147.571253 74.119985 
L 151.999778 76.860491 
L 156.428303 79.600996 
L 160.856828 82.341502 
L 165.285354 85.082007 
L 169.713879 87.822513 
L 174.142404 90.563018 
L 178.570929 93.303524 
L 182.999455 96.044029 
L 187.42798 98.784535 
L 191.856505 101.525041 
L 196.28503 104.265546 
L 200.713556 107.006052 
L 205.142081 109.746557 
L 209.570606 112.487063 
L 213.999131 115.227568 
L 218.427657 117.968074 
L 222.856182 120.70858 
L 227.284707 123.449085 
L 231.713232 126.189591 
L 236.141758 128.930096 
L 240.570283 131.670602 
L 244.998808 134.411107 
L 249.427333 137.151613 
L 253.855859 139.892118 
L 258.284384 142.632624 
L 262.712909 145.37313 
L 267.141434 148.113635 
L 271.56996 150.854141 
L 275.998485 153.594646 
L 280.42701 156.335152 
L 284.855535 159.075657 
L 289.284061 161.816163 
L 293.712586 164.556669 
L 298.141111 167.297174 
L 302.569636 170.03768 
L 306.998162 172.778185 
L 311.426687 175.518691 
L 315.855212 178.259196 
L 320.283737 180.999702 
L 324.712263 183.740208 
L 329.140788 186.480713 
L 333.569313 189.221219 
L 337.997838 191.961724 
L 342.426364 194.70223 
L 346.854889 197.442735 
L 351.283414 200.183241 
L 355.711939 202.923746 
L 360.140465 205.664252 
L 364.56899 208.404758 
L 368.997515 211.145263 
L 373.42604 213.885769 
L 377.854566 216.626274 
L 382.283091 219.36678 
L 386.711616 222.107285 
L 391.140141 224.847791 
L 395.568667 227.588297 
L 399.997192 230.328802 
L 404.425717 233.069308 
L 408.854242 235.809813 
L 413.282768 238.550319 
L 417.711293 241.290824 
L 422.139818 244.03133 
L 426.568343 246.771835 
L 430.996869 249.512341 
L 435.425394 252.252847 
L 439.853919 254.993352 
L 444.282444 257.733858 
L 448.71097 260.474363 
L 453.139495 263.214869 
L 457.56802 265.955374 
L 461.996545 268.69588 
L 466.425071 271.436386 
L 470.853596 274.176891 
L 475.282121 276.917397 
L 479.710646 279.657902 
L 484.139172 282.398408 
L 488.567697 285.138913 
L 492.996222 287.879419 
L 497.424747 290.619925 
L 501.853273 293.36043 
L 506.281798 296.100936 
L 510.710323 298.841441 
L 515.138848 301.581947 
L 519.567374 304.322452 
L 523.995899 307.062958 
L 528.424424 309.803463 
L 532.852949 312.543969 
L 537.281475 315.284475 
L 541.71 318.02498 
" clip-path="url(#p4db0eff44f)" style="fill: none; stroke-dasharray: 9.6,2.4,1.5,2.4; stroke-dashoffset: 0; stroke: #a50034; stroke-width: 1.5"/>
   </g>
   <g id="line2d_33">
    <path d="M 103.286 36.809091 
L 107.714525 39.522344 
L 112.143051 42.235596 
L 116.571576 44.948849 
L 121.000101 47.662102 
L 125.428626 50.375354 
L 129.857152 53.088607 
L 134.285677 55.80186 
L 138.714202 58.515113 
L 143.142727 61.228365 
L 147.571253 63.941618 
L 151.999778 66.654871 
L 156.428303 69.368123 
L 160.856828 72.081376 
L 165.285354 74.794629 
L 169.713879 77.507881 
L 174.142404 80.221134 
L 178.570929 82.934387 
L 182.999455 85.64764 
L 187.42798 88.360892 
L 191.856505 91.074145 
L 196.28503 93.787398 
L 200.713556 96.50065 
L 205.142081 99.213903 
L 209.570606 101.927156 
L 213.999131 104.640408 
L 218.427657 107.353661 
L 222.856182 110.066914 
L 227.284707 112.780167 
L 231.713232 115.493419 
L 236.141758 118.206672 
L 240.570283 120.919925 
L 244.998808 123.633177 
L 249.427333 126.34643 
L 253.855859 129.059683 
L 258.284384 131.772935 
L 262.712909 134.486188 
L 267.141434 137.199441 
L 271.56996 139.912694 
L 275.998485 142.625946 
L 280.42701 145.339199 
L 284.855535 148.052452 
L 289.284061 150.765704 
L 293.712586 153.478957 
L 298.141111 156.19221 
L 302.569636 158.905463 
L 306.998162 161.618715 
L 311.426687 164.331968 
L 315.855212 167.045221 
L 320.283737 169.758473 
L 324.712263 172.471726 
L 329.140788 175.184979 
L 333.569313 177.898231 
L 337.997838 180.611484 
L 342.426364 183.324737 
L 346.854889 186.03799 
L 351.283414 188.751242 
L 355.711939 191.464495 
L 360.140465 194.177748 
L 364.56899 196.891 
L 368.997515 199.604253 
L 373.42604 202.317506 
L 377.854566 205.030758 
L 382.283091 207.744011 
L 386.711616 210.457264 
L 391.140141 213.170517 
L 395.568667 215.883769 
L 399.997192 218.597022 
L 404.425717 221.310275 
L 408.854242 224.023527 
L 413.282768 226.73678 
L 417.711293 229.450033 
L 422.139818 232.163285 
L 426.568343 234.876538 
L 430.996869 237.589791 
L 435.425394 240.303044 
L 439.853919 243.016296 
L 444.282444 245.729549 
L 448.71097 248.442802 
L 453.139495 251.156054 
L 457.56802 253.869307 
L 461.996545 256.58256 
L 466.425071 259.295812 
L 470.853596 262.009065 
L 475.282121 264.722318 
L 479.710646 267.435571 
L 484.139172 270.148823 
L 488.567697 272.862076 
L 492.996222 275.575329 
L 497.424747 278.288581 
L 501.853273 281.001834 
L 506.281798 283.715087 
L 510.710323 286.42834 
L 515.138848 289.141592 
L 519.567374 291.854845 
L 523.995899 294.568098 
L 528.424424 297.28135 
L 532.852949 299.994603 
L 537.281475 302.707856 
L 541.71 305.421108 
" clip-path="url(#p4db0eff44f)" style="fill: none; stroke-dasharray: 9.6,2.4,1.5,2.4; stroke-dashoffset: 0; stroke: #ef60a3; stroke-width: 1.5"/>
   </g>
   <g id="line2d_34">
    <path d="M 103.286 42.694601 
L 107.714525 45.1484 
L 112.143051 47.602199 
L 116.571576 50.055998 
L 121.000101 52.509796 
L 125.428626 54.963595 
L 129.857152 57.417394 
L 134.285677 59.871193 
L 138.714202 62.324992 
L 143.142727 64.77879 
L 147.571253 67.232589 
L 151.999778 69.686388 
L 156.428303 72.140187 
L 160.856828 74.593986 
L 165.285354 77.047784 
L 169.713879 79.501583 
L 174.142404 81.955382 
L 178.570929 84.409181 
L 182.999455 86.86298 
L 187.42798 89.316779 
L 191.856505 91.770577 
L 196.28503 94.224376 
L 200.713556 96.678175 
L 205.142081 99.131974 
L 209.570606 101.585773 
L 213.999131 104.039571 
L 218.427657 106.49337 
L 222.856182 108.947169 
L 227.284707 111.400968 
L 231.713232 113.854767 
L 236.141758 116.308565 
L 240.570283 118.762364 
L 244.998808 121.216163 
L 249.427333 123.669962 
L 253.855859 126.123761 
L 258.284384 128.577559 
L 262.712909 131.031358 
L 267.141434 133.485157 
L 271.56996 135.938956 
L 275.998485 138.392755 
L 280.42701 140.846554 
L 284.855535 143.300352 
L 289.284061 145.754151 
L 293.712586 148.20795 
L 298.141111 150.661749 
L 302.569636 153.115548 
L 306.998162 155.569346 
L 311.426687 158.023145 
L 315.855212 160.476944 
L 320.283737 162.930743 
L 324.712263 165.384542 
L 329.140788 167.83834 
L 333.569313 170.292139 
L 337.997838 172.745938 
L 342.426364 175.199737 
L 346.854889 177.653536 
L 351.283414 180.107335 
L 355.711939 182.561133 
L 360.140465 185.014932 
L 364.56899 187.468731 
L 368.997515 189.92253 
L 373.42604 192.376329 
L 377.854566 194.830127 
L 382.283091 197.283926 
L 386.711616 199.737725 
L 391.140141 202.191524 
L 395.568667 204.645323 
L 399.997192 207.099121 
L 404.425717 209.55292 
L 408.854242 212.006719 
L 413.282768 214.460518 
L 417.711293 216.914317 
L 422.139818 219.368115 
L 426.568343 221.821914 
L 430.996869 224.275713 
L 435.425394 226.729512 
L 439.853919 229.183311 
L 444.282444 231.63711 
L 448.71097 234.090908 
L 453.139495 236.544707 
L 457.56802 238.998506 
L 461.996545 241.452305 
L 466.425071 243.906104 
L 470.853596 246.359902 
L 475.282121 248.813701 
L 479.710646 251.2675 
L 484.139172 253.721299 
L 488.567697 256.175098 
L 492.996222 258.628896 
L 497.424747 261.082695 
L 501.853273 263.536494 
L 506.281798 265.990293 
L 510.710323 268.444092 
L 515.138848 270.897891 
L 519.567374 273.351689 
L 523.995899 275.805488 
L 528.424424 278.259287 
L 532.852949 280.713086 
L 537.281475 283.166885 
L 541.71 285.620683 
" clip-path="url(#p4db0eff44f)" style="fill: none; stroke-dasharray: 9.6,2.4,1.5,2.4; stroke-dashoffset: 0; stroke: #6cc24a; stroke-width: 1.5"/>
   </g>
   <g id="patch_3">
    <path d="M 103.286 356.2 
L 103.286 21.6 
" style="fill: none; stroke: #000000; stroke-width: 0.8; stroke-linejoin: miter; stroke-linecap: square"/>
   </g>
   <g id="patch_4">
    <path d="M 541.71 356.2 
L 541.71 21.6 
" style="fill: none; stroke: #000000; stroke-width: 0.8; stroke-linejoin: miter; stroke-linecap: square"/>
   </g>
   <g id="patch_5">
    <path d="M 103.286 356.2 
L 541.71 356.2 
" style="fill: none; stroke: #000000; stroke-width: 0.8; stroke-linejoin: miter; stroke-linecap: square"/>
   </g>
   <g id="patch_6">
    <path d="M 103.286 21.6 
L 541.71 21.6 
" style="fill: none; stroke: #000000; stroke-width: 0.8; stroke-linejoin: miter; stroke-linecap: square"/>
   </g>
   <g id="legend_1">
    <g id="patch_7">
     <path d="M 117.286 346.2 
L 364.445375 346.2 
Q 368.445375 346.2 368.445375 342.2 
L 368.445375 226.775 
Q 368.445375 222.775 364.445375 222.775 
L 117.286 222.775 
Q 113.286 222.775 113.286 226.775 
L 113.286 342.2 
Q 113.286 346.2 117.286 346.2 
z
" style="fill: #ffffff; opacity: 0.8; stroke: #cccccc; stroke-linejoin: miter"/>
    </g>
    <g id="line2d_35">
     <path d="M 121.286 238.971875 
L 141.286 238.971875 
L 161.286 238.971875 
" style="fill: none; stroke-dasharray: 9.6,2.4,1.5,2.4; stroke-dashoffset: 0; stroke: #00a6b6; stroke-width: 1.5"/>
    </g>
    <g id="text_18">
     <!-- Uncorrected J=1.8 -->
     <g transform="translate(177.286 245.971875) scale(0.2 -0.2)">
      <defs>
       <path id="DejaVuSans-55" d="M 556 4666 
L 1191 4666 
L 1191 1831 
Q 1191 1081 1462 751 
Q 1734 422 2344 422 
Q 2950 422 3222 751 
Q 3494 1081 3494 1831 
L 3494 4666 
L 4128 4666 
L 4128 1753 
Q 4128 841 3676 375 
Q 3225 -91 2344 -91 
Q 1459 -91 1007 375 
Q 556 841 556 1753 
L 556 4666 
z
" transform="scale(0.015625)"/>
       <path id="DejaVuSans-6e" d="M 3513 2113 
L 3513 0 
L 2938 0 
L 2938 2094 
Q 2938 2591 2744 2837 
Q 2550 3084 2163 3084 
Q 1697 3084 1428 2787 
Q 1159 2491 1159 1978 
L 1159 0 
L 581 0 
L 581 3500 
L 1159 3500 
L 1159 2956 
Q 1366 3272 1645 3428 
Q 1925 3584 2291 3584 
Q 2894 3584 3203 3211 
Q 3513 2838 3513 2113 
z
" transform="scale(0.015625)"/>
       <path id="DejaVuSans-63" d="M 3122 3366 
L 3122 2828 
Q 2878 2963 2633 3030 
Q 2388 3097 2138 3097 
Q 1578 3097 1268 2742 
Q 959 2388 959 1747 
Q 959 1106 1268 751 
Q 1578 397 2138 397 
Q 2388 397 2633 464 
Q 2878 531 3122 666 
L 3122 134 
Q 2881 22 2623 -34 
Q 2366 -91 2075 -91 
Q 1284 -91 818 406 
Q 353 903 353 1747 
Q 353 2603 823 3093 
Q 1294 3584 2113 3584 
Q 2378 3584 2631 3529 
Q 2884 3475 3122 3366 
z
" transform="scale(0.015625)"/>
       <path id="DejaVuSans-6f" d="M 1959 3097 
Q 1497 3097 1228 2736 
Q 959 2375 959 1747 
Q 959 1119 1226 758 
Q 1494 397 1959 397 
Q 2419 397 2687 759 
Q 2956 1122 2956 1747 
Q 2956 2369 2687 2733 
Q 2419 3097 1959 3097 
z
M 1959 3584 
Q 2709 3584 3137 3096 
Q 3566 2609 3566 1747 
Q 3566 888 3137 398 
Q 2709 -91 1959 -91 
Q 1206 -91 779 398 
Q 353 888 353 1747 
Q 353 2609 779 3096 
Q 1206 3584 1959 3584 
z
" transform="scale(0.015625)"/>
       <path id="DejaVuSans-72" d="M 2631 2963 
Q 2534 3019 2420 3045 
Q 2306 3072 2169 3072 
Q 1681 3072 1420 2755 
Q 1159 2438 1159 1844 
L 1159 0 
L 581 0 
L 581 3500 
L 1159 3500 
L 1159 2956 
Q 1341 3275 1631 3429 
Q 1922 3584 2338 3584 
Q 2397 3584 2469 3576 
Q 2541 3569 2628 3553 
L 2631 2963 
z
" transform="scale(0.015625)"/>
       <path id="DejaVuSans-74" d="M 1172 4494 
L 1172 3500 
L 2356 3500 
L 2356 3053 
L 1172 3053 
L 1172 1153 
Q 1172 725 1289 603 
Q 1406 481 1766 481 
L 2356 481 
L 2356 0 
L 1766 0 
Q 1100 0 847 248 
Q 594 497 594 1153 
L 594 3053 
L 172 3053 
L 172 3500 
L 594 3500 
L 594 4494 
L 1172 4494 
z
" transform="scale(0.015625)"/>
       <path id="DejaVuSans-4a" d="M 628 4666 
L 1259 4666 
L 1259 325 
Q 1259 -519 939 -900 
Q 619 -1281 -91 -1281 
L -331 -1281 
L -331 -750 
L -134 -750 
Q 284 -750 456 -515 
Q 628 -281 628 325 
L 628 4666 
z
" transform="scale(0.015625)"/>
       <path id="DejaVuSans-3d" d="M 678 2906 
L 4684 2906 
L 4684 2381 
L 678 2381 
L 678 2906 
z
M 678 1631 
L 4684 1631 
L 4684 1100 
L 678 1100 
L 678 1631 
z
" transform="scale(0.015625)"/>
      </defs>
      <use xlink:href="#DejaVuSans-55"/>
      <use xlink:href="#DejaVuSans-6e" x="73.193359"/>
      <use xlink:href="#DejaVuSans-63" x="136.572266"/>
      <use xlink:href="#DejaVuSans-6f" x="191.552734"/>
      <use xlink:href="#DejaVuSans-72" x="252.734375"/>
      <use xlink:href="#DejaVuSans-72" x="292.097656"/>
      <use xlink:href="#DejaVuSans-65" x="330.960938"/>
      <use xlink:href="#DejaVuSans-63" x="392.484375"/>
      <use xlink:href="#DejaVuSans-74" x="447.464844"/>
      <use xlink:href="#DejaVuSans-65" x="486.673828"/>
      <use xlink:href="#DejaVuSans-64" x="548.197266"/>
      <use xlink:href="#DejaVuSans-20" x="611.673828"/>
      <use xlink:href="#DejaVuSans-4a" x="643.460938"/>
      <use xlink:href="#DejaVuSans-3d" x="672.953125"/>
      <use xlink:href="#DejaVuSans-31" x="756.742188"/>
      <use xlink:href="#DejaVuSans-2e" x="820.365234"/>
      <use xlink:href="#DejaVuSans-38" x="852.152344"/>
     </g>
    </g>
    <g id="line2d_36">
     <path d="M 121.286 268.328125 
L 141.286 268.328125 
L 161.286 268.328125 
" style="fill: none; stroke-dasharray: 9.6,2.4,1.5,2.4; stroke-dashoffset: 0; stroke: #a50034; stroke-width: 1.5"/>
    </g>
    <g id="text_19">
     <!-- Corrected J=1.8 -->
     <g transform="translate(177.286 275.328125) scale(0.2 -0.2)">
      <defs>
       <path id="DejaVuSans-43" d="M 4122 4306 
L 4122 3641 
Q 3803 3938 3442 4084 
Q 3081 4231 2675 4231 
Q 1875 4231 1450 3742 
Q 1025 3253 1025 2328 
Q 1025 1406 1450 917 
Q 1875 428 2675 428 
Q 3081 428 3442 575 
Q 3803 722 4122 1019 
L 4122 359 
Q 3791 134 3420 21 
Q 3050 -91 2638 -91 
Q 1578 -91 968 557 
Q 359 1206 359 2328 
Q 359 3453 968 4101 
Q 1578 4750 2638 4750 
Q 3056 4750 3426 4639 
Q 3797 4528 4122 4306 
z
" transform="scale(0.015625)"/>
      </defs>
      <use xlink:href="#DejaVuSans-43"/>
      <use xlink:href="#DejaVuSans-6f" x="69.824219"/>
      <use xlink:href="#DejaVuSans-72" x="131.005859"/>
      <use xlink:href="#DejaVuSans-72" x="170.369141"/>
      <use xlink:href="#DejaVuSans-65" x="209.232422"/>
      <use xlink:href="#DejaVuSans-63" x="270.755859"/>
      <use xlink:href="#DejaVuSans-74" x="325.736328"/>
      <use xlink:href="#DejaVuSans-65" x="364.945312"/>
      <use xlink:href="#DejaVuSans-64" x="426.46875"/>
      <use xlink:href="#DejaVuSans-20" x="489.945312"/>
      <use xlink:href="#DejaVuSans-4a" x="521.732422"/>
      <use xlink:href="#DejaVuSans-3d" x="551.224609"/>
      <use xlink:href="#DejaVuSans-31" x="635.013672"/>
      <use xlink:href="#DejaVuSans-2e" x="698.636719"/>
      <use xlink:href="#DejaVuSans-38" x="730.423828"/>
     </g>
    </g>
    <g id="line2d_37">
     <path d="M 121.286 297.684375 
L 141.286 297.684375 
L 161.286 297.684375 
" style="fill: none; stroke-dasharray: 9.6,2.4,1.5,2.4; stroke-dashoffset: 0; stroke: #ef60a3; stroke-width: 1.5"/>
    </g>
    <g id="text_20">
     <!-- Uncorrected J=3.5 -->
     <g transform="translate(177.286 304.684375) scale(0.2 -0.2)">
      <defs>
       <path id="DejaVuSans-33" d="M 2597 2516 
Q 3050 2419 3304 2112 
Q 3559 1806 3559 1356 
Q 3559 666 3084 287 
Q 2609 -91 1734 -91 
Q 1441 -91 1130 -33 
Q 819 25 488 141 
L 488 750 
Q 750 597 1062 519 
Q 1375 441 1716 441 
Q 2309 441 2620 675 
Q 2931 909 2931 1356 
Q 2931 1769 2642 2001 
Q 2353 2234 1838 2234 
L 1294 2234 
L 1294 2753 
L 1863 2753 
Q 2328 2753 2575 2939 
Q 2822 3125 2822 3475 
Q 2822 3834 2567 4026 
Q 2313 4219 1838 4219 
Q 1578 4219 1281 4162 
Q 984 4106 628 3988 
L 628 4550 
Q 988 4650 1302 4700 
Q 1616 4750 1894 4750 
Q 2613 4750 3031 4423 
Q 3450 4097 3450 3541 
Q 3450 3153 3228 2886 
Q 3006 2619 2597 2516 
z
" transform="scale(0.015625)"/>
      </defs>
      <use xlink:href="#DejaVuSans-55"/>
      <use xlink:href="#DejaVuSans-6e" x="73.193359"/>
      <use xlink:href="#DejaVuSans-63" x="136.572266"/>
      <use xlink:href="#DejaVuSans-6f" x="191.552734"/>
      <use xlink:href="#DejaVuSans-72" x="252.734375"/>
      <use xlink:href="#DejaVuSans-72" x="292.097656"/>
      <use xlink:href="#DejaVuSans-65" x="330.960938"/>
      <use xlink:href="#DejaVuSans-63" x="392.484375"/>
      <use xlink:href="#DejaVuSans-74" x="447.464844"/>
      <use xlink:href="#DejaVuSans-65" x="486.673828"/>
      <use xlink:href="#DejaVuSans-64" x="548.197266"/>
      <use xlink:href="#DejaVuSans-20" x="611.673828"/>
      <use xlink:href="#DejaVuSans-4a" x="643.460938"/>
      <use xlink:href="#DejaVuSans-3d" x="672.953125"/>
      <use xlink:href="#DejaVuSans-33" x="756.742188"/>
      <use xlink:href="#DejaVuSans-2e" x="820.365234"/>
      <use xlink:href="#DejaVuSans-35" x="852.152344"/>
     </g>
    </g>
    <g id="line2d_38">
     <path d="M 121.286 327.040625 
L 141.286 327.040625 
L 161.286 327.040625 
" style="fill: none; stroke-dasharray: 9.6,2.4,1.5,2.4; stroke-dashoffset: 0; stroke: #6cc24a; stroke-width: 1.5"/>
    </g>
    <g id="text_21">
     <!-- Corrected J=3.5 -->
     <g transform="translate(177.286 334.040625) scale(0.2 -0.2)">
      <use xlink:href="#DejaVuSans-43"/>
      <use xlink:href="#DejaVuSans-6f" x="69.824219"/>
      <use xlink:href="#DejaVuSans-72" x="131.005859"/>
      <use xlink:href="#DejaVuSans-72" x="170.369141"/>
      <use xlink:href="#DejaVuSans-65" x="209.232422"/>
      <use xlink:href="#DejaVuSans-63" x="270.755859"/>
      <use xlink:href="#DejaVuSans-74" x="325.736328"/>
      <use xlink:href="#DejaVuSans-65" x="364.945312"/>
      <use xlink:href="#DejaVuSans-64" x="426.46875"/>
      <use xlink:href="#DejaVuSans-20" x="489.945312"/>
      <use xlink:href="#DejaVuSans-4a" x="521.732422"/>
      <use xlink:href="#DejaVuSans-3d" x="551.224609"/>
      <use xlink:href="#DejaVuSans-33" x="635.013672"/>
      <use xlink:href="#DejaVuSans-2e" x="698.636719"/>
      <use xlink:href="#DejaVuSans-35" x="730.423828"/>
     </g>
    </g>
   </g>
  </g>
 </g>
 <defs>
  <clipPath id="p4db0eff44f">
   <rect x="103.286" y="21.6" width="438.424" height="334.6"/>
  </clipPath>
 </defs>
</svg>
