<?xml version="1.0" encoding="utf-8" standalone="no"?>
<!DOCTYPE svg PUBLIC "-//W3C//DTD SVG 1.1//EN"
  "http://www.w3.org/Graphics/SVG/1.1/DTD/svg11.dtd">
<svg xmlns:xlink="http://www.w3.org/1999/xlink" width="576pt" height="432pt" viewBox="0 0 576 432" xmlns="http://www.w3.org/2000/svg" version="1.1">
 <metadata>
  <rdf:RDF xmlns:dc="http://purl.org/dc/elements/1.1/" xmlns:cc="http://creativecommons.org/ns#" xmlns:rdf="http://www.w3.org/1999/02/22-rdf-syntax-ns#">
   <cc:Work>
    <dc:type rdf:resource="http://purl.org/dc/dcmitype/StillImage"/>
    <dc:date>2024-04-03T11:45:49.317498</dc:date>
    <dc:format>image/svg+xml</dc:format>
    <dc:creator>
     <cc:Agent>
      <dc:title>Matplotlib v3.8.0, https://matplotlib.org/</dc:title>
     </cc:Agent>
    </dc:creator>
   </cc:Work>
  </rdf:RDF>
 </metadata>
 <defs>
  <style type="text/css">*{stroke-linejoin: round; stroke-linecap: butt}</style>
 </defs>
 <g id="figure_1">
  <g id="patch_1">
   <path d="M 0 432 
L 576 432 
L 576 0 
L 0 0 
z
" style="fill: #ffffff"/>
  </g>
  <g id="axes_1">
   <g id="patch_2">
    <path d="M 116.156 356.2 
L 541.665 356.2 
L 541.665 21.6 
L 116.156 21.6 
z
" style="fill: #ffffff"/>
   </g>
   <g id="PathCollection_1">
    <defs>
     <path id="m7e3faae70a" d="M 0 3 
C 0.795609 3 1.55874 2.683901 2.12132 2.12132 
C 2.683901 1.55874 3 0.795609 3 0 
C 3 -0.795609 2.683901 -1.55874 2.12132 -2.12132 
C 1.55874 -2.683901 0.795609 -3 0 -3 
C -0.795609 -3 -1.55874 -2.683901 -2.12132 -2.12132 
C -2.683901 -1.55874 -3 -0.795609 -3 0 
C -3 0.795609 -2.683901 1.55874 -2.12132 2.12132 
C -1.55874 2.683901 -0.795609 3 0 3 
z
" style="stroke: #00a6b6"/>
    </defs>
    <g clip-path="url(#p3816d33c59)">
     <use xlink:href="#m7e3faae70a" x="187.074167" y="94.598003" style="fill: #00a6b6; stroke: #00a6b6"/>
     <use xlink:href="#m7e3faae70a" x="357.277767" y="195.222774" style="fill: #00a6b6; stroke: #00a6b6"/>
     <use xlink:href="#m7e3faae70a" x="428.195933" y="259.846434" style="fill: #00a6b6; stroke: #00a6b6"/>
     <use xlink:href="#m7e3faae70a" x="456.5632" y="285.542251" style="fill: #00a6b6; stroke: #00a6b6"/>
    </g>
   </g>
   <g id="PathCollection_2">
    <defs>
     <path id="m5363250be8" d="M 0 3 
C 0.795609 3 1.55874 2.683901 2.12132 2.12132 
C 2.683901 1.55874 3 0.795609 3 0 
C 3 -0.795609 2.683901 -1.55874 2.12132 -2.12132 
C 1.55874 -2.683901 0.795609 -3 0 -3 
C -0.795609 -3 -1.55874 -2.683901 -2.12132 -2.12132 
C -2.683901 -1.55874 -3 -0.795609 -3 0 
C -3 0.795609 -2.683901 1.55874 -2.12132 2.12132 
C -1.55874 2.683901 -0.795609 3 0 3 
z
" style="stroke: #a50034"/>
    </defs>
    <g clip-path="url(#p3816d33c59)">
     <use xlink:href="#m5363250be8" x="187.063853" y="94.386661" style="fill: #a50034; stroke: #a50034"/>
     <use xlink:href="#m5363250be8" x="357.329335" y="197.456351" style="fill: #a50034; stroke: #a50034"/>
     <use xlink:href="#m5363250be8" x="428.258069" y="262.379801" style="fill: #a50034; stroke: #a50034"/>
     <use xlink:href="#m5363250be8" x="456.630328" y="287.392215" style="fill: #a50034; stroke: #a50034"/>
    </g>
   </g>
   <g id="PathCollection_3">
    <defs>
     <path id="m3006276f56" d="M 0 3 
C 0.795609 3 1.55874 2.683901 2.12132 2.12132 
C 2.683901 1.55874 3 0.795609 3 0 
C 3 -0.795609 2.683901 -1.55874 2.12132 -2.12132 
C 1.55874 -2.683901 0.795609 -3 0 -3 
C -0.795609 -3 -1.55874 -2.683901 -2.12132 -2.12132 
C -2.683901 -1.55874 -3 -0.795609 -3 0 
C -3 0.795609 -2.683901 1.55874 -2.12132 2.12132 
C -1.55874 2.683901 -0.795609 3 0 3 
z
" style="stroke: #ef60a3"/>
    </defs>
    <g clip-path="url(#p3816d33c59)">
     <use xlink:href="#m3006276f56" x="187.074167" y="85.539199" style="fill: #ef60a3; stroke: #ef60a3"/>
     <use xlink:href="#m3006276f56" x="257.992333" y="126.639303" style="fill: #ef60a3; stroke: #ef60a3"/>
     <use xlink:href="#m3006276f56" x="357.277767" y="177.153166" style="fill: #ef60a3; stroke: #ef60a3"/>
     <use xlink:href="#m3006276f56" x="428.195933" y="232.953463" style="fill: #ef60a3; stroke: #ef60a3"/>
     <use xlink:href="#m3006276f56" x="456.5632" y="255.656245" style="fill: #ef60a3; stroke: #ef60a3"/>
    </g>
   </g>
   <g id="PathCollection_4">
    <defs>
     <path id="mbfcc88db17" d="M 0 3 
C 0.795609 3 1.55874 2.683901 2.12132 2.12132 
C 2.683901 1.55874 3 0.795609 3 0 
C 3 -0.795609 2.683901 -1.55874 2.12132 -2.12132 
C 1.55874 -2.683901 0.795609 -3 0 -3 
C -0.795609 -3 -1.55874 -2.683901 -2.12132 -2.12132 
C -2.683901 -1.55874 -3 -0.795609 -3 0 
C -3 0.795609 -2.683901 1.55874 -2.12132 2.12132 
C -1.55874 2.683901 -0.795609 3 0 3 
z
" style="stroke: #6cc24a"/>
    </defs>
    <g clip-path="url(#p3816d33c59)">
     <use xlink:href="#mbfcc88db17" x="187.063853" y="85.457949" style="fill: #6cc24a; stroke: #6cc24a"/>
     <use xlink:href="#mbfcc88db17" x="258.009521" y="126.454366" style="fill: #6cc24a; stroke: #6cc24a"/>
     <use xlink:href="#mbfcc88db17" x="357.329335" y="179.254618" style="fill: #6cc24a; stroke: #6cc24a"/>
     <use xlink:href="#mbfcc88db17" x="428.258069" y="235.414444" style="fill: #6cc24a; stroke: #6cc24a"/>
     <use xlink:href="#mbfcc88db17" x="456.630328" y="257.890668" style="fill: #6cc24a; stroke: #6cc24a"/>
    </g>
   </g>
   <g id="matplotlib.axis_1">
    <g id="xtick_1">
     <g id="line2d_1">
      <path d="M 116.156 356.2 
L 116.156 21.6 
" clip-path="url(#p3816d33c59)" style="fill: none; stroke: #b0b0b0; stroke-width: 0.8; stroke-linecap: square"/>
     </g>
     <g id="line2d_2">
      <defs>
       <path id="m89557f4fce" d="M 0 0 
L 0 3.5 
" style="stroke: #000000; stroke-width: 0.8"/>
      </defs>
      <g>
       <use xlink:href="#m89557f4fce" x="116.156" y="356.2" style="stroke: #000000; stroke-width: 0.8"/>
      </g>
     </g>
     <g id="text_1">
      <!-- −10 -->
      <g transform="translate(95.051313 378.396875) scale(0.2 -0.2)">
       <defs>
        <path id="DejaVuSans-2212" d="M 678 2272 
L 4684 2272 
L 4684 1741 
L 678 1741 
L 678 2272 
z
" transform="scale(0.015625)"/>
        <path id="DejaVuSans-31" d="M 794 531 
L 1825 531 
L 1825 4091 
L 703 3866 
L 703 4441 
L 1819 4666 
L 2450 4666 
L 2450 531 
L 3481 531 
L 3481 0 
L 794 0 
L 794 531 
z
" transform="scale(0.015625)"/>
        <path id="DejaVuSans-30" d="M 2034 4250 
Q 1547 4250 1301 3770 
Q 1056 3291 1056 2328 
Q 1056 1369 1301 889 
Q 1547 409 2034 409 
Q 2525 409 2770 889 
Q 3016 1369 3016 2328 
Q 3016 3291 2770 3770 
Q 2525 4250 2034 4250 
z
M 2034 4750 
Q 2819 4750 3233 4129 
Q 3647 3509 3647 2328 
Q 3647 1150 3233 529 
Q 2819 -91 2034 -91 
Q 1250 -91 836 529 
Q 422 1150 422 2328 
Q 422 3509 836 4129 
Q 1250 4750 2034 4750 
z
" transform="scale(0.015625)"/>
       </defs>
       <use xlink:href="#DejaVuSans-2212"/>
       <use xlink:href="#DejaVuSans-31" x="83.789062"/>
       <use xlink:href="#DejaVuSans-30" x="147.412109"/>
      </g>
     </g>
    </g>
    <g id="xtick_2">
     <g id="line2d_3">
      <path d="M 187.074167 356.2 
L 187.074167 21.6 
" clip-path="url(#p3816d33c59)" style="fill: none; stroke: #b0b0b0; stroke-width: 0.8; stroke-linecap: square"/>
     </g>
     <g id="line2d_4">
      <g>
       <use xlink:href="#m89557f4fce" x="187.074167" y="356.2" style="stroke: #000000; stroke-width: 0.8"/>
      </g>
     </g>
     <g id="text_2">
      <!-- −5 -->
      <g transform="translate(172.331979 378.396875) scale(0.2 -0.2)">
       <defs>
        <path id="DejaVuSans-35" d="M 691 4666 
L 3169 4666 
L 3169 4134 
L 1269 4134 
L 1269 2991 
Q 1406 3038 1543 3061 
Q 1681 3084 1819 3084 
Q 2600 3084 3056 2656 
Q 3513 2228 3513 1497 
Q 3513 744 3044 326 
Q 2575 -91 1722 -91 
Q 1428 -91 1123 -41 
Q 819 9 494 109 
L 494 744 
Q 775 591 1075 516 
Q 1375 441 1709 441 
Q 2250 441 2565 725 
Q 2881 1009 2881 1497 
Q 2881 1984 2565 2268 
Q 2250 2553 1709 2553 
Q 1456 2553 1204 2497 
Q 953 2441 691 2322 
L 691 4666 
z
" transform="scale(0.015625)"/>
       </defs>
       <use xlink:href="#DejaVuSans-2212"/>
       <use xlink:href="#DejaVuSans-35" x="83.789062"/>
      </g>
     </g>
    </g>
    <g id="xtick_3">
     <g id="line2d_5">
      <path d="M 257.992333 356.2 
L 257.992333 21.6 
" clip-path="url(#p3816d33c59)" style="fill: none; stroke: #b0b0b0; stroke-width: 0.8; stroke-linecap: square"/>
     </g>
     <g id="line2d_6">
      <g>
       <use xlink:href="#m89557f4fce" x="257.992333" y="356.2" style="stroke: #000000; stroke-width: 0.8"/>
      </g>
     </g>
     <g id="text_3">
      <!-- 0 -->
      <g transform="translate(251.629833 378.396875) scale(0.2 -0.2)">
       <use xlink:href="#DejaVuSans-30"/>
      </g>
     </g>
    </g>
    <g id="xtick_4">
     <g id="line2d_7">
      <path d="M 328.9105 356.2 
L 328.9105 21.6 
" clip-path="url(#p3816d33c59)" style="fill: none; stroke: #b0b0b0; stroke-width: 0.8; stroke-linecap: square"/>
     </g>
     <g id="line2d_8">
      <g>
       <use xlink:href="#m89557f4fce" x="328.9105" y="356.2" style="stroke: #000000; stroke-width: 0.8"/>
      </g>
     </g>
     <g id="text_4">
      <!-- 5 -->
      <g transform="translate(322.548 378.396875) scale(0.2 -0.2)">
       <use xlink:href="#DejaVuSans-35"/>
      </g>
     </g>
    </g>
    <g id="xtick_5">
     <g id="line2d_9">
      <path d="M 399.828667 356.2 
L 399.828667 21.6 
" clip-path="url(#p3816d33c59)" style="fill: none; stroke: #b0b0b0; stroke-width: 0.8; stroke-linecap: square"/>
     </g>
     <g id="line2d_10">
      <g>
       <use xlink:href="#m89557f4fce" x="399.828667" y="356.2" style="stroke: #000000; stroke-width: 0.8"/>
      </g>
     </g>
     <g id="text_5">
      <!-- 10 -->
      <g transform="translate(387.103667 378.396875) scale(0.2 -0.2)">
       <use xlink:href="#DejaVuSans-31"/>
       <use xlink:href="#DejaVuSans-30" x="63.623047"/>
      </g>
     </g>
    </g>
    <g id="xtick_6">
     <g id="line2d_11">
      <path d="M 470.746833 356.2 
L 470.746833 21.6 
" clip-path="url(#p3816d33c59)" style="fill: none; stroke: #b0b0b0; stroke-width: 0.8; stroke-linecap: square"/>
     </g>
     <g id="line2d_12">
      <g>
       <use xlink:href="#m89557f4fce" x="470.746833" y="356.2" style="stroke: #000000; stroke-width: 0.8"/>
      </g>
     </g>
     <g id="text_6">
      <!-- 15 -->
      <g transform="translate(458.021833 378.396875) scale(0.2 -0.2)">
       <use xlink:href="#DejaVuSans-31"/>
       <use xlink:href="#DejaVuSans-35" x="63.623047"/>
      </g>
     </g>
    </g>
    <g id="xtick_7">
     <g id="line2d_13">
      <path d="M 541.665 356.2 
L 541.665 21.6 
" clip-path="url(#p3816d33c59)" style="fill: none; stroke: #b0b0b0; stroke-width: 0.8; stroke-linecap: square"/>
     </g>
     <g id="line2d_14">
      <g>
       <use xlink:href="#m89557f4fce" x="541.665" y="356.2" style="stroke: #000000; stroke-width: 0.8"/>
      </g>
     </g>
     <g id="text_7">
      <!-- 20 -->
      <g transform="translate(528.94 378.396875) scale(0.2 -0.2)">
       <defs>
        <path id="DejaVuSans-32" d="M 1228 531 
L 3431 531 
L 3431 0 
L 469 0 
L 469 531 
Q 828 903 1448 1529 
Q 2069 2156 2228 2338 
Q 2531 2678 2651 2914 
Q 2772 3150 2772 3378 
Q 2772 3750 2511 3984 
Q 2250 4219 1831 4219 
Q 1534 4219 1204 4116 
Q 875 4013 500 3803 
L 500 4441 
Q 881 4594 1212 4672 
Q 1544 4750 1819 4750 
Q 2544 4750 2975 4387 
Q 3406 4025 3406 3419 
Q 3406 3131 3298 2873 
Q 3191 2616 2906 2266 
Q 2828 2175 2409 1742 
Q 1991 1309 1228 531 
z
" transform="scale(0.015625)"/>
       </defs>
       <use xlink:href="#DejaVuSans-32"/>
       <use xlink:href="#DejaVuSans-30" x="63.623047"/>
      </g>
     </g>
    </g>
    <g id="text_8">
     <!-- $\alpha$ [deg] -->
     <g transform="translate(292.4105 401.75625) scale(0.2 -0.2)">
      <defs>
       <path id="DejaVuSans-Oblique-3b1" d="M 2619 1628 
L 2622 2350 
Q 2625 3088 2069 3091 
Q 1653 3094 1394 2747 
Q 1069 2319 959 1747 
Q 825 1059 994 731 
Q 1169 397 1547 397 
Q 1966 397 2319 1063 
L 2619 1628 
z
M 2166 3578 
Q 3141 3594 3128 2584 
Q 3128 2584 3616 3500 
L 4128 3500 
L 3119 1603 
L 3109 919 
Q 3109 766 3194 638 
Q 3291 488 3391 488 
L 3669 488 
L 3575 0 
L 3228 0 
Q 2934 0 2722 263 
Q 2622 394 2619 669 
Q 2416 334 2066 50 
Q 1900 -81 1453 -78 
Q 722 -72 456 397 
Q 184 884 353 1747 
Q 534 2675 1009 3097 
Q 1544 3569 2166 3578 
z
" transform="scale(0.015625)"/>
       <path id="DejaVuSans-20" transform="scale(0.015625)"/>
       <path id="DejaVuSans-5b" d="M 550 4863 
L 1875 4863 
L 1875 4416 
L 1125 4416 
L 1125 -397 
L 1875 -397 
L 1875 -844 
L 550 -844 
L 550 4863 
z
" transform="scale(0.015625)"/>
       <path id="DejaVuSans-64" d="M 2906 2969 
L 2906 4863 
L 3481 4863 
L 3481 0 
L 2906 0 
L 2906 525 
Q 2725 213 2448 61 
Q 2172 -91 1784 -91 
Q 1150 -91 751 415 
Q 353 922 353 1747 
Q 353 2572 751 3078 
Q 1150 3584 1784 3584 
Q 2172 3584 2448 3432 
Q 2725 3281 2906 2969 
z
M 947 1747 
Q 947 1113 1208 752 
Q 1469 391 1925 391 
Q 2381 391 2643 752 
Q 2906 1113 2906 1747 
Q 2906 2381 2643 2742 
Q 2381 3103 1925 3103 
Q 1469 3103 1208 2742 
Q 947 2381 947 1747 
z
" transform="scale(0.015625)"/>
       <path id="DejaVuSans-65" d="M 3597 1894 
L 3597 1613 
L 953 1613 
Q 991 1019 1311 708 
Q 1631 397 2203 397 
Q 2534 397 2845 478 
Q 3156 559 3463 722 
L 3463 178 
Q 3153 47 2828 -22 
Q 2503 -91 2169 -91 
Q 1331 -91 842 396 
Q 353 884 353 1716 
Q 353 2575 817 3079 
Q 1281 3584 2069 3584 
Q 2775 3584 3186 3129 
Q 3597 2675 3597 1894 
z
M 3022 2063 
Q 3016 2534 2758 2815 
Q 2500 3097 2075 3097 
Q 1594 3097 1305 2825 
Q 1016 2553 972 2059 
L 3022 2063 
z
" transform="scale(0.015625)"/>
       <path id="DejaVuSans-67" d="M 2906 1791 
Q 2906 2416 2648 2759 
Q 2391 3103 1925 3103 
Q 1463 3103 1205 2759 
Q 947 2416 947 1791 
Q 947 1169 1205 825 
Q 1463 481 1925 481 
Q 2391 481 2648 825 
Q 2906 1169 2906 1791 
z
M 3481 434 
Q 3481 -459 3084 -895 
Q 2688 -1331 1869 -1331 
Q 1566 -1331 1297 -1286 
Q 1028 -1241 775 -1147 
L 775 -588 
Q 1028 -725 1275 -790 
Q 1522 -856 1778 -856 
Q 2344 -856 2625 -561 
Q 2906 -266 2906 331 
L 2906 616 
Q 2728 306 2450 153 
Q 2172 0 1784 0 
Q 1141 0 747 490 
Q 353 981 353 1791 
Q 353 2603 747 3093 
Q 1141 3584 1784 3584 
Q 2172 3584 2450 3431 
Q 2728 3278 2906 2969 
L 2906 3500 
L 3481 3500 
L 3481 434 
z
" transform="scale(0.015625)"/>
       <path id="DejaVuSans-5d" d="M 1947 4863 
L 1947 -844 
L 622 -844 
L 622 -397 
L 1369 -397 
L 1369 4416 
L 622 4416 
L 622 4863 
L 1947 4863 
z
" transform="scale(0.015625)"/>
      </defs>
      <use xlink:href="#DejaVuSans-Oblique-3b1" transform="translate(0 0.015625)"/>
      <use xlink:href="#DejaVuSans-20" transform="translate(65.917969 0.015625)"/>
      <use xlink:href="#DejaVuSans-5b" transform="translate(97.705078 0.015625)"/>
      <use xlink:href="#DejaVuSans-64" transform="translate(136.71875 0.015625)"/>
      <use xlink:href="#DejaVuSans-65" transform="translate(200.195312 0.015625)"/>
      <use xlink:href="#DejaVuSans-67" transform="translate(261.71875 0.015625)"/>
      <use xlink:href="#DejaVuSans-5d" transform="translate(325.195312 0.015625)"/>
     </g>
    </g>
   </g>
   <g id="matplotlib.axis_2">
    <g id="ytick_1">
     <g id="line2d_15">
      <path d="M 116.156 331.180012 
L 541.665 331.180012 
" clip-path="url(#p3816d33c59)" style="fill: none; stroke: #b0b0b0; stroke-width: 0.8; stroke-linecap: square"/>
     </g>
     <g id="line2d_16">
      <defs>
       <path id="mb279694bd2" d="M 0 0 
L -3.5 0 
" style="stroke: #000000; stroke-width: 0.8"/>
      </defs>
      <g>
       <use xlink:href="#mb279694bd2" x="116.156" y="331.180012" style="stroke: #000000; stroke-width: 0.8"/>
      </g>
     </g>
     <g id="text_9">
      <!-- −1.00 -->
      <g transform="translate(47.865375 338.778449) scale(0.2 -0.2)">
       <defs>
        <path id="DejaVuSans-2e" d="M 684 794 
L 1344 794 
L 1344 0 
L 684 0 
L 684 794 
z
" transform="scale(0.015625)"/>
       </defs>
       <use xlink:href="#DejaVuSans-2212"/>
       <use xlink:href="#DejaVuSans-31" x="83.789062"/>
       <use xlink:href="#DejaVuSans-2e" x="147.412109"/>
       <use xlink:href="#DejaVuSans-30" x="179.199219"/>
       <use xlink:href="#DejaVuSans-30" x="242.822266"/>
      </g>
     </g>
    </g>
    <g id="ytick_2">
     <g id="line2d_17">
      <path d="M 116.156 279.521009 
L 541.665 279.521009 
" clip-path="url(#p3816d33c59)" style="fill: none; stroke: #b0b0b0; stroke-width: 0.8; stroke-linecap: square"/>
     </g>
     <g id="line2d_18">
      <g>
       <use xlink:href="#mb279694bd2" x="116.156" y="279.521009" style="stroke: #000000; stroke-width: 0.8"/>
      </g>
     </g>
     <g id="text_10">
      <!-- −0.75 -->
      <g transform="translate(47.865375 287.119447) scale(0.2 -0.2)">
       <defs>
        <path id="DejaVuSans-37" d="M 525 4666 
L 3525 4666 
L 3525 4397 
L 1831 0 
L 1172 0 
L 2766 4134 
L 525 4134 
L 525 4666 
z
" transform="scale(0.015625)"/>
       </defs>
       <use xlink:href="#DejaVuSans-2212"/>
       <use xlink:href="#DejaVuSans-30" x="83.789062"/>
       <use xlink:href="#DejaVuSans-2e" x="147.412109"/>
       <use xlink:href="#DejaVuSans-37" x="179.199219"/>
       <use xlink:href="#DejaVuSans-35" x="242.822266"/>
      </g>
     </g>
    </g>
    <g id="ytick_3">
     <g id="line2d_19">
      <path d="M 116.156 227.862007 
L 541.665 227.862007 
" clip-path="url(#p3816d33c59)" style="fill: none; stroke: #b0b0b0; stroke-width: 0.8; stroke-linecap: square"/>
     </g>
     <g id="line2d_20">
      <g>
       <use xlink:href="#mb279694bd2" x="116.156" y="227.862007" style="stroke: #000000; stroke-width: 0.8"/>
      </g>
     </g>
     <g id="text_11">
      <!-- −0.50 -->
      <g transform="translate(47.865375 235.460444) scale(0.2 -0.2)">
       <use xlink:href="#DejaVuSans-2212"/>
       <use xlink:href="#DejaVuSans-30" x="83.789062"/>
       <use xlink:href="#DejaVuSans-2e" x="147.412109"/>
       <use xlink:href="#DejaVuSans-35" x="179.199219"/>
       <use xlink:href="#DejaVuSans-30" x="242.822266"/>
      </g>
     </g>
    </g>
    <g id="ytick_4">
     <g id="line2d_21">
      <path d="M 116.156 176.203004 
L 541.665 176.203004 
" clip-path="url(#p3816d33c59)" style="fill: none; stroke: #b0b0b0; stroke-width: 0.8; stroke-linecap: square"/>
     </g>
     <g id="line2d_22">
      <g>
       <use xlink:href="#mb279694bd2" x="116.156" y="176.203004" style="stroke: #000000; stroke-width: 0.8"/>
      </g>
     </g>
     <g id="text_12">
      <!-- −0.25 -->
      <g transform="translate(47.865375 183.801441) scale(0.2 -0.2)">
       <use xlink:href="#DejaVuSans-2212"/>
       <use xlink:href="#DejaVuSans-30" x="83.789062"/>
       <use xlink:href="#DejaVuSans-2e" x="147.412109"/>
       <use xlink:href="#DejaVuSans-32" x="179.199219"/>
       <use xlink:href="#DejaVuSans-35" x="242.822266"/>
      </g>
     </g>
    </g>
    <g id="ytick_5">
     <g id="line2d_23">
      <path d="M 116.156 124.544001 
L 541.665 124.544001 
" clip-path="url(#p3816d33c59)" style="fill: none; stroke: #b0b0b0; stroke-width: 0.8; stroke-linecap: square"/>
     </g>
     <g id="line2d_24">
      <g>
       <use xlink:href="#mb279694bd2" x="116.156" y="124.544001" style="stroke: #000000; stroke-width: 0.8"/>
      </g>
     </g>
     <g id="text_13">
      <!-- 0.00 -->
      <g transform="translate(64.62475 132.142439) scale(0.2 -0.2)">
       <use xlink:href="#DejaVuSans-30"/>
       <use xlink:href="#DejaVuSans-2e" x="63.623047"/>
       <use xlink:href="#DejaVuSans-30" x="95.410156"/>
       <use xlink:href="#DejaVuSans-30" x="159.033203"/>
      </g>
     </g>
    </g>
    <g id="ytick_6">
     <g id="line2d_25">
      <path d="M 116.156 72.884999 
L 541.665 72.884999 
" clip-path="url(#p3816d33c59)" style="fill: none; stroke: #b0b0b0; stroke-width: 0.8; stroke-linecap: square"/>
     </g>
     <g id="line2d_26">
      <g>
       <use xlink:href="#mb279694bd2" x="116.156" y="72.884999" style="stroke: #000000; stroke-width: 0.8"/>
      </g>
     </g>
     <g id="text_14">
      <!-- 0.25 -->
      <g transform="translate(64.62475 80.483436) scale(0.2 -0.2)">
       <use xlink:href="#DejaVuSans-30"/>
       <use xlink:href="#DejaVuSans-2e" x="63.623047"/>
       <use xlink:href="#DejaVuSans-32" x="95.410156"/>
       <use xlink:href="#DejaVuSans-35" x="159.033203"/>
      </g>
     </g>
    </g>
    <g id="text_15">
     <!-- $C_M$ [-] -->
     <g transform="translate(39.706 216.8) rotate(-90) scale(0.2 -0.2)">
      <defs>
       <path id="DejaVuSans-Oblique-43" d="M 4447 4306 
L 4319 3641 
Q 4019 3944 3683 4091 
Q 3347 4238 2956 4238 
Q 2422 4238 2017 3981 
Q 1613 3725 1319 3200 
Q 1131 2863 1032 2486 
Q 934 2109 934 1728 
Q 934 1091 1264 756 
Q 1594 422 2222 422 
Q 2656 422 3056 561 
Q 3456 700 3834 978 
L 3688 231 
Q 3316 72 2936 -9 
Q 2556 -91 2175 -91 
Q 1278 -91 773 396 
Q 269 884 269 1753 
Q 269 2309 461 2846 
Q 653 3384 1013 3828 
Q 1394 4300 1883 4525 
Q 2372 4750 3022 4750 
Q 3422 4750 3780 4639 
Q 4138 4528 4447 4306 
z
" transform="scale(0.015625)"/>
       <path id="DejaVuSans-Oblique-4d" d="M 1081 4666 
L 2028 4666 
L 2572 1522 
L 4378 4666 
L 5350 4666 
L 4441 0 
L 3828 0 
L 4622 4091 
L 2791 897 
L 2175 897 
L 1581 4103 
L 788 0 
L 172 0 
L 1081 4666 
z
" transform="scale(0.015625)"/>
       <path id="DejaVuSans-2d" d="M 313 2009 
L 1997 2009 
L 1997 1497 
L 313 1497 
L 313 2009 
z
" transform="scale(0.015625)"/>
      </defs>
      <use xlink:href="#DejaVuSans-Oblique-43" transform="translate(0 0.015625)"/>
      <use xlink:href="#DejaVuSans-Oblique-4d" transform="translate(69.824219 -16.390625) scale(0.7)"/>
      <use xlink:href="#DejaVuSans-20" transform="translate(132.954102 0.015625)"/>
      <use xlink:href="#DejaVuSans-5b" transform="translate(164.741211 0.015625)"/>
      <use xlink:href="#DejaVuSans-2d" transform="translate(203.754883 0.015625)"/>
      <use xlink:href="#DejaVuSans-5d" transform="translate(239.838867 0.015625)"/>
     </g>
    </g>
   </g>
   <g id="line2d_27">
    <path d="M 116.156 40.139604 
L 120.454071 43.14607 
L 124.752141 46.152536 
L 129.050212 49.159003 
L 133.348283 52.165469 
L 137.646354 55.171935 
L 141.944424 58.178402 
L 146.242495 61.184868 
L 150.540566 64.191334 
L 154.838636 67.197801 
L 159.136707 70.204267 
L 163.434778 73.210733 
L 167.732848 76.2172 
L 172.030919 79.223666 
L 176.32899 82.230133 
L 180.627061 85.236599 
L 184.925131 88.243065 
L 189.223202 91.249532 
L 193.521273 94.255998 
L 197.819343 97.262464 
L 202.117414 100.268931 
L 206.415485 103.275397 
L 210.713556 106.281863 
L 215.011626 109.28833 
L 219.309697 112.294796 
L 223.607768 115.301262 
L 227.905838 118.307729 
L 232.203909 121.314195 
L 236.50198 124.320661 
L 240.800051 127.327128 
L 245.098121 130.333594 
L 249.396192 133.34006 
L 253.694263 136.346527 
L 257.992333 139.352993 
L 262.290404 142.359459 
L 266.588475 145.365926 
L 270.886545 148.372392 
L 275.184616 151.378858 
L 279.482687 154.385325 
L 283.780758 157.391791 
L 288.078828 160.398257 
L 292.376899 163.404724 
L 296.67497 166.41119 
L 300.97304 169.417656 
L 305.271111 172.424123 
L 309.569182 175.430589 
L 313.867253 178.437056 
L 318.165323 181.443522 
L 322.463394 184.449988 
L 326.761465 187.456455 
L 331.059535 190.462921 
L 335.357606 193.469387 
L 339.655677 196.475854 
L 343.953747 199.48232 
L 348.251818 202.488786 
L 352.549889 205.495253 
L 356.84796 208.501719 
L 361.14603 211.508185 
L 365.444101 214.514652 
L 369.742172 217.521118 
L 374.040242 220.527584 
L 378.338313 223.534051 
L 382.636384 226.540517 
L 386.934455 229.546983 
L 391.232525 232.55345 
L 395.530596 235.559916 
L 399.828667 238.566382 
L 404.126737 241.572849 
L 408.424808 244.579315 
L 412.722879 247.585781 
L 417.020949 250.592248 
L 421.31902 253.598714 
L 425.617091 256.60518 
L 429.915162 259.611647 
L 434.213232 262.618113 
L 438.511303 265.624579 
L 442.809374 268.631046 
L 447.107444 271.637512 
L 451.405515 274.643978 
L 455.703586 277.650445 
L 460.001657 280.656911 
L 464.299727 283.663378 
L 468.597798 286.669844 
L 472.895869 289.67631 
L 477.193939 292.682777 
L 481.49201 295.689243 
L 485.790081 298.695709 
L 490.088152 301.702176 
L 494.386222 304.708642 
L 498.684293 307.715108 
L 502.982364 310.721575 
L 507.280434 313.728041 
L 511.578505 316.734507 
L 515.876576 319.740974 
L 520.174646 322.74744 
L 524.472717 325.753906 
L 528.770788 328.760373 
L 533.068859 331.766839 
L 537.366929 334.773305 
L 541.665 337.779772 
" clip-path="url(#p3816d33c59)" style="fill: none; stroke-dasharray: 9.6,2.4,1.5,2.4; stroke-dashoffset: 0; stroke: #00a6b6; stroke-width: 1.5"/>
   </g>
   <g id="line2d_28">
    <path d="M 116.156 39.566254 
L 120.454071 42.610948 
L 124.752141 45.655641 
L 129.050212 48.700335 
L 133.348283 51.745028 
L 137.646354 54.789722 
L 141.944424 57.834415 
L 146.242495 60.879109 
L 150.540566 63.923802 
L 154.838636 66.968496 
L 159.136707 70.013189 
L 163.434778 73.057883 
L 167.732848 76.102576 
L 172.030919 79.14727 
L 176.32899 82.191963 
L 180.627061 85.236657 
L 184.925131 88.28135 
L 189.223202 91.326044 
L 193.521273 94.370737 
L 197.819343 97.41543 
L 202.117414 100.460124 
L 206.415485 103.504817 
L 210.713556 106.549511 
L 215.011626 109.594204 
L 219.309697 112.638898 
L 223.607768 115.683591 
L 227.905838 118.728285 
L 232.203909 121.772978 
L 236.50198 124.817672 
L 240.800051 127.862365 
L 245.098121 130.907059 
L 249.396192 133.951752 
L 253.694263 136.996446 
L 257.992333 140.041139 
L 262.290404 143.085833 
L 266.588475 146.130526 
L 270.886545 149.17522 
L 275.184616 152.219913 
L 279.482687 155.264607 
L 283.780758 158.3093 
L 288.078828 161.353994 
L 292.376899 164.398687 
L 296.67497 167.443381 
L 300.97304 170.488074 
L 305.271111 173.532768 
L 309.569182 176.577461 
L 313.867253 179.622155 
L 318.165323 182.666848 
L 322.463394 185.711541 
L 326.761465 188.756235 
L 331.059535 191.800928 
L 335.357606 194.845622 
L 339.655677 197.890315 
L 343.953747 200.935009 
L 348.251818 203.979702 
L 352.549889 207.024396 
L 356.84796 210.069089 
L 361.14603 213.113783 
L 365.444101 216.158476 
L 369.742172 219.20317 
L 374.040242 222.247863 
L 378.338313 225.292557 
L 382.636384 228.33725 
L 386.934455 231.381944 
L 391.232525 234.426637 
L 395.530596 237.471331 
L 399.828667 240.516024 
L 404.126737 243.560718 
L 408.424808 246.605411 
L 412.722879 249.650105 
L 417.020949 252.694798 
L 421.31902 255.739492 
L 425.617091 258.784185 
L 429.915162 261.828879 
L 434.213232 264.873572 
L 438.511303 267.918266 
L 442.809374 270.962959 
L 447.107444 274.007652 
L 451.405515 277.052346 
L 455.703586 280.097039 
L 460.001657 283.141733 
L 464.299727 286.186426 
L 468.597798 289.23112 
L 472.895869 292.275813 
L 477.193939 295.320507 
L 481.49201 298.3652 
L 485.790081 301.409894 
L 490.088152 304.454587 
L 494.386222 307.499281 
L 498.684293 310.543974 
L 502.982364 313.588668 
L 507.280434 316.633361 
L 511.578505 319.678055 
L 515.876576 322.722748 
L 520.174646 325.767442 
L 524.472717 328.812135 
L 528.770788 331.856829 
L 533.068859 334.901522 
L 537.366929 337.946216 
L 541.665 340.990909 
" clip-path="url(#p3816d33c59)" style="fill: none; stroke-dasharray: 9.6,2.4,1.5,2.4; stroke-dashoffset: 0; stroke: #a50034; stroke-width: 1.5"/>
   </g>
   <g id="line2d_29">
    <path d="M 116.156 37.873183 
L 120.454071 40.548301 
L 124.752141 43.22342 
L 129.050212 45.898538 
L 133.348283 48.573656 
L 137.646354 51.248775 
L 141.944424 53.923893 
L 146.242495 56.599012 
L 150.540566 59.27413 
L 154.838636 61.949248 
L 159.136707 64.624367 
L 163.434778 67.299485 
L 167.732848 69.974603 
L 172.030919 72.649722 
L 176.32899 75.32484 
L 180.627061 77.999958 
L 184.925131 80.675077 
L 189.223202 83.350195 
L 193.521273 86.025313 
L 197.819343 88.700432 
L 202.117414 91.37555 
L 206.415485 94.050668 
L 210.713556 96.725787 
L 215.011626 99.400905 
L 219.309697 102.076023 
L 223.607768 104.751142 
L 227.905838 107.42626 
L 232.203909 110.101378 
L 236.50198 112.776497 
L 240.800051 115.451615 
L 245.098121 118.126733 
L 249.396192 120.801852 
L 253.694263 123.47697 
L 257.992333 126.152088 
L 262.290404 128.827207 
L 266.588475 131.502325 
L 270.886545 134.177444 
L 275.184616 136.852562 
L 279.482687 139.52768 
L 283.780758 142.202799 
L 288.078828 144.877917 
L 292.376899 147.553035 
L 296.67497 150.228154 
L 300.97304 152.903272 
L 305.271111 155.57839 
L 309.569182 158.253509 
L 313.867253 160.928627 
L 318.165323 163.603745 
L 322.463394 166.278864 
L 326.761465 168.953982 
L 331.059535 171.6291 
L 335.357606 174.304219 
L 339.655677 176.979337 
L 343.953747 179.654455 
L 348.251818 182.329574 
L 352.549889 185.004692 
L 356.84796 187.67981 
L 361.14603 190.354929 
L 365.444101 193.030047 
L 369.742172 195.705165 
L 374.040242 198.380284 
L 378.338313 201.055402 
L 382.636384 203.73052 
L 386.934455 206.405639 
L 391.232525 209.080757 
L 395.530596 211.755875 
L 399.828667 214.430994 
L 404.126737 217.106112 
L 408.424808 219.781231 
L 412.722879 222.456349 
L 417.020949 225.131467 
L 421.31902 227.806586 
L 425.617091 230.481704 
L 429.915162 233.156822 
L 434.213232 235.831941 
L 438.511303 238.507059 
L 442.809374 241.182177 
L 447.107444 243.857296 
L 451.405515 246.532414 
L 455.703586 249.207532 
L 460.001657 251.882651 
L 464.299727 254.557769 
L 468.597798 257.232887 
L 472.895869 259.908006 
L 477.193939 262.583124 
L 481.49201 265.258242 
L 485.790081 267.933361 
L 490.088152 270.608479 
L 494.386222 273.283597 
L 498.684293 275.958716 
L 502.982364 278.633834 
L 507.280434 281.308952 
L 511.578505 283.984071 
L 515.876576 286.659189 
L 520.174646 289.334307 
L 524.472717 292.009426 
L 528.770788 294.684544 
L 533.068859 297.359663 
L 537.366929 300.034781 
L 541.665 302.709899 
" clip-path="url(#p3816d33c59)" style="fill: none; stroke-dasharray: 9.6,2.4,1.5,2.4; stroke-dashoffset: 0; stroke: #ef60a3; stroke-width: 1.5"/>
   </g>
   <g id="line2d_30">
    <path d="M 116.156 36.809091 
L 120.454071 39.529789 
L 124.752141 42.250488 
L 129.050212 44.971186 
L 133.348283 47.691885 
L 137.646354 50.412583 
L 141.944424 53.133281 
L 146.242495 55.85398 
L 150.540566 58.574678 
L 154.838636 61.295377 
L 159.136707 64.016075 
L 163.434778 66.736773 
L 167.732848 69.457472 
L 172.030919 72.17817 
L 176.32899 74.898869 
L 180.627061 77.619567 
L 184.925131 80.340265 
L 189.223202 83.060964 
L 193.521273 85.781662 
L 197.819343 88.502361 
L 202.117414 91.223059 
L 206.415485 93.943758 
L 210.713556 96.664456 
L 215.011626 99.385154 
L 219.309697 102.105853 
L 223.607768 104.826551 
L 227.905838 107.54725 
L 232.203909 110.267948 
L 236.50198 112.988646 
L 240.800051 115.709345 
L 245.098121 118.430043 
L 249.396192 121.150742 
L 253.694263 123.87144 
L 257.992333 126.592138 
L 262.290404 129.312837 
L 266.588475 132.033535 
L 270.886545 134.754234 
L 275.184616 137.474932 
L 279.482687 140.19563 
L 283.780758 142.916329 
L 288.078828 145.637027 
L 292.376899 148.357726 
L 296.67497 151.078424 
L 300.97304 153.799123 
L 305.271111 156.519821 
L 309.569182 159.240519 
L 313.867253 161.961218 
L 318.165323 164.681916 
L 322.463394 167.402615 
L 326.761465 170.123313 
L 331.059535 172.844011 
L 335.357606 175.56471 
L 339.655677 178.285408 
L 343.953747 181.006107 
L 348.251818 183.726805 
L 352.549889 186.447503 
L 356.84796 189.168202 
L 361.14603 191.8889 
L 365.444101 194.609599 
L 369.742172 197.330297 
L 374.040242 200.050996 
L 378.338313 202.771694 
L 382.636384 205.492392 
L 386.934455 208.213091 
L 391.232525 210.933789 
L 395.530596 213.654488 
L 399.828667 216.375186 
L 404.126737 219.095884 
L 408.424808 221.816583 
L 412.722879 224.537281 
L 417.020949 227.25798 
L 421.31902 229.978678 
L 425.617091 232.699376 
L 429.915162 235.420075 
L 434.213232 238.140773 
L 438.511303 240.861472 
L 442.809374 243.58217 
L 447.107444 246.302868 
L 451.405515 249.023567 
L 455.703586 251.744265 
L 460.001657 254.464964 
L 464.299727 257.185662 
L 468.597798 259.906361 
L 472.895869 262.627059 
L 477.193939 265.347757 
L 481.49201 268.068456 
L 485.790081 270.789154 
L 490.088152 273.509853 
L 494.386222 276.230551 
L 498.684293 278.951249 
L 502.982364 281.671948 
L 507.280434 284.392646 
L 511.578505 287.113345 
L 515.876576 289.834043 
L 520.174646 292.554741 
L 524.472717 295.27544 
L 528.770788 297.996138 
L 533.068859 300.716837 
L 537.366929 303.437535 
L 541.665 306.158233 
" clip-path="url(#p3816d33c59)" style="fill: none; stroke-dasharray: 9.6,2.4,1.5,2.4; stroke-dashoffset: 0; stroke: #6cc24a; stroke-width: 1.5"/>
   </g>
   <g id="patch_3">
    <path d="M 116.156 356.2 
L 116.156 21.6 
" style="fill: none; stroke: #000000; stroke-width: 0.8; stroke-linejoin: miter; stroke-linecap: square"/>
   </g>
   <g id="patch_4">
    <path d="M 541.665 356.2 
L 541.665 21.6 
" style="fill: none; stroke: #000000; stroke-width: 0.8; stroke-linejoin: miter; stroke-linecap: square"/>
   </g>
   <g id="patch_5">
    <path d="M 116.156 356.2 
L 541.665 356.2 
" style="fill: none; stroke: #000000; stroke-width: 0.8; stroke-linejoin: miter; stroke-linecap: square"/>
   </g>
   <g id="patch_6">
    <path d="M 116.156 21.6 
L 541.665 21.6 
" style="fill: none; stroke: #000000; stroke-width: 0.8; stroke-linejoin: miter; stroke-linecap: square"/>
   </g>
   <g id="legend_1">
    <g id="patch_7">
     <path d="M 130.156 346.2 
L 377.315375 346.2 
Q 381.315375 346.2 381.315375 342.2 
L 381.315375 226.775 
Q 381.315375 222.775 377.315375 222.775 
L 130.156 222.775 
Q 126.156 222.775 126.156 226.775 
L 126.156 342.2 
Q 126.156 346.2 130.156 346.2 
z
" style="fill: #ffffff; opacity: 0.8; stroke: #cccccc; stroke-linejoin: miter"/>
    </g>
    <g id="line2d_31">
     <path d="M 134.156 238.971875 
L 154.156 238.971875 
L 174.156 238.971875 
" style="fill: none; stroke-dasharray: 9.6,2.4,1.5,2.4; stroke-dashoffset: 0; stroke: #00a6b6; stroke-width: 1.5"/>
    </g>
    <g id="text_16">
     <!-- Uncorrected J=1.8 -->
     <g transform="translate(190.156 245.971875) scale(0.2 -0.2)">
      <defs>
       <path id="DejaVuSans-55" d="M 556 4666 
L 1191 4666 
L 1191 1831 
Q 1191 1081 1462 751 
Q 1734 422 2344 422 
Q 2950 422 3222 751 
Q 3494 1081 3494 1831 
L 3494 4666 
L 4128 4666 
L 4128 1753 
Q 4128 841 3676 375 
Q 3225 -91 2344 -91 
Q 1459 -91 1007 375 
Q 556 841 556 1753 
L 556 4666 
z
" transform="scale(0.015625)"/>
       <path id="DejaVuSans-6e" d="M 3513 2113 
L 3513 0 
L 2938 0 
L 2938 2094 
Q 2938 2591 2744 2837 
Q 2550 3084 2163 3084 
Q 1697 3084 1428 2787 
Q 1159 2491 1159 1978 
L 1159 0 
L 581 0 
L 581 3500 
L 1159 3500 
L 1159 2956 
Q 1366 3272 1645 3428 
Q 1925 3584 2291 3584 
Q 2894 3584 3203 3211 
Q 3513 2838 3513 2113 
z
" transform="scale(0.015625)"/>
       <path id="DejaVuSans-63" d="M 3122 3366 
L 3122 2828 
Q 2878 2963 2633 3030 
Q 2388 3097 2138 3097 
Q 1578 3097 1268 2742 
Q 959 2388 959 1747 
Q 959 1106 1268 751 
Q 1578 397 2138 397 
Q 2388 397 2633 464 
Q 2878 531 3122 666 
L 3122 134 
Q 2881 22 2623 -34 
Q 2366 -91 2075 -91 
Q 1284 -91 818 406 
Q 353 903 353 1747 
Q 353 2603 823 3093 
Q 1294 3584 2113 3584 
Q 2378 3584 2631 3529 
Q 2884 3475 3122 3366 
z
" transform="scale(0.015625)"/>
       <path id="DejaVuSans-6f" d="M 1959 3097 
Q 1497 3097 1228 2736 
Q 959 2375 959 1747 
Q 959 1119 1226 758 
Q 1494 397 1959 397 
Q 2419 397 2687 759 
Q 2956 1122 2956 1747 
Q 2956 2369 2687 2733 
Q 2419 3097 1959 3097 
z
M 1959 3584 
Q 2709 3584 3137 3096 
Q 3566 2609 3566 1747 
Q 3566 888 3137 398 
Q 2709 -91 1959 -91 
Q 1206 -91 779 398 
Q 353 888 353 1747 
Q 353 2609 779 3096 
Q 1206 3584 1959 3584 
z
" transform="scale(0.015625)"/>
       <path id="DejaVuSans-72" d="M 2631 2963 
Q 2534 3019 2420 3045 
Q 2306 3072 2169 3072 
Q 1681 3072 1420 2755 
Q 1159 2438 1159 1844 
L 1159 0 
L 581 0 
L 581 3500 
L 1159 3500 
L 1159 2956 
Q 1341 3275 1631 3429 
Q 1922 3584 2338 3584 
Q 2397 3584 2469 3576 
Q 2541 3569 2628 3553 
L 2631 2963 
z
" transform="scale(0.015625)"/>
       <path id="DejaVuSans-74" d="M 1172 4494 
L 1172 3500 
L 2356 3500 
L 2356 3053 
L 1172 3053 
L 1172 1153 
Q 1172 725 1289 603 
Q 1406 481 1766 481 
L 2356 481 
L 2356 0 
L 1766 0 
Q 1100 0 847 248 
Q 594 497 594 1153 
L 594 3053 
L 172 3053 
L 172 3500 
L 594 3500 
L 594 4494 
L 1172 4494 
z
" transform="scale(0.015625)"/>
       <path id="DejaVuSans-4a" d="M 628 4666 
L 1259 4666 
L 1259 325 
Q 1259 -519 939 -900 
Q 619 -1281 -91 -1281 
L -331 -1281 
L -331 -750 
L -134 -750 
Q 284 -750 456 -515 
Q 628 -281 628 325 
L 628 4666 
z
" transform="scale(0.015625)"/>
       <path id="DejaVuSans-3d" d="M 678 2906 
L 4684 2906 
L 4684 2381 
L 678 2381 
L 678 2906 
z
M 678 1631 
L 4684 1631 
L 4684 1100 
L 678 1100 
L 678 1631 
z
" transform="scale(0.015625)"/>
       <path id="DejaVuSans-38" d="M 2034 2216 
Q 1584 2216 1326 1975 
Q 1069 1734 1069 1313 
Q 1069 891 1326 650 
Q 1584 409 2034 409 
Q 2484 409 2743 651 
Q 3003 894 3003 1313 
Q 3003 1734 2745 1975 
Q 2488 2216 2034 2216 
z
M 1403 2484 
Q 997 2584 770 2862 
Q 544 3141 544 3541 
Q 544 4100 942 4425 
Q 1341 4750 2034 4750 
Q 2731 4750 3128 4425 
Q 3525 4100 3525 3541 
Q 3525 3141 3298 2862 
Q 3072 2584 2669 2484 
Q 3125 2378 3379 2068 
Q 3634 1759 3634 1313 
Q 3634 634 3220 271 
Q 2806 -91 2034 -91 
Q 1263 -91 848 271 
Q 434 634 434 1313 
Q 434 1759 690 2068 
Q 947 2378 1403 2484 
z
M 1172 3481 
Q 1172 3119 1398 2916 
Q 1625 2713 2034 2713 
Q 2441 2713 2670 2916 
Q 2900 3119 2900 3481 
Q 2900 3844 2670 4047 
Q 2441 4250 2034 4250 
Q 1625 4250 1398 4047 
Q 1172 3844 1172 3481 
z
" transform="scale(0.015625)"/>
      </defs>
      <use xlink:href="#DejaVuSans-55"/>
      <use xlink:href="#DejaVuSans-6e" x="73.193359"/>
      <use xlink:href="#DejaVuSans-63" x="136.572266"/>
      <use xlink:href="#DejaVuSans-6f" x="191.552734"/>
      <use xlink:href="#DejaVuSans-72" x="252.734375"/>
      <use xlink:href="#DejaVuSans-72" x="292.097656"/>
      <use xlink:href="#DejaVuSans-65" x="330.960938"/>
      <use xlink:href="#DejaVuSans-63" x="392.484375"/>
      <use xlink:href="#DejaVuSans-74" x="447.464844"/>
      <use xlink:href="#DejaVuSans-65" x="486.673828"/>
      <use xlink:href="#DejaVuSans-64" x="548.197266"/>
      <use xlink:href="#DejaVuSans-20" x="611.673828"/>
      <use xlink:href="#DejaVuSans-4a" x="643.460938"/>
      <use xlink:href="#DejaVuSans-3d" x="672.953125"/>
      <use xlink:href="#DejaVuSans-31" x="756.742188"/>
      <use xlink:href="#DejaVuSans-2e" x="820.365234"/>
      <use xlink:href="#DejaVuSans-38" x="852.152344"/>
     </g>
    </g>
    <g id="line2d_32">
     <path d="M 134.156 268.328125 
L 154.156 268.328125 
L 174.156 268.328125 
" style="fill: none; stroke-dasharray: 9.6,2.4,1.5,2.4; stroke-dashoffset: 0; stroke: #a50034; stroke-width: 1.5"/>
    </g>
    <g id="text_17">
     <!-- Corrected J=1.8 -->
     <g transform="translate(190.156 275.328125) scale(0.2 -0.2)">
      <defs>
       <path id="DejaVuSans-43" d="M 4122 4306 
L 4122 3641 
Q 3803 3938 3442 4084 
Q 3081 4231 2675 4231 
Q 1875 4231 1450 3742 
Q 1025 3253 1025 2328 
Q 1025 1406 1450 917 
Q 1875 428 2675 428 
Q 3081 428 3442 575 
Q 3803 722 4122 1019 
L 4122 359 
Q 3791 134 3420 21 
Q 3050 -91 2638 -91 
Q 1578 -91 968 557 
Q 359 1206 359 2328 
Q 359 3453 968 4101 
Q 1578 4750 2638 4750 
Q 3056 4750 3426 4639 
Q 3797 4528 4122 4306 
z
" transform="scale(0.015625)"/>
      </defs>
      <use xlink:href="#DejaVuSans-43"/>
      <use xlink:href="#DejaVuSans-6f" x="69.824219"/>
      <use xlink:href="#DejaVuSans-72" x="131.005859"/>
      <use xlink:href="#DejaVuSans-72" x="170.369141"/>
      <use xlink:href="#DejaVuSans-65" x="209.232422"/>
      <use xlink:href="#DejaVuSans-63" x="270.755859"/>
      <use xlink:href="#DejaVuSans-74" x="325.736328"/>
      <use xlink:href="#DejaVuSans-65" x="364.945312"/>
      <use xlink:href="#DejaVuSans-64" x="426.46875"/>
      <use xlink:href="#DejaVuSans-20" x="489.945312"/>
      <use xlink:href="#DejaVuSans-4a" x="521.732422"/>
      <use xlink:href="#DejaVuSans-3d" x="551.224609"/>
      <use xlink:href="#DejaVuSans-31" x="635.013672"/>
      <use xlink:href="#DejaVuSans-2e" x="698.636719"/>
      <use xlink:href="#DejaVuSans-38" x="730.423828"/>
     </g>
    </g>
    <g id="line2d_33">
     <path d="M 134.156 297.684375 
L 154.156 297.684375 
L 174.156 297.684375 
" style="fill: none; stroke-dasharray: 9.6,2.4,1.5,2.4; stroke-dashoffset: 0; stroke: #ef60a3; stroke-width: 1.5"/>
    </g>
    <g id="text_18">
     <!-- Uncorrected J=3.5 -->
     <g transform="translate(190.156 304.684375) scale(0.2 -0.2)">
      <defs>
       <path id="DejaVuSans-33" d="M 2597 2516 
Q 3050 2419 3304 2112 
Q 3559 1806 3559 1356 
Q 3559 666 3084 287 
Q 2609 -91 1734 -91 
Q 1441 -91 1130 -33 
Q 819 25 488 141 
L 488 750 
Q 750 597 1062 519 
Q 1375 441 1716 441 
Q 2309 441 2620 675 
Q 2931 909 2931 1356 
Q 2931 1769 2642 2001 
Q 2353 2234 1838 2234 
L 1294 2234 
L 1294 2753 
L 1863 2753 
Q 2328 2753 2575 2939 
Q 2822 3125 2822 3475 
Q 2822 3834 2567 4026 
Q 2313 4219 1838 4219 
Q 1578 4219 1281 4162 
Q 984 4106 628 3988 
L 628 4550 
Q 988 4650 1302 4700 
Q 1616 4750 1894 4750 
Q 2613 4750 3031 4423 
Q 3450 4097 3450 3541 
Q 3450 3153 3228 2886 
Q 3006 2619 2597 2516 
z
" transform="scale(0.015625)"/>
      </defs>
      <use xlink:href="#DejaVuSans-55"/>
      <use xlink:href="#DejaVuSans-6e" x="73.193359"/>
      <use xlink:href="#DejaVuSans-63" x="136.572266"/>
      <use xlink:href="#DejaVuSans-6f" x="191.552734"/>
      <use xlink:href="#DejaVuSans-72" x="252.734375"/>
      <use xlink:href="#DejaVuSans-72" x="292.097656"/>
      <use xlink:href="#DejaVuSans-65" x="330.960938"/>
      <use xlink:href="#DejaVuSans-63" x="392.484375"/>
      <use xlink:href="#DejaVuSans-74" x="447.464844"/>
      <use xlink:href="#DejaVuSans-65" x="486.673828"/>
      <use xlink:href="#DejaVuSans-64" x="548.197266"/>
      <use xlink:href="#DejaVuSans-20" x="611.673828"/>
      <use xlink:href="#DejaVuSans-4a" x="643.460938"/>
      <use xlink:href="#DejaVuSans-3d" x="672.953125"/>
      <use xlink:href="#DejaVuSans-33" x="756.742188"/>
      <use xlink:href="#DejaVuSans-2e" x="820.365234"/>
      <use xlink:href="#DejaVuSans-35" x="852.152344"/>
     </g>
    </g>
    <g id="line2d_34">
     <path d="M 134.156 327.040625 
L 154.156 327.040625 
L 174.156 327.040625 
" style="fill: none; stroke-dasharray: 9.6,2.4,1.5,2.4; stroke-dashoffset: 0; stroke: #6cc24a; stroke-width: 1.5"/>
    </g>
    <g id="text_19">
     <!-- Corrected J=3.5 -->
     <g transform="translate(190.156 334.040625) scale(0.2 -0.2)">
      <use xlink:href="#DejaVuSans-43"/>
      <use xlink:href="#DejaVuSans-6f" x="69.824219"/>
      <use xlink:href="#DejaVuSans-72" x="131.005859"/>
      <use xlink:href="#DejaVuSans-72" x="170.369141"/>
      <use xlink:href="#DejaVuSans-65" x="209.232422"/>
      <use xlink:href="#DejaVuSans-63" x="270.755859"/>
      <use xlink:href="#DejaVuSans-74" x="325.736328"/>
      <use xlink:href="#DejaVuSans-65" x="364.945312"/>
      <use xlink:href="#DejaVuSans-64" x="426.46875"/>
      <use xlink:href="#DejaVuSans-20" x="489.945312"/>
      <use xlink:href="#DejaVuSans-4a" x="521.732422"/>
      <use xlink:href="#DejaVuSans-3d" x="551.224609"/>
      <use xlink:href="#DejaVuSans-33" x="635.013672"/>
      <use xlink:href="#DejaVuSans-2e" x="698.636719"/>
      <use xlink:href="#DejaVuSans-35" x="730.423828"/>
     </g>
    </g>
   </g>
  </g>
 </g>
 <defs>
  <clipPath id="p3816d33c59">
   <rect x="116.156" y="21.6" width="425.509" height="334.6"/>
  </clipPath>
 </defs>
</svg>
