<?xml version="1.0" encoding="utf-8" standalone="no"?>
<!DOCTYPE svg PUBLIC "-//W3C//DTD SVG 1.1//EN"
  "http://www.w3.org/Graphics/SVG/1.1/DTD/svg11.dtd">
<svg xmlns:xlink="http://www.w3.org/1999/xlink" width="576pt" height="432pt" viewBox="0 0 576 432" xmlns="http://www.w3.org/2000/svg" version="1.1">
 <metadata>
  <rdf:RDF xmlns:dc="http://purl.org/dc/elements/1.1/" xmlns:cc="http://creativecommons.org/ns#" xmlns:rdf="http://www.w3.org/1999/02/22-rdf-syntax-ns#">
   <cc:Work>
    <dc:type rdf:resource="http://purl.org/dc/dcmitype/StillImage"/>
    <dc:date>2024-04-03T11:46:28.870550</dc:date>
    <dc:format>image/svg+xml</dc:format>
    <dc:creator>
     <cc:Agent>
      <dc:title>Matplotlib v3.8.0, https://matplotlib.org/</dc:title>
     </cc:Agent>
    </dc:creator>
   </cc:Work>
  </rdf:RDF>
 </metadata>
 <defs>
  <style type="text/css">*{stroke-linejoin: round; stroke-linecap: butt}</style>
 </defs>
 <g id="figure_1">
  <g id="patch_1">
   <path d="M 0 432 
L 576 432 
L 576 0 
L 0 0 
z
" style="fill: #ffffff"/>
  </g>
  <g id="axes_1">
   <g id="patch_2">
    <path d="M 99.506 357.064 
L 525.735 357.064 
L 525.735 26.358185 
L 99.506 26.358185 
z
" style="fill: #ffffff"/>
   </g>
   <g id="PathCollection_1">
    <defs>
     <path id="m7a2d4e081b" d="M 0 3 
C 0.795609 3 1.55874 2.683901 2.12132 2.12132 
C 2.683901 1.55874 3 0.795609 3 0 
C 3 -0.795609 2.683901 -1.55874 2.12132 -2.12132 
C 1.55874 -2.683901 0.795609 -3 0 -3 
C -0.795609 -3 -1.55874 -2.683901 -2.12132 -2.12132 
C -2.683901 -1.55874 -3 -0.795609 -3 0 
C -3 0.795609 -2.683901 1.55874 -2.12132 2.12132 
C -1.55874 2.683901 -0.795609 3 0 3 
z
" style="stroke: #00a6b6"/>
    </defs>
    <g clip-path="url(#p788985726e)">
     <use xlink:href="#m7a2d4e081b" x="132.179697" y="331.285637" style="fill: #00a6b6; stroke: #00a6b6"/>
     <use xlink:href="#m7a2d4e081b" x="419.772237" y="310.844992" style="fill: #00a6b6; stroke: #00a6b6"/>
     <use xlink:href="#m7a2d4e081b" x="488.285775" y="247.842484" style="fill: #00a6b6; stroke: #00a6b6"/>
     <use xlink:href="#m7a2d4e081b" x="513.201492" y="209.849451" style="fill: #00a6b6; stroke: #00a6b6"/>
    </g>
   </g>
   <g id="PathCollection_2">
    <defs>
     <path id="m87022a965c" d="M 0 3 
C 0.795609 3 1.55874 2.683901 2.12132 2.12132 
C 2.683901 1.55874 3 0.795609 3 0 
C 3 -0.795609 2.683901 -1.55874 2.12132 -2.12132 
C 1.55874 -2.683901 0.795609 -3 0 -3 
C -0.795609 -3 -1.55874 -2.683901 -2.12132 -2.12132 
C -2.683901 -1.55874 -3 -0.795609 -3 0 
C -3 0.795609 -2.683901 1.55874 -2.12132 2.12132 
C -1.55874 2.683901 -0.795609 3 0 3 
z
" style="stroke: #a50034"/>
    </defs>
    <g clip-path="url(#p788985726e)">
     <use xlink:href="#m87022a965c" x="128.80844" y="331.564067" style="fill: #a50034; stroke: #a50034"/>
     <use xlink:href="#m87022a965c" x="414.887405" y="308.726674" style="fill: #a50034; stroke: #a50034"/>
     <use xlink:href="#m87022a965c" x="478.103689" y="245.939107" style="fill: #a50034; stroke: #a50034"/>
     <use xlink:href="#m87022a965c" x="497.527482" y="208.715162" style="fill: #a50034; stroke: #a50034"/>
    </g>
   </g>
   <g id="PathCollection_3">
    <defs>
     <path id="m027ed1cd71" d="M 0 3 
C 0.795609 3 1.55874 2.683901 2.12132 2.12132 
C 2.683901 1.55874 3 0.795609 3 0 
C 3 -0.795609 2.683901 -1.55874 2.12132 -2.12132 
C 1.55874 -2.683901 0.795609 -3 0 -3 
C -0.795609 -3 -1.55874 -2.683901 -2.12132 -2.12132 
C -2.683901 -1.55874 -3 -0.795609 -3 0 
C -3 0.795609 -2.683901 1.55874 -2.12132 2.12132 
C -1.55874 2.683901 -0.795609 3 0 3 
z
" style="stroke: #ef60a3"/>
    </defs>
    <g clip-path="url(#p788985726e)">
     <use xlink:href="#m027ed1cd71" x="130.938345" y="331.285637" style="fill: #ef60a3; stroke: #ef60a3"/>
     <use xlink:href="#m027ed1cd71" x="253.806273" y="339.046553" style="fill: #ef60a3; stroke: #ef60a3"/>
     <use xlink:href="#m027ed1cd71" x="410.81249" y="310.844992" style="fill: #ef60a3; stroke: #ef60a3"/>
     <use xlink:href="#m027ed1cd71" x="473.203329" y="247.842484" style="fill: #ef60a3; stroke: #ef60a3"/>
     <use xlink:href="#m027ed1cd71" x="494.476157" y="209.849451" style="fill: #ef60a3; stroke: #ef60a3"/>
    </g>
   </g>
   <g id="PathCollection_4">
    <defs>
     <path id="m1d1caf435c" d="M 0 3 
C 0.795609 3 1.55874 2.683901 2.12132 2.12132 
C 2.683901 1.55874 3 0.795609 3 0 
C 3 -0.795609 2.683901 -1.55874 2.12132 -2.12132 
C 1.55874 -2.683901 0.795609 -3 0 -3 
C -0.795609 -3 -1.55874 -2.683901 -2.12132 -2.12132 
C -2.683901 -1.55874 -3 -0.795609 -3 0 
C -3 0.795609 -2.683901 1.55874 -2.12132 2.12132 
C -1.55874 2.683901 -0.795609 3 0 3 
z
" style="stroke: #6cc24a"/>
    </defs>
    <g clip-path="url(#p788985726e)">
     <use xlink:href="#m1d1caf435c" x="126.201513" y="331.578919" style="fill: #6cc24a; stroke: #6cc24a"/>
     <use xlink:href="#m1d1caf435c" x="249.79219" y="339.041043" style="fill: #6cc24a; stroke: #6cc24a"/>
     <use xlink:href="#m1d1caf435c" x="408.097047" y="308.724233" style="fill: #6cc24a; stroke: #6cc24a"/>
     <use xlink:href="#m1d1caf435c" x="467.076255" y="245.830981" style="fill: #6cc24a; stroke: #6cc24a"/>
     <use xlink:href="#m1d1caf435c" x="483.783186" y="208.364676" style="fill: #6cc24a; stroke: #6cc24a"/>
    </g>
   </g>
   <g id="matplotlib.axis_1">
    <g id="xtick_1">
     <g id="line2d_1">
      <path d="M 99.506 357.064 
L 99.506 26.358185 
" clip-path="url(#p788985726e)" style="fill: none; stroke: #b0b0b0; stroke-width: 0.8; stroke-linecap: square"/>
     </g>
     <g id="line2d_2">
      <defs>
       <path id="m8727ecb6ab" d="M 0 0 
L 0 3.5 
" style="stroke: #000000; stroke-width: 0.8"/>
      </defs>
      <g>
       <use xlink:href="#m8727ecb6ab" x="99.506" y="357.064" style="stroke: #000000; stroke-width: 0.8"/>
      </g>
     </g>
     <g id="text_1">
      <!-- −0.500 -->
      <g transform="translate(62.498188 379.260875) scale(0.2 -0.2)">
       <defs>
        <path id="DejaVuSans-2212" d="M 678 2272 
L 4684 2272 
L 4684 1741 
L 678 1741 
L 678 2272 
z
" transform="scale(0.015625)"/>
        <path id="DejaVuSans-30" d="M 2034 4250 
Q 1547 4250 1301 3770 
Q 1056 3291 1056 2328 
Q 1056 1369 1301 889 
Q 1547 409 2034 409 
Q 2525 409 2770 889 
Q 3016 1369 3016 2328 
Q 3016 3291 2770 3770 
Q 2525 4250 2034 4250 
z
M 2034 4750 
Q 2819 4750 3233 4129 
Q 3647 3509 3647 2328 
Q 3647 1150 3233 529 
Q 2819 -91 2034 -91 
Q 1250 -91 836 529 
Q 422 1150 422 2328 
Q 422 3509 836 4129 
Q 1250 4750 2034 4750 
z
" transform="scale(0.015625)"/>
        <path id="DejaVuSans-2e" d="M 684 794 
L 1344 794 
L 1344 0 
L 684 0 
L 684 794 
z
" transform="scale(0.015625)"/>
        <path id="DejaVuSans-35" d="M 691 4666 
L 3169 4666 
L 3169 4134 
L 1269 4134 
L 1269 2991 
Q 1406 3038 1543 3061 
Q 1681 3084 1819 3084 
Q 2600 3084 3056 2656 
Q 3513 2228 3513 1497 
Q 3513 744 3044 326 
Q 2575 -91 1722 -91 
Q 1428 -91 1123 -41 
Q 819 9 494 109 
L 494 744 
Q 775 591 1075 516 
Q 1375 441 1709 441 
Q 2250 441 2565 725 
Q 2881 1009 2881 1497 
Q 2881 1984 2565 2268 
Q 2250 2553 1709 2553 
Q 1456 2553 1204 2497 
Q 953 2441 691 2322 
L 691 4666 
z
" transform="scale(0.015625)"/>
       </defs>
       <use xlink:href="#DejaVuSans-2212"/>
       <use xlink:href="#DejaVuSans-30" x="83.789062"/>
       <use xlink:href="#DejaVuSans-2e" x="147.412109"/>
       <use xlink:href="#DejaVuSans-35" x="179.199219"/>
       <use xlink:href="#DejaVuSans-30" x="242.822266"/>
       <use xlink:href="#DejaVuSans-30" x="306.445312"/>
      </g>
     </g>
    </g>
    <g id="xtick_2">
     <g id="line2d_3">
      <path d="M 170.544167 357.064 
L 170.544167 26.358185 
" clip-path="url(#p788985726e)" style="fill: none; stroke: #b0b0b0; stroke-width: 0.8; stroke-linecap: square"/>
     </g>
     <g id="line2d_4">
      <g>
       <use xlink:href="#m8727ecb6ab" x="170.544167" y="357.064" style="stroke: #000000; stroke-width: 0.8"/>
      </g>
     </g>
     <g id="text_2">
      <!-- −0.167 -->
      <g transform="translate(133.536354 379.260875) scale(0.2 -0.2)">
       <defs>
        <path id="DejaVuSans-31" d="M 794 531 
L 1825 531 
L 1825 4091 
L 703 3866 
L 703 4441 
L 1819 4666 
L 2450 4666 
L 2450 531 
L 3481 531 
L 3481 0 
L 794 0 
L 794 531 
z
" transform="scale(0.015625)"/>
        <path id="DejaVuSans-36" d="M 2113 2584 
Q 1688 2584 1439 2293 
Q 1191 2003 1191 1497 
Q 1191 994 1439 701 
Q 1688 409 2113 409 
Q 2538 409 2786 701 
Q 3034 994 3034 1497 
Q 3034 2003 2786 2293 
Q 2538 2584 2113 2584 
z
M 3366 4563 
L 3366 3988 
Q 3128 4100 2886 4159 
Q 2644 4219 2406 4219 
Q 1781 4219 1451 3797 
Q 1122 3375 1075 2522 
Q 1259 2794 1537 2939 
Q 1816 3084 2150 3084 
Q 2853 3084 3261 2657 
Q 3669 2231 3669 1497 
Q 3669 778 3244 343 
Q 2819 -91 2113 -91 
Q 1303 -91 875 529 
Q 447 1150 447 2328 
Q 447 3434 972 4092 
Q 1497 4750 2381 4750 
Q 2619 4750 2861 4703 
Q 3103 4656 3366 4563 
z
" transform="scale(0.015625)"/>
        <path id="DejaVuSans-37" d="M 525 4666 
L 3525 4666 
L 3525 4397 
L 1831 0 
L 1172 0 
L 2766 4134 
L 525 4134 
L 525 4666 
z
" transform="scale(0.015625)"/>
       </defs>
       <use xlink:href="#DejaVuSans-2212"/>
       <use xlink:href="#DejaVuSans-30" x="83.789062"/>
       <use xlink:href="#DejaVuSans-2e" x="147.412109"/>
       <use xlink:href="#DejaVuSans-31" x="179.199219"/>
       <use xlink:href="#DejaVuSans-36" x="242.822266"/>
       <use xlink:href="#DejaVuSans-37" x="306.445312"/>
      </g>
     </g>
    </g>
    <g id="xtick_3">
     <g id="line2d_5">
      <path d="M 241.582333 357.064 
L 241.582333 26.358185 
" clip-path="url(#p788985726e)" style="fill: none; stroke: #b0b0b0; stroke-width: 0.8; stroke-linecap: square"/>
     </g>
     <g id="line2d_6">
      <g>
       <use xlink:href="#m8727ecb6ab" x="241.582333" y="357.064" style="stroke: #000000; stroke-width: 0.8"/>
      </g>
     </g>
     <g id="text_3">
      <!-- 0.167 -->
      <g transform="translate(212.954208 379.260875) scale(0.2 -0.2)">
       <use xlink:href="#DejaVuSans-30"/>
       <use xlink:href="#DejaVuSans-2e" x="63.623047"/>
       <use xlink:href="#DejaVuSans-31" x="95.410156"/>
       <use xlink:href="#DejaVuSans-36" x="159.033203"/>
       <use xlink:href="#DejaVuSans-37" x="222.65625"/>
      </g>
     </g>
    </g>
    <g id="xtick_4">
     <g id="line2d_7">
      <path d="M 312.6205 357.064 
L 312.6205 26.358185 
" clip-path="url(#p788985726e)" style="fill: none; stroke: #b0b0b0; stroke-width: 0.8; stroke-linecap: square"/>
     </g>
     <g id="line2d_8">
      <g>
       <use xlink:href="#m8727ecb6ab" x="312.6205" y="357.064" style="stroke: #000000; stroke-width: 0.8"/>
      </g>
     </g>
     <g id="text_4">
      <!-- 0.500 -->
      <g transform="translate(283.992375 379.260875) scale(0.2 -0.2)">
       <use xlink:href="#DejaVuSans-30"/>
       <use xlink:href="#DejaVuSans-2e" x="63.623047"/>
       <use xlink:href="#DejaVuSans-35" x="95.410156"/>
       <use xlink:href="#DejaVuSans-30" x="159.033203"/>
       <use xlink:href="#DejaVuSans-30" x="222.65625"/>
      </g>
     </g>
    </g>
    <g id="xtick_5">
     <g id="line2d_9">
      <path d="M 383.658667 357.064 
L 383.658667 26.358185 
" clip-path="url(#p788985726e)" style="fill: none; stroke: #b0b0b0; stroke-width: 0.8; stroke-linecap: square"/>
     </g>
     <g id="line2d_10">
      <g>
       <use xlink:href="#m8727ecb6ab" x="383.658667" y="357.064" style="stroke: #000000; stroke-width: 0.8"/>
      </g>
     </g>
     <g id="text_5">
      <!-- 0.833 -->
      <g transform="translate(355.030542 379.260875) scale(0.2 -0.2)">
       <defs>
        <path id="DejaVuSans-38" d="M 2034 2216 
Q 1584 2216 1326 1975 
Q 1069 1734 1069 1313 
Q 1069 891 1326 650 
Q 1584 409 2034 409 
Q 2484 409 2743 651 
Q 3003 894 3003 1313 
Q 3003 1734 2745 1975 
Q 2488 2216 2034 2216 
z
M 1403 2484 
Q 997 2584 770 2862 
Q 544 3141 544 3541 
Q 544 4100 942 4425 
Q 1341 4750 2034 4750 
Q 2731 4750 3128 4425 
Q 3525 4100 3525 3541 
Q 3525 3141 3298 2862 
Q 3072 2584 2669 2484 
Q 3125 2378 3379 2068 
Q 3634 1759 3634 1313 
Q 3634 634 3220 271 
Q 2806 -91 2034 -91 
Q 1263 -91 848 271 
Q 434 634 434 1313 
Q 434 1759 690 2068 
Q 947 2378 1403 2484 
z
M 1172 3481 
Q 1172 3119 1398 2916 
Q 1625 2713 2034 2713 
Q 2441 2713 2670 2916 
Q 2900 3119 2900 3481 
Q 2900 3844 2670 4047 
Q 2441 4250 2034 4250 
Q 1625 4250 1398 4047 
Q 1172 3844 1172 3481 
z
" transform="scale(0.015625)"/>
        <path id="DejaVuSans-33" d="M 2597 2516 
Q 3050 2419 3304 2112 
Q 3559 1806 3559 1356 
Q 3559 666 3084 287 
Q 2609 -91 1734 -91 
Q 1441 -91 1130 -33 
Q 819 25 488 141 
L 488 750 
Q 750 597 1062 519 
Q 1375 441 1716 441 
Q 2309 441 2620 675 
Q 2931 909 2931 1356 
Q 2931 1769 2642 2001 
Q 2353 2234 1838 2234 
L 1294 2234 
L 1294 2753 
L 1863 2753 
Q 2328 2753 2575 2939 
Q 2822 3125 2822 3475 
Q 2822 3834 2567 4026 
Q 2313 4219 1838 4219 
Q 1578 4219 1281 4162 
Q 984 4106 628 3988 
L 628 4550 
Q 988 4650 1302 4700 
Q 1616 4750 1894 4750 
Q 2613 4750 3031 4423 
Q 3450 4097 3450 3541 
Q 3450 3153 3228 2886 
Q 3006 2619 2597 2516 
z
" transform="scale(0.015625)"/>
       </defs>
       <use xlink:href="#DejaVuSans-30"/>
       <use xlink:href="#DejaVuSans-2e" x="63.623047"/>
       <use xlink:href="#DejaVuSans-38" x="95.410156"/>
       <use xlink:href="#DejaVuSans-33" x="159.033203"/>
       <use xlink:href="#DejaVuSans-33" x="222.65625"/>
      </g>
     </g>
    </g>
    <g id="xtick_6">
     <g id="line2d_11">
      <path d="M 454.696833 357.064 
L 454.696833 26.358185 
" clip-path="url(#p788985726e)" style="fill: none; stroke: #b0b0b0; stroke-width: 0.8; stroke-linecap: square"/>
     </g>
     <g id="line2d_12">
      <g>
       <use xlink:href="#m8727ecb6ab" x="454.696833" y="357.064" style="stroke: #000000; stroke-width: 0.8"/>
      </g>
     </g>
     <g id="text_6">
      <!-- 1.167 -->
      <g transform="translate(426.068708 379.260875) scale(0.2 -0.2)">
       <use xlink:href="#DejaVuSans-31"/>
       <use xlink:href="#DejaVuSans-2e" x="63.623047"/>
       <use xlink:href="#DejaVuSans-31" x="95.410156"/>
       <use xlink:href="#DejaVuSans-36" x="159.033203"/>
       <use xlink:href="#DejaVuSans-37" x="222.65625"/>
      </g>
     </g>
    </g>
    <g id="xtick_7">
     <g id="line2d_13">
      <path d="M 525.735 357.064 
L 525.735 26.358185 
" clip-path="url(#p788985726e)" style="fill: none; stroke: #b0b0b0; stroke-width: 0.8; stroke-linecap: square"/>
     </g>
     <g id="line2d_14">
      <g>
       <use xlink:href="#m8727ecb6ab" x="525.735" y="357.064" style="stroke: #000000; stroke-width: 0.8"/>
      </g>
     </g>
     <g id="text_7">
      <!-- 1.500 -->
      <g transform="translate(497.106875 379.260875) scale(0.2 -0.2)">
       <use xlink:href="#DejaVuSans-31"/>
       <use xlink:href="#DejaVuSans-2e" x="63.623047"/>
       <use xlink:href="#DejaVuSans-35" x="95.410156"/>
       <use xlink:href="#DejaVuSans-30" x="159.033203"/>
       <use xlink:href="#DejaVuSans-30" x="222.65625"/>
      </g>
     </g>
    </g>
    <g id="text_8">
     <!-- $C_L$ [-] -->
     <g transform="translate(286.8205 402.617125) scale(0.2 -0.2)">
      <defs>
       <path id="DejaVuSans-Oblique-43" d="M 4447 4306 
L 4319 3641 
Q 4019 3944 3683 4091 
Q 3347 4238 2956 4238 
Q 2422 4238 2017 3981 
Q 1613 3725 1319 3200 
Q 1131 2863 1032 2486 
Q 934 2109 934 1728 
Q 934 1091 1264 756 
Q 1594 422 2222 422 
Q 2656 422 3056 561 
Q 3456 700 3834 978 
L 3688 231 
Q 3316 72 2936 -9 
Q 2556 -91 2175 -91 
Q 1278 -91 773 396 
Q 269 884 269 1753 
Q 269 2309 461 2846 
Q 653 3384 1013 3828 
Q 1394 4300 1883 4525 
Q 2372 4750 3022 4750 
Q 3422 4750 3780 4639 
Q 4138 4528 4447 4306 
z
" transform="scale(0.015625)"/>
       <path id="DejaVuSans-Oblique-4c" d="M 1075 4666 
L 1709 4666 
L 909 525 
L 3181 525 
L 3078 0 
L 172 0 
L 1075 4666 
z
" transform="scale(0.015625)"/>
       <path id="DejaVuSans-20" transform="scale(0.015625)"/>
       <path id="DejaVuSans-5b" d="M 550 4863 
L 1875 4863 
L 1875 4416 
L 1125 4416 
L 1125 -397 
L 1875 -397 
L 1875 -844 
L 550 -844 
L 550 4863 
z
" transform="scale(0.015625)"/>
       <path id="DejaVuSans-2d" d="M 313 2009 
L 1997 2009 
L 1997 1497 
L 313 1497 
L 313 2009 
z
" transform="scale(0.015625)"/>
       <path id="DejaVuSans-5d" d="M 1947 4863 
L 1947 -844 
L 622 -844 
L 622 -397 
L 1369 -397 
L 1369 4416 
L 622 4416 
L 622 4863 
L 1947 4863 
z
" transform="scale(0.015625)"/>
      </defs>
      <use xlink:href="#DejaVuSans-Oblique-43" transform="translate(0 0.015625)"/>
      <use xlink:href="#DejaVuSans-Oblique-4c" transform="translate(69.824219 -16.390625) scale(0.7)"/>
      <use xlink:href="#DejaVuSans-20" transform="translate(111.557617 0.015625)"/>
      <use xlink:href="#DejaVuSans-5b" transform="translate(143.344727 0.015625)"/>
      <use xlink:href="#DejaVuSans-2d" transform="translate(182.358398 0.015625)"/>
      <use xlink:href="#DejaVuSans-5d" transform="translate(218.442383 0.015625)"/>
     </g>
    </g>
   </g>
   <g id="matplotlib.axis_2">
    <g id="ytick_1">
     <g id="line2d_15">
      <path d="M 99.506 315.601402 
L 525.735 315.601402 
" clip-path="url(#p788985726e)" style="fill: none; stroke: #b0b0b0; stroke-width: 0.8; stroke-linecap: square"/>
     </g>
     <g id="line2d_16">
      <defs>
       <path id="m049d900e65" d="M 0 0 
L -3.5 0 
" style="stroke: #000000; stroke-width: 0.8"/>
      </defs>
      <g>
       <use xlink:href="#m049d900e65" x="99.506" y="315.601402" style="stroke: #000000; stroke-width: 0.8"/>
      </g>
     </g>
     <g id="text_9">
      <!-- 0.05 -->
      <g transform="translate(47.97475 323.19984) scale(0.2 -0.2)">
       <use xlink:href="#DejaVuSans-30"/>
       <use xlink:href="#DejaVuSans-2e" x="63.623047"/>
       <use xlink:href="#DejaVuSans-30" x="95.410156"/>
       <use xlink:href="#DejaVuSans-35" x="159.033203"/>
      </g>
     </g>
    </g>
    <g id="ytick_2">
     <g id="line2d_17">
      <path d="M 99.506 267.918104 
L 525.735 267.918104 
" clip-path="url(#p788985726e)" style="fill: none; stroke: #b0b0b0; stroke-width: 0.8; stroke-linecap: square"/>
     </g>
     <g id="line2d_18">
      <g>
       <use xlink:href="#m049d900e65" x="99.506" y="267.918104" style="stroke: #000000; stroke-width: 0.8"/>
      </g>
     </g>
     <g id="text_10">
      <!-- 0.10 -->
      <g transform="translate(47.97475 275.516542) scale(0.2 -0.2)">
       <use xlink:href="#DejaVuSans-30"/>
       <use xlink:href="#DejaVuSans-2e" x="63.623047"/>
       <use xlink:href="#DejaVuSans-31" x="95.410156"/>
       <use xlink:href="#DejaVuSans-30" x="159.033203"/>
      </g>
     </g>
    </g>
    <g id="ytick_3">
     <g id="line2d_19">
      <path d="M 99.506 220.234807 
L 525.735 220.234807 
" clip-path="url(#p788985726e)" style="fill: none; stroke: #b0b0b0; stroke-width: 0.8; stroke-linecap: square"/>
     </g>
     <g id="line2d_20">
      <g>
       <use xlink:href="#m049d900e65" x="99.506" y="220.234807" style="stroke: #000000; stroke-width: 0.8"/>
      </g>
     </g>
     <g id="text_11">
      <!-- 0.15 -->
      <g transform="translate(47.97475 227.833244) scale(0.2 -0.2)">
       <use xlink:href="#DejaVuSans-30"/>
       <use xlink:href="#DejaVuSans-2e" x="63.623047"/>
       <use xlink:href="#DejaVuSans-31" x="95.410156"/>
       <use xlink:href="#DejaVuSans-35" x="159.033203"/>
      </g>
     </g>
    </g>
    <g id="ytick_4">
     <g id="line2d_21">
      <path d="M 99.506 172.551509 
L 525.735 172.551509 
" clip-path="url(#p788985726e)" style="fill: none; stroke: #b0b0b0; stroke-width: 0.8; stroke-linecap: square"/>
     </g>
     <g id="line2d_22">
      <g>
       <use xlink:href="#m049d900e65" x="99.506" y="172.551509" style="stroke: #000000; stroke-width: 0.8"/>
      </g>
     </g>
     <g id="text_12">
      <!-- 0.20 -->
      <g transform="translate(47.97475 180.149946) scale(0.2 -0.2)">
       <defs>
        <path id="DejaVuSans-32" d="M 1228 531 
L 3431 531 
L 3431 0 
L 469 0 
L 469 531 
Q 828 903 1448 1529 
Q 2069 2156 2228 2338 
Q 2531 2678 2651 2914 
Q 2772 3150 2772 3378 
Q 2772 3750 2511 3984 
Q 2250 4219 1831 4219 
Q 1534 4219 1204 4116 
Q 875 4013 500 3803 
L 500 4441 
Q 881 4594 1212 4672 
Q 1544 4750 1819 4750 
Q 2544 4750 2975 4387 
Q 3406 4025 3406 3419 
Q 3406 3131 3298 2873 
Q 3191 2616 2906 2266 
Q 2828 2175 2409 1742 
Q 1991 1309 1228 531 
z
" transform="scale(0.015625)"/>
       </defs>
       <use xlink:href="#DejaVuSans-30"/>
       <use xlink:href="#DejaVuSans-2e" x="63.623047"/>
       <use xlink:href="#DejaVuSans-32" x="95.410156"/>
       <use xlink:href="#DejaVuSans-30" x="159.033203"/>
      </g>
     </g>
    </g>
    <g id="ytick_5">
     <g id="line2d_23">
      <path d="M 99.506 124.868211 
L 525.735 124.868211 
" clip-path="url(#p788985726e)" style="fill: none; stroke: #b0b0b0; stroke-width: 0.8; stroke-linecap: square"/>
     </g>
     <g id="line2d_24">
      <g>
       <use xlink:href="#m049d900e65" x="99.506" y="124.868211" style="stroke: #000000; stroke-width: 0.8"/>
      </g>
     </g>
     <g id="text_13">
      <!-- 0.25 -->
      <g transform="translate(47.97475 132.466648) scale(0.2 -0.2)">
       <use xlink:href="#DejaVuSans-30"/>
       <use xlink:href="#DejaVuSans-2e" x="63.623047"/>
       <use xlink:href="#DejaVuSans-32" x="95.410156"/>
       <use xlink:href="#DejaVuSans-35" x="159.033203"/>
      </g>
     </g>
    </g>
    <g id="ytick_6">
     <g id="line2d_25">
      <path d="M 99.506 77.184913 
L 525.735 77.184913 
" clip-path="url(#p788985726e)" style="fill: none; stroke: #b0b0b0; stroke-width: 0.8; stroke-linecap: square"/>
     </g>
     <g id="line2d_26">
      <g>
       <use xlink:href="#m049d900e65" x="99.506" y="77.184913" style="stroke: #000000; stroke-width: 0.8"/>
      </g>
     </g>
     <g id="text_14">
      <!-- 0.30 -->
      <g transform="translate(47.97475 84.78335) scale(0.2 -0.2)">
       <use xlink:href="#DejaVuSans-30"/>
       <use xlink:href="#DejaVuSans-2e" x="63.623047"/>
       <use xlink:href="#DejaVuSans-33" x="95.410156"/>
       <use xlink:href="#DejaVuSans-30" x="159.033203"/>
      </g>
     </g>
    </g>
    <g id="ytick_7">
     <g id="line2d_27">
      <path d="M 99.506 29.501615 
L 525.735 29.501615 
" clip-path="url(#p788985726e)" style="fill: none; stroke: #b0b0b0; stroke-width: 0.8; stroke-linecap: square"/>
     </g>
     <g id="line2d_28">
      <g>
       <use xlink:href="#m049d900e65" x="99.506" y="29.501615" style="stroke: #000000; stroke-width: 0.8"/>
      </g>
     </g>
     <g id="text_15">
      <!-- 0.35 -->
      <g transform="translate(47.97475 37.100053) scale(0.2 -0.2)">
       <use xlink:href="#DejaVuSans-30"/>
       <use xlink:href="#DejaVuSans-2e" x="63.623047"/>
       <use xlink:href="#DejaVuSans-33" x="95.410156"/>
       <use xlink:href="#DejaVuSans-35" x="159.033203"/>
      </g>
     </g>
    </g>
    <g id="text_16">
     <!-- $C_D$ [-] -->
     <g transform="translate(39.815375 219.011092) rotate(-90) scale(0.2 -0.2)">
      <defs>
       <path id="DejaVuSans-Oblique-44" d="M 1081 4666 
L 2438 4666 
Q 3519 4666 4070 4208 
Q 4622 3750 4622 2847 
Q 4622 2250 4412 1698 
Q 4203 1147 3834 769 
Q 3463 381 2891 190 
Q 2319 0 1538 0 
L 172 0 
L 1081 4666 
z
M 1613 4147 
L 909 519 
L 1734 519 
Q 2794 519 3375 1128 
Q 3956 1738 3956 2847 
Q 3956 3519 3581 3833 
Q 3206 4147 2406 4147 
L 1613 4147 
z
" transform="scale(0.015625)"/>
      </defs>
      <use xlink:href="#DejaVuSans-Oblique-43" transform="translate(0 0.015625)"/>
      <use xlink:href="#DejaVuSans-Oblique-44" transform="translate(69.824219 -16.390625) scale(0.7)"/>
      <use xlink:href="#DejaVuSans-20" transform="translate(126.459961 0.015625)"/>
      <use xlink:href="#DejaVuSans-5b" transform="translate(158.24707 0.015625)"/>
      <use xlink:href="#DejaVuSans-2d" transform="translate(197.260742 0.015625)"/>
      <use xlink:href="#DejaVuSans-5d" transform="translate(233.344727 0.015625)"/>
     </g>
    </g>
   </g>
   <g id="line2d_29">
    <path d="M 99.506 327.336748 
L 103.811343 327.873941 
L 108.116687 328.406343 
L 112.42203 328.93379 
L 116.727374 329.456107 
L 121.032717 329.973115 
L 125.338061 330.48462 
L 129.643404 330.990422 
L 133.948747 331.490308 
L 138.254091 331.984052 
L 142.559434 332.471414 
L 146.864778 332.952142 
L 151.170121 333.425964 
L 155.475465 333.892594 
L 159.780808 334.351728 
L 164.086152 334.803039 
L 168.391495 335.246181 
L 172.696838 335.680787 
L 177.002182 336.106463 
L 181.307525 336.52279 
L 185.612869 336.929324 
L 189.918212 337.32559 
L 194.223556 337.711084 
L 198.528899 338.085269 
L 202.834242 338.447573 
L 207.139586 338.797391 
L 211.444929 339.134078 
L 215.750273 339.45695 
L 220.055616 339.765283 
L 224.36096 340.058307 
L 228.666303 340.335207 
L 232.971646 340.595122 
L 237.27699 340.837138 
L 241.582333 341.060293 
L 245.887677 341.263566 
L 250.19302 341.445882 
L 254.498364 341.606107 
L 258.803707 341.743043 
L 263.109051 341.855432 
L 267.414394 341.941946 
L 271.719737 342.001189 
L 276.025081 342.031693 
L 280.330424 342.031917 
L 284.635768 342.000242 
L 288.941111 341.934968 
L 293.246455 341.834314 
L 297.551798 341.696412 
L 301.857141 341.519308 
L 306.162485 341.300954 
L 310.467828 341.039208 
L 314.773172 340.731833 
L 319.078515 340.376487 
L 323.383859 339.970728 
L 327.689202 339.512006 
L 331.994545 338.99766 
L 336.299889 338.424916 
L 340.605232 337.790884 
L 344.910576 337.092552 
L 349.215919 336.326784 
L 353.521263 335.49032 
L 357.826606 334.579766 
L 362.131949 333.591594 
L 366.437293 332.522139 
L 370.742636 331.367593 
L 375.04798 330.124004 
L 379.353323 328.78727 
L 383.658667 327.353136 
L 387.96401 325.817188 
L 392.269354 324.174853 
L 396.574697 322.421393 
L 400.88004 320.5519 
L 405.185384 318.561294 
L 409.490727 316.444316 
L 413.796071 314.195526 
L 418.101414 311.8093 
L 422.406758 309.279821 
L 426.712101 306.60108 
L 431.017444 303.766868 
L 435.322788 300.770773 
L 439.628131 297.606174 
L 443.933475 294.266241 
L 448.238818 290.743924 
L 452.544162 287.031952 
L 456.849505 283.122829 
L 461.154848 279.008827 
L 465.460192 274.681983 
L 469.765535 270.134092 
L 474.070879 265.356705 
L 478.376222 260.341122 
L 482.681566 255.078387 
L 486.986909 249.559285 
L 491.292253 243.774334 
L 495.597596 237.713782 
L 499.902939 231.367601 
L 504.208283 224.725483 
L 508.513626 217.776831 
L 512.81897 210.510758 
L 517.124313 202.916081 
L 521.429657 194.981312 
L 525.735 186.694657 
" clip-path="url(#p788985726e)" style="fill: none; stroke-dasharray: 9.6,2.4,1.5,2.4; stroke-dashoffset: 0; stroke: #00a6b6; stroke-width: 1.5"/>
   </g>
   <g id="line2d_30">
    <path d="M 99.506 331.566562 
L 103.811343 331.57654 
L 108.116687 331.582161 
L 112.42203 331.583988 
L 116.727374 331.582506 
L 121.032717 331.578137 
L 125.338061 331.571245 
L 129.643404 331.562142 
L 133.948747 331.551093 
L 138.254091 331.538327 
L 142.559434 331.524038 
L 146.864778 331.508389 
L 151.170121 331.49152 
L 155.475465 331.473549 
L 159.780808 331.454577 
L 164.086152 331.43469 
L 168.391495 331.413961 
L 172.696838 331.392454 
L 177.002182 331.370222 
L 181.307525 331.34731 
L 185.612869 331.323757 
L 189.918212 331.299592 
L 194.223556 331.274837 
L 198.528899 331.249504 
L 202.834242 331.223594 
L 207.139586 331.197094 
L 211.444929 331.169978 
L 215.750273 331.142199 
L 220.055616 331.113689 
L 224.36096 331.084355 
L 228.666303 331.054071 
L 232.971646 331.022678 
L 237.27699 330.989976 
L 241.582333 330.955717 
L 245.887677 330.9196 
L 250.19302 330.881265 
L 254.498364 330.840284 
L 258.803707 330.796154 
L 263.109051 330.748287 
L 267.414394 330.696004 
L 271.719737 330.638524 
L 276.025081 330.574953 
L 280.330424 330.504277 
L 284.635768 330.425346 
L 288.941111 330.336869 
L 293.246455 330.237397 
L 297.551798 330.125315 
L 301.857141 329.998825 
L 306.162485 329.855935 
L 310.467828 329.694446 
L 314.773172 329.511936 
L 319.078515 329.305746 
L 323.383859 329.072966 
L 327.689202 328.810418 
L 331.994545 328.514638 
L 336.299889 328.181864 
L 340.605232 327.808014 
L 344.910576 327.388672 
L 349.215919 326.919069 
L 353.521263 326.394061 
L 357.826606 325.808116 
L 362.131949 325.155289 
L 366.437293 324.429205 
L 370.742636 323.623036 
L 375.04798 322.729483 
L 379.353323 321.740751 
L 383.658667 320.648531 
L 387.96401 319.443975 
L 392.269354 318.11767 
L 396.574697 316.659621 
L 400.88004 315.059223 
L 405.185384 313.305237 
L 409.490727 311.385765 
L 413.796071 309.288225 
L 418.101414 306.999325 
L 422.406758 304.505036 
L 426.712101 301.790565 
L 431.017444 298.84033 
L 435.322788 295.637929 
L 439.628131 292.166112 
L 443.933475 288.406754 
L 448.238818 284.340824 
L 452.544162 279.948356 
L 456.849505 275.208418 
L 461.154848 270.099082 
L 465.460192 264.597393 
L 469.765535 258.679333 
L 474.070879 252.319796 
L 478.376222 245.492549 
L 482.681566 238.170202 
L 486.986909 230.324173 
L 491.292253 221.924654 
L 495.597596 212.940575 
L 499.902939 203.339574 
L 504.208283 193.087951 
L 508.513626 182.150645 
L 512.81897 170.491186 
L 517.124313 158.071662 
L 521.429657 144.852685 
L 525.735 130.793347 
" clip-path="url(#p788985726e)" style="fill: none; stroke-dasharray: 9.6,2.4,1.5,2.4; stroke-dashoffset: 0; stroke: #a50034; stroke-width: 1.5"/>
   </g>
   <g id="line2d_31">
    <path d="M 99.506 328.138294 
L 103.811343 328.594093 
L 108.116687 329.041773 
L 112.42203 329.481537 
L 116.727374 329.913543 
L 121.032717 330.337907 
L 125.338061 330.754711 
L 129.643404 331.164 
L 133.948747 331.565789 
L 138.254091 331.960064 
L 142.559434 332.346783 
L 146.864778 332.72588 
L 151.170121 333.097264 
L 155.475465 333.460823 
L 159.780808 333.816422 
L 164.086152 334.163907 
L 168.391495 334.503102 
L 172.696838 334.833813 
L 177.002182 335.155822 
L 181.307525 335.468893 
L 185.612869 335.772767 
L 189.918212 336.067163 
L 194.223556 336.351774 
L 198.528899 336.62627 
L 202.834242 336.89029 
L 207.139586 337.143445 
L 211.444929 337.385314 
L 215.750273 337.61544 
L 220.055616 337.833326 
L 224.36096 338.038436 
L 228.666303 338.230188 
L 232.971646 338.40795 
L 237.27699 338.571035 
L 241.582333 338.718701 
L 245.887677 338.850142 
L 250.19302 338.964482 
L 254.498364 339.060773 
L 258.803707 339.13799 
L 263.109051 339.19502 
L 267.414394 339.23066 
L 271.719737 339.243608 
L 276.025081 339.232459 
L 280.330424 339.195694 
L 284.635768 339.131678 
L 288.941111 339.038647 
L 293.246455 338.914701 
L 297.551798 338.757799 
L 301.857141 338.565748 
L 306.162485 338.336192 
L 310.467828 338.066609 
L 314.773172 337.754294 
L 319.078515 337.396356 
L 323.383859 336.989705 
L 327.689202 336.531038 
L 331.994545 336.016838 
L 336.299889 335.443353 
L 340.605232 334.806591 
L 344.910576 334.102306 
L 349.215919 333.325988 
L 353.521263 332.472849 
L 357.826606 331.537811 
L 362.131949 330.515496 
L 366.437293 329.400211 
L 370.742636 328.185932 
L 375.04798 326.866297 
L 379.353323 325.434587 
L 383.658667 323.883715 
L 387.96401 322.206208 
L 392.269354 320.394197 
L 396.574697 318.439399 
L 400.88004 316.333103 
L 405.185384 314.066153 
L 409.490727 311.628935 
L 413.796071 309.011358 
L 418.101414 306.202839 
L 422.406758 303.192288 
L 426.712101 299.968087 
L 431.017444 296.518076 
L 435.322788 292.829536 
L 439.628131 288.889168 
L 443.933475 284.683078 
L 448.238818 280.196756 
L 452.544162 275.415061 
L 456.849505 270.322197 
L 461.154848 264.901698 
L 465.460192 259.136407 
L 469.765535 253.008457 
L 474.070879 246.499249 
L 478.376222 239.589431 
L 482.681566 232.258884 
L 486.986909 224.48669 
L 491.292253 216.251121 
L 495.597596 207.529612 
L 499.902939 198.29874 
L 504.208283 188.534203 
L 508.513626 178.210796 
L 512.81897 167.302389 
L 517.124313 155.781906 
L 521.429657 143.621298 
L 525.735 130.791522 
" clip-path="url(#p788985726e)" style="fill: none; stroke-dasharray: 9.6,2.4,1.5,2.4; stroke-dashoffset: 0; stroke: #ef60a3; stroke-width: 1.5"/>
   </g>
   <g id="line2d_32">
    <path d="M 99.506 323.773933 
L 103.811343 325.21948 
L 108.116687 326.589902 
L 112.42203 327.887786 
L 116.727374 329.115408 
L 121.032717 330.274764 
L 125.338061 331.367612 
L 129.643404 332.395493 
L 133.948747 333.359768 
L 138.254091 334.261647 
L 142.559434 335.102211 
L 146.864778 335.882439 
L 151.170121 336.603235 
L 155.475465 337.265447 
L 159.780808 337.869886 
L 164.086152 338.41735 
L 168.391495 338.908636 
L 172.696838 339.344559 
L 177.002182 339.725964 
L 181.307525 340.053741 
L 185.612869 340.328835 
L 189.918212 340.552252 
L 194.223556 340.725072 
L 198.528899 340.848453 
L 202.834242 340.923633 
L 207.139586 340.951939 
L 211.444929 340.934781 
L 215.750273 340.873657 
L 220.055616 340.77015 
L 224.36096 340.625924 
L 228.666303 340.442718 
L 232.971646 340.222344 
L 237.27699 339.966671 
L 241.582333 339.677622 
L 245.887677 339.357162 
L 250.19302 339.00728 
L 254.498364 338.62998 
L 258.803707 338.227261 
L 263.109051 337.801104 
L 267.414394 337.353445 
L 271.719737 336.886163 
L 276.025081 336.40105 
L 280.330424 335.899792 
L 284.635768 335.38394 
L 288.941111 334.854885 
L 293.246455 334.313828 
L 297.551798 333.761749 
L 301.857141 333.199375 
L 306.162485 332.627149 
L 310.467828 332.045191 
L 314.773172 331.453263 
L 319.078515 330.85073 
L 323.383859 330.236521 
L 327.689202 329.609087 
L 331.994545 328.966356 
L 336.299889 328.30569 
L 340.605232 327.62384 
L 344.910576 326.916893 
L 349.215919 326.180228 
L 353.521263 325.408461 
L 357.826606 324.595395 
L 362.131949 323.733964 
L 366.437293 322.816174 
L 370.742636 321.833054 
L 375.04798 320.774588 
L 379.353323 319.629658 
L 383.658667 318.385982 
L 387.96401 317.03005 
L 392.269354 315.547057 
L 396.574697 313.920838 
L 400.88004 312.133796 
L 405.185384 310.166837 
L 409.490727 307.999292 
L 413.796071 305.608847 
L 418.101414 302.971469 
L 422.406758 300.061326 
L 426.712101 296.85071 
L 431.017444 293.30996 
L 435.322788 289.407376 
L 439.628131 285.109138 
L 443.933475 280.379221 
L 448.238818 275.179312 
L 452.544162 269.468715 
L 456.849505 263.20427 
L 461.154848 256.340255 
L 465.460192 248.828297 
L 469.765535 240.617278 
L 474.070879 231.653236 
L 478.376222 221.879273 
L 482.681566 211.235451 
L 486.986909 199.658693 
L 491.292253 187.082681 
L 495.597596 173.437755 
L 499.902939 158.650801 
L 504.208283 142.645152 
L 508.513626 125.340473 
L 512.81897 106.652654 
L 517.124313 86.493697 
L 521.429657 64.771606 
L 525.735 41.390267 
" clip-path="url(#p788985726e)" style="fill: none; stroke-dasharray: 9.6,2.4,1.5,2.4; stroke-dashoffset: 0; stroke: #6cc24a; stroke-width: 1.5"/>
   </g>
   <g id="patch_3">
    <path d="M 99.506 357.064 
L 99.506 26.358185 
" style="fill: none; stroke: #000000; stroke-width: 0.8; stroke-linejoin: miter; stroke-linecap: square"/>
   </g>
   <g id="patch_4">
    <path d="M 525.735 357.064 
L 525.735 26.358185 
" style="fill: none; stroke: #000000; stroke-width: 0.8; stroke-linejoin: miter; stroke-linecap: square"/>
   </g>
   <g id="patch_5">
    <path d="M 99.506 357.064 
L 525.735 357.064 
" style="fill: none; stroke: #000000; stroke-width: 0.8; stroke-linejoin: miter; stroke-linecap: square"/>
   </g>
   <g id="patch_6">
    <path d="M 99.506 26.358185 
L 525.735 26.358185 
" style="fill: none; stroke: #000000; stroke-width: 0.8; stroke-linejoin: miter; stroke-linecap: square"/>
   </g>
   <g id="legend_1">
    <g id="patch_7">
     <path d="M 113.506 159.783185 
L 360.665375 159.783185 
Q 364.665375 159.783185 364.665375 155.783185 
L 364.665375 40.358185 
Q 364.665375 36.358185 360.665375 36.358185 
L 113.506 36.358185 
Q 109.506 36.358185 109.506 40.358185 
L 109.506 155.783185 
Q 109.506 159.783185 113.506 159.783185 
z
" style="fill: #ffffff; opacity: 0.8; stroke: #cccccc; stroke-linejoin: miter"/>
    </g>
    <g id="line2d_33">
     <path d="M 117.506 52.55506 
L 137.506 52.55506 
L 157.506 52.55506 
" style="fill: none; stroke-dasharray: 9.6,2.4,1.5,2.4; stroke-dashoffset: 0; stroke: #00a6b6; stroke-width: 1.5"/>
    </g>
    <g id="text_17">
     <!-- Uncorrected J=1.8 -->
     <g transform="translate(173.506 59.55506) scale(0.2 -0.2)">
      <defs>
       <path id="DejaVuSans-55" d="M 556 4666 
L 1191 4666 
L 1191 1831 
Q 1191 1081 1462 751 
Q 1734 422 2344 422 
Q 2950 422 3222 751 
Q 3494 1081 3494 1831 
L 3494 4666 
L 4128 4666 
L 4128 1753 
Q 4128 841 3676 375 
Q 3225 -91 2344 -91 
Q 1459 -91 1007 375 
Q 556 841 556 1753 
L 556 4666 
z
" transform="scale(0.015625)"/>
       <path id="DejaVuSans-6e" d="M 3513 2113 
L 3513 0 
L 2938 0 
L 2938 2094 
Q 2938 2591 2744 2837 
Q 2550 3084 2163 3084 
Q 1697 3084 1428 2787 
Q 1159 2491 1159 1978 
L 1159 0 
L 581 0 
L 581 3500 
L 1159 3500 
L 1159 2956 
Q 1366 3272 1645 3428 
Q 1925 3584 2291 3584 
Q 2894 3584 3203 3211 
Q 3513 2838 3513 2113 
z
" transform="scale(0.015625)"/>
       <path id="DejaVuSans-63" d="M 3122 3366 
L 3122 2828 
Q 2878 2963 2633 3030 
Q 2388 3097 2138 3097 
Q 1578 3097 1268 2742 
Q 959 2388 959 1747 
Q 959 1106 1268 751 
Q 1578 397 2138 397 
Q 2388 397 2633 464 
Q 2878 531 3122 666 
L 3122 134 
Q 2881 22 2623 -34 
Q 2366 -91 2075 -91 
Q 1284 -91 818 406 
Q 353 903 353 1747 
Q 353 2603 823 3093 
Q 1294 3584 2113 3584 
Q 2378 3584 2631 3529 
Q 2884 3475 3122 3366 
z
" transform="scale(0.015625)"/>
       <path id="DejaVuSans-6f" d="M 1959 3097 
Q 1497 3097 1228 2736 
Q 959 2375 959 1747 
Q 959 1119 1226 758 
Q 1494 397 1959 397 
Q 2419 397 2687 759 
Q 2956 1122 2956 1747 
Q 2956 2369 2687 2733 
Q 2419 3097 1959 3097 
z
M 1959 3584 
Q 2709 3584 3137 3096 
Q 3566 2609 3566 1747 
Q 3566 888 3137 398 
Q 2709 -91 1959 -91 
Q 1206 -91 779 398 
Q 353 888 353 1747 
Q 353 2609 779 3096 
Q 1206 3584 1959 3584 
z
" transform="scale(0.015625)"/>
       <path id="DejaVuSans-72" d="M 2631 2963 
Q 2534 3019 2420 3045 
Q 2306 3072 2169 3072 
Q 1681 3072 1420 2755 
Q 1159 2438 1159 1844 
L 1159 0 
L 581 0 
L 581 3500 
L 1159 3500 
L 1159 2956 
Q 1341 3275 1631 3429 
Q 1922 3584 2338 3584 
Q 2397 3584 2469 3576 
Q 2541 3569 2628 3553 
L 2631 2963 
z
" transform="scale(0.015625)"/>
       <path id="DejaVuSans-65" d="M 3597 1894 
L 3597 1613 
L 953 1613 
Q 991 1019 1311 708 
Q 1631 397 2203 397 
Q 2534 397 2845 478 
Q 3156 559 3463 722 
L 3463 178 
Q 3153 47 2828 -22 
Q 2503 -91 2169 -91 
Q 1331 -91 842 396 
Q 353 884 353 1716 
Q 353 2575 817 3079 
Q 1281 3584 2069 3584 
Q 2775 3584 3186 3129 
Q 3597 2675 3597 1894 
z
M 3022 2063 
Q 3016 2534 2758 2815 
Q 2500 3097 2075 3097 
Q 1594 3097 1305 2825 
Q 1016 2553 972 2059 
L 3022 2063 
z
" transform="scale(0.015625)"/>
       <path id="DejaVuSans-74" d="M 1172 4494 
L 1172 3500 
L 2356 3500 
L 2356 3053 
L 1172 3053 
L 1172 1153 
Q 1172 725 1289 603 
Q 1406 481 1766 481 
L 2356 481 
L 2356 0 
L 1766 0 
Q 1100 0 847 248 
Q 594 497 594 1153 
L 594 3053 
L 172 3053 
L 172 3500 
L 594 3500 
L 594 4494 
L 1172 4494 
z
" transform="scale(0.015625)"/>
       <path id="DejaVuSans-64" d="M 2906 2969 
L 2906 4863 
L 3481 4863 
L 3481 0 
L 2906 0 
L 2906 525 
Q 2725 213 2448 61 
Q 2172 -91 1784 -91 
Q 1150 -91 751 415 
Q 353 922 353 1747 
Q 353 2572 751 3078 
Q 1150 3584 1784 3584 
Q 2172 3584 2448 3432 
Q 2725 3281 2906 2969 
z
M 947 1747 
Q 947 1113 1208 752 
Q 1469 391 1925 391 
Q 2381 391 2643 752 
Q 2906 1113 2906 1747 
Q 2906 2381 2643 2742 
Q 2381 3103 1925 3103 
Q 1469 3103 1208 2742 
Q 947 2381 947 1747 
z
" transform="scale(0.015625)"/>
       <path id="DejaVuSans-4a" d="M 628 4666 
L 1259 4666 
L 1259 325 
Q 1259 -519 939 -900 
Q 619 -1281 -91 -1281 
L -331 -1281 
L -331 -750 
L -134 -750 
Q 284 -750 456 -515 
Q 628 -281 628 325 
L 628 4666 
z
" transform="scale(0.015625)"/>
       <path id="DejaVuSans-3d" d="M 678 2906 
L 4684 2906 
L 4684 2381 
L 678 2381 
L 678 2906 
z
M 678 1631 
L 4684 1631 
L 4684 1100 
L 678 1100 
L 678 1631 
z
" transform="scale(0.015625)"/>
      </defs>
      <use xlink:href="#DejaVuSans-55"/>
      <use xlink:href="#DejaVuSans-6e" x="73.193359"/>
      <use xlink:href="#DejaVuSans-63" x="136.572266"/>
      <use xlink:href="#DejaVuSans-6f" x="191.552734"/>
      <use xlink:href="#DejaVuSans-72" x="252.734375"/>
      <use xlink:href="#DejaVuSans-72" x="292.097656"/>
      <use xlink:href="#DejaVuSans-65" x="330.960938"/>
      <use xlink:href="#DejaVuSans-63" x="392.484375"/>
      <use xlink:href="#DejaVuSans-74" x="447.464844"/>
      <use xlink:href="#DejaVuSans-65" x="486.673828"/>
      <use xlink:href="#DejaVuSans-64" x="548.197266"/>
      <use xlink:href="#DejaVuSans-20" x="611.673828"/>
      <use xlink:href="#DejaVuSans-4a" x="643.460938"/>
      <use xlink:href="#DejaVuSans-3d" x="672.953125"/>
      <use xlink:href="#DejaVuSans-31" x="756.742188"/>
      <use xlink:href="#DejaVuSans-2e" x="820.365234"/>
      <use xlink:href="#DejaVuSans-38" x="852.152344"/>
     </g>
    </g>
    <g id="line2d_34">
     <path d="M 117.506 81.91131 
L 137.506 81.91131 
L 157.506 81.91131 
" style="fill: none; stroke-dasharray: 9.6,2.4,1.5,2.4; stroke-dashoffset: 0; stroke: #a50034; stroke-width: 1.5"/>
    </g>
    <g id="text_18">
     <!-- Corrected J=1.8 -->
     <g transform="translate(173.506 88.91131) scale(0.2 -0.2)">
      <defs>
       <path id="DejaVuSans-43" d="M 4122 4306 
L 4122 3641 
Q 3803 3938 3442 4084 
Q 3081 4231 2675 4231 
Q 1875 4231 1450 3742 
Q 1025 3253 1025 2328 
Q 1025 1406 1450 917 
Q 1875 428 2675 428 
Q 3081 428 3442 575 
Q 3803 722 4122 1019 
L 4122 359 
Q 3791 134 3420 21 
Q 3050 -91 2638 -91 
Q 1578 -91 968 557 
Q 359 1206 359 2328 
Q 359 3453 968 4101 
Q 1578 4750 2638 4750 
Q 3056 4750 3426 4639 
Q 3797 4528 4122 4306 
z
" transform="scale(0.015625)"/>
      </defs>
      <use xlink:href="#DejaVuSans-43"/>
      <use xlink:href="#DejaVuSans-6f" x="69.824219"/>
      <use xlink:href="#DejaVuSans-72" x="131.005859"/>
      <use xlink:href="#DejaVuSans-72" x="170.369141"/>
      <use xlink:href="#DejaVuSans-65" x="209.232422"/>
      <use xlink:href="#DejaVuSans-63" x="270.755859"/>
      <use xlink:href="#DejaVuSans-74" x="325.736328"/>
      <use xlink:href="#DejaVuSans-65" x="364.945312"/>
      <use xlink:href="#DejaVuSans-64" x="426.46875"/>
      <use xlink:href="#DejaVuSans-20" x="489.945312"/>
      <use xlink:href="#DejaVuSans-4a" x="521.732422"/>
      <use xlink:href="#DejaVuSans-3d" x="551.224609"/>
      <use xlink:href="#DejaVuSans-31" x="635.013672"/>
      <use xlink:href="#DejaVuSans-2e" x="698.636719"/>
      <use xlink:href="#DejaVuSans-38" x="730.423828"/>
     </g>
    </g>
    <g id="line2d_35">
     <path d="M 117.506 111.26756 
L 137.506 111.26756 
L 157.506 111.26756 
" style="fill: none; stroke-dasharray: 9.6,2.4,1.5,2.4; stroke-dashoffset: 0; stroke: #ef60a3; stroke-width: 1.5"/>
    </g>
    <g id="text_19">
     <!-- Uncorrected J=3.5 -->
     <g transform="translate(173.506 118.26756) scale(0.2 -0.2)">
      <use xlink:href="#DejaVuSans-55"/>
      <use xlink:href="#DejaVuSans-6e" x="73.193359"/>
      <use xlink:href="#DejaVuSans-63" x="136.572266"/>
      <use xlink:href="#DejaVuSans-6f" x="191.552734"/>
      <use xlink:href="#DejaVuSans-72" x="252.734375"/>
      <use xlink:href="#DejaVuSans-72" x="292.097656"/>
      <use xlink:href="#DejaVuSans-65" x="330.960938"/>
      <use xlink:href="#DejaVuSans-63" x="392.484375"/>
      <use xlink:href="#DejaVuSans-74" x="447.464844"/>
      <use xlink:href="#DejaVuSans-65" x="486.673828"/>
      <use xlink:href="#DejaVuSans-64" x="548.197266"/>
      <use xlink:href="#DejaVuSans-20" x="611.673828"/>
      <use xlink:href="#DejaVuSans-4a" x="643.460938"/>
      <use xlink:href="#DejaVuSans-3d" x="672.953125"/>
      <use xlink:href="#DejaVuSans-33" x="756.742188"/>
      <use xlink:href="#DejaVuSans-2e" x="820.365234"/>
      <use xlink:href="#DejaVuSans-35" x="852.152344"/>
     </g>
    </g>
    <g id="line2d_36">
     <path d="M 117.506 140.62381 
L 137.506 140.62381 
L 157.506 140.62381 
" style="fill: none; stroke-dasharray: 9.6,2.4,1.5,2.4; stroke-dashoffset: 0; stroke: #6cc24a; stroke-width: 1.5"/>
    </g>
    <g id="text_20">
     <!-- Corrected J=3.5 -->
     <g transform="translate(173.506 147.62381) scale(0.2 -0.2)">
      <use xlink:href="#DejaVuSans-43"/>
      <use xlink:href="#DejaVuSans-6f" x="69.824219"/>
      <use xlink:href="#DejaVuSans-72" x="131.005859"/>
      <use xlink:href="#DejaVuSans-72" x="170.369141"/>
      <use xlink:href="#DejaVuSans-65" x="209.232422"/>
      <use xlink:href="#DejaVuSans-63" x="270.755859"/>
      <use xlink:href="#DejaVuSans-74" x="325.736328"/>
      <use xlink:href="#DejaVuSans-65" x="364.945312"/>
      <use xlink:href="#DejaVuSans-64" x="426.46875"/>
      <use xlink:href="#DejaVuSans-20" x="489.945312"/>
      <use xlink:href="#DejaVuSans-4a" x="521.732422"/>
      <use xlink:href="#DejaVuSans-3d" x="551.224609"/>
      <use xlink:href="#DejaVuSans-33" x="635.013672"/>
      <use xlink:href="#DejaVuSans-2e" x="698.636719"/>
      <use xlink:href="#DejaVuSans-35" x="730.423828"/>
     </g>
    </g>
   </g>
  </g>
 </g>
 <defs>
  <clipPath id="p788985726e">
   <rect x="99.506" y="26.358185" width="426.229" height="330.705815"/>
  </clipPath>
 </defs>
</svg>
