<?xml version="1.0" encoding="utf-8" standalone="no"?>
<!DOCTYPE svg PUBLIC "-//W3C//DTD SVG 1.1//EN"
  "http://www.w3.org/Graphics/SVG/1.1/DTD/svg11.dtd">
<svg xmlns:xlink="http://www.w3.org/1999/xlink" width="720pt" height="432pt" viewBox="0 0 720 432" xmlns="http://www.w3.org/2000/svg" version="1.1">
 <metadata>
  <rdf:RDF xmlns:dc="http://purl.org/dc/elements/1.1/" xmlns:cc="http://creativecommons.org/ns#" xmlns:rdf="http://www.w3.org/1999/02/22-rdf-syntax-ns#">
   <cc:Work>
    <dc:type rdf:resource="http://purl.org/dc/dcmitype/StillImage"/>
    <dc:date>2024-04-02T12:18:27.497467</dc:date>
    <dc:format>image/svg+xml</dc:format>
    <dc:creator>
     <cc:Agent>
      <dc:title>Matplotlib v3.8.0, https://matplotlib.org/</dc:title>
     </cc:Agent>
    </dc:creator>
   </cc:Work>
  </rdf:RDF>
 </metadata>
 <defs>
  <style type="text/css">*{stroke-linejoin: round; stroke-linecap: butt}</style>
 </defs>
 <g id="figure_1">
  <g id="patch_1">
   <path d="M 0 432 
L 720 432 
L 720 0 
L 0 0 
z
" style="fill: #ffffff"/>
  </g>
  <g id="axes_1">
   <g id="patch_2">
    <path d="M 77.582 373.408 
L 691.875 373.408 
L 691.875 18.798185 
L 77.582 18.798185 
z
" style="fill: #ffffff"/>
   </g>
   <g id="PathCollection_1">
    <defs>
     <path id="mf659354e52" d="M 0 3 
C 0.795609 3 1.55874 2.683901 2.12132 2.12132 
C 2.683901 1.55874 3 0.795609 3 0 
C 3 -0.795609 2.683901 -1.55874 2.12132 -2.12132 
C 1.55874 -2.683901 0.795609 -3 0 -3 
C -0.795609 -3 -1.55874 -2.683901 -2.12132 -2.12132 
C -2.683901 -1.55874 -3 -0.795609 -3 0 
C -3 0.795609 -2.683901 1.55874 -2.12132 2.12132 
C -1.55874 2.683901 -0.795609 3 0 3 
z
" style="stroke: #00a6b6"/>
    </defs>
    <g clip-path="url(#pec580f7dcf)">
     <use xlink:href="#mf659354e52" x="124.672234" y="345.766332" style="fill: #00a6b6; stroke: #00a6b6"/>
     <use xlink:href="#mf659354e52" x="539.158541" y="323.8482" style="fill: #00a6b6; stroke: #00a6b6"/>
     <use xlink:href="#mf659354e52" x="637.902144" y="256.29176" style="fill: #00a6b6; stroke: #00a6b6"/>
     <use xlink:href="#mf659354e52" x="673.811363" y="215.552524" style="fill: #00a6b6; stroke: #00a6b6"/>
    </g>
   </g>
   <g id="PathCollection_2">
    <defs>
     <path id="me3d0188b6d" d="M 0 3 
C 0.795609 3 1.55874 2.683901 2.12132 2.12132 
C 2.683901 1.55874 3 0.795609 3 0 
C 3 -0.795609 2.683901 -1.55874 2.12132 -2.12132 
C 1.55874 -2.683901 0.795609 -3 0 -3 
C -0.795609 -3 -1.55874 -2.683901 -2.12132 -2.12132 
C -2.683901 -1.55874 -3 -0.795609 -3 0 
C -3 0.795609 -2.683901 1.55874 -2.12132 2.12132 
C -1.55874 2.683901 -0.795609 3 0 3 
z
" style="stroke: #a50034"/>
    </defs>
    <g clip-path="url(#pec580f7dcf)">
     <use xlink:href="#me3d0188b6d" x="119.813485" y="346.064887" style="fill: #a50034; stroke: #a50034"/>
     <use xlink:href="#me3d0188b6d" x="532.118386" y="321.576766" style="fill: #a50034; stroke: #a50034"/>
     <use xlink:href="#me3d0188b6d" x="623.227439" y="254.250803" style="fill: #a50034; stroke: #a50034"/>
     <use xlink:href="#me3d0188b6d" x="651.221546" y="214.336246" style="fill: #a50034; stroke: #a50034"/>
    </g>
   </g>
   <g id="PathCollection_3">
    <defs>
     <path id="m1b48852120" d="M 0 3 
C 0.795609 3 1.55874 2.683901 2.12132 2.12132 
C 2.683901 1.55874 3 0.795609 3 0 
C 3 -0.795609 2.683901 -1.55874 2.12132 -2.12132 
C 1.55874 -2.683901 0.795609 -3 0 -3 
C -0.795609 -3 -1.55874 -2.683901 -2.12132 -2.12132 
C -2.683901 -1.55874 -3 -0.795609 -3 0 
C -3 0.795609 -2.683901 1.55874 -2.12132 2.12132 
C -1.55874 2.683901 -0.795609 3 0 3 
z
" style="stroke: #ef60a3"/>
    </defs>
    <g clip-path="url(#pec580f7dcf)">
     <use xlink:href="#m1b48852120" x="122.883163" y="345.766332" style="fill: #ef60a3; stroke: #ef60a3"/>
     <use xlink:href="#m1b48852120" x="299.963812" y="354.08822" style="fill: #ef60a3; stroke: #ef60a3"/>
     <use xlink:href="#m1b48852120" x="526.245507" y="323.8482" style="fill: #ef60a3; stroke: #ef60a3"/>
     <use xlink:href="#m1b48852120" x="616.164906" y="256.29176" style="fill: #ef60a3; stroke: #ef60a3"/>
     <use xlink:href="#m1b48852120" x="646.823893" y="215.552524" style="fill: #ef60a3; stroke: #ef60a3"/>
    </g>
   </g>
   <g id="PathCollection_4">
    <defs>
     <path id="m1137f3b2bc" d="M 0 3 
C 0.795609 3 1.55874 2.683901 2.12132 2.12132 
C 2.683901 1.55874 3 0.795609 3 0 
C 3 -0.795609 2.683901 -1.55874 2.12132 -2.12132 
C 1.55874 -2.683901 0.795609 -3 0 -3 
C -0.795609 -3 -1.55874 -2.683901 -2.12132 -2.12132 
C -2.683901 -1.55874 -3 -0.795609 -3 0 
C -3 0.795609 -2.683901 1.55874 -2.12132 2.12132 
C -1.55874 2.683901 -0.795609 3 0 3 
z
" style="stroke: #6cc24a"/>
    </defs>
    <g clip-path="url(#pec580f7dcf)">
     <use xlink:href="#m1137f3b2bc" x="116.056311" y="346.080812" style="fill: #6cc24a; stroke: #6cc24a"/>
     <use xlink:href="#m1137f3b2bc" x="294.178606" y="354.082311" style="fill: #6cc24a; stroke: #6cc24a"/>
     <use xlink:href="#m1137f3b2bc" x="522.331935" y="321.57415" style="fill: #6cc24a; stroke: #6cc24a"/>
     <use xlink:href="#m1137f3b2bc" x="607.334397" y="254.134862" style="fill: #6cc24a; stroke: #6cc24a"/>
     <use xlink:href="#m1137f3b2bc" x="631.412887" y="213.960427" style="fill: #6cc24a; stroke: #6cc24a"/>
    </g>
   </g>
   <g id="matplotlib.axis_1">
    <g id="xtick_1">
     <g id="line2d_1">
      <path d="M 77.582 373.408 
L 77.582 18.798185 
" clip-path="url(#pec580f7dcf)" style="fill: none; stroke: #b0b0b0; stroke-width: 0.8; stroke-linecap: square"/>
     </g>
     <g id="line2d_2">
      <defs>
       <path id="m3482e2a597" d="M 0 0 
L 0 3.5 
" style="stroke: #000000; stroke-width: 0.8"/>
      </defs>
      <g>
       <use xlink:href="#m3482e2a597" x="77.582" y="373.408" style="stroke: #000000; stroke-width: 0.8"/>
      </g>
     </g>
     <g id="text_1">
      <!-- −0.5 -->
      <g transform="translate(59.369891 391.805656) scale(0.15 -0.15)">
       <defs>
        <path id="DejaVuSans-2212" d="M 678 2272 
L 4684 2272 
L 4684 1741 
L 678 1741 
L 678 2272 
z
" transform="scale(0.015625)"/>
        <path id="DejaVuSans-30" d="M 2034 4250 
Q 1547 4250 1301 3770 
Q 1056 3291 1056 2328 
Q 1056 1369 1301 889 
Q 1547 409 2034 409 
Q 2525 409 2770 889 
Q 3016 1369 3016 2328 
Q 3016 3291 2770 3770 
Q 2525 4250 2034 4250 
z
M 2034 4750 
Q 2819 4750 3233 4129 
Q 3647 3509 3647 2328 
Q 3647 1150 3233 529 
Q 2819 -91 2034 -91 
Q 1250 -91 836 529 
Q 422 1150 422 2328 
Q 422 3509 836 4129 
Q 1250 4750 2034 4750 
z
" transform="scale(0.015625)"/>
        <path id="DejaVuSans-2e" d="M 684 794 
L 1344 794 
L 1344 0 
L 684 0 
L 684 794 
z
" transform="scale(0.015625)"/>
        <path id="DejaVuSans-35" d="M 691 4666 
L 3169 4666 
L 3169 4134 
L 1269 4134 
L 1269 2991 
Q 1406 3038 1543 3061 
Q 1681 3084 1819 3084 
Q 2600 3084 3056 2656 
Q 3513 2228 3513 1497 
Q 3513 744 3044 326 
Q 2575 -91 1722 -91 
Q 1428 -91 1123 -41 
Q 819 9 494 109 
L 494 744 
Q 775 591 1075 516 
Q 1375 441 1709 441 
Q 2250 441 2565 725 
Q 2881 1009 2881 1497 
Q 2881 1984 2565 2268 
Q 2250 2553 1709 2553 
Q 1456 2553 1204 2497 
Q 953 2441 691 2322 
L 691 4666 
z
" transform="scale(0.015625)"/>
       </defs>
       <use xlink:href="#DejaVuSans-2212"/>
       <use xlink:href="#DejaVuSans-30" x="83.789062"/>
       <use xlink:href="#DejaVuSans-2e" x="147.412109"/>
       <use xlink:href="#DejaVuSans-35" x="179.199219"/>
      </g>
     </g>
    </g>
    <g id="xtick_2">
     <g id="line2d_3">
      <path d="M 139.0113 373.408 
L 139.0113 18.798185 
" clip-path="url(#pec580f7dcf)" style="fill: none; stroke: #b0b0b0; stroke-width: 0.8; stroke-linecap: square"/>
     </g>
     <g id="line2d_4">
      <g>
       <use xlink:href="#m3482e2a597" x="139.0113" y="373.408" style="stroke: #000000; stroke-width: 0.8"/>
      </g>
     </g>
     <g id="text_2">
      <!-- −0.3 -->
      <g transform="translate(120.799191 391.805656) scale(0.15 -0.15)">
       <defs>
        <path id="DejaVuSans-33" d="M 2597 2516 
Q 3050 2419 3304 2112 
Q 3559 1806 3559 1356 
Q 3559 666 3084 287 
Q 2609 -91 1734 -91 
Q 1441 -91 1130 -33 
Q 819 25 488 141 
L 488 750 
Q 750 597 1062 519 
Q 1375 441 1716 441 
Q 2309 441 2620 675 
Q 2931 909 2931 1356 
Q 2931 1769 2642 2001 
Q 2353 2234 1838 2234 
L 1294 2234 
L 1294 2753 
L 1863 2753 
Q 2328 2753 2575 2939 
Q 2822 3125 2822 3475 
Q 2822 3834 2567 4026 
Q 2313 4219 1838 4219 
Q 1578 4219 1281 4162 
Q 984 4106 628 3988 
L 628 4550 
Q 988 4650 1302 4700 
Q 1616 4750 1894 4750 
Q 2613 4750 3031 4423 
Q 3450 4097 3450 3541 
Q 3450 3153 3228 2886 
Q 3006 2619 2597 2516 
z
" transform="scale(0.015625)"/>
       </defs>
       <use xlink:href="#DejaVuSans-2212"/>
       <use xlink:href="#DejaVuSans-30" x="83.789062"/>
       <use xlink:href="#DejaVuSans-2e" x="147.412109"/>
       <use xlink:href="#DejaVuSans-33" x="179.199219"/>
      </g>
     </g>
    </g>
    <g id="xtick_3">
     <g id="line2d_5">
      <path d="M 200.4406 373.408 
L 200.4406 18.798185 
" clip-path="url(#pec580f7dcf)" style="fill: none; stroke: #b0b0b0; stroke-width: 0.8; stroke-linecap: square"/>
     </g>
     <g id="line2d_6">
      <g>
       <use xlink:href="#m3482e2a597" x="200.4406" y="373.408" style="stroke: #000000; stroke-width: 0.8"/>
      </g>
     </g>
     <g id="text_3">
      <!-- −0.1 -->
      <g transform="translate(182.228491 391.805656) scale(0.15 -0.15)">
       <defs>
        <path id="DejaVuSans-31" d="M 794 531 
L 1825 531 
L 1825 4091 
L 703 3866 
L 703 4441 
L 1819 4666 
L 2450 4666 
L 2450 531 
L 3481 531 
L 3481 0 
L 794 0 
L 794 531 
z
" transform="scale(0.015625)"/>
       </defs>
       <use xlink:href="#DejaVuSans-2212"/>
       <use xlink:href="#DejaVuSans-30" x="83.789062"/>
       <use xlink:href="#DejaVuSans-2e" x="147.412109"/>
       <use xlink:href="#DejaVuSans-31" x="179.199219"/>
      </g>
     </g>
    </g>
    <g id="xtick_4">
     <g id="line2d_7">
      <path d="M 261.8699 373.408 
L 261.8699 18.798185 
" clip-path="url(#pec580f7dcf)" style="fill: none; stroke: #b0b0b0; stroke-width: 0.8; stroke-linecap: square"/>
     </g>
     <g id="line2d_8">
      <g>
       <use xlink:href="#m3482e2a597" x="261.8699" y="373.408" style="stroke: #000000; stroke-width: 0.8"/>
      </g>
     </g>
     <g id="text_4">
      <!-- 0.1 -->
      <g transform="translate(249.942556 391.805656) scale(0.15 -0.15)">
       <use xlink:href="#DejaVuSans-30"/>
       <use xlink:href="#DejaVuSans-2e" x="63.623047"/>
       <use xlink:href="#DejaVuSans-31" x="95.410156"/>
      </g>
     </g>
    </g>
    <g id="xtick_5">
     <g id="line2d_9">
      <path d="M 323.2992 373.408 
L 323.2992 18.798185 
" clip-path="url(#pec580f7dcf)" style="fill: none; stroke: #b0b0b0; stroke-width: 0.8; stroke-linecap: square"/>
     </g>
     <g id="line2d_10">
      <g>
       <use xlink:href="#m3482e2a597" x="323.2992" y="373.408" style="stroke: #000000; stroke-width: 0.8"/>
      </g>
     </g>
     <g id="text_5">
      <!-- 0.3 -->
      <g transform="translate(311.371856 391.805656) scale(0.15 -0.15)">
       <use xlink:href="#DejaVuSans-30"/>
       <use xlink:href="#DejaVuSans-2e" x="63.623047"/>
       <use xlink:href="#DejaVuSans-33" x="95.410156"/>
      </g>
     </g>
    </g>
    <g id="xtick_6">
     <g id="line2d_11">
      <path d="M 384.7285 373.408 
L 384.7285 18.798185 
" clip-path="url(#pec580f7dcf)" style="fill: none; stroke: #b0b0b0; stroke-width: 0.8; stroke-linecap: square"/>
     </g>
     <g id="line2d_12">
      <g>
       <use xlink:href="#m3482e2a597" x="384.7285" y="373.408" style="stroke: #000000; stroke-width: 0.8"/>
      </g>
     </g>
     <g id="text_6">
      <!-- 0.5 -->
      <g transform="translate(372.801156 391.805656) scale(0.15 -0.15)">
       <use xlink:href="#DejaVuSans-30"/>
       <use xlink:href="#DejaVuSans-2e" x="63.623047"/>
       <use xlink:href="#DejaVuSans-35" x="95.410156"/>
      </g>
     </g>
    </g>
    <g id="xtick_7">
     <g id="line2d_13">
      <path d="M 446.1578 373.408 
L 446.1578 18.798185 
" clip-path="url(#pec580f7dcf)" style="fill: none; stroke: #b0b0b0; stroke-width: 0.8; stroke-linecap: square"/>
     </g>
     <g id="line2d_14">
      <g>
       <use xlink:href="#m3482e2a597" x="446.1578" y="373.408" style="stroke: #000000; stroke-width: 0.8"/>
      </g>
     </g>
     <g id="text_7">
      <!-- 0.7 -->
      <g transform="translate(434.230456 391.805656) scale(0.15 -0.15)">
       <defs>
        <path id="DejaVuSans-37" d="M 525 4666 
L 3525 4666 
L 3525 4397 
L 1831 0 
L 1172 0 
L 2766 4134 
L 525 4134 
L 525 4666 
z
" transform="scale(0.015625)"/>
       </defs>
       <use xlink:href="#DejaVuSans-30"/>
       <use xlink:href="#DejaVuSans-2e" x="63.623047"/>
       <use xlink:href="#DejaVuSans-37" x="95.410156"/>
      </g>
     </g>
    </g>
    <g id="xtick_8">
     <g id="line2d_15">
      <path d="M 507.5871 373.408 
L 507.5871 18.798185 
" clip-path="url(#pec580f7dcf)" style="fill: none; stroke: #b0b0b0; stroke-width: 0.8; stroke-linecap: square"/>
     </g>
     <g id="line2d_16">
      <g>
       <use xlink:href="#m3482e2a597" x="507.5871" y="373.408" style="stroke: #000000; stroke-width: 0.8"/>
      </g>
     </g>
     <g id="text_8">
      <!-- 0.9 -->
      <g transform="translate(495.659756 391.805656) scale(0.15 -0.15)">
       <defs>
        <path id="DejaVuSans-39" d="M 703 97 
L 703 672 
Q 941 559 1184 500 
Q 1428 441 1663 441 
Q 2288 441 2617 861 
Q 2947 1281 2994 2138 
Q 2813 1869 2534 1725 
Q 2256 1581 1919 1581 
Q 1219 1581 811 2004 
Q 403 2428 403 3163 
Q 403 3881 828 4315 
Q 1253 4750 1959 4750 
Q 2769 4750 3195 4129 
Q 3622 3509 3622 2328 
Q 3622 1225 3098 567 
Q 2575 -91 1691 -91 
Q 1453 -91 1209 -44 
Q 966 3 703 97 
z
M 1959 2075 
Q 2384 2075 2632 2365 
Q 2881 2656 2881 3163 
Q 2881 3666 2632 3958 
Q 2384 4250 1959 4250 
Q 1534 4250 1286 3958 
Q 1038 3666 1038 3163 
Q 1038 2656 1286 2365 
Q 1534 2075 1959 2075 
z
" transform="scale(0.015625)"/>
       </defs>
       <use xlink:href="#DejaVuSans-30"/>
       <use xlink:href="#DejaVuSans-2e" x="63.623047"/>
       <use xlink:href="#DejaVuSans-39" x="95.410156"/>
      </g>
     </g>
    </g>
    <g id="xtick_9">
     <g id="line2d_17">
      <path d="M 569.0164 373.408 
L 569.0164 18.798185 
" clip-path="url(#pec580f7dcf)" style="fill: none; stroke: #b0b0b0; stroke-width: 0.8; stroke-linecap: square"/>
     </g>
     <g id="line2d_18">
      <g>
       <use xlink:href="#m3482e2a597" x="569.0164" y="373.408" style="stroke: #000000; stroke-width: 0.8"/>
      </g>
     </g>
     <g id="text_9">
      <!-- 1.1 -->
      <g transform="translate(557.089056 391.805656) scale(0.15 -0.15)">
       <use xlink:href="#DejaVuSans-31"/>
       <use xlink:href="#DejaVuSans-2e" x="63.623047"/>
       <use xlink:href="#DejaVuSans-31" x="95.410156"/>
      </g>
     </g>
    </g>
    <g id="xtick_10">
     <g id="line2d_19">
      <path d="M 630.4457 373.408 
L 630.4457 18.798185 
" clip-path="url(#pec580f7dcf)" style="fill: none; stroke: #b0b0b0; stroke-width: 0.8; stroke-linecap: square"/>
     </g>
     <g id="line2d_20">
      <g>
       <use xlink:href="#m3482e2a597" x="630.4457" y="373.408" style="stroke: #000000; stroke-width: 0.8"/>
      </g>
     </g>
     <g id="text_10">
      <!-- 1.3 -->
      <g transform="translate(618.518356 391.805656) scale(0.15 -0.15)">
       <use xlink:href="#DejaVuSans-31"/>
       <use xlink:href="#DejaVuSans-2e" x="63.623047"/>
       <use xlink:href="#DejaVuSans-33" x="95.410156"/>
      </g>
     </g>
    </g>
    <g id="xtick_11">
     <g id="line2d_21">
      <path d="M 691.875 373.408 
L 691.875 18.798185 
" clip-path="url(#pec580f7dcf)" style="fill: none; stroke: #b0b0b0; stroke-width: 0.8; stroke-linecap: square"/>
     </g>
     <g id="line2d_22">
      <g>
       <use xlink:href="#m3482e2a597" x="691.875" y="373.408" style="stroke: #000000; stroke-width: 0.8"/>
      </g>
     </g>
     <g id="text_11">
      <!-- 1.5 -->
      <g transform="translate(679.947656 391.805656) scale(0.15 -0.15)">
       <use xlink:href="#DejaVuSans-31"/>
       <use xlink:href="#DejaVuSans-2e" x="63.623047"/>
       <use xlink:href="#DejaVuSans-35" x="95.410156"/>
      </g>
     </g>
    </g>
    <g id="text_12">
     <!-- $C_L$ [-] -->
     <g transform="translate(365.3785 410.322844) scale(0.15 -0.15)">
      <defs>
       <path id="DejaVuSans-Oblique-43" d="M 4447 4306 
L 4319 3641 
Q 4019 3944 3683 4091 
Q 3347 4238 2956 4238 
Q 2422 4238 2017 3981 
Q 1613 3725 1319 3200 
Q 1131 2863 1032 2486 
Q 934 2109 934 1728 
Q 934 1091 1264 756 
Q 1594 422 2222 422 
Q 2656 422 3056 561 
Q 3456 700 3834 978 
L 3688 231 
Q 3316 72 2936 -9 
Q 2556 -91 2175 -91 
Q 1278 -91 773 396 
Q 269 884 269 1753 
Q 269 2309 461 2846 
Q 653 3384 1013 3828 
Q 1394 4300 1883 4525 
Q 2372 4750 3022 4750 
Q 3422 4750 3780 4639 
Q 4138 4528 4447 4306 
z
" transform="scale(0.015625)"/>
       <path id="DejaVuSans-Oblique-4c" d="M 1075 4666 
L 1709 4666 
L 909 525 
L 3181 525 
L 3078 0 
L 172 0 
L 1075 4666 
z
" transform="scale(0.015625)"/>
       <path id="DejaVuSans-20" transform="scale(0.015625)"/>
       <path id="DejaVuSans-5b" d="M 550 4863 
L 1875 4863 
L 1875 4416 
L 1125 4416 
L 1125 -397 
L 1875 -397 
L 1875 -844 
L 550 -844 
L 550 4863 
z
" transform="scale(0.015625)"/>
       <path id="DejaVuSans-2d" d="M 313 2009 
L 1997 2009 
L 1997 1497 
L 313 1497 
L 313 2009 
z
" transform="scale(0.015625)"/>
       <path id="DejaVuSans-5d" d="M 1947 4863 
L 1947 -844 
L 622 -844 
L 622 -397 
L 1369 -397 
L 1369 4416 
L 622 4416 
L 622 4863 
L 1947 4863 
z
" transform="scale(0.015625)"/>
      </defs>
      <use xlink:href="#DejaVuSans-Oblique-43" transform="translate(0 0.015625)"/>
      <use xlink:href="#DejaVuSans-Oblique-4c" transform="translate(69.824219 -16.390625) scale(0.7)"/>
      <use xlink:href="#DejaVuSans-20" transform="translate(111.557617 0.015625)"/>
      <use xlink:href="#DejaVuSans-5b" transform="translate(143.344727 0.015625)"/>
      <use xlink:href="#DejaVuSans-2d" transform="translate(182.358398 0.015625)"/>
      <use xlink:href="#DejaVuSans-5d" transform="translate(218.442383 0.015625)"/>
     </g>
    </g>
   </g>
   <g id="matplotlib.axis_2">
    <g id="ytick_1">
     <g id="line2d_23">
      <path d="M 77.582 328.948412 
L 691.875 328.948412 
" clip-path="url(#pec580f7dcf)" style="fill: none; stroke: #b0b0b0; stroke-width: 0.8; stroke-linecap: square"/>
     </g>
     <g id="line2d_24">
      <defs>
       <path id="md40124c075" d="M 0 0 
L -3.5 0 
" style="stroke: #000000; stroke-width: 0.8"/>
      </defs>
      <g>
       <use xlink:href="#md40124c075" x="77.582" y="328.948412" style="stroke: #000000; stroke-width: 0.8"/>
      </g>
     </g>
     <g id="text_13">
      <!-- 0.05 -->
      <g transform="translate(37.183563 334.647241) scale(0.15 -0.15)">
       <use xlink:href="#DejaVuSans-30"/>
       <use xlink:href="#DejaVuSans-2e" x="63.623047"/>
       <use xlink:href="#DejaVuSans-30" x="95.410156"/>
       <use xlink:href="#DejaVuSans-35" x="159.033203"/>
      </g>
     </g>
    </g>
    <g id="ytick_2">
     <g id="line2d_25">
      <path d="M 77.582 277.818482 
L 691.875 277.818482 
" clip-path="url(#pec580f7dcf)" style="fill: none; stroke: #b0b0b0; stroke-width: 0.8; stroke-linecap: square"/>
     </g>
     <g id="line2d_26">
      <g>
       <use xlink:href="#md40124c075" x="77.582" y="277.818482" style="stroke: #000000; stroke-width: 0.8"/>
      </g>
     </g>
     <g id="text_14">
      <!-- 0.10 -->
      <g transform="translate(37.183563 283.51731) scale(0.15 -0.15)">
       <use xlink:href="#DejaVuSans-30"/>
       <use xlink:href="#DejaVuSans-2e" x="63.623047"/>
       <use xlink:href="#DejaVuSans-31" x="95.410156"/>
       <use xlink:href="#DejaVuSans-30" x="159.033203"/>
      </g>
     </g>
    </g>
    <g id="ytick_3">
     <g id="line2d_27">
      <path d="M 77.582 226.688551 
L 691.875 226.688551 
" clip-path="url(#pec580f7dcf)" style="fill: none; stroke: #b0b0b0; stroke-width: 0.8; stroke-linecap: square"/>
     </g>
     <g id="line2d_28">
      <g>
       <use xlink:href="#md40124c075" x="77.582" y="226.688551" style="stroke: #000000; stroke-width: 0.8"/>
      </g>
     </g>
     <g id="text_15">
      <!-- 0.15 -->
      <g transform="translate(37.183563 232.387379) scale(0.15 -0.15)">
       <use xlink:href="#DejaVuSans-30"/>
       <use xlink:href="#DejaVuSans-2e" x="63.623047"/>
       <use xlink:href="#DejaVuSans-31" x="95.410156"/>
       <use xlink:href="#DejaVuSans-35" x="159.033203"/>
      </g>
     </g>
    </g>
    <g id="ytick_4">
     <g id="line2d_29">
      <path d="M 77.582 175.55862 
L 691.875 175.55862 
" clip-path="url(#pec580f7dcf)" style="fill: none; stroke: #b0b0b0; stroke-width: 0.8; stroke-linecap: square"/>
     </g>
     <g id="line2d_30">
      <g>
       <use xlink:href="#md40124c075" x="77.582" y="175.55862" style="stroke: #000000; stroke-width: 0.8"/>
      </g>
     </g>
     <g id="text_16">
      <!-- 0.20 -->
      <g transform="translate(37.183563 181.257448) scale(0.15 -0.15)">
       <defs>
        <path id="DejaVuSans-32" d="M 1228 531 
L 3431 531 
L 3431 0 
L 469 0 
L 469 531 
Q 828 903 1448 1529 
Q 2069 2156 2228 2338 
Q 2531 2678 2651 2914 
Q 2772 3150 2772 3378 
Q 2772 3750 2511 3984 
Q 2250 4219 1831 4219 
Q 1534 4219 1204 4116 
Q 875 4013 500 3803 
L 500 4441 
Q 881 4594 1212 4672 
Q 1544 4750 1819 4750 
Q 2544 4750 2975 4387 
Q 3406 4025 3406 3419 
Q 3406 3131 3298 2873 
Q 3191 2616 2906 2266 
Q 2828 2175 2409 1742 
Q 1991 1309 1228 531 
z
" transform="scale(0.015625)"/>
       </defs>
       <use xlink:href="#DejaVuSans-30"/>
       <use xlink:href="#DejaVuSans-2e" x="63.623047"/>
       <use xlink:href="#DejaVuSans-32" x="95.410156"/>
       <use xlink:href="#DejaVuSans-30" x="159.033203"/>
      </g>
     </g>
    </g>
    <g id="ytick_5">
     <g id="line2d_31">
      <path d="M 77.582 124.428689 
L 691.875 124.428689 
" clip-path="url(#pec580f7dcf)" style="fill: none; stroke: #b0b0b0; stroke-width: 0.8; stroke-linecap: square"/>
     </g>
     <g id="line2d_32">
      <g>
       <use xlink:href="#md40124c075" x="77.582" y="124.428689" style="stroke: #000000; stroke-width: 0.8"/>
      </g>
     </g>
     <g id="text_17">
      <!-- 0.25 -->
      <g transform="translate(37.183563 130.127518) scale(0.15 -0.15)">
       <use xlink:href="#DejaVuSans-30"/>
       <use xlink:href="#DejaVuSans-2e" x="63.623047"/>
       <use xlink:href="#DejaVuSans-32" x="95.410156"/>
       <use xlink:href="#DejaVuSans-35" x="159.033203"/>
      </g>
     </g>
    </g>
    <g id="ytick_6">
     <g id="line2d_33">
      <path d="M 77.582 73.298759 
L 691.875 73.298759 
" clip-path="url(#pec580f7dcf)" style="fill: none; stroke: #b0b0b0; stroke-width: 0.8; stroke-linecap: square"/>
     </g>
     <g id="line2d_34">
      <g>
       <use xlink:href="#md40124c075" x="77.582" y="73.298759" style="stroke: #000000; stroke-width: 0.8"/>
      </g>
     </g>
     <g id="text_18">
      <!-- 0.30 -->
      <g transform="translate(37.183563 78.997587) scale(0.15 -0.15)">
       <use xlink:href="#DejaVuSans-30"/>
       <use xlink:href="#DejaVuSans-2e" x="63.623047"/>
       <use xlink:href="#DejaVuSans-33" x="95.410156"/>
       <use xlink:href="#DejaVuSans-30" x="159.033203"/>
      </g>
     </g>
    </g>
    <g id="ytick_7">
     <g id="line2d_35">
      <path d="M 77.582 22.168828 
L 691.875 22.168828 
" clip-path="url(#pec580f7dcf)" style="fill: none; stroke: #b0b0b0; stroke-width: 0.8; stroke-linecap: square"/>
     </g>
     <g id="line2d_36">
      <g>
       <use xlink:href="#md40124c075" x="77.582" y="22.168828" style="stroke: #000000; stroke-width: 0.8"/>
      </g>
     </g>
     <g id="text_19">
      <!-- 0.35 -->
      <g transform="translate(37.183563 27.867656) scale(0.15 -0.15)">
       <use xlink:href="#DejaVuSans-30"/>
       <use xlink:href="#DejaVuSans-2e" x="63.623047"/>
       <use xlink:href="#DejaVuSans-33" x="95.410156"/>
       <use xlink:href="#DejaVuSans-35" x="159.033203"/>
      </g>
     </g>
    </g>
    <g id="text_20">
     <!-- $C_D$ [-] -->
     <g transform="translate(30.064031 216.578092) rotate(-90) scale(0.15 -0.15)">
      <defs>
       <path id="DejaVuSans-Oblique-44" d="M 1081 4666 
L 2438 4666 
Q 3519 4666 4070 4208 
Q 4622 3750 4622 2847 
Q 4622 2250 4412 1698 
Q 4203 1147 3834 769 
Q 3463 381 2891 190 
Q 2319 0 1538 0 
L 172 0 
L 1081 4666 
z
M 1613 4147 
L 909 519 
L 1734 519 
Q 2794 519 3375 1128 
Q 3956 1738 3956 2847 
Q 3956 3519 3581 3833 
Q 3206 4147 2406 4147 
L 1613 4147 
z
" transform="scale(0.015625)"/>
      </defs>
      <use xlink:href="#DejaVuSans-Oblique-43" transform="translate(0 0.015625)"/>
      <use xlink:href="#DejaVuSans-Oblique-44" transform="translate(69.824219 -16.390625) scale(0.7)"/>
      <use xlink:href="#DejaVuSans-20" transform="translate(126.459961 0.015625)"/>
      <use xlink:href="#DejaVuSans-5b" transform="translate(158.24707 0.015625)"/>
      <use xlink:href="#DejaVuSans-2d" transform="translate(197.260742 0.015625)"/>
      <use xlink:href="#DejaVuSans-5d" transform="translate(233.344727 0.015625)"/>
     </g>
    </g>
   </g>
   <g id="line2d_37">
    <path d="M 77.582 341.532009 
L 83.78698 342.108032 
L 89.99196 342.678917 
L 96.196939 343.244488 
L 102.401919 343.80456 
L 108.606899 344.358938 
L 114.811879 344.907416 
L 121.016859 345.449778 
L 127.221838 345.985797 
L 133.426818 346.515229 
L 139.631798 347.037819 
L 145.836778 347.553294 
L 152.041758 348.061365 
L 158.246737 348.561724 
L 164.451717 349.054044 
L 170.656697 349.537977 
L 176.861677 350.013151 
L 183.066657 350.47917 
L 189.271636 350.935615 
L 195.476616 351.382035 
L 201.681596 351.817954 
L 207.886576 352.242863 
L 214.091556 352.656221 
L 220.296535 353.057453 
L 226.501515 353.445945 
L 232.706495 353.821048 
L 238.911475 354.182072 
L 245.116455 354.528282 
L 251.321434 354.858901 
L 257.526414 355.173105 
L 263.731394 355.47002 
L 269.936374 355.748722 
L 276.141354 356.008232 
L 282.346333 356.247516 
L 288.551313 356.465482 
L 294.756293 356.660977 
L 300.961273 356.832783 
L 307.166253 356.979618 
L 313.371232 357.10013 
L 319.576212 357.192897 
L 325.781192 357.256422 
L 331.986172 357.289132 
L 338.191152 357.289372 
L 344.396131 357.255407 
L 350.601111 357.185415 
L 356.806091 357.077485 
L 363.011071 356.929616 
L 369.216051 356.73971 
L 375.42103 356.505573 
L 381.62601 356.224908 
L 387.83099 355.895315 
L 394.03597 355.514284 
L 400.240949 355.079196 
L 406.445929 354.587317 
L 412.650909 354.035793 
L 418.855889 353.421651 
L 425.060869 352.741789 
L 431.265848 351.99298 
L 437.470828 351.171862 
L 443.675808 350.274936 
L 449.880788 349.298565 
L 456.085768 348.238967 
L 462.290747 347.09221 
L 468.495727 345.854211 
L 474.700707 344.520734 
L 480.905687 343.087378 
L 487.110667 341.549582 
L 493.315646 339.902613 
L 499.520626 338.141567 
L 505.725606 336.261364 
L 511.930586 334.256741 
L 518.135566 332.12225 
L 524.340545 329.852253 
L 530.545525 327.440917 
L 536.750505 324.88221 
L 542.955485 322.169896 
L 549.160465 319.297531 
L 555.365444 316.258457 
L 561.570424 313.045799 
L 567.775404 309.652458 
L 573.980384 306.071108 
L 580.185364 302.294192 
L 586.390343 298.313912 
L 592.595323 294.122231 
L 598.800303 289.710861 
L 605.005283 285.071265 
L 611.210263 280.194645 
L 617.415242 275.07194 
L 623.620222 269.693821 
L 629.825202 264.050687 
L 636.030182 258.132654 
L 642.235162 251.929557 
L 648.440141 245.430938 
L 654.645121 238.626044 
L 660.850101 231.503821 
L 667.055081 224.052909 
L 673.260061 216.261632 
L 679.46504 208.117998 
L 685.67002 199.60969 
L 691.875 190.72406 
" clip-path="url(#pec580f7dcf)" style="fill: none; stroke-dasharray: 9.6,2.4,1.5,2.4; stroke-dashoffset: 0; stroke: #00a6b6; stroke-width: 1.5"/>
   </g>
   <g id="line2d_38">
    <path d="M 77.582 346.067563 
L 83.78698 346.078261 
L 89.99196 346.084289 
L 96.196939 346.086248 
L 102.401919 346.084659 
L 108.606899 346.079974 
L 114.811879 346.072584 
L 121.016859 346.062822 
L 127.221838 346.050975 
L 133.426818 346.037287 
L 139.631798 346.021964 
L 145.836778 346.005184 
L 152.041758 345.987096 
L 158.246737 345.967826 
L 164.451717 345.947483 
L 170.656697 345.926158 
L 176.861677 345.903931 
L 183.066657 345.880869 
L 189.271636 345.85703 
L 195.476616 345.832462 
L 201.681596 345.807207 
L 207.886576 345.781295 
L 214.091556 345.754751 
L 220.296535 345.727587 
L 226.501515 345.699803 
L 232.706495 345.671388 
L 238.911475 345.642312 
L 245.116455 345.612525 
L 251.321434 345.581955 
L 257.526414 345.5505 
L 263.731394 345.518027 
L 269.936374 345.484366 
L 276.141354 345.449299 
L 282.346333 345.412564 
L 288.551313 345.373837 
L 294.756293 345.332731 
L 300.961273 345.288788 
L 307.166253 345.241468 
L 313.371232 345.190141 
L 319.576212 345.134079 
L 325.781192 345.072444 
L 331.986172 345.004278 
L 338.191152 344.928493 
L 344.396131 344.843857 
L 350.601111 344.748985 
L 356.806091 344.642323 
L 363.011071 344.52214 
L 369.216051 344.386506 
L 375.42103 344.233288 
L 381.62601 344.060126 
L 387.83099 343.864424 
L 394.03597 343.643331 
L 400.240949 343.393725 
L 406.445929 343.112199 
L 412.650909 342.79504 
L 418.855889 342.438212 
L 425.060869 342.03734 
L 431.265848 341.587687 
L 437.470828 341.08414 
L 443.675808 340.521184 
L 449.880788 339.892886 
L 456.085768 339.192872 
L 462.290747 338.414304 
L 468.495727 337.549864 
L 474.700707 336.591723 
L 480.905687 335.531524 
L 487.110667 334.360357 
L 493.315646 333.068733 
L 499.520626 331.64656 
L 505.725606 330.083121 
L 511.930586 328.367044 
L 518.135566 326.486277 
L 524.340545 324.428062 
L 530.545525 322.178908 
L 536.750505 319.724562 
L 542.955485 317.049981 
L 549.160465 314.139304 
L 555.365444 310.975821 
L 561.570424 307.541944 
L 567.775404 303.819178 
L 573.980384 299.788087 
L 580.185364 295.428264 
L 586.390343 290.718301 
L 592.595323 285.635752 
L 598.800303 280.157105 
L 605.005283 274.257743 
L 611.210263 267.911916 
L 617.415242 261.0927 
L 623.620222 253.771968 
L 629.825202 245.920349 
L 636.030182 237.507195 
L 642.235162 228.500543 
L 648.440141 218.86708 
L 654.645121 208.572101 
L 660.850101 197.579473 
L 667.055081 185.851599 
L 673.260061 173.349373 
L 679.46504 160.032145 
L 685.67002 145.857677 
L 691.875 130.782105 
" clip-path="url(#pec580f7dcf)" style="fill: none; stroke-dasharray: 9.6,2.4,1.5,2.4; stroke-dashoffset: 0; stroke: #a50034; stroke-width: 1.5"/>
   </g>
   <g id="line2d_39">
    <path d="M 77.582 342.391493 
L 83.78698 342.880238 
L 89.99196 343.360277 
L 96.196939 343.831828 
L 102.401919 344.29506 
L 108.606899 344.750098 
L 114.811879 345.197029 
L 121.016859 345.635902 
L 127.221838 346.066734 
L 133.426818 346.489508 
L 139.631798 346.904179 
L 145.836778 347.310678 
L 152.041758 347.708906 
L 158.246737 348.098743 
L 164.451717 348.480046 
L 170.656697 348.852648 
L 176.861677 349.216361 
L 183.066657 349.570975 
L 189.271636 349.91626 
L 195.476616 350.251961 
L 201.681596 350.577799 
L 207.886576 350.893474 
L 214.091556 351.198658 
L 220.296535 351.492994 
L 226.501515 351.776098 
L 232.706495 352.047552 
L 238.911475 352.306904 
L 245.116455 352.553663 
L 251.321434 352.787299 
L 257.526414 353.007235 
L 263.731394 353.212847 
L 269.936374 353.403457 
L 276.141354 353.578331 
L 282.346333 353.736671 
L 288.551313 353.877612 
L 294.756293 354.000216 
L 300.961273 354.103468 
L 307.166253 354.186267 
L 313.371232 354.247419 
L 319.576212 354.285634 
L 325.781192 354.299518 
L 331.986172 354.287563 
L 338.191152 354.248142 
L 344.396131 354.179499 
L 350.601111 354.079743 
L 356.806091 353.946838 
L 363.011071 353.778595 
L 369.216051 353.572662 
L 375.42103 353.326513 
L 381.62601 353.037444 
L 387.83099 352.702555 
L 394.03597 352.318744 
L 400.240949 351.882699 
L 406.445929 351.39088 
L 412.650909 350.839512 
L 418.855889 350.224575 
L 425.060869 349.541786 
L 431.265848 348.786595 
L 437.470828 347.954163 
L 443.675808 347.039357 
L 449.880788 346.036733 
L 456.085768 344.940524 
L 462.290747 343.744623 
L 468.495727 342.442574 
L 474.700707 341.027554 
L 480.905687 339.492357 
L 487.110667 337.829385 
L 493.315646 336.030625 
L 499.520626 334.087639 
L 505.725606 331.991545 
L 511.930586 329.733002 
L 518.135566 327.302193 
L 524.340545 324.688808 
L 530.545525 321.882028 
L 536.750505 318.870505 
L 542.955485 315.642345 
L 549.160465 312.185093 
L 555.365444 308.48571 
L 561.570424 304.530556 
L 567.775404 300.305371 
L 573.980384 295.795257 
L 580.185364 290.984656 
L 586.390343 285.857331 
L 592.595323 280.396346 
L 598.800303 274.584044 
L 605.005283 268.402028 
L 611.210263 261.831139 
L 617.415242 254.851433 
L 623.620222 247.442162 
L 629.825202 239.581749 
L 636.030182 231.247768 
L 642.235162 222.416918 
L 648.440141 213.065002 
L 654.645121 203.166907 
L 660.850101 192.696572 
L 667.055081 181.62697 
L 673.260061 169.930085 
L 679.46504 157.576881 
L 685.67002 144.537283 
L 691.875 130.780148 
" clip-path="url(#pec580f7dcf)" style="fill: none; stroke-dasharray: 9.6,2.4,1.5,2.4; stroke-dashoffset: 0; stroke: #ef60a3; stroke-width: 1.5"/>
   </g>
   <g id="line2d_40">
    <path d="M 77.582 337.711669 
L 83.78698 339.261702 
L 89.99196 340.73118 
L 96.196939 342.122878 
L 102.401919 343.439234 
L 108.606899 344.682391 
L 114.811879 345.854231 
L 121.016859 346.956409 
L 127.221838 347.990385 
L 133.426818 348.957453 
L 139.631798 349.858774 
L 145.836778 350.695398 
L 152.041758 351.468295 
L 158.246737 352.178372 
L 164.451717 352.826502 
L 170.656697 353.413537 
L 176.861677 353.940334 
L 183.066657 354.407766 
L 189.271636 354.81674 
L 195.476616 355.16821 
L 201.681596 355.463187 
L 207.886576 355.702753 
L 214.091556 355.888066 
L 220.296535 356.020364 
L 226.501515 356.100979 
L 232.706495 356.131331 
L 238.911475 356.112932 
L 245.116455 356.04739 
L 251.321434 355.936402 
L 257.526414 355.78175 
L 263.731394 355.585303 
L 269.936374 355.348999 
L 276.141354 355.074845 
L 282.346333 354.764904 
L 288.551313 354.42128 
L 294.756293 354.046108 
L 300.961273 353.641536 
L 307.166253 353.209709 
L 313.371232 352.752747 
L 319.576212 352.272731 
L 325.781192 351.771673 
L 331.986172 351.251495 
L 338.191152 350.714006 
L 344.396131 350.160867 
L 350.601111 349.593571 
L 356.806091 349.013406 
L 363.011071 348.421421 
L 369.216051 347.818398 
L 375.42103 347.20481 
L 381.62601 346.580787 
L 387.83099 345.946073 
L 394.03597 345.299988 
L 400.240949 344.641384 
L 406.445929 343.968597 
L 412.650909 343.279408 
L 418.855889 342.570989 
L 425.060869 341.839853 
L 431.265848 341.081807 
L 437.470828 340.291894 
L 443.675808 339.464343 
L 449.880788 338.592507 
L 456.085768 337.66881 
L 462.290747 336.684681 
L 468.495727 335.630499 
L 474.700707 334.495525 
L 480.905687 333.267837 
L 487.110667 331.934266 
L 493.315646 330.480325 
L 499.520626 328.890139 
L 505.725606 327.146374 
L 511.930586 325.230162 
L 518.135566 323.121027 
L 524.340545 320.796808 
L 530.545525 318.233578 
L 536.750505 315.405565 
L 542.955485 312.285072 
L 549.160465 308.842387 
L 555.365444 305.045706 
L 561.570424 300.861036 
L 567.775404 296.252113 
L 573.980384 291.18031 
L 580.185364 285.604542 
L 586.390343 279.481173 
L 592.595323 272.763923 
L 598.800303 265.403765 
L 605.005283 257.348829 
L 611.210263 248.544303 
L 617.415242 238.932325 
L 623.620222 228.451883 
L 629.825202 217.038706 
L 636.030182 204.625159 
L 642.235162 191.140132 
L 648.440141 176.508926 
L 654.645121 160.653145 
L 660.850101 143.490579 
L 667.055081 124.935087 
L 673.260061 104.896479 
L 679.46504 83.280398 
L 685.67002 59.988196 
L 691.875 34.916813 
" clip-path="url(#pec580f7dcf)" style="fill: none; stroke-dasharray: 9.6,2.4,1.5,2.4; stroke-dashoffset: 0; stroke: #6cc24a; stroke-width: 1.5"/>
   </g>
   <g id="patch_3">
    <path d="M 77.582 373.408 
L 77.582 18.798185 
" style="fill: none; stroke: #000000; stroke-width: 0.8; stroke-linejoin: miter; stroke-linecap: square"/>
   </g>
   <g id="patch_4">
    <path d="M 691.875 373.408 
L 691.875 18.798185 
" style="fill: none; stroke: #000000; stroke-width: 0.8; stroke-linejoin: miter; stroke-linecap: square"/>
   </g>
   <g id="patch_5">
    <path d="M 77.582 373.408 
L 691.875 373.408 
" style="fill: none; stroke: #000000; stroke-width: 0.8; stroke-linejoin: miter; stroke-linecap: square"/>
   </g>
   <g id="patch_6">
    <path d="M 77.582 18.798185 
L 691.875 18.798185 
" style="fill: none; stroke: #000000; stroke-width: 0.8; stroke-linejoin: miter; stroke-linecap: square"/>
   </g>
   <g id="legend_1">
    <g id="patch_7">
     <path d="M 88.082 118.866935 
L 273.451531 118.866935 
Q 276.451531 118.866935 276.451531 115.866935 
L 276.451531 29.298185 
Q 276.451531 26.298185 273.451531 26.298185 
L 88.082 26.298185 
Q 85.082 26.298185 85.082 29.298185 
L 85.082 115.866935 
Q 85.082 118.866935 88.082 118.866935 
z
" style="fill: #ffffff; opacity: 0.8; stroke: #cccccc; stroke-linejoin: miter"/>
    </g>
    <g id="line2d_41">
     <path d="M 91.082 38.445841 
L 106.082 38.445841 
L 121.082 38.445841 
" style="fill: none; stroke-dasharray: 9.6,2.4,1.5,2.4; stroke-dashoffset: 0; stroke: #00a6b6; stroke-width: 1.5"/>
    </g>
    <g id="text_21">
     <!-- Uncorrected J=1.8 -->
     <g transform="translate(133.082 43.695841) scale(0.15 -0.15)">
      <defs>
       <path id="DejaVuSans-55" d="M 556 4666 
L 1191 4666 
L 1191 1831 
Q 1191 1081 1462 751 
Q 1734 422 2344 422 
Q 2950 422 3222 751 
Q 3494 1081 3494 1831 
L 3494 4666 
L 4128 4666 
L 4128 1753 
Q 4128 841 3676 375 
Q 3225 -91 2344 -91 
Q 1459 -91 1007 375 
Q 556 841 556 1753 
L 556 4666 
z
" transform="scale(0.015625)"/>
       <path id="DejaVuSans-6e" d="M 3513 2113 
L 3513 0 
L 2938 0 
L 2938 2094 
Q 2938 2591 2744 2837 
Q 2550 3084 2163 3084 
Q 1697 3084 1428 2787 
Q 1159 2491 1159 1978 
L 1159 0 
L 581 0 
L 581 3500 
L 1159 3500 
L 1159 2956 
Q 1366 3272 1645 3428 
Q 1925 3584 2291 3584 
Q 2894 3584 3203 3211 
Q 3513 2838 3513 2113 
z
" transform="scale(0.015625)"/>
       <path id="DejaVuSans-63" d="M 3122 3366 
L 3122 2828 
Q 2878 2963 2633 3030 
Q 2388 3097 2138 3097 
Q 1578 3097 1268 2742 
Q 959 2388 959 1747 
Q 959 1106 1268 751 
Q 1578 397 2138 397 
Q 2388 397 2633 464 
Q 2878 531 3122 666 
L 3122 134 
Q 2881 22 2623 -34 
Q 2366 -91 2075 -91 
Q 1284 -91 818 406 
Q 353 903 353 1747 
Q 353 2603 823 3093 
Q 1294 3584 2113 3584 
Q 2378 3584 2631 3529 
Q 2884 3475 3122 3366 
z
" transform="scale(0.015625)"/>
       <path id="DejaVuSans-6f" d="M 1959 3097 
Q 1497 3097 1228 2736 
Q 959 2375 959 1747 
Q 959 1119 1226 758 
Q 1494 397 1959 397 
Q 2419 397 2687 759 
Q 2956 1122 2956 1747 
Q 2956 2369 2687 2733 
Q 2419 3097 1959 3097 
z
M 1959 3584 
Q 2709 3584 3137 3096 
Q 3566 2609 3566 1747 
Q 3566 888 3137 398 
Q 2709 -91 1959 -91 
Q 1206 -91 779 398 
Q 353 888 353 1747 
Q 353 2609 779 3096 
Q 1206 3584 1959 3584 
z
" transform="scale(0.015625)"/>
       <path id="DejaVuSans-72" d="M 2631 2963 
Q 2534 3019 2420 3045 
Q 2306 3072 2169 3072 
Q 1681 3072 1420 2755 
Q 1159 2438 1159 1844 
L 1159 0 
L 581 0 
L 581 3500 
L 1159 3500 
L 1159 2956 
Q 1341 3275 1631 3429 
Q 1922 3584 2338 3584 
Q 2397 3584 2469 3576 
Q 2541 3569 2628 3553 
L 2631 2963 
z
" transform="scale(0.015625)"/>
       <path id="DejaVuSans-65" d="M 3597 1894 
L 3597 1613 
L 953 1613 
Q 991 1019 1311 708 
Q 1631 397 2203 397 
Q 2534 397 2845 478 
Q 3156 559 3463 722 
L 3463 178 
Q 3153 47 2828 -22 
Q 2503 -91 2169 -91 
Q 1331 -91 842 396 
Q 353 884 353 1716 
Q 353 2575 817 3079 
Q 1281 3584 2069 3584 
Q 2775 3584 3186 3129 
Q 3597 2675 3597 1894 
z
M 3022 2063 
Q 3016 2534 2758 2815 
Q 2500 3097 2075 3097 
Q 1594 3097 1305 2825 
Q 1016 2553 972 2059 
L 3022 2063 
z
" transform="scale(0.015625)"/>
       <path id="DejaVuSans-74" d="M 1172 4494 
L 1172 3500 
L 2356 3500 
L 2356 3053 
L 1172 3053 
L 1172 1153 
Q 1172 725 1289 603 
Q 1406 481 1766 481 
L 2356 481 
L 2356 0 
L 1766 0 
Q 1100 0 847 248 
Q 594 497 594 1153 
L 594 3053 
L 172 3053 
L 172 3500 
L 594 3500 
L 594 4494 
L 1172 4494 
z
" transform="scale(0.015625)"/>
       <path id="DejaVuSans-64" d="M 2906 2969 
L 2906 4863 
L 3481 4863 
L 3481 0 
L 2906 0 
L 2906 525 
Q 2725 213 2448 61 
Q 2172 -91 1784 -91 
Q 1150 -91 751 415 
Q 353 922 353 1747 
Q 353 2572 751 3078 
Q 1150 3584 1784 3584 
Q 2172 3584 2448 3432 
Q 2725 3281 2906 2969 
z
M 947 1747 
Q 947 1113 1208 752 
Q 1469 391 1925 391 
Q 2381 391 2643 752 
Q 2906 1113 2906 1747 
Q 2906 2381 2643 2742 
Q 2381 3103 1925 3103 
Q 1469 3103 1208 2742 
Q 947 2381 947 1747 
z
" transform="scale(0.015625)"/>
       <path id="DejaVuSans-4a" d="M 628 4666 
L 1259 4666 
L 1259 325 
Q 1259 -519 939 -900 
Q 619 -1281 -91 -1281 
L -331 -1281 
L -331 -750 
L -134 -750 
Q 284 -750 456 -515 
Q 628 -281 628 325 
L 628 4666 
z
" transform="scale(0.015625)"/>
       <path id="DejaVuSans-3d" d="M 678 2906 
L 4684 2906 
L 4684 2381 
L 678 2381 
L 678 2906 
z
M 678 1631 
L 4684 1631 
L 4684 1100 
L 678 1100 
L 678 1631 
z
" transform="scale(0.015625)"/>
       <path id="DejaVuSans-38" d="M 2034 2216 
Q 1584 2216 1326 1975 
Q 1069 1734 1069 1313 
Q 1069 891 1326 650 
Q 1584 409 2034 409 
Q 2484 409 2743 651 
Q 3003 894 3003 1313 
Q 3003 1734 2745 1975 
Q 2488 2216 2034 2216 
z
M 1403 2484 
Q 997 2584 770 2862 
Q 544 3141 544 3541 
Q 544 4100 942 4425 
Q 1341 4750 2034 4750 
Q 2731 4750 3128 4425 
Q 3525 4100 3525 3541 
Q 3525 3141 3298 2862 
Q 3072 2584 2669 2484 
Q 3125 2378 3379 2068 
Q 3634 1759 3634 1313 
Q 3634 634 3220 271 
Q 2806 -91 2034 -91 
Q 1263 -91 848 271 
Q 434 634 434 1313 
Q 434 1759 690 2068 
Q 947 2378 1403 2484 
z
M 1172 3481 
Q 1172 3119 1398 2916 
Q 1625 2713 2034 2713 
Q 2441 2713 2670 2916 
Q 2900 3119 2900 3481 
Q 2900 3844 2670 4047 
Q 2441 4250 2034 4250 
Q 1625 4250 1398 4047 
Q 1172 3844 1172 3481 
z
" transform="scale(0.015625)"/>
      </defs>
      <use xlink:href="#DejaVuSans-55"/>
      <use xlink:href="#DejaVuSans-6e" x="73.193359"/>
      <use xlink:href="#DejaVuSans-63" x="136.572266"/>
      <use xlink:href="#DejaVuSans-6f" x="191.552734"/>
      <use xlink:href="#DejaVuSans-72" x="252.734375"/>
      <use xlink:href="#DejaVuSans-72" x="292.097656"/>
      <use xlink:href="#DejaVuSans-65" x="330.960938"/>
      <use xlink:href="#DejaVuSans-63" x="392.484375"/>
      <use xlink:href="#DejaVuSans-74" x="447.464844"/>
      <use xlink:href="#DejaVuSans-65" x="486.673828"/>
      <use xlink:href="#DejaVuSans-64" x="548.197266"/>
      <use xlink:href="#DejaVuSans-20" x="611.673828"/>
      <use xlink:href="#DejaVuSans-4a" x="643.460938"/>
      <use xlink:href="#DejaVuSans-3d" x="672.953125"/>
      <use xlink:href="#DejaVuSans-31" x="756.742188"/>
      <use xlink:href="#DejaVuSans-2e" x="820.365234"/>
      <use xlink:href="#DejaVuSans-38" x="852.152344"/>
     </g>
    </g>
    <g id="line2d_42">
     <path d="M 91.082 60.463028 
L 106.082 60.463028 
L 121.082 60.463028 
" style="fill: none; stroke-dasharray: 9.6,2.4,1.5,2.4; stroke-dashoffset: 0; stroke: #a50034; stroke-width: 1.5"/>
    </g>
    <g id="text_22">
     <!-- Corrected J=1.8 -->
     <g transform="translate(133.082 65.713028) scale(0.15 -0.15)">
      <defs>
       <path id="DejaVuSans-43" d="M 4122 4306 
L 4122 3641 
Q 3803 3938 3442 4084 
Q 3081 4231 2675 4231 
Q 1875 4231 1450 3742 
Q 1025 3253 1025 2328 
Q 1025 1406 1450 917 
Q 1875 428 2675 428 
Q 3081 428 3442 575 
Q 3803 722 4122 1019 
L 4122 359 
Q 3791 134 3420 21 
Q 3050 -91 2638 -91 
Q 1578 -91 968 557 
Q 359 1206 359 2328 
Q 359 3453 968 4101 
Q 1578 4750 2638 4750 
Q 3056 4750 3426 4639 
Q 3797 4528 4122 4306 
z
" transform="scale(0.015625)"/>
      </defs>
      <use xlink:href="#DejaVuSans-43"/>
      <use xlink:href="#DejaVuSans-6f" x="69.824219"/>
      <use xlink:href="#DejaVuSans-72" x="131.005859"/>
      <use xlink:href="#DejaVuSans-72" x="170.369141"/>
      <use xlink:href="#DejaVuSans-65" x="209.232422"/>
      <use xlink:href="#DejaVuSans-63" x="270.755859"/>
      <use xlink:href="#DejaVuSans-74" x="325.736328"/>
      <use xlink:href="#DejaVuSans-65" x="364.945312"/>
      <use xlink:href="#DejaVuSans-64" x="426.46875"/>
      <use xlink:href="#DejaVuSans-20" x="489.945312"/>
      <use xlink:href="#DejaVuSans-4a" x="521.732422"/>
      <use xlink:href="#DejaVuSans-3d" x="551.224609"/>
      <use xlink:href="#DejaVuSans-31" x="635.013672"/>
      <use xlink:href="#DejaVuSans-2e" x="698.636719"/>
      <use xlink:href="#DejaVuSans-38" x="730.423828"/>
     </g>
    </g>
    <g id="line2d_43">
     <path d="M 91.082 82.480216 
L 106.082 82.480216 
L 121.082 82.480216 
" style="fill: none; stroke-dasharray: 9.6,2.4,1.5,2.4; stroke-dashoffset: 0; stroke: #ef60a3; stroke-width: 1.5"/>
    </g>
    <g id="text_23">
     <!-- Uncorrected J=3.5 -->
     <g transform="translate(133.082 87.730216) scale(0.15 -0.15)">
      <use xlink:href="#DejaVuSans-55"/>
      <use xlink:href="#DejaVuSans-6e" x="73.193359"/>
      <use xlink:href="#DejaVuSans-63" x="136.572266"/>
      <use xlink:href="#DejaVuSans-6f" x="191.552734"/>
      <use xlink:href="#DejaVuSans-72" x="252.734375"/>
      <use xlink:href="#DejaVuSans-72" x="292.097656"/>
      <use xlink:href="#DejaVuSans-65" x="330.960938"/>
      <use xlink:href="#DejaVuSans-63" x="392.484375"/>
      <use xlink:href="#DejaVuSans-74" x="447.464844"/>
      <use xlink:href="#DejaVuSans-65" x="486.673828"/>
      <use xlink:href="#DejaVuSans-64" x="548.197266"/>
      <use xlink:href="#DejaVuSans-20" x="611.673828"/>
      <use xlink:href="#DejaVuSans-4a" x="643.460938"/>
      <use xlink:href="#DejaVuSans-3d" x="672.953125"/>
      <use xlink:href="#DejaVuSans-33" x="756.742188"/>
      <use xlink:href="#DejaVuSans-2e" x="820.365234"/>
      <use xlink:href="#DejaVuSans-35" x="852.152344"/>
     </g>
    </g>
    <g id="line2d_44">
     <path d="M 91.082 104.497403 
L 106.082 104.497403 
L 121.082 104.497403 
" style="fill: none; stroke-dasharray: 9.6,2.4,1.5,2.4; stroke-dashoffset: 0; stroke: #6cc24a; stroke-width: 1.5"/>
    </g>
    <g id="text_24">
     <!-- Corrected J=3.5 -->
     <g transform="translate(133.082 109.747403) scale(0.15 -0.15)">
      <use xlink:href="#DejaVuSans-43"/>
      <use xlink:href="#DejaVuSans-6f" x="69.824219"/>
      <use xlink:href="#DejaVuSans-72" x="131.005859"/>
      <use xlink:href="#DejaVuSans-72" x="170.369141"/>
      <use xlink:href="#DejaVuSans-65" x="209.232422"/>
      <use xlink:href="#DejaVuSans-63" x="270.755859"/>
      <use xlink:href="#DejaVuSans-74" x="325.736328"/>
      <use xlink:href="#DejaVuSans-65" x="364.945312"/>
      <use xlink:href="#DejaVuSans-64" x="426.46875"/>
      <use xlink:href="#DejaVuSans-20" x="489.945312"/>
      <use xlink:href="#DejaVuSans-4a" x="521.732422"/>
      <use xlink:href="#DejaVuSans-3d" x="551.224609"/>
      <use xlink:href="#DejaVuSans-33" x="635.013672"/>
      <use xlink:href="#DejaVuSans-2e" x="698.636719"/>
      <use xlink:href="#DejaVuSans-35" x="730.423828"/>
     </g>
    </g>
   </g>
  </g>
 </g>
 <defs>
  <clipPath id="pec580f7dcf">
   <rect x="77.582" y="18.798185" width="614.293" height="354.609815"/>
  </clipPath>
 </defs>
</svg>
