<?xml version="1.0" encoding="utf-8" standalone="no"?>
<!DOCTYPE svg PUBLIC "-//W3C//DTD SVG 1.1//EN"
  "http://www.w3.org/Graphics/SVG/1.1/DTD/svg11.dtd">
<svg xmlns:xlink="http://www.w3.org/1999/xlink" width="576pt" height="432pt" viewBox="0 0 576 432" xmlns="http://www.w3.org/2000/svg" version="1.1">
 <metadata>
  <rdf:RDF xmlns:dc="http://purl.org/dc/elements/1.1/" xmlns:cc="http://creativecommons.org/ns#" xmlns:rdf="http://www.w3.org/1999/02/22-rdf-syntax-ns#">
   <cc:Work>
    <dc:type rdf:resource="http://purl.org/dc/dcmitype/StillImage"/>
    <dc:date>2024-04-03T16:47:55.419481</dc:date>
    <dc:format>image/svg+xml</dc:format>
    <dc:creator>
     <cc:Agent>
      <dc:title>Matplotlib v3.8.0, https://matplotlib.org/</dc:title>
     </cc:Agent>
    </dc:creator>
   </cc:Work>
  </rdf:RDF>
 </metadata>
 <defs>
  <style type="text/css">*{stroke-linejoin: round; stroke-linecap: butt}</style>
 </defs>
 <g id="figure_1">
  <g id="patch_1">
   <path d="M 0 432 
L 576 432 
L 576 0 
L 0 0 
z
" style="fill: #ffffff"/>
  </g>
  <g id="axes_1">
   <g id="patch_2">
    <path d="M 99.236 357.064 
L 525.825 357.064 
L 525.825 22.703047 
L 99.236 22.703047 
z
" style="fill: #ffffff"/>
   </g>
   <g id="PathCollection_1">
    <defs>
     <path id="m509c80e9c3" d="M 0 3 
C 0.795609 3 1.55874 2.683901 2.12132 2.12132 
C 2.683901 1.55874 3 0.795609 3 0 
C 3 -0.795609 2.683901 -1.55874 2.12132 -2.12132 
C 1.55874 -2.683901 0.795609 -3 0 -3 
C -0.795609 -3 -1.55874 -2.683901 -2.12132 -2.12132 
C -2.683901 -1.55874 -3 -0.795609 -3 0 
C -3 0.795609 -2.683901 1.55874 -2.12132 2.12132 
C -1.55874 2.683901 -0.795609 3 0 3 
z
" style="stroke: #00a6b6"/>
    </defs>
    <g clip-path="url(#p282a2c3913)">
     <use xlink:href="#m509c80e9c3" x="131.937294" y="331.127052" style="fill: #00a6b6; stroke: #00a6b6"/>
     <use xlink:href="#m509c80e9c3" x="419.772739" y="310.700782" style="fill: #00a6b6; stroke: #00a6b6"/>
     <use xlink:href="#m509c80e9c3" x="488.344145" y="247.742583" style="fill: #00a6b6; stroke: #00a6b6"/>
     <use xlink:href="#m509c80e9c3" x="513.280906" y="209.77627" style="fill: #00a6b6; stroke: #00a6b6"/>
    </g>
   </g>
   <g id="PathCollection_2">
    <defs>
     <path id="mf04c8e91bb" d="M 0 3 
C 0.795609 3 1.55874 2.683901 2.12132 2.12132 
C 2.683901 1.55874 3 0.795609 3 0 
C 3 -0.795609 2.683901 -1.55874 2.12132 -2.12132 
C 1.55874 -2.683901 0.795609 -3 0 -3 
C -0.795609 -3 -1.55874 -2.683901 -2.12132 -2.12132 
C -2.683901 -1.55874 -3 -0.795609 -3 0 
C -3 0.795609 -2.683901 1.55874 -2.12132 2.12132 
C -1.55874 2.683901 -0.795609 3 0 3 
z
" style="stroke: #a50034"/>
    </defs>
    <g clip-path="url(#p282a2c3913)">
     <use xlink:href="#mf04c8e91bb" x="128.563189" y="331.355702" style="fill: #a50034; stroke: #a50034"/>
     <use xlink:href="#mf04c8e91bb" x="414.883781" y="307.344358" style="fill: #a50034; stroke: #a50034"/>
     <use xlink:href="#mf04c8e91bb" x="478.153458" y="244.040846" style="fill: #a50034; stroke: #a50034"/>
     <use xlink:href="#mf04c8e91bb" x="497.593657" y="206.542266" style="fill: #a50034; stroke: #a50034"/>
    </g>
   </g>
   <g id="PathCollection_3">
    <defs>
     <path id="md61d6d4c7a" d="M 0 3 
C 0.795609 3 1.55874 2.683901 2.12132 2.12132 
C 2.683901 1.55874 3 0.795609 3 0 
C 3 -0.795609 2.683901 -1.55874 2.12132 -2.12132 
C 1.55874 -2.683901 0.795609 -3 0 -3 
C -0.795609 -3 -1.55874 -2.683901 -2.12132 -2.12132 
C -2.683901 -1.55874 -3 -0.795609 -3 0 
C -3 0.795609 -2.683901 1.55874 -2.12132 2.12132 
C -1.55874 2.683901 -0.795609 3 0 3 
z
" style="stroke: #ef60a3"/>
    </defs>
    <g clip-path="url(#p282a2c3913)">
     <use xlink:href="#md61d6d4c7a" x="130.694893" y="331.127052" style="fill: #ef60a3; stroke: #ef60a3"/>
     <use xlink:href="#md61d6d4c7a" x="253.666597" y="338.88251" style="fill: #ef60a3; stroke: #ef60a3"/>
     <use xlink:href="#md61d6d4c7a" x="410.805425" y="310.700782" style="fill: #ef60a3; stroke: #ef60a3"/>
     <use xlink:href="#md61d6d4c7a" x="473.24896" y="247.742583" style="fill: #ef60a3; stroke: #ef60a3"/>
     <use xlink:href="#md61d6d4c7a" x="494.539756" y="209.77627" style="fill: #ef60a3; stroke: #ef60a3"/>
    </g>
   </g>
   <g id="PathCollection_4">
    <defs>
     <path id="md75a5e2fbe" d="M 0 3 
C 0.795609 3 1.55874 2.683901 2.12132 2.12132 
C 2.683901 1.55874 3 0.795609 3 0 
C 3 -0.795609 2.683901 -1.55874 2.12132 -2.12132 
C 1.55874 -2.683901 0.795609 -3 0 -3 
C -0.795609 -3 -1.55874 -2.683901 -2.12132 -2.12132 
C -2.683901 -1.55874 -3 -0.795609 -3 0 
C -3 0.795609 -2.683901 1.55874 -2.12132 2.12132 
C -1.55874 2.683901 -0.795609 3 0 3 
z
" style="stroke: #6cc24a"/>
    </defs>
    <g clip-path="url(#p282a2c3913)">
     <use xlink:href="#md75a5e2fbe" x="125.954061" y="331.370544" style="fill: #6cc24a; stroke: #6cc24a"/>
     <use xlink:href="#md75a5e2fbe" x="249.649124" y="338.739301" style="fill: #6cc24a; stroke: #6cc24a"/>
     <use xlink:href="#md75a5e2fbe" x="408.087688" y="307.341919" style="fill: #6cc24a; stroke: #6cc24a"/>
     <use xlink:href="#md75a5e2fbe" x="467.116711" y="243.932796" style="fill: #6cc24a; stroke: #6cc24a"/>
     <use xlink:href="#md75a5e2fbe" x="483.837752" y="206.192027" style="fill: #6cc24a; stroke: #6cc24a"/>
    </g>
   </g>
   <g id="matplotlib.axis_1">
    <g id="xtick_1">
     <g id="line2d_1">
      <path d="M 99.236 357.064 
L 99.236 22.703047 
" clip-path="url(#p282a2c3913)" style="fill: none; stroke: #b0b0b0; stroke-width: 0.8; stroke-linecap: square"/>
     </g>
     <g id="line2d_2">
      <defs>
       <path id="md944157367" d="M 0 0 
L 0 3.5 
" style="stroke: #000000; stroke-width: 0.8"/>
      </defs>
      <g>
       <use xlink:href="#md944157367" x="99.236" y="357.064" style="stroke: #000000; stroke-width: 0.8"/>
      </g>
     </g>
     <g id="text_1">
      <!-- −0.500 -->
      <g transform="translate(62.228188 379.260875) scale(0.2 -0.2)">
       <defs>
        <path id="DejaVuSans-2212" d="M 678 2272 
L 4684 2272 
L 4684 1741 
L 678 1741 
L 678 2272 
z
" transform="scale(0.015625)"/>
        <path id="DejaVuSans-30" d="M 2034 4250 
Q 1547 4250 1301 3770 
Q 1056 3291 1056 2328 
Q 1056 1369 1301 889 
Q 1547 409 2034 409 
Q 2525 409 2770 889 
Q 3016 1369 3016 2328 
Q 3016 3291 2770 3770 
Q 2525 4250 2034 4250 
z
M 2034 4750 
Q 2819 4750 3233 4129 
Q 3647 3509 3647 2328 
Q 3647 1150 3233 529 
Q 2819 -91 2034 -91 
Q 1250 -91 836 529 
Q 422 1150 422 2328 
Q 422 3509 836 4129 
Q 1250 4750 2034 4750 
z
" transform="scale(0.015625)"/>
        <path id="DejaVuSans-2e" d="M 684 794 
L 1344 794 
L 1344 0 
L 684 0 
L 684 794 
z
" transform="scale(0.015625)"/>
        <path id="DejaVuSans-35" d="M 691 4666 
L 3169 4666 
L 3169 4134 
L 1269 4134 
L 1269 2991 
Q 1406 3038 1543 3061 
Q 1681 3084 1819 3084 
Q 2600 3084 3056 2656 
Q 3513 2228 3513 1497 
Q 3513 744 3044 326 
Q 2575 -91 1722 -91 
Q 1428 -91 1123 -41 
Q 819 9 494 109 
L 494 744 
Q 775 591 1075 516 
Q 1375 441 1709 441 
Q 2250 441 2565 725 
Q 2881 1009 2881 1497 
Q 2881 1984 2565 2268 
Q 2250 2553 1709 2553 
Q 1456 2553 1204 2497 
Q 953 2441 691 2322 
L 691 4666 
z
" transform="scale(0.015625)"/>
       </defs>
       <use xlink:href="#DejaVuSans-2212"/>
       <use xlink:href="#DejaVuSans-30" x="83.789062"/>
       <use xlink:href="#DejaVuSans-2e" x="147.412109"/>
       <use xlink:href="#DejaVuSans-35" x="179.199219"/>
       <use xlink:href="#DejaVuSans-30" x="242.822266"/>
       <use xlink:href="#DejaVuSans-30" x="306.445312"/>
      </g>
     </g>
    </g>
    <g id="xtick_2">
     <g id="line2d_3">
      <path d="M 170.334167 357.064 
L 170.334167 22.703047 
" clip-path="url(#p282a2c3913)" style="fill: none; stroke: #b0b0b0; stroke-width: 0.8; stroke-linecap: square"/>
     </g>
     <g id="line2d_4">
      <g>
       <use xlink:href="#md944157367" x="170.334167" y="357.064" style="stroke: #000000; stroke-width: 0.8"/>
      </g>
     </g>
     <g id="text_2">
      <!-- −0.167 -->
      <g transform="translate(133.326354 379.260875) scale(0.2 -0.2)">
       <defs>
        <path id="DejaVuSans-31" d="M 794 531 
L 1825 531 
L 1825 4091 
L 703 3866 
L 703 4441 
L 1819 4666 
L 2450 4666 
L 2450 531 
L 3481 531 
L 3481 0 
L 794 0 
L 794 531 
z
" transform="scale(0.015625)"/>
        <path id="DejaVuSans-36" d="M 2113 2584 
Q 1688 2584 1439 2293 
Q 1191 2003 1191 1497 
Q 1191 994 1439 701 
Q 1688 409 2113 409 
Q 2538 409 2786 701 
Q 3034 994 3034 1497 
Q 3034 2003 2786 2293 
Q 2538 2584 2113 2584 
z
M 3366 4563 
L 3366 3988 
Q 3128 4100 2886 4159 
Q 2644 4219 2406 4219 
Q 1781 4219 1451 3797 
Q 1122 3375 1075 2522 
Q 1259 2794 1537 2939 
Q 1816 3084 2150 3084 
Q 2853 3084 3261 2657 
Q 3669 2231 3669 1497 
Q 3669 778 3244 343 
Q 2819 -91 2113 -91 
Q 1303 -91 875 529 
Q 447 1150 447 2328 
Q 447 3434 972 4092 
Q 1497 4750 2381 4750 
Q 2619 4750 2861 4703 
Q 3103 4656 3366 4563 
z
" transform="scale(0.015625)"/>
        <path id="DejaVuSans-37" d="M 525 4666 
L 3525 4666 
L 3525 4397 
L 1831 0 
L 1172 0 
L 2766 4134 
L 525 4134 
L 525 4666 
z
" transform="scale(0.015625)"/>
       </defs>
       <use xlink:href="#DejaVuSans-2212"/>
       <use xlink:href="#DejaVuSans-30" x="83.789062"/>
       <use xlink:href="#DejaVuSans-2e" x="147.412109"/>
       <use xlink:href="#DejaVuSans-31" x="179.199219"/>
       <use xlink:href="#DejaVuSans-36" x="242.822266"/>
       <use xlink:href="#DejaVuSans-37" x="306.445312"/>
      </g>
     </g>
    </g>
    <g id="xtick_3">
     <g id="line2d_5">
      <path d="M 241.432333 357.064 
L 241.432333 22.703047 
" clip-path="url(#p282a2c3913)" style="fill: none; stroke: #b0b0b0; stroke-width: 0.8; stroke-linecap: square"/>
     </g>
     <g id="line2d_6">
      <g>
       <use xlink:href="#md944157367" x="241.432333" y="357.064" style="stroke: #000000; stroke-width: 0.8"/>
      </g>
     </g>
     <g id="text_3">
      <!-- 0.167 -->
      <g transform="translate(212.804208 379.260875) scale(0.2 -0.2)">
       <use xlink:href="#DejaVuSans-30"/>
       <use xlink:href="#DejaVuSans-2e" x="63.623047"/>
       <use xlink:href="#DejaVuSans-31" x="95.410156"/>
       <use xlink:href="#DejaVuSans-36" x="159.033203"/>
       <use xlink:href="#DejaVuSans-37" x="222.65625"/>
      </g>
     </g>
    </g>
    <g id="xtick_4">
     <g id="line2d_7">
      <path d="M 312.5305 357.064 
L 312.5305 22.703047 
" clip-path="url(#p282a2c3913)" style="fill: none; stroke: #b0b0b0; stroke-width: 0.8; stroke-linecap: square"/>
     </g>
     <g id="line2d_8">
      <g>
       <use xlink:href="#md944157367" x="312.5305" y="357.064" style="stroke: #000000; stroke-width: 0.8"/>
      </g>
     </g>
     <g id="text_4">
      <!-- 0.500 -->
      <g transform="translate(283.902375 379.260875) scale(0.2 -0.2)">
       <use xlink:href="#DejaVuSans-30"/>
       <use xlink:href="#DejaVuSans-2e" x="63.623047"/>
       <use xlink:href="#DejaVuSans-35" x="95.410156"/>
       <use xlink:href="#DejaVuSans-30" x="159.033203"/>
       <use xlink:href="#DejaVuSans-30" x="222.65625"/>
      </g>
     </g>
    </g>
    <g id="xtick_5">
     <g id="line2d_9">
      <path d="M 383.628667 357.064 
L 383.628667 22.703047 
" clip-path="url(#p282a2c3913)" style="fill: none; stroke: #b0b0b0; stroke-width: 0.8; stroke-linecap: square"/>
     </g>
     <g id="line2d_10">
      <g>
       <use xlink:href="#md944157367" x="383.628667" y="357.064" style="stroke: #000000; stroke-width: 0.8"/>
      </g>
     </g>
     <g id="text_5">
      <!-- 0.833 -->
      <g transform="translate(355.000542 379.260875) scale(0.2 -0.2)">
       <defs>
        <path id="DejaVuSans-38" d="M 2034 2216 
Q 1584 2216 1326 1975 
Q 1069 1734 1069 1313 
Q 1069 891 1326 650 
Q 1584 409 2034 409 
Q 2484 409 2743 651 
Q 3003 894 3003 1313 
Q 3003 1734 2745 1975 
Q 2488 2216 2034 2216 
z
M 1403 2484 
Q 997 2584 770 2862 
Q 544 3141 544 3541 
Q 544 4100 942 4425 
Q 1341 4750 2034 4750 
Q 2731 4750 3128 4425 
Q 3525 4100 3525 3541 
Q 3525 3141 3298 2862 
Q 3072 2584 2669 2484 
Q 3125 2378 3379 2068 
Q 3634 1759 3634 1313 
Q 3634 634 3220 271 
Q 2806 -91 2034 -91 
Q 1263 -91 848 271 
Q 434 634 434 1313 
Q 434 1759 690 2068 
Q 947 2378 1403 2484 
z
M 1172 3481 
Q 1172 3119 1398 2916 
Q 1625 2713 2034 2713 
Q 2441 2713 2670 2916 
Q 2900 3119 2900 3481 
Q 2900 3844 2670 4047 
Q 2441 4250 2034 4250 
Q 1625 4250 1398 4047 
Q 1172 3844 1172 3481 
z
" transform="scale(0.015625)"/>
        <path id="DejaVuSans-33" d="M 2597 2516 
Q 3050 2419 3304 2112 
Q 3559 1806 3559 1356 
Q 3559 666 3084 287 
Q 2609 -91 1734 -91 
Q 1441 -91 1130 -33 
Q 819 25 488 141 
L 488 750 
Q 750 597 1062 519 
Q 1375 441 1716 441 
Q 2309 441 2620 675 
Q 2931 909 2931 1356 
Q 2931 1769 2642 2001 
Q 2353 2234 1838 2234 
L 1294 2234 
L 1294 2753 
L 1863 2753 
Q 2328 2753 2575 2939 
Q 2822 3125 2822 3475 
Q 2822 3834 2567 4026 
Q 2313 4219 1838 4219 
Q 1578 4219 1281 4162 
Q 984 4106 628 3988 
L 628 4550 
Q 988 4650 1302 4700 
Q 1616 4750 1894 4750 
Q 2613 4750 3031 4423 
Q 3450 4097 3450 3541 
Q 3450 3153 3228 2886 
Q 3006 2619 2597 2516 
z
" transform="scale(0.015625)"/>
       </defs>
       <use xlink:href="#DejaVuSans-30"/>
       <use xlink:href="#DejaVuSans-2e" x="63.623047"/>
       <use xlink:href="#DejaVuSans-38" x="95.410156"/>
       <use xlink:href="#DejaVuSans-33" x="159.033203"/>
       <use xlink:href="#DejaVuSans-33" x="222.65625"/>
      </g>
     </g>
    </g>
    <g id="xtick_6">
     <g id="line2d_11">
      <path d="M 454.726833 357.064 
L 454.726833 22.703047 
" clip-path="url(#p282a2c3913)" style="fill: none; stroke: #b0b0b0; stroke-width: 0.8; stroke-linecap: square"/>
     </g>
     <g id="line2d_12">
      <g>
       <use xlink:href="#md944157367" x="454.726833" y="357.064" style="stroke: #000000; stroke-width: 0.8"/>
      </g>
     </g>
     <g id="text_6">
      <!-- 1.167 -->
      <g transform="translate(426.098708 379.260875) scale(0.2 -0.2)">
       <use xlink:href="#DejaVuSans-31"/>
       <use xlink:href="#DejaVuSans-2e" x="63.623047"/>
       <use xlink:href="#DejaVuSans-31" x="95.410156"/>
       <use xlink:href="#DejaVuSans-36" x="159.033203"/>
       <use xlink:href="#DejaVuSans-37" x="222.65625"/>
      </g>
     </g>
    </g>
    <g id="xtick_7">
     <g id="line2d_13">
      <path d="M 525.825 357.064 
L 525.825 22.703047 
" clip-path="url(#p282a2c3913)" style="fill: none; stroke: #b0b0b0; stroke-width: 0.8; stroke-linecap: square"/>
     </g>
     <g id="line2d_14">
      <g>
       <use xlink:href="#md944157367" x="525.825" y="357.064" style="stroke: #000000; stroke-width: 0.8"/>
      </g>
     </g>
     <g id="text_7">
      <!-- 1.500 -->
      <g transform="translate(497.196875 379.260875) scale(0.2 -0.2)">
       <use xlink:href="#DejaVuSans-31"/>
       <use xlink:href="#DejaVuSans-2e" x="63.623047"/>
       <use xlink:href="#DejaVuSans-35" x="95.410156"/>
       <use xlink:href="#DejaVuSans-30" x="159.033203"/>
       <use xlink:href="#DejaVuSans-30" x="222.65625"/>
      </g>
     </g>
    </g>
    <g id="text_8">
     <!-- $C_L$ [-] -->
     <g transform="translate(286.7305 402.617125) scale(0.2 -0.2)">
      <defs>
       <path id="DejaVuSans-Oblique-43" d="M 4447 4306 
L 4319 3641 
Q 4019 3944 3683 4091 
Q 3347 4238 2956 4238 
Q 2422 4238 2017 3981 
Q 1613 3725 1319 3200 
Q 1131 2863 1032 2486 
Q 934 2109 934 1728 
Q 934 1091 1264 756 
Q 1594 422 2222 422 
Q 2656 422 3056 561 
Q 3456 700 3834 978 
L 3688 231 
Q 3316 72 2936 -9 
Q 2556 -91 2175 -91 
Q 1278 -91 773 396 
Q 269 884 269 1753 
Q 269 2309 461 2846 
Q 653 3384 1013 3828 
Q 1394 4300 1883 4525 
Q 2372 4750 3022 4750 
Q 3422 4750 3780 4639 
Q 4138 4528 4447 4306 
z
" transform="scale(0.015625)"/>
       <path id="DejaVuSans-Oblique-4c" d="M 1075 4666 
L 1709 4666 
L 909 525 
L 3181 525 
L 3078 0 
L 172 0 
L 1075 4666 
z
" transform="scale(0.015625)"/>
       <path id="DejaVuSans-20" transform="scale(0.015625)"/>
       <path id="DejaVuSans-5b" d="M 550 4863 
L 1875 4863 
L 1875 4416 
L 1125 4416 
L 1125 -397 
L 1875 -397 
L 1875 -844 
L 550 -844 
L 550 4863 
z
" transform="scale(0.015625)"/>
       <path id="DejaVuSans-2d" d="M 313 2009 
L 1997 2009 
L 1997 1497 
L 313 1497 
L 313 2009 
z
" transform="scale(0.015625)"/>
       <path id="DejaVuSans-5d" d="M 1947 4863 
L 1947 -844 
L 622 -844 
L 622 -397 
L 1369 -397 
L 1369 4416 
L 622 4416 
L 622 4863 
L 1947 4863 
z
" transform="scale(0.015625)"/>
      </defs>
      <use xlink:href="#DejaVuSans-Oblique-43" transform="translate(0 0.015625)"/>
      <use xlink:href="#DejaVuSans-Oblique-4c" transform="translate(69.824219 -16.390625) scale(0.7)"/>
      <use xlink:href="#DejaVuSans-20" transform="translate(111.557617 0.015625)"/>
      <use xlink:href="#DejaVuSans-5b" transform="translate(143.344727 0.015625)"/>
      <use xlink:href="#DejaVuSans-2d" transform="translate(182.358398 0.015625)"/>
      <use xlink:href="#DejaVuSans-5d" transform="translate(218.442383 0.015625)"/>
     </g>
    </g>
   </g>
   <g id="matplotlib.axis_2">
    <g id="ytick_1">
     <g id="line2d_15">
      <path d="M 99.236 315.453848 
L 525.825 315.453848 
" clip-path="url(#p282a2c3913)" style="fill: none; stroke: #b0b0b0; stroke-width: 0.8; stroke-linecap: square"/>
     </g>
     <g id="line2d_16">
      <defs>
       <path id="mc7552763f7" d="M 0 0 
L -3.5 0 
" style="stroke: #000000; stroke-width: 0.8"/>
      </defs>
      <g>
       <use xlink:href="#mc7552763f7" x="99.236" y="315.453848" style="stroke: #000000; stroke-width: 0.8"/>
      </g>
     </g>
     <g id="text_9">
      <!-- 0.05 -->
      <g transform="translate(47.70475 323.052285) scale(0.2 -0.2)">
       <use xlink:href="#DejaVuSans-30"/>
       <use xlink:href="#DejaVuSans-2e" x="63.623047"/>
       <use xlink:href="#DejaVuSans-30" x="95.410156"/>
       <use xlink:href="#DejaVuSans-35" x="159.033203"/>
      </g>
     </g>
    </g>
    <g id="ytick_2">
     <g id="line2d_17">
      <path d="M 99.236 267.804084 
L 525.825 267.804084 
" clip-path="url(#p282a2c3913)" style="fill: none; stroke: #b0b0b0; stroke-width: 0.8; stroke-linecap: square"/>
     </g>
     <g id="line2d_18">
      <g>
       <use xlink:href="#mc7552763f7" x="99.236" y="267.804084" style="stroke: #000000; stroke-width: 0.8"/>
      </g>
     </g>
     <g id="text_10">
      <!-- 0.10 -->
      <g transform="translate(47.70475 275.402522) scale(0.2 -0.2)">
       <use xlink:href="#DejaVuSans-30"/>
       <use xlink:href="#DejaVuSans-2e" x="63.623047"/>
       <use xlink:href="#DejaVuSans-31" x="95.410156"/>
       <use xlink:href="#DejaVuSans-30" x="159.033203"/>
      </g>
     </g>
    </g>
    <g id="ytick_3">
     <g id="line2d_19">
      <path d="M 99.236 220.154321 
L 525.825 220.154321 
" clip-path="url(#p282a2c3913)" style="fill: none; stroke: #b0b0b0; stroke-width: 0.8; stroke-linecap: square"/>
     </g>
     <g id="line2d_20">
      <g>
       <use xlink:href="#mc7552763f7" x="99.236" y="220.154321" style="stroke: #000000; stroke-width: 0.8"/>
      </g>
     </g>
     <g id="text_11">
      <!-- 0.15 -->
      <g transform="translate(47.70475 227.752759) scale(0.2 -0.2)">
       <use xlink:href="#DejaVuSans-30"/>
       <use xlink:href="#DejaVuSans-2e" x="63.623047"/>
       <use xlink:href="#DejaVuSans-31" x="95.410156"/>
       <use xlink:href="#DejaVuSans-35" x="159.033203"/>
      </g>
     </g>
    </g>
    <g id="ytick_4">
     <g id="line2d_21">
      <path d="M 99.236 172.504558 
L 525.825 172.504558 
" clip-path="url(#p282a2c3913)" style="fill: none; stroke: #b0b0b0; stroke-width: 0.8; stroke-linecap: square"/>
     </g>
     <g id="line2d_22">
      <g>
       <use xlink:href="#mc7552763f7" x="99.236" y="172.504558" style="stroke: #000000; stroke-width: 0.8"/>
      </g>
     </g>
     <g id="text_12">
      <!-- 0.20 -->
      <g transform="translate(47.70475 180.102995) scale(0.2 -0.2)">
       <defs>
        <path id="DejaVuSans-32" d="M 1228 531 
L 3431 531 
L 3431 0 
L 469 0 
L 469 531 
Q 828 903 1448 1529 
Q 2069 2156 2228 2338 
Q 2531 2678 2651 2914 
Q 2772 3150 2772 3378 
Q 2772 3750 2511 3984 
Q 2250 4219 1831 4219 
Q 1534 4219 1204 4116 
Q 875 4013 500 3803 
L 500 4441 
Q 881 4594 1212 4672 
Q 1544 4750 1819 4750 
Q 2544 4750 2975 4387 
Q 3406 4025 3406 3419 
Q 3406 3131 3298 2873 
Q 3191 2616 2906 2266 
Q 2828 2175 2409 1742 
Q 1991 1309 1228 531 
z
" transform="scale(0.015625)"/>
       </defs>
       <use xlink:href="#DejaVuSans-30"/>
       <use xlink:href="#DejaVuSans-2e" x="63.623047"/>
       <use xlink:href="#DejaVuSans-32" x="95.410156"/>
       <use xlink:href="#DejaVuSans-30" x="159.033203"/>
      </g>
     </g>
    </g>
    <g id="ytick_5">
     <g id="line2d_23">
      <path d="M 99.236 124.854795 
L 525.825 124.854795 
" clip-path="url(#p282a2c3913)" style="fill: none; stroke: #b0b0b0; stroke-width: 0.8; stroke-linecap: square"/>
     </g>
     <g id="line2d_24">
      <g>
       <use xlink:href="#mc7552763f7" x="99.236" y="124.854795" style="stroke: #000000; stroke-width: 0.8"/>
      </g>
     </g>
     <g id="text_13">
      <!-- 0.25 -->
      <g transform="translate(47.70475 132.453232) scale(0.2 -0.2)">
       <use xlink:href="#DejaVuSans-30"/>
       <use xlink:href="#DejaVuSans-2e" x="63.623047"/>
       <use xlink:href="#DejaVuSans-32" x="95.410156"/>
       <use xlink:href="#DejaVuSans-35" x="159.033203"/>
      </g>
     </g>
    </g>
    <g id="ytick_6">
     <g id="line2d_25">
      <path d="M 99.236 77.205032 
L 525.825 77.205032 
" clip-path="url(#p282a2c3913)" style="fill: none; stroke: #b0b0b0; stroke-width: 0.8; stroke-linecap: square"/>
     </g>
     <g id="line2d_26">
      <g>
       <use xlink:href="#mc7552763f7" x="99.236" y="77.205032" style="stroke: #000000; stroke-width: 0.8"/>
      </g>
     </g>
     <g id="text_14">
      <!-- 0.30 -->
      <g transform="translate(47.70475 84.803469) scale(0.2 -0.2)">
       <use xlink:href="#DejaVuSans-30"/>
       <use xlink:href="#DejaVuSans-2e" x="63.623047"/>
       <use xlink:href="#DejaVuSans-33" x="95.410156"/>
       <use xlink:href="#DejaVuSans-30" x="159.033203"/>
      </g>
     </g>
    </g>
    <g id="ytick_7">
     <g id="line2d_27">
      <path d="M 99.236 29.555268 
L 525.825 29.555268 
" clip-path="url(#p282a2c3913)" style="fill: none; stroke: #b0b0b0; stroke-width: 0.8; stroke-linecap: square"/>
     </g>
     <g id="line2d_28">
      <g>
       <use xlink:href="#mc7552763f7" x="99.236" y="29.555268" style="stroke: #000000; stroke-width: 0.8"/>
      </g>
     </g>
     <g id="text_15">
      <!-- 0.35 -->
      <g transform="translate(47.70475 37.153706) scale(0.2 -0.2)">
       <use xlink:href="#DejaVuSans-30"/>
       <use xlink:href="#DejaVuSans-2e" x="63.623047"/>
       <use xlink:href="#DejaVuSans-33" x="95.410156"/>
       <use xlink:href="#DejaVuSans-35" x="159.033203"/>
      </g>
     </g>
    </g>
    <g id="text_16">
     <!-- $C_D$ [-] -->
     <g transform="translate(39.545375 217.183523) rotate(-90) scale(0.2 -0.2)">
      <defs>
       <path id="DejaVuSans-Oblique-44" d="M 1081 4666 
L 2438 4666 
Q 3519 4666 4070 4208 
Q 4622 3750 4622 2847 
Q 4622 2250 4412 1698 
Q 4203 1147 3834 769 
Q 3463 381 2891 190 
Q 2319 0 1538 0 
L 172 0 
L 1081 4666 
z
M 1613 4147 
L 909 519 
L 1734 519 
Q 2794 519 3375 1128 
Q 3956 1738 3956 2847 
Q 3956 3519 3581 3833 
Q 3206 4147 2406 4147 
L 1613 4147 
z
" transform="scale(0.015625)"/>
      </defs>
      <use xlink:href="#DejaVuSans-Oblique-43" transform="translate(0 0.015625)"/>
      <use xlink:href="#DejaVuSans-Oblique-44" transform="translate(69.824219 -16.390625) scale(0.7)"/>
      <use xlink:href="#DejaVuSans-20" transform="translate(126.459961 0.015625)"/>
      <use xlink:href="#DejaVuSans-5b" transform="translate(158.24707 0.015625)"/>
      <use xlink:href="#DejaVuSans-2d" transform="translate(197.260742 0.015625)"/>
      <use xlink:href="#DejaVuSans-5d" transform="translate(233.344727 0.015625)"/>
     </g>
    </g>
   </g>
   <g id="line2d_29">
    <path d="M 99.236 327.18094 
L 103.54498 327.717755 
L 107.85396 328.249783 
L 112.162939 328.776859 
L 116.471919 329.298809 
L 120.780899 329.815453 
L 125.089879 330.326599 
L 129.398859 330.832045 
L 133.707838 331.331579 
L 138.016818 331.824976 
L 142.325798 332.311995 
L 146.634778 332.792385 
L 150.943758 333.265874 
L 155.252737 333.732176 
L 159.561717 334.190986 
L 163.870697 334.64198 
L 168.179677 335.084811 
L 172.488657 335.519111 
L 176.797636 335.944487 
L 181.106616 336.360522 
L 185.415596 336.76677 
L 189.724576 337.162758 
L 194.033556 337.54798 
L 198.342535 337.921902 
L 202.651515 338.283951 
L 206.960495 338.633523 
L 211.269475 338.969973 
L 215.578455 339.292619 
L 219.887434 339.600734 
L 224.196414 339.893552 
L 228.505394 340.170258 
L 232.814374 340.429989 
L 237.123354 340.671836 
L 241.432333 340.894833 
L 245.741313 341.097963 
L 250.050293 341.280151 
L 254.359273 341.440263 
L 258.668253 341.577104 
L 262.977232 341.689414 
L 267.286212 341.775867 
L 271.595192 341.835068 
L 275.904172 341.865551 
L 280.213152 341.865775 
L 284.522131 341.834122 
L 288.831111 341.768894 
L 293.140091 341.66831 
L 297.449071 341.530506 
L 301.758051 341.353526 
L 306.06703 341.135325 
L 310.37601 340.873764 
L 314.68499 340.566604 
L 318.99397 340.211509 
L 323.302949 339.806035 
L 327.611929 339.347636 
L 331.920909 338.833651 
L 336.229889 338.261311 
L 340.538869 337.627724 
L 344.847848 336.929883 
L 349.156828 336.164654 
L 353.465808 335.328778 
L 357.774788 334.418864 
L 362.083768 333.431387 
L 366.392747 332.362684 
L 370.701727 331.20895 
L 375.010707 329.966236 
L 379.319687 328.630442 
L 383.628667 327.197316 
L 387.937646 325.662448 
L 392.246626 324.021269 
L 396.555606 322.269042 
L 400.864586 320.400864 
L 405.173566 318.411658 
L 409.482545 316.296168 
L 413.791525 314.04896 
L 418.100505 311.664412 
L 422.409485 309.136712 
L 426.718465 306.459855 
L 431.027444 303.627636 
L 435.336424 300.633648 
L 439.645404 297.471275 
L 443.954384 294.133691 
L 448.263364 290.613851 
L 452.572343 286.90449 
L 456.881323 282.998116 
L 461.190303 278.887007 
L 465.499283 274.563206 
L 469.808263 270.018513 
L 474.117242 265.244486 
L 478.426222 260.23243 
L 482.735202 254.973397 
L 487.044182 249.458176 
L 491.353162 243.677294 
L 495.662141 237.621004 
L 499.971121 231.279287 
L 504.280101 224.641839 
L 508.589081 217.698074 
L 512.898061 210.437112 
L 517.20704 202.847776 
L 521.51602 194.918587 
L 525.825 186.63776 
" clip-path="url(#p282a2c3913)" style="fill: none; stroke-dasharray: 9.6,2.4,1.5,2.4; stroke-dashoffset: 0; stroke: #00a6b6; stroke-width: 1.5"/>
   </g>
   <g id="line2d_30">
    <path d="M 99.236 331.476185 
L 103.54498 331.468969 
L 107.85396 331.45734 
L 112.162939 331.441864 
L 116.471919 331.423034 
L 120.780899 331.401275 
L 125.089879 331.376955 
L 129.398859 331.350387 
L 133.707838 331.321843 
L 138.016818 331.291551 
L 142.325798 331.259707 
L 146.634778 331.226477 
L 150.943758 331.192001 
L 155.252737 331.1564 
L 159.561717 331.119775 
L 163.870697 331.082213 
L 168.179677 331.04379 
L 172.488657 331.00457 
L 176.797636 330.964608 
L 181.106616 330.923952 
L 185.415596 330.882641 
L 189.724576 330.840707 
L 194.033556 330.798175 
L 198.342535 330.755059 
L 202.651515 330.711363 
L 206.960495 330.667079 
L 211.269475 330.622182 
L 215.578455 330.576629 
L 219.887434 330.530358 
L 224.196414 330.483278 
L 228.505394 330.435268 
L 232.814374 330.386175 
L 237.123354 330.3358 
L 241.432333 330.283903 
L 245.741313 330.230187 
L 250.050293 330.174296 
L 254.359273 330.115807 
L 258.668253 330.05422 
L 262.977232 329.988954 
L 267.286212 329.919332 
L 271.595192 329.844576 
L 275.904172 329.763797 
L 280.213152 329.675982 
L 284.522131 329.579983 
L 288.831111 329.474512 
L 293.140091 329.358118 
L 297.449071 329.229187 
L 301.758051 329.085917 
L 306.06703 328.926316 
L 310.37601 328.748178 
L 314.68499 328.549077 
L 318.99397 328.326347 
L 323.302949 328.077068 
L 327.611929 327.798049 
L 331.920909 327.485817 
L 336.229889 327.136592 
L 340.538869 326.746276 
L 344.847848 326.310432 
L 349.156828 325.824268 
L 353.465808 325.282614 
L 357.774788 324.67991 
L 362.083768 324.010178 
L 366.392747 323.267007 
L 370.701727 322.443531 
L 375.010707 321.532407 
L 379.319687 320.525794 
L 383.628667 319.415329 
L 387.937646 318.192108 
L 392.246626 316.84666 
L 396.555606 315.368921 
L 400.864586 313.748216 
L 405.173566 311.97323 
L 409.482545 310.03198 
L 413.791525 307.911798 
L 418.100505 305.599295 
L 422.409485 303.080343 
L 426.718465 300.340041 
L 431.027444 297.362689 
L 435.336424 294.131765 
L 439.645404 290.629888 
L 443.954384 286.838794 
L 448.263364 282.739307 
L 452.572343 278.311306 
L 456.881323 273.533694 
L 461.190303 268.384371 
L 465.499283 262.840198 
L 469.808263 256.876966 
L 474.117242 250.469366 
L 478.426222 243.590953 
L 482.735202 236.214111 
L 487.044182 228.310025 
L 491.353162 219.848639 
L 495.662141 210.798627 
L 499.971121 201.127352 
L 504.280101 190.800835 
L 508.589081 179.783715 
L 512.898061 168.039215 
L 517.20704 155.529098 
L 521.51602 142.213639 
L 525.825 128.051577 
" clip-path="url(#p282a2c3913)" style="fill: none; stroke-dasharray: 9.6,2.4,1.5,2.4; stroke-dashoffset: 0; stroke: #a50034; stroke-width: 1.5"/>
   </g>
   <g id="line2d_31">
    <path d="M 99.236 327.981922 
L 103.54498 328.437401 
L 107.85396 328.884766 
L 112.162939 329.324221 
L 116.471919 329.755923 
L 120.780899 330.179989 
L 125.089879 330.596499 
L 129.398859 331.005501 
L 133.707838 331.407007 
L 138.016818 331.801005 
L 142.325798 332.187452 
L 146.634778 332.566282 
L 150.943758 332.937405 
L 155.252737 333.300708 
L 159.561717 333.656057 
L 163.870697 334.003298 
L 168.179677 334.342254 
L 172.488657 334.672732 
L 176.797636 334.994515 
L 181.106616 335.307366 
L 185.415596 335.611027 
L 189.724576 335.905215 
L 194.033556 336.189626 
L 198.342535 336.463929 
L 202.651515 336.727763 
L 206.960495 336.98074 
L 211.269475 337.222439 
L 215.578455 337.452403 
L 219.887434 337.670136 
L 224.196414 337.875102 
L 228.505394 338.066719 
L 232.814374 338.244356 
L 237.123354 338.407327 
L 241.432333 338.554889 
L 245.741313 338.686237 
L 250.050293 338.800496 
L 254.359273 338.89672 
L 258.668253 338.973883 
L 262.977232 339.030873 
L 267.286212 339.066487 
L 271.595192 339.079426 
L 275.904172 339.068285 
L 280.213152 339.031546 
L 284.522131 338.967576 
L 288.831111 338.87461 
L 293.140091 338.750751 
L 297.449071 338.593959 
L 301.758051 338.402043 
L 306.06703 338.172649 
L 310.37601 337.903255 
L 314.68499 337.59116 
L 318.99397 337.233474 
L 323.302949 336.827108 
L 327.611929 336.368764 
L 331.920909 335.854926 
L 336.229889 335.281844 
L 340.538869 334.64553 
L 344.847848 333.941741 
L 349.156828 333.165968 
L 353.465808 332.313429 
L 357.774788 331.379049 
L 362.083768 330.357453 
L 366.392747 329.242952 
L 370.701727 328.029527 
L 375.010707 326.71082 
L 379.319687 325.280117 
L 383.628667 323.730335 
L 387.937646 322.054008 
L 392.246626 320.243272 
L 396.555606 318.289849 
L 400.864586 316.185034 
L 405.173566 313.919678 
L 409.482545 311.484174 
L 413.791525 308.868438 
L 418.100505 306.061894 
L 422.409485 303.05346 
L 426.718465 299.831527 
L 431.027444 296.383943 
L 435.336424 292.697997 
L 439.645404 288.7604 
L 443.954384 284.557268 
L 448.263364 280.074101 
L 452.572343 275.295768 
L 456.881323 270.206486 
L 461.190303 264.789799 
L 465.499283 259.028563 
L 469.808263 252.904923 
L 474.117242 246.400292 
L 478.426222 239.495334 
L 482.735202 232.169942 
L 487.044182 224.403214 
L 491.353162 216.173437 
L 495.662141 207.458062 
L 499.971121 198.233682 
L 504.280101 188.476012 
L 508.589081 178.159865 
L 512.898061 167.25913 
L 517.20704 155.746749 
L 521.51602 143.594693 
L 525.825 130.77394 
" clip-path="url(#p282a2c3913)" style="fill: none; stroke-dasharray: 9.6,2.4,1.5,2.4; stroke-dashoffset: 0; stroke: #ef60a3; stroke-width: 1.5"/>
   </g>
   <g id="line2d_32">
    <path d="M 99.236 323.394274 
L 103.54498 324.872722 
L 107.85396 326.273958 
L 112.162939 327.600614 
L 116.471919 328.855005 
L 120.780899 330.039166 
L 125.089879 331.154881 
L 129.398859 332.20372 
L 133.707838 333.187068 
L 138.016818 334.106152 
L 142.325798 334.962072 
L 146.634778 335.755824 
L 150.943758 336.488326 
L 155.252737 337.160439 
L 159.561717 337.772989 
L 163.870697 338.326786 
L 168.179677 338.822642 
L 172.488657 339.261384 
L 176.797636 339.643876 
L 181.106616 339.971022 
L 185.415596 340.243785 
L 189.724576 340.463194 
L 194.033556 340.630351 
L 198.342535 340.746436 
L 202.651515 340.812718 
L 206.960495 340.830551 
L 211.269475 340.801379 
L 215.578455 340.726736 
L 219.887434 340.608242 
L 224.196414 340.447605 
L 228.505394 340.246607 
L 232.814374 340.007107 
L 237.123354 339.731026 
L 241.432333 339.420341 
L 245.741313 339.077071 
L 250.050293 338.703266 
L 254.359273 338.300992 
L 258.668253 337.872312 
L 262.977232 337.419272 
L 267.286212 336.94388 
L 271.595192 336.448083 
L 275.904172 335.933746 
L 280.213152 335.402628 
L 284.522131 334.856355 
L 288.831111 334.296393 
L 293.140091 333.724018 
L 297.449071 333.140286 
L 301.758051 332.545999 
L 306.06703 331.941673 
L 310.37601 331.327501 
L 314.68499 330.703316 
L 318.99397 330.068552 
L 323.302949 329.422202 
L 327.611929 328.762779 
L 331.920909 328.088269 
L 336.229889 327.396087 
L 340.538869 326.683031 
L 344.847848 325.945231 
L 349.156828 325.1781 
L 353.465808 324.376282 
L 357.774788 323.533599 
L 362.083768 322.642994 
L 366.392747 321.696477 
L 370.701727 320.685063 
L 375.010707 319.598716 
L 379.319687 318.426285 
L 383.628667 317.155441 
L 387.937646 315.772612 
L 392.246626 314.262917 
L 396.555606 312.610099 
L 400.864586 310.796453 
L 405.173566 308.802755 
L 409.482545 306.608191 
L 413.791525 304.19028 
L 418.100505 301.524801 
L 422.409485 298.585712 
L 426.718465 295.34507 
L 431.027444 291.772955 
L 435.336424 287.837382 
L 439.645404 283.504219 
L 443.954384 278.737101 
L 448.263364 273.497343 
L 452.572343 267.743849 
L 456.881323 261.433023 
L 461.190303 254.518677 
L 465.499283 246.951935 
L 469.808263 238.681137 
L 474.117242 229.651747 
L 478.426222 219.806247 
L 482.735202 209.084041 
L 487.044182 197.421353 
L 491.353162 184.75112 
L 495.662141 171.00289 
L 499.971121 156.102714 
L 504.280101 139.973036 
L 508.589081 122.532585 
L 512.898061 103.696263 
L 517.20704 83.37503 
L 521.51602 61.475789 
L 525.825 37.901272 
" clip-path="url(#p282a2c3913)" style="fill: none; stroke-dasharray: 9.6,2.4,1.5,2.4; stroke-dashoffset: 0; stroke: #6cc24a; stroke-width: 1.5"/>
   </g>
   <g id="patch_3">
    <path d="M 99.236 357.064 
L 99.236 22.703047 
" style="fill: none; stroke: #000000; stroke-width: 0.8; stroke-linejoin: miter; stroke-linecap: square"/>
   </g>
   <g id="patch_4">
    <path d="M 525.825 357.064 
L 525.825 22.703047 
" style="fill: none; stroke: #000000; stroke-width: 0.8; stroke-linejoin: miter; stroke-linecap: square"/>
   </g>
   <g id="patch_5">
    <path d="M 99.236 357.064 
L 525.825 357.064 
" style="fill: none; stroke: #000000; stroke-width: 0.8; stroke-linejoin: miter; stroke-linecap: square"/>
   </g>
   <g id="patch_6">
    <path d="M 99.236 22.703047 
L 525.825 22.703047 
" style="fill: none; stroke: #000000; stroke-width: 0.8; stroke-linejoin: miter; stroke-linecap: square"/>
   </g>
   <g id="legend_1">
    <g id="patch_7">
     <path d="M 113.236 156.128047 
L 360.395375 156.128047 
Q 364.395375 156.128047 364.395375 152.128047 
L 364.395375 36.703047 
Q 364.395375 32.703047 360.395375 32.703047 
L 113.236 32.703047 
Q 109.236 32.703047 109.236 36.703047 
L 109.236 152.128047 
Q 109.236 156.128047 113.236 156.128047 
z
" style="fill: #ffffff; opacity: 0.8; stroke: #cccccc; stroke-linejoin: miter"/>
    </g>
    <g id="line2d_33">
     <path d="M 117.236 48.899922 
L 137.236 48.899922 
L 157.236 48.899922 
" style="fill: none; stroke-dasharray: 9.6,2.4,1.5,2.4; stroke-dashoffset: 0; stroke: #00a6b6; stroke-width: 1.5"/>
    </g>
    <g id="text_17">
     <!-- Uncorrected J=1.8 -->
     <g transform="translate(173.236 55.899922) scale(0.2 -0.2)">
      <defs>
       <path id="DejaVuSans-55" d="M 556 4666 
L 1191 4666 
L 1191 1831 
Q 1191 1081 1462 751 
Q 1734 422 2344 422 
Q 2950 422 3222 751 
Q 3494 1081 3494 1831 
L 3494 4666 
L 4128 4666 
L 4128 1753 
Q 4128 841 3676 375 
Q 3225 -91 2344 -91 
Q 1459 -91 1007 375 
Q 556 841 556 1753 
L 556 4666 
z
" transform="scale(0.015625)"/>
       <path id="DejaVuSans-6e" d="M 3513 2113 
L 3513 0 
L 2938 0 
L 2938 2094 
Q 2938 2591 2744 2837 
Q 2550 3084 2163 3084 
Q 1697 3084 1428 2787 
Q 1159 2491 1159 1978 
L 1159 0 
L 581 0 
L 581 3500 
L 1159 3500 
L 1159 2956 
Q 1366 3272 1645 3428 
Q 1925 3584 2291 3584 
Q 2894 3584 3203 3211 
Q 3513 2838 3513 2113 
z
" transform="scale(0.015625)"/>
       <path id="DejaVuSans-63" d="M 3122 3366 
L 3122 2828 
Q 2878 2963 2633 3030 
Q 2388 3097 2138 3097 
Q 1578 3097 1268 2742 
Q 959 2388 959 1747 
Q 959 1106 1268 751 
Q 1578 397 2138 397 
Q 2388 397 2633 464 
Q 2878 531 3122 666 
L 3122 134 
Q 2881 22 2623 -34 
Q 2366 -91 2075 -91 
Q 1284 -91 818 406 
Q 353 903 353 1747 
Q 353 2603 823 3093 
Q 1294 3584 2113 3584 
Q 2378 3584 2631 3529 
Q 2884 3475 3122 3366 
z
" transform="scale(0.015625)"/>
       <path id="DejaVuSans-6f" d="M 1959 3097 
Q 1497 3097 1228 2736 
Q 959 2375 959 1747 
Q 959 1119 1226 758 
Q 1494 397 1959 397 
Q 2419 397 2687 759 
Q 2956 1122 2956 1747 
Q 2956 2369 2687 2733 
Q 2419 3097 1959 3097 
z
M 1959 3584 
Q 2709 3584 3137 3096 
Q 3566 2609 3566 1747 
Q 3566 888 3137 398 
Q 2709 -91 1959 -91 
Q 1206 -91 779 398 
Q 353 888 353 1747 
Q 353 2609 779 3096 
Q 1206 3584 1959 3584 
z
" transform="scale(0.015625)"/>
       <path id="DejaVuSans-72" d="M 2631 2963 
Q 2534 3019 2420 3045 
Q 2306 3072 2169 3072 
Q 1681 3072 1420 2755 
Q 1159 2438 1159 1844 
L 1159 0 
L 581 0 
L 581 3500 
L 1159 3500 
L 1159 2956 
Q 1341 3275 1631 3429 
Q 1922 3584 2338 3584 
Q 2397 3584 2469 3576 
Q 2541 3569 2628 3553 
L 2631 2963 
z
" transform="scale(0.015625)"/>
       <path id="DejaVuSans-65" d="M 3597 1894 
L 3597 1613 
L 953 1613 
Q 991 1019 1311 708 
Q 1631 397 2203 397 
Q 2534 397 2845 478 
Q 3156 559 3463 722 
L 3463 178 
Q 3153 47 2828 -22 
Q 2503 -91 2169 -91 
Q 1331 -91 842 396 
Q 353 884 353 1716 
Q 353 2575 817 3079 
Q 1281 3584 2069 3584 
Q 2775 3584 3186 3129 
Q 3597 2675 3597 1894 
z
M 3022 2063 
Q 3016 2534 2758 2815 
Q 2500 3097 2075 3097 
Q 1594 3097 1305 2825 
Q 1016 2553 972 2059 
L 3022 2063 
z
" transform="scale(0.015625)"/>
       <path id="DejaVuSans-74" d="M 1172 4494 
L 1172 3500 
L 2356 3500 
L 2356 3053 
L 1172 3053 
L 1172 1153 
Q 1172 725 1289 603 
Q 1406 481 1766 481 
L 2356 481 
L 2356 0 
L 1766 0 
Q 1100 0 847 248 
Q 594 497 594 1153 
L 594 3053 
L 172 3053 
L 172 3500 
L 594 3500 
L 594 4494 
L 1172 4494 
z
" transform="scale(0.015625)"/>
       <path id="DejaVuSans-64" d="M 2906 2969 
L 2906 4863 
L 3481 4863 
L 3481 0 
L 2906 0 
L 2906 525 
Q 2725 213 2448 61 
Q 2172 -91 1784 -91 
Q 1150 -91 751 415 
Q 353 922 353 1747 
Q 353 2572 751 3078 
Q 1150 3584 1784 3584 
Q 2172 3584 2448 3432 
Q 2725 3281 2906 2969 
z
M 947 1747 
Q 947 1113 1208 752 
Q 1469 391 1925 391 
Q 2381 391 2643 752 
Q 2906 1113 2906 1747 
Q 2906 2381 2643 2742 
Q 2381 3103 1925 3103 
Q 1469 3103 1208 2742 
Q 947 2381 947 1747 
z
" transform="scale(0.015625)"/>
       <path id="DejaVuSans-4a" d="M 628 4666 
L 1259 4666 
L 1259 325 
Q 1259 -519 939 -900 
Q 619 -1281 -91 -1281 
L -331 -1281 
L -331 -750 
L -134 -750 
Q 284 -750 456 -515 
Q 628 -281 628 325 
L 628 4666 
z
" transform="scale(0.015625)"/>
       <path id="DejaVuSans-3d" d="M 678 2906 
L 4684 2906 
L 4684 2381 
L 678 2381 
L 678 2906 
z
M 678 1631 
L 4684 1631 
L 4684 1100 
L 678 1100 
L 678 1631 
z
" transform="scale(0.015625)"/>
      </defs>
      <use xlink:href="#DejaVuSans-55"/>
      <use xlink:href="#DejaVuSans-6e" x="73.193359"/>
      <use xlink:href="#DejaVuSans-63" x="136.572266"/>
      <use xlink:href="#DejaVuSans-6f" x="191.552734"/>
      <use xlink:href="#DejaVuSans-72" x="252.734375"/>
      <use xlink:href="#DejaVuSans-72" x="292.097656"/>
      <use xlink:href="#DejaVuSans-65" x="330.960938"/>
      <use xlink:href="#DejaVuSans-63" x="392.484375"/>
      <use xlink:href="#DejaVuSans-74" x="447.464844"/>
      <use xlink:href="#DejaVuSans-65" x="486.673828"/>
      <use xlink:href="#DejaVuSans-64" x="548.197266"/>
      <use xlink:href="#DejaVuSans-20" x="611.673828"/>
      <use xlink:href="#DejaVuSans-4a" x="643.460938"/>
      <use xlink:href="#DejaVuSans-3d" x="672.953125"/>
      <use xlink:href="#DejaVuSans-31" x="756.742188"/>
      <use xlink:href="#DejaVuSans-2e" x="820.365234"/>
      <use xlink:href="#DejaVuSans-38" x="852.152344"/>
     </g>
    </g>
    <g id="line2d_34">
     <path d="M 117.236 78.256172 
L 137.236 78.256172 
L 157.236 78.256172 
" style="fill: none; stroke-dasharray: 9.6,2.4,1.5,2.4; stroke-dashoffset: 0; stroke: #a50034; stroke-width: 1.5"/>
    </g>
    <g id="text_18">
     <!-- Corrected J=1.8 -->
     <g transform="translate(173.236 85.256172) scale(0.2 -0.2)">
      <defs>
       <path id="DejaVuSans-43" d="M 4122 4306 
L 4122 3641 
Q 3803 3938 3442 4084 
Q 3081 4231 2675 4231 
Q 1875 4231 1450 3742 
Q 1025 3253 1025 2328 
Q 1025 1406 1450 917 
Q 1875 428 2675 428 
Q 3081 428 3442 575 
Q 3803 722 4122 1019 
L 4122 359 
Q 3791 134 3420 21 
Q 3050 -91 2638 -91 
Q 1578 -91 968 557 
Q 359 1206 359 2328 
Q 359 3453 968 4101 
Q 1578 4750 2638 4750 
Q 3056 4750 3426 4639 
Q 3797 4528 4122 4306 
z
" transform="scale(0.015625)"/>
      </defs>
      <use xlink:href="#DejaVuSans-43"/>
      <use xlink:href="#DejaVuSans-6f" x="69.824219"/>
      <use xlink:href="#DejaVuSans-72" x="131.005859"/>
      <use xlink:href="#DejaVuSans-72" x="170.369141"/>
      <use xlink:href="#DejaVuSans-65" x="209.232422"/>
      <use xlink:href="#DejaVuSans-63" x="270.755859"/>
      <use xlink:href="#DejaVuSans-74" x="325.736328"/>
      <use xlink:href="#DejaVuSans-65" x="364.945312"/>
      <use xlink:href="#DejaVuSans-64" x="426.46875"/>
      <use xlink:href="#DejaVuSans-20" x="489.945312"/>
      <use xlink:href="#DejaVuSans-4a" x="521.732422"/>
      <use xlink:href="#DejaVuSans-3d" x="551.224609"/>
      <use xlink:href="#DejaVuSans-31" x="635.013672"/>
      <use xlink:href="#DejaVuSans-2e" x="698.636719"/>
      <use xlink:href="#DejaVuSans-38" x="730.423828"/>
     </g>
    </g>
    <g id="line2d_35">
     <path d="M 117.236 107.612422 
L 137.236 107.612422 
L 157.236 107.612422 
" style="fill: none; stroke-dasharray: 9.6,2.4,1.5,2.4; stroke-dashoffset: 0; stroke: #ef60a3; stroke-width: 1.5"/>
    </g>
    <g id="text_19">
     <!-- Uncorrected J=3.5 -->
     <g transform="translate(173.236 114.612422) scale(0.2 -0.2)">
      <use xlink:href="#DejaVuSans-55"/>
      <use xlink:href="#DejaVuSans-6e" x="73.193359"/>
      <use xlink:href="#DejaVuSans-63" x="136.572266"/>
      <use xlink:href="#DejaVuSans-6f" x="191.552734"/>
      <use xlink:href="#DejaVuSans-72" x="252.734375"/>
      <use xlink:href="#DejaVuSans-72" x="292.097656"/>
      <use xlink:href="#DejaVuSans-65" x="330.960938"/>
      <use xlink:href="#DejaVuSans-63" x="392.484375"/>
      <use xlink:href="#DejaVuSans-74" x="447.464844"/>
      <use xlink:href="#DejaVuSans-65" x="486.673828"/>
      <use xlink:href="#DejaVuSans-64" x="548.197266"/>
      <use xlink:href="#DejaVuSans-20" x="611.673828"/>
      <use xlink:href="#DejaVuSans-4a" x="643.460938"/>
      <use xlink:href="#DejaVuSans-3d" x="672.953125"/>
      <use xlink:href="#DejaVuSans-33" x="756.742188"/>
      <use xlink:href="#DejaVuSans-2e" x="820.365234"/>
      <use xlink:href="#DejaVuSans-35" x="852.152344"/>
     </g>
    </g>
    <g id="line2d_36">
     <path d="M 117.236 136.968672 
L 137.236 136.968672 
L 157.236 136.968672 
" style="fill: none; stroke-dasharray: 9.6,2.4,1.5,2.4; stroke-dashoffset: 0; stroke: #6cc24a; stroke-width: 1.5"/>
    </g>
    <g id="text_20">
     <!-- Corrected J=3.5 -->
     <g transform="translate(173.236 143.968672) scale(0.2 -0.2)">
      <use xlink:href="#DejaVuSans-43"/>
      <use xlink:href="#DejaVuSans-6f" x="69.824219"/>
      <use xlink:href="#DejaVuSans-72" x="131.005859"/>
      <use xlink:href="#DejaVuSans-72" x="170.369141"/>
      <use xlink:href="#DejaVuSans-65" x="209.232422"/>
      <use xlink:href="#DejaVuSans-63" x="270.755859"/>
      <use xlink:href="#DejaVuSans-74" x="325.736328"/>
      <use xlink:href="#DejaVuSans-65" x="364.945312"/>
      <use xlink:href="#DejaVuSans-64" x="426.46875"/>
      <use xlink:href="#DejaVuSans-20" x="489.945312"/>
      <use xlink:href="#DejaVuSans-4a" x="521.732422"/>
      <use xlink:href="#DejaVuSans-3d" x="551.224609"/>
      <use xlink:href="#DejaVuSans-33" x="635.013672"/>
      <use xlink:href="#DejaVuSans-2e" x="698.636719"/>
      <use xlink:href="#DejaVuSans-35" x="730.423828"/>
     </g>
    </g>
   </g>
  </g>
 </g>
 <defs>
  <clipPath id="p282a2c3913">
   <rect x="99.236" y="22.703047" width="426.589" height="334.360953"/>
  </clipPath>
 </defs>
</svg>
