<?xml version="1.0" encoding="utf-8" standalone="no"?>
<!DOCTYPE svg PUBLIC "-//W3C//DTD SVG 1.1//EN"
  "http://www.w3.org/Graphics/SVG/1.1/DTD/svg11.dtd">
<svg xmlns:xlink="http://www.w3.org/1999/xlink" width="720pt" height="432pt" viewBox="0 0 720 432" xmlns="http://www.w3.org/2000/svg" version="1.1">
 <metadata>
  <rdf:RDF xmlns:dc="http://purl.org/dc/elements/1.1/" xmlns:cc="http://creativecommons.org/ns#" xmlns:rdf="http://www.w3.org/1999/02/22-rdf-syntax-ns#">
   <cc:Work>
    <dc:type rdf:resource="http://purl.org/dc/dcmitype/StillImage"/>
    <dc:date>2024-04-02T14:03:28.765583</dc:date>
    <dc:format>image/svg+xml</dc:format>
    <dc:creator>
     <cc:Agent>
      <dc:title>Matplotlib v3.8.3, https://matplotlib.org/</dc:title>
     </cc:Agent>
    </dc:creator>
   </cc:Work>
  </rdf:RDF>
 </metadata>
 <defs>
  <style type="text/css">*{stroke-linejoin: round; stroke-linecap: butt}</style>
 </defs>
 <g id="figure_1">
  <g id="patch_1">
   <path d="M 0 432 
L 720 432 
L 720 0 
L 0 0 
z
" style="fill: #ffffff"/>
  </g>
  <g id="axes_1">
   <g id="patch_2">
    <path d="M 99.722 376 
L 687.105 376 
L 687.105 16.2 
L 99.722 16.2 
z
" style="fill: #ffffff"/>
   </g>
   <g id="PathCollection_1">
    <defs>
     <path id="m620eb1018f" d="M 0 3 
C 0.795609 3 1.55874 2.683901 2.12132 2.12132 
C 2.683901 1.55874 3 0.795609 3 0 
C 3 -0.795609 2.683901 -1.55874 2.12132 -2.12132 
C 1.55874 -2.683901 0.795609 -3 0 -3 
C -0.795609 -3 -1.55874 -2.683901 -2.12132 -2.12132 
C -2.683901 -1.55874 -3 -0.795609 -3 0 
C -3 0.795609 -2.683901 1.55874 -2.12132 2.12132 
C -1.55874 2.683901 -0.795609 3 0 3 
z
" style="stroke: #00a6b6"/>
    </defs>
    <g clip-path="url(#pa91a0edcb3)">
     <use xlink:href="#m620eb1018f" x="123.21732" y="115.672348" style="fill: #00a6b6; stroke: #00a6b6"/>
     <use xlink:href="#m620eb1018f" x="170.20796" y="173.089544" style="fill: #00a6b6; stroke: #00a6b6"/>
     <use xlink:href="#m620eb1018f" x="569.6284" y="194.152662" style="fill: #00a6b6; stroke: #00a6b6"/>
    </g>
   </g>
   <g id="PathCollection_2">
    <defs>
     <path id="m699f4219ad" d="M 0 3 
C 0.795609 3 1.55874 2.683901 2.12132 2.12132 
C 2.683901 1.55874 3 0.795609 3 0 
C 3 -0.795609 2.683901 -1.55874 2.12132 -2.12132 
C 1.55874 -2.683901 0.795609 -3 0 -3 
C -0.795609 -3 -1.55874 -2.683901 -2.12132 -2.12132 
C -2.683901 -1.55874 -3 -0.795609 -3 0 
C -3 0.795609 -2.683901 1.55874 -2.12132 2.12132 
C -1.55874 2.683901 -0.795609 3 0 3 
z
" style="stroke: #a50034"/>
    </defs>
    <g clip-path="url(#pa91a0edcb3)">
     <use xlink:href="#m699f4219ad" x="569.6284" y="236.997496" style="fill: #a50034; stroke: #a50034"/>
     <use xlink:href="#m699f4219ad" x="170.20796" y="196.760379" style="fill: #a50034; stroke: #a50034"/>
     <use xlink:href="#m699f4219ad" x="123.21732" y="117.312591" style="fill: #a50034; stroke: #a50034"/>
    </g>
   </g>
   <g id="PathCollection_3">
    <defs>
     <path id="m2a9ff055a2" d="M 0 3 
C 0.795609 3 1.55874 2.683901 2.12132 2.12132 
C 2.683901 1.55874 3 0.795609 3 0 
C 3 -0.795609 2.683901 -1.55874 2.12132 -2.12132 
C 1.55874 -2.683901 0.795609 -3 0 -3 
C -0.795609 -3 -1.55874 -2.683901 -2.12132 -2.12132 
C -2.683901 -1.55874 -3 -0.795609 -3 0 
C -3 0.795609 -2.683901 1.55874 -2.12132 2.12132 
C -1.55874 2.683901 -0.795609 3 0 3 
z
" style="stroke: #ef60a3"/>
    </defs>
    <g clip-path="url(#pa91a0edcb3)">
     <use xlink:href="#m2a9ff055a2" x="569.6284" y="209.171142" style="fill: #ef60a3; stroke: #ef60a3"/>
     <use xlink:href="#m2a9ff055a2" x="170.20796" y="194.425214" style="fill: #ef60a3; stroke: #ef60a3"/>
     <use xlink:href="#m2a9ff055a2" x="123.21732" y="181.235122" style="fill: #ef60a3; stroke: #ef60a3"/>
    </g>
   </g>
   <g id="matplotlib.axis_1">
    <g id="xtick_1">
     <g id="line2d_1">
      <path d="M 99.722 376 
L 99.722 16.2 
" clip-path="url(#pa91a0edcb3)" style="fill: none; stroke: #b0b0b0; stroke-width: 0.8; stroke-linecap: square"/>
     </g>
     <g id="line2d_2">
      <defs>
       <path id="mc75aad6f6c" d="M 0 0 
L 0 3.5 
" style="stroke: #000000; stroke-width: 0.8"/>
      </defs>
      <g>
       <use xlink:href="#mc75aad6f6c" x="99.722" y="376" style="stroke: #000000; stroke-width: 0.8"/>
      </g>
     </g>
     <g id="text_1">
      <!-- 1.50 -->
      <g transform="translate(83.022781 394.397656) scale(0.15 -0.15)">
       <defs>
        <path id="DejaVuSans-31" d="M 794 531 
L 1825 531 
L 1825 4091 
L 703 3866 
L 703 4441 
L 1819 4666 
L 2450 4666 
L 2450 531 
L 3481 531 
L 3481 0 
L 794 0 
L 794 531 
z
" transform="scale(0.015625)"/>
        <path id="DejaVuSans-2e" d="M 684 794 
L 1344 794 
L 1344 0 
L 684 0 
L 684 794 
z
" transform="scale(0.015625)"/>
        <path id="DejaVuSans-35" d="M 691 4666 
L 3169 4666 
L 3169 4134 
L 1269 4134 
L 1269 2991 
Q 1406 3038 1543 3061 
Q 1681 3084 1819 3084 
Q 2600 3084 3056 2656 
Q 3513 2228 3513 1497 
Q 3513 744 3044 326 
Q 2575 -91 1722 -91 
Q 1428 -91 1123 -41 
Q 819 9 494 109 
L 494 744 
Q 775 591 1075 516 
Q 1375 441 1709 441 
Q 2250 441 2565 725 
Q 2881 1009 2881 1497 
Q 2881 1984 2565 2268 
Q 2250 2553 1709 2553 
Q 1456 2553 1204 2497 
Q 953 2441 691 2322 
L 691 4666 
z
" transform="scale(0.015625)"/>
        <path id="DejaVuSans-30" d="M 2034 4250 
Q 1547 4250 1301 3770 
Q 1056 3291 1056 2328 
Q 1056 1369 1301 889 
Q 1547 409 2034 409 
Q 2525 409 2770 889 
Q 3016 1369 3016 2328 
Q 3016 3291 2770 3770 
Q 2525 4250 2034 4250 
z
M 2034 4750 
Q 2819 4750 3233 4129 
Q 3647 3509 3647 2328 
Q 3647 1150 3233 529 
Q 2819 -91 2034 -91 
Q 1250 -91 836 529 
Q 422 1150 422 2328 
Q 422 3509 836 4129 
Q 1250 4750 2034 4750 
z
" transform="scale(0.015625)"/>
       </defs>
       <use xlink:href="#DejaVuSans-31"/>
       <use xlink:href="#DejaVuSans-2e" x="63.623047"/>
       <use xlink:href="#DejaVuSans-35" x="95.410156"/>
       <use xlink:href="#DejaVuSans-30" x="159.033203"/>
      </g>
     </g>
    </g>
    <g id="xtick_2">
     <g id="line2d_3">
      <path d="M 158.4603 376 
L 158.4603 16.2 
" clip-path="url(#pa91a0edcb3)" style="fill: none; stroke: #b0b0b0; stroke-width: 0.8; stroke-linecap: square"/>
     </g>
     <g id="line2d_4">
      <g>
       <use xlink:href="#mc75aad6f6c" x="158.4603" y="376" style="stroke: #000000; stroke-width: 0.8"/>
      </g>
     </g>
     <g id="text_2">
      <!-- 1.75 -->
      <g transform="translate(141.761081 394.397656) scale(0.15 -0.15)">
       <defs>
        <path id="DejaVuSans-37" d="M 525 4666 
L 3525 4666 
L 3525 4397 
L 1831 0 
L 1172 0 
L 2766 4134 
L 525 4134 
L 525 4666 
z
" transform="scale(0.015625)"/>
       </defs>
       <use xlink:href="#DejaVuSans-31"/>
       <use xlink:href="#DejaVuSans-2e" x="63.623047"/>
       <use xlink:href="#DejaVuSans-37" x="95.410156"/>
       <use xlink:href="#DejaVuSans-35" x="159.033203"/>
      </g>
     </g>
    </g>
    <g id="xtick_3">
     <g id="line2d_5">
      <path d="M 217.1986 376 
L 217.1986 16.2 
" clip-path="url(#pa91a0edcb3)" style="fill: none; stroke: #b0b0b0; stroke-width: 0.8; stroke-linecap: square"/>
     </g>
     <g id="line2d_6">
      <g>
       <use xlink:href="#mc75aad6f6c" x="217.1986" y="376" style="stroke: #000000; stroke-width: 0.8"/>
      </g>
     </g>
     <g id="text_3">
      <!-- 2.00 -->
      <g transform="translate(200.499381 394.397656) scale(0.15 -0.15)">
       <defs>
        <path id="DejaVuSans-32" d="M 1228 531 
L 3431 531 
L 3431 0 
L 469 0 
L 469 531 
Q 828 903 1448 1529 
Q 2069 2156 2228 2338 
Q 2531 2678 2651 2914 
Q 2772 3150 2772 3378 
Q 2772 3750 2511 3984 
Q 2250 4219 1831 4219 
Q 1534 4219 1204 4116 
Q 875 4013 500 3803 
L 500 4441 
Q 881 4594 1212 4672 
Q 1544 4750 1819 4750 
Q 2544 4750 2975 4387 
Q 3406 4025 3406 3419 
Q 3406 3131 3298 2873 
Q 3191 2616 2906 2266 
Q 2828 2175 2409 1742 
Q 1991 1309 1228 531 
z
" transform="scale(0.015625)"/>
       </defs>
       <use xlink:href="#DejaVuSans-32"/>
       <use xlink:href="#DejaVuSans-2e" x="63.623047"/>
       <use xlink:href="#DejaVuSans-30" x="95.410156"/>
       <use xlink:href="#DejaVuSans-30" x="159.033203"/>
      </g>
     </g>
    </g>
    <g id="xtick_4">
     <g id="line2d_7">
      <path d="M 275.9369 376 
L 275.9369 16.2 
" clip-path="url(#pa91a0edcb3)" style="fill: none; stroke: #b0b0b0; stroke-width: 0.8; stroke-linecap: square"/>
     </g>
     <g id="line2d_8">
      <g>
       <use xlink:href="#mc75aad6f6c" x="275.9369" y="376" style="stroke: #000000; stroke-width: 0.8"/>
      </g>
     </g>
     <g id="text_4">
      <!-- 2.25 -->
      <g transform="translate(259.237681 394.397656) scale(0.15 -0.15)">
       <use xlink:href="#DejaVuSans-32"/>
       <use xlink:href="#DejaVuSans-2e" x="63.623047"/>
       <use xlink:href="#DejaVuSans-32" x="95.410156"/>
       <use xlink:href="#DejaVuSans-35" x="159.033203"/>
      </g>
     </g>
    </g>
    <g id="xtick_5">
     <g id="line2d_9">
      <path d="M 334.6752 376 
L 334.6752 16.2 
" clip-path="url(#pa91a0edcb3)" style="fill: none; stroke: #b0b0b0; stroke-width: 0.8; stroke-linecap: square"/>
     </g>
     <g id="line2d_10">
      <g>
       <use xlink:href="#mc75aad6f6c" x="334.6752" y="376" style="stroke: #000000; stroke-width: 0.8"/>
      </g>
     </g>
     <g id="text_5">
      <!-- 2.50 -->
      <g transform="translate(317.975981 394.397656) scale(0.15 -0.15)">
       <use xlink:href="#DejaVuSans-32"/>
       <use xlink:href="#DejaVuSans-2e" x="63.623047"/>
       <use xlink:href="#DejaVuSans-35" x="95.410156"/>
       <use xlink:href="#DejaVuSans-30" x="159.033203"/>
      </g>
     </g>
    </g>
    <g id="xtick_6">
     <g id="line2d_11">
      <path d="M 393.4135 376 
L 393.4135 16.2 
" clip-path="url(#pa91a0edcb3)" style="fill: none; stroke: #b0b0b0; stroke-width: 0.8; stroke-linecap: square"/>
     </g>
     <g id="line2d_12">
      <g>
       <use xlink:href="#mc75aad6f6c" x="393.4135" y="376" style="stroke: #000000; stroke-width: 0.8"/>
      </g>
     </g>
     <g id="text_6">
      <!-- 2.75 -->
      <g transform="translate(376.714281 394.397656) scale(0.15 -0.15)">
       <use xlink:href="#DejaVuSans-32"/>
       <use xlink:href="#DejaVuSans-2e" x="63.623047"/>
       <use xlink:href="#DejaVuSans-37" x="95.410156"/>
       <use xlink:href="#DejaVuSans-35" x="159.033203"/>
      </g>
     </g>
    </g>
    <g id="xtick_7">
     <g id="line2d_13">
      <path d="M 452.1518 376 
L 452.1518 16.2 
" clip-path="url(#pa91a0edcb3)" style="fill: none; stroke: #b0b0b0; stroke-width: 0.8; stroke-linecap: square"/>
     </g>
     <g id="line2d_14">
      <g>
       <use xlink:href="#mc75aad6f6c" x="452.1518" y="376" style="stroke: #000000; stroke-width: 0.8"/>
      </g>
     </g>
     <g id="text_7">
      <!-- 3.00 -->
      <g transform="translate(435.452581 394.397656) scale(0.15 -0.15)">
       <defs>
        <path id="DejaVuSans-33" d="M 2597 2516 
Q 3050 2419 3304 2112 
Q 3559 1806 3559 1356 
Q 3559 666 3084 287 
Q 2609 -91 1734 -91 
Q 1441 -91 1130 -33 
Q 819 25 488 141 
L 488 750 
Q 750 597 1062 519 
Q 1375 441 1716 441 
Q 2309 441 2620 675 
Q 2931 909 2931 1356 
Q 2931 1769 2642 2001 
Q 2353 2234 1838 2234 
L 1294 2234 
L 1294 2753 
L 1863 2753 
Q 2328 2753 2575 2939 
Q 2822 3125 2822 3475 
Q 2822 3834 2567 4026 
Q 2313 4219 1838 4219 
Q 1578 4219 1281 4162 
Q 984 4106 628 3988 
L 628 4550 
Q 988 4650 1302 4700 
Q 1616 4750 1894 4750 
Q 2613 4750 3031 4423 
Q 3450 4097 3450 3541 
Q 3450 3153 3228 2886 
Q 3006 2619 2597 2516 
z
" transform="scale(0.015625)"/>
       </defs>
       <use xlink:href="#DejaVuSans-33"/>
       <use xlink:href="#DejaVuSans-2e" x="63.623047"/>
       <use xlink:href="#DejaVuSans-30" x="95.410156"/>
       <use xlink:href="#DejaVuSans-30" x="159.033203"/>
      </g>
     </g>
    </g>
    <g id="xtick_8">
     <g id="line2d_15">
      <path d="M 510.8901 376 
L 510.8901 16.2 
" clip-path="url(#pa91a0edcb3)" style="fill: none; stroke: #b0b0b0; stroke-width: 0.8; stroke-linecap: square"/>
     </g>
     <g id="line2d_16">
      <g>
       <use xlink:href="#mc75aad6f6c" x="510.8901" y="376" style="stroke: #000000; stroke-width: 0.8"/>
      </g>
     </g>
     <g id="text_8">
      <!-- 3.25 -->
      <g transform="translate(494.190881 394.397656) scale(0.15 -0.15)">
       <use xlink:href="#DejaVuSans-33"/>
       <use xlink:href="#DejaVuSans-2e" x="63.623047"/>
       <use xlink:href="#DejaVuSans-32" x="95.410156"/>
       <use xlink:href="#DejaVuSans-35" x="159.033203"/>
      </g>
     </g>
    </g>
    <g id="xtick_9">
     <g id="line2d_17">
      <path d="M 569.6284 376 
L 569.6284 16.2 
" clip-path="url(#pa91a0edcb3)" style="fill: none; stroke: #b0b0b0; stroke-width: 0.8; stroke-linecap: square"/>
     </g>
     <g id="line2d_18">
      <g>
       <use xlink:href="#mc75aad6f6c" x="569.6284" y="376" style="stroke: #000000; stroke-width: 0.8"/>
      </g>
     </g>
     <g id="text_9">
      <!-- 3.50 -->
      <g transform="translate(552.929181 394.397656) scale(0.15 -0.15)">
       <use xlink:href="#DejaVuSans-33"/>
       <use xlink:href="#DejaVuSans-2e" x="63.623047"/>
       <use xlink:href="#DejaVuSans-35" x="95.410156"/>
       <use xlink:href="#DejaVuSans-30" x="159.033203"/>
      </g>
     </g>
    </g>
    <g id="xtick_10">
     <g id="line2d_19">
      <path d="M 628.3667 376 
L 628.3667 16.2 
" clip-path="url(#pa91a0edcb3)" style="fill: none; stroke: #b0b0b0; stroke-width: 0.8; stroke-linecap: square"/>
     </g>
     <g id="line2d_20">
      <g>
       <use xlink:href="#mc75aad6f6c" x="628.3667" y="376" style="stroke: #000000; stroke-width: 0.8"/>
      </g>
     </g>
     <g id="text_10">
      <!-- 3.75 -->
      <g transform="translate(611.667481 394.397656) scale(0.15 -0.15)">
       <use xlink:href="#DejaVuSans-33"/>
       <use xlink:href="#DejaVuSans-2e" x="63.623047"/>
       <use xlink:href="#DejaVuSans-37" x="95.410156"/>
       <use xlink:href="#DejaVuSans-35" x="159.033203"/>
      </g>
     </g>
    </g>
    <g id="xtick_11">
     <g id="line2d_21">
      <path d="M 687.105 376 
L 687.105 16.2 
" clip-path="url(#pa91a0edcb3)" style="fill: none; stroke: #b0b0b0; stroke-width: 0.8; stroke-linecap: square"/>
     </g>
     <g id="line2d_22">
      <g>
       <use xlink:href="#mc75aad6f6c" x="687.105" y="376" style="stroke: #000000; stroke-width: 0.8"/>
      </g>
     </g>
     <g id="text_11">
      <!-- 4.00 -->
      <g transform="translate(670.405781 394.397656) scale(0.15 -0.15)">
       <defs>
        <path id="DejaVuSans-34" d="M 2419 4116 
L 825 1625 
L 2419 1625 
L 2419 4116 
z
M 2253 4666 
L 3047 4666 
L 3047 1625 
L 3713 1625 
L 3713 1100 
L 3047 1100 
L 3047 0 
L 2419 0 
L 2419 1100 
L 313 1100 
L 313 1709 
L 2253 4666 
z
" transform="scale(0.015625)"/>
       </defs>
       <use xlink:href="#DejaVuSans-34"/>
       <use xlink:href="#DejaVuSans-2e" x="63.623047"/>
       <use xlink:href="#DejaVuSans-30" x="95.410156"/>
       <use xlink:href="#DejaVuSans-30" x="159.033203"/>
      </g>
     </g>
    </g>
    <g id="text_12">
     <!-- J [-] -->
     <g transform="translate(380.259203 412.914844) scale(0.15 -0.15)">
      <defs>
       <path id="DejaVuSans-4a" d="M 628 4666 
L 1259 4666 
L 1259 325 
Q 1259 -519 939 -900 
Q 619 -1281 -91 -1281 
L -331 -1281 
L -331 -750 
L -134 -750 
Q 284 -750 456 -515 
Q 628 -281 628 325 
L 628 4666 
z
" transform="scale(0.015625)"/>
       <path id="DejaVuSans-20" transform="scale(0.015625)"/>
       <path id="DejaVuSans-5b" d="M 550 4863 
L 1875 4863 
L 1875 4416 
L 1125 4416 
L 1125 -397 
L 1875 -397 
L 1875 -844 
L 550 -844 
L 550 4863 
z
" transform="scale(0.015625)"/>
       <path id="DejaVuSans-2d" d="M 313 2009 
L 1997 2009 
L 1997 1497 
L 313 1497 
L 313 2009 
z
" transform="scale(0.015625)"/>
       <path id="DejaVuSans-5d" d="M 1947 4863 
L 1947 -844 
L 622 -844 
L 622 -397 
L 1369 -397 
L 1369 4416 
L 622 4416 
L 622 4863 
L 1947 4863 
z
" transform="scale(0.015625)"/>
      </defs>
      <use xlink:href="#DejaVuSans-4a"/>
      <use xlink:href="#DejaVuSans-20" x="29.492188"/>
      <use xlink:href="#DejaVuSans-5b" x="61.279297"/>
      <use xlink:href="#DejaVuSans-2d" x="100.292969"/>
      <use xlink:href="#DejaVuSans-5d" x="136.376953"/>
     </g>
    </g>
   </g>
   <g id="matplotlib.axis_2">
    <g id="ytick_1">
     <g id="line2d_23">
      <path d="M 99.722 374.589032 
L 687.105 374.589032 
" clip-path="url(#pa91a0edcb3)" style="fill: none; stroke: #b0b0b0; stroke-width: 0.8; stroke-linecap: square"/>
     </g>
     <g id="line2d_24">
      <defs>
       <path id="mc64b40fc03" d="M 0 0 
L -3.5 0 
" style="stroke: #000000; stroke-width: 0.8"/>
      </defs>
      <g>
       <use xlink:href="#mc64b40fc03" x="99.722" y="374.589032" style="stroke: #000000; stroke-width: 0.8"/>
      </g>
     </g>
     <g id="text_13">
      <!-- −0.045 -->
      <g transform="translate(37.210281 380.28786) scale(0.15 -0.15)">
       <defs>
        <path id="DejaVuSans-2212" d="M 678 2272 
L 4684 2272 
L 4684 1741 
L 678 1741 
L 678 2272 
z
" transform="scale(0.015625)"/>
       </defs>
       <use xlink:href="#DejaVuSans-2212"/>
       <use xlink:href="#DejaVuSans-30" x="83.789062"/>
       <use xlink:href="#DejaVuSans-2e" x="147.412109"/>
       <use xlink:href="#DejaVuSans-30" x="179.199219"/>
       <use xlink:href="#DejaVuSans-34" x="242.822266"/>
       <use xlink:href="#DejaVuSans-35" x="306.445312"/>
      </g>
     </g>
    </g>
    <g id="ytick_2">
     <g id="line2d_25">
      <path d="M 99.722 320.813248 
L 687.105 320.813248 
" clip-path="url(#pa91a0edcb3)" style="fill: none; stroke: #b0b0b0; stroke-width: 0.8; stroke-linecap: square"/>
     </g>
     <g id="line2d_26">
      <g>
       <use xlink:href="#mc64b40fc03" x="99.722" y="320.813248" style="stroke: #000000; stroke-width: 0.8"/>
      </g>
     </g>
     <g id="text_14">
      <!-- −0.040 -->
      <g transform="translate(37.210281 326.512076) scale(0.15 -0.15)">
       <use xlink:href="#DejaVuSans-2212"/>
       <use xlink:href="#DejaVuSans-30" x="83.789062"/>
       <use xlink:href="#DejaVuSans-2e" x="147.412109"/>
       <use xlink:href="#DejaVuSans-30" x="179.199219"/>
       <use xlink:href="#DejaVuSans-34" x="242.822266"/>
       <use xlink:href="#DejaVuSans-30" x="306.445312"/>
      </g>
     </g>
    </g>
    <g id="ytick_3">
     <g id="line2d_27">
      <path d="M 99.722 267.037465 
L 687.105 267.037465 
" clip-path="url(#pa91a0edcb3)" style="fill: none; stroke: #b0b0b0; stroke-width: 0.8; stroke-linecap: square"/>
     </g>
     <g id="line2d_28">
      <g>
       <use xlink:href="#mc64b40fc03" x="99.722" y="267.037465" style="stroke: #000000; stroke-width: 0.8"/>
      </g>
     </g>
     <g id="text_15">
      <!-- −0.035 -->
      <g transform="translate(37.210281 272.736293) scale(0.15 -0.15)">
       <use xlink:href="#DejaVuSans-2212"/>
       <use xlink:href="#DejaVuSans-30" x="83.789062"/>
       <use xlink:href="#DejaVuSans-2e" x="147.412109"/>
       <use xlink:href="#DejaVuSans-30" x="179.199219"/>
       <use xlink:href="#DejaVuSans-33" x="242.822266"/>
       <use xlink:href="#DejaVuSans-35" x="306.445312"/>
      </g>
     </g>
    </g>
    <g id="ytick_4">
     <g id="line2d_29">
      <path d="M 99.722 213.261681 
L 687.105 213.261681 
" clip-path="url(#pa91a0edcb3)" style="fill: none; stroke: #b0b0b0; stroke-width: 0.8; stroke-linecap: square"/>
     </g>
     <g id="line2d_30">
      <g>
       <use xlink:href="#mc64b40fc03" x="99.722" y="213.261681" style="stroke: #000000; stroke-width: 0.8"/>
      </g>
     </g>
     <g id="text_16">
      <!-- −0.030 -->
      <g transform="translate(37.210281 218.960509) scale(0.15 -0.15)">
       <use xlink:href="#DejaVuSans-2212"/>
       <use xlink:href="#DejaVuSans-30" x="83.789062"/>
       <use xlink:href="#DejaVuSans-2e" x="147.412109"/>
       <use xlink:href="#DejaVuSans-30" x="179.199219"/>
       <use xlink:href="#DejaVuSans-33" x="242.822266"/>
       <use xlink:href="#DejaVuSans-30" x="306.445312"/>
      </g>
     </g>
    </g>
    <g id="ytick_5">
     <g id="line2d_31">
      <path d="M 99.722 159.485897 
L 687.105 159.485897 
" clip-path="url(#pa91a0edcb3)" style="fill: none; stroke: #b0b0b0; stroke-width: 0.8; stroke-linecap: square"/>
     </g>
     <g id="line2d_32">
      <g>
       <use xlink:href="#mc64b40fc03" x="99.722" y="159.485897" style="stroke: #000000; stroke-width: 0.8"/>
      </g>
     </g>
     <g id="text_17">
      <!-- −0.025 -->
      <g transform="translate(37.210281 165.184725) scale(0.15 -0.15)">
       <use xlink:href="#DejaVuSans-2212"/>
       <use xlink:href="#DejaVuSans-30" x="83.789062"/>
       <use xlink:href="#DejaVuSans-2e" x="147.412109"/>
       <use xlink:href="#DejaVuSans-30" x="179.199219"/>
       <use xlink:href="#DejaVuSans-32" x="242.822266"/>
       <use xlink:href="#DejaVuSans-35" x="306.445312"/>
      </g>
     </g>
    </g>
    <g id="ytick_6">
     <g id="line2d_33">
      <path d="M 99.722 105.710114 
L 687.105 105.710114 
" clip-path="url(#pa91a0edcb3)" style="fill: none; stroke: #b0b0b0; stroke-width: 0.8; stroke-linecap: square"/>
     </g>
     <g id="line2d_34">
      <g>
       <use xlink:href="#mc64b40fc03" x="99.722" y="105.710114" style="stroke: #000000; stroke-width: 0.8"/>
      </g>
     </g>
     <g id="text_18">
      <!-- −0.020 -->
      <g transform="translate(37.210281 111.408942) scale(0.15 -0.15)">
       <use xlink:href="#DejaVuSans-2212"/>
       <use xlink:href="#DejaVuSans-30" x="83.789062"/>
       <use xlink:href="#DejaVuSans-2e" x="147.412109"/>
       <use xlink:href="#DejaVuSans-30" x="179.199219"/>
       <use xlink:href="#DejaVuSans-32" x="242.822266"/>
       <use xlink:href="#DejaVuSans-30" x="306.445312"/>
      </g>
     </g>
    </g>
    <g id="ytick_7">
     <g id="line2d_35">
      <path d="M 99.722 51.93433 
L 687.105 51.93433 
" clip-path="url(#pa91a0edcb3)" style="fill: none; stroke: #b0b0b0; stroke-width: 0.8; stroke-linecap: square"/>
     </g>
     <g id="line2d_36">
      <g>
       <use xlink:href="#mc64b40fc03" x="99.722" y="51.93433" style="stroke: #000000; stroke-width: 0.8"/>
      </g>
     </g>
     <g id="text_19">
      <!-- −0.015 -->
      <g transform="translate(37.210281 57.633158) scale(0.15 -0.15)">
       <use xlink:href="#DejaVuSans-2212"/>
       <use xlink:href="#DejaVuSans-30" x="83.789062"/>
       <use xlink:href="#DejaVuSans-2e" x="147.412109"/>
       <use xlink:href="#DejaVuSans-30" x="179.199219"/>
       <use xlink:href="#DejaVuSans-31" x="242.822266"/>
       <use xlink:href="#DejaVuSans-35" x="306.445312"/>
      </g>
     </g>
    </g>
    <g id="text_20">
     <!-- $\partial C_M/ \partial \delta_e$ [-] -->
     <g transform="translate(30.09075 235.325) rotate(-90) scale(0.15 -0.15)">
      <defs>
       <path id="DejaVuSans-2202" d="M 1366 -91 
Q 925 -91 638 175 
Q 297 491 297 1063 
Q 297 1656 597 2119 
Q 906 2594 1463 2594 
Q 1828 2594 2116 2366 
Q 2284 2231 2400 2006 
Q 2441 2259 2441 2547 
Q 2441 2969 2341 3213 
Q 2119 3753 1531 3753 
Q 1309 3753 966 3616 
L 966 4141 
Q 1328 4238 1653 4238 
Q 2491 4238 2847 3469 
Q 3013 3106 3013 2566 
Q 3013 2213 2934 1803 
Q 2738 778 2228 291 
Q 1828 -91 1366 -91 
z
M 831 969 
Q 831 656 969 488 
Q 1116 309 1341 309 
Q 1541 309 1700 450 
Q 1925 644 2091 959 
Q 2228 1219 2297 1497 
Q 2019 2169 1538 2169 
Q 1125 2169 944 1625 
Q 831 1288 831 969 
z
" transform="scale(0.015625)"/>
       <path id="DejaVuSans-Oblique-43" d="M 4447 4306 
L 4319 3641 
Q 4019 3944 3683 4091 
Q 3347 4238 2956 4238 
Q 2422 4238 2017 3981 
Q 1613 3725 1319 3200 
Q 1131 2863 1032 2486 
Q 934 2109 934 1728 
Q 934 1091 1264 756 
Q 1594 422 2222 422 
Q 2656 422 3056 561 
Q 3456 700 3834 978 
L 3688 231 
Q 3316 72 2936 -9 
Q 2556 -91 2175 -91 
Q 1278 -91 773 396 
Q 269 884 269 1753 
Q 269 2309 461 2846 
Q 653 3384 1013 3828 
Q 1394 4300 1883 4525 
Q 2372 4750 3022 4750 
Q 3422 4750 3780 4639 
Q 4138 4528 4447 4306 
z
" transform="scale(0.015625)"/>
       <path id="DejaVuSans-Oblique-4d" d="M 1081 4666 
L 2028 4666 
L 2572 1522 
L 4378 4666 
L 5350 4666 
L 4441 0 
L 3828 0 
L 4622 4091 
L 2791 897 
L 2175 897 
L 1581 4103 
L 788 0 
L 172 0 
L 1081 4666 
z
" transform="scale(0.015625)"/>
       <path id="DejaVuSans-2f" d="M 1625 4666 
L 2156 4666 
L 531 -594 
L 0 -594 
L 1625 4666 
z
" transform="scale(0.015625)"/>
       <path id="DejaVuSans-Oblique-3b4" d="M 3472 4053 
Q 3197 4272 2450 4272 
Q 1659 4272 1588 3906 
Q 1531 3619 2328 3469 
Q 2953 3353 3253 3003 
Q 3616 2581 3447 1716 
Q 3284 888 2763 400 
Q 2238 -91 1488 -91 
Q 741 -91 406 400 
Q 72 888 241 1747 
Q 363 2384 891 2900 
Q 1097 3100 1353 3213 
Q 913 3459 1000 3900 
Q 1166 4750 2544 4750 
Q 3234 4750 3566 4531 
L 3472 4053 
z
M 1753 3056 
Q 1525 2966 1306 2738 
Q 969 2384 847 1747 
Q 722 1113 919 756 
Q 1119 397 1584 397 
Q 2044 397 2381 759 
Q 2722 1122 2838 1716 
Q 2956 2338 2731 2638 
Q 2491 2959 2103 2994 
Q 1906 3013 1753 3056 
z
" transform="scale(0.015625)"/>
       <path id="DejaVuSans-Oblique-65" d="M 3078 2063 
Q 3088 2113 3092 2166 
Q 3097 2219 3097 2272 
Q 3097 2653 2873 2875 
Q 2650 3097 2266 3097 
Q 1838 3097 1509 2826 
Q 1181 2556 1013 2059 
L 3078 2063 
z
M 3578 1613 
L 903 1613 
Q 884 1494 878 1425 
Q 872 1356 872 1306 
Q 872 872 1139 634 
Q 1406 397 1894 397 
Q 2269 397 2603 481 
Q 2938 566 3225 728 
L 3116 159 
Q 2806 34 2476 -28 
Q 2147 -91 1806 -91 
Q 1078 -91 686 257 
Q 294 606 294 1247 
Q 294 1794 489 2264 
Q 684 2734 1063 3103 
Q 1306 3334 1642 3459 
Q 1978 3584 2356 3584 
Q 2950 3584 3301 3228 
Q 3653 2872 3653 2272 
Q 3653 2128 3634 1964 
Q 3616 1800 3578 1613 
z
" transform="scale(0.015625)"/>
      </defs>
      <use xlink:href="#DejaVuSans-2202" transform="translate(0 0.015625)"/>
      <use xlink:href="#DejaVuSans-Oblique-43" transform="translate(51.708984 0.015625)"/>
      <use xlink:href="#DejaVuSans-Oblique-4d" transform="translate(121.533203 -16.390625) scale(0.7)"/>
      <use xlink:href="#DejaVuSans-2f" transform="translate(184.663086 0.015625)"/>
      <use xlink:href="#DejaVuSans-2202" transform="translate(218.354492 0.015625)"/>
      <use xlink:href="#DejaVuSans-Oblique-3b4" transform="translate(270.063477 0.015625)"/>
      <use xlink:href="#DejaVuSans-Oblique-65" transform="translate(331.245117 -16.390625) scale(0.7)"/>
      <use xlink:href="#DejaVuSans-20" transform="translate(377.045898 0.015625)"/>
      <use xlink:href="#DejaVuSans-5b" transform="translate(408.833008 0.015625)"/>
      <use xlink:href="#DejaVuSans-2d" transform="translate(447.84668 0.015625)"/>
      <use xlink:href="#DejaVuSans-5d" transform="translate(483.930664 0.015625)"/>
     </g>
    </g>
   </g>
   <g id="line2d_37">
    <path d="M 99.722 82.626446 
L 105.655162 91.244268 
L 111.588323 99.6777 
L 117.521485 107.926742 
L 123.454646 115.991393 
L 129.387808 123.871654 
L 135.32097 131.567525 
L 141.254131 139.079006 
L 147.187293 146.406096 
L 153.120455 153.548795 
L 159.053616 160.507104 
L 164.986778 167.281023 
L 170.919939 173.870552 
L 176.853101 180.27569 
L 182.786263 186.496438 
L 188.719424 192.532795 
L 194.652586 198.384762 
L 200.585747 204.052339 
L 206.518909 209.535525 
L 212.452071 214.834321 
L 218.385232 219.948727 
L 224.318394 224.878742 
L 230.251556 229.624367 
L 236.184717 234.185601 
L 242.117879 238.562446 
L 248.05104 242.754899 
L 253.984202 246.762963 
L 259.917364 250.586636 
L 265.850525 254.225919 
L 271.783687 257.680811 
L 277.716848 260.951313 
L 283.65001 264.037424 
L 289.583172 266.939146 
L 295.516333 269.656477 
L 301.449495 272.189417 
L 307.382657 274.537967 
L 313.315818 276.702127 
L 319.24898 278.681896 
L 325.182141 280.477276 
L 331.115303 282.088264 
L 337.048465 283.514863 
L 342.981626 284.757071 
L 348.914788 285.814888 
L 354.847949 286.688315 
L 360.781111 287.377352 
L 366.714273 287.881999 
L 372.647434 288.202255 
L 378.580596 288.338121 
L 384.513758 288.289596 
L 390.446919 288.056681 
L 396.380081 287.639376 
L 402.313242 287.03768 
L 408.246404 286.251594 
L 414.179566 285.281118 
L 420.112727 284.126251 
L 426.045889 282.786994 
L 431.979051 281.263346 
L 437.912212 279.555308 
L 443.845374 277.66288 
L 449.778535 275.586062 
L 455.711697 273.324853 
L 461.644859 270.879253 
L 467.57802 268.249264 
L 473.511182 265.434884 
L 479.444343 262.436113 
L 485.377505 259.252953 
L 491.310667 255.885401 
L 497.243828 252.33346 
L 503.17699 248.597128 
L 509.110152 244.676406 
L 515.043313 240.571293 
L 520.976475 236.28179 
L 526.909636 231.807897 
L 532.842798 227.149613 
L 538.77596 222.306939 
L 544.709121 217.279875 
L 550.642283 212.06842 
L 556.575444 206.672575 
L 562.508606 201.092339 
L 568.441768 195.327714 
L 574.374929 189.378697 
L 580.308091 183.245291 
L 586.241253 176.927494 
L 592.174414 170.425306 
L 598.107576 163.738729 
L 604.040737 156.867761 
L 609.973899 149.812402 
L 615.907061 142.572654 
L 621.840222 135.148514 
L 627.773384 127.539985 
L 633.706545 119.747065 
L 639.639707 111.769755 
L 645.572869 103.608054 
L 651.50603 95.261963 
L 657.439192 86.731482 
L 663.372354 78.01661 
L 669.305515 69.117348 
L 675.238677 60.033696 
L 681.171838 50.765653 
L 687.105 41.31322 
" clip-path="url(#pa91a0edcb3)" style="fill: none; stroke-dasharray: 9.6,2.4,1.5,2.4; stroke-dashoffset: 0; stroke: #00a6b6; stroke-width: 1.5"/>
   </g>
   <g id="line2d_38">
    <path d="M 99.722 71.690223 
L 105.655162 83.582148 
L 111.588323 95.223313 
L 117.521485 106.613718 
L 123.454646 117.753363 
L 129.387808 128.642248 
L 135.32097 139.280373 
L 141.254131 149.667739 
L 147.187293 159.804344 
L 153.120455 169.69019 
L 159.053616 179.325275 
L 164.986778 188.709601 
L 170.919939 197.843167 
L 176.853101 206.725973 
L 182.786263 215.358019 
L 188.719424 223.739306 
L 194.652586 231.869832 
L 200.585747 239.749599 
L 206.518909 247.378605 
L 212.452071 254.756852 
L 218.385232 261.884339 
L 224.318394 268.761066 
L 230.251556 275.387033 
L 236.184717 281.76224 
L 242.117879 287.886687 
L 248.05104 293.760375 
L 253.984202 299.383302 
L 259.917364 304.75547 
L 265.850525 309.876877 
L 271.783687 314.747525 
L 277.716848 319.367413 
L 283.65001 323.736541 
L 289.583172 327.854909 
L 295.516333 331.722517 
L 301.449495 335.339366 
L 307.382657 338.705454 
L 313.315818 341.820783 
L 319.24898 344.685352 
L 325.182141 347.29916 
L 331.115303 349.662209 
L 337.048465 351.774498 
L 342.981626 353.636028 
L 348.914788 355.246797 
L 354.847949 356.606806 
L 360.781111 357.716056 
L 366.714273 358.574545 
L 372.647434 359.182275 
L 378.580596 359.539245 
L 384.513758 359.645455 
L 390.446919 359.500905 
L 396.380081 359.105595 
L 402.313242 358.459525 
L 408.246404 357.562695 
L 414.179566 356.415106 
L 420.112727 355.016756 
L 426.045889 353.367647 
L 431.979051 351.467778 
L 437.912212 349.317149 
L 443.845374 346.91576 
L 449.778535 344.263611 
L 455.711697 341.360702 
L 461.644859 338.207033 
L 467.57802 334.802605 
L 473.511182 331.147416 
L 479.444343 327.241468 
L 485.377505 323.08476 
L 491.310667 318.677292 
L 497.243828 314.019064 
L 503.17699 309.110076 
L 509.110152 303.950328 
L 515.043313 298.53982 
L 520.976475 292.878553 
L 526.909636 286.966525 
L 532.842798 280.803738 
L 538.77596 274.390191 
L 544.709121 267.725884 
L 550.642283 260.810817 
L 556.575444 253.64499 
L 562.508606 246.228403 
L 568.441768 238.561056 
L 574.374929 230.64295 
L 580.308091 222.474083 
L 586.241253 214.054457 
L 592.174414 205.38407 
L 598.107576 196.462924 
L 604.040737 187.291018 
L 609.973899 177.868352 
L 615.907061 168.194927 
L 621.840222 158.270741 
L 627.773384 148.095795 
L 633.706545 137.67009 
L 639.639707 126.993624 
L 645.572869 116.066399 
L 651.50603 104.888414 
L 657.439192 93.459669 
L 663.372354 81.780164 
L 669.305515 69.849899 
L 675.238677 57.668875 
L 681.171838 45.23709 
L 687.105 32.554545 
" clip-path="url(#pa91a0edcb3)" style="fill: none; stroke-dasharray: 9.6,2.4,1.5,2.4; stroke-dashoffset: 0; stroke: #a50034; stroke-width: 1.5"/>
   </g>
   <g id="line2d_39">
    <path d="M 99.722 173.735712 
L 105.655162 175.686403 
L 111.588323 177.598648 
L 117.521485 179.472446 
L 123.454646 181.307797 
L 129.387808 183.104702 
L 135.32097 184.863159 
L 141.254131 186.583169 
L 147.187293 188.264733 
L 153.120455 189.907849 
L 159.053616 191.512519 
L 164.986778 193.078741 
L 170.919939 194.606517 
L 176.853101 196.095846 
L 182.786263 197.546727 
L 188.719424 198.959162 
L 194.652586 200.33315 
L 200.585747 201.668691 
L 206.518909 202.965785 
L 212.452071 204.224433 
L 218.385232 205.444633 
L 224.318394 206.626386 
L 230.251556 207.769693 
L 236.184717 208.874552 
L 242.117879 209.940965 
L 248.05104 210.96893 
L 253.984202 211.958449 
L 259.917364 212.909521 
L 265.850525 213.822146 
L 271.783687 214.696324 
L 277.716848 215.532055 
L 283.65001 216.329339 
L 289.583172 217.088176 
L 295.516333 217.808566 
L 301.449495 218.490509 
L 307.382657 219.134006 
L 313.315818 219.739055 
L 319.24898 220.305658 
L 325.182141 220.833813 
L 331.115303 221.323522 
L 337.048465 221.774784 
L 342.981626 222.187599 
L 348.914788 222.561966 
L 354.847949 222.897887 
L 360.781111 223.195361 
L 366.714273 223.454389 
L 372.647434 223.674969 
L 378.580596 223.857102 
L 384.513758 224.000788 
L 390.446919 224.106028 
L 396.380081 224.17282 
L 402.313242 224.201166 
L 408.246404 224.191064 
L 414.179566 224.142516 
L 420.112727 224.055521 
L 426.045889 223.930079 
L 431.979051 223.76619 
L 437.912212 223.563854 
L 443.845374 223.323071 
L 449.778535 223.043841 
L 455.711697 222.726164 
L 461.644859 222.37004 
L 467.57802 221.97547 
L 473.511182 221.542452 
L 479.444343 221.070988 
L 485.377505 220.561076 
L 491.310667 220.012718 
L 497.243828 219.425913 
L 503.17699 218.80066 
L 509.110152 218.136961 
L 515.043313 217.434815 
L 520.976475 216.694222 
L 526.909636 215.915182 
L 532.842798 215.097696 
L 538.77596 214.241762 
L 544.709121 213.347381 
L 550.642283 212.414554 
L 556.575444 211.443279 
L 562.508606 210.433558 
L 568.441768 209.385389 
L 574.374929 208.298774 
L 580.308091 207.173712 
L 586.241253 206.010202 
L 592.174414 204.808246 
L 598.107576 203.567843 
L 604.040737 202.288993 
L 609.973899 200.971696 
L 615.907061 199.615953 
L 621.840222 198.221762 
L 627.773384 196.789124 
L 633.706545 195.31804 
L 639.639707 193.808508 
L 645.572869 192.26053 
L 651.50603 190.674104 
L 657.439192 189.049232 
L 663.372354 187.385913 
L 669.305515 185.684147 
L 675.238677 183.943934 
L 681.171838 182.165274 
L 687.105 180.348167 
" clip-path="url(#pa91a0edcb3)" style="fill: none; stroke-dasharray: 9.6,2.4,1.5,2.4; stroke-dashoffset: 0; stroke: #ef60a3; stroke-width: 1.5"/>
   </g>
   <g id="patch_3">
    <path d="M 99.722 376 
L 99.722 16.2 
" style="fill: none; stroke: #000000; stroke-width: 0.8; stroke-linejoin: miter; stroke-linecap: square"/>
   </g>
   <g id="patch_4">
    <path d="M 687.105 376 
L 687.105 16.2 
" style="fill: none; stroke: #000000; stroke-width: 0.8; stroke-linejoin: miter; stroke-linecap: square"/>
   </g>
   <g id="patch_5">
    <path d="M 99.722 376 
L 687.105 376 
" style="fill: none; stroke: #000000; stroke-width: 0.8; stroke-linejoin: miter; stroke-linecap: square"/>
   </g>
   <g id="patch_6">
    <path d="M 99.722 16.2 
L 687.105 16.2 
" style="fill: none; stroke: #000000; stroke-width: 0.8; stroke-linejoin: miter; stroke-linecap: square"/>
   </g>
   <g id="legend_1">
    <g id="patch_7">
     <path d="M 110.222 368.5 
L 242.372 368.5 
Q 245.372 368.5 245.372 365.5 
L 245.372 300.85 
Q 245.372 297.85 242.372 297.85 
L 110.222 297.85 
Q 107.222 297.85 107.222 300.85 
L 107.222 365.5 
Q 107.222 368.5 110.222 368.5 
z
" style="fill: #ffffff; opacity: 0.8; stroke: #cccccc; stroke-linejoin: miter"/>
    </g>
    <g id="line2d_40">
     <path d="M 113.222 310 
L 128.222 310 
L 143.222 310 
" style="fill: none; stroke-dasharray: 9.6,2.4,1.5,2.4; stroke-dashoffset: 0; stroke: #00a6b6; stroke-width: 1.5"/>
    </g>
    <g id="text_21">
     <!-- $\alpha$ = 7 deg -->
     <g transform="translate(155.222 315.25) scale(0.15 -0.15)">
      <defs>
       <path id="DejaVuSans-Oblique-3b1" d="M 2619 1628 
L 2622 2350 
Q 2625 3088 2069 3091 
Q 1653 3094 1394 2747 
Q 1069 2319 959 1747 
Q 825 1059 994 731 
Q 1169 397 1547 397 
Q 1966 397 2319 1063 
L 2619 1628 
z
M 2166 3578 
Q 3141 3594 3128 2584 
Q 3128 2584 3616 3500 
L 4128 3500 
L 3119 1603 
L 3109 919 
Q 3109 766 3194 638 
Q 3291 488 3391 488 
L 3669 488 
L 3575 0 
L 3228 0 
Q 2934 0 2722 263 
Q 2622 394 2619 669 
Q 2416 334 2066 50 
Q 1900 -81 1453 -78 
Q 722 -72 456 397 
Q 184 884 353 1747 
Q 534 2675 1009 3097 
Q 1544 3569 2166 3578 
z
" transform="scale(0.015625)"/>
       <path id="DejaVuSans-3d" d="M 678 2906 
L 4684 2906 
L 4684 2381 
L 678 2381 
L 678 2906 
z
M 678 1631 
L 4684 1631 
L 4684 1100 
L 678 1100 
L 678 1631 
z
" transform="scale(0.015625)"/>
       <path id="DejaVuSans-64" d="M 2906 2969 
L 2906 4863 
L 3481 4863 
L 3481 0 
L 2906 0 
L 2906 525 
Q 2725 213 2448 61 
Q 2172 -91 1784 -91 
Q 1150 -91 751 415 
Q 353 922 353 1747 
Q 353 2572 751 3078 
Q 1150 3584 1784 3584 
Q 2172 3584 2448 3432 
Q 2725 3281 2906 2969 
z
M 947 1747 
Q 947 1113 1208 752 
Q 1469 391 1925 391 
Q 2381 391 2643 752 
Q 2906 1113 2906 1747 
Q 2906 2381 2643 2742 
Q 2381 3103 1925 3103 
Q 1469 3103 1208 2742 
Q 947 2381 947 1747 
z
" transform="scale(0.015625)"/>
       <path id="DejaVuSans-65" d="M 3597 1894 
L 3597 1613 
L 953 1613 
Q 991 1019 1311 708 
Q 1631 397 2203 397 
Q 2534 397 2845 478 
Q 3156 559 3463 722 
L 3463 178 
Q 3153 47 2828 -22 
Q 2503 -91 2169 -91 
Q 1331 -91 842 396 
Q 353 884 353 1716 
Q 353 2575 817 3079 
Q 1281 3584 2069 3584 
Q 2775 3584 3186 3129 
Q 3597 2675 3597 1894 
z
M 3022 2063 
Q 3016 2534 2758 2815 
Q 2500 3097 2075 3097 
Q 1594 3097 1305 2825 
Q 1016 2553 972 2059 
L 3022 2063 
z
" transform="scale(0.015625)"/>
       <path id="DejaVuSans-67" d="M 2906 1791 
Q 2906 2416 2648 2759 
Q 2391 3103 1925 3103 
Q 1463 3103 1205 2759 
Q 947 2416 947 1791 
Q 947 1169 1205 825 
Q 1463 481 1925 481 
Q 2391 481 2648 825 
Q 2906 1169 2906 1791 
z
M 3481 434 
Q 3481 -459 3084 -895 
Q 2688 -1331 1869 -1331 
Q 1566 -1331 1297 -1286 
Q 1028 -1241 775 -1147 
L 775 -588 
Q 1028 -725 1275 -790 
Q 1522 -856 1778 -856 
Q 2344 -856 2625 -561 
Q 2906 -266 2906 331 
L 2906 616 
Q 2728 306 2450 153 
Q 2172 0 1784 0 
Q 1141 0 747 490 
Q 353 981 353 1791 
Q 353 2603 747 3093 
Q 1141 3584 1784 3584 
Q 2172 3584 2450 3431 
Q 2728 3278 2906 2969 
L 2906 3500 
L 3481 3500 
L 3481 434 
z
" transform="scale(0.015625)"/>
      </defs>
      <use xlink:href="#DejaVuSans-Oblique-3b1" transform="translate(0 0.015625)"/>
      <use xlink:href="#DejaVuSans-20" transform="translate(65.917969 0.015625)"/>
      <use xlink:href="#DejaVuSans-3d" transform="translate(97.705078 0.015625)"/>
      <use xlink:href="#DejaVuSans-20" transform="translate(181.494141 0.015625)"/>
      <use xlink:href="#DejaVuSans-37" transform="translate(213.28125 0.015625)"/>
      <use xlink:href="#DejaVuSans-20" transform="translate(276.904297 0.015625)"/>
      <use xlink:href="#DejaVuSans-64" transform="translate(308.691406 0.015625)"/>
      <use xlink:href="#DejaVuSans-65" transform="translate(372.167969 0.015625)"/>
      <use xlink:href="#DejaVuSans-67" transform="translate(433.691406 0.015625)"/>
     </g>
    </g>
    <g id="line2d_41">
     <path d="M 113.222 332.05 
L 128.222 332.05 
L 143.222 332.05 
" style="fill: none; stroke-dasharray: 9.6,2.4,1.5,2.4; stroke-dashoffset: 0; stroke: #a50034; stroke-width: 1.5"/>
    </g>
    <g id="text_22">
     <!-- $\alpha$ = 12 deg -->
     <g transform="translate(155.222 337.3) scale(0.15 -0.15)">
      <use xlink:href="#DejaVuSans-Oblique-3b1" transform="translate(0 0.015625)"/>
      <use xlink:href="#DejaVuSans-20" transform="translate(65.917969 0.015625)"/>
      <use xlink:href="#DejaVuSans-3d" transform="translate(97.705078 0.015625)"/>
      <use xlink:href="#DejaVuSans-20" transform="translate(181.494141 0.015625)"/>
      <use xlink:href="#DejaVuSans-31" transform="translate(213.28125 0.015625)"/>
      <use xlink:href="#DejaVuSans-32" transform="translate(276.904297 0.015625)"/>
      <use xlink:href="#DejaVuSans-20" transform="translate(340.527344 0.015625)"/>
      <use xlink:href="#DejaVuSans-64" transform="translate(372.314453 0.015625)"/>
      <use xlink:href="#DejaVuSans-65" transform="translate(435.791016 0.015625)"/>
      <use xlink:href="#DejaVuSans-67" transform="translate(497.314453 0.015625)"/>
     </g>
    </g>
    <g id="line2d_42">
     <path d="M 113.222 354.1 
L 128.222 354.1 
L 143.222 354.1 
" style="fill: none; stroke-dasharray: 9.6,2.4,1.5,2.4; stroke-dashoffset: 0; stroke: #ef60a3; stroke-width: 1.5"/>
    </g>
    <g id="text_23">
     <!-- $\alpha$ = 14 deg -->
     <g transform="translate(155.222 359.35) scale(0.15 -0.15)">
      <use xlink:href="#DejaVuSans-Oblique-3b1" transform="translate(0 0.015625)"/>
      <use xlink:href="#DejaVuSans-20" transform="translate(65.917969 0.015625)"/>
      <use xlink:href="#DejaVuSans-3d" transform="translate(97.705078 0.015625)"/>
      <use xlink:href="#DejaVuSans-20" transform="translate(181.494141 0.015625)"/>
      <use xlink:href="#DejaVuSans-31" transform="translate(213.28125 0.015625)"/>
      <use xlink:href="#DejaVuSans-34" transform="translate(276.904297 0.015625)"/>
      <use xlink:href="#DejaVuSans-20" transform="translate(340.527344 0.015625)"/>
      <use xlink:href="#DejaVuSans-64" transform="translate(372.314453 0.015625)"/>
      <use xlink:href="#DejaVuSans-65" transform="translate(435.791016 0.015625)"/>
      <use xlink:href="#DejaVuSans-67" transform="translate(497.314453 0.015625)"/>
     </g>
    </g>
   </g>
  </g>
 </g>
 <defs>
  <clipPath id="pa91a0edcb3">
   <rect x="99.722" y="16.2" width="587.383" height="359.8"/>
  </clipPath>
 </defs>
</svg>
