<?xml version="1.0" encoding="utf-8" standalone="no"?>
<!DOCTYPE svg PUBLIC "-//W3C//DTD SVG 1.1//EN"
  "http://www.w3.org/Graphics/SVG/1.1/DTD/svg11.dtd">
<svg xmlns:xlink="http://www.w3.org/1999/xlink" width="720pt" height="432pt" viewBox="0 0 720 432" xmlns="http://www.w3.org/2000/svg" version="1.1">
 <metadata>
  <rdf:RDF xmlns:dc="http://purl.org/dc/elements/1.1/" xmlns:cc="http://creativecommons.org/ns#" xmlns:rdf="http://www.w3.org/1999/02/22-rdf-syntax-ns#">
   <cc:Work>
    <dc:type rdf:resource="http://purl.org/dc/dcmitype/StillImage"/>
    <dc:date>2024-04-02T12:18:21.208220</dc:date>
    <dc:format>image/svg+xml</dc:format>
    <dc:creator>
     <cc:Agent>
      <dc:title>Matplotlib v3.8.3, https://matplotlib.org/</dc:title>
     </cc:Agent>
    </dc:creator>
   </cc:Work>
  </rdf:RDF>
 </metadata>
 <defs>
  <style type="text/css">*{stroke-linejoin: round; stroke-linecap: butt}</style>
 </defs>
 <g id="figure_1">
  <g id="patch_1">
   <path d="M 0 432 
L 720 432 
L 720 0 
L 0 0 
z
" style="fill: #ffffff"/>
  </g>
  <g id="axes_1">
   <g id="patch_2">
    <path d="M 63.362 376 
L 691.875 376 
L 691.875 16.2 
L 63.362 16.2 
z
" style="fill: #ffffff"/>
   </g>
   <g id="PathCollection_1">
    <defs>
     <path id="macc8719241" d="M 0 3 
C 0.795609 3 1.55874 2.683901 2.12132 2.12132 
C 2.683901 1.55874 3 0.795609 3 0 
C 3 -0.795609 2.683901 -1.55874 2.12132 -2.12132 
C 1.55874 -2.683901 0.795609 -3 0 -3 
C -0.795609 -3 -1.55874 -2.683901 -2.12132 -2.12132 
C -2.683901 -1.55874 -3 -0.795609 -3 0 
C -3 0.795609 -2.683901 1.55874 -2.12132 2.12132 
C -1.55874 2.683901 -0.795609 3 0 3 
z
" style="stroke: #00a6b6"/>
    </defs>
    <g clip-path="url(#p651354d300)">
     <use xlink:href="#macc8719241" x="314.7672" y="58.01949" style="fill: #00a6b6; stroke: #00a6b6"/>
     <use xlink:href="#macc8719241" x="346.19285" y="61.677919" style="fill: #00a6b6; stroke: #00a6b6"/>
     <use xlink:href="#macc8719241" x="613.310875" y="88.697801" style="fill: #00a6b6; stroke: #00a6b6"/>
    </g>
   </g>
   <g id="PathCollection_2">
    <defs>
     <path id="m6485dc3f7d" d="M 0 3 
C 0.795609 3 1.55874 2.683901 2.12132 2.12132 
C 2.683901 1.55874 3 0.795609 3 0 
C 3 -0.795609 2.683901 -1.55874 2.12132 -2.12132 
C 1.55874 -2.683901 0.795609 -3 0 -3 
C -0.795609 -3 -1.55874 -2.683901 -2.12132 -2.12132 
C -2.683901 -1.55874 -3 -0.795609 -3 0 
C -3 0.795609 -2.683901 1.55874 -2.12132 2.12132 
C -1.55874 2.683901 -0.795609 3 0 3 
z
" style="stroke: #a50034"/>
    </defs>
    <g clip-path="url(#p651354d300)">
     <use xlink:href="#m6485dc3f7d" x="314.7672" y="263.559014" style="fill: #a50034; stroke: #a50034"/>
     <use xlink:href="#m6485dc3f7d" x="346.19285" y="268.861561" style="fill: #a50034; stroke: #a50034"/>
     <use xlink:href="#m6485dc3f7d" x="613.310875" y="290.054189" style="fill: #a50034; stroke: #a50034"/>
    </g>
   </g>
   <g id="PathCollection_3">
    <defs>
     <path id="m53d7b4d585" d="M 0 3 
C 0.795609 3 1.55874 2.683901 2.12132 2.12132 
C 2.683901 1.55874 3 0.795609 3 0 
C 3 -0.795609 2.683901 -1.55874 2.12132 -2.12132 
C 1.55874 -2.683901 0.795609 -3 0 -3 
C -0.795609 -3 -1.55874 -2.683901 -2.12132 -2.12132 
C -2.683901 -1.55874 -3 -0.795609 -3 0 
C -3 0.795609 -2.683901 1.55874 -2.12132 2.12132 
C -1.55874 2.683901 -0.795609 3 0 3 
z
" style="stroke: #ef60a3"/>
    </defs>
    <g clip-path="url(#p651354d300)">
     <use xlink:href="#m53d7b4d585" x="314.7672" y="331.981037" style="fill: #ef60a3; stroke: #ef60a3"/>
     <use xlink:href="#m53d7b4d585" x="346.19285" y="335.826205" style="fill: #ef60a3; stroke: #ef60a3"/>
     <use xlink:href="#m53d7b4d585" x="613.310875" y="353.950676" style="fill: #ef60a3; stroke: #ef60a3"/>
    </g>
   </g>
   <g id="matplotlib.axis_1">
    <g id="xtick_1">
     <g id="line2d_1">
      <path d="M 63.362 376 
L 63.362 16.2 
" clip-path="url(#p651354d300)" style="fill: none; stroke: #b0b0b0; stroke-width: 0.8; stroke-linecap: square"/>
     </g>
     <g id="line2d_2">
      <defs>
       <path id="m88ea9884e2" d="M 0 0 
L 0 3.5 
" style="stroke: #000000; stroke-width: 0.8"/>
      </defs>
      <g>
       <use xlink:href="#m88ea9884e2" x="63.362" y="376" style="stroke: #000000; stroke-width: 0.8"/>
      </g>
     </g>
     <g id="text_1">
      <!-- 0.0 -->
      <g transform="translate(51.434656 394.397656) scale(0.15 -0.15)">
       <defs>
        <path id="DejaVuSans-30" d="M 2034 4250 
Q 1547 4250 1301 3770 
Q 1056 3291 1056 2328 
Q 1056 1369 1301 889 
Q 1547 409 2034 409 
Q 2525 409 2770 889 
Q 3016 1369 3016 2328 
Q 3016 3291 2770 3770 
Q 2525 4250 2034 4250 
z
M 2034 4750 
Q 2819 4750 3233 4129 
Q 3647 3509 3647 2328 
Q 3647 1150 3233 529 
Q 2819 -91 2034 -91 
Q 1250 -91 836 529 
Q 422 1150 422 2328 
Q 422 3509 836 4129 
Q 1250 4750 2034 4750 
z
" transform="scale(0.015625)"/>
        <path id="DejaVuSans-2e" d="M 684 794 
L 1344 794 
L 1344 0 
L 684 0 
L 684 794 
z
" transform="scale(0.015625)"/>
       </defs>
       <use xlink:href="#DejaVuSans-30"/>
       <use xlink:href="#DejaVuSans-2e" x="63.623047"/>
       <use xlink:href="#DejaVuSans-30" x="95.410156"/>
      </g>
     </g>
    </g>
    <g id="xtick_2">
     <g id="line2d_3">
      <path d="M 126.2133 376 
L 126.2133 16.2 
" clip-path="url(#p651354d300)" style="fill: none; stroke: #b0b0b0; stroke-width: 0.8; stroke-linecap: square"/>
     </g>
     <g id="line2d_4">
      <g>
       <use xlink:href="#m88ea9884e2" x="126.2133" y="376" style="stroke: #000000; stroke-width: 0.8"/>
      </g>
     </g>
     <g id="text_2">
      <!-- 0.4 -->
      <g transform="translate(114.285956 394.397656) scale(0.15 -0.15)">
       <defs>
        <path id="DejaVuSans-34" d="M 2419 4116 
L 825 1625 
L 2419 1625 
L 2419 4116 
z
M 2253 4666 
L 3047 4666 
L 3047 1625 
L 3713 1625 
L 3713 1100 
L 3047 1100 
L 3047 0 
L 2419 0 
L 2419 1100 
L 313 1100 
L 313 1709 
L 2253 4666 
z
" transform="scale(0.015625)"/>
       </defs>
       <use xlink:href="#DejaVuSans-30"/>
       <use xlink:href="#DejaVuSans-2e" x="63.623047"/>
       <use xlink:href="#DejaVuSans-34" x="95.410156"/>
      </g>
     </g>
    </g>
    <g id="xtick_3">
     <g id="line2d_5">
      <path d="M 189.0646 376 
L 189.0646 16.2 
" clip-path="url(#p651354d300)" style="fill: none; stroke: #b0b0b0; stroke-width: 0.8; stroke-linecap: square"/>
     </g>
     <g id="line2d_6">
      <g>
       <use xlink:href="#m88ea9884e2" x="189.0646" y="376" style="stroke: #000000; stroke-width: 0.8"/>
      </g>
     </g>
     <g id="text_3">
      <!-- 0.8 -->
      <g transform="translate(177.137256 394.397656) scale(0.15 -0.15)">
       <defs>
        <path id="DejaVuSans-38" d="M 2034 2216 
Q 1584 2216 1326 1975 
Q 1069 1734 1069 1313 
Q 1069 891 1326 650 
Q 1584 409 2034 409 
Q 2484 409 2743 651 
Q 3003 894 3003 1313 
Q 3003 1734 2745 1975 
Q 2488 2216 2034 2216 
z
M 1403 2484 
Q 997 2584 770 2862 
Q 544 3141 544 3541 
Q 544 4100 942 4425 
Q 1341 4750 2034 4750 
Q 2731 4750 3128 4425 
Q 3525 4100 3525 3541 
Q 3525 3141 3298 2862 
Q 3072 2584 2669 2484 
Q 3125 2378 3379 2068 
Q 3634 1759 3634 1313 
Q 3634 634 3220 271 
Q 2806 -91 2034 -91 
Q 1263 -91 848 271 
Q 434 634 434 1313 
Q 434 1759 690 2068 
Q 947 2378 1403 2484 
z
M 1172 3481 
Q 1172 3119 1398 2916 
Q 1625 2713 2034 2713 
Q 2441 2713 2670 2916 
Q 2900 3119 2900 3481 
Q 2900 3844 2670 4047 
Q 2441 4250 2034 4250 
Q 1625 4250 1398 4047 
Q 1172 3844 1172 3481 
z
" transform="scale(0.015625)"/>
       </defs>
       <use xlink:href="#DejaVuSans-30"/>
       <use xlink:href="#DejaVuSans-2e" x="63.623047"/>
       <use xlink:href="#DejaVuSans-38" x="95.410156"/>
      </g>
     </g>
    </g>
    <g id="xtick_4">
     <g id="line2d_7">
      <path d="M 251.9159 376 
L 251.9159 16.2 
" clip-path="url(#p651354d300)" style="fill: none; stroke: #b0b0b0; stroke-width: 0.8; stroke-linecap: square"/>
     </g>
     <g id="line2d_8">
      <g>
       <use xlink:href="#m88ea9884e2" x="251.9159" y="376" style="stroke: #000000; stroke-width: 0.8"/>
      </g>
     </g>
     <g id="text_4">
      <!-- 1.2 -->
      <g transform="translate(239.988556 394.397656) scale(0.15 -0.15)">
       <defs>
        <path id="DejaVuSans-31" d="M 794 531 
L 1825 531 
L 1825 4091 
L 703 3866 
L 703 4441 
L 1819 4666 
L 2450 4666 
L 2450 531 
L 3481 531 
L 3481 0 
L 794 0 
L 794 531 
z
" transform="scale(0.015625)"/>
        <path id="DejaVuSans-32" d="M 1228 531 
L 3431 531 
L 3431 0 
L 469 0 
L 469 531 
Q 828 903 1448 1529 
Q 2069 2156 2228 2338 
Q 2531 2678 2651 2914 
Q 2772 3150 2772 3378 
Q 2772 3750 2511 3984 
Q 2250 4219 1831 4219 
Q 1534 4219 1204 4116 
Q 875 4013 500 3803 
L 500 4441 
Q 881 4594 1212 4672 
Q 1544 4750 1819 4750 
Q 2544 4750 2975 4387 
Q 3406 4025 3406 3419 
Q 3406 3131 3298 2873 
Q 3191 2616 2906 2266 
Q 2828 2175 2409 1742 
Q 1991 1309 1228 531 
z
" transform="scale(0.015625)"/>
       </defs>
       <use xlink:href="#DejaVuSans-31"/>
       <use xlink:href="#DejaVuSans-2e" x="63.623047"/>
       <use xlink:href="#DejaVuSans-32" x="95.410156"/>
      </g>
     </g>
    </g>
    <g id="xtick_5">
     <g id="line2d_9">
      <path d="M 314.7672 376 
L 314.7672 16.2 
" clip-path="url(#p651354d300)" style="fill: none; stroke: #b0b0b0; stroke-width: 0.8; stroke-linecap: square"/>
     </g>
     <g id="line2d_10">
      <g>
       <use xlink:href="#m88ea9884e2" x="314.7672" y="376" style="stroke: #000000; stroke-width: 0.8"/>
      </g>
     </g>
     <g id="text_5">
      <!-- 1.6 -->
      <g transform="translate(302.839856 394.397656) scale(0.15 -0.15)">
       <defs>
        <path id="DejaVuSans-36" d="M 2113 2584 
Q 1688 2584 1439 2293 
Q 1191 2003 1191 1497 
Q 1191 994 1439 701 
Q 1688 409 2113 409 
Q 2538 409 2786 701 
Q 3034 994 3034 1497 
Q 3034 2003 2786 2293 
Q 2538 2584 2113 2584 
z
M 3366 4563 
L 3366 3988 
Q 3128 4100 2886 4159 
Q 2644 4219 2406 4219 
Q 1781 4219 1451 3797 
Q 1122 3375 1075 2522 
Q 1259 2794 1537 2939 
Q 1816 3084 2150 3084 
Q 2853 3084 3261 2657 
Q 3669 2231 3669 1497 
Q 3669 778 3244 343 
Q 2819 -91 2113 -91 
Q 1303 -91 875 529 
Q 447 1150 447 2328 
Q 447 3434 972 4092 
Q 1497 4750 2381 4750 
Q 2619 4750 2861 4703 
Q 3103 4656 3366 4563 
z
" transform="scale(0.015625)"/>
       </defs>
       <use xlink:href="#DejaVuSans-31"/>
       <use xlink:href="#DejaVuSans-2e" x="63.623047"/>
       <use xlink:href="#DejaVuSans-36" x="95.410156"/>
      </g>
     </g>
    </g>
    <g id="xtick_6">
     <g id="line2d_11">
      <path d="M 377.6185 376 
L 377.6185 16.2 
" clip-path="url(#p651354d300)" style="fill: none; stroke: #b0b0b0; stroke-width: 0.8; stroke-linecap: square"/>
     </g>
     <g id="line2d_12">
      <g>
       <use xlink:href="#m88ea9884e2" x="377.6185" y="376" style="stroke: #000000; stroke-width: 0.8"/>
      </g>
     </g>
     <g id="text_6">
      <!-- 2.0 -->
      <g transform="translate(365.691156 394.397656) scale(0.15 -0.15)">
       <use xlink:href="#DejaVuSans-32"/>
       <use xlink:href="#DejaVuSans-2e" x="63.623047"/>
       <use xlink:href="#DejaVuSans-30" x="95.410156"/>
      </g>
     </g>
    </g>
    <g id="xtick_7">
     <g id="line2d_13">
      <path d="M 440.4698 376 
L 440.4698 16.2 
" clip-path="url(#p651354d300)" style="fill: none; stroke: #b0b0b0; stroke-width: 0.8; stroke-linecap: square"/>
     </g>
     <g id="line2d_14">
      <g>
       <use xlink:href="#m88ea9884e2" x="440.4698" y="376" style="stroke: #000000; stroke-width: 0.8"/>
      </g>
     </g>
     <g id="text_7">
      <!-- 2.4 -->
      <g transform="translate(428.542456 394.397656) scale(0.15 -0.15)">
       <use xlink:href="#DejaVuSans-32"/>
       <use xlink:href="#DejaVuSans-2e" x="63.623047"/>
       <use xlink:href="#DejaVuSans-34" x="95.410156"/>
      </g>
     </g>
    </g>
    <g id="xtick_8">
     <g id="line2d_15">
      <path d="M 503.3211 376 
L 503.3211 16.2 
" clip-path="url(#p651354d300)" style="fill: none; stroke: #b0b0b0; stroke-width: 0.8; stroke-linecap: square"/>
     </g>
     <g id="line2d_16">
      <g>
       <use xlink:href="#m88ea9884e2" x="503.3211" y="376" style="stroke: #000000; stroke-width: 0.8"/>
      </g>
     </g>
     <g id="text_8">
      <!-- 2.8 -->
      <g transform="translate(491.393756 394.397656) scale(0.15 -0.15)">
       <use xlink:href="#DejaVuSans-32"/>
       <use xlink:href="#DejaVuSans-2e" x="63.623047"/>
       <use xlink:href="#DejaVuSans-38" x="95.410156"/>
      </g>
     </g>
    </g>
    <g id="xtick_9">
     <g id="line2d_17">
      <path d="M 566.1724 376 
L 566.1724 16.2 
" clip-path="url(#p651354d300)" style="fill: none; stroke: #b0b0b0; stroke-width: 0.8; stroke-linecap: square"/>
     </g>
     <g id="line2d_18">
      <g>
       <use xlink:href="#m88ea9884e2" x="566.1724" y="376" style="stroke: #000000; stroke-width: 0.8"/>
      </g>
     </g>
     <g id="text_9">
      <!-- 3.2 -->
      <g transform="translate(554.245056 394.397656) scale(0.15 -0.15)">
       <defs>
        <path id="DejaVuSans-33" d="M 2597 2516 
Q 3050 2419 3304 2112 
Q 3559 1806 3559 1356 
Q 3559 666 3084 287 
Q 2609 -91 1734 -91 
Q 1441 -91 1130 -33 
Q 819 25 488 141 
L 488 750 
Q 750 597 1062 519 
Q 1375 441 1716 441 
Q 2309 441 2620 675 
Q 2931 909 2931 1356 
Q 2931 1769 2642 2001 
Q 2353 2234 1838 2234 
L 1294 2234 
L 1294 2753 
L 1863 2753 
Q 2328 2753 2575 2939 
Q 2822 3125 2822 3475 
Q 2822 3834 2567 4026 
Q 2313 4219 1838 4219 
Q 1578 4219 1281 4162 
Q 984 4106 628 3988 
L 628 4550 
Q 988 4650 1302 4700 
Q 1616 4750 1894 4750 
Q 2613 4750 3031 4423 
Q 3450 4097 3450 3541 
Q 3450 3153 3228 2886 
Q 3006 2619 2597 2516 
z
" transform="scale(0.015625)"/>
       </defs>
       <use xlink:href="#DejaVuSans-33"/>
       <use xlink:href="#DejaVuSans-2e" x="63.623047"/>
       <use xlink:href="#DejaVuSans-32" x="95.410156"/>
      </g>
     </g>
    </g>
    <g id="xtick_10">
     <g id="line2d_19">
      <path d="M 629.0237 376 
L 629.0237 16.2 
" clip-path="url(#p651354d300)" style="fill: none; stroke: #b0b0b0; stroke-width: 0.8; stroke-linecap: square"/>
     </g>
     <g id="line2d_20">
      <g>
       <use xlink:href="#m88ea9884e2" x="629.0237" y="376" style="stroke: #000000; stroke-width: 0.8"/>
      </g>
     </g>
     <g id="text_10">
      <!-- 3.6 -->
      <g transform="translate(617.096356 394.397656) scale(0.15 -0.15)">
       <use xlink:href="#DejaVuSans-33"/>
       <use xlink:href="#DejaVuSans-2e" x="63.623047"/>
       <use xlink:href="#DejaVuSans-36" x="95.410156"/>
      </g>
     </g>
    </g>
    <g id="xtick_11">
     <g id="line2d_21">
      <path d="M 691.875 376 
L 691.875 16.2 
" clip-path="url(#p651354d300)" style="fill: none; stroke: #b0b0b0; stroke-width: 0.8; stroke-linecap: square"/>
     </g>
     <g id="line2d_22">
      <g>
       <use xlink:href="#m88ea9884e2" x="691.875" y="376" style="stroke: #000000; stroke-width: 0.8"/>
      </g>
     </g>
     <g id="text_11">
      <!-- 4.0 -->
      <g transform="translate(679.947656 394.397656) scale(0.15 -0.15)">
       <use xlink:href="#DejaVuSans-34"/>
       <use xlink:href="#DejaVuSans-2e" x="63.623047"/>
       <use xlink:href="#DejaVuSans-30" x="95.410156"/>
      </g>
     </g>
    </g>
    <g id="text_12">
     <!-- J [-] -->
     <g transform="translate(364.464203 412.914844) scale(0.15 -0.15)">
      <defs>
       <path id="DejaVuSans-4a" d="M 628 4666 
L 1259 4666 
L 1259 325 
Q 1259 -519 939 -900 
Q 619 -1281 -91 -1281 
L -331 -1281 
L -331 -750 
L -134 -750 
Q 284 -750 456 -515 
Q 628 -281 628 325 
L 628 4666 
z
" transform="scale(0.015625)"/>
       <path id="DejaVuSans-20" transform="scale(0.015625)"/>
       <path id="DejaVuSans-5b" d="M 550 4863 
L 1875 4863 
L 1875 4416 
L 1125 4416 
L 1125 -397 
L 1875 -397 
L 1875 -844 
L 550 -844 
L 550 4863 
z
" transform="scale(0.015625)"/>
       <path id="DejaVuSans-2d" d="M 313 2009 
L 1997 2009 
L 1997 1497 
L 313 1497 
L 313 2009 
z
" transform="scale(0.015625)"/>
       <path id="DejaVuSans-5d" d="M 1947 4863 
L 1947 -844 
L 622 -844 
L 622 -397 
L 1369 -397 
L 1369 4416 
L 622 4416 
L 622 4863 
L 1947 4863 
z
" transform="scale(0.015625)"/>
      </defs>
      <use xlink:href="#DejaVuSans-4a"/>
      <use xlink:href="#DejaVuSans-20" x="29.492188"/>
      <use xlink:href="#DejaVuSans-5b" x="61.279297"/>
      <use xlink:href="#DejaVuSans-2d" x="100.292969"/>
      <use xlink:href="#DejaVuSans-5d" x="136.376953"/>
     </g>
    </g>
   </g>
   <g id="matplotlib.axis_2">
    <g id="ytick_1">
     <g id="line2d_23">
      <path d="M 63.362 359.522208 
L 691.875 359.522208 
" clip-path="url(#p651354d300)" style="fill: none; stroke: #b0b0b0; stroke-width: 0.8; stroke-linecap: square"/>
     </g>
     <g id="line2d_24">
      <defs>
       <path id="m360d23178f" d="M 0 0 
L -3.5 0 
" style="stroke: #000000; stroke-width: 0.8"/>
      </defs>
      <g>
       <use xlink:href="#m360d23178f" x="63.362" y="359.522208" style="stroke: #000000; stroke-width: 0.8"/>
      </g>
     </g>
     <g id="text_13">
      <!-- 8 -->
      <g transform="translate(46.81825 365.221036) scale(0.15 -0.15)">
       <use xlink:href="#DejaVuSans-38"/>
      </g>
     </g>
    </g>
    <g id="ytick_2">
     <g id="line2d_25">
      <path d="M 63.362 285.216173 
L 691.875 285.216173 
" clip-path="url(#p651354d300)" style="fill: none; stroke: #b0b0b0; stroke-width: 0.8; stroke-linecap: square"/>
     </g>
     <g id="line2d_26">
      <g>
       <use xlink:href="#m360d23178f" x="63.362" y="285.216173" style="stroke: #000000; stroke-width: 0.8"/>
      </g>
     </g>
     <g id="text_14">
      <!-- 10 -->
      <g transform="translate(37.2745 290.915001) scale(0.15 -0.15)">
       <use xlink:href="#DejaVuSans-31"/>
       <use xlink:href="#DejaVuSans-30" x="63.623047"/>
      </g>
     </g>
    </g>
    <g id="ytick_3">
     <g id="line2d_27">
      <path d="M 63.362 210.910137 
L 691.875 210.910137 
" clip-path="url(#p651354d300)" style="fill: none; stroke: #b0b0b0; stroke-width: 0.8; stroke-linecap: square"/>
     </g>
     <g id="line2d_28">
      <g>
       <use xlink:href="#m360d23178f" x="63.362" y="210.910137" style="stroke: #000000; stroke-width: 0.8"/>
      </g>
     </g>
     <g id="text_15">
      <!-- 12 -->
      <g transform="translate(37.2745 216.608965) scale(0.15 -0.15)">
       <use xlink:href="#DejaVuSans-31"/>
       <use xlink:href="#DejaVuSans-32" x="63.623047"/>
      </g>
     </g>
    </g>
    <g id="ytick_4">
     <g id="line2d_29">
      <path d="M 63.362 136.604102 
L 691.875 136.604102 
" clip-path="url(#p651354d300)" style="fill: none; stroke: #b0b0b0; stroke-width: 0.8; stroke-linecap: square"/>
     </g>
     <g id="line2d_30">
      <g>
       <use xlink:href="#m360d23178f" x="63.362" y="136.604102" style="stroke: #000000; stroke-width: 0.8"/>
      </g>
     </g>
     <g id="text_16">
      <!-- 14 -->
      <g transform="translate(37.2745 142.30293) scale(0.15 -0.15)">
       <use xlink:href="#DejaVuSans-31"/>
       <use xlink:href="#DejaVuSans-34" x="63.623047"/>
      </g>
     </g>
    </g>
    <g id="ytick_5">
     <g id="line2d_31">
      <path d="M 63.362 62.298066 
L 691.875 62.298066 
" clip-path="url(#p651354d300)" style="fill: none; stroke: #b0b0b0; stroke-width: 0.8; stroke-linecap: square"/>
     </g>
     <g id="line2d_32">
      <g>
       <use xlink:href="#m360d23178f" x="63.362" y="62.298066" style="stroke: #000000; stroke-width: 0.8"/>
      </g>
     </g>
     <g id="text_17">
      <!-- 16 -->
      <g transform="translate(37.2745 67.996894) scale(0.15 -0.15)">
       <use xlink:href="#DejaVuSans-31"/>
       <use xlink:href="#DejaVuSans-36" x="63.623047"/>
      </g>
     </g>
    </g>
    <g id="text_18">
     <!-- $C_L$/$C_D$ [-] (trim) -->
     <g transform="translate(30.154969 251.075) rotate(-90) scale(0.15 -0.15)">
      <defs>
       <path id="DejaVuSans-Oblique-43" d="M 4447 4306 
L 4319 3641 
Q 4019 3944 3683 4091 
Q 3347 4238 2956 4238 
Q 2422 4238 2017 3981 
Q 1613 3725 1319 3200 
Q 1131 2863 1032 2486 
Q 934 2109 934 1728 
Q 934 1091 1264 756 
Q 1594 422 2222 422 
Q 2656 422 3056 561 
Q 3456 700 3834 978 
L 3688 231 
Q 3316 72 2936 -9 
Q 2556 -91 2175 -91 
Q 1278 -91 773 396 
Q 269 884 269 1753 
Q 269 2309 461 2846 
Q 653 3384 1013 3828 
Q 1394 4300 1883 4525 
Q 2372 4750 3022 4750 
Q 3422 4750 3780 4639 
Q 4138 4528 4447 4306 
z
" transform="scale(0.015625)"/>
       <path id="DejaVuSans-Oblique-4c" d="M 1075 4666 
L 1709 4666 
L 909 525 
L 3181 525 
L 3078 0 
L 172 0 
L 1075 4666 
z
" transform="scale(0.015625)"/>
       <path id="DejaVuSans-2f" d="M 1625 4666 
L 2156 4666 
L 531 -594 
L 0 -594 
L 1625 4666 
z
" transform="scale(0.015625)"/>
       <path id="DejaVuSans-Oblique-44" d="M 1081 4666 
L 2438 4666 
Q 3519 4666 4070 4208 
Q 4622 3750 4622 2847 
Q 4622 2250 4412 1698 
Q 4203 1147 3834 769 
Q 3463 381 2891 190 
Q 2319 0 1538 0 
L 172 0 
L 1081 4666 
z
M 1613 4147 
L 909 519 
L 1734 519 
Q 2794 519 3375 1128 
Q 3956 1738 3956 2847 
Q 3956 3519 3581 3833 
Q 3206 4147 2406 4147 
L 1613 4147 
z
" transform="scale(0.015625)"/>
       <path id="DejaVuSans-28" d="M 1984 4856 
Q 1566 4138 1362 3434 
Q 1159 2731 1159 2009 
Q 1159 1288 1364 580 
Q 1569 -128 1984 -844 
L 1484 -844 
Q 1016 -109 783 600 
Q 550 1309 550 2009 
Q 550 2706 781 3412 
Q 1013 4119 1484 4856 
L 1984 4856 
z
" transform="scale(0.015625)"/>
       <path id="DejaVuSans-74" d="M 1172 4494 
L 1172 3500 
L 2356 3500 
L 2356 3053 
L 1172 3053 
L 1172 1153 
Q 1172 725 1289 603 
Q 1406 481 1766 481 
L 2356 481 
L 2356 0 
L 1766 0 
Q 1100 0 847 248 
Q 594 497 594 1153 
L 594 3053 
L 172 3053 
L 172 3500 
L 594 3500 
L 594 4494 
L 1172 4494 
z
" transform="scale(0.015625)"/>
       <path id="DejaVuSans-72" d="M 2631 2963 
Q 2534 3019 2420 3045 
Q 2306 3072 2169 3072 
Q 1681 3072 1420 2755 
Q 1159 2438 1159 1844 
L 1159 0 
L 581 0 
L 581 3500 
L 1159 3500 
L 1159 2956 
Q 1341 3275 1631 3429 
Q 1922 3584 2338 3584 
Q 2397 3584 2469 3576 
Q 2541 3569 2628 3553 
L 2631 2963 
z
" transform="scale(0.015625)"/>
       <path id="DejaVuSans-69" d="M 603 3500 
L 1178 3500 
L 1178 0 
L 603 0 
L 603 3500 
z
M 603 4863 
L 1178 4863 
L 1178 4134 
L 603 4134 
L 603 4863 
z
" transform="scale(0.015625)"/>
       <path id="DejaVuSans-6d" d="M 3328 2828 
Q 3544 3216 3844 3400 
Q 4144 3584 4550 3584 
Q 5097 3584 5394 3201 
Q 5691 2819 5691 2113 
L 5691 0 
L 5113 0 
L 5113 2094 
Q 5113 2597 4934 2840 
Q 4756 3084 4391 3084 
Q 3944 3084 3684 2787 
Q 3425 2491 3425 1978 
L 3425 0 
L 2847 0 
L 2847 2094 
Q 2847 2600 2669 2842 
Q 2491 3084 2119 3084 
Q 1678 3084 1418 2786 
Q 1159 2488 1159 1978 
L 1159 0 
L 581 0 
L 581 3500 
L 1159 3500 
L 1159 2956 
Q 1356 3278 1631 3431 
Q 1906 3584 2284 3584 
Q 2666 3584 2933 3390 
Q 3200 3197 3328 2828 
z
" transform="scale(0.015625)"/>
       <path id="DejaVuSans-29" d="M 513 4856 
L 1013 4856 
Q 1481 4119 1714 3412 
Q 1947 2706 1947 2009 
Q 1947 1309 1714 600 
Q 1481 -109 1013 -844 
L 513 -844 
Q 928 -128 1133 580 
Q 1338 1288 1338 2009 
Q 1338 2731 1133 3434 
Q 928 4138 513 4856 
z
" transform="scale(0.015625)"/>
      </defs>
      <use xlink:href="#DejaVuSans-Oblique-43" transform="translate(0 0.015625)"/>
      <use xlink:href="#DejaVuSans-Oblique-4c" transform="translate(69.824219 -16.390625) scale(0.7)"/>
      <use xlink:href="#DejaVuSans-2f" transform="translate(111.557617 0.015625)"/>
      <use xlink:href="#DejaVuSans-Oblique-43" transform="translate(145.249023 0.015625)"/>
      <use xlink:href="#DejaVuSans-Oblique-44" transform="translate(215.073242 -16.390625) scale(0.7)"/>
      <use xlink:href="#DejaVuSans-20" transform="translate(271.708984 0.015625)"/>
      <use xlink:href="#DejaVuSans-5b" transform="translate(303.496094 0.015625)"/>
      <use xlink:href="#DejaVuSans-2d" transform="translate(342.509766 0.015625)"/>
      <use xlink:href="#DejaVuSans-5d" transform="translate(378.59375 0.015625)"/>
      <use xlink:href="#DejaVuSans-20" transform="translate(417.607422 0.015625)"/>
      <use xlink:href="#DejaVuSans-28" transform="translate(449.394531 0.015625)"/>
      <use xlink:href="#DejaVuSans-74" transform="translate(488.408203 0.015625)"/>
      <use xlink:href="#DejaVuSans-72" transform="translate(527.617188 0.015625)"/>
      <use xlink:href="#DejaVuSans-69" transform="translate(568.730469 0.015625)"/>
      <use xlink:href="#DejaVuSans-6d" transform="translate(596.513672 0.015625)"/>
      <use xlink:href="#DejaVuSans-29" transform="translate(693.925781 0.015625)"/>
     </g>
    </g>
   </g>
   <g id="line2d_33">
    <path d="M 63.362 32.554545 
L 69.710616 33.202952 
L 76.059232 33.851358 
L 82.407848 34.499764 
L 88.756465 35.14817 
L 95.105081 35.796577 
L 101.453697 36.444983 
L 107.802313 37.093389 
L 114.150929 37.741795 
L 120.499545 38.390202 
L 126.848162 39.038608 
L 133.196778 39.687014 
L 139.545394 40.33542 
L 145.89401 40.983826 
L 152.242626 41.632233 
L 158.591242 42.280639 
L 164.939859 42.929045 
L 171.288475 43.577451 
L 177.637091 44.225858 
L 183.985707 44.874264 
L 190.334323 45.52267 
L 196.682939 46.171076 
L 203.031556 46.819482 
L 209.380172 47.467889 
L 215.728788 48.116295 
L 222.077404 48.764701 
L 228.42602 49.413107 
L 234.774636 50.061514 
L 241.123253 50.70992 
L 247.471869 51.358326 
L 253.820485 52.006732 
L 260.169101 52.655139 
L 266.517717 53.303545 
L 272.866333 53.951951 
L 279.214949 54.600357 
L 285.563566 55.248763 
L 291.912182 55.89717 
L 298.260798 56.545576 
L 304.609414 57.193982 
L 310.95803 57.842388 
L 317.306646 58.490795 
L 323.655263 59.139201 
L 330.003879 59.787607 
L 336.352495 60.436013 
L 342.701111 61.08442 
L 349.049727 61.732826 
L 355.398343 62.381232 
L 361.74696 63.029638 
L 368.095576 63.678044 
L 374.444192 64.326451 
L 380.792808 64.974857 
L 387.141424 65.623263 
L 393.49004 66.271669 
L 399.838657 66.920076 
L 406.187273 67.568482 
L 412.535889 68.216888 
L 418.884505 68.865294 
L 425.233121 69.5137 
L 431.581737 70.162107 
L 437.930354 70.810513 
L 444.27897 71.458919 
L 450.627586 72.107325 
L 456.976202 72.755732 
L 463.324818 73.404138 
L 469.673434 74.052544 
L 476.022051 74.70095 
L 482.370667 75.349357 
L 488.719283 75.997763 
L 495.067899 76.646169 
L 501.416515 77.294575 
L 507.765131 77.942981 
L 514.113747 78.591388 
L 520.462364 79.239794 
L 526.81098 79.8882 
L 533.159596 80.536606 
L 539.508212 81.185013 
L 545.856828 81.833419 
L 552.205444 82.481825 
L 558.554061 83.130231 
L 564.902677 83.778637 
L 571.251293 84.427044 
L 577.599909 85.07545 
L 583.948525 85.723856 
L 590.297141 86.372262 
L 596.645758 87.020669 
L 602.994374 87.669075 
L 609.34299 88.317481 
L 615.691606 88.965887 
L 622.040222 89.614294 
L 628.388838 90.2627 
L 634.737455 90.911106 
L 641.086071 91.559512 
L 647.434687 92.207918 
L 653.783303 92.856325 
L 660.131919 93.504731 
L 666.480535 94.153137 
L 672.829152 94.801543 
L 679.177768 95.44995 
L 685.526384 96.098356 
L 691.875 96.746762 
" clip-path="url(#p651354d300)" style="fill: none; stroke-dasharray: 9.6,2.4,1.5,2.4; stroke-dashoffset: 0; stroke: #00a6b6; stroke-width: 1.5"/>
   </g>
   <g id="line2d_34">
    <path d="M 63.362 243.41112 
L 69.710616 243.951254 
L 76.059232 244.491388 
L 82.407848 245.031522 
L 88.756465 245.571656 
L 95.105081 246.11179 
L 101.453697 246.651924 
L 107.802313 247.192058 
L 114.150929 247.732193 
L 120.499545 248.272327 
L 126.848162 248.812461 
L 133.196778 249.352595 
L 139.545394 249.892729 
L 145.89401 250.432863 
L 152.242626 250.972997 
L 158.591242 251.513131 
L 164.939859 252.053266 
L 171.288475 252.5934 
L 177.637091 253.133534 
L 183.985707 253.673668 
L 190.334323 254.213802 
L 196.682939 254.753936 
L 203.031556 255.29407 
L 209.380172 255.834204 
L 215.728788 256.374339 
L 222.077404 256.914473 
L 228.42602 257.454607 
L 234.774636 257.994741 
L 241.123253 258.534875 
L 247.471869 259.075009 
L 253.820485 259.615143 
L 260.169101 260.155277 
L 266.517717 260.695412 
L 272.866333 261.235546 
L 279.214949 261.77568 
L 285.563566 262.315814 
L 291.912182 262.855948 
L 298.260798 263.396082 
L 304.609414 263.936216 
L 310.95803 264.47635 
L 317.306646 265.016485 
L 323.655263 265.556619 
L 330.003879 266.096753 
L 336.352495 266.636887 
L 342.701111 267.177021 
L 349.049727 267.717155 
L 355.398343 268.257289 
L 361.74696 268.797423 
L 368.095576 269.337557 
L 374.444192 269.877692 
L 380.792808 270.417826 
L 387.141424 270.95796 
L 393.49004 271.498094 
L 399.838657 272.038228 
L 406.187273 272.578362 
L 412.535889 273.118496 
L 418.884505 273.65863 
L 425.233121 274.198765 
L 431.581737 274.738899 
L 437.930354 275.279033 
L 444.27897 275.819167 
L 450.627586 276.359301 
L 456.976202 276.899435 
L 463.324818 277.439569 
L 469.673434 277.979703 
L 476.022051 278.519838 
L 482.370667 279.059972 
L 488.719283 279.600106 
L 495.067899 280.14024 
L 501.416515 280.680374 
L 507.765131 281.220508 
L 514.113747 281.760642 
L 520.462364 282.300776 
L 526.81098 282.840911 
L 533.159596 283.381045 
L 539.508212 283.921179 
L 545.856828 284.461313 
L 552.205444 285.001447 
L 558.554061 285.541581 
L 564.902677 286.081715 
L 571.251293 286.621849 
L 577.599909 287.161983 
L 583.948525 287.702118 
L 590.297141 288.242252 
L 596.645758 288.782386 
L 602.994374 289.32252 
L 609.34299 289.862654 
L 615.691606 290.402788 
L 622.040222 290.942922 
L 628.388838 291.483056 
L 634.737455 292.023191 
L 641.086071 292.563325 
L 647.434687 293.103459 
L 653.783303 293.643593 
L 660.131919 294.183727 
L 666.480535 294.723861 
L 672.829152 295.263995 
L 679.177768 295.804129 
L 685.526384 296.344264 
L 691.875 296.884398 
" clip-path="url(#p651354d300)" style="fill: none; stroke-dasharray: 9.6,2.4,1.5,2.4; stroke-dashoffset: 0; stroke: #a50034; stroke-width: 1.5"/>
   </g>
   <g id="line2d_35">
    <path d="M 63.362 314.799614 
L 69.710616 315.252603 
L 76.059232 315.705591 
L 82.407848 316.158579 
L 88.756465 316.611568 
L 95.105081 317.064556 
L 101.453697 317.517544 
L 107.802313 317.970532 
L 114.150929 318.423521 
L 120.499545 318.876509 
L 126.848162 319.329497 
L 133.196778 319.782486 
L 139.545394 320.235474 
L 145.89401 320.688462 
L 152.242626 321.14145 
L 158.591242 321.594439 
L 164.939859 322.047427 
L 171.288475 322.500415 
L 177.637091 322.953404 
L 183.985707 323.406392 
L 190.334323 323.85938 
L 196.682939 324.312368 
L 203.031556 324.765357 
L 209.380172 325.218345 
L 215.728788 325.671333 
L 222.077404 326.124322 
L 228.42602 326.57731 
L 234.774636 327.030298 
L 241.123253 327.483286 
L 247.471869 327.936275 
L 253.820485 328.389263 
L 260.169101 328.842251 
L 266.517717 329.29524 
L 272.866333 329.748228 
L 279.214949 330.201216 
L 285.563566 330.654204 
L 291.912182 331.107193 
L 298.260798 331.560181 
L 304.609414 332.013169 
L 310.95803 332.466157 
L 317.306646 332.919146 
L 323.655263 333.372134 
L 330.003879 333.825122 
L 336.352495 334.278111 
L 342.701111 334.731099 
L 349.049727 335.184087 
L 355.398343 335.637075 
L 361.74696 336.090064 
L 368.095576 336.543052 
L 374.444192 336.99604 
L 380.792808 337.449029 
L 387.141424 337.902017 
L 393.49004 338.355005 
L 399.838657 338.807993 
L 406.187273 339.260982 
L 412.535889 339.71397 
L 418.884505 340.166958 
L 425.233121 340.619947 
L 431.581737 341.072935 
L 437.930354 341.525923 
L 444.27897 341.978911 
L 450.627586 342.4319 
L 456.976202 342.884888 
L 463.324818 343.337876 
L 469.673434 343.790865 
L 476.022051 344.243853 
L 482.370667 344.696841 
L 488.719283 345.149829 
L 495.067899 345.602818 
L 501.416515 346.055806 
L 507.765131 346.508794 
L 514.113747 346.961783 
L 520.462364 347.414771 
L 526.81098 347.867759 
L 533.159596 348.320747 
L 539.508212 348.773736 
L 545.856828 349.226724 
L 552.205444 349.679712 
L 558.554061 350.132701 
L 564.902677 350.585689 
L 571.251293 351.038677 
L 577.599909 351.491665 
L 583.948525 351.944654 
L 590.297141 352.397642 
L 596.645758 352.85063 
L 602.994374 353.303619 
L 609.34299 353.756607 
L 615.691606 354.209595 
L 622.040222 354.662583 
L 628.388838 355.115572 
L 634.737455 355.56856 
L 641.086071 356.021548 
L 647.434687 356.474537 
L 653.783303 356.927525 
L 660.131919 357.380513 
L 666.480535 357.833501 
L 672.829152 358.28649 
L 679.177768 358.739478 
L 685.526384 359.192466 
L 691.875 359.645455 
" clip-path="url(#p651354d300)" style="fill: none; stroke-dasharray: 9.6,2.4,1.5,2.4; stroke-dashoffset: 0; stroke: #ef60a3; stroke-width: 1.5"/>
   </g>
   <g id="patch_3">
    <path d="M 63.362 376 
L 63.362 16.2 
" style="fill: none; stroke: #000000; stroke-width: 0.8; stroke-linejoin: miter; stroke-linecap: square"/>
   </g>
   <g id="patch_4">
    <path d="M 691.875 376 
L 691.875 16.2 
" style="fill: none; stroke: #000000; stroke-width: 0.8; stroke-linejoin: miter; stroke-linecap: square"/>
   </g>
   <g id="patch_5">
    <path d="M 63.362 376 
L 691.875 376 
" style="fill: none; stroke: #000000; stroke-width: 0.8; stroke-linejoin: miter; stroke-linecap: square"/>
   </g>
   <g id="patch_6">
    <path d="M 63.362 16.2 
L 691.875 16.2 
" style="fill: none; stroke: #000000; stroke-width: 0.8; stroke-linejoin: miter; stroke-linecap: square"/>
   </g>
   <g id="legend_1">
    <g id="patch_7">
     <path d="M 549.225 231.425 
L 681.375 231.425 
Q 684.375 231.425 684.375 228.425 
L 684.375 163.775 
Q 684.375 160.775 681.375 160.775 
L 549.225 160.775 
Q 546.225 160.775 546.225 163.775 
L 546.225 228.425 
Q 546.225 231.425 549.225 231.425 
z
" style="fill: #ffffff; opacity: 0.8; stroke: #cccccc; stroke-linejoin: miter"/>
    </g>
    <g id="line2d_36">
     <path d="M 552.225 172.925 
L 567.225 172.925 
L 582.225 172.925 
" style="fill: none; stroke-dasharray: 9.6,2.4,1.5,2.4; stroke-dashoffset: 0; stroke: #00a6b6; stroke-width: 1.5"/>
    </g>
    <g id="text_19">
     <!-- $\alpha$ = 7 deg -->
     <g transform="translate(594.225 178.175) scale(0.15 -0.15)">
      <defs>
       <path id="DejaVuSans-Oblique-3b1" d="M 2619 1628 
L 2622 2350 
Q 2625 3088 2069 3091 
Q 1653 3094 1394 2747 
Q 1069 2319 959 1747 
Q 825 1059 994 731 
Q 1169 397 1547 397 
Q 1966 397 2319 1063 
L 2619 1628 
z
M 2166 3578 
Q 3141 3594 3128 2584 
Q 3128 2584 3616 3500 
L 4128 3500 
L 3119 1603 
L 3109 919 
Q 3109 766 3194 638 
Q 3291 488 3391 488 
L 3669 488 
L 3575 0 
L 3228 0 
Q 2934 0 2722 263 
Q 2622 394 2619 669 
Q 2416 334 2066 50 
Q 1900 -81 1453 -78 
Q 722 -72 456 397 
Q 184 884 353 1747 
Q 534 2675 1009 3097 
Q 1544 3569 2166 3578 
z
" transform="scale(0.015625)"/>
       <path id="DejaVuSans-3d" d="M 678 2906 
L 4684 2906 
L 4684 2381 
L 678 2381 
L 678 2906 
z
M 678 1631 
L 4684 1631 
L 4684 1100 
L 678 1100 
L 678 1631 
z
" transform="scale(0.015625)"/>
       <path id="DejaVuSans-37" d="M 525 4666 
L 3525 4666 
L 3525 4397 
L 1831 0 
L 1172 0 
L 2766 4134 
L 525 4134 
L 525 4666 
z
" transform="scale(0.015625)"/>
       <path id="DejaVuSans-64" d="M 2906 2969 
L 2906 4863 
L 3481 4863 
L 3481 0 
L 2906 0 
L 2906 525 
Q 2725 213 2448 61 
Q 2172 -91 1784 -91 
Q 1150 -91 751 415 
Q 353 922 353 1747 
Q 353 2572 751 3078 
Q 1150 3584 1784 3584 
Q 2172 3584 2448 3432 
Q 2725 3281 2906 2969 
z
M 947 1747 
Q 947 1113 1208 752 
Q 1469 391 1925 391 
Q 2381 391 2643 752 
Q 2906 1113 2906 1747 
Q 2906 2381 2643 2742 
Q 2381 3103 1925 3103 
Q 1469 3103 1208 2742 
Q 947 2381 947 1747 
z
" transform="scale(0.015625)"/>
       <path id="DejaVuSans-65" d="M 3597 1894 
L 3597 1613 
L 953 1613 
Q 991 1019 1311 708 
Q 1631 397 2203 397 
Q 2534 397 2845 478 
Q 3156 559 3463 722 
L 3463 178 
Q 3153 47 2828 -22 
Q 2503 -91 2169 -91 
Q 1331 -91 842 396 
Q 353 884 353 1716 
Q 353 2575 817 3079 
Q 1281 3584 2069 3584 
Q 2775 3584 3186 3129 
Q 3597 2675 3597 1894 
z
M 3022 2063 
Q 3016 2534 2758 2815 
Q 2500 3097 2075 3097 
Q 1594 3097 1305 2825 
Q 1016 2553 972 2059 
L 3022 2063 
z
" transform="scale(0.015625)"/>
       <path id="DejaVuSans-67" d="M 2906 1791 
Q 2906 2416 2648 2759 
Q 2391 3103 1925 3103 
Q 1463 3103 1205 2759 
Q 947 2416 947 1791 
Q 947 1169 1205 825 
Q 1463 481 1925 481 
Q 2391 481 2648 825 
Q 2906 1169 2906 1791 
z
M 3481 434 
Q 3481 -459 3084 -895 
Q 2688 -1331 1869 -1331 
Q 1566 -1331 1297 -1286 
Q 1028 -1241 775 -1147 
L 775 -588 
Q 1028 -725 1275 -790 
Q 1522 -856 1778 -856 
Q 2344 -856 2625 -561 
Q 2906 -266 2906 331 
L 2906 616 
Q 2728 306 2450 153 
Q 2172 0 1784 0 
Q 1141 0 747 490 
Q 353 981 353 1791 
Q 353 2603 747 3093 
Q 1141 3584 1784 3584 
Q 2172 3584 2450 3431 
Q 2728 3278 2906 2969 
L 2906 3500 
L 3481 3500 
L 3481 434 
z
" transform="scale(0.015625)"/>
      </defs>
      <use xlink:href="#DejaVuSans-Oblique-3b1" transform="translate(0 0.015625)"/>
      <use xlink:href="#DejaVuSans-20" transform="translate(65.917969 0.015625)"/>
      <use xlink:href="#DejaVuSans-3d" transform="translate(97.705078 0.015625)"/>
      <use xlink:href="#DejaVuSans-20" transform="translate(181.494141 0.015625)"/>
      <use xlink:href="#DejaVuSans-37" transform="translate(213.28125 0.015625)"/>
      <use xlink:href="#DejaVuSans-20" transform="translate(276.904297 0.015625)"/>
      <use xlink:href="#DejaVuSans-64" transform="translate(308.691406 0.015625)"/>
      <use xlink:href="#DejaVuSans-65" transform="translate(372.167969 0.015625)"/>
      <use xlink:href="#DejaVuSans-67" transform="translate(433.691406 0.015625)"/>
     </g>
    </g>
    <g id="line2d_37">
     <path d="M 552.225 194.975 
L 567.225 194.975 
L 582.225 194.975 
" style="fill: none; stroke-dasharray: 9.6,2.4,1.5,2.4; stroke-dashoffset: 0; stroke: #a50034; stroke-width: 1.5"/>
    </g>
    <g id="text_20">
     <!-- $\alpha$ = 12 deg -->
     <g transform="translate(594.225 200.225) scale(0.15 -0.15)">
      <use xlink:href="#DejaVuSans-Oblique-3b1" transform="translate(0 0.015625)"/>
      <use xlink:href="#DejaVuSans-20" transform="translate(65.917969 0.015625)"/>
      <use xlink:href="#DejaVuSans-3d" transform="translate(97.705078 0.015625)"/>
      <use xlink:href="#DejaVuSans-20" transform="translate(181.494141 0.015625)"/>
      <use xlink:href="#DejaVuSans-31" transform="translate(213.28125 0.015625)"/>
      <use xlink:href="#DejaVuSans-32" transform="translate(276.904297 0.015625)"/>
      <use xlink:href="#DejaVuSans-20" transform="translate(340.527344 0.015625)"/>
      <use xlink:href="#DejaVuSans-64" transform="translate(372.314453 0.015625)"/>
      <use xlink:href="#DejaVuSans-65" transform="translate(435.791016 0.015625)"/>
      <use xlink:href="#DejaVuSans-67" transform="translate(497.314453 0.015625)"/>
     </g>
    </g>
    <g id="line2d_38">
     <path d="M 552.225 217.025 
L 567.225 217.025 
L 582.225 217.025 
" style="fill: none; stroke-dasharray: 9.6,2.4,1.5,2.4; stroke-dashoffset: 0; stroke: #ef60a3; stroke-width: 1.5"/>
    </g>
    <g id="text_21">
     <!-- $\alpha$ = 14 deg -->
     <g transform="translate(594.225 222.275) scale(0.15 -0.15)">
      <use xlink:href="#DejaVuSans-Oblique-3b1" transform="translate(0 0.015625)"/>
      <use xlink:href="#DejaVuSans-20" transform="translate(65.917969 0.015625)"/>
      <use xlink:href="#DejaVuSans-3d" transform="translate(97.705078 0.015625)"/>
      <use xlink:href="#DejaVuSans-20" transform="translate(181.494141 0.015625)"/>
      <use xlink:href="#DejaVuSans-31" transform="translate(213.28125 0.015625)"/>
      <use xlink:href="#DejaVuSans-34" transform="translate(276.904297 0.015625)"/>
      <use xlink:href="#DejaVuSans-20" transform="translate(340.527344 0.015625)"/>
      <use xlink:href="#DejaVuSans-64" transform="translate(372.314453 0.015625)"/>
      <use xlink:href="#DejaVuSans-65" transform="translate(435.791016 0.015625)"/>
      <use xlink:href="#DejaVuSans-67" transform="translate(497.314453 0.015625)"/>
     </g>
    </g>
   </g>
  </g>
 </g>
 <defs>
  <clipPath id="p651354d300">
   <rect x="63.362" y="16.2" width="628.513" height="359.8"/>
  </clipPath>
 </defs>
</svg>
