<?xml version="1.0" encoding="utf-8" standalone="no"?>
<!DOCTYPE svg PUBLIC "-//W3C//DTD SVG 1.1//EN"
  "http://www.w3.org/Graphics/SVG/1.1/DTD/svg11.dtd">
<svg xmlns:xlink="http://www.w3.org/1999/xlink" width="720pt" height="432pt" viewBox="0 0 720 432" xmlns="http://www.w3.org/2000/svg" version="1.1">
 <metadata>
  <rdf:RDF xmlns:dc="http://purl.org/dc/elements/1.1/" xmlns:cc="http://creativecommons.org/ns#" xmlns:rdf="http://www.w3.org/1999/02/22-rdf-syntax-ns#">
   <cc:Work>
    <dc:type rdf:resource="http://purl.org/dc/dcmitype/StillImage"/>
    <dc:date>2024-04-02T14:53:46.347553</dc:date>
    <dc:format>image/svg+xml</dc:format>
    <dc:creator>
     <cc:Agent>
      <dc:title>Matplotlib v3.8.3, https://matplotlib.org/</dc:title>
     </cc:Agent>
    </dc:creator>
   </cc:Work>
  </rdf:RDF>
 </metadata>
 <defs>
  <style type="text/css">*{stroke-linejoin: round; stroke-linecap: butt}</style>
 </defs>
 <g id="figure_1">
  <g id="patch_1">
   <path d="M 0 432 
L 720 432 
L 720 0 
L 0 0 
z
" style="fill: #ffffff"/>
  </g>
  <g id="axes_1">
   <g id="patch_2">
    <path d="M 90.272 376 
L 687.105 376 
L 687.105 16.2 
L 90.272 16.2 
z
" style="fill: #ffffff"/>
   </g>
   <g id="PathCollection_1">
    <defs>
     <path id="mc2e3647e6d" d="M 0 3 
C 0.795609 3 1.55874 2.683901 2.12132 2.12132 
C 2.683901 1.55874 3 0.795609 3 0 
C 3 -0.795609 2.683901 -1.55874 2.12132 -2.12132 
C 1.55874 -2.683901 0.795609 -3 0 -3 
C -0.795609 -3 -1.55874 -2.683901 -2.12132 -2.12132 
C -2.683901 -1.55874 -3 -0.795609 -3 0 
C -3 0.795609 -2.683901 1.55874 -2.12132 2.12132 
C -1.55874 2.683901 -0.795609 3 0 3 
z
" style="stroke: #00a6b6"/>
    </defs>
    <g clip-path="url(#pb1835d1deb)">
     <use xlink:href="#mc2e3647e6d" x="114.14532" y="314.34026" style="fill: #00a6b6; stroke: #00a6b6"/>
     <use xlink:href="#mc2e3647e6d" x="161.89196" y="273.976257" style="fill: #00a6b6; stroke: #00a6b6"/>
     <use xlink:href="#mc2e3647e6d" x="567.7384" y="248.037796" style="fill: #00a6b6; stroke: #00a6b6"/>
    </g>
   </g>
   <g id="PathCollection_2">
    <defs>
     <path id="m8d02eea5c9" d="M 0 3 
C 0.795609 3 1.55874 2.683901 2.12132 2.12132 
C 2.683901 1.55874 3 0.795609 3 0 
C 3 -0.795609 2.683901 -1.55874 2.12132 -2.12132 
C 1.55874 -2.683901 0.795609 -3 0 -3 
C -0.795609 -3 -1.55874 -2.683901 -2.12132 -2.12132 
C -2.683901 -1.55874 -3 -0.795609 -3 0 
C -3 0.795609 -2.683901 1.55874 -2.12132 2.12132 
C -1.55874 2.683901 -0.795609 3 0 3 
z
" style="stroke: #a50034"/>
    </defs>
    <g clip-path="url(#pb1835d1deb)">
     <use xlink:href="#m8d02eea5c9" x="114.14532" y="220.98726" style="fill: #a50034; stroke: #a50034"/>
     <use xlink:href="#m8d02eea5c9" x="161.89196" y="270.761823" style="fill: #a50034; stroke: #a50034"/>
     <use xlink:href="#m8d02eea5c9" x="567.7384" y="248.882126" style="fill: #a50034; stroke: #a50034"/>
    </g>
   </g>
   <g id="PathCollection_3">
    <defs>
     <path id="m1ea018c3d9" d="M 0 3 
C 0.795609 3 1.55874 2.683901 2.12132 2.12132 
C 2.683901 1.55874 3 0.795609 3 0 
C 3 -0.795609 2.683901 -1.55874 2.12132 -2.12132 
C 1.55874 -2.683901 0.795609 -3 0 -3 
C -0.795609 -3 -1.55874 -2.683901 -2.12132 -2.12132 
C -2.683901 -1.55874 -3 -0.795609 -3 0 
C -3 0.795609 -2.683901 1.55874 -2.12132 2.12132 
C -1.55874 2.683901 -0.795609 3 0 3 
z
" style="stroke: #ef60a3"/>
    </defs>
    <g clip-path="url(#pb1835d1deb)">
     <use xlink:href="#m1ea018c3d9" x="114.14532" y="104.992958" style="fill: #ef60a3; stroke: #ef60a3"/>
     <use xlink:href="#m1ea018c3d9" x="161.89196" y="79.859537" style="fill: #ef60a3; stroke: #ef60a3"/>
     <use xlink:href="#m1ea018c3d9" x="567.7384" y="81.608285" style="fill: #ef60a3; stroke: #ef60a3"/>
    </g>
   </g>
   <g id="matplotlib.axis_1">
    <g id="xtick_1">
     <g id="line2d_1">
      <path d="M 90.272 376 
L 90.272 16.2 
" clip-path="url(#pb1835d1deb)" style="fill: none; stroke: #b0b0b0; stroke-width: 0.8; stroke-linecap: square"/>
     </g>
     <g id="line2d_2">
      <defs>
       <path id="m241390b63d" d="M 0 0 
L 0 3.5 
" style="stroke: #000000; stroke-width: 0.8"/>
      </defs>
      <g>
       <use xlink:href="#m241390b63d" x="90.272" y="376" style="stroke: #000000; stroke-width: 0.8"/>
      </g>
     </g>
     <g id="text_1">
      <!-- 1.50 -->
      <g transform="translate(73.572781 394.397656) scale(0.15 -0.15)">
       <defs>
        <path id="DejaVuSans-31" d="M 794 531 
L 1825 531 
L 1825 4091 
L 703 3866 
L 703 4441 
L 1819 4666 
L 2450 4666 
L 2450 531 
L 3481 531 
L 3481 0 
L 794 0 
L 794 531 
z
" transform="scale(0.015625)"/>
        <path id="DejaVuSans-2e" d="M 684 794 
L 1344 794 
L 1344 0 
L 684 0 
L 684 794 
z
" transform="scale(0.015625)"/>
        <path id="DejaVuSans-35" d="M 691 4666 
L 3169 4666 
L 3169 4134 
L 1269 4134 
L 1269 2991 
Q 1406 3038 1543 3061 
Q 1681 3084 1819 3084 
Q 2600 3084 3056 2656 
Q 3513 2228 3513 1497 
Q 3513 744 3044 326 
Q 2575 -91 1722 -91 
Q 1428 -91 1123 -41 
Q 819 9 494 109 
L 494 744 
Q 775 591 1075 516 
Q 1375 441 1709 441 
Q 2250 441 2565 725 
Q 2881 1009 2881 1497 
Q 2881 1984 2565 2268 
Q 2250 2553 1709 2553 
Q 1456 2553 1204 2497 
Q 953 2441 691 2322 
L 691 4666 
z
" transform="scale(0.015625)"/>
        <path id="DejaVuSans-30" d="M 2034 4250 
Q 1547 4250 1301 3770 
Q 1056 3291 1056 2328 
Q 1056 1369 1301 889 
Q 1547 409 2034 409 
Q 2525 409 2770 889 
Q 3016 1369 3016 2328 
Q 3016 3291 2770 3770 
Q 2525 4250 2034 4250 
z
M 2034 4750 
Q 2819 4750 3233 4129 
Q 3647 3509 3647 2328 
Q 3647 1150 3233 529 
Q 2819 -91 2034 -91 
Q 1250 -91 836 529 
Q 422 1150 422 2328 
Q 422 3509 836 4129 
Q 1250 4750 2034 4750 
z
" transform="scale(0.015625)"/>
       </defs>
       <use xlink:href="#DejaVuSans-31"/>
       <use xlink:href="#DejaVuSans-2e" x="63.623047"/>
       <use xlink:href="#DejaVuSans-35" x="95.410156"/>
       <use xlink:href="#DejaVuSans-30" x="159.033203"/>
      </g>
     </g>
    </g>
    <g id="xtick_2">
     <g id="line2d_3">
      <path d="M 149.9553 376 
L 149.9553 16.2 
" clip-path="url(#pb1835d1deb)" style="fill: none; stroke: #b0b0b0; stroke-width: 0.8; stroke-linecap: square"/>
     </g>
     <g id="line2d_4">
      <g>
       <use xlink:href="#m241390b63d" x="149.9553" y="376" style="stroke: #000000; stroke-width: 0.8"/>
      </g>
     </g>
     <g id="text_2">
      <!-- 1.75 -->
      <g transform="translate(133.256081 394.397656) scale(0.15 -0.15)">
       <defs>
        <path id="DejaVuSans-37" d="M 525 4666 
L 3525 4666 
L 3525 4397 
L 1831 0 
L 1172 0 
L 2766 4134 
L 525 4134 
L 525 4666 
z
" transform="scale(0.015625)"/>
       </defs>
       <use xlink:href="#DejaVuSans-31"/>
       <use xlink:href="#DejaVuSans-2e" x="63.623047"/>
       <use xlink:href="#DejaVuSans-37" x="95.410156"/>
       <use xlink:href="#DejaVuSans-35" x="159.033203"/>
      </g>
     </g>
    </g>
    <g id="xtick_3">
     <g id="line2d_5">
      <path d="M 209.6386 376 
L 209.6386 16.2 
" clip-path="url(#pb1835d1deb)" style="fill: none; stroke: #b0b0b0; stroke-width: 0.8; stroke-linecap: square"/>
     </g>
     <g id="line2d_6">
      <g>
       <use xlink:href="#m241390b63d" x="209.6386" y="376" style="stroke: #000000; stroke-width: 0.8"/>
      </g>
     </g>
     <g id="text_3">
      <!-- 2.00 -->
      <g transform="translate(192.939381 394.397656) scale(0.15 -0.15)">
       <defs>
        <path id="DejaVuSans-32" d="M 1228 531 
L 3431 531 
L 3431 0 
L 469 0 
L 469 531 
Q 828 903 1448 1529 
Q 2069 2156 2228 2338 
Q 2531 2678 2651 2914 
Q 2772 3150 2772 3378 
Q 2772 3750 2511 3984 
Q 2250 4219 1831 4219 
Q 1534 4219 1204 4116 
Q 875 4013 500 3803 
L 500 4441 
Q 881 4594 1212 4672 
Q 1544 4750 1819 4750 
Q 2544 4750 2975 4387 
Q 3406 4025 3406 3419 
Q 3406 3131 3298 2873 
Q 3191 2616 2906 2266 
Q 2828 2175 2409 1742 
Q 1991 1309 1228 531 
z
" transform="scale(0.015625)"/>
       </defs>
       <use xlink:href="#DejaVuSans-32"/>
       <use xlink:href="#DejaVuSans-2e" x="63.623047"/>
       <use xlink:href="#DejaVuSans-30" x="95.410156"/>
       <use xlink:href="#DejaVuSans-30" x="159.033203"/>
      </g>
     </g>
    </g>
    <g id="xtick_4">
     <g id="line2d_7">
      <path d="M 269.3219 376 
L 269.3219 16.2 
" clip-path="url(#pb1835d1deb)" style="fill: none; stroke: #b0b0b0; stroke-width: 0.8; stroke-linecap: square"/>
     </g>
     <g id="line2d_8">
      <g>
       <use xlink:href="#m241390b63d" x="269.3219" y="376" style="stroke: #000000; stroke-width: 0.8"/>
      </g>
     </g>
     <g id="text_4">
      <!-- 2.25 -->
      <g transform="translate(252.622681 394.397656) scale(0.15 -0.15)">
       <use xlink:href="#DejaVuSans-32"/>
       <use xlink:href="#DejaVuSans-2e" x="63.623047"/>
       <use xlink:href="#DejaVuSans-32" x="95.410156"/>
       <use xlink:href="#DejaVuSans-35" x="159.033203"/>
      </g>
     </g>
    </g>
    <g id="xtick_5">
     <g id="line2d_9">
      <path d="M 329.0052 376 
L 329.0052 16.2 
" clip-path="url(#pb1835d1deb)" style="fill: none; stroke: #b0b0b0; stroke-width: 0.8; stroke-linecap: square"/>
     </g>
     <g id="line2d_10">
      <g>
       <use xlink:href="#m241390b63d" x="329.0052" y="376" style="stroke: #000000; stroke-width: 0.8"/>
      </g>
     </g>
     <g id="text_5">
      <!-- 2.50 -->
      <g transform="translate(312.305981 394.397656) scale(0.15 -0.15)">
       <use xlink:href="#DejaVuSans-32"/>
       <use xlink:href="#DejaVuSans-2e" x="63.623047"/>
       <use xlink:href="#DejaVuSans-35" x="95.410156"/>
       <use xlink:href="#DejaVuSans-30" x="159.033203"/>
      </g>
     </g>
    </g>
    <g id="xtick_6">
     <g id="line2d_11">
      <path d="M 388.6885 376 
L 388.6885 16.2 
" clip-path="url(#pb1835d1deb)" style="fill: none; stroke: #b0b0b0; stroke-width: 0.8; stroke-linecap: square"/>
     </g>
     <g id="line2d_12">
      <g>
       <use xlink:href="#m241390b63d" x="388.6885" y="376" style="stroke: #000000; stroke-width: 0.8"/>
      </g>
     </g>
     <g id="text_6">
      <!-- 2.75 -->
      <g transform="translate(371.989281 394.397656) scale(0.15 -0.15)">
       <use xlink:href="#DejaVuSans-32"/>
       <use xlink:href="#DejaVuSans-2e" x="63.623047"/>
       <use xlink:href="#DejaVuSans-37" x="95.410156"/>
       <use xlink:href="#DejaVuSans-35" x="159.033203"/>
      </g>
     </g>
    </g>
    <g id="xtick_7">
     <g id="line2d_13">
      <path d="M 448.3718 376 
L 448.3718 16.2 
" clip-path="url(#pb1835d1deb)" style="fill: none; stroke: #b0b0b0; stroke-width: 0.8; stroke-linecap: square"/>
     </g>
     <g id="line2d_14">
      <g>
       <use xlink:href="#m241390b63d" x="448.3718" y="376" style="stroke: #000000; stroke-width: 0.8"/>
      </g>
     </g>
     <g id="text_7">
      <!-- 3.00 -->
      <g transform="translate(431.672581 394.397656) scale(0.15 -0.15)">
       <defs>
        <path id="DejaVuSans-33" d="M 2597 2516 
Q 3050 2419 3304 2112 
Q 3559 1806 3559 1356 
Q 3559 666 3084 287 
Q 2609 -91 1734 -91 
Q 1441 -91 1130 -33 
Q 819 25 488 141 
L 488 750 
Q 750 597 1062 519 
Q 1375 441 1716 441 
Q 2309 441 2620 675 
Q 2931 909 2931 1356 
Q 2931 1769 2642 2001 
Q 2353 2234 1838 2234 
L 1294 2234 
L 1294 2753 
L 1863 2753 
Q 2328 2753 2575 2939 
Q 2822 3125 2822 3475 
Q 2822 3834 2567 4026 
Q 2313 4219 1838 4219 
Q 1578 4219 1281 4162 
Q 984 4106 628 3988 
L 628 4550 
Q 988 4650 1302 4700 
Q 1616 4750 1894 4750 
Q 2613 4750 3031 4423 
Q 3450 4097 3450 3541 
Q 3450 3153 3228 2886 
Q 3006 2619 2597 2516 
z
" transform="scale(0.015625)"/>
       </defs>
       <use xlink:href="#DejaVuSans-33"/>
       <use xlink:href="#DejaVuSans-2e" x="63.623047"/>
       <use xlink:href="#DejaVuSans-30" x="95.410156"/>
       <use xlink:href="#DejaVuSans-30" x="159.033203"/>
      </g>
     </g>
    </g>
    <g id="xtick_8">
     <g id="line2d_15">
      <path d="M 508.0551 376 
L 508.0551 16.2 
" clip-path="url(#pb1835d1deb)" style="fill: none; stroke: #b0b0b0; stroke-width: 0.8; stroke-linecap: square"/>
     </g>
     <g id="line2d_16">
      <g>
       <use xlink:href="#m241390b63d" x="508.0551" y="376" style="stroke: #000000; stroke-width: 0.8"/>
      </g>
     </g>
     <g id="text_8">
      <!-- 3.25 -->
      <g transform="translate(491.355881 394.397656) scale(0.15 -0.15)">
       <use xlink:href="#DejaVuSans-33"/>
       <use xlink:href="#DejaVuSans-2e" x="63.623047"/>
       <use xlink:href="#DejaVuSans-32" x="95.410156"/>
       <use xlink:href="#DejaVuSans-35" x="159.033203"/>
      </g>
     </g>
    </g>
    <g id="xtick_9">
     <g id="line2d_17">
      <path d="M 567.7384 376 
L 567.7384 16.2 
" clip-path="url(#pb1835d1deb)" style="fill: none; stroke: #b0b0b0; stroke-width: 0.8; stroke-linecap: square"/>
     </g>
     <g id="line2d_18">
      <g>
       <use xlink:href="#m241390b63d" x="567.7384" y="376" style="stroke: #000000; stroke-width: 0.8"/>
      </g>
     </g>
     <g id="text_9">
      <!-- 3.50 -->
      <g transform="translate(551.039181 394.397656) scale(0.15 -0.15)">
       <use xlink:href="#DejaVuSans-33"/>
       <use xlink:href="#DejaVuSans-2e" x="63.623047"/>
       <use xlink:href="#DejaVuSans-35" x="95.410156"/>
       <use xlink:href="#DejaVuSans-30" x="159.033203"/>
      </g>
     </g>
    </g>
    <g id="xtick_10">
     <g id="line2d_19">
      <path d="M 627.4217 376 
L 627.4217 16.2 
" clip-path="url(#pb1835d1deb)" style="fill: none; stroke: #b0b0b0; stroke-width: 0.8; stroke-linecap: square"/>
     </g>
     <g id="line2d_20">
      <g>
       <use xlink:href="#m241390b63d" x="627.4217" y="376" style="stroke: #000000; stroke-width: 0.8"/>
      </g>
     </g>
     <g id="text_10">
      <!-- 3.75 -->
      <g transform="translate(610.722481 394.397656) scale(0.15 -0.15)">
       <use xlink:href="#DejaVuSans-33"/>
       <use xlink:href="#DejaVuSans-2e" x="63.623047"/>
       <use xlink:href="#DejaVuSans-37" x="95.410156"/>
       <use xlink:href="#DejaVuSans-35" x="159.033203"/>
      </g>
     </g>
    </g>
    <g id="xtick_11">
     <g id="line2d_21">
      <path d="M 687.105 376 
L 687.105 16.2 
" clip-path="url(#pb1835d1deb)" style="fill: none; stroke: #b0b0b0; stroke-width: 0.8; stroke-linecap: square"/>
     </g>
     <g id="line2d_22">
      <g>
       <use xlink:href="#m241390b63d" x="687.105" y="376" style="stroke: #000000; stroke-width: 0.8"/>
      </g>
     </g>
     <g id="text_11">
      <!-- 4.00 -->
      <g transform="translate(670.405781 394.397656) scale(0.15 -0.15)">
       <defs>
        <path id="DejaVuSans-34" d="M 2419 4116 
L 825 1625 
L 2419 1625 
L 2419 4116 
z
M 2253 4666 
L 3047 4666 
L 3047 1625 
L 3713 1625 
L 3713 1100 
L 3047 1100 
L 3047 0 
L 2419 0 
L 2419 1100 
L 313 1100 
L 313 1709 
L 2253 4666 
z
" transform="scale(0.015625)"/>
       </defs>
       <use xlink:href="#DejaVuSans-34"/>
       <use xlink:href="#DejaVuSans-2e" x="63.623047"/>
       <use xlink:href="#DejaVuSans-30" x="95.410156"/>
       <use xlink:href="#DejaVuSans-30" x="159.033203"/>
      </g>
     </g>
    </g>
    <g id="text_12">
     <!-- J [-] -->
     <g transform="translate(375.534203 412.914844) scale(0.15 -0.15)">
      <defs>
       <path id="DejaVuSans-4a" d="M 628 4666 
L 1259 4666 
L 1259 325 
Q 1259 -519 939 -900 
Q 619 -1281 -91 -1281 
L -331 -1281 
L -331 -750 
L -134 -750 
Q 284 -750 456 -515 
Q 628 -281 628 325 
L 628 4666 
z
" transform="scale(0.015625)"/>
       <path id="DejaVuSans-20" transform="scale(0.015625)"/>
       <path id="DejaVuSans-5b" d="M 550 4863 
L 1875 4863 
L 1875 4416 
L 1125 4416 
L 1125 -397 
L 1875 -397 
L 1875 -844 
L 550 -844 
L 550 4863 
z
" transform="scale(0.015625)"/>
       <path id="DejaVuSans-2d" d="M 313 2009 
L 1997 2009 
L 1997 1497 
L 313 1497 
L 313 2009 
z
" transform="scale(0.015625)"/>
       <path id="DejaVuSans-5d" d="M 1947 4863 
L 1947 -844 
L 622 -844 
L 622 -397 
L 1369 -397 
L 1369 4416 
L 622 4416 
L 622 4863 
L 1947 4863 
z
" transform="scale(0.015625)"/>
      </defs>
      <use xlink:href="#DejaVuSans-4a"/>
      <use xlink:href="#DejaVuSans-20" x="29.492188"/>
      <use xlink:href="#DejaVuSans-5b" x="61.279297"/>
      <use xlink:href="#DejaVuSans-2d" x="100.292969"/>
      <use xlink:href="#DejaVuSans-5d" x="136.376953"/>
     </g>
    </g>
   </g>
   <g id="matplotlib.axis_2">
    <g id="ytick_1">
     <g id="line2d_23">
      <path d="M 90.272 360.493075 
L 687.105 360.493075 
" clip-path="url(#pb1835d1deb)" style="fill: none; stroke: #b0b0b0; stroke-width: 0.8; stroke-linecap: square"/>
     </g>
     <g id="line2d_24">
      <defs>
       <path id="mfce6468389" d="M 0 0 
L -3.5 0 
" style="stroke: #000000; stroke-width: 0.8"/>
      </defs>
      <g>
       <use xlink:href="#mfce6468389" x="90.272" y="360.493075" style="stroke: #000000; stroke-width: 0.8"/>
      </g>
     </g>
     <g id="text_13">
      <!-- −0.08 -->
      <g transform="translate(37.304031 366.191903) scale(0.15 -0.15)">
       <defs>
        <path id="DejaVuSans-2212" d="M 678 2272 
L 4684 2272 
L 4684 1741 
L 678 1741 
L 678 2272 
z
" transform="scale(0.015625)"/>
        <path id="DejaVuSans-38" d="M 2034 2216 
Q 1584 2216 1326 1975 
Q 1069 1734 1069 1313 
Q 1069 891 1326 650 
Q 1584 409 2034 409 
Q 2484 409 2743 651 
Q 3003 894 3003 1313 
Q 3003 1734 2745 1975 
Q 2488 2216 2034 2216 
z
M 1403 2484 
Q 997 2584 770 2862 
Q 544 3141 544 3541 
Q 544 4100 942 4425 
Q 1341 4750 2034 4750 
Q 2731 4750 3128 4425 
Q 3525 4100 3525 3541 
Q 3525 3141 3298 2862 
Q 3072 2584 2669 2484 
Q 3125 2378 3379 2068 
Q 3634 1759 3634 1313 
Q 3634 634 3220 271 
Q 2806 -91 2034 -91 
Q 1263 -91 848 271 
Q 434 634 434 1313 
Q 434 1759 690 2068 
Q 947 2378 1403 2484 
z
M 1172 3481 
Q 1172 3119 1398 2916 
Q 1625 2713 2034 2713 
Q 2441 2713 2670 2916 
Q 2900 3119 2900 3481 
Q 2900 3844 2670 4047 
Q 2441 4250 2034 4250 
Q 1625 4250 1398 4047 
Q 1172 3844 1172 3481 
z
" transform="scale(0.015625)"/>
       </defs>
       <use xlink:href="#DejaVuSans-2212"/>
       <use xlink:href="#DejaVuSans-30" x="83.789062"/>
       <use xlink:href="#DejaVuSans-2e" x="147.412109"/>
       <use xlink:href="#DejaVuSans-30" x="179.199219"/>
       <use xlink:href="#DejaVuSans-38" x="242.822266"/>
      </g>
     </g>
    </g>
    <g id="ytick_2">
     <g id="line2d_25">
      <path d="M 90.272 302.227044 
L 687.105 302.227044 
" clip-path="url(#pb1835d1deb)" style="fill: none; stroke: #b0b0b0; stroke-width: 0.8; stroke-linecap: square"/>
     </g>
     <g id="line2d_26">
      <g>
       <use xlink:href="#mfce6468389" x="90.272" y="302.227044" style="stroke: #000000; stroke-width: 0.8"/>
      </g>
     </g>
     <g id="text_14">
      <!-- −0.06 -->
      <g transform="translate(37.304031 307.925873) scale(0.15 -0.15)">
       <defs>
        <path id="DejaVuSans-36" d="M 2113 2584 
Q 1688 2584 1439 2293 
Q 1191 2003 1191 1497 
Q 1191 994 1439 701 
Q 1688 409 2113 409 
Q 2538 409 2786 701 
Q 3034 994 3034 1497 
Q 3034 2003 2786 2293 
Q 2538 2584 2113 2584 
z
M 3366 4563 
L 3366 3988 
Q 3128 4100 2886 4159 
Q 2644 4219 2406 4219 
Q 1781 4219 1451 3797 
Q 1122 3375 1075 2522 
Q 1259 2794 1537 2939 
Q 1816 3084 2150 3084 
Q 2853 3084 3261 2657 
Q 3669 2231 3669 1497 
Q 3669 778 3244 343 
Q 2819 -91 2113 -91 
Q 1303 -91 875 529 
Q 447 1150 447 2328 
Q 447 3434 972 4092 
Q 1497 4750 2381 4750 
Q 2619 4750 2861 4703 
Q 3103 4656 3366 4563 
z
" transform="scale(0.015625)"/>
       </defs>
       <use xlink:href="#DejaVuSans-2212"/>
       <use xlink:href="#DejaVuSans-30" x="83.789062"/>
       <use xlink:href="#DejaVuSans-2e" x="147.412109"/>
       <use xlink:href="#DejaVuSans-30" x="179.199219"/>
       <use xlink:href="#DejaVuSans-36" x="242.822266"/>
      </g>
     </g>
    </g>
    <g id="ytick_3">
     <g id="line2d_27">
      <path d="M 90.272 243.961014 
L 687.105 243.961014 
" clip-path="url(#pb1835d1deb)" style="fill: none; stroke: #b0b0b0; stroke-width: 0.8; stroke-linecap: square"/>
     </g>
     <g id="line2d_28">
      <g>
       <use xlink:href="#mfce6468389" x="90.272" y="243.961014" style="stroke: #000000; stroke-width: 0.8"/>
      </g>
     </g>
     <g id="text_15">
      <!-- −0.04 -->
      <g transform="translate(37.304031 249.659842) scale(0.15 -0.15)">
       <use xlink:href="#DejaVuSans-2212"/>
       <use xlink:href="#DejaVuSans-30" x="83.789062"/>
       <use xlink:href="#DejaVuSans-2e" x="147.412109"/>
       <use xlink:href="#DejaVuSans-30" x="179.199219"/>
       <use xlink:href="#DejaVuSans-34" x="242.822266"/>
      </g>
     </g>
    </g>
    <g id="ytick_4">
     <g id="line2d_29">
      <path d="M 90.272 185.694983 
L 687.105 185.694983 
" clip-path="url(#pb1835d1deb)" style="fill: none; stroke: #b0b0b0; stroke-width: 0.8; stroke-linecap: square"/>
     </g>
     <g id="line2d_30">
      <g>
       <use xlink:href="#mfce6468389" x="90.272" y="185.694983" style="stroke: #000000; stroke-width: 0.8"/>
      </g>
     </g>
     <g id="text_16">
      <!-- −0.02 -->
      <g transform="translate(37.304031 191.393811) scale(0.15 -0.15)">
       <use xlink:href="#DejaVuSans-2212"/>
       <use xlink:href="#DejaVuSans-30" x="83.789062"/>
       <use xlink:href="#DejaVuSans-2e" x="147.412109"/>
       <use xlink:href="#DejaVuSans-30" x="179.199219"/>
       <use xlink:href="#DejaVuSans-32" x="242.822266"/>
      </g>
     </g>
    </g>
    <g id="ytick_5">
     <g id="line2d_31">
      <path d="M 90.272 127.428952 
L 687.105 127.428952 
" clip-path="url(#pb1835d1deb)" style="fill: none; stroke: #b0b0b0; stroke-width: 0.8; stroke-linecap: square"/>
     </g>
     <g id="line2d_32">
      <g>
       <use xlink:href="#mfce6468389" x="90.272" y="127.428952" style="stroke: #000000; stroke-width: 0.8"/>
      </g>
     </g>
     <g id="text_17">
      <!-- 0.00 -->
      <g transform="translate(49.873563 133.12778) scale(0.15 -0.15)">
       <use xlink:href="#DejaVuSans-30"/>
       <use xlink:href="#DejaVuSans-2e" x="63.623047"/>
       <use xlink:href="#DejaVuSans-30" x="95.410156"/>
       <use xlink:href="#DejaVuSans-30" x="159.033203"/>
      </g>
     </g>
    </g>
    <g id="ytick_6">
     <g id="line2d_33">
      <path d="M 90.272 69.162921 
L 687.105 69.162921 
" clip-path="url(#pb1835d1deb)" style="fill: none; stroke: #b0b0b0; stroke-width: 0.8; stroke-linecap: square"/>
     </g>
     <g id="line2d_34">
      <g>
       <use xlink:href="#mfce6468389" x="90.272" y="69.162921" style="stroke: #000000; stroke-width: 0.8"/>
      </g>
     </g>
     <g id="text_18">
      <!-- 0.02 -->
      <g transform="translate(49.873563 74.861749) scale(0.15 -0.15)">
       <use xlink:href="#DejaVuSans-30"/>
       <use xlink:href="#DejaVuSans-2e" x="63.623047"/>
       <use xlink:href="#DejaVuSans-30" x="95.410156"/>
       <use xlink:href="#DejaVuSans-32" x="159.033203"/>
      </g>
     </g>
    </g>
    <g id="text_19">
     <!-- $\partial C_M/ \partial \alpha$ [-] -->
     <g transform="translate(30.1845 232.25) rotate(-90) scale(0.15 -0.15)">
      <defs>
       <path id="DejaVuSans-2202" d="M 1366 -91 
Q 925 -91 638 175 
Q 297 491 297 1063 
Q 297 1656 597 2119 
Q 906 2594 1463 2594 
Q 1828 2594 2116 2366 
Q 2284 2231 2400 2006 
Q 2441 2259 2441 2547 
Q 2441 2969 2341 3213 
Q 2119 3753 1531 3753 
Q 1309 3753 966 3616 
L 966 4141 
Q 1328 4238 1653 4238 
Q 2491 4238 2847 3469 
Q 3013 3106 3013 2566 
Q 3013 2213 2934 1803 
Q 2738 778 2228 291 
Q 1828 -91 1366 -91 
z
M 831 969 
Q 831 656 969 488 
Q 1116 309 1341 309 
Q 1541 309 1700 450 
Q 1925 644 2091 959 
Q 2228 1219 2297 1497 
Q 2019 2169 1538 2169 
Q 1125 2169 944 1625 
Q 831 1288 831 969 
z
" transform="scale(0.015625)"/>
       <path id="DejaVuSans-Oblique-43" d="M 4447 4306 
L 4319 3641 
Q 4019 3944 3683 4091 
Q 3347 4238 2956 4238 
Q 2422 4238 2017 3981 
Q 1613 3725 1319 3200 
Q 1131 2863 1032 2486 
Q 934 2109 934 1728 
Q 934 1091 1264 756 
Q 1594 422 2222 422 
Q 2656 422 3056 561 
Q 3456 700 3834 978 
L 3688 231 
Q 3316 72 2936 -9 
Q 2556 -91 2175 -91 
Q 1278 -91 773 396 
Q 269 884 269 1753 
Q 269 2309 461 2846 
Q 653 3384 1013 3828 
Q 1394 4300 1883 4525 
Q 2372 4750 3022 4750 
Q 3422 4750 3780 4639 
Q 4138 4528 4447 4306 
z
" transform="scale(0.015625)"/>
       <path id="DejaVuSans-Oblique-4d" d="M 1081 4666 
L 2028 4666 
L 2572 1522 
L 4378 4666 
L 5350 4666 
L 4441 0 
L 3828 0 
L 4622 4091 
L 2791 897 
L 2175 897 
L 1581 4103 
L 788 0 
L 172 0 
L 1081 4666 
z
" transform="scale(0.015625)"/>
       <path id="DejaVuSans-2f" d="M 1625 4666 
L 2156 4666 
L 531 -594 
L 0 -594 
L 1625 4666 
z
" transform="scale(0.015625)"/>
       <path id="DejaVuSans-Oblique-3b1" d="M 2619 1628 
L 2622 2350 
Q 2625 3088 2069 3091 
Q 1653 3094 1394 2747 
Q 1069 2319 959 1747 
Q 825 1059 994 731 
Q 1169 397 1547 397 
Q 1966 397 2319 1063 
L 2619 1628 
z
M 2166 3578 
Q 3141 3594 3128 2584 
Q 3128 2584 3616 3500 
L 4128 3500 
L 3119 1603 
L 3109 919 
Q 3109 766 3194 638 
Q 3291 488 3391 488 
L 3669 488 
L 3575 0 
L 3228 0 
Q 2934 0 2722 263 
Q 2622 394 2619 669 
Q 2416 334 2066 50 
Q 1900 -81 1453 -78 
Q 722 -72 456 397 
Q 184 884 353 1747 
Q 534 2675 1009 3097 
Q 1544 3569 2166 3578 
z
" transform="scale(0.015625)"/>
      </defs>
      <use xlink:href="#DejaVuSans-2202" transform="translate(0 0.015625)"/>
      <use xlink:href="#DejaVuSans-Oblique-43" transform="translate(51.708984 0.015625)"/>
      <use xlink:href="#DejaVuSans-Oblique-4d" transform="translate(121.533203 -16.390625) scale(0.7)"/>
      <use xlink:href="#DejaVuSans-2f" transform="translate(184.663086 0.015625)"/>
      <use xlink:href="#DejaVuSans-2202" transform="translate(218.354492 0.015625)"/>
      <use xlink:href="#DejaVuSans-Oblique-3b1" transform="translate(270.063477 0.015625)"/>
      <use xlink:href="#DejaVuSans-20" transform="translate(335.981445 0.015625)"/>
      <use xlink:href="#DejaVuSans-5b" transform="translate(367.768555 0.015625)"/>
      <use xlink:href="#DejaVuSans-2d" transform="translate(406.782227 0.015625)"/>
      <use xlink:href="#DejaVuSans-5d" transform="translate(442.866211 0.015625)"/>
     </g>
    </g>
   </g>
   <g id="line2d_35">
    <path d="M 90.272 337.46798 
L 96.300616 331.442306 
L 102.329232 325.541862 
L 108.357848 319.766648 
L 114.386465 314.116665 
L 120.415081 308.591913 
L 126.443697 303.19239 
L 132.472313 297.918098 
L 138.500929 292.769036 
L 144.529545 287.745205 
L 150.558162 282.846603 
L 156.586778 278.073233 
L 162.615394 273.425092 
L 168.64401 268.902182 
L 174.672626 264.504502 
L 180.701242 260.232052 
L 186.729859 256.084833 
L 192.758475 252.062844 
L 198.787091 248.166085 
L 204.815707 244.394556 
L 210.844323 240.748258 
L 216.872939 237.22719 
L 222.901556 233.831353 
L 228.930172 230.560746 
L 234.958788 227.415369 
L 240.987404 224.395222 
L 247.01602 221.500306 
L 253.044636 218.73062 
L 259.073253 216.086164 
L 265.101869 213.566939 
L 271.130485 211.172944 
L 277.159101 208.904179 
L 283.187717 206.760644 
L 289.216333 204.74234 
L 295.244949 202.849266 
L 301.273566 201.081423 
L 307.302182 199.438809 
L 313.330798 197.921427 
L 319.359414 196.529274 
L 325.38803 195.262352 
L 331.416646 194.12066 
L 337.445263 193.104198 
L 343.473879 192.212966 
L 349.502495 191.446965 
L 355.531111 190.806195 
L 361.559727 190.290654 
L 367.588343 189.900344 
L 373.61696 189.635264 
L 379.645576 189.495415 
L 385.674192 189.480795 
L 391.702808 189.591406 
L 397.731424 189.827248 
L 403.76004 190.188319 
L 409.788657 190.674621 
L 415.817273 191.286154 
L 421.845889 192.022916 
L 427.874505 192.884909 
L 433.903121 193.872132 
L 439.931737 194.984586 
L 445.960354 196.22227 
L 451.98897 197.585184 
L 458.017586 199.073328 
L 464.046202 200.686703 
L 470.074818 202.425308 
L 476.103434 204.289144 
L 482.132051 206.278209 
L 488.160667 208.392505 
L 494.189283 210.632031 
L 500.217899 212.996788 
L 506.246515 215.486775 
L 512.275131 218.101992 
L 518.303747 220.84244 
L 524.332364 223.708117 
L 530.36098 226.699026 
L 536.389596 229.815164 
L 542.418212 233.056533 
L 548.446828 236.423132 
L 554.475444 239.914961 
L 560.504061 243.532021 
L 566.532677 247.274311 
L 572.561293 251.141831 
L 578.589909 255.134582 
L 584.618525 259.252563 
L 590.647141 263.495774 
L 596.675758 267.864215 
L 602.704374 272.357887 
L 608.73299 276.976789 
L 614.761606 281.720922 
L 620.790222 286.590284 
L 626.818838 291.584877 
L 632.847455 296.704701 
L 638.876071 301.949754 
L 644.904687 307.320038 
L 650.933303 312.815553 
L 656.961919 318.436297 
L 662.990535 324.182272 
L 669.019152 330.053477 
L 675.047768 336.049913 
L 681.076384 342.171579 
L 687.105 348.418475 
" clip-path="url(#pb1835d1deb)" style="fill: none; stroke-dasharray: 9.6,2.4,1.5,2.4; stroke-dashoffset: 0; stroke: #00a6b6; stroke-width: 1.5"/>
   </g>
   <g id="line2d_36">
    <path d="M 90.272 191.967191 
L 96.300616 199.555522 
L 102.329232 206.968156 
L 108.357848 214.205094 
L 114.386465 221.266337 
L 120.415081 228.151884 
L 126.443697 234.861734 
L 132.472313 241.395889 
L 138.500929 247.754349 
L 144.529545 253.937112 
L 150.558162 259.94418 
L 156.586778 265.775551 
L 162.615394 271.431227 
L 168.64401 276.911207 
L 174.672626 282.215492 
L 180.701242 287.34408 
L 186.729859 292.296972 
L 192.758475 297.074169 
L 198.787091 301.67567 
L 204.815707 306.101475 
L 210.844323 310.351584 
L 216.872939 314.425998 
L 222.901556 318.324715 
L 228.930172 322.047737 
L 234.958788 325.595063 
L 240.987404 328.966693 
L 247.01602 332.162627 
L 253.044636 335.182865 
L 259.073253 338.027408 
L 265.101869 340.696254 
L 271.130485 343.189405 
L 277.159101 345.50686 
L 283.187717 347.64862 
L 289.216333 349.614683 
L 295.244949 351.40505 
L 301.273566 353.019722 
L 307.302182 354.458698 
L 313.330798 355.721978 
L 319.359414 356.809562 
L 325.38803 357.72145 
L 331.416646 358.457643 
L 337.445263 359.01814 
L 343.473879 359.40294 
L 349.502495 359.612045 
L 355.531111 359.645455 
L 361.559727 359.503168 
L 367.588343 359.185185 
L 373.61696 358.691507 
L 379.645576 358.022133 
L 385.674192 357.177063 
L 391.702808 356.156297 
L 397.731424 354.959835 
L 403.76004 353.587678 
L 409.788657 352.039824 
L 415.817273 350.316275 
L 421.845889 348.41703 
L 427.874505 346.342089 
L 433.903121 344.091453 
L 439.931737 341.66512 
L 445.960354 339.063092 
L 451.98897 336.285367 
L 458.017586 333.331947 
L 464.046202 330.202832 
L 470.074818 326.89802 
L 476.103434 323.417512 
L 482.132051 319.761309 
L 488.160667 315.92941 
L 494.189283 311.921815 
L 500.217899 307.738524 
L 506.246515 303.379537 
L 512.275131 298.844854 
L 518.303747 294.134476 
L 524.332364 289.248402 
L 530.36098 284.186632 
L 536.389596 278.949166 
L 542.418212 273.536004 
L 548.446828 267.947147 
L 554.475444 262.182593 
L 560.504061 256.242344 
L 566.532677 250.126399 
L 572.561293 243.834758 
L 578.589909 237.367421 
L 584.618525 230.724389 
L 590.647141 223.90566 
L 596.675758 216.911236 
L 602.704374 209.741116 
L 608.73299 202.3953 
L 614.761606 194.873788 
L 620.790222 187.17658 
L 626.818838 179.303677 
L 632.847455 171.255078 
L 638.876071 163.030783 
L 644.904687 154.630792 
L 650.933303 146.055105 
L 656.961919 137.303722 
L 662.990535 128.376644 
L 669.019152 119.27387 
L 675.047768 109.9954 
L 681.076384 100.541234 
L 687.105 90.911372 
" clip-path="url(#pb1835d1deb)" style="fill: none; stroke-dasharray: 9.6,2.4,1.5,2.4; stroke-dashoffset: 0; stroke: #a50034; stroke-width: 1.5"/>
   </g>
   <g id="line2d_37">
    <path d="M 90.272 119.560128 
L 96.300616 115.755684 
L 102.329232 112.036284 
L 108.357848 108.401929 
L 114.386465 104.852619 
L 120.415081 101.388353 
L 126.443697 98.009133 
L 132.472313 94.714958 
L 138.500929 91.505827 
L 144.529545 88.381741 
L 150.558162 85.3427 
L 156.586778 82.388704 
L 162.615394 79.519753 
L 168.64401 76.735847 
L 174.672626 74.036986 
L 180.701242 71.423169 
L 186.729859 68.894398 
L 192.758475 66.450671 
L 198.787091 64.091989 
L 204.815707 61.818352 
L 210.844323 59.62976 
L 216.872939 57.526213 
L 222.901556 55.507711 
L 228.930172 53.574253 
L 234.958788 51.725841 
L 240.987404 49.962473 
L 247.01602 48.28415 
L 253.044636 46.690873 
L 259.073253 45.18264 
L 265.101869 43.759452 
L 271.130485 42.421308 
L 277.159101 41.16821 
L 283.187717 40.000156 
L 289.216333 38.917148 
L 295.244949 37.919184 
L 301.273566 37.006265 
L 307.302182 36.178391 
L 313.330798 35.435562 
L 319.359414 34.777778 
L 325.38803 34.205039 
L 331.416646 33.717344 
L 337.445263 33.314695 
L 343.473879 32.99709 
L 349.502495 32.76453 
L 355.531111 32.617015 
L 361.559727 32.554545 
L 367.588343 32.57712 
L 373.61696 32.68474 
L 379.645576 32.877405 
L 385.674192 33.155114 
L 391.702808 33.517869 
L 397.731424 33.965668 
L 403.76004 34.498512 
L 409.788657 35.116401 
L 415.817273 35.819335 
L 421.845889 36.607314 
L 427.874505 37.480337 
L 433.903121 38.438406 
L 439.931737 39.481519 
L 445.960354 40.609678 
L 451.98897 41.822881 
L 458.017586 43.121129 
L 464.046202 44.504422 
L 470.074818 45.97276 
L 476.103434 47.526142 
L 482.132051 49.16457 
L 488.160667 50.888042 
L 494.189283 52.69656 
L 500.217899 54.590122 
L 506.246515 56.568729 
L 512.275131 58.632381 
L 518.303747 60.781078 
L 524.332364 63.01482 
L 530.36098 65.333606 
L 536.389596 67.737438 
L 542.418212 70.226314 
L 548.446828 72.800236 
L 554.475444 75.459202 
L 560.504061 78.203213 
L 566.532677 81.032269 
L 572.561293 83.94637 
L 578.589909 86.945515 
L 584.618525 90.029706 
L 590.647141 93.198941 
L 596.675758 96.453222 
L 602.704374 99.792547 
L 608.73299 103.216917 
L 614.761606 106.726332 
L 620.790222 110.320792 
L 626.818838 114.000296 
L 632.847455 117.764846 
L 638.876071 121.614441 
L 644.904687 125.54908 
L 650.933303 129.568764 
L 656.961919 133.673493 
L 662.990535 137.863267 
L 669.019152 142.138086 
L 675.047768 146.49795 
L 681.076384 150.942859 
L 687.105 155.472812 
" clip-path="url(#pb1835d1deb)" style="fill: none; stroke-dasharray: 9.6,2.4,1.5,2.4; stroke-dashoffset: 0; stroke: #ef60a3; stroke-width: 1.5"/>
   </g>
   <g id="patch_3">
    <path d="M 90.272 376 
L 90.272 16.2 
" style="fill: none; stroke: #000000; stroke-width: 0.8; stroke-linejoin: miter; stroke-linecap: square"/>
   </g>
   <g id="patch_4">
    <path d="M 687.105 376 
L 687.105 16.2 
" style="fill: none; stroke: #000000; stroke-width: 0.8; stroke-linejoin: miter; stroke-linecap: square"/>
   </g>
   <g id="patch_5">
    <path d="M 90.272 376 
L 687.105 376 
" style="fill: none; stroke: #000000; stroke-width: 0.8; stroke-linejoin: miter; stroke-linecap: square"/>
   </g>
   <g id="patch_6">
    <path d="M 90.272 16.2 
L 687.105 16.2 
" style="fill: none; stroke: #000000; stroke-width: 0.8; stroke-linejoin: miter; stroke-linecap: square"/>
   </g>
   <g id="legend_1">
    <g id="patch_7">
     <path d="M 532.905 368.5 
L 676.605 368.5 
Q 679.605 368.5 679.605 365.5 
L 679.605 300.85 
Q 679.605 297.85 676.605 297.85 
L 532.905 297.85 
Q 529.905 297.85 529.905 300.85 
L 529.905 365.5 
Q 529.905 368.5 532.905 368.5 
z
" style="fill: #ffffff; opacity: 0.8; stroke: #cccccc; stroke-linejoin: miter"/>
    </g>
    <g id="line2d_38">
     <path d="M 535.905 310 
L 550.905 310 
L 565.905 310 
" style="fill: none; stroke-dasharray: 9.6,2.4,1.5,2.4; stroke-dashoffset: 0; stroke: #00a6b6; stroke-width: 1.5"/>
    </g>
    <g id="text_20">
     <!-- $\delta_e$ = -15 deg -->
     <g transform="translate(577.905 315.25) scale(0.15 -0.15)">
      <defs>
       <path id="DejaVuSans-Oblique-3b4" d="M 3472 4053 
Q 3197 4272 2450 4272 
Q 1659 4272 1588 3906 
Q 1531 3619 2328 3469 
Q 2953 3353 3253 3003 
Q 3616 2581 3447 1716 
Q 3284 888 2763 400 
Q 2238 -91 1488 -91 
Q 741 -91 406 400 
Q 72 888 241 1747 
Q 363 2384 891 2900 
Q 1097 3100 1353 3213 
Q 913 3459 1000 3900 
Q 1166 4750 2544 4750 
Q 3234 4750 3566 4531 
L 3472 4053 
z
M 1753 3056 
Q 1525 2966 1306 2738 
Q 969 2384 847 1747 
Q 722 1113 919 756 
Q 1119 397 1584 397 
Q 2044 397 2381 759 
Q 2722 1122 2838 1716 
Q 2956 2338 2731 2638 
Q 2491 2959 2103 2994 
Q 1906 3013 1753 3056 
z
" transform="scale(0.015625)"/>
       <path id="DejaVuSans-Oblique-65" d="M 3078 2063 
Q 3088 2113 3092 2166 
Q 3097 2219 3097 2272 
Q 3097 2653 2873 2875 
Q 2650 3097 2266 3097 
Q 1838 3097 1509 2826 
Q 1181 2556 1013 2059 
L 3078 2063 
z
M 3578 1613 
L 903 1613 
Q 884 1494 878 1425 
Q 872 1356 872 1306 
Q 872 872 1139 634 
Q 1406 397 1894 397 
Q 2269 397 2603 481 
Q 2938 566 3225 728 
L 3116 159 
Q 2806 34 2476 -28 
Q 2147 -91 1806 -91 
Q 1078 -91 686 257 
Q 294 606 294 1247 
Q 294 1794 489 2264 
Q 684 2734 1063 3103 
Q 1306 3334 1642 3459 
Q 1978 3584 2356 3584 
Q 2950 3584 3301 3228 
Q 3653 2872 3653 2272 
Q 3653 2128 3634 1964 
Q 3616 1800 3578 1613 
z
" transform="scale(0.015625)"/>
       <path id="DejaVuSans-3d" d="M 678 2906 
L 4684 2906 
L 4684 2381 
L 678 2381 
L 678 2906 
z
M 678 1631 
L 4684 1631 
L 4684 1100 
L 678 1100 
L 678 1631 
z
" transform="scale(0.015625)"/>
       <path id="DejaVuSans-64" d="M 2906 2969 
L 2906 4863 
L 3481 4863 
L 3481 0 
L 2906 0 
L 2906 525 
Q 2725 213 2448 61 
Q 2172 -91 1784 -91 
Q 1150 -91 751 415 
Q 353 922 353 1747 
Q 353 2572 751 3078 
Q 1150 3584 1784 3584 
Q 2172 3584 2448 3432 
Q 2725 3281 2906 2969 
z
M 947 1747 
Q 947 1113 1208 752 
Q 1469 391 1925 391 
Q 2381 391 2643 752 
Q 2906 1113 2906 1747 
Q 2906 2381 2643 2742 
Q 2381 3103 1925 3103 
Q 1469 3103 1208 2742 
Q 947 2381 947 1747 
z
" transform="scale(0.015625)"/>
       <path id="DejaVuSans-65" d="M 3597 1894 
L 3597 1613 
L 953 1613 
Q 991 1019 1311 708 
Q 1631 397 2203 397 
Q 2534 397 2845 478 
Q 3156 559 3463 722 
L 3463 178 
Q 3153 47 2828 -22 
Q 2503 -91 2169 -91 
Q 1331 -91 842 396 
Q 353 884 353 1716 
Q 353 2575 817 3079 
Q 1281 3584 2069 3584 
Q 2775 3584 3186 3129 
Q 3597 2675 3597 1894 
z
M 3022 2063 
Q 3016 2534 2758 2815 
Q 2500 3097 2075 3097 
Q 1594 3097 1305 2825 
Q 1016 2553 972 2059 
L 3022 2063 
z
" transform="scale(0.015625)"/>
       <path id="DejaVuSans-67" d="M 2906 1791 
Q 2906 2416 2648 2759 
Q 2391 3103 1925 3103 
Q 1463 3103 1205 2759 
Q 947 2416 947 1791 
Q 947 1169 1205 825 
Q 1463 481 1925 481 
Q 2391 481 2648 825 
Q 2906 1169 2906 1791 
z
M 3481 434 
Q 3481 -459 3084 -895 
Q 2688 -1331 1869 -1331 
Q 1566 -1331 1297 -1286 
Q 1028 -1241 775 -1147 
L 775 -588 
Q 1028 -725 1275 -790 
Q 1522 -856 1778 -856 
Q 2344 -856 2625 -561 
Q 2906 -266 2906 331 
L 2906 616 
Q 2728 306 2450 153 
Q 2172 0 1784 0 
Q 1141 0 747 490 
Q 353 981 353 1791 
Q 353 2603 747 3093 
Q 1141 3584 1784 3584 
Q 2172 3584 2450 3431 
Q 2728 3278 2906 2969 
L 2906 3500 
L 3481 3500 
L 3481 434 
z
" transform="scale(0.015625)"/>
      </defs>
      <use xlink:href="#DejaVuSans-Oblique-3b4" transform="translate(0 0.015625)"/>
      <use xlink:href="#DejaVuSans-Oblique-65" transform="translate(61.181641 -16.390625) scale(0.7)"/>
      <use xlink:href="#DejaVuSans-20" transform="translate(106.982422 0.015625)"/>
      <use xlink:href="#DejaVuSans-3d" transform="translate(138.769531 0.015625)"/>
      <use xlink:href="#DejaVuSans-20" transform="translate(222.558594 0.015625)"/>
      <use xlink:href="#DejaVuSans-2d" transform="translate(254.345703 0.015625)"/>
      <use xlink:href="#DejaVuSans-31" transform="translate(290.429688 0.015625)"/>
      <use xlink:href="#DejaVuSans-35" transform="translate(354.052734 0.015625)"/>
      <use xlink:href="#DejaVuSans-20" transform="translate(417.675781 0.015625)"/>
      <use xlink:href="#DejaVuSans-64" transform="translate(449.462891 0.015625)"/>
      <use xlink:href="#DejaVuSans-65" transform="translate(512.939453 0.015625)"/>
      <use xlink:href="#DejaVuSans-67" transform="translate(574.462891 0.015625)"/>
     </g>
    </g>
    <g id="line2d_39">
     <path d="M 535.905 332.05 
L 550.905 332.05 
L 565.905 332.05 
" style="fill: none; stroke-dasharray: 9.6,2.4,1.5,2.4; stroke-dashoffset: 0; stroke: #a50034; stroke-width: 1.5"/>
    </g>
    <g id="text_21">
     <!-- $\delta_e$ = 0 deg -->
     <g transform="translate(577.905 337.3) scale(0.15 -0.15)">
      <use xlink:href="#DejaVuSans-Oblique-3b4" transform="translate(0 0.015625)"/>
      <use xlink:href="#DejaVuSans-Oblique-65" transform="translate(61.181641 -16.390625) scale(0.7)"/>
      <use xlink:href="#DejaVuSans-20" transform="translate(106.982422 0.015625)"/>
      <use xlink:href="#DejaVuSans-3d" transform="translate(138.769531 0.015625)"/>
      <use xlink:href="#DejaVuSans-20" transform="translate(222.558594 0.015625)"/>
      <use xlink:href="#DejaVuSans-30" transform="translate(254.345703 0.015625)"/>
      <use xlink:href="#DejaVuSans-20" transform="translate(317.96875 0.015625)"/>
      <use xlink:href="#DejaVuSans-64" transform="translate(349.755859 0.015625)"/>
      <use xlink:href="#DejaVuSans-65" transform="translate(413.232422 0.015625)"/>
      <use xlink:href="#DejaVuSans-67" transform="translate(474.755859 0.015625)"/>
     </g>
    </g>
    <g id="line2d_40">
     <path d="M 535.905 354.1 
L 550.905 354.1 
L 565.905 354.1 
" style="fill: none; stroke-dasharray: 9.6,2.4,1.5,2.4; stroke-dashoffset: 0; stroke: #ef60a3; stroke-width: 1.5"/>
    </g>
    <g id="text_22">
     <!-- $\delta_e$ = 15 deg -->
     <g transform="translate(577.905 359.35) scale(0.15 -0.15)">
      <use xlink:href="#DejaVuSans-Oblique-3b4" transform="translate(0 0.015625)"/>
      <use xlink:href="#DejaVuSans-Oblique-65" transform="translate(61.181641 -16.390625) scale(0.7)"/>
      <use xlink:href="#DejaVuSans-20" transform="translate(106.982422 0.015625)"/>
      <use xlink:href="#DejaVuSans-3d" transform="translate(138.769531 0.015625)"/>
      <use xlink:href="#DejaVuSans-20" transform="translate(222.558594 0.015625)"/>
      <use xlink:href="#DejaVuSans-31" transform="translate(254.345703 0.015625)"/>
      <use xlink:href="#DejaVuSans-35" transform="translate(317.96875 0.015625)"/>
      <use xlink:href="#DejaVuSans-20" transform="translate(381.591797 0.015625)"/>
      <use xlink:href="#DejaVuSans-64" transform="translate(413.378906 0.015625)"/>
      <use xlink:href="#DejaVuSans-65" transform="translate(476.855469 0.015625)"/>
      <use xlink:href="#DejaVuSans-67" transform="translate(538.378906 0.015625)"/>
     </g>
    </g>
   </g>
  </g>
 </g>
 <defs>
  <clipPath id="pb1835d1deb">
   <rect x="90.272" y="16.2" width="596.833" height="359.8"/>
  </clipPath>
 </defs>
</svg>
