<?xml version="1.0" encoding="utf-8" standalone="no"?>
<!DOCTYPE svg PUBLIC "-//W3C//DTD SVG 1.1//EN"
  "http://www.w3.org/Graphics/SVG/1.1/DTD/svg11.dtd">
<svg xmlns:xlink="http://www.w3.org/1999/xlink" width="576pt" height="432pt" viewBox="0 0 576 432" xmlns="http://www.w3.org/2000/svg" version="1.1">
 <metadata>
  <rdf:RDF xmlns:dc="http://purl.org/dc/elements/1.1/" xmlns:cc="http://creativecommons.org/ns#" xmlns:rdf="http://www.w3.org/1999/02/22-rdf-syntax-ns#">
   <cc:Work>
    <dc:type rdf:resource="http://purl.org/dc/dcmitype/StillImage"/>
    <dc:date>2024-04-03T17:18:39.462029</dc:date>
    <dc:format>image/svg+xml</dc:format>
    <dc:creator>
     <cc:Agent>
      <dc:title>Matplotlib v3.8.3, https://matplotlib.org/</dc:title>
     </cc:Agent>
    </dc:creator>
   </cc:Work>
  </rdf:RDF>
 </metadata>
 <defs>
  <style type="text/css">*{stroke-linejoin: round; stroke-linecap: butt}</style>
 </defs>
 <g id="figure_1">
  <g id="patch_1">
   <path d="M 0 432 
L 576 432 
L 576 0 
L 0 0 
z
" style="fill: #ffffff"/>
  </g>
  <g id="axes_1">
   <g id="patch_2">
    <path d="M 67.556 357.064 
L 538.47 357.064 
L 538.47 24.838793 
L 67.556 24.838793 
z
" style="fill: #ffffff"/>
   </g>
   <g id="PathCollection_1">
    <defs>
     <path id="m68ea83ae6e" d="M 0 3 
C 0.795609 3 1.55874 2.683901 2.12132 2.12132 
C 2.683901 1.55874 3 0.795609 3 0 
C 3 -0.795609 2.683901 -1.55874 2.12132 -2.12132 
C 1.55874 -2.683901 0.795609 -3 0 -3 
C -0.795609 -3 -1.55874 -2.683901 -2.12132 -2.12132 
C -2.683901 -1.55874 -3 -0.795609 -3 0 
C -3 0.795609 -2.683901 1.55874 -2.12132 2.12132 
C -1.55874 2.683901 -0.795609 3 0 3 
z
" style="stroke: #00a6b6"/>
    </defs>
    <g clip-path="url(#p402f67395c)">
     <use xlink:href="#m68ea83ae6e" x="172.093712" y="341.432355" style="fill: #00a6b6; stroke: #00a6b6"/>
     <use xlink:href="#m68ea83ae6e" x="374.817457" y="340.168023" style="fill: #00a6b6; stroke: #00a6b6"/>
     <use xlink:href="#m68ea83ae6e" x="410.905537" y="337.333815" style="fill: #00a6b6; stroke: #00a6b6"/>
     <use xlink:href="#m68ea83ae6e" x="419.795513" y="335.728995" style="fill: #00a6b6; stroke: #00a6b6"/>
    </g>
   </g>
   <g id="PathCollection_2">
    <defs>
     <path id="m2995cafd0b" d="M 0 3 
C 0.795609 3 1.55874 2.683901 2.12132 2.12132 
C 2.683901 1.55874 3 0.795609 3 0 
C 3 -0.795609 2.683901 -1.55874 2.12132 -2.12132 
C 1.55874 -2.683901 0.795609 -3 0 -3 
C -0.795609 -3 -1.55874 -2.683901 -2.12132 -2.12132 
C -2.683901 -1.55874 -3 -0.795609 -3 0 
C -3 0.795609 -2.683901 1.55874 -2.12132 2.12132 
C -1.55874 2.683901 -0.795609 3 0 3 
z
" style="stroke: #a50034"/>
    </defs>
    <g clip-path="url(#p402f67395c)">
     <use xlink:href="#m2995cafd0b" x="171.72342" y="341.449188" style="fill: #a50034; stroke: #a50034"/>
     <use xlink:href="#m2995cafd0b" x="374.569632" y="340.151009" style="fill: #a50034; stroke: #a50034"/>
     <use xlink:href="#m2995cafd0b" x="410.112796" y="337.27591" style="fill: #a50034; stroke: #a50034"/>
     <use xlink:href="#m2995cafd0b" x="418.864346" y="335.665085" style="fill: #a50034; stroke: #a50034"/>
    </g>
   </g>
   <g id="PathCollection_3">
    <defs>
     <path id="m7cebc142b1" d="M 0 3 
C 0.795609 3 1.55874 2.683901 2.12132 2.12132 
C 2.683901 1.55874 3 0.795609 3 0 
C 3 -0.795609 2.683901 -1.55874 2.12132 -2.12132 
C 1.55874 -2.683901 0.795609 -3 0 -3 
C -0.795609 -3 -1.55874 -2.683901 -2.12132 -2.12132 
C -2.683901 -1.55874 -3 -0.795609 -3 0 
C -3 0.795609 -2.683901 1.55874 -2.12132 2.12132 
C -1.55874 2.683901 -0.795609 3 0 3 
z
" style="stroke: #ef60a3"/>
    </defs>
    <g clip-path="url(#p402f67395c)">
     <use xlink:href="#m7cebc142b1" x="171.957792" y="341.530024" style="fill: #ef60a3; stroke: #ef60a3"/>
     <use xlink:href="#m7cebc142b1" x="373.312597" y="340.029343" style="fill: #ef60a3; stroke: #ef60a3"/>
     <use xlink:href="#m7cebc142b1" x="407.177843" y="337.024205" style="fill: #ef60a3; stroke: #ef60a3"/>
     <use xlink:href="#m7cebc142b1" x="415.498409" y="335.351218" style="fill: #ef60a3; stroke: #ef60a3"/>
    </g>
   </g>
   <g id="matplotlib.axis_1">
    <g id="xtick_1">
     <g id="line2d_1">
      <path d="M 67.556 357.064 
L 67.556 24.838793 
" clip-path="url(#p402f67395c)" style="fill: none; stroke: #b0b0b0; stroke-width: 0.8; stroke-linecap: square"/>
     </g>
     <g id="line2d_2">
      <defs>
       <path id="m5e75d5dc71" d="M 0 0 
L 0 3.5 
" style="stroke: #000000; stroke-width: 0.8"/>
      </defs>
      <g>
       <use xlink:href="#m5e75d5dc71" x="67.556" y="357.064" style="stroke: #000000; stroke-width: 0.8"/>
      </g>
     </g>
     <g id="text_1">
      <!-- −1.0 -->
      <g transform="translate(43.273188 379.260875) scale(0.2 -0.2)">
       <defs>
        <path id="DejaVuSans-2212" d="M 678 2272 
L 4684 2272 
L 4684 1741 
L 678 1741 
L 678 2272 
z
" transform="scale(0.015625)"/>
        <path id="DejaVuSans-31" d="M 794 531 
L 1825 531 
L 1825 4091 
L 703 3866 
L 703 4441 
L 1819 4666 
L 2450 4666 
L 2450 531 
L 3481 531 
L 3481 0 
L 794 0 
L 794 531 
z
" transform="scale(0.015625)"/>
        <path id="DejaVuSans-2e" d="M 684 794 
L 1344 794 
L 1344 0 
L 684 0 
L 684 794 
z
" transform="scale(0.015625)"/>
        <path id="DejaVuSans-30" d="M 2034 4250 
Q 1547 4250 1301 3770 
Q 1056 3291 1056 2328 
Q 1056 1369 1301 889 
Q 1547 409 2034 409 
Q 2525 409 2770 889 
Q 3016 1369 3016 2328 
Q 3016 3291 2770 3770 
Q 2525 4250 2034 4250 
z
M 2034 4750 
Q 2819 4750 3233 4129 
Q 3647 3509 3647 2328 
Q 3647 1150 3233 529 
Q 2819 -91 2034 -91 
Q 1250 -91 836 529 
Q 422 1150 422 2328 
Q 422 3509 836 4129 
Q 1250 4750 2034 4750 
z
" transform="scale(0.015625)"/>
       </defs>
       <use xlink:href="#DejaVuSans-2212"/>
       <use xlink:href="#DejaVuSans-31" x="83.789062"/>
       <use xlink:href="#DejaVuSans-2e" x="147.412109"/>
       <use xlink:href="#DejaVuSans-30" x="179.199219"/>
      </g>
     </g>
    </g>
    <g id="xtick_2">
     <g id="line2d_3">
      <path d="M 146.041667 357.064 
L 146.041667 24.838793 
" clip-path="url(#p402f67395c)" style="fill: none; stroke: #b0b0b0; stroke-width: 0.8; stroke-linecap: square"/>
     </g>
     <g id="line2d_4">
      <g>
       <use xlink:href="#m5e75d5dc71" x="146.041667" y="357.064" style="stroke: #000000; stroke-width: 0.8"/>
      </g>
     </g>
     <g id="text_2">
      <!-- −0.5 -->
      <g transform="translate(121.758854 379.260875) scale(0.2 -0.2)">
       <defs>
        <path id="DejaVuSans-35" d="M 691 4666 
L 3169 4666 
L 3169 4134 
L 1269 4134 
L 1269 2991 
Q 1406 3038 1543 3061 
Q 1681 3084 1819 3084 
Q 2600 3084 3056 2656 
Q 3513 2228 3513 1497 
Q 3513 744 3044 326 
Q 2575 -91 1722 -91 
Q 1428 -91 1123 -41 
Q 819 9 494 109 
L 494 744 
Q 775 591 1075 516 
Q 1375 441 1709 441 
Q 2250 441 2565 725 
Q 2881 1009 2881 1497 
Q 2881 1984 2565 2268 
Q 2250 2553 1709 2553 
Q 1456 2553 1204 2497 
Q 953 2441 691 2322 
L 691 4666 
z
" transform="scale(0.015625)"/>
       </defs>
       <use xlink:href="#DejaVuSans-2212"/>
       <use xlink:href="#DejaVuSans-30" x="83.789062"/>
       <use xlink:href="#DejaVuSans-2e" x="147.412109"/>
       <use xlink:href="#DejaVuSans-35" x="179.199219"/>
      </g>
     </g>
    </g>
    <g id="xtick_3">
     <g id="line2d_5">
      <path d="M 224.527333 357.064 
L 224.527333 24.838793 
" clip-path="url(#p402f67395c)" style="fill: none; stroke: #b0b0b0; stroke-width: 0.8; stroke-linecap: square"/>
     </g>
     <g id="line2d_6">
      <g>
       <use xlink:href="#m5e75d5dc71" x="224.527333" y="357.064" style="stroke: #000000; stroke-width: 0.8"/>
      </g>
     </g>
     <g id="text_3">
      <!-- 0.0 -->
      <g transform="translate(208.624208 379.260875) scale(0.2 -0.2)">
       <use xlink:href="#DejaVuSans-30"/>
       <use xlink:href="#DejaVuSans-2e" x="63.623047"/>
       <use xlink:href="#DejaVuSans-30" x="95.410156"/>
      </g>
     </g>
    </g>
    <g id="xtick_4">
     <g id="line2d_7">
      <path d="M 303.013 357.064 
L 303.013 24.838793 
" clip-path="url(#p402f67395c)" style="fill: none; stroke: #b0b0b0; stroke-width: 0.8; stroke-linecap: square"/>
     </g>
     <g id="line2d_8">
      <g>
       <use xlink:href="#m5e75d5dc71" x="303.013" y="357.064" style="stroke: #000000; stroke-width: 0.8"/>
      </g>
     </g>
     <g id="text_4">
      <!-- 0.5 -->
      <g transform="translate(287.109875 379.260875) scale(0.2 -0.2)">
       <use xlink:href="#DejaVuSans-30"/>
       <use xlink:href="#DejaVuSans-2e" x="63.623047"/>
       <use xlink:href="#DejaVuSans-35" x="95.410156"/>
      </g>
     </g>
    </g>
    <g id="xtick_5">
     <g id="line2d_9">
      <path d="M 381.498667 357.064 
L 381.498667 24.838793 
" clip-path="url(#p402f67395c)" style="fill: none; stroke: #b0b0b0; stroke-width: 0.8; stroke-linecap: square"/>
     </g>
     <g id="line2d_10">
      <g>
       <use xlink:href="#m5e75d5dc71" x="381.498667" y="357.064" style="stroke: #000000; stroke-width: 0.8"/>
      </g>
     </g>
     <g id="text_5">
      <!-- 1.0 -->
      <g transform="translate(365.595542 379.260875) scale(0.2 -0.2)">
       <use xlink:href="#DejaVuSans-31"/>
       <use xlink:href="#DejaVuSans-2e" x="63.623047"/>
       <use xlink:href="#DejaVuSans-30" x="95.410156"/>
      </g>
     </g>
    </g>
    <g id="xtick_6">
     <g id="line2d_11">
      <path d="M 459.984333 357.064 
L 459.984333 24.838793 
" clip-path="url(#p402f67395c)" style="fill: none; stroke: #b0b0b0; stroke-width: 0.8; stroke-linecap: square"/>
     </g>
     <g id="line2d_12">
      <g>
       <use xlink:href="#m5e75d5dc71" x="459.984333" y="357.064" style="stroke: #000000; stroke-width: 0.8"/>
      </g>
     </g>
     <g id="text_6">
      <!-- 1.5 -->
      <g transform="translate(444.081208 379.260875) scale(0.2 -0.2)">
       <use xlink:href="#DejaVuSans-31"/>
       <use xlink:href="#DejaVuSans-2e" x="63.623047"/>
       <use xlink:href="#DejaVuSans-35" x="95.410156"/>
      </g>
     </g>
    </g>
    <g id="xtick_7">
     <g id="line2d_13">
      <path d="M 538.47 357.064 
L 538.47 24.838793 
" clip-path="url(#p402f67395c)" style="fill: none; stroke: #b0b0b0; stroke-width: 0.8; stroke-linecap: square"/>
     </g>
     <g id="line2d_14">
      <g>
       <use xlink:href="#m5e75d5dc71" x="538.47" y="357.064" style="stroke: #000000; stroke-width: 0.8"/>
      </g>
     </g>
     <g id="text_7">
      <!-- 2.0 -->
      <g transform="translate(522.566875 379.260875) scale(0.2 -0.2)">
       <defs>
        <path id="DejaVuSans-32" d="M 1228 531 
L 3431 531 
L 3431 0 
L 469 0 
L 469 531 
Q 828 903 1448 1529 
Q 2069 2156 2228 2338 
Q 2531 2678 2651 2914 
Q 2772 3150 2772 3378 
Q 2772 3750 2511 3984 
Q 2250 4219 1831 4219 
Q 1534 4219 1204 4116 
Q 875 4013 500 3803 
L 500 4441 
Q 881 4594 1212 4672 
Q 1544 4750 1819 4750 
Q 2544 4750 2975 4387 
Q 3406 4025 3406 3419 
Q 3406 3131 3298 2873 
Q 3191 2616 2906 2266 
Q 2828 2175 2409 1742 
Q 1991 1309 1228 531 
z
" transform="scale(0.015625)"/>
       </defs>
       <use xlink:href="#DejaVuSans-32"/>
       <use xlink:href="#DejaVuSans-2e" x="63.623047"/>
       <use xlink:href="#DejaVuSans-30" x="95.410156"/>
      </g>
     </g>
    </g>
    <g id="text_8">
     <!-- $C_L$ [-] (trim) -->
     <g transform="translate(245.713 402.617125) scale(0.2 -0.2)">
      <defs>
       <path id="DejaVuSans-Oblique-43" d="M 4447 4306 
L 4319 3641 
Q 4019 3944 3683 4091 
Q 3347 4238 2956 4238 
Q 2422 4238 2017 3981 
Q 1613 3725 1319 3200 
Q 1131 2863 1032 2486 
Q 934 2109 934 1728 
Q 934 1091 1264 756 
Q 1594 422 2222 422 
Q 2656 422 3056 561 
Q 3456 700 3834 978 
L 3688 231 
Q 3316 72 2936 -9 
Q 2556 -91 2175 -91 
Q 1278 -91 773 396 
Q 269 884 269 1753 
Q 269 2309 461 2846 
Q 653 3384 1013 3828 
Q 1394 4300 1883 4525 
Q 2372 4750 3022 4750 
Q 3422 4750 3780 4639 
Q 4138 4528 4447 4306 
z
" transform="scale(0.015625)"/>
       <path id="DejaVuSans-Oblique-4c" d="M 1075 4666 
L 1709 4666 
L 909 525 
L 3181 525 
L 3078 0 
L 172 0 
L 1075 4666 
z
" transform="scale(0.015625)"/>
       <path id="DejaVuSans-20" transform="scale(0.015625)"/>
       <path id="DejaVuSans-5b" d="M 550 4863 
L 1875 4863 
L 1875 4416 
L 1125 4416 
L 1125 -397 
L 1875 -397 
L 1875 -844 
L 550 -844 
L 550 4863 
z
" transform="scale(0.015625)"/>
       <path id="DejaVuSans-2d" d="M 313 2009 
L 1997 2009 
L 1997 1497 
L 313 1497 
L 313 2009 
z
" transform="scale(0.015625)"/>
       <path id="DejaVuSans-5d" d="M 1947 4863 
L 1947 -844 
L 622 -844 
L 622 -397 
L 1369 -397 
L 1369 4416 
L 622 4416 
L 622 4863 
L 1947 4863 
z
" transform="scale(0.015625)"/>
       <path id="DejaVuSans-28" d="M 1984 4856 
Q 1566 4138 1362 3434 
Q 1159 2731 1159 2009 
Q 1159 1288 1364 580 
Q 1569 -128 1984 -844 
L 1484 -844 
Q 1016 -109 783 600 
Q 550 1309 550 2009 
Q 550 2706 781 3412 
Q 1013 4119 1484 4856 
L 1984 4856 
z
" transform="scale(0.015625)"/>
       <path id="DejaVuSans-74" d="M 1172 4494 
L 1172 3500 
L 2356 3500 
L 2356 3053 
L 1172 3053 
L 1172 1153 
Q 1172 725 1289 603 
Q 1406 481 1766 481 
L 2356 481 
L 2356 0 
L 1766 0 
Q 1100 0 847 248 
Q 594 497 594 1153 
L 594 3053 
L 172 3053 
L 172 3500 
L 594 3500 
L 594 4494 
L 1172 4494 
z
" transform="scale(0.015625)"/>
       <path id="DejaVuSans-72" d="M 2631 2963 
Q 2534 3019 2420 3045 
Q 2306 3072 2169 3072 
Q 1681 3072 1420 2755 
Q 1159 2438 1159 1844 
L 1159 0 
L 581 0 
L 581 3500 
L 1159 3500 
L 1159 2956 
Q 1341 3275 1631 3429 
Q 1922 3584 2338 3584 
Q 2397 3584 2469 3576 
Q 2541 3569 2628 3553 
L 2631 2963 
z
" transform="scale(0.015625)"/>
       <path id="DejaVuSans-69" d="M 603 3500 
L 1178 3500 
L 1178 0 
L 603 0 
L 603 3500 
z
M 603 4863 
L 1178 4863 
L 1178 4134 
L 603 4134 
L 603 4863 
z
" transform="scale(0.015625)"/>
       <path id="DejaVuSans-6d" d="M 3328 2828 
Q 3544 3216 3844 3400 
Q 4144 3584 4550 3584 
Q 5097 3584 5394 3201 
Q 5691 2819 5691 2113 
L 5691 0 
L 5113 0 
L 5113 2094 
Q 5113 2597 4934 2840 
Q 4756 3084 4391 3084 
Q 3944 3084 3684 2787 
Q 3425 2491 3425 1978 
L 3425 0 
L 2847 0 
L 2847 2094 
Q 2847 2600 2669 2842 
Q 2491 3084 2119 3084 
Q 1678 3084 1418 2786 
Q 1159 2488 1159 1978 
L 1159 0 
L 581 0 
L 581 3500 
L 1159 3500 
L 1159 2956 
Q 1356 3278 1631 3431 
Q 1906 3584 2284 3584 
Q 2666 3584 2933 3390 
Q 3200 3197 3328 2828 
z
" transform="scale(0.015625)"/>
       <path id="DejaVuSans-29" d="M 513 4856 
L 1013 4856 
Q 1481 4119 1714 3412 
Q 1947 2706 1947 2009 
Q 1947 1309 1714 600 
Q 1481 -109 1013 -844 
L 513 -844 
Q 928 -128 1133 580 
Q 1338 1288 1338 2009 
Q 1338 2731 1133 3434 
Q 928 4138 513 4856 
z
" transform="scale(0.015625)"/>
      </defs>
      <use xlink:href="#DejaVuSans-Oblique-43" transform="translate(0 0.015625)"/>
      <use xlink:href="#DejaVuSans-Oblique-4c" transform="translate(69.824219 -16.390625) scale(0.7)"/>
      <use xlink:href="#DejaVuSans-20" transform="translate(111.557617 0.015625)"/>
      <use xlink:href="#DejaVuSans-5b" transform="translate(143.344727 0.015625)"/>
      <use xlink:href="#DejaVuSans-2d" transform="translate(182.358398 0.015625)"/>
      <use xlink:href="#DejaVuSans-5d" transform="translate(218.442383 0.015625)"/>
      <use xlink:href="#DejaVuSans-20" transform="translate(257.456055 0.015625)"/>
      <use xlink:href="#DejaVuSans-28" transform="translate(289.243164 0.015625)"/>
      <use xlink:href="#DejaVuSans-74" transform="translate(328.256836 0.015625)"/>
      <use xlink:href="#DejaVuSans-72" transform="translate(367.46582 0.015625)"/>
      <use xlink:href="#DejaVuSans-69" transform="translate(408.579102 0.015625)"/>
      <use xlink:href="#DejaVuSans-6d" transform="translate(436.362305 0.015625)"/>
      <use xlink:href="#DejaVuSans-29" transform="translate(533.774414 0.015625)"/>
     </g>
    </g>
   </g>
   <g id="matplotlib.axis_2">
    <g id="ytick_1">
     <g id="line2d_15">
      <path d="M 67.556 343.355652 
L 538.47 343.355652 
" clip-path="url(#p402f67395c)" style="fill: none; stroke: #b0b0b0; stroke-width: 0.8; stroke-linecap: square"/>
     </g>
     <g id="line2d_16">
      <defs>
       <path id="m118d4a41e0" d="M 0 0 
L -3.5 0 
" style="stroke: #000000; stroke-width: 0.8"/>
      </defs>
      <g>
       <use xlink:href="#m118d4a41e0" x="67.556" y="343.355652" style="stroke: #000000; stroke-width: 0.8"/>
      </g>
     </g>
     <g id="text_9">
      <!-- 0 -->
      <g transform="translate(47.831 350.95409) scale(0.2 -0.2)">
       <use xlink:href="#DejaVuSans-30"/>
      </g>
     </g>
    </g>
    <g id="ytick_2">
     <g id="line2d_17">
      <path d="M 67.556 291.048737 
L 538.47 291.048737 
" clip-path="url(#p402f67395c)" style="fill: none; stroke: #b0b0b0; stroke-width: 0.8; stroke-linecap: square"/>
     </g>
     <g id="line2d_18">
      <g>
       <use xlink:href="#m118d4a41e0" x="67.556" y="291.048737" style="stroke: #000000; stroke-width: 0.8"/>
      </g>
     </g>
     <g id="text_10">
      <!-- 1 -->
      <g transform="translate(47.831 298.647175) scale(0.2 -0.2)">
       <use xlink:href="#DejaVuSans-31"/>
      </g>
     </g>
    </g>
    <g id="ytick_3">
     <g id="line2d_19">
      <path d="M 67.556 238.741822 
L 538.47 238.741822 
" clip-path="url(#p402f67395c)" style="fill: none; stroke: #b0b0b0; stroke-width: 0.8; stroke-linecap: square"/>
     </g>
     <g id="line2d_20">
      <g>
       <use xlink:href="#m118d4a41e0" x="67.556" y="238.741822" style="stroke: #000000; stroke-width: 0.8"/>
      </g>
     </g>
     <g id="text_11">
      <!-- 2 -->
      <g transform="translate(47.831 246.34026) scale(0.2 -0.2)">
       <use xlink:href="#DejaVuSans-32"/>
      </g>
     </g>
    </g>
    <g id="ytick_4">
     <g id="line2d_21">
      <path d="M 67.556 186.434907 
L 538.47 186.434907 
" clip-path="url(#p402f67395c)" style="fill: none; stroke: #b0b0b0; stroke-width: 0.8; stroke-linecap: square"/>
     </g>
     <g id="line2d_22">
      <g>
       <use xlink:href="#m118d4a41e0" x="67.556" y="186.434907" style="stroke: #000000; stroke-width: 0.8"/>
      </g>
     </g>
     <g id="text_12">
      <!-- 3 -->
      <g transform="translate(47.831 194.033345) scale(0.2 -0.2)">
       <defs>
        <path id="DejaVuSans-33" d="M 2597 2516 
Q 3050 2419 3304 2112 
Q 3559 1806 3559 1356 
Q 3559 666 3084 287 
Q 2609 -91 1734 -91 
Q 1441 -91 1130 -33 
Q 819 25 488 141 
L 488 750 
Q 750 597 1062 519 
Q 1375 441 1716 441 
Q 2309 441 2620 675 
Q 2931 909 2931 1356 
Q 2931 1769 2642 2001 
Q 2353 2234 1838 2234 
L 1294 2234 
L 1294 2753 
L 1863 2753 
Q 2328 2753 2575 2939 
Q 2822 3125 2822 3475 
Q 2822 3834 2567 4026 
Q 2313 4219 1838 4219 
Q 1578 4219 1281 4162 
Q 984 4106 628 3988 
L 628 4550 
Q 988 4650 1302 4700 
Q 1616 4750 1894 4750 
Q 2613 4750 3031 4423 
Q 3450 4097 3450 3541 
Q 3450 3153 3228 2886 
Q 3006 2619 2597 2516 
z
" transform="scale(0.015625)"/>
       </defs>
       <use xlink:href="#DejaVuSans-33"/>
      </g>
     </g>
    </g>
    <g id="ytick_5">
     <g id="line2d_23">
      <path d="M 67.556 134.127993 
L 538.47 134.127993 
" clip-path="url(#p402f67395c)" style="fill: none; stroke: #b0b0b0; stroke-width: 0.8; stroke-linecap: square"/>
     </g>
     <g id="line2d_24">
      <g>
       <use xlink:href="#m118d4a41e0" x="67.556" y="134.127993" style="stroke: #000000; stroke-width: 0.8"/>
      </g>
     </g>
     <g id="text_13">
      <!-- 4 -->
      <g transform="translate(47.831 141.72643) scale(0.2 -0.2)">
       <defs>
        <path id="DejaVuSans-34" d="M 2419 4116 
L 825 1625 
L 2419 1625 
L 2419 4116 
z
M 2253 4666 
L 3047 4666 
L 3047 1625 
L 3713 1625 
L 3713 1100 
L 3047 1100 
L 3047 0 
L 2419 0 
L 2419 1100 
L 313 1100 
L 313 1709 
L 2253 4666 
z
" transform="scale(0.015625)"/>
       </defs>
       <use xlink:href="#DejaVuSans-34"/>
      </g>
     </g>
    </g>
    <g id="ytick_6">
     <g id="line2d_25">
      <path d="M 67.556 81.821078 
L 538.47 81.821078 
" clip-path="url(#p402f67395c)" style="fill: none; stroke: #b0b0b0; stroke-width: 0.8; stroke-linecap: square"/>
     </g>
     <g id="line2d_26">
      <g>
       <use xlink:href="#m118d4a41e0" x="67.556" y="81.821078" style="stroke: #000000; stroke-width: 0.8"/>
      </g>
     </g>
     <g id="text_14">
      <!-- 5 -->
      <g transform="translate(47.831 89.419515) scale(0.2 -0.2)">
       <use xlink:href="#DejaVuSans-35"/>
      </g>
     </g>
    </g>
    <g id="ytick_7">
     <g id="line2d_27">
      <path d="M 67.556 29.514163 
L 538.47 29.514163 
" clip-path="url(#p402f67395c)" style="fill: none; stroke: #b0b0b0; stroke-width: 0.8; stroke-linecap: square"/>
     </g>
     <g id="line2d_28">
      <g>
       <use xlink:href="#m118d4a41e0" x="67.556" y="29.514163" style="stroke: #000000; stroke-width: 0.8"/>
      </g>
     </g>
     <g id="text_15">
      <!-- 6 -->
      <g transform="translate(47.831 37.1126) scale(0.2 -0.2)">
       <defs>
        <path id="DejaVuSans-36" d="M 2113 2584 
Q 1688 2584 1439 2293 
Q 1191 2003 1191 1497 
Q 1191 994 1439 701 
Q 1688 409 2113 409 
Q 2538 409 2786 701 
Q 3034 994 3034 1497 
Q 3034 2003 2786 2293 
Q 2538 2584 2113 2584 
z
M 3366 4563 
L 3366 3988 
Q 3128 4100 2886 4159 
Q 2644 4219 2406 4219 
Q 1781 4219 1451 3797 
Q 1122 3375 1075 2522 
Q 1259 2794 1537 2939 
Q 1816 3084 2150 3084 
Q 2853 3084 3261 2657 
Q 3669 2231 3669 1497 
Q 3669 778 3244 343 
Q 2819 -91 2113 -91 
Q 1303 -91 875 529 
Q 447 1150 447 2328 
Q 447 3434 972 4092 
Q 1497 4750 2381 4750 
Q 2619 4750 2861 4703 
Q 3103 4656 3366 4563 
z
" transform="scale(0.015625)"/>
       </defs>
       <use xlink:href="#DejaVuSans-36"/>
      </g>
     </g>
    </g>
    <g id="text_16">
     <!-- $C_D$ [-] (trim) -->
     <g transform="translate(39.671625 249.751397) rotate(-90) scale(0.2 -0.2)">
      <defs>
       <path id="DejaVuSans-Oblique-44" d="M 1081 4666 
L 2438 4666 
Q 3519 4666 4070 4208 
Q 4622 3750 4622 2847 
Q 4622 2250 4412 1698 
Q 4203 1147 3834 769 
Q 3463 381 2891 190 
Q 2319 0 1538 0 
L 172 0 
L 1081 4666 
z
M 1613 4147 
L 909 519 
L 1734 519 
Q 2794 519 3375 1128 
Q 3956 1738 3956 2847 
Q 3956 3519 3581 3833 
Q 3206 4147 2406 4147 
L 1613 4147 
z
" transform="scale(0.015625)"/>
      </defs>
      <use xlink:href="#DejaVuSans-Oblique-43" transform="translate(0 0.015625)"/>
      <use xlink:href="#DejaVuSans-Oblique-44" transform="translate(69.824219 -16.390625) scale(0.7)"/>
      <use xlink:href="#DejaVuSans-20" transform="translate(126.459961 0.015625)"/>
      <use xlink:href="#DejaVuSans-5b" transform="translate(158.24707 0.015625)"/>
      <use xlink:href="#DejaVuSans-2d" transform="translate(197.260742 0.015625)"/>
      <use xlink:href="#DejaVuSans-5d" transform="translate(233.344727 0.015625)"/>
      <use xlink:href="#DejaVuSans-20" transform="translate(272.358398 0.015625)"/>
      <use xlink:href="#DejaVuSans-28" transform="translate(304.145508 0.015625)"/>
      <use xlink:href="#DejaVuSans-74" transform="translate(343.15918 0.015625)"/>
      <use xlink:href="#DejaVuSans-72" transform="translate(382.368164 0.015625)"/>
      <use xlink:href="#DejaVuSans-69" transform="translate(423.481445 0.015625)"/>
      <use xlink:href="#DejaVuSans-6d" transform="translate(451.264648 0.015625)"/>
      <use xlink:href="#DejaVuSans-29" transform="translate(548.676758 0.015625)"/>
     </g>
    </g>
   </g>
   <g id="line2d_29">
    <path d="M 67.556 341.548732 
L 72.312707 341.617742 
L 77.069414 341.668207 
L 81.826121 341.703463 
L 86.582828 341.726315 
L 91.339535 341.73911 
L 96.096242 341.743799 
L 100.852949 341.741989 
L 105.609657 341.734998 
L 110.366364 341.723896 
L 115.123071 341.709545 
L 119.879778 341.692633 
L 124.636485 341.673703 
L 129.393192 341.653181 
L 134.149899 341.631395 
L 138.906606 341.608595 
L 143.663313 341.584972 
L 148.42002 341.560666 
L 153.176727 341.535781 
L 157.933434 341.510396 
L 162.690141 341.484566 
L 167.446848 341.458335 
L 172.203556 341.431736 
L 176.960263 341.404797 
L 181.71697 341.377544 
L 186.473677 341.350001 
L 191.230384 341.322195 
L 195.987091 341.294155 
L 200.743798 341.265913 
L 205.500505 341.237507 
L 210.257212 341.208978 
L 215.013919 341.180375 
L 219.770626 341.151751 
L 224.527333 341.123167 
L 229.28404 341.094692 
L 234.040747 341.066402 
L 238.797455 341.038381 
L 243.554162 341.010721 
L 248.310869 340.983524 
L 253.067576 340.956899 
L 257.824283 340.930963 
L 262.58099 340.905836 
L 267.337697 340.881645 
L 272.094404 340.858517 
L 276.851111 340.836572 
L 281.607818 340.815925 
L 286.364525 340.796673 
L 291.121232 340.778885 
L 295.877939 340.762597 
L 300.634646 340.747792 
L 305.391354 340.73439 
L 310.148061 340.722221 
L 314.904768 340.71101 
L 319.661475 340.700346 
L 324.418182 340.689652 
L 329.174889 340.678151 
L 333.931596 340.664825 
L 338.688303 340.648371 
L 343.44501 340.627145 
L 348.201717 340.599111 
L 352.958424 340.561768 
L 357.715131 340.512085 
L 362.471838 340.446418 
L 367.228545 340.36042 
L 371.985253 340.248944 
L 376.74196 340.105937 
L 381.498667 339.92432 
L 386.255374 339.69586 
L 391.012081 339.411029 
L 395.768788 339.058854 
L 400.525495 338.626746 
L 405.282202 338.100326 
L 410.038909 337.463225 
L 414.795616 336.696882 
L 419.552323 335.780314 
L 424.30903 334.689872 
L 429.065737 333.398989 
L 433.822444 331.877896 
L 438.579152 330.093324 
L 443.335859 328.008193 
L 448.092566 325.581267 
L 452.849273 322.766795 
L 457.60598 319.514133 
L 462.362687 315.76733 
L 467.119394 311.464699 
L 471.876101 306.53836 
L 476.632808 300.913755 
L 481.389515 294.509137 
L 486.146222 287.235025 
L 490.902929 278.993639 
L 495.659636 269.678294 
L 500.416343 259.172766 
L 505.173051 247.350625 
L 509.929758 234.074538 
L 514.686465 219.195523 
L 519.443172 202.552184 
L 524.199879 183.969895 
L 528.956586 163.259948 
L 533.713293 140.218665 
L 538.47 114.626465 
" clip-path="url(#p402f67395c)" style="fill: none; stroke-dasharray: 9.6,2.4,1.5,2.4; stroke-dashoffset: 0; stroke: #00a6b6; stroke-width: 1.5"/>
   </g>
   <g id="line2d_30">
    <path d="M 67.556 341.549029 
L 72.312707 341.622314 
L 77.069414 341.676122 
L 81.826121 341.713959 
L 86.582828 341.738775 
L 91.339535 341.753037 
L 96.096242 341.758794 
L 100.852949 341.757739 
L 105.609657 341.751254 
L 110.366364 341.740466 
L 115.123071 341.726281 
L 119.879778 341.709422 
L 124.636485 341.690461 
L 129.393192 341.669843 
L 134.149899 341.647915 
L 138.906606 341.624941 
L 143.663313 341.601118 
L 148.42002 341.576595 
L 153.176727 341.551483 
L 157.933434 341.525861 
L 162.690141 341.499789 
L 167.446848 341.473311 
L 172.203556 341.446462 
L 176.960263 341.41927 
L 181.71697 341.391762 
L 186.473677 341.363963 
L 191.230384 341.335899 
L 195.987091 341.3076 
L 200.743798 341.279098 
L 205.500505 341.250431 
L 210.257212 341.221641 
L 215.013919 341.192777 
L 219.770626 341.163894 
L 224.527333 341.135053 
L 229.28404 341.106323 
L 234.040747 341.077781 
L 238.797455 341.049514 
L 243.554162 341.021615 
L 248.310869 340.994187 
L 253.067576 340.96734 
L 257.824283 340.941192 
L 262.58099 340.915867 
L 267.337697 340.891493 
L 272.094404 340.868197 
L 276.851111 340.846101 
L 281.607818 340.82532 
L 286.364525 340.805947 
L 291.121232 340.788053 
L 295.877939 340.771666 
L 300.634646 340.756762 
L 305.391354 340.74325 
L 310.148061 340.730944 
L 314.904768 340.719549 
L 319.661475 340.708625 
L 324.418182 340.697558 
L 329.174889 340.685527 
L 333.931596 340.671454 
L 338.688303 340.653963 
L 343.44501 340.631322 
L 348.201717 340.601385 
L 352.958424 340.561522 
L 357.715131 340.508544 
L 362.471838 340.43862 
L 367.228545 340.347181 
L 371.985253 340.22882 
L 376.74196 340.07718 
L 381.498667 339.884828 
L 386.255374 339.64312 
L 391.012081 339.342056 
L 395.768788 338.970117 
L 400.525495 338.514095 
L 405.282202 337.9589 
L 410.038909 337.287359 
L 414.795616 336.479999 
L 419.552323 335.514806 
L 424.30903 334.366976 
L 429.065737 333.008638 
L 433.822444 331.408567 
L 438.579152 329.531872 
L 443.335859 327.339659 
L 448.092566 324.78868 
L 452.849273 321.830955 
L 457.60598 318.413368 
L 462.362687 314.477241 
L 467.119394 309.957882 
L 471.876101 304.784105 
L 476.632808 298.877721 
L 481.389515 292.153002 
L 486.146222 284.516112 
L 490.902929 275.864512 
L 495.659636 266.086322 
L 500.416343 255.059665 
L 505.173051 242.651958 
L 509.929758 228.719184 
L 514.686465 213.105114 
L 519.443172 195.640499 
L 524.199879 176.142214 
L 528.956586 154.412371 
L 533.713293 130.237383 
L 538.47 103.386982 
" clip-path="url(#p402f67395c)" style="fill: none; stroke-dasharray: 9.6,2.4,1.5,2.4; stroke-dashoffset: 0; stroke: #a50034; stroke-width: 1.5"/>
   </g>
   <g id="line2d_31">
    <path d="M 67.556 341.704515 
L 72.312707 341.797684 
L 77.069414 341.865348 
L 81.826121 341.912123 
L 86.582828 341.941893 
L 91.339535 341.957903 
L 96.096242 341.962854 
L 100.852949 341.958972 
L 105.609657 341.948081 
L 110.366364 341.931663 
L 115.123071 341.910911 
L 119.879778 341.886777 
L 124.636485 341.860014 
L 129.393192 341.831209 
L 134.149899 341.800815 
L 138.906606 341.76918 
L 143.663313 341.736562 
L 148.42002 341.703158 
L 153.176727 341.669108 
L 157.933434 341.634517 
L 162.690141 341.599461 
L 167.446848 341.563996 
L 172.203556 341.528165 
L 176.960263 341.492003 
L 181.71697 341.455542 
L 186.473677 341.418811 
L 191.230384 341.381844 
L 195.987091 341.344675 
L 200.743798 341.307345 
L 205.500505 341.269899 
L 210.257212 341.232391 
L 215.013919 341.194881 
L 219.770626 341.157438 
L 224.527333 341.12014 
L 229.28404 341.083075 
L 234.040747 341.046343 
L 238.797455 341.010053 
L 243.554162 340.974328 
L 248.310869 340.939303 
L 253.067576 340.905123 
L 257.824283 340.871945 
L 262.58099 340.839934 
L 267.337697 340.809263 
L 272.094404 340.780106 
L 276.851111 340.752637 
L 281.607818 340.727016 
L 286.364525 340.703388 
L 291.121232 340.681865 
L 295.877939 340.662514 
L 300.634646 340.645339 
L 305.391354 340.63026 
L 310.148061 340.617087 
L 314.904768 340.605492 
L 319.661475 340.594969 
L 324.418182 340.584799 
L 329.174889 340.574002 
L 333.931596 340.561279 
L 338.688303 340.544957 
L 343.44501 340.522919 
L 348.201717 340.492523 
L 352.958424 340.45052 
L 357.715131 340.392953 
L 362.471838 340.315055 
L 367.228545 340.211125 
L 371.985253 340.074398 
L 376.74196 339.896903 
L 381.498667 339.669302 
L 386.255374 339.380718 
L 391.012081 339.018546 
L 395.768788 338.568248 
L 400.525495 338.013129 
L 405.282202 337.334096 
L 410.038909 336.509395 
L 414.795616 335.514332 
L 419.552323 334.320969 
L 424.30903 332.897794 
L 429.065737 331.209376 
L 433.822444 329.215988 
L 438.579152 326.873205 
L 443.335859 324.131476 
L 448.092566 320.935668 
L 452.849273 317.224578 
L 457.60598 312.930417 
L 462.362687 307.978257 
L 467.119394 302.285452 
L 471.876101 295.761015 
L 476.632808 288.304965 
L 481.389515 279.807635 
L 486.146222 270.148939 
L 490.902929 259.197599 
L 495.659636 246.810335 
L 500.416343 232.830999 
L 505.173051 217.089682 
L 509.929758 199.401755 
L 514.686465 179.566878 
L 519.443172 157.367947 
L 524.199879 132.57 
L 528.956586 104.919061 
L 533.713293 74.140934 
L 538.47 39.939939 
" clip-path="url(#p402f67395c)" style="fill: none; stroke-dasharray: 9.6,2.4,1.5,2.4; stroke-dashoffset: 0; stroke: #ef60a3; stroke-width: 1.5"/>
   </g>
   <g id="patch_3">
    <path d="M 67.556 357.064 
L 67.556 24.838793 
" style="fill: none; stroke: #000000; stroke-width: 0.8; stroke-linejoin: miter; stroke-linecap: square"/>
   </g>
   <g id="patch_4">
    <path d="M 538.47 357.064 
L 538.47 24.838793 
" style="fill: none; stroke: #000000; stroke-width: 0.8; stroke-linejoin: miter; stroke-linecap: square"/>
   </g>
   <g id="patch_5">
    <path d="M 67.556 357.064 
L 538.47 357.064 
" style="fill: none; stroke: #000000; stroke-width: 0.8; stroke-linejoin: miter; stroke-linecap: square"/>
   </g>
   <g id="patch_6">
    <path d="M 67.556 24.838793 
L 538.47 24.838793 
" style="fill: none; stroke: #000000; stroke-width: 0.8; stroke-linejoin: miter; stroke-linecap: square"/>
   </g>
   <g id="legend_1">
    <g id="patch_7">
     <path d="M 81.556 128.907543 
L 356.12475 128.907543 
Q 360.12475 128.907543 360.12475 124.907543 
L 360.12475 38.838793 
Q 360.12475 34.838793 356.12475 34.838793 
L 81.556 34.838793 
Q 77.556 34.838793 77.556 38.838793 
L 77.556 124.907543 
Q 77.556 128.907543 81.556 128.907543 
z
" style="fill: #ffffff; opacity: 0.8; stroke: #cccccc; stroke-linejoin: miter"/>
    </g>
    <g id="line2d_32">
     <path d="M 85.556 51.035668 
L 105.556 51.035668 
L 125.556 51.035668 
" style="fill: none; stroke-dasharray: 9.6,2.4,1.5,2.4; stroke-dashoffset: 0; stroke: #00a6b6; stroke-width: 1.5"/>
    </g>
    <g id="text_17">
     <!-- V = 40.0 m/s, J = 1.6 -->
     <g transform="translate(141.556 58.035668) scale(0.2 -0.2)">
      <defs>
       <path id="DejaVuSans-56" d="M 1831 0 
L 50 4666 
L 709 4666 
L 2188 738 
L 3669 4666 
L 4325 4666 
L 2547 0 
L 1831 0 
z
" transform="scale(0.015625)"/>
       <path id="DejaVuSans-3d" d="M 678 2906 
L 4684 2906 
L 4684 2381 
L 678 2381 
L 678 2906 
z
M 678 1631 
L 4684 1631 
L 4684 1100 
L 678 1100 
L 678 1631 
z
" transform="scale(0.015625)"/>
       <path id="DejaVuSans-2f" d="M 1625 4666 
L 2156 4666 
L 531 -594 
L 0 -594 
L 1625 4666 
z
" transform="scale(0.015625)"/>
       <path id="DejaVuSans-73" d="M 2834 3397 
L 2834 2853 
Q 2591 2978 2328 3040 
Q 2066 3103 1784 3103 
Q 1356 3103 1142 2972 
Q 928 2841 928 2578 
Q 928 2378 1081 2264 
Q 1234 2150 1697 2047 
L 1894 2003 
Q 2506 1872 2764 1633 
Q 3022 1394 3022 966 
Q 3022 478 2636 193 
Q 2250 -91 1575 -91 
Q 1294 -91 989 -36 
Q 684 19 347 128 
L 347 722 
Q 666 556 975 473 
Q 1284 391 1588 391 
Q 1994 391 2212 530 
Q 2431 669 2431 922 
Q 2431 1156 2273 1281 
Q 2116 1406 1581 1522 
L 1381 1569 
Q 847 1681 609 1914 
Q 372 2147 372 2553 
Q 372 3047 722 3315 
Q 1072 3584 1716 3584 
Q 2034 3584 2315 3537 
Q 2597 3491 2834 3397 
z
" transform="scale(0.015625)"/>
       <path id="DejaVuSans-2c" d="M 750 794 
L 1409 794 
L 1409 256 
L 897 -744 
L 494 -744 
L 750 256 
L 750 794 
z
" transform="scale(0.015625)"/>
       <path id="DejaVuSans-4a" d="M 628 4666 
L 1259 4666 
L 1259 325 
Q 1259 -519 939 -900 
Q 619 -1281 -91 -1281 
L -331 -1281 
L -331 -750 
L -134 -750 
Q 284 -750 456 -515 
Q 628 -281 628 325 
L 628 4666 
z
" transform="scale(0.015625)"/>
      </defs>
      <use xlink:href="#DejaVuSans-56"/>
      <use xlink:href="#DejaVuSans-20" x="68.408203"/>
      <use xlink:href="#DejaVuSans-3d" x="100.195312"/>
      <use xlink:href="#DejaVuSans-20" x="183.984375"/>
      <use xlink:href="#DejaVuSans-34" x="215.771484"/>
      <use xlink:href="#DejaVuSans-30" x="279.394531"/>
      <use xlink:href="#DejaVuSans-2e" x="343.017578"/>
      <use xlink:href="#DejaVuSans-30" x="374.804688"/>
      <use xlink:href="#DejaVuSans-20" x="438.427734"/>
      <use xlink:href="#DejaVuSans-6d" x="470.214844"/>
      <use xlink:href="#DejaVuSans-2f" x="567.626953"/>
      <use xlink:href="#DejaVuSans-73" x="601.318359"/>
      <use xlink:href="#DejaVuSans-2c" x="653.417969"/>
      <use xlink:href="#DejaVuSans-20" x="685.205078"/>
      <use xlink:href="#DejaVuSans-4a" x="716.992188"/>
      <use xlink:href="#DejaVuSans-20" x="746.484375"/>
      <use xlink:href="#DejaVuSans-3d" x="778.271484"/>
      <use xlink:href="#DejaVuSans-20" x="862.060547"/>
      <use xlink:href="#DejaVuSans-31" x="893.847656"/>
      <use xlink:href="#DejaVuSans-2e" x="957.470703"/>
      <use xlink:href="#DejaVuSans-36" x="989.257812"/>
     </g>
    </g>
    <g id="line2d_33">
     <path d="M 85.556 80.391918 
L 105.556 80.391918 
L 125.556 80.391918 
" style="fill: none; stroke-dasharray: 9.6,2.4,1.5,2.4; stroke-dashoffset: 0; stroke: #a50034; stroke-width: 1.5"/>
    </g>
    <g id="text_18">
     <!-- V = 40.0 m/s, J = 1.8 -->
     <g transform="translate(141.556 87.391918) scale(0.2 -0.2)">
      <defs>
       <path id="DejaVuSans-38" d="M 2034 2216 
Q 1584 2216 1326 1975 
Q 1069 1734 1069 1313 
Q 1069 891 1326 650 
Q 1584 409 2034 409 
Q 2484 409 2743 651 
Q 3003 894 3003 1313 
Q 3003 1734 2745 1975 
Q 2488 2216 2034 2216 
z
M 1403 2484 
Q 997 2584 770 2862 
Q 544 3141 544 3541 
Q 544 4100 942 4425 
Q 1341 4750 2034 4750 
Q 2731 4750 3128 4425 
Q 3525 4100 3525 3541 
Q 3525 3141 3298 2862 
Q 3072 2584 2669 2484 
Q 3125 2378 3379 2068 
Q 3634 1759 3634 1313 
Q 3634 634 3220 271 
Q 2806 -91 2034 -91 
Q 1263 -91 848 271 
Q 434 634 434 1313 
Q 434 1759 690 2068 
Q 947 2378 1403 2484 
z
M 1172 3481 
Q 1172 3119 1398 2916 
Q 1625 2713 2034 2713 
Q 2441 2713 2670 2916 
Q 2900 3119 2900 3481 
Q 2900 3844 2670 4047 
Q 2441 4250 2034 4250 
Q 1625 4250 1398 4047 
Q 1172 3844 1172 3481 
z
" transform="scale(0.015625)"/>
      </defs>
      <use xlink:href="#DejaVuSans-56"/>
      <use xlink:href="#DejaVuSans-20" x="68.408203"/>
      <use xlink:href="#DejaVuSans-3d" x="100.195312"/>
      <use xlink:href="#DejaVuSans-20" x="183.984375"/>
      <use xlink:href="#DejaVuSans-34" x="215.771484"/>
      <use xlink:href="#DejaVuSans-30" x="279.394531"/>
      <use xlink:href="#DejaVuSans-2e" x="343.017578"/>
      <use xlink:href="#DejaVuSans-30" x="374.804688"/>
      <use xlink:href="#DejaVuSans-20" x="438.427734"/>
      <use xlink:href="#DejaVuSans-6d" x="470.214844"/>
      <use xlink:href="#DejaVuSans-2f" x="567.626953"/>
      <use xlink:href="#DejaVuSans-73" x="601.318359"/>
      <use xlink:href="#DejaVuSans-2c" x="653.417969"/>
      <use xlink:href="#DejaVuSans-20" x="685.205078"/>
      <use xlink:href="#DejaVuSans-4a" x="716.992188"/>
      <use xlink:href="#DejaVuSans-20" x="746.484375"/>
      <use xlink:href="#DejaVuSans-3d" x="778.271484"/>
      <use xlink:href="#DejaVuSans-20" x="862.060547"/>
      <use xlink:href="#DejaVuSans-31" x="893.847656"/>
      <use xlink:href="#DejaVuSans-2e" x="957.470703"/>
      <use xlink:href="#DejaVuSans-38" x="989.257812"/>
     </g>
    </g>
    <g id="line2d_34">
     <path d="M 85.556 109.748168 
L 105.556 109.748168 
L 125.556 109.748168 
" style="fill: none; stroke-dasharray: 9.6,2.4,1.5,2.4; stroke-dashoffset: 0; stroke: #ef60a3; stroke-width: 1.5"/>
    </g>
    <g id="text_19">
     <!-- V = 40.0 m/s, J = 3.5 -->
     <g transform="translate(141.556 116.748168) scale(0.2 -0.2)">
      <use xlink:href="#DejaVuSans-56"/>
      <use xlink:href="#DejaVuSans-20" x="68.408203"/>
      <use xlink:href="#DejaVuSans-3d" x="100.195312"/>
      <use xlink:href="#DejaVuSans-20" x="183.984375"/>
      <use xlink:href="#DejaVuSans-34" x="215.771484"/>
      <use xlink:href="#DejaVuSans-30" x="279.394531"/>
      <use xlink:href="#DejaVuSans-2e" x="343.017578"/>
      <use xlink:href="#DejaVuSans-30" x="374.804688"/>
      <use xlink:href="#DejaVuSans-20" x="438.427734"/>
      <use xlink:href="#DejaVuSans-6d" x="470.214844"/>
      <use xlink:href="#DejaVuSans-2f" x="567.626953"/>
      <use xlink:href="#DejaVuSans-73" x="601.318359"/>
      <use xlink:href="#DejaVuSans-2c" x="653.417969"/>
      <use xlink:href="#DejaVuSans-20" x="685.205078"/>
      <use xlink:href="#DejaVuSans-4a" x="716.992188"/>
      <use xlink:href="#DejaVuSans-20" x="746.484375"/>
      <use xlink:href="#DejaVuSans-3d" x="778.271484"/>
      <use xlink:href="#DejaVuSans-20" x="862.060547"/>
      <use xlink:href="#DejaVuSans-33" x="893.847656"/>
      <use xlink:href="#DejaVuSans-2e" x="957.470703"/>
      <use xlink:href="#DejaVuSans-35" x="989.257812"/>
     </g>
    </g>
   </g>
  </g>
 </g>
 <defs>
  <clipPath id="p402f67395c">
   <rect x="67.556" y="24.838793" width="470.914" height="332.225207"/>
  </clipPath>
 </defs>
</svg>
