<?xml version="1.0" encoding="utf-8" standalone="no"?>
<!DOCTYPE svg PUBLIC "-//W3C//DTD SVG 1.1//EN"
  "http://www.w3.org/Graphics/SVG/1.1/DTD/svg11.dtd">
<svg xmlns:xlink="http://www.w3.org/1999/xlink" width="576pt" height="432pt" viewBox="0 0 576 432" xmlns="http://www.w3.org/2000/svg" version="1.1">
 <metadata>
  <rdf:RDF xmlns:dc="http://purl.org/dc/elements/1.1/" xmlns:cc="http://creativecommons.org/ns#" xmlns:rdf="http://www.w3.org/1999/02/22-rdf-syntax-ns#">
   <cc:Work>
    <dc:type rdf:resource="http://purl.org/dc/dcmitype/StillImage"/>
    <dc:date>2024-04-03T17:18:49.409864</dc:date>
    <dc:format>image/svg+xml</dc:format>
    <dc:creator>
     <cc:Agent>
      <dc:title>Matplotlib v3.8.3, https://matplotlib.org/</dc:title>
     </cc:Agent>
    </dc:creator>
   </cc:Work>
  </rdf:RDF>
 </metadata>
 <defs>
  <style type="text/css">*{stroke-linejoin: round; stroke-linecap: butt}</style>
 </defs>
 <g id="figure_1">
  <g id="patch_1">
   <path d="M 0 432 
L 576 432 
L 576 0 
L 0 0 
z
" style="fill: #ffffff"/>
  </g>
  <g id="axes_1">
   <g id="patch_2">
    <path d="M 80.246 359.08 
L 532.125 359.08 
L 532.125 21.6 
L 80.246 21.6 
z
" style="fill: #ffffff"/>
   </g>
   <g id="PathCollection_1">
    <defs>
     <path id="m628d982479" d="M 0 3 
C 0.795609 3 1.55874 2.683901 2.12132 2.12132 
C 2.683901 1.55874 3 0.795609 3 0 
C 3 -0.795609 2.683901 -1.55874 2.12132 -2.12132 
C 1.55874 -2.683901 0.795609 -3 0 -3 
C -0.795609 -3 -1.55874 -2.683901 -2.12132 -2.12132 
C -2.683901 -1.55874 -3 -0.795609 -3 0 
C -3 0.795609 -2.683901 1.55874 -2.12132 2.12132 
C -1.55874 2.683901 -0.795609 3 0 3 
z
" style="stroke: #00a6b6"/>
    </defs>
    <g clip-path="url(#pc99d126536)">
     <use xlink:href="#m628d982479" x="240.914089" y="60.086669" style="fill: #00a6b6; stroke: #00a6b6"/>
     <use xlink:href="#m628d982479" x="260.9976" y="63.929831" style="fill: #00a6b6; stroke: #00a6b6"/>
     <use xlink:href="#m628d982479" x="431.707444" y="88.449983" style="fill: #00a6b6; stroke: #00a6b6"/>
    </g>
   </g>
   <g id="PathCollection_2">
    <defs>
     <path id="md12c6bc052" d="M 0 3 
C 0.795609 3 1.55874 2.683901 2.12132 2.12132 
C 2.683901 1.55874 3 0.795609 3 0 
C 3 -0.795609 2.683901 -1.55874 2.12132 -2.12132 
C 1.55874 -2.683901 0.795609 -3 0 -3 
C -0.795609 -3 -1.55874 -2.683901 -2.12132 -2.12132 
C -2.683901 -1.55874 -3 -0.795609 -3 0 
C -3 0.795609 -2.683901 1.55874 -2.12132 2.12132 
C -1.55874 2.683901 -0.795609 3 0 3 
z
" style="stroke: #a50034"/>
    </defs>
    <g clip-path="url(#pc99d126536)">
     <use xlink:href="#md12c6bc052" x="240.914089" y="250.078106" style="fill: #a50034; stroke: #a50034"/>
     <use xlink:href="#md12c6bc052" x="260.9976" y="255.065199" style="fill: #a50034; stroke: #a50034"/>
     <use xlink:href="#md12c6bc052" x="431.707444" y="274.736691" style="fill: #a50034; stroke: #a50034"/>
    </g>
   </g>
   <g id="PathCollection_3">
    <defs>
     <path id="mecea4f6fa4" d="M 0 3 
C 0.795609 3 1.55874 2.683901 2.12132 2.12132 
C 2.683901 1.55874 3 0.795609 3 0 
C 3 -0.795609 2.683901 -1.55874 2.12132 -2.12132 
C 1.55874 -2.683901 0.795609 -3 0 -3 
C -0.795609 -3 -1.55874 -2.683901 -2.12132 -2.12132 
C -2.683901 -1.55874 -3 -0.795609 -3 0 
C -3 0.795609 -2.683901 1.55874 -2.12132 2.12132 
C -1.55874 2.683901 -0.795609 3 0 3 
z
" style="stroke: #ef60a3"/>
    </defs>
    <g clip-path="url(#pc99d126536)">
     <use xlink:href="#mecea4f6fa4" x="240.914089" y="312.796726" style="fill: #ef60a3; stroke: #ef60a3"/>
     <use xlink:href="#mecea4f6fa4" x="260.9976" y="316.712637" style="fill: #ef60a3; stroke: #ef60a3"/>
     <use xlink:href="#mecea4f6fa4" x="431.707444" y="333.267501" style="fill: #ef60a3; stroke: #ef60a3"/>
    </g>
   </g>
   <g id="matplotlib.axis_1">
    <g id="xtick_1">
     <g id="line2d_1">
      <path d="M 80.246 359.08 
L 80.246 21.6 
" clip-path="url(#pc99d126536)" style="fill: none; stroke: #b0b0b0; stroke-width: 0.8; stroke-linecap: square"/>
     </g>
     <g id="line2d_2">
      <defs>
       <path id="m37bf41bdb3" d="M 0 0 
L 0 3.5 
" style="stroke: #000000; stroke-width: 0.8"/>
      </defs>
      <g>
       <use xlink:href="#m37bf41bdb3" x="80.246" y="359.08" style="stroke: #000000; stroke-width: 0.8"/>
      </g>
     </g>
     <g id="text_1">
      <!-- 0.00 -->
      <g transform="translate(57.980375 381.276875) scale(0.2 -0.2)">
       <defs>
        <path id="DejaVuSans-30" d="M 2034 4250 
Q 1547 4250 1301 3770 
Q 1056 3291 1056 2328 
Q 1056 1369 1301 889 
Q 1547 409 2034 409 
Q 2525 409 2770 889 
Q 3016 1369 3016 2328 
Q 3016 3291 2770 3770 
Q 2525 4250 2034 4250 
z
M 2034 4750 
Q 2819 4750 3233 4129 
Q 3647 3509 3647 2328 
Q 3647 1150 3233 529 
Q 2819 -91 2034 -91 
Q 1250 -91 836 529 
Q 422 1150 422 2328 
Q 422 3509 836 4129 
Q 1250 4750 2034 4750 
z
" transform="scale(0.015625)"/>
        <path id="DejaVuSans-2e" d="M 684 794 
L 1344 794 
L 1344 0 
L 684 0 
L 684 794 
z
" transform="scale(0.015625)"/>
       </defs>
       <use xlink:href="#DejaVuSans-30"/>
       <use xlink:href="#DejaVuSans-2e" x="63.623047"/>
       <use xlink:href="#DejaVuSans-30" x="95.410156"/>
       <use xlink:href="#DejaVuSans-30" x="159.033203"/>
      </g>
     </g>
    </g>
    <g id="xtick_2">
     <g id="line2d_3">
      <path d="M 155.559167 359.08 
L 155.559167 21.6 
" clip-path="url(#pc99d126536)" style="fill: none; stroke: #b0b0b0; stroke-width: 0.8; stroke-linecap: square"/>
     </g>
     <g id="line2d_4">
      <g>
       <use xlink:href="#m37bf41bdb3" x="155.559167" y="359.08" style="stroke: #000000; stroke-width: 0.8"/>
      </g>
     </g>
     <g id="text_2">
      <!-- 0.75 -->
      <g transform="translate(133.293542 381.276875) scale(0.2 -0.2)">
       <defs>
        <path id="DejaVuSans-37" d="M 525 4666 
L 3525 4666 
L 3525 4397 
L 1831 0 
L 1172 0 
L 2766 4134 
L 525 4134 
L 525 4666 
z
" transform="scale(0.015625)"/>
        <path id="DejaVuSans-35" d="M 691 4666 
L 3169 4666 
L 3169 4134 
L 1269 4134 
L 1269 2991 
Q 1406 3038 1543 3061 
Q 1681 3084 1819 3084 
Q 2600 3084 3056 2656 
Q 3513 2228 3513 1497 
Q 3513 744 3044 326 
Q 2575 -91 1722 -91 
Q 1428 -91 1123 -41 
Q 819 9 494 109 
L 494 744 
Q 775 591 1075 516 
Q 1375 441 1709 441 
Q 2250 441 2565 725 
Q 2881 1009 2881 1497 
Q 2881 1984 2565 2268 
Q 2250 2553 1709 2553 
Q 1456 2553 1204 2497 
Q 953 2441 691 2322 
L 691 4666 
z
" transform="scale(0.015625)"/>
       </defs>
       <use xlink:href="#DejaVuSans-30"/>
       <use xlink:href="#DejaVuSans-2e" x="63.623047"/>
       <use xlink:href="#DejaVuSans-37" x="95.410156"/>
       <use xlink:href="#DejaVuSans-35" x="159.033203"/>
      </g>
     </g>
    </g>
    <g id="xtick_3">
     <g id="line2d_5">
      <path d="M 230.872333 359.08 
L 230.872333 21.6 
" clip-path="url(#pc99d126536)" style="fill: none; stroke: #b0b0b0; stroke-width: 0.8; stroke-linecap: square"/>
     </g>
     <g id="line2d_6">
      <g>
       <use xlink:href="#m37bf41bdb3" x="230.872333" y="359.08" style="stroke: #000000; stroke-width: 0.8"/>
      </g>
     </g>
     <g id="text_3">
      <!-- 1.50 -->
      <g transform="translate(208.606708 381.276875) scale(0.2 -0.2)">
       <defs>
        <path id="DejaVuSans-31" d="M 794 531 
L 1825 531 
L 1825 4091 
L 703 3866 
L 703 4441 
L 1819 4666 
L 2450 4666 
L 2450 531 
L 3481 531 
L 3481 0 
L 794 0 
L 794 531 
z
" transform="scale(0.015625)"/>
       </defs>
       <use xlink:href="#DejaVuSans-31"/>
       <use xlink:href="#DejaVuSans-2e" x="63.623047"/>
       <use xlink:href="#DejaVuSans-35" x="95.410156"/>
       <use xlink:href="#DejaVuSans-30" x="159.033203"/>
      </g>
     </g>
    </g>
    <g id="xtick_4">
     <g id="line2d_7">
      <path d="M 306.1855 359.08 
L 306.1855 21.6 
" clip-path="url(#pc99d126536)" style="fill: none; stroke: #b0b0b0; stroke-width: 0.8; stroke-linecap: square"/>
     </g>
     <g id="line2d_8">
      <g>
       <use xlink:href="#m37bf41bdb3" x="306.1855" y="359.08" style="stroke: #000000; stroke-width: 0.8"/>
      </g>
     </g>
     <g id="text_4">
      <!-- 2.25 -->
      <g transform="translate(283.919875 381.276875) scale(0.2 -0.2)">
       <defs>
        <path id="DejaVuSans-32" d="M 1228 531 
L 3431 531 
L 3431 0 
L 469 0 
L 469 531 
Q 828 903 1448 1529 
Q 2069 2156 2228 2338 
Q 2531 2678 2651 2914 
Q 2772 3150 2772 3378 
Q 2772 3750 2511 3984 
Q 2250 4219 1831 4219 
Q 1534 4219 1204 4116 
Q 875 4013 500 3803 
L 500 4441 
Q 881 4594 1212 4672 
Q 1544 4750 1819 4750 
Q 2544 4750 2975 4387 
Q 3406 4025 3406 3419 
Q 3406 3131 3298 2873 
Q 3191 2616 2906 2266 
Q 2828 2175 2409 1742 
Q 1991 1309 1228 531 
z
" transform="scale(0.015625)"/>
       </defs>
       <use xlink:href="#DejaVuSans-32"/>
       <use xlink:href="#DejaVuSans-2e" x="63.623047"/>
       <use xlink:href="#DejaVuSans-32" x="95.410156"/>
       <use xlink:href="#DejaVuSans-35" x="159.033203"/>
      </g>
     </g>
    </g>
    <g id="xtick_5">
     <g id="line2d_9">
      <path d="M 381.498667 359.08 
L 381.498667 21.6 
" clip-path="url(#pc99d126536)" style="fill: none; stroke: #b0b0b0; stroke-width: 0.8; stroke-linecap: square"/>
     </g>
     <g id="line2d_10">
      <g>
       <use xlink:href="#m37bf41bdb3" x="381.498667" y="359.08" style="stroke: #000000; stroke-width: 0.8"/>
      </g>
     </g>
     <g id="text_5">
      <!-- 3.00 -->
      <g transform="translate(359.233042 381.276875) scale(0.2 -0.2)">
       <defs>
        <path id="DejaVuSans-33" d="M 2597 2516 
Q 3050 2419 3304 2112 
Q 3559 1806 3559 1356 
Q 3559 666 3084 287 
Q 2609 -91 1734 -91 
Q 1441 -91 1130 -33 
Q 819 25 488 141 
L 488 750 
Q 750 597 1062 519 
Q 1375 441 1716 441 
Q 2309 441 2620 675 
Q 2931 909 2931 1356 
Q 2931 1769 2642 2001 
Q 2353 2234 1838 2234 
L 1294 2234 
L 1294 2753 
L 1863 2753 
Q 2328 2753 2575 2939 
Q 2822 3125 2822 3475 
Q 2822 3834 2567 4026 
Q 2313 4219 1838 4219 
Q 1578 4219 1281 4162 
Q 984 4106 628 3988 
L 628 4550 
Q 988 4650 1302 4700 
Q 1616 4750 1894 4750 
Q 2613 4750 3031 4423 
Q 3450 4097 3450 3541 
Q 3450 3153 3228 2886 
Q 3006 2619 2597 2516 
z
" transform="scale(0.015625)"/>
       </defs>
       <use xlink:href="#DejaVuSans-33"/>
       <use xlink:href="#DejaVuSans-2e" x="63.623047"/>
       <use xlink:href="#DejaVuSans-30" x="95.410156"/>
       <use xlink:href="#DejaVuSans-30" x="159.033203"/>
      </g>
     </g>
    </g>
    <g id="xtick_6">
     <g id="line2d_11">
      <path d="M 456.811833 359.08 
L 456.811833 21.6 
" clip-path="url(#pc99d126536)" style="fill: none; stroke: #b0b0b0; stroke-width: 0.8; stroke-linecap: square"/>
     </g>
     <g id="line2d_12">
      <g>
       <use xlink:href="#m37bf41bdb3" x="456.811833" y="359.08" style="stroke: #000000; stroke-width: 0.8"/>
      </g>
     </g>
     <g id="text_6">
      <!-- 3.75 -->
      <g transform="translate(434.546208 381.276875) scale(0.2 -0.2)">
       <use xlink:href="#DejaVuSans-33"/>
       <use xlink:href="#DejaVuSans-2e" x="63.623047"/>
       <use xlink:href="#DejaVuSans-37" x="95.410156"/>
       <use xlink:href="#DejaVuSans-35" x="159.033203"/>
      </g>
     </g>
    </g>
    <g id="xtick_7">
     <g id="line2d_13">
      <path d="M 532.125 359.08 
L 532.125 21.6 
" clip-path="url(#pc99d126536)" style="fill: none; stroke: #b0b0b0; stroke-width: 0.8; stroke-linecap: square"/>
     </g>
     <g id="line2d_14">
      <g>
       <use xlink:href="#m37bf41bdb3" x="532.125" y="359.08" style="stroke: #000000; stroke-width: 0.8"/>
      </g>
     </g>
     <g id="text_7">
      <!-- 4.50 -->
      <g transform="translate(509.859375 381.276875) scale(0.2 -0.2)">
       <defs>
        <path id="DejaVuSans-34" d="M 2419 4116 
L 825 1625 
L 2419 1625 
L 2419 4116 
z
M 2253 4666 
L 3047 4666 
L 3047 1625 
L 3713 1625 
L 3713 1100 
L 3047 1100 
L 3047 0 
L 2419 0 
L 2419 1100 
L 313 1100 
L 313 1709 
L 2253 4666 
z
" transform="scale(0.015625)"/>
       </defs>
       <use xlink:href="#DejaVuSans-34"/>
       <use xlink:href="#DejaVuSans-2e" x="63.623047"/>
       <use xlink:href="#DejaVuSans-35" x="95.410156"/>
       <use xlink:href="#DejaVuSans-30" x="159.033203"/>
      </g>
     </g>
    </g>
    <g id="text_8">
     <!-- J [-] -->
     <g transform="translate(288.646438 404.633125) scale(0.2 -0.2)">
      <defs>
       <path id="DejaVuSans-4a" d="M 628 4666 
L 1259 4666 
L 1259 325 
Q 1259 -519 939 -900 
Q 619 -1281 -91 -1281 
L -331 -1281 
L -331 -750 
L -134 -750 
Q 284 -750 456 -515 
Q 628 -281 628 325 
L 628 4666 
z
" transform="scale(0.015625)"/>
       <path id="DejaVuSans-20" transform="scale(0.015625)"/>
       <path id="DejaVuSans-5b" d="M 550 4863 
L 1875 4863 
L 1875 4416 
L 1125 4416 
L 1125 -397 
L 1875 -397 
L 1875 -844 
L 550 -844 
L 550 4863 
z
" transform="scale(0.015625)"/>
       <path id="DejaVuSans-2d" d="M 313 2009 
L 1997 2009 
L 1997 1497 
L 313 1497 
L 313 2009 
z
" transform="scale(0.015625)"/>
       <path id="DejaVuSans-5d" d="M 1947 4863 
L 1947 -844 
L 622 -844 
L 622 -397 
L 1369 -397 
L 1369 4416 
L 622 4416 
L 622 4863 
L 1947 4863 
z
" transform="scale(0.015625)"/>
      </defs>
      <use xlink:href="#DejaVuSans-4a"/>
      <use xlink:href="#DejaVuSans-20" x="29.492188"/>
      <use xlink:href="#DejaVuSans-5b" x="61.279297"/>
      <use xlink:href="#DejaVuSans-2d" x="100.292969"/>
      <use xlink:href="#DejaVuSans-5d" x="136.376953"/>
     </g>
    </g>
   </g>
   <g id="matplotlib.axis_2">
    <g id="ytick_1">
     <g id="line2d_15">
      <path d="M 80.246 331.513009 
L 532.125 331.513009 
" clip-path="url(#pc99d126536)" style="fill: none; stroke: #b0b0b0; stroke-width: 0.8; stroke-linecap: square"/>
     </g>
     <g id="line2d_16">
      <defs>
       <path id="m1b8d15b1f3" d="M 0 0 
L -3.5 0 
" style="stroke: #000000; stroke-width: 0.8"/>
      </defs>
      <g>
       <use xlink:href="#m1b8d15b1f3" x="80.246" y="331.513009" style="stroke: #000000; stroke-width: 0.8"/>
      </g>
     </g>
     <g id="text_9">
      <!-- 8 -->
      <g transform="translate(60.521 339.111447) scale(0.2 -0.2)">
       <defs>
        <path id="DejaVuSans-38" d="M 2034 2216 
Q 1584 2216 1326 1975 
Q 1069 1734 1069 1313 
Q 1069 891 1326 650 
Q 1584 409 2034 409 
Q 2484 409 2743 651 
Q 3003 894 3003 1313 
Q 3003 1734 2745 1975 
Q 2488 2216 2034 2216 
z
M 1403 2484 
Q 997 2584 770 2862 
Q 544 3141 544 3541 
Q 544 4100 942 4425 
Q 1341 4750 2034 4750 
Q 2731 4750 3128 4425 
Q 3525 4100 3525 3541 
Q 3525 3141 3298 2862 
Q 3072 2584 2669 2484 
Q 3125 2378 3379 2068 
Q 3634 1759 3634 1313 
Q 3634 634 3220 271 
Q 2806 -91 2034 -91 
Q 1263 -91 848 271 
Q 434 634 434 1313 
Q 434 1759 690 2068 
Q 947 2378 1403 2484 
z
M 1172 3481 
Q 1172 3119 1398 2916 
Q 1625 2713 2034 2713 
Q 2441 2713 2670 2916 
Q 2900 3119 2900 3481 
Q 2900 3844 2670 4047 
Q 2441 4250 2034 4250 
Q 1625 4250 1398 4047 
Q 1172 3844 1172 3481 
z
" transform="scale(0.015625)"/>
       </defs>
       <use xlink:href="#DejaVuSans-38"/>
      </g>
     </g>
    </g>
    <g id="ytick_2">
     <g id="line2d_17">
      <path d="M 80.246 261.112415 
L 532.125 261.112415 
" clip-path="url(#pc99d126536)" style="fill: none; stroke: #b0b0b0; stroke-width: 0.8; stroke-linecap: square"/>
     </g>
     <g id="line2d_18">
      <g>
       <use xlink:href="#m1b8d15b1f3" x="80.246" y="261.112415" style="stroke: #000000; stroke-width: 0.8"/>
      </g>
     </g>
     <g id="text_10">
      <!-- 10 -->
      <g transform="translate(47.796 268.710853) scale(0.2 -0.2)">
       <use xlink:href="#DejaVuSans-31"/>
       <use xlink:href="#DejaVuSans-30" x="63.623047"/>
      </g>
     </g>
    </g>
    <g id="ytick_3">
     <g id="line2d_19">
      <path d="M 80.246 190.711821 
L 532.125 190.711821 
" clip-path="url(#pc99d126536)" style="fill: none; stroke: #b0b0b0; stroke-width: 0.8; stroke-linecap: square"/>
     </g>
     <g id="line2d_20">
      <g>
       <use xlink:href="#m1b8d15b1f3" x="80.246" y="190.711821" style="stroke: #000000; stroke-width: 0.8"/>
      </g>
     </g>
     <g id="text_11">
      <!-- 12 -->
      <g transform="translate(47.796 198.310259) scale(0.2 -0.2)">
       <use xlink:href="#DejaVuSans-31"/>
       <use xlink:href="#DejaVuSans-32" x="63.623047"/>
      </g>
     </g>
    </g>
    <g id="ytick_4">
     <g id="line2d_21">
      <path d="M 80.246 120.311227 
L 532.125 120.311227 
" clip-path="url(#pc99d126536)" style="fill: none; stroke: #b0b0b0; stroke-width: 0.8; stroke-linecap: square"/>
     </g>
     <g id="line2d_22">
      <g>
       <use xlink:href="#m1b8d15b1f3" x="80.246" y="120.311227" style="stroke: #000000; stroke-width: 0.8"/>
      </g>
     </g>
     <g id="text_12">
      <!-- 14 -->
      <g transform="translate(47.796 127.909664) scale(0.2 -0.2)">
       <use xlink:href="#DejaVuSans-31"/>
       <use xlink:href="#DejaVuSans-34" x="63.623047"/>
      </g>
     </g>
    </g>
    <g id="ytick_5">
     <g id="line2d_23">
      <path d="M 80.246 49.910633 
L 532.125 49.910633 
" clip-path="url(#pc99d126536)" style="fill: none; stroke: #b0b0b0; stroke-width: 0.8; stroke-linecap: square"/>
     </g>
     <g id="line2d_24">
      <g>
       <use xlink:href="#m1b8d15b1f3" x="80.246" y="49.910633" style="stroke: #000000; stroke-width: 0.8"/>
      </g>
     </g>
     <g id="text_13">
      <!-- 16 -->
      <g transform="translate(47.796 57.50907) scale(0.2 -0.2)">
       <defs>
        <path id="DejaVuSans-36" d="M 2113 2584 
Q 1688 2584 1439 2293 
Q 1191 2003 1191 1497 
Q 1191 994 1439 701 
Q 1688 409 2113 409 
Q 2538 409 2786 701 
Q 3034 994 3034 1497 
Q 3034 2003 2786 2293 
Q 2538 2584 2113 2584 
z
M 3366 4563 
L 3366 3988 
Q 3128 4100 2886 4159 
Q 2644 4219 2406 4219 
Q 1781 4219 1451 3797 
Q 1122 3375 1075 2522 
Q 1259 2794 1537 2939 
Q 1816 3084 2150 3084 
Q 2853 3084 3261 2657 
Q 3669 2231 3669 1497 
Q 3669 778 3244 343 
Q 2819 -91 2113 -91 
Q 1303 -91 875 529 
Q 447 1150 447 2328 
Q 447 3434 972 4092 
Q 1497 4750 2381 4750 
Q 2619 4750 2861 4703 
Q 3103 4656 3366 4563 
z
" transform="scale(0.015625)"/>
       </defs>
       <use xlink:href="#DejaVuSans-31"/>
       <use xlink:href="#DejaVuSans-36" x="63.623047"/>
      </g>
     </g>
    </g>
    <g id="text_14">
     <!-- $C_L$/$C_D$ [-] (trim) -->
     <g transform="translate(39.636625 263.64) rotate(-90) scale(0.2 -0.2)">
      <defs>
       <path id="DejaVuSans-Oblique-43" d="M 4447 4306 
L 4319 3641 
Q 4019 3944 3683 4091 
Q 3347 4238 2956 4238 
Q 2422 4238 2017 3981 
Q 1613 3725 1319 3200 
Q 1131 2863 1032 2486 
Q 934 2109 934 1728 
Q 934 1091 1264 756 
Q 1594 422 2222 422 
Q 2656 422 3056 561 
Q 3456 700 3834 978 
L 3688 231 
Q 3316 72 2936 -9 
Q 2556 -91 2175 -91 
Q 1278 -91 773 396 
Q 269 884 269 1753 
Q 269 2309 461 2846 
Q 653 3384 1013 3828 
Q 1394 4300 1883 4525 
Q 2372 4750 3022 4750 
Q 3422 4750 3780 4639 
Q 4138 4528 4447 4306 
z
" transform="scale(0.015625)"/>
       <path id="DejaVuSans-Oblique-4c" d="M 1075 4666 
L 1709 4666 
L 909 525 
L 3181 525 
L 3078 0 
L 172 0 
L 1075 4666 
z
" transform="scale(0.015625)"/>
       <path id="DejaVuSans-2f" d="M 1625 4666 
L 2156 4666 
L 531 -594 
L 0 -594 
L 1625 4666 
z
" transform="scale(0.015625)"/>
       <path id="DejaVuSans-Oblique-44" d="M 1081 4666 
L 2438 4666 
Q 3519 4666 4070 4208 
Q 4622 3750 4622 2847 
Q 4622 2250 4412 1698 
Q 4203 1147 3834 769 
Q 3463 381 2891 190 
Q 2319 0 1538 0 
L 172 0 
L 1081 4666 
z
M 1613 4147 
L 909 519 
L 1734 519 
Q 2794 519 3375 1128 
Q 3956 1738 3956 2847 
Q 3956 3519 3581 3833 
Q 3206 4147 2406 4147 
L 1613 4147 
z
" transform="scale(0.015625)"/>
       <path id="DejaVuSans-28" d="M 1984 4856 
Q 1566 4138 1362 3434 
Q 1159 2731 1159 2009 
Q 1159 1288 1364 580 
Q 1569 -128 1984 -844 
L 1484 -844 
Q 1016 -109 783 600 
Q 550 1309 550 2009 
Q 550 2706 781 3412 
Q 1013 4119 1484 4856 
L 1984 4856 
z
" transform="scale(0.015625)"/>
       <path id="DejaVuSans-74" d="M 1172 4494 
L 1172 3500 
L 2356 3500 
L 2356 3053 
L 1172 3053 
L 1172 1153 
Q 1172 725 1289 603 
Q 1406 481 1766 481 
L 2356 481 
L 2356 0 
L 1766 0 
Q 1100 0 847 248 
Q 594 497 594 1153 
L 594 3053 
L 172 3053 
L 172 3500 
L 594 3500 
L 594 4494 
L 1172 4494 
z
" transform="scale(0.015625)"/>
       <path id="DejaVuSans-72" d="M 2631 2963 
Q 2534 3019 2420 3045 
Q 2306 3072 2169 3072 
Q 1681 3072 1420 2755 
Q 1159 2438 1159 1844 
L 1159 0 
L 581 0 
L 581 3500 
L 1159 3500 
L 1159 2956 
Q 1341 3275 1631 3429 
Q 1922 3584 2338 3584 
Q 2397 3584 2469 3576 
Q 2541 3569 2628 3553 
L 2631 2963 
z
" transform="scale(0.015625)"/>
       <path id="DejaVuSans-69" d="M 603 3500 
L 1178 3500 
L 1178 0 
L 603 0 
L 603 3500 
z
M 603 4863 
L 1178 4863 
L 1178 4134 
L 603 4134 
L 603 4863 
z
" transform="scale(0.015625)"/>
       <path id="DejaVuSans-6d" d="M 3328 2828 
Q 3544 3216 3844 3400 
Q 4144 3584 4550 3584 
Q 5097 3584 5394 3201 
Q 5691 2819 5691 2113 
L 5691 0 
L 5113 0 
L 5113 2094 
Q 5113 2597 4934 2840 
Q 4756 3084 4391 3084 
Q 3944 3084 3684 2787 
Q 3425 2491 3425 1978 
L 3425 0 
L 2847 0 
L 2847 2094 
Q 2847 2600 2669 2842 
Q 2491 3084 2119 3084 
Q 1678 3084 1418 2786 
Q 1159 2488 1159 1978 
L 1159 0 
L 581 0 
L 581 3500 
L 1159 3500 
L 1159 2956 
Q 1356 3278 1631 3431 
Q 1906 3584 2284 3584 
Q 2666 3584 2933 3390 
Q 3200 3197 3328 2828 
z
" transform="scale(0.015625)"/>
       <path id="DejaVuSans-29" d="M 513 4856 
L 1013 4856 
Q 1481 4119 1714 3412 
Q 1947 2706 1947 2009 
Q 1947 1309 1714 600 
Q 1481 -109 1013 -844 
L 513 -844 
Q 928 -128 1133 580 
Q 1338 1288 1338 2009 
Q 1338 2731 1133 3434 
Q 928 4138 513 4856 
z
" transform="scale(0.015625)"/>
      </defs>
      <use xlink:href="#DejaVuSans-Oblique-43" transform="translate(0 0.015625)"/>
      <use xlink:href="#DejaVuSans-Oblique-4c" transform="translate(69.824219 -16.390625) scale(0.7)"/>
      <use xlink:href="#DejaVuSans-2f" transform="translate(111.557617 0.015625)"/>
      <use xlink:href="#DejaVuSans-Oblique-43" transform="translate(145.249023 0.015625)"/>
      <use xlink:href="#DejaVuSans-Oblique-44" transform="translate(215.073242 -16.390625) scale(0.7)"/>
      <use xlink:href="#DejaVuSans-20" transform="translate(271.708984 0.015625)"/>
      <use xlink:href="#DejaVuSans-5b" transform="translate(303.496094 0.015625)"/>
      <use xlink:href="#DejaVuSans-2d" transform="translate(342.509766 0.015625)"/>
      <use xlink:href="#DejaVuSans-5d" transform="translate(378.59375 0.015625)"/>
      <use xlink:href="#DejaVuSans-20" transform="translate(417.607422 0.015625)"/>
      <use xlink:href="#DejaVuSans-28" transform="translate(449.394531 0.015625)"/>
      <use xlink:href="#DejaVuSans-74" transform="translate(488.408203 0.015625)"/>
      <use xlink:href="#DejaVuSans-72" transform="translate(527.617188 0.015625)"/>
      <use xlink:href="#DejaVuSans-69" transform="translate(568.730469 0.015625)"/>
      <use xlink:href="#DejaVuSans-6d" transform="translate(596.513672 0.015625)"/>
      <use xlink:href="#DejaVuSans-29" transform="translate(693.925781 0.015625)"/>
     </g>
    </g>
   </g>
   <g id="line2d_25">
    <path d="M 80.246 36.94 
L 84.810434 37.609608 
L 89.374869 38.279216 
L 93.939303 38.948824 
L 98.503737 39.618432 
L 103.068172 40.28804 
L 107.632606 40.957648 
L 112.19704 41.627255 
L 116.761475 42.296863 
L 121.325909 42.966471 
L 125.890343 43.636079 
L 130.454778 44.305687 
L 135.019212 44.975295 
L 139.583646 45.644903 
L 144.148081 46.314511 
L 148.712515 46.984119 
L 153.276949 47.653727 
L 157.841384 48.323335 
L 162.405818 48.992943 
L 166.970253 49.662551 
L 171.534687 50.332158 
L 176.099121 51.001766 
L 180.663556 51.671374 
L 185.22799 52.340982 
L 189.792424 53.01059 
L 194.356859 53.680198 
L 198.921293 54.349806 
L 203.485727 55.019414 
L 208.050162 55.689022 
L 212.614596 56.35863 
L 217.17903 57.028238 
L 221.743465 57.697846 
L 226.307899 58.367453 
L 230.872333 59.037061 
L 235.436768 59.706669 
L 240.001202 60.376277 
L 244.565636 61.045885 
L 249.130071 61.715493 
L 253.694505 62.385101 
L 258.258939 63.054709 
L 262.823374 63.724317 
L 267.387808 64.393925 
L 271.952242 65.063533 
L 276.516677 65.733141 
L 281.081111 66.402749 
L 285.645545 67.072356 
L 290.20998 67.741964 
L 294.774414 68.411572 
L 299.338848 69.08118 
L 303.903283 69.750788 
L 308.467717 70.420396 
L 313.032152 71.090004 
L 317.596586 71.759612 
L 322.16102 72.42922 
L 326.725455 73.098828 
L 331.289889 73.768436 
L 335.854323 74.438044 
L 340.418758 75.107652 
L 344.983192 75.777259 
L 349.547626 76.446867 
L 354.112061 77.116475 
L 358.676495 77.786083 
L 363.240929 78.455691 
L 367.805364 79.125299 
L 372.369798 79.794907 
L 376.934232 80.464515 
L 381.498667 81.134123 
L 386.063101 81.803731 
L 390.627535 82.473339 
L 395.19197 83.142947 
L 399.756404 83.812555 
L 404.320838 84.482162 
L 408.885273 85.15177 
L 413.449707 85.821378 
L 418.014141 86.490986 
L 422.578576 87.160594 
L 427.14301 87.830202 
L 431.707444 88.49981 
L 436.271879 89.169418 
L 440.836313 89.839026 
L 445.400747 90.508634 
L 449.965182 91.178242 
L 454.529616 91.84785 
L 459.094051 92.517458 
L 463.658485 93.187065 
L 468.222919 93.856673 
L 472.787354 94.526281 
L 477.351788 95.195889 
L 481.916222 95.865497 
L 486.480657 96.535105 
L 491.045091 97.204713 
L 495.609525 97.874321 
L 500.17396 98.543929 
L 504.738394 99.213537 
L 509.302828 99.883145 
L 513.867263 100.552753 
L 518.431697 101.22236 
L 522.996131 101.891968 
L 527.560566 102.561576 
L 532.125 103.231184 
" clip-path="url(#pc99d126536)" style="fill: none; stroke-dasharray: 9.6,2.4,1.5,2.4; stroke-dashoffset: 0; stroke: #00a6b6; stroke-width: 1.5"/>
   </g>
   <g id="line2d_26">
    <path d="M 80.246 231.371678 
L 84.810434 231.936665 
L 89.374869 232.501651 
L 93.939303 233.066638 
L 98.503737 233.631624 
L 103.068172 234.196611 
L 107.632606 234.761597 
L 112.19704 235.326584 
L 116.761475 235.891571 
L 121.325909 236.456557 
L 125.890343 237.021544 
L 130.454778 237.58653 
L 135.019212 238.151517 
L 139.583646 238.716503 
L 144.148081 239.28149 
L 148.712515 239.846477 
L 153.276949 240.411463 
L 157.841384 240.97645 
L 162.405818 241.541436 
L 166.970253 242.106423 
L 171.534687 242.671409 
L 176.099121 243.236396 
L 180.663556 243.801383 
L 185.22799 244.366369 
L 189.792424 244.931356 
L 194.356859 245.496342 
L 198.921293 246.061329 
L 203.485727 246.626315 
L 208.050162 247.191302 
L 212.614596 247.756289 
L 217.17903 248.321275 
L 221.743465 248.886262 
L 226.307899 249.451248 
L 230.872333 250.016235 
L 235.436768 250.581221 
L 240.001202 251.146208 
L 244.565636 251.711195 
L 249.130071 252.276181 
L 253.694505 252.841168 
L 258.258939 253.406154 
L 262.823374 253.971141 
L 267.387808 254.536127 
L 271.952242 255.101114 
L 276.516677 255.666101 
L 281.081111 256.231087 
L 285.645545 256.796074 
L 290.20998 257.36106 
L 294.774414 257.926047 
L 299.338848 258.491033 
L 303.903283 259.05602 
L 308.467717 259.621007 
L 313.032152 260.185993 
L 317.596586 260.75098 
L 322.16102 261.315966 
L 326.725455 261.880953 
L 331.289889 262.445939 
L 335.854323 263.010926 
L 340.418758 263.575913 
L 344.983192 264.140899 
L 349.547626 264.705886 
L 354.112061 265.270872 
L 358.676495 265.835859 
L 363.240929 266.400845 
L 367.805364 266.965832 
L 372.369798 267.530819 
L 376.934232 268.095805 
L 381.498667 268.660792 
L 386.063101 269.225778 
L 390.627535 269.790765 
L 395.19197 270.355751 
L 399.756404 270.920738 
L 404.320838 271.485725 
L 408.885273 272.050711 
L 413.449707 272.615698 
L 418.014141 273.180684 
L 422.578576 273.745671 
L 427.14301 274.310657 
L 431.707444 274.875644 
L 436.271879 275.440631 
L 440.836313 276.005617 
L 445.400747 276.570604 
L 449.965182 277.13559 
L 454.529616 277.700577 
L 459.094051 278.265563 
L 463.658485 278.83055 
L 468.222919 279.395537 
L 472.787354 279.960523 
L 477.351788 280.52551 
L 481.916222 281.090496 
L 486.480657 281.655483 
L 491.045091 282.220469 
L 495.609525 282.785456 
L 500.17396 283.350443 
L 504.738394 283.915429 
L 509.302828 284.480416 
L 513.867263 285.045402 
L 518.431697 285.610389 
L 522.996131 286.175375 
L 527.560566 286.740362 
L 532.125 287.305349 
" clip-path="url(#pc99d126536)" style="fill: none; stroke-dasharray: 9.6,2.4,1.5,2.4; stroke-dashoffset: 0; stroke: #a50034; stroke-width: 1.5"/>
   </g>
   <g id="line2d_27">
    <path d="M 80.246 297.074225 
L 84.810434 297.545597 
L 89.374869 298.016968 
L 93.939303 298.48834 
L 98.503737 298.959711 
L 103.068172 299.431083 
L 107.632606 299.902454 
L 112.19704 300.373826 
L 116.761475 300.845197 
L 121.325909 301.316569 
L 125.890343 301.78794 
L 130.454778 302.259311 
L 135.019212 302.730683 
L 139.583646 303.202054 
L 144.148081 303.673426 
L 148.712515 304.144797 
L 153.276949 304.616169 
L 157.841384 305.08754 
L 162.405818 305.558912 
L 166.970253 306.030283 
L 171.534687 306.501655 
L 176.099121 306.973026 
L 180.663556 307.444398 
L 185.22799 307.915769 
L 189.792424 308.38714 
L 194.356859 308.858512 
L 198.921293 309.329883 
L 203.485727 309.801255 
L 208.050162 310.272626 
L 212.614596 310.743998 
L 217.17903 311.215369 
L 221.743465 311.686741 
L 226.307899 312.158112 
L 230.872333 312.629484 
L 235.436768 313.100855 
L 240.001202 313.572226 
L 244.565636 314.043598 
L 249.130071 314.514969 
L 253.694505 314.986341 
L 258.258939 315.457712 
L 262.823374 315.929084 
L 267.387808 316.400455 
L 271.952242 316.871827 
L 276.516677 317.343198 
L 281.081111 317.81457 
L 285.645545 318.285941 
L 290.20998 318.757313 
L 294.774414 319.228684 
L 299.338848 319.700055 
L 303.903283 320.171427 
L 308.467717 320.642798 
L 313.032152 321.11417 
L 317.596586 321.585541 
L 322.16102 322.056913 
L 326.725455 322.528284 
L 331.289889 322.999656 
L 335.854323 323.471027 
L 340.418758 323.942399 
L 344.983192 324.41377 
L 349.547626 324.885142 
L 354.112061 325.356513 
L 358.676495 325.827884 
L 363.240929 326.299256 
L 367.805364 326.770627 
L 372.369798 327.241999 
L 376.934232 327.71337 
L 381.498667 328.184742 
L 386.063101 328.656113 
L 390.627535 329.127485 
L 395.19197 329.598856 
L 399.756404 330.070228 
L 404.320838 330.541599 
L 408.885273 331.012971 
L 413.449707 331.484342 
L 418.014141 331.955713 
L 422.578576 332.427085 
L 427.14301 332.898456 
L 431.707444 333.369828 
L 436.271879 333.841199 
L 440.836313 334.312571 
L 445.400747 334.783942 
L 449.965182 335.255314 
L 454.529616 335.726685 
L 459.094051 336.198057 
L 463.658485 336.669428 
L 468.222919 337.1408 
L 472.787354 337.612171 
L 477.351788 338.083542 
L 481.916222 338.554914 
L 486.480657 339.026285 
L 491.045091 339.497657 
L 495.609525 339.969028 
L 500.17396 340.4404 
L 504.738394 340.911771 
L 509.302828 341.383143 
L 513.867263 341.854514 
L 518.431697 342.325886 
L 522.996131 342.797257 
L 527.560566 343.268629 
L 532.125 343.74 
" clip-path="url(#pc99d126536)" style="fill: none; stroke-dasharray: 9.6,2.4,1.5,2.4; stroke-dashoffset: 0; stroke: #ef60a3; stroke-width: 1.5"/>
   </g>
   <g id="patch_3">
    <path d="M 80.246 359.08 
L 80.246 21.6 
" style="fill: none; stroke: #000000; stroke-width: 0.8; stroke-linejoin: miter; stroke-linecap: square"/>
   </g>
   <g id="patch_4">
    <path d="M 532.125 359.08 
L 532.125 21.6 
" style="fill: none; stroke: #000000; stroke-width: 0.8; stroke-linejoin: miter; stroke-linecap: square"/>
   </g>
   <g id="patch_5">
    <path d="M 80.246 359.08 
L 532.125 359.08 
" style="fill: none; stroke: #000000; stroke-width: 0.8; stroke-linejoin: miter; stroke-linecap: square"/>
   </g>
   <g id="patch_6">
    <path d="M 80.246 21.6 
L 532.125 21.6 
" style="fill: none; stroke: #000000; stroke-width: 0.8; stroke-linejoin: miter; stroke-linecap: square"/>
   </g>
   <g id="legend_1">
    <g id="patch_7">
     <path d="M 341.925 237.44 
L 518.125 237.44 
Q 522.125 237.44 522.125 233.44 
L 522.125 147.24 
Q 522.125 143.24 518.125 143.24 
L 341.925 143.24 
Q 337.925 143.24 337.925 147.24 
L 337.925 233.44 
Q 337.925 237.44 341.925 237.44 
z
" style="fill: #ffffff; opacity: 0.8; stroke: #cccccc; stroke-linejoin: miter"/>
    </g>
    <g id="line2d_28">
     <path d="M 345.925 159.44 
L 365.925 159.44 
L 385.925 159.44 
" style="fill: none; stroke-dasharray: 9.6,2.4,1.5,2.4; stroke-dashoffset: 0; stroke: #00a6b6; stroke-width: 1.5"/>
    </g>
    <g id="text_15">
     <!-- $\alpha$ = 7 deg -->
     <g transform="translate(401.925 166.44) scale(0.2 -0.2)">
      <defs>
       <path id="DejaVuSans-Oblique-3b1" d="M 2619 1628 
L 2622 2350 
Q 2625 3088 2069 3091 
Q 1653 3094 1394 2747 
Q 1069 2319 959 1747 
Q 825 1059 994 731 
Q 1169 397 1547 397 
Q 1966 397 2319 1063 
L 2619 1628 
z
M 2166 3578 
Q 3141 3594 3128 2584 
Q 3128 2584 3616 3500 
L 4128 3500 
L 3119 1603 
L 3109 919 
Q 3109 766 3194 638 
Q 3291 488 3391 488 
L 3669 488 
L 3575 0 
L 3228 0 
Q 2934 0 2722 263 
Q 2622 394 2619 669 
Q 2416 334 2066 50 
Q 1900 -81 1453 -78 
Q 722 -72 456 397 
Q 184 884 353 1747 
Q 534 2675 1009 3097 
Q 1544 3569 2166 3578 
z
" transform="scale(0.015625)"/>
       <path id="DejaVuSans-3d" d="M 678 2906 
L 4684 2906 
L 4684 2381 
L 678 2381 
L 678 2906 
z
M 678 1631 
L 4684 1631 
L 4684 1100 
L 678 1100 
L 678 1631 
z
" transform="scale(0.015625)"/>
       <path id="DejaVuSans-64" d="M 2906 2969 
L 2906 4863 
L 3481 4863 
L 3481 0 
L 2906 0 
L 2906 525 
Q 2725 213 2448 61 
Q 2172 -91 1784 -91 
Q 1150 -91 751 415 
Q 353 922 353 1747 
Q 353 2572 751 3078 
Q 1150 3584 1784 3584 
Q 2172 3584 2448 3432 
Q 2725 3281 2906 2969 
z
M 947 1747 
Q 947 1113 1208 752 
Q 1469 391 1925 391 
Q 2381 391 2643 752 
Q 2906 1113 2906 1747 
Q 2906 2381 2643 2742 
Q 2381 3103 1925 3103 
Q 1469 3103 1208 2742 
Q 947 2381 947 1747 
z
" transform="scale(0.015625)"/>
       <path id="DejaVuSans-65" d="M 3597 1894 
L 3597 1613 
L 953 1613 
Q 991 1019 1311 708 
Q 1631 397 2203 397 
Q 2534 397 2845 478 
Q 3156 559 3463 722 
L 3463 178 
Q 3153 47 2828 -22 
Q 2503 -91 2169 -91 
Q 1331 -91 842 396 
Q 353 884 353 1716 
Q 353 2575 817 3079 
Q 1281 3584 2069 3584 
Q 2775 3584 3186 3129 
Q 3597 2675 3597 1894 
z
M 3022 2063 
Q 3016 2534 2758 2815 
Q 2500 3097 2075 3097 
Q 1594 3097 1305 2825 
Q 1016 2553 972 2059 
L 3022 2063 
z
" transform="scale(0.015625)"/>
       <path id="DejaVuSans-67" d="M 2906 1791 
Q 2906 2416 2648 2759 
Q 2391 3103 1925 3103 
Q 1463 3103 1205 2759 
Q 947 2416 947 1791 
Q 947 1169 1205 825 
Q 1463 481 1925 481 
Q 2391 481 2648 825 
Q 2906 1169 2906 1791 
z
M 3481 434 
Q 3481 -459 3084 -895 
Q 2688 -1331 1869 -1331 
Q 1566 -1331 1297 -1286 
Q 1028 -1241 775 -1147 
L 775 -588 
Q 1028 -725 1275 -790 
Q 1522 -856 1778 -856 
Q 2344 -856 2625 -561 
Q 2906 -266 2906 331 
L 2906 616 
Q 2728 306 2450 153 
Q 2172 0 1784 0 
Q 1141 0 747 490 
Q 353 981 353 1791 
Q 353 2603 747 3093 
Q 1141 3584 1784 3584 
Q 2172 3584 2450 3431 
Q 2728 3278 2906 2969 
L 2906 3500 
L 3481 3500 
L 3481 434 
z
" transform="scale(0.015625)"/>
      </defs>
      <use xlink:href="#DejaVuSans-Oblique-3b1" transform="translate(0 0.015625)"/>
      <use xlink:href="#DejaVuSans-20" transform="translate(65.917969 0.015625)"/>
      <use xlink:href="#DejaVuSans-3d" transform="translate(97.705078 0.015625)"/>
      <use xlink:href="#DejaVuSans-20" transform="translate(181.494141 0.015625)"/>
      <use xlink:href="#DejaVuSans-37" transform="translate(213.28125 0.015625)"/>
      <use xlink:href="#DejaVuSans-20" transform="translate(276.904297 0.015625)"/>
      <use xlink:href="#DejaVuSans-64" transform="translate(308.691406 0.015625)"/>
      <use xlink:href="#DejaVuSans-65" transform="translate(372.167969 0.015625)"/>
      <use xlink:href="#DejaVuSans-67" transform="translate(433.691406 0.015625)"/>
     </g>
    </g>
    <g id="line2d_29">
     <path d="M 345.925 188.84 
L 365.925 188.84 
L 385.925 188.84 
" style="fill: none; stroke-dasharray: 9.6,2.4,1.5,2.4; stroke-dashoffset: 0; stroke: #a50034; stroke-width: 1.5"/>
    </g>
    <g id="text_16">
     <!-- $\alpha$ = 12 deg -->
     <g transform="translate(401.925 195.84) scale(0.2 -0.2)">
      <use xlink:href="#DejaVuSans-Oblique-3b1" transform="translate(0 0.015625)"/>
      <use xlink:href="#DejaVuSans-20" transform="translate(65.917969 0.015625)"/>
      <use xlink:href="#DejaVuSans-3d" transform="translate(97.705078 0.015625)"/>
      <use xlink:href="#DejaVuSans-20" transform="translate(181.494141 0.015625)"/>
      <use xlink:href="#DejaVuSans-31" transform="translate(213.28125 0.015625)"/>
      <use xlink:href="#DejaVuSans-32" transform="translate(276.904297 0.015625)"/>
      <use xlink:href="#DejaVuSans-20" transform="translate(340.527344 0.015625)"/>
      <use xlink:href="#DejaVuSans-64" transform="translate(372.314453 0.015625)"/>
      <use xlink:href="#DejaVuSans-65" transform="translate(435.791016 0.015625)"/>
      <use xlink:href="#DejaVuSans-67" transform="translate(497.314453 0.015625)"/>
     </g>
    </g>
    <g id="line2d_30">
     <path d="M 345.925 218.24 
L 365.925 218.24 
L 385.925 218.24 
" style="fill: none; stroke-dasharray: 9.6,2.4,1.5,2.4; stroke-dashoffset: 0; stroke: #ef60a3; stroke-width: 1.5"/>
    </g>
    <g id="text_17">
     <!-- $\alpha$ = 14 deg -->
     <g transform="translate(401.925 225.24) scale(0.2 -0.2)">
      <use xlink:href="#DejaVuSans-Oblique-3b1" transform="translate(0 0.015625)"/>
      <use xlink:href="#DejaVuSans-20" transform="translate(65.917969 0.015625)"/>
      <use xlink:href="#DejaVuSans-3d" transform="translate(97.705078 0.015625)"/>
      <use xlink:href="#DejaVuSans-20" transform="translate(181.494141 0.015625)"/>
      <use xlink:href="#DejaVuSans-31" transform="translate(213.28125 0.015625)"/>
      <use xlink:href="#DejaVuSans-34" transform="translate(276.904297 0.015625)"/>
      <use xlink:href="#DejaVuSans-20" transform="translate(340.527344 0.015625)"/>
      <use xlink:href="#DejaVuSans-64" transform="translate(372.314453 0.015625)"/>
      <use xlink:href="#DejaVuSans-65" transform="translate(435.791016 0.015625)"/>
      <use xlink:href="#DejaVuSans-67" transform="translate(497.314453 0.015625)"/>
     </g>
    </g>
   </g>
  </g>
 </g>
 <defs>
  <clipPath id="pc99d126536">
   <rect x="80.246" y="21.6" width="451.879" height="337.48"/>
  </clipPath>
 </defs>
</svg>
